M48
; DRILL file {KiCad 7.0.5} date Thu Aug  3 16:35:42 2023
; FORMAT={-:-/ absolute / metric / decimal}
; #@! TF.CreationDate,2023-08-03T16:35:42+02:00
; #@! TF.GenerationSoftware,Kicad,Pcbnew,7.0.5
; #@! TF.FileFunction,Plated,1,2,PTH
FMAT,2
METRIC
; #@! TA.AperFunction,Plated,PTH,ViaDrill
T1C0.400
; #@! TA.AperFunction,Plated,PTH,ComponentDrill
T2C0.800
; #@! TA.AperFunction,Plated,PTH,ComponentDrill
T3C3.200
%
G90
G05
T1
X166.878Y-108.509
X169.418Y-110.345
X170.18Y-108.509
T2
X116.224Y-102.057
X116.224Y-104.597
X119.024Y-102.057
X119.024Y-104.597
X129.28Y-102.057
X129.28Y-104.597
X132.08Y-102.057
X132.08Y-104.597
X142.386Y-102.057
X142.386Y-104.597
X145.186Y-102.057
X145.186Y-104.597
X155.436Y-102.057
X155.436Y-104.597
X158.236Y-102.057
X158.236Y-104.597
X168.548Y-102.057
X168.548Y-104.597
X171.348Y-102.057
X171.348Y-104.597
X181.604Y-102.057
X181.604Y-104.597
X184.404Y-102.057
X184.404Y-104.597
X194.704Y-102.057
X194.704Y-104.597
X197.504Y-102.057
X197.504Y-104.597
X207.811Y-102.057
X207.811Y-104.597
X210.611Y-102.057
X210.611Y-104.597
T3
X140.36Y-112.827
X158.293Y-95.86
X168.3Y-95.86
X186.182Y-113.03
T0
M30
