G04 #@! TF.GenerationSoftware,KiCad,Pcbnew,7.0.5*
G04 #@! TF.CreationDate,2023-08-03T16:32:48+02:00*
G04 #@! TF.ProjectId,Sensores,53656e73-6f72-4657-932e-6b696361645f,rev?*
G04 #@! TF.SameCoordinates,Original*
G04 #@! TF.FileFunction,Soldermask,Top*
G04 #@! TF.FilePolarity,Negative*
%FSLAX46Y46*%
G04 Gerber Fmt 4.6, Leading zero omitted, Abs format (unit mm)*
G04 Created by KiCad (PCBNEW 7.0.5) date 2023-08-03 16:32:48*
%MOMM*%
%LPD*%
G01*
G04 APERTURE LIST*
G04 Aperture macros list*
%AMRoundRect*
0 Rectangle with rounded corners*
0 $1 Rounding radius*
0 $2 $3 $4 $5 $6 $7 $8 $9 X,Y pos of 4 corners*
0 Add a 4 corners polygon primitive as box body*
4,1,4,$2,$3,$4,$5,$6,$7,$8,$9,$2,$3,0*
0 Add four circle primitives for the rounded corners*
1,1,$1+$1,$2,$3*
1,1,$1+$1,$4,$5*
1,1,$1+$1,$6,$7*
1,1,$1+$1,$8,$9*
0 Add four rect primitives between the rounded corners*
20,1,$1+$1,$2,$3,$4,$5,0*
20,1,$1+$1,$4,$5,$6,$7,0*
20,1,$1+$1,$6,$7,$8,$9,0*
20,1,$1+$1,$8,$9,$2,$3,0*%
G04 Aperture macros list end*
%ADD10C,5.600000*%
%ADD11RoundRect,0.250000X0.400000X0.625000X-0.400000X0.625000X-0.400000X-0.625000X0.400000X-0.625000X0*%
%ADD12RoundRect,0.250000X-0.625000X0.400000X-0.625000X-0.400000X0.625000X-0.400000X0.625000X0.400000X0*%
%ADD13R,0.610000X2.000000*%
%ADD14R,2.680000X3.600000*%
%ADD15RoundRect,0.249600X-0.550400X-0.550400X0.550400X-0.550400X0.550400X0.550400X-0.550400X0.550400X0*%
%ADD16C,1.600000*%
G04 APERTURE END LIST*
D10*
X186182000Y-113030000D03*
X158292800Y-95859600D03*
D11*
X125552800Y-99974400D03*
X122452800Y-99974400D03*
D12*
X151664000Y-103073200D03*
X151664000Y-106173200D03*
D11*
X151664000Y-98094800D03*
X148564000Y-98094800D03*
D12*
X203911200Y-103606000D03*
X203911200Y-106706000D03*
D13*
X158822000Y-110345200D03*
X159822000Y-110345200D03*
X160822000Y-110345200D03*
X161822000Y-110345200D03*
X162822000Y-110345200D03*
X163822000Y-110345200D03*
X164822000Y-110345200D03*
X165822000Y-110345200D03*
X166822000Y-110345200D03*
X167822000Y-110345200D03*
D14*
X155832000Y-113145200D03*
X170812000Y-113145200D03*
D12*
X175056800Y-103098000D03*
X175056800Y-106198000D03*
D11*
X204089600Y-100076000D03*
X200989600Y-100076000D03*
X177953600Y-98145600D03*
X174853600Y-98145600D03*
D10*
X140360400Y-112826800D03*
D12*
X122580400Y-103581200D03*
X122580400Y-106681200D03*
D10*
X168300400Y-95859600D03*
D12*
X148894800Y-103072000D03*
X148894800Y-106172000D03*
X177698400Y-103098000D03*
X177698400Y-106198000D03*
X201218800Y-103606000D03*
X201218800Y-106706000D03*
X125476000Y-103581200D03*
X125476000Y-106681200D03*
D15*
X194704400Y-104597200D03*
D16*
X194704400Y-102057200D03*
X197504400Y-102057200D03*
X197504400Y-104597200D03*
D15*
X142386400Y-104597200D03*
D16*
X142386400Y-102057200D03*
X145186400Y-102057200D03*
X145186400Y-104597200D03*
D15*
X155436000Y-104597200D03*
D16*
X155436000Y-102057200D03*
X158236000Y-102057200D03*
X158236000Y-104597200D03*
D15*
X168548400Y-104597200D03*
D16*
X168548400Y-102057200D03*
X171348400Y-102057200D03*
X171348400Y-104597200D03*
D15*
X181604000Y-104597200D03*
D16*
X181604000Y-102057200D03*
X184404000Y-102057200D03*
X184404000Y-104597200D03*
D15*
X207810800Y-104597200D03*
D16*
X207810800Y-102057200D03*
X210610800Y-102057200D03*
X210610800Y-104597200D03*
D15*
X129280000Y-104597200D03*
D16*
X129280000Y-102057200D03*
X132080000Y-102057200D03*
X132080000Y-104597200D03*
D15*
X116224400Y-104597200D03*
D16*
X116224400Y-102057200D03*
X119024400Y-102057200D03*
X119024400Y-104597200D03*
M02*
