G04 #@! TF.GenerationSoftware,KiCad,Pcbnew,7.0.5*
G04 #@! TF.CreationDate,2023-08-03T16:32:48+02:00*
G04 #@! TF.ProjectId,Sensores,53656e73-6f72-4657-932e-6b696361645f,rev?*
G04 #@! TF.SameCoordinates,Original*
G04 #@! TF.FileFunction,Profile,NP*
%FSLAX46Y46*%
G04 Gerber Fmt 4.6, Leading zero omitted, Abs format (unit mm)*
G04 Created by KiCad (PCBNEW 7.0.5) date 2023-08-03 16:32:48*
%MOMM*%
%LPD*%
G01*
G04 APERTURE LIST*
G04 #@! TA.AperFunction,Profile*
%ADD10C,0.200000*%
G04 #@! TD*
G04 APERTURE END LIST*
D10*
X194557383Y-108865849D02*
X211284000Y-108865849D01*
X152784001Y-112604208D02*
G75*
G03*
X144857668Y-112426589I-3970501J-238492D01*
G01*
X155650810Y-92405631D02*
X170917190Y-92405631D01*
X173784000Y-112466111D02*
X173784000Y-117774092D01*
X172784000Y-118774100D02*
G75*
G03*
X173784000Y-117774092I-100J1000100D01*
G01*
X113284000Y-100584000D02*
X113284000Y-106865849D01*
X181677347Y-112919843D02*
X181677347Y-112726988D01*
X152784000Y-117774092D02*
X152784000Y-112604208D01*
X181677349Y-112919843D02*
G75*
G03*
X190670902Y-113005246I4496371J-85417D01*
G01*
X213284084Y-100584000D02*
G75*
G03*
X211585481Y-98606854I-1999984J0D01*
G01*
X213284000Y-106865849D02*
X213284000Y-100584000D01*
X115284000Y-108865849D02*
X132496691Y-108865849D01*
X113284051Y-106865849D02*
G75*
G03*
X115284000Y-108865849I1999949J-51D01*
G01*
X153784000Y-118774092D02*
X172784000Y-118774092D01*
X114982519Y-98606853D02*
G75*
G03*
X113284000Y-100584000I301481J-1977147D01*
G01*
X190670902Y-113005246D02*
X190670901Y-112820441D01*
X170917190Y-92405631D02*
X211585481Y-98606854D01*
X194557382Y-108865798D02*
G75*
G03*
X190670901Y-112820441I68718J-3954602D01*
G01*
X114982519Y-98606854D02*
X155650810Y-92405631D01*
X135895492Y-112828592D02*
X135895509Y-112855968D01*
X152784008Y-117774092D02*
G75*
G03*
X153784000Y-118774092I999992J-8D01*
G01*
X135895439Y-112855968D02*
G75*
G03*
X132496691Y-108865850I-4044539J-2532D01*
G01*
X144857667Y-113005827D02*
X144857667Y-112426589D01*
X211284000Y-108865900D02*
G75*
G03*
X213284000Y-106865849I0J2000000D01*
G01*
X181677396Y-112726987D02*
G75*
G03*
X173784001Y-112466111I-3954096J-93413D01*
G01*
X135895495Y-112828592D02*
G75*
G03*
X144857667Y-113005827I4482895J2862D01*
G01*
M02*
