%TF.GenerationSoftware,KiCad,Pcbnew,7.0.5*%
%TF.CreationDate,2023-08-03T16:35:43+02:00*%
%TF.ProjectId,Sensores,53656e73-6f72-4657-932e-6b696361645f,rev?*%
%TF.SameCoordinates,Original*%
%TF.FileFunction,Drillmap*%
%TF.FilePolarity,Positive*%
%FSLAX45Y45*%
G04 Gerber Fmt 4.5, Leading zero omitted, Abs format (unit mm)*
G04 Created by KiCad (PCBNEW 7.0.5) date 2023-08-03 16:35:43*
%MOMM*%
%LPD*%
G01*
G04 APERTURE LIST*
%ADD10C,0.200000*%
%ADD11C,0.040000*%
%ADD12C,0.080000*%
%ADD13C,0.320000*%
G04 APERTURE END LIST*
D10*
X19455738Y-10886585D02*
X21128400Y-10886585D01*
X15278400Y-11260421D02*
G75*
G03*
X14485767Y-11242659I-397050J-23849D01*
G01*
X15565081Y-9240563D02*
X17091719Y-9240563D01*
X17378400Y-11246611D02*
X17378400Y-11777409D01*
X17278400Y-11877410D02*
G75*
G03*
X17378400Y-11777409I-10J100010D01*
G01*
X11328400Y-10058400D02*
X11328400Y-10686585D01*
X18167735Y-11291984D02*
X18167735Y-11272699D01*
X15278400Y-11777409D02*
X15278400Y-11260421D01*
X18167735Y-11291984D02*
G75*
G03*
X19067090Y-11300525I449637J-8542D01*
G01*
X21328408Y-10058400D02*
G75*
G03*
X21158548Y-9860685I-199998J0D01*
G01*
X21328400Y-10686585D02*
X21328400Y-10058400D01*
X11528400Y-10886585D02*
X13249669Y-10886585D01*
X11328405Y-10686585D02*
G75*
G03*
X11528400Y-10886585I199995J-5D01*
G01*
X15378400Y-11877409D02*
X17278400Y-11877409D01*
X11498252Y-9860685D02*
G75*
G03*
X11328400Y-10058400I30148J-197715D01*
G01*
X19067090Y-11300525D02*
X19067090Y-11282044D01*
X17091719Y-9240563D02*
X21158548Y-9860685D01*
X19455738Y-10886580D02*
G75*
G03*
X19067090Y-11282044I6872J-395460D01*
G01*
X11498252Y-9860685D02*
X15565081Y-9240563D01*
X13589549Y-11282859D02*
X13589551Y-11285597D01*
X15278401Y-11777409D02*
G75*
G03*
X15378400Y-11877409I99999J-1D01*
G01*
X13589544Y-11285597D02*
G75*
G03*
X13249669Y-10886585I-404454J-253D01*
G01*
X14485767Y-11300583D02*
X14485767Y-11242659D01*
X21128400Y-10886590D02*
G75*
G03*
X21328400Y-10686585I0J200000D01*
G01*
X18167740Y-11272699D02*
G75*
G03*
X17378400Y-11246611I-395410J-9341D01*
G01*
X13589549Y-11282859D02*
G75*
G03*
X14485767Y-11300583I448290J286D01*
G01*
D11*
X16667800Y-10830880D02*
X16707800Y-10870880D01*
X16707800Y-10830880D02*
X16667800Y-10870880D01*
X16921800Y-11014520D02*
X16961800Y-11054520D01*
X16961800Y-11014520D02*
X16921800Y-11054520D01*
X16998000Y-10830880D02*
X17038000Y-10870880D01*
X17038000Y-10830880D02*
X16998000Y-10870880D01*
D12*
X11662440Y-10205720D02*
G75*
G03*
X11662440Y-10205720I-40000J0D01*
G01*
X11662440Y-10459720D02*
G75*
G03*
X11662440Y-10459720I-40000J0D01*
G01*
X11942440Y-10205720D02*
G75*
G03*
X11942440Y-10205720I-40000J0D01*
G01*
X11942440Y-10459720D02*
G75*
G03*
X11942440Y-10459720I-40000J0D01*
G01*
X12968000Y-10205720D02*
G75*
G03*
X12968000Y-10205720I-40000J0D01*
G01*
X12968000Y-10459720D02*
G75*
G03*
X12968000Y-10459720I-40000J0D01*
G01*
X13248000Y-10205720D02*
G75*
G03*
X13248000Y-10205720I-40000J0D01*
G01*
X13248000Y-10459720D02*
G75*
G03*
X13248000Y-10459720I-40000J0D01*
G01*
X14278640Y-10205720D02*
G75*
G03*
X14278640Y-10205720I-40000J0D01*
G01*
X14278640Y-10459720D02*
G75*
G03*
X14278640Y-10459720I-40000J0D01*
G01*
X14558640Y-10205720D02*
G75*
G03*
X14558640Y-10205720I-40000J0D01*
G01*
X14558640Y-10459720D02*
G75*
G03*
X14558640Y-10459720I-40000J0D01*
G01*
X15583600Y-10205720D02*
G75*
G03*
X15583600Y-10205720I-40000J0D01*
G01*
X15583600Y-10459720D02*
G75*
G03*
X15583600Y-10459720I-40000J0D01*
G01*
X15863600Y-10205720D02*
G75*
G03*
X15863600Y-10205720I-40000J0D01*
G01*
X15863600Y-10459720D02*
G75*
G03*
X15863600Y-10459720I-40000J0D01*
G01*
X16894840Y-10205720D02*
G75*
G03*
X16894840Y-10205720I-40000J0D01*
G01*
X16894840Y-10459720D02*
G75*
G03*
X16894840Y-10459720I-40000J0D01*
G01*
X17174840Y-10205720D02*
G75*
G03*
X17174840Y-10205720I-40000J0D01*
G01*
X17174840Y-10459720D02*
G75*
G03*
X17174840Y-10459720I-40000J0D01*
G01*
X18200400Y-10205720D02*
G75*
G03*
X18200400Y-10205720I-40000J0D01*
G01*
X18200400Y-10459720D02*
G75*
G03*
X18200400Y-10459720I-40000J0D01*
G01*
X18480400Y-10205720D02*
G75*
G03*
X18480400Y-10205720I-40000J0D01*
G01*
X18480400Y-10459720D02*
G75*
G03*
X18480400Y-10459720I-40000J0D01*
G01*
X19510440Y-10205720D02*
G75*
G03*
X19510440Y-10205720I-40000J0D01*
G01*
X19510440Y-10459720D02*
G75*
G03*
X19510440Y-10459720I-40000J0D01*
G01*
X19790440Y-10205720D02*
G75*
G03*
X19790440Y-10205720I-40000J0D01*
G01*
X19790440Y-10459720D02*
G75*
G03*
X19790440Y-10459720I-40000J0D01*
G01*
X20821080Y-10205720D02*
G75*
G03*
X20821080Y-10205720I-40000J0D01*
G01*
X20821080Y-10459720D02*
G75*
G03*
X20821080Y-10459720I-40000J0D01*
G01*
X21101080Y-10205720D02*
G75*
G03*
X21101080Y-10205720I-40000J0D01*
G01*
X21101080Y-10459720D02*
G75*
G03*
X21101080Y-10459720I-40000J0D01*
G01*
D13*
X14036040Y-11122680D02*
X14036040Y-11442680D01*
X13876040Y-11282680D02*
X14196040Y-11282680D01*
X15829280Y-9425960D02*
X15829280Y-9745960D01*
X15669280Y-9585960D02*
X15989280Y-9585960D01*
X16830040Y-9425960D02*
X16830040Y-9745960D01*
X16670040Y-9585960D02*
X16990040Y-9585960D01*
X18618200Y-11143000D02*
X18618200Y-11463000D01*
X18458200Y-11303000D02*
X18778200Y-11303000D01*
D10*
X11579177Y-12198893D02*
X11579177Y-11998893D01*
X11579177Y-11998893D02*
X11626796Y-11998893D01*
X11626796Y-11998893D02*
X11655367Y-12008417D01*
X11655367Y-12008417D02*
X11674415Y-12027464D01*
X11674415Y-12027464D02*
X11683939Y-12046512D01*
X11683939Y-12046512D02*
X11693462Y-12084607D01*
X11693462Y-12084607D02*
X11693462Y-12113179D01*
X11693462Y-12113179D02*
X11683939Y-12151274D01*
X11683939Y-12151274D02*
X11674415Y-12170321D01*
X11674415Y-12170321D02*
X11655367Y-12189369D01*
X11655367Y-12189369D02*
X11626796Y-12198893D01*
X11626796Y-12198893D02*
X11579177Y-12198893D01*
X11779177Y-12198893D02*
X11779177Y-12065560D01*
X11779177Y-12103655D02*
X11788701Y-12084607D01*
X11788701Y-12084607D02*
X11798224Y-12075083D01*
X11798224Y-12075083D02*
X11817272Y-12065560D01*
X11817272Y-12065560D02*
X11836320Y-12065560D01*
X11902986Y-12198893D02*
X11902986Y-12065560D01*
X11902986Y-11998893D02*
X11893462Y-12008417D01*
X11893462Y-12008417D02*
X11902986Y-12017941D01*
X11902986Y-12017941D02*
X11912510Y-12008417D01*
X11912510Y-12008417D02*
X11902986Y-11998893D01*
X11902986Y-11998893D02*
X11902986Y-12017941D01*
X12026796Y-12198893D02*
X12007748Y-12189369D01*
X12007748Y-12189369D02*
X11998224Y-12170321D01*
X11998224Y-12170321D02*
X11998224Y-11998893D01*
X12131558Y-12198893D02*
X12112510Y-12189369D01*
X12112510Y-12189369D02*
X12102986Y-12170321D01*
X12102986Y-12170321D02*
X12102986Y-11998893D01*
X12360129Y-12198893D02*
X12360129Y-11998893D01*
X12360129Y-11998893D02*
X12426796Y-12141750D01*
X12426796Y-12141750D02*
X12493462Y-11998893D01*
X12493462Y-11998893D02*
X12493462Y-12198893D01*
X12674415Y-12198893D02*
X12674415Y-12094131D01*
X12674415Y-12094131D02*
X12664891Y-12075083D01*
X12664891Y-12075083D02*
X12645843Y-12065560D01*
X12645843Y-12065560D02*
X12607748Y-12065560D01*
X12607748Y-12065560D02*
X12588701Y-12075083D01*
X12674415Y-12189369D02*
X12655367Y-12198893D01*
X12655367Y-12198893D02*
X12607748Y-12198893D01*
X12607748Y-12198893D02*
X12588701Y-12189369D01*
X12588701Y-12189369D02*
X12579177Y-12170321D01*
X12579177Y-12170321D02*
X12579177Y-12151274D01*
X12579177Y-12151274D02*
X12588701Y-12132226D01*
X12588701Y-12132226D02*
X12607748Y-12122702D01*
X12607748Y-12122702D02*
X12655367Y-12122702D01*
X12655367Y-12122702D02*
X12674415Y-12113179D01*
X12769653Y-12065560D02*
X12769653Y-12265560D01*
X12769653Y-12075083D02*
X12788701Y-12065560D01*
X12788701Y-12065560D02*
X12826796Y-12065560D01*
X12826796Y-12065560D02*
X12845843Y-12075083D01*
X12845843Y-12075083D02*
X12855367Y-12084607D01*
X12855367Y-12084607D02*
X12864891Y-12103655D01*
X12864891Y-12103655D02*
X12864891Y-12160798D01*
X12864891Y-12160798D02*
X12855367Y-12179845D01*
X12855367Y-12179845D02*
X12845843Y-12189369D01*
X12845843Y-12189369D02*
X12826796Y-12198893D01*
X12826796Y-12198893D02*
X12788701Y-12198893D01*
X12788701Y-12198893D02*
X12769653Y-12189369D01*
X12950605Y-12179845D02*
X12960129Y-12189369D01*
X12960129Y-12189369D02*
X12950605Y-12198893D01*
X12950605Y-12198893D02*
X12941082Y-12189369D01*
X12941082Y-12189369D02*
X12950605Y-12179845D01*
X12950605Y-12179845D02*
X12950605Y-12198893D01*
X12950605Y-12075083D02*
X12960129Y-12084607D01*
X12960129Y-12084607D02*
X12950605Y-12094131D01*
X12950605Y-12094131D02*
X12941082Y-12084607D01*
X12941082Y-12084607D02*
X12950605Y-12075083D01*
X12950605Y-12075083D02*
X12950605Y-12094131D01*
D11*
X11278400Y-12507409D02*
X11318400Y-12547409D01*
X11318400Y-12507409D02*
X11278400Y-12547409D01*
D10*
X11617272Y-12418893D02*
X11636320Y-12418893D01*
X11636320Y-12418893D02*
X11655367Y-12428417D01*
X11655367Y-12428417D02*
X11664891Y-12437941D01*
X11664891Y-12437941D02*
X11674415Y-12456988D01*
X11674415Y-12456988D02*
X11683939Y-12495083D01*
X11683939Y-12495083D02*
X11683939Y-12542702D01*
X11683939Y-12542702D02*
X11674415Y-12580798D01*
X11674415Y-12580798D02*
X11664891Y-12599845D01*
X11664891Y-12599845D02*
X11655367Y-12609369D01*
X11655367Y-12609369D02*
X11636320Y-12618893D01*
X11636320Y-12618893D02*
X11617272Y-12618893D01*
X11617272Y-12618893D02*
X11598224Y-12609369D01*
X11598224Y-12609369D02*
X11588701Y-12599845D01*
X11588701Y-12599845D02*
X11579177Y-12580798D01*
X11579177Y-12580798D02*
X11569653Y-12542702D01*
X11569653Y-12542702D02*
X11569653Y-12495083D01*
X11569653Y-12495083D02*
X11579177Y-12456988D01*
X11579177Y-12456988D02*
X11588701Y-12437941D01*
X11588701Y-12437941D02*
X11598224Y-12428417D01*
X11598224Y-12428417D02*
X11617272Y-12418893D01*
X11769653Y-12599845D02*
X11779177Y-12609369D01*
X11779177Y-12609369D02*
X11769653Y-12618893D01*
X11769653Y-12618893D02*
X11760129Y-12609369D01*
X11760129Y-12609369D02*
X11769653Y-12599845D01*
X11769653Y-12599845D02*
X11769653Y-12618893D01*
X11950605Y-12485560D02*
X11950605Y-12618893D01*
X11902986Y-12409369D02*
X11855367Y-12552226D01*
X11855367Y-12552226D02*
X11979177Y-12552226D01*
X12093462Y-12418893D02*
X12112510Y-12418893D01*
X12112510Y-12418893D02*
X12131558Y-12428417D01*
X12131558Y-12428417D02*
X12141082Y-12437941D01*
X12141082Y-12437941D02*
X12150605Y-12456988D01*
X12150605Y-12456988D02*
X12160129Y-12495083D01*
X12160129Y-12495083D02*
X12160129Y-12542702D01*
X12160129Y-12542702D02*
X12150605Y-12580798D01*
X12150605Y-12580798D02*
X12141082Y-12599845D01*
X12141082Y-12599845D02*
X12131558Y-12609369D01*
X12131558Y-12609369D02*
X12112510Y-12618893D01*
X12112510Y-12618893D02*
X12093462Y-12618893D01*
X12093462Y-12618893D02*
X12074415Y-12609369D01*
X12074415Y-12609369D02*
X12064891Y-12599845D01*
X12064891Y-12599845D02*
X12055367Y-12580798D01*
X12055367Y-12580798D02*
X12045843Y-12542702D01*
X12045843Y-12542702D02*
X12045843Y-12495083D01*
X12045843Y-12495083D02*
X12055367Y-12456988D01*
X12055367Y-12456988D02*
X12064891Y-12437941D01*
X12064891Y-12437941D02*
X12074415Y-12428417D01*
X12074415Y-12428417D02*
X12093462Y-12418893D01*
X12283939Y-12418893D02*
X12302986Y-12418893D01*
X12302986Y-12418893D02*
X12322034Y-12428417D01*
X12322034Y-12428417D02*
X12331558Y-12437941D01*
X12331558Y-12437941D02*
X12341082Y-12456988D01*
X12341082Y-12456988D02*
X12350605Y-12495083D01*
X12350605Y-12495083D02*
X12350605Y-12542702D01*
X12350605Y-12542702D02*
X12341082Y-12580798D01*
X12341082Y-12580798D02*
X12331558Y-12599845D01*
X12331558Y-12599845D02*
X12322034Y-12609369D01*
X12322034Y-12609369D02*
X12302986Y-12618893D01*
X12302986Y-12618893D02*
X12283939Y-12618893D01*
X12283939Y-12618893D02*
X12264891Y-12609369D01*
X12264891Y-12609369D02*
X12255367Y-12599845D01*
X12255367Y-12599845D02*
X12245843Y-12580798D01*
X12245843Y-12580798D02*
X12236320Y-12542702D01*
X12236320Y-12542702D02*
X12236320Y-12495083D01*
X12236320Y-12495083D02*
X12245843Y-12456988D01*
X12245843Y-12456988D02*
X12255367Y-12437941D01*
X12255367Y-12437941D02*
X12264891Y-12428417D01*
X12264891Y-12428417D02*
X12283939Y-12418893D01*
X12436320Y-12618893D02*
X12436320Y-12485560D01*
X12436320Y-12504607D02*
X12445843Y-12495083D01*
X12445843Y-12495083D02*
X12464891Y-12485560D01*
X12464891Y-12485560D02*
X12493463Y-12485560D01*
X12493463Y-12485560D02*
X12512510Y-12495083D01*
X12512510Y-12495083D02*
X12522034Y-12514131D01*
X12522034Y-12514131D02*
X12522034Y-12618893D01*
X12522034Y-12514131D02*
X12531558Y-12495083D01*
X12531558Y-12495083D02*
X12550605Y-12485560D01*
X12550605Y-12485560D02*
X12579177Y-12485560D01*
X12579177Y-12485560D02*
X12598224Y-12495083D01*
X12598224Y-12495083D02*
X12607748Y-12514131D01*
X12607748Y-12514131D02*
X12607748Y-12618893D01*
X12702986Y-12618893D02*
X12702986Y-12485560D01*
X12702986Y-12504607D02*
X12712510Y-12495083D01*
X12712510Y-12495083D02*
X12731558Y-12485560D01*
X12731558Y-12485560D02*
X12760129Y-12485560D01*
X12760129Y-12485560D02*
X12779177Y-12495083D01*
X12779177Y-12495083D02*
X12788701Y-12514131D01*
X12788701Y-12514131D02*
X12788701Y-12618893D01*
X12788701Y-12514131D02*
X12798224Y-12495083D01*
X12798224Y-12495083D02*
X12817272Y-12485560D01*
X12817272Y-12485560D02*
X12845843Y-12485560D01*
X12845843Y-12485560D02*
X12864891Y-12495083D01*
X12864891Y-12495083D02*
X12874415Y-12514131D01*
X12874415Y-12514131D02*
X12874415Y-12618893D01*
X13264891Y-12409369D02*
X13093463Y-12666512D01*
X13522034Y-12418893D02*
X13541082Y-12418893D01*
X13541082Y-12418893D02*
X13560129Y-12428417D01*
X13560129Y-12428417D02*
X13569653Y-12437941D01*
X13569653Y-12437941D02*
X13579177Y-12456988D01*
X13579177Y-12456988D02*
X13588701Y-12495083D01*
X13588701Y-12495083D02*
X13588701Y-12542702D01*
X13588701Y-12542702D02*
X13579177Y-12580798D01*
X13579177Y-12580798D02*
X13569653Y-12599845D01*
X13569653Y-12599845D02*
X13560129Y-12609369D01*
X13560129Y-12609369D02*
X13541082Y-12618893D01*
X13541082Y-12618893D02*
X13522034Y-12618893D01*
X13522034Y-12618893D02*
X13502986Y-12609369D01*
X13502986Y-12609369D02*
X13493463Y-12599845D01*
X13493463Y-12599845D02*
X13483939Y-12580798D01*
X13483939Y-12580798D02*
X13474415Y-12542702D01*
X13474415Y-12542702D02*
X13474415Y-12495083D01*
X13474415Y-12495083D02*
X13483939Y-12456988D01*
X13483939Y-12456988D02*
X13493463Y-12437941D01*
X13493463Y-12437941D02*
X13502986Y-12428417D01*
X13502986Y-12428417D02*
X13522034Y-12418893D01*
X13674415Y-12599845D02*
X13683939Y-12609369D01*
X13683939Y-12609369D02*
X13674415Y-12618893D01*
X13674415Y-12618893D02*
X13664891Y-12609369D01*
X13664891Y-12609369D02*
X13674415Y-12599845D01*
X13674415Y-12599845D02*
X13674415Y-12618893D01*
X13807748Y-12418893D02*
X13826796Y-12418893D01*
X13826796Y-12418893D02*
X13845844Y-12428417D01*
X13845844Y-12428417D02*
X13855367Y-12437941D01*
X13855367Y-12437941D02*
X13864891Y-12456988D01*
X13864891Y-12456988D02*
X13874415Y-12495083D01*
X13874415Y-12495083D02*
X13874415Y-12542702D01*
X13874415Y-12542702D02*
X13864891Y-12580798D01*
X13864891Y-12580798D02*
X13855367Y-12599845D01*
X13855367Y-12599845D02*
X13845844Y-12609369D01*
X13845844Y-12609369D02*
X13826796Y-12618893D01*
X13826796Y-12618893D02*
X13807748Y-12618893D01*
X13807748Y-12618893D02*
X13788701Y-12609369D01*
X13788701Y-12609369D02*
X13779177Y-12599845D01*
X13779177Y-12599845D02*
X13769653Y-12580798D01*
X13769653Y-12580798D02*
X13760129Y-12542702D01*
X13760129Y-12542702D02*
X13760129Y-12495083D01*
X13760129Y-12495083D02*
X13769653Y-12456988D01*
X13769653Y-12456988D02*
X13779177Y-12437941D01*
X13779177Y-12437941D02*
X13788701Y-12428417D01*
X13788701Y-12428417D02*
X13807748Y-12418893D01*
X14064891Y-12618893D02*
X13950606Y-12618893D01*
X14007748Y-12618893D02*
X14007748Y-12418893D01*
X14007748Y-12418893D02*
X13988701Y-12447464D01*
X13988701Y-12447464D02*
X13969653Y-12466512D01*
X13969653Y-12466512D02*
X13950606Y-12476036D01*
X14245844Y-12418893D02*
X14150606Y-12418893D01*
X14150606Y-12418893D02*
X14141082Y-12514131D01*
X14141082Y-12514131D02*
X14150606Y-12504607D01*
X14150606Y-12504607D02*
X14169653Y-12495083D01*
X14169653Y-12495083D02*
X14217272Y-12495083D01*
X14217272Y-12495083D02*
X14236320Y-12504607D01*
X14236320Y-12504607D02*
X14245844Y-12514131D01*
X14245844Y-12514131D02*
X14255367Y-12533179D01*
X14255367Y-12533179D02*
X14255367Y-12580798D01*
X14255367Y-12580798D02*
X14245844Y-12599845D01*
X14245844Y-12599845D02*
X14236320Y-12609369D01*
X14236320Y-12609369D02*
X14217272Y-12618893D01*
X14217272Y-12618893D02*
X14169653Y-12618893D01*
X14169653Y-12618893D02*
X14150606Y-12609369D01*
X14150606Y-12609369D02*
X14141082Y-12599845D01*
X14322034Y-12418893D02*
X14455367Y-12418893D01*
X14455367Y-12418893D02*
X14369653Y-12618893D01*
X14522034Y-12418893D02*
X14522034Y-12456988D01*
X14598225Y-12418893D02*
X14598225Y-12456988D01*
X14893463Y-12695083D02*
X14883939Y-12685560D01*
X14883939Y-12685560D02*
X14864891Y-12656988D01*
X14864891Y-12656988D02*
X14855368Y-12637941D01*
X14855368Y-12637941D02*
X14845844Y-12609369D01*
X14845844Y-12609369D02*
X14836320Y-12561750D01*
X14836320Y-12561750D02*
X14836320Y-12523655D01*
X14836320Y-12523655D02*
X14845844Y-12476036D01*
X14845844Y-12476036D02*
X14855368Y-12447464D01*
X14855368Y-12447464D02*
X14864891Y-12428417D01*
X14864891Y-12428417D02*
X14883939Y-12399845D01*
X14883939Y-12399845D02*
X14893463Y-12390321D01*
X14950606Y-12418893D02*
X15074415Y-12418893D01*
X15074415Y-12418893D02*
X15007748Y-12495083D01*
X15007748Y-12495083D02*
X15036320Y-12495083D01*
X15036320Y-12495083D02*
X15055368Y-12504607D01*
X15055368Y-12504607D02*
X15064891Y-12514131D01*
X15064891Y-12514131D02*
X15074415Y-12533179D01*
X15074415Y-12533179D02*
X15074415Y-12580798D01*
X15074415Y-12580798D02*
X15064891Y-12599845D01*
X15064891Y-12599845D02*
X15055368Y-12609369D01*
X15055368Y-12609369D02*
X15036320Y-12618893D01*
X15036320Y-12618893D02*
X14979177Y-12618893D01*
X14979177Y-12618893D02*
X14960129Y-12609369D01*
X14960129Y-12609369D02*
X14950606Y-12599845D01*
X15312510Y-12618893D02*
X15312510Y-12418893D01*
X15398225Y-12618893D02*
X15398225Y-12514131D01*
X15398225Y-12514131D02*
X15388701Y-12495083D01*
X15388701Y-12495083D02*
X15369653Y-12485560D01*
X15369653Y-12485560D02*
X15341082Y-12485560D01*
X15341082Y-12485560D02*
X15322034Y-12495083D01*
X15322034Y-12495083D02*
X15312510Y-12504607D01*
X15522034Y-12618893D02*
X15502987Y-12609369D01*
X15502987Y-12609369D02*
X15493463Y-12599845D01*
X15493463Y-12599845D02*
X15483939Y-12580798D01*
X15483939Y-12580798D02*
X15483939Y-12523655D01*
X15483939Y-12523655D02*
X15493463Y-12504607D01*
X15493463Y-12504607D02*
X15502987Y-12495083D01*
X15502987Y-12495083D02*
X15522034Y-12485560D01*
X15522034Y-12485560D02*
X15550606Y-12485560D01*
X15550606Y-12485560D02*
X15569653Y-12495083D01*
X15569653Y-12495083D02*
X15579177Y-12504607D01*
X15579177Y-12504607D02*
X15588701Y-12523655D01*
X15588701Y-12523655D02*
X15588701Y-12580798D01*
X15588701Y-12580798D02*
X15579177Y-12599845D01*
X15579177Y-12599845D02*
X15569653Y-12609369D01*
X15569653Y-12609369D02*
X15550606Y-12618893D01*
X15550606Y-12618893D02*
X15522034Y-12618893D01*
X15702987Y-12618893D02*
X15683939Y-12609369D01*
X15683939Y-12609369D02*
X15674415Y-12590321D01*
X15674415Y-12590321D02*
X15674415Y-12418893D01*
X15855368Y-12609369D02*
X15836320Y-12618893D01*
X15836320Y-12618893D02*
X15798225Y-12618893D01*
X15798225Y-12618893D02*
X15779177Y-12609369D01*
X15779177Y-12609369D02*
X15769653Y-12590321D01*
X15769653Y-12590321D02*
X15769653Y-12514131D01*
X15769653Y-12514131D02*
X15779177Y-12495083D01*
X15779177Y-12495083D02*
X15798225Y-12485560D01*
X15798225Y-12485560D02*
X15836320Y-12485560D01*
X15836320Y-12485560D02*
X15855368Y-12495083D01*
X15855368Y-12495083D02*
X15864891Y-12514131D01*
X15864891Y-12514131D02*
X15864891Y-12533179D01*
X15864891Y-12533179D02*
X15769653Y-12552226D01*
X15941082Y-12609369D02*
X15960130Y-12618893D01*
X15960130Y-12618893D02*
X15998225Y-12618893D01*
X15998225Y-12618893D02*
X16017272Y-12609369D01*
X16017272Y-12609369D02*
X16026796Y-12590321D01*
X16026796Y-12590321D02*
X16026796Y-12580798D01*
X16026796Y-12580798D02*
X16017272Y-12561750D01*
X16017272Y-12561750D02*
X15998225Y-12552226D01*
X15998225Y-12552226D02*
X15969653Y-12552226D01*
X15969653Y-12552226D02*
X15950606Y-12542702D01*
X15950606Y-12542702D02*
X15941082Y-12523655D01*
X15941082Y-12523655D02*
X15941082Y-12514131D01*
X15941082Y-12514131D02*
X15950606Y-12495083D01*
X15950606Y-12495083D02*
X15969653Y-12485560D01*
X15969653Y-12485560D02*
X15998225Y-12485560D01*
X15998225Y-12485560D02*
X16017272Y-12495083D01*
X16093463Y-12695083D02*
X16102987Y-12685560D01*
X16102987Y-12685560D02*
X16122034Y-12656988D01*
X16122034Y-12656988D02*
X16131558Y-12637941D01*
X16131558Y-12637941D02*
X16141082Y-12609369D01*
X16141082Y-12609369D02*
X16150606Y-12561750D01*
X16150606Y-12561750D02*
X16150606Y-12523655D01*
X16150606Y-12523655D02*
X16141082Y-12476036D01*
X16141082Y-12476036D02*
X16131558Y-12447464D01*
X16131558Y-12447464D02*
X16122034Y-12428417D01*
X16122034Y-12428417D02*
X16102987Y-12399845D01*
X16102987Y-12399845D02*
X16093463Y-12390321D01*
D12*
X11318400Y-12791409D02*
G75*
G03*
X11318400Y-12791409I-40000J0D01*
G01*
D10*
X11617272Y-12682893D02*
X11636320Y-12682893D01*
X11636320Y-12682893D02*
X11655367Y-12692417D01*
X11655367Y-12692417D02*
X11664891Y-12701941D01*
X11664891Y-12701941D02*
X11674415Y-12720988D01*
X11674415Y-12720988D02*
X11683939Y-12759083D01*
X11683939Y-12759083D02*
X11683939Y-12806702D01*
X11683939Y-12806702D02*
X11674415Y-12844798D01*
X11674415Y-12844798D02*
X11664891Y-12863845D01*
X11664891Y-12863845D02*
X11655367Y-12873369D01*
X11655367Y-12873369D02*
X11636320Y-12882893D01*
X11636320Y-12882893D02*
X11617272Y-12882893D01*
X11617272Y-12882893D02*
X11598224Y-12873369D01*
X11598224Y-12873369D02*
X11588701Y-12863845D01*
X11588701Y-12863845D02*
X11579177Y-12844798D01*
X11579177Y-12844798D02*
X11569653Y-12806702D01*
X11569653Y-12806702D02*
X11569653Y-12759083D01*
X11569653Y-12759083D02*
X11579177Y-12720988D01*
X11579177Y-12720988D02*
X11588701Y-12701941D01*
X11588701Y-12701941D02*
X11598224Y-12692417D01*
X11598224Y-12692417D02*
X11617272Y-12682893D01*
X11769653Y-12863845D02*
X11779177Y-12873369D01*
X11779177Y-12873369D02*
X11769653Y-12882893D01*
X11769653Y-12882893D02*
X11760129Y-12873369D01*
X11760129Y-12873369D02*
X11769653Y-12863845D01*
X11769653Y-12863845D02*
X11769653Y-12882893D01*
X11893462Y-12768607D02*
X11874415Y-12759083D01*
X11874415Y-12759083D02*
X11864891Y-12749560D01*
X11864891Y-12749560D02*
X11855367Y-12730512D01*
X11855367Y-12730512D02*
X11855367Y-12720988D01*
X11855367Y-12720988D02*
X11864891Y-12701941D01*
X11864891Y-12701941D02*
X11874415Y-12692417D01*
X11874415Y-12692417D02*
X11893462Y-12682893D01*
X11893462Y-12682893D02*
X11931558Y-12682893D01*
X11931558Y-12682893D02*
X11950605Y-12692417D01*
X11950605Y-12692417D02*
X11960129Y-12701941D01*
X11960129Y-12701941D02*
X11969653Y-12720988D01*
X11969653Y-12720988D02*
X11969653Y-12730512D01*
X11969653Y-12730512D02*
X11960129Y-12749560D01*
X11960129Y-12749560D02*
X11950605Y-12759083D01*
X11950605Y-12759083D02*
X11931558Y-12768607D01*
X11931558Y-12768607D02*
X11893462Y-12768607D01*
X11893462Y-12768607D02*
X11874415Y-12778131D01*
X11874415Y-12778131D02*
X11864891Y-12787655D01*
X11864891Y-12787655D02*
X11855367Y-12806702D01*
X11855367Y-12806702D02*
X11855367Y-12844798D01*
X11855367Y-12844798D02*
X11864891Y-12863845D01*
X11864891Y-12863845D02*
X11874415Y-12873369D01*
X11874415Y-12873369D02*
X11893462Y-12882893D01*
X11893462Y-12882893D02*
X11931558Y-12882893D01*
X11931558Y-12882893D02*
X11950605Y-12873369D01*
X11950605Y-12873369D02*
X11960129Y-12863845D01*
X11960129Y-12863845D02*
X11969653Y-12844798D01*
X11969653Y-12844798D02*
X11969653Y-12806702D01*
X11969653Y-12806702D02*
X11960129Y-12787655D01*
X11960129Y-12787655D02*
X11950605Y-12778131D01*
X11950605Y-12778131D02*
X11931558Y-12768607D01*
X12093462Y-12682893D02*
X12112510Y-12682893D01*
X12112510Y-12682893D02*
X12131558Y-12692417D01*
X12131558Y-12692417D02*
X12141082Y-12701941D01*
X12141082Y-12701941D02*
X12150605Y-12720988D01*
X12150605Y-12720988D02*
X12160129Y-12759083D01*
X12160129Y-12759083D02*
X12160129Y-12806702D01*
X12160129Y-12806702D02*
X12150605Y-12844798D01*
X12150605Y-12844798D02*
X12141082Y-12863845D01*
X12141082Y-12863845D02*
X12131558Y-12873369D01*
X12131558Y-12873369D02*
X12112510Y-12882893D01*
X12112510Y-12882893D02*
X12093462Y-12882893D01*
X12093462Y-12882893D02*
X12074415Y-12873369D01*
X12074415Y-12873369D02*
X12064891Y-12863845D01*
X12064891Y-12863845D02*
X12055367Y-12844798D01*
X12055367Y-12844798D02*
X12045843Y-12806702D01*
X12045843Y-12806702D02*
X12045843Y-12759083D01*
X12045843Y-12759083D02*
X12055367Y-12720988D01*
X12055367Y-12720988D02*
X12064891Y-12701941D01*
X12064891Y-12701941D02*
X12074415Y-12692417D01*
X12074415Y-12692417D02*
X12093462Y-12682893D01*
X12283939Y-12682893D02*
X12302986Y-12682893D01*
X12302986Y-12682893D02*
X12322034Y-12692417D01*
X12322034Y-12692417D02*
X12331558Y-12701941D01*
X12331558Y-12701941D02*
X12341082Y-12720988D01*
X12341082Y-12720988D02*
X12350605Y-12759083D01*
X12350605Y-12759083D02*
X12350605Y-12806702D01*
X12350605Y-12806702D02*
X12341082Y-12844798D01*
X12341082Y-12844798D02*
X12331558Y-12863845D01*
X12331558Y-12863845D02*
X12322034Y-12873369D01*
X12322034Y-12873369D02*
X12302986Y-12882893D01*
X12302986Y-12882893D02*
X12283939Y-12882893D01*
X12283939Y-12882893D02*
X12264891Y-12873369D01*
X12264891Y-12873369D02*
X12255367Y-12863845D01*
X12255367Y-12863845D02*
X12245843Y-12844798D01*
X12245843Y-12844798D02*
X12236320Y-12806702D01*
X12236320Y-12806702D02*
X12236320Y-12759083D01*
X12236320Y-12759083D02*
X12245843Y-12720988D01*
X12245843Y-12720988D02*
X12255367Y-12701941D01*
X12255367Y-12701941D02*
X12264891Y-12692417D01*
X12264891Y-12692417D02*
X12283939Y-12682893D01*
X12436320Y-12882893D02*
X12436320Y-12749560D01*
X12436320Y-12768607D02*
X12445843Y-12759083D01*
X12445843Y-12759083D02*
X12464891Y-12749560D01*
X12464891Y-12749560D02*
X12493463Y-12749560D01*
X12493463Y-12749560D02*
X12512510Y-12759083D01*
X12512510Y-12759083D02*
X12522034Y-12778131D01*
X12522034Y-12778131D02*
X12522034Y-12882893D01*
X12522034Y-12778131D02*
X12531558Y-12759083D01*
X12531558Y-12759083D02*
X12550605Y-12749560D01*
X12550605Y-12749560D02*
X12579177Y-12749560D01*
X12579177Y-12749560D02*
X12598224Y-12759083D01*
X12598224Y-12759083D02*
X12607748Y-12778131D01*
X12607748Y-12778131D02*
X12607748Y-12882893D01*
X12702986Y-12882893D02*
X12702986Y-12749560D01*
X12702986Y-12768607D02*
X12712510Y-12759083D01*
X12712510Y-12759083D02*
X12731558Y-12749560D01*
X12731558Y-12749560D02*
X12760129Y-12749560D01*
X12760129Y-12749560D02*
X12779177Y-12759083D01*
X12779177Y-12759083D02*
X12788701Y-12778131D01*
X12788701Y-12778131D02*
X12788701Y-12882893D01*
X12788701Y-12778131D02*
X12798224Y-12759083D01*
X12798224Y-12759083D02*
X12817272Y-12749560D01*
X12817272Y-12749560D02*
X12845843Y-12749560D01*
X12845843Y-12749560D02*
X12864891Y-12759083D01*
X12864891Y-12759083D02*
X12874415Y-12778131D01*
X12874415Y-12778131D02*
X12874415Y-12882893D01*
X13264891Y-12673369D02*
X13093463Y-12930512D01*
X13522034Y-12682893D02*
X13541082Y-12682893D01*
X13541082Y-12682893D02*
X13560129Y-12692417D01*
X13560129Y-12692417D02*
X13569653Y-12701941D01*
X13569653Y-12701941D02*
X13579177Y-12720988D01*
X13579177Y-12720988D02*
X13588701Y-12759083D01*
X13588701Y-12759083D02*
X13588701Y-12806702D01*
X13588701Y-12806702D02*
X13579177Y-12844798D01*
X13579177Y-12844798D02*
X13569653Y-12863845D01*
X13569653Y-12863845D02*
X13560129Y-12873369D01*
X13560129Y-12873369D02*
X13541082Y-12882893D01*
X13541082Y-12882893D02*
X13522034Y-12882893D01*
X13522034Y-12882893D02*
X13502986Y-12873369D01*
X13502986Y-12873369D02*
X13493463Y-12863845D01*
X13493463Y-12863845D02*
X13483939Y-12844798D01*
X13483939Y-12844798D02*
X13474415Y-12806702D01*
X13474415Y-12806702D02*
X13474415Y-12759083D01*
X13474415Y-12759083D02*
X13483939Y-12720988D01*
X13483939Y-12720988D02*
X13493463Y-12701941D01*
X13493463Y-12701941D02*
X13502986Y-12692417D01*
X13502986Y-12692417D02*
X13522034Y-12682893D01*
X13674415Y-12863845D02*
X13683939Y-12873369D01*
X13683939Y-12873369D02*
X13674415Y-12882893D01*
X13674415Y-12882893D02*
X13664891Y-12873369D01*
X13664891Y-12873369D02*
X13674415Y-12863845D01*
X13674415Y-12863845D02*
X13674415Y-12882893D01*
X13807748Y-12682893D02*
X13826796Y-12682893D01*
X13826796Y-12682893D02*
X13845844Y-12692417D01*
X13845844Y-12692417D02*
X13855367Y-12701941D01*
X13855367Y-12701941D02*
X13864891Y-12720988D01*
X13864891Y-12720988D02*
X13874415Y-12759083D01*
X13874415Y-12759083D02*
X13874415Y-12806702D01*
X13874415Y-12806702D02*
X13864891Y-12844798D01*
X13864891Y-12844798D02*
X13855367Y-12863845D01*
X13855367Y-12863845D02*
X13845844Y-12873369D01*
X13845844Y-12873369D02*
X13826796Y-12882893D01*
X13826796Y-12882893D02*
X13807748Y-12882893D01*
X13807748Y-12882893D02*
X13788701Y-12873369D01*
X13788701Y-12873369D02*
X13779177Y-12863845D01*
X13779177Y-12863845D02*
X13769653Y-12844798D01*
X13769653Y-12844798D02*
X13760129Y-12806702D01*
X13760129Y-12806702D02*
X13760129Y-12759083D01*
X13760129Y-12759083D02*
X13769653Y-12720988D01*
X13769653Y-12720988D02*
X13779177Y-12701941D01*
X13779177Y-12701941D02*
X13788701Y-12692417D01*
X13788701Y-12692417D02*
X13807748Y-12682893D01*
X13941082Y-12682893D02*
X14064891Y-12682893D01*
X14064891Y-12682893D02*
X13998225Y-12759083D01*
X13998225Y-12759083D02*
X14026796Y-12759083D01*
X14026796Y-12759083D02*
X14045844Y-12768607D01*
X14045844Y-12768607D02*
X14055367Y-12778131D01*
X14055367Y-12778131D02*
X14064891Y-12797179D01*
X14064891Y-12797179D02*
X14064891Y-12844798D01*
X14064891Y-12844798D02*
X14055367Y-12863845D01*
X14055367Y-12863845D02*
X14045844Y-12873369D01*
X14045844Y-12873369D02*
X14026796Y-12882893D01*
X14026796Y-12882893D02*
X13969653Y-12882893D01*
X13969653Y-12882893D02*
X13950606Y-12873369D01*
X13950606Y-12873369D02*
X13941082Y-12863845D01*
X14255367Y-12882893D02*
X14141082Y-12882893D01*
X14198225Y-12882893D02*
X14198225Y-12682893D01*
X14198225Y-12682893D02*
X14179177Y-12711464D01*
X14179177Y-12711464D02*
X14160129Y-12730512D01*
X14160129Y-12730512D02*
X14141082Y-12740036D01*
X14436320Y-12682893D02*
X14341082Y-12682893D01*
X14341082Y-12682893D02*
X14331558Y-12778131D01*
X14331558Y-12778131D02*
X14341082Y-12768607D01*
X14341082Y-12768607D02*
X14360129Y-12759083D01*
X14360129Y-12759083D02*
X14407748Y-12759083D01*
X14407748Y-12759083D02*
X14426796Y-12768607D01*
X14426796Y-12768607D02*
X14436320Y-12778131D01*
X14436320Y-12778131D02*
X14445844Y-12797179D01*
X14445844Y-12797179D02*
X14445844Y-12844798D01*
X14445844Y-12844798D02*
X14436320Y-12863845D01*
X14436320Y-12863845D02*
X14426796Y-12873369D01*
X14426796Y-12873369D02*
X14407748Y-12882893D01*
X14407748Y-12882893D02*
X14360129Y-12882893D01*
X14360129Y-12882893D02*
X14341082Y-12873369D01*
X14341082Y-12873369D02*
X14331558Y-12863845D01*
X14522034Y-12682893D02*
X14522034Y-12720988D01*
X14598225Y-12682893D02*
X14598225Y-12720988D01*
X14893463Y-12959083D02*
X14883939Y-12949560D01*
X14883939Y-12949560D02*
X14864891Y-12920988D01*
X14864891Y-12920988D02*
X14855368Y-12901941D01*
X14855368Y-12901941D02*
X14845844Y-12873369D01*
X14845844Y-12873369D02*
X14836320Y-12825750D01*
X14836320Y-12825750D02*
X14836320Y-12787655D01*
X14836320Y-12787655D02*
X14845844Y-12740036D01*
X14845844Y-12740036D02*
X14855368Y-12711464D01*
X14855368Y-12711464D02*
X14864891Y-12692417D01*
X14864891Y-12692417D02*
X14883939Y-12663845D01*
X14883939Y-12663845D02*
X14893463Y-12654321D01*
X14950606Y-12682893D02*
X15074415Y-12682893D01*
X15074415Y-12682893D02*
X15007748Y-12759083D01*
X15007748Y-12759083D02*
X15036320Y-12759083D01*
X15036320Y-12759083D02*
X15055368Y-12768607D01*
X15055368Y-12768607D02*
X15064891Y-12778131D01*
X15064891Y-12778131D02*
X15074415Y-12797179D01*
X15074415Y-12797179D02*
X15074415Y-12844798D01*
X15074415Y-12844798D02*
X15064891Y-12863845D01*
X15064891Y-12863845D02*
X15055368Y-12873369D01*
X15055368Y-12873369D02*
X15036320Y-12882893D01*
X15036320Y-12882893D02*
X14979177Y-12882893D01*
X14979177Y-12882893D02*
X14960129Y-12873369D01*
X14960129Y-12873369D02*
X14950606Y-12863845D01*
X15150606Y-12701941D02*
X15160129Y-12692417D01*
X15160129Y-12692417D02*
X15179177Y-12682893D01*
X15179177Y-12682893D02*
X15226796Y-12682893D01*
X15226796Y-12682893D02*
X15245844Y-12692417D01*
X15245844Y-12692417D02*
X15255368Y-12701941D01*
X15255368Y-12701941D02*
X15264891Y-12720988D01*
X15264891Y-12720988D02*
X15264891Y-12740036D01*
X15264891Y-12740036D02*
X15255368Y-12768607D01*
X15255368Y-12768607D02*
X15141082Y-12882893D01*
X15141082Y-12882893D02*
X15264891Y-12882893D01*
X15502987Y-12882893D02*
X15502987Y-12682893D01*
X15588701Y-12882893D02*
X15588701Y-12778131D01*
X15588701Y-12778131D02*
X15579177Y-12759083D01*
X15579177Y-12759083D02*
X15560130Y-12749560D01*
X15560130Y-12749560D02*
X15531558Y-12749560D01*
X15531558Y-12749560D02*
X15512510Y-12759083D01*
X15512510Y-12759083D02*
X15502987Y-12768607D01*
X15712510Y-12882893D02*
X15693463Y-12873369D01*
X15693463Y-12873369D02*
X15683939Y-12863845D01*
X15683939Y-12863845D02*
X15674415Y-12844798D01*
X15674415Y-12844798D02*
X15674415Y-12787655D01*
X15674415Y-12787655D02*
X15683939Y-12768607D01*
X15683939Y-12768607D02*
X15693463Y-12759083D01*
X15693463Y-12759083D02*
X15712510Y-12749560D01*
X15712510Y-12749560D02*
X15741082Y-12749560D01*
X15741082Y-12749560D02*
X15760130Y-12759083D01*
X15760130Y-12759083D02*
X15769653Y-12768607D01*
X15769653Y-12768607D02*
X15779177Y-12787655D01*
X15779177Y-12787655D02*
X15779177Y-12844798D01*
X15779177Y-12844798D02*
X15769653Y-12863845D01*
X15769653Y-12863845D02*
X15760130Y-12873369D01*
X15760130Y-12873369D02*
X15741082Y-12882893D01*
X15741082Y-12882893D02*
X15712510Y-12882893D01*
X15893463Y-12882893D02*
X15874415Y-12873369D01*
X15874415Y-12873369D02*
X15864891Y-12854321D01*
X15864891Y-12854321D02*
X15864891Y-12682893D01*
X16045844Y-12873369D02*
X16026796Y-12882893D01*
X16026796Y-12882893D02*
X15988701Y-12882893D01*
X15988701Y-12882893D02*
X15969653Y-12873369D01*
X15969653Y-12873369D02*
X15960130Y-12854321D01*
X15960130Y-12854321D02*
X15960130Y-12778131D01*
X15960130Y-12778131D02*
X15969653Y-12759083D01*
X15969653Y-12759083D02*
X15988701Y-12749560D01*
X15988701Y-12749560D02*
X16026796Y-12749560D01*
X16026796Y-12749560D02*
X16045844Y-12759083D01*
X16045844Y-12759083D02*
X16055368Y-12778131D01*
X16055368Y-12778131D02*
X16055368Y-12797179D01*
X16055368Y-12797179D02*
X15960130Y-12816226D01*
X16131558Y-12873369D02*
X16150606Y-12882893D01*
X16150606Y-12882893D02*
X16188701Y-12882893D01*
X16188701Y-12882893D02*
X16207749Y-12873369D01*
X16207749Y-12873369D02*
X16217272Y-12854321D01*
X16217272Y-12854321D02*
X16217272Y-12844798D01*
X16217272Y-12844798D02*
X16207749Y-12825750D01*
X16207749Y-12825750D02*
X16188701Y-12816226D01*
X16188701Y-12816226D02*
X16160130Y-12816226D01*
X16160130Y-12816226D02*
X16141082Y-12806702D01*
X16141082Y-12806702D02*
X16131558Y-12787655D01*
X16131558Y-12787655D02*
X16131558Y-12778131D01*
X16131558Y-12778131D02*
X16141082Y-12759083D01*
X16141082Y-12759083D02*
X16160130Y-12749560D01*
X16160130Y-12749560D02*
X16188701Y-12749560D01*
X16188701Y-12749560D02*
X16207749Y-12759083D01*
X16283939Y-12959083D02*
X16293463Y-12949560D01*
X16293463Y-12949560D02*
X16312511Y-12920988D01*
X16312511Y-12920988D02*
X16322034Y-12901941D01*
X16322034Y-12901941D02*
X16331558Y-12873369D01*
X16331558Y-12873369D02*
X16341082Y-12825750D01*
X16341082Y-12825750D02*
X16341082Y-12787655D01*
X16341082Y-12787655D02*
X16331558Y-12740036D01*
X16331558Y-12740036D02*
X16322034Y-12711464D01*
X16322034Y-12711464D02*
X16312511Y-12692417D01*
X16312511Y-12692417D02*
X16293463Y-12663845D01*
X16293463Y-12663845D02*
X16283939Y-12654321D01*
X11218400Y-12955409D02*
X11218400Y-13155409D01*
X11118400Y-13055409D02*
X11318400Y-13055409D01*
X11560129Y-12946893D02*
X11683939Y-12946893D01*
X11683939Y-12946893D02*
X11617272Y-13023083D01*
X11617272Y-13023083D02*
X11645843Y-13023083D01*
X11645843Y-13023083D02*
X11664891Y-13032607D01*
X11664891Y-13032607D02*
X11674415Y-13042131D01*
X11674415Y-13042131D02*
X11683939Y-13061179D01*
X11683939Y-13061179D02*
X11683939Y-13108798D01*
X11683939Y-13108798D02*
X11674415Y-13127845D01*
X11674415Y-13127845D02*
X11664891Y-13137369D01*
X11664891Y-13137369D02*
X11645843Y-13146893D01*
X11645843Y-13146893D02*
X11588701Y-13146893D01*
X11588701Y-13146893D02*
X11569653Y-13137369D01*
X11569653Y-13137369D02*
X11560129Y-13127845D01*
X11769653Y-13127845D02*
X11779177Y-13137369D01*
X11779177Y-13137369D02*
X11769653Y-13146893D01*
X11769653Y-13146893D02*
X11760129Y-13137369D01*
X11760129Y-13137369D02*
X11769653Y-13127845D01*
X11769653Y-13127845D02*
X11769653Y-13146893D01*
X11855367Y-12965941D02*
X11864891Y-12956417D01*
X11864891Y-12956417D02*
X11883939Y-12946893D01*
X11883939Y-12946893D02*
X11931558Y-12946893D01*
X11931558Y-12946893D02*
X11950605Y-12956417D01*
X11950605Y-12956417D02*
X11960129Y-12965941D01*
X11960129Y-12965941D02*
X11969653Y-12984988D01*
X11969653Y-12984988D02*
X11969653Y-13004036D01*
X11969653Y-13004036D02*
X11960129Y-13032607D01*
X11960129Y-13032607D02*
X11845843Y-13146893D01*
X11845843Y-13146893D02*
X11969653Y-13146893D01*
X12093462Y-12946893D02*
X12112510Y-12946893D01*
X12112510Y-12946893D02*
X12131558Y-12956417D01*
X12131558Y-12956417D02*
X12141082Y-12965941D01*
X12141082Y-12965941D02*
X12150605Y-12984988D01*
X12150605Y-12984988D02*
X12160129Y-13023083D01*
X12160129Y-13023083D02*
X12160129Y-13070702D01*
X12160129Y-13070702D02*
X12150605Y-13108798D01*
X12150605Y-13108798D02*
X12141082Y-13127845D01*
X12141082Y-13127845D02*
X12131558Y-13137369D01*
X12131558Y-13137369D02*
X12112510Y-13146893D01*
X12112510Y-13146893D02*
X12093462Y-13146893D01*
X12093462Y-13146893D02*
X12074415Y-13137369D01*
X12074415Y-13137369D02*
X12064891Y-13127845D01*
X12064891Y-13127845D02*
X12055367Y-13108798D01*
X12055367Y-13108798D02*
X12045843Y-13070702D01*
X12045843Y-13070702D02*
X12045843Y-13023083D01*
X12045843Y-13023083D02*
X12055367Y-12984988D01*
X12055367Y-12984988D02*
X12064891Y-12965941D01*
X12064891Y-12965941D02*
X12074415Y-12956417D01*
X12074415Y-12956417D02*
X12093462Y-12946893D01*
X12283939Y-12946893D02*
X12302986Y-12946893D01*
X12302986Y-12946893D02*
X12322034Y-12956417D01*
X12322034Y-12956417D02*
X12331558Y-12965941D01*
X12331558Y-12965941D02*
X12341082Y-12984988D01*
X12341082Y-12984988D02*
X12350605Y-13023083D01*
X12350605Y-13023083D02*
X12350605Y-13070702D01*
X12350605Y-13070702D02*
X12341082Y-13108798D01*
X12341082Y-13108798D02*
X12331558Y-13127845D01*
X12331558Y-13127845D02*
X12322034Y-13137369D01*
X12322034Y-13137369D02*
X12302986Y-13146893D01*
X12302986Y-13146893D02*
X12283939Y-13146893D01*
X12283939Y-13146893D02*
X12264891Y-13137369D01*
X12264891Y-13137369D02*
X12255367Y-13127845D01*
X12255367Y-13127845D02*
X12245843Y-13108798D01*
X12245843Y-13108798D02*
X12236320Y-13070702D01*
X12236320Y-13070702D02*
X12236320Y-13023083D01*
X12236320Y-13023083D02*
X12245843Y-12984988D01*
X12245843Y-12984988D02*
X12255367Y-12965941D01*
X12255367Y-12965941D02*
X12264891Y-12956417D01*
X12264891Y-12956417D02*
X12283939Y-12946893D01*
X12436320Y-13146893D02*
X12436320Y-13013560D01*
X12436320Y-13032607D02*
X12445843Y-13023083D01*
X12445843Y-13023083D02*
X12464891Y-13013560D01*
X12464891Y-13013560D02*
X12493463Y-13013560D01*
X12493463Y-13013560D02*
X12512510Y-13023083D01*
X12512510Y-13023083D02*
X12522034Y-13042131D01*
X12522034Y-13042131D02*
X12522034Y-13146893D01*
X12522034Y-13042131D02*
X12531558Y-13023083D01*
X12531558Y-13023083D02*
X12550605Y-13013560D01*
X12550605Y-13013560D02*
X12579177Y-13013560D01*
X12579177Y-13013560D02*
X12598224Y-13023083D01*
X12598224Y-13023083D02*
X12607748Y-13042131D01*
X12607748Y-13042131D02*
X12607748Y-13146893D01*
X12702986Y-13146893D02*
X12702986Y-13013560D01*
X12702986Y-13032607D02*
X12712510Y-13023083D01*
X12712510Y-13023083D02*
X12731558Y-13013560D01*
X12731558Y-13013560D02*
X12760129Y-13013560D01*
X12760129Y-13013560D02*
X12779177Y-13023083D01*
X12779177Y-13023083D02*
X12788701Y-13042131D01*
X12788701Y-13042131D02*
X12788701Y-13146893D01*
X12788701Y-13042131D02*
X12798224Y-13023083D01*
X12798224Y-13023083D02*
X12817272Y-13013560D01*
X12817272Y-13013560D02*
X12845843Y-13013560D01*
X12845843Y-13013560D02*
X12864891Y-13023083D01*
X12864891Y-13023083D02*
X12874415Y-13042131D01*
X12874415Y-13042131D02*
X12874415Y-13146893D01*
X13264891Y-12937369D02*
X13093463Y-13194512D01*
X13522034Y-12946893D02*
X13541082Y-12946893D01*
X13541082Y-12946893D02*
X13560129Y-12956417D01*
X13560129Y-12956417D02*
X13569653Y-12965941D01*
X13569653Y-12965941D02*
X13579177Y-12984988D01*
X13579177Y-12984988D02*
X13588701Y-13023083D01*
X13588701Y-13023083D02*
X13588701Y-13070702D01*
X13588701Y-13070702D02*
X13579177Y-13108798D01*
X13579177Y-13108798D02*
X13569653Y-13127845D01*
X13569653Y-13127845D02*
X13560129Y-13137369D01*
X13560129Y-13137369D02*
X13541082Y-13146893D01*
X13541082Y-13146893D02*
X13522034Y-13146893D01*
X13522034Y-13146893D02*
X13502986Y-13137369D01*
X13502986Y-13137369D02*
X13493463Y-13127845D01*
X13493463Y-13127845D02*
X13483939Y-13108798D01*
X13483939Y-13108798D02*
X13474415Y-13070702D01*
X13474415Y-13070702D02*
X13474415Y-13023083D01*
X13474415Y-13023083D02*
X13483939Y-12984988D01*
X13483939Y-12984988D02*
X13493463Y-12965941D01*
X13493463Y-12965941D02*
X13502986Y-12956417D01*
X13502986Y-12956417D02*
X13522034Y-12946893D01*
X13674415Y-13127845D02*
X13683939Y-13137369D01*
X13683939Y-13137369D02*
X13674415Y-13146893D01*
X13674415Y-13146893D02*
X13664891Y-13137369D01*
X13664891Y-13137369D02*
X13674415Y-13127845D01*
X13674415Y-13127845D02*
X13674415Y-13146893D01*
X13874415Y-13146893D02*
X13760129Y-13146893D01*
X13817272Y-13146893D02*
X13817272Y-12946893D01*
X13817272Y-12946893D02*
X13798225Y-12975464D01*
X13798225Y-12975464D02*
X13779177Y-12994512D01*
X13779177Y-12994512D02*
X13760129Y-13004036D01*
X13950606Y-12965941D02*
X13960129Y-12956417D01*
X13960129Y-12956417D02*
X13979177Y-12946893D01*
X13979177Y-12946893D02*
X14026796Y-12946893D01*
X14026796Y-12946893D02*
X14045844Y-12956417D01*
X14045844Y-12956417D02*
X14055367Y-12965941D01*
X14055367Y-12965941D02*
X14064891Y-12984988D01*
X14064891Y-12984988D02*
X14064891Y-13004036D01*
X14064891Y-13004036D02*
X14055367Y-13032607D01*
X14055367Y-13032607D02*
X13941082Y-13146893D01*
X13941082Y-13146893D02*
X14064891Y-13146893D01*
X14236320Y-12946893D02*
X14198225Y-12946893D01*
X14198225Y-12946893D02*
X14179177Y-12956417D01*
X14179177Y-12956417D02*
X14169653Y-12965941D01*
X14169653Y-12965941D02*
X14150606Y-12994512D01*
X14150606Y-12994512D02*
X14141082Y-13032607D01*
X14141082Y-13032607D02*
X14141082Y-13108798D01*
X14141082Y-13108798D02*
X14150606Y-13127845D01*
X14150606Y-13127845D02*
X14160129Y-13137369D01*
X14160129Y-13137369D02*
X14179177Y-13146893D01*
X14179177Y-13146893D02*
X14217272Y-13146893D01*
X14217272Y-13146893D02*
X14236320Y-13137369D01*
X14236320Y-13137369D02*
X14245844Y-13127845D01*
X14245844Y-13127845D02*
X14255367Y-13108798D01*
X14255367Y-13108798D02*
X14255367Y-13061179D01*
X14255367Y-13061179D02*
X14245844Y-13042131D01*
X14245844Y-13042131D02*
X14236320Y-13032607D01*
X14236320Y-13032607D02*
X14217272Y-13023083D01*
X14217272Y-13023083D02*
X14179177Y-13023083D01*
X14179177Y-13023083D02*
X14160129Y-13032607D01*
X14160129Y-13032607D02*
X14150606Y-13042131D01*
X14150606Y-13042131D02*
X14141082Y-13061179D01*
X14379177Y-12946893D02*
X14398225Y-12946893D01*
X14398225Y-12946893D02*
X14417272Y-12956417D01*
X14417272Y-12956417D02*
X14426796Y-12965941D01*
X14426796Y-12965941D02*
X14436320Y-12984988D01*
X14436320Y-12984988D02*
X14445844Y-13023083D01*
X14445844Y-13023083D02*
X14445844Y-13070702D01*
X14445844Y-13070702D02*
X14436320Y-13108798D01*
X14436320Y-13108798D02*
X14426796Y-13127845D01*
X14426796Y-13127845D02*
X14417272Y-13137369D01*
X14417272Y-13137369D02*
X14398225Y-13146893D01*
X14398225Y-13146893D02*
X14379177Y-13146893D01*
X14379177Y-13146893D02*
X14360129Y-13137369D01*
X14360129Y-13137369D02*
X14350606Y-13127845D01*
X14350606Y-13127845D02*
X14341082Y-13108798D01*
X14341082Y-13108798D02*
X14331558Y-13070702D01*
X14331558Y-13070702D02*
X14331558Y-13023083D01*
X14331558Y-13023083D02*
X14341082Y-12984988D01*
X14341082Y-12984988D02*
X14350606Y-12965941D01*
X14350606Y-12965941D02*
X14360129Y-12956417D01*
X14360129Y-12956417D02*
X14379177Y-12946893D01*
X14522034Y-12946893D02*
X14522034Y-12984988D01*
X14598225Y-12946893D02*
X14598225Y-12984988D01*
X14893463Y-13223083D02*
X14883939Y-13213560D01*
X14883939Y-13213560D02*
X14864891Y-13184988D01*
X14864891Y-13184988D02*
X14855368Y-13165941D01*
X14855368Y-13165941D02*
X14845844Y-13137369D01*
X14845844Y-13137369D02*
X14836320Y-13089750D01*
X14836320Y-13089750D02*
X14836320Y-13051655D01*
X14836320Y-13051655D02*
X14845844Y-13004036D01*
X14845844Y-13004036D02*
X14855368Y-12975464D01*
X14855368Y-12975464D02*
X14864891Y-12956417D01*
X14864891Y-12956417D02*
X14883939Y-12927845D01*
X14883939Y-12927845D02*
X14893463Y-12918321D01*
X15055368Y-13013560D02*
X15055368Y-13146893D01*
X15007748Y-12937369D02*
X14960129Y-13080226D01*
X14960129Y-13080226D02*
X15083939Y-13080226D01*
X15312510Y-13146893D02*
X15312510Y-12946893D01*
X15398225Y-13146893D02*
X15398225Y-13042131D01*
X15398225Y-13042131D02*
X15388701Y-13023083D01*
X15388701Y-13023083D02*
X15369653Y-13013560D01*
X15369653Y-13013560D02*
X15341082Y-13013560D01*
X15341082Y-13013560D02*
X15322034Y-13023083D01*
X15322034Y-13023083D02*
X15312510Y-13032607D01*
X15522034Y-13146893D02*
X15502987Y-13137369D01*
X15502987Y-13137369D02*
X15493463Y-13127845D01*
X15493463Y-13127845D02*
X15483939Y-13108798D01*
X15483939Y-13108798D02*
X15483939Y-13051655D01*
X15483939Y-13051655D02*
X15493463Y-13032607D01*
X15493463Y-13032607D02*
X15502987Y-13023083D01*
X15502987Y-13023083D02*
X15522034Y-13013560D01*
X15522034Y-13013560D02*
X15550606Y-13013560D01*
X15550606Y-13013560D02*
X15569653Y-13023083D01*
X15569653Y-13023083D02*
X15579177Y-13032607D01*
X15579177Y-13032607D02*
X15588701Y-13051655D01*
X15588701Y-13051655D02*
X15588701Y-13108798D01*
X15588701Y-13108798D02*
X15579177Y-13127845D01*
X15579177Y-13127845D02*
X15569653Y-13137369D01*
X15569653Y-13137369D02*
X15550606Y-13146893D01*
X15550606Y-13146893D02*
X15522034Y-13146893D01*
X15702987Y-13146893D02*
X15683939Y-13137369D01*
X15683939Y-13137369D02*
X15674415Y-13118321D01*
X15674415Y-13118321D02*
X15674415Y-12946893D01*
X15855368Y-13137369D02*
X15836320Y-13146893D01*
X15836320Y-13146893D02*
X15798225Y-13146893D01*
X15798225Y-13146893D02*
X15779177Y-13137369D01*
X15779177Y-13137369D02*
X15769653Y-13118321D01*
X15769653Y-13118321D02*
X15769653Y-13042131D01*
X15769653Y-13042131D02*
X15779177Y-13023083D01*
X15779177Y-13023083D02*
X15798225Y-13013560D01*
X15798225Y-13013560D02*
X15836320Y-13013560D01*
X15836320Y-13013560D02*
X15855368Y-13023083D01*
X15855368Y-13023083D02*
X15864891Y-13042131D01*
X15864891Y-13042131D02*
X15864891Y-13061179D01*
X15864891Y-13061179D02*
X15769653Y-13080226D01*
X15941082Y-13137369D02*
X15960130Y-13146893D01*
X15960130Y-13146893D02*
X15998225Y-13146893D01*
X15998225Y-13146893D02*
X16017272Y-13137369D01*
X16017272Y-13137369D02*
X16026796Y-13118321D01*
X16026796Y-13118321D02*
X16026796Y-13108798D01*
X16026796Y-13108798D02*
X16017272Y-13089750D01*
X16017272Y-13089750D02*
X15998225Y-13080226D01*
X15998225Y-13080226D02*
X15969653Y-13080226D01*
X15969653Y-13080226D02*
X15950606Y-13070702D01*
X15950606Y-13070702D02*
X15941082Y-13051655D01*
X15941082Y-13051655D02*
X15941082Y-13042131D01*
X15941082Y-13042131D02*
X15950606Y-13023083D01*
X15950606Y-13023083D02*
X15969653Y-13013560D01*
X15969653Y-13013560D02*
X15998225Y-13013560D01*
X15998225Y-13013560D02*
X16017272Y-13023083D01*
X16093463Y-13223083D02*
X16102987Y-13213560D01*
X16102987Y-13213560D02*
X16122034Y-13184988D01*
X16122034Y-13184988D02*
X16131558Y-13165941D01*
X16131558Y-13165941D02*
X16141082Y-13137369D01*
X16141082Y-13137369D02*
X16150606Y-13089750D01*
X16150606Y-13089750D02*
X16150606Y-13051655D01*
X16150606Y-13051655D02*
X16141082Y-13004036D01*
X16141082Y-13004036D02*
X16131558Y-12975464D01*
X16131558Y-12975464D02*
X16122034Y-12956417D01*
X16122034Y-12956417D02*
X16102987Y-12927845D01*
X16102987Y-12927845D02*
X16093463Y-12918321D01*
M02*
