G04 #@! TF.GenerationSoftware,KiCad,Pcbnew,7.0.5*
G04 #@! TF.CreationDate,2023-08-03T16:32:48+02:00*
G04 #@! TF.ProjectId,Sensores,53656e73-6f72-4657-932e-6b696361645f,rev?*
G04 #@! TF.SameCoordinates,Original*
G04 #@! TF.FileFunction,Legend,Top*
G04 #@! TF.FilePolarity,Positive*
%FSLAX46Y46*%
G04 Gerber Fmt 4.6, Leading zero omitted, Abs format (unit mm)*
G04 Created by KiCad (PCBNEW 7.0.5) date 2023-08-03 16:32:48*
%MOMM*%
%LPD*%
G01*
G04 APERTURE LIST*
G04 Aperture macros list*
%AMRoundRect*
0 Rectangle with rounded corners*
0 $1 Rounding radius*
0 $2 $3 $4 $5 $6 $7 $8 $9 X,Y pos of 4 corners*
0 Add a 4 corners polygon primitive as box body*
4,1,4,$2,$3,$4,$5,$6,$7,$8,$9,$2,$3,0*
0 Add four circle primitives for the rounded corners*
1,1,$1+$1,$2,$3*
1,1,$1+$1,$4,$5*
1,1,$1+$1,$6,$7*
1,1,$1+$1,$8,$9*
0 Add four rect primitives between the rounded corners*
20,1,$1+$1,$2,$3,$4,$5,0*
20,1,$1+$1,$4,$5,$6,$7,0*
20,1,$1+$1,$6,$7,$8,$9,0*
20,1,$1+$1,$8,$9,$2,$3,0*%
G04 Aperture macros list end*
%ADD10C,0.150000*%
%ADD11C,0.200000*%
%ADD12C,0.120000*%
%ADD13C,5.600000*%
%ADD14RoundRect,0.250000X0.400000X0.625000X-0.400000X0.625000X-0.400000X-0.625000X0.400000X-0.625000X0*%
%ADD15RoundRect,0.250000X-0.625000X0.400000X-0.625000X-0.400000X0.625000X-0.400000X0.625000X0.400000X0*%
%ADD16R,0.610000X2.000000*%
%ADD17R,2.680000X3.600000*%
%ADD18RoundRect,0.249600X-0.550400X-0.550400X0.550400X-0.550400X0.550400X0.550400X-0.550400X0.550400X0*%
%ADD19C,1.600000*%
G04 APERTURE END LIST*
D10*
X209296000Y-103327200D02*
X209296000Y-98298000D01*
D11*
X117703600Y-103174800D02*
X117703600Y-98399600D01*
D10*
X182981600Y-103276400D02*
X182981600Y-94284800D01*
D11*
X130657600Y-103124000D02*
X130657600Y-96418400D01*
D10*
X196189600Y-103327200D02*
X196189600Y-96316800D01*
X156819600Y-103276400D02*
X156819600Y-92557600D01*
X143865600Y-103225600D02*
X143865600Y-94284800D01*
X170027600Y-103276400D02*
X170027600Y-92456000D01*
X123410742Y-98651219D02*
X123077409Y-98175028D01*
X122839314Y-98651219D02*
X122839314Y-97651219D01*
X122839314Y-97651219D02*
X123220266Y-97651219D01*
X123220266Y-97651219D02*
X123315504Y-97698838D01*
X123315504Y-97698838D02*
X123363123Y-97746457D01*
X123363123Y-97746457D02*
X123410742Y-97841695D01*
X123410742Y-97841695D02*
X123410742Y-97984552D01*
X123410742Y-97984552D02*
X123363123Y-98079790D01*
X123363123Y-98079790D02*
X123315504Y-98127409D01*
X123315504Y-98127409D02*
X123220266Y-98175028D01*
X123220266Y-98175028D02*
X122839314Y-98175028D01*
X124363123Y-98651219D02*
X123791695Y-98651219D01*
X124077409Y-98651219D02*
X124077409Y-97651219D01*
X124077409Y-97651219D02*
X123982171Y-97794076D01*
X123982171Y-97794076D02*
X123886933Y-97889314D01*
X123886933Y-97889314D02*
X123791695Y-97936933D01*
X124982171Y-97651219D02*
X125077409Y-97651219D01*
X125077409Y-97651219D02*
X125172647Y-97698838D01*
X125172647Y-97698838D02*
X125220266Y-97746457D01*
X125220266Y-97746457D02*
X125267885Y-97841695D01*
X125267885Y-97841695D02*
X125315504Y-98032171D01*
X125315504Y-98032171D02*
X125315504Y-98270266D01*
X125315504Y-98270266D02*
X125267885Y-98460742D01*
X125267885Y-98460742D02*
X125220266Y-98555980D01*
X125220266Y-98555980D02*
X125172647Y-98603600D01*
X125172647Y-98603600D02*
X125077409Y-98651219D01*
X125077409Y-98651219D02*
X124982171Y-98651219D01*
X124982171Y-98651219D02*
X124886933Y-98603600D01*
X124886933Y-98603600D02*
X124839314Y-98555980D01*
X124839314Y-98555980D02*
X124791695Y-98460742D01*
X124791695Y-98460742D02*
X124744076Y-98270266D01*
X124744076Y-98270266D02*
X124744076Y-98032171D01*
X124744076Y-98032171D02*
X124791695Y-97841695D01*
X124791695Y-97841695D02*
X124839314Y-97746457D01*
X124839314Y-97746457D02*
X124886933Y-97698838D01*
X124886933Y-97698838D02*
X124982171Y-97651219D01*
X151497333Y-101902419D02*
X151164000Y-101426228D01*
X150925905Y-101902419D02*
X150925905Y-100902419D01*
X150925905Y-100902419D02*
X151306857Y-100902419D01*
X151306857Y-100902419D02*
X151402095Y-100950038D01*
X151402095Y-100950038D02*
X151449714Y-100997657D01*
X151449714Y-100997657D02*
X151497333Y-101092895D01*
X151497333Y-101092895D02*
X151497333Y-101235752D01*
X151497333Y-101235752D02*
X151449714Y-101330990D01*
X151449714Y-101330990D02*
X151402095Y-101378609D01*
X151402095Y-101378609D02*
X151306857Y-101426228D01*
X151306857Y-101426228D02*
X150925905Y-101426228D01*
X151830667Y-100902419D02*
X152449714Y-100902419D01*
X152449714Y-100902419D02*
X152116381Y-101283371D01*
X152116381Y-101283371D02*
X152259238Y-101283371D01*
X152259238Y-101283371D02*
X152354476Y-101330990D01*
X152354476Y-101330990D02*
X152402095Y-101378609D01*
X152402095Y-101378609D02*
X152449714Y-101473847D01*
X152449714Y-101473847D02*
X152449714Y-101711942D01*
X152449714Y-101711942D02*
X152402095Y-101807180D01*
X152402095Y-101807180D02*
X152354476Y-101854800D01*
X152354476Y-101854800D02*
X152259238Y-101902419D01*
X152259238Y-101902419D02*
X151973524Y-101902419D01*
X151973524Y-101902419D02*
X151878286Y-101854800D01*
X151878286Y-101854800D02*
X151830667Y-101807180D01*
X149896533Y-96822419D02*
X149563200Y-96346228D01*
X149325105Y-96822419D02*
X149325105Y-95822419D01*
X149325105Y-95822419D02*
X149706057Y-95822419D01*
X149706057Y-95822419D02*
X149801295Y-95870038D01*
X149801295Y-95870038D02*
X149848914Y-95917657D01*
X149848914Y-95917657D02*
X149896533Y-96012895D01*
X149896533Y-96012895D02*
X149896533Y-96155752D01*
X149896533Y-96155752D02*
X149848914Y-96250990D01*
X149848914Y-96250990D02*
X149801295Y-96298609D01*
X149801295Y-96298609D02*
X149706057Y-96346228D01*
X149706057Y-96346228D02*
X149325105Y-96346228D01*
X150372724Y-96822419D02*
X150563200Y-96822419D01*
X150563200Y-96822419D02*
X150658438Y-96774800D01*
X150658438Y-96774800D02*
X150706057Y-96727180D01*
X150706057Y-96727180D02*
X150801295Y-96584323D01*
X150801295Y-96584323D02*
X150848914Y-96393847D01*
X150848914Y-96393847D02*
X150848914Y-96012895D01*
X150848914Y-96012895D02*
X150801295Y-95917657D01*
X150801295Y-95917657D02*
X150753676Y-95870038D01*
X150753676Y-95870038D02*
X150658438Y-95822419D01*
X150658438Y-95822419D02*
X150467962Y-95822419D01*
X150467962Y-95822419D02*
X150372724Y-95870038D01*
X150372724Y-95870038D02*
X150325105Y-95917657D01*
X150325105Y-95917657D02*
X150277486Y-96012895D01*
X150277486Y-96012895D02*
X150277486Y-96250990D01*
X150277486Y-96250990D02*
X150325105Y-96346228D01*
X150325105Y-96346228D02*
X150372724Y-96393847D01*
X150372724Y-96393847D02*
X150467962Y-96441466D01*
X150467962Y-96441466D02*
X150658438Y-96441466D01*
X150658438Y-96441466D02*
X150753676Y-96393847D01*
X150753676Y-96393847D02*
X150801295Y-96346228D01*
X150801295Y-96346228D02*
X150848914Y-96250990D01*
X203896933Y-102384419D02*
X203563600Y-101908228D01*
X203325505Y-102384419D02*
X203325505Y-101384419D01*
X203325505Y-101384419D02*
X203706457Y-101384419D01*
X203706457Y-101384419D02*
X203801695Y-101432038D01*
X203801695Y-101432038D02*
X203849314Y-101479657D01*
X203849314Y-101479657D02*
X203896933Y-101574895D01*
X203896933Y-101574895D02*
X203896933Y-101717752D01*
X203896933Y-101717752D02*
X203849314Y-101812990D01*
X203849314Y-101812990D02*
X203801695Y-101860609D01*
X203801695Y-101860609D02*
X203706457Y-101908228D01*
X203706457Y-101908228D02*
X203325505Y-101908228D01*
X204849314Y-102384419D02*
X204277886Y-102384419D01*
X204563600Y-102384419D02*
X204563600Y-101384419D01*
X204563600Y-101384419D02*
X204468362Y-101527276D01*
X204468362Y-101527276D02*
X204373124Y-101622514D01*
X204373124Y-101622514D02*
X204277886Y-101670133D01*
X162988666Y-107600019D02*
X162988666Y-108314304D01*
X162988666Y-108314304D02*
X162941047Y-108457161D01*
X162941047Y-108457161D02*
X162845809Y-108552400D01*
X162845809Y-108552400D02*
X162702952Y-108600019D01*
X162702952Y-108600019D02*
X162607714Y-108600019D01*
X163988666Y-108600019D02*
X163417238Y-108600019D01*
X163702952Y-108600019D02*
X163702952Y-107600019D01*
X163702952Y-107600019D02*
X163607714Y-107742876D01*
X163607714Y-107742876D02*
X163512476Y-107838114D01*
X163512476Y-107838114D02*
X163417238Y-107885733D01*
X174839333Y-101725219D02*
X174506000Y-101249028D01*
X174267905Y-101725219D02*
X174267905Y-100725219D01*
X174267905Y-100725219D02*
X174648857Y-100725219D01*
X174648857Y-100725219D02*
X174744095Y-100772838D01*
X174744095Y-100772838D02*
X174791714Y-100820457D01*
X174791714Y-100820457D02*
X174839333Y-100915695D01*
X174839333Y-100915695D02*
X174839333Y-101058552D01*
X174839333Y-101058552D02*
X174791714Y-101153790D01*
X174791714Y-101153790D02*
X174744095Y-101201409D01*
X174744095Y-101201409D02*
X174648857Y-101249028D01*
X174648857Y-101249028D02*
X174267905Y-101249028D01*
X175744095Y-100725219D02*
X175267905Y-100725219D01*
X175267905Y-100725219D02*
X175220286Y-101201409D01*
X175220286Y-101201409D02*
X175267905Y-101153790D01*
X175267905Y-101153790D02*
X175363143Y-101106171D01*
X175363143Y-101106171D02*
X175601238Y-101106171D01*
X175601238Y-101106171D02*
X175696476Y-101153790D01*
X175696476Y-101153790D02*
X175744095Y-101201409D01*
X175744095Y-101201409D02*
X175791714Y-101296647D01*
X175791714Y-101296647D02*
X175791714Y-101534742D01*
X175791714Y-101534742D02*
X175744095Y-101629980D01*
X175744095Y-101629980D02*
X175696476Y-101677600D01*
X175696476Y-101677600D02*
X175601238Y-101725219D01*
X175601238Y-101725219D02*
X175363143Y-101725219D01*
X175363143Y-101725219D02*
X175267905Y-101677600D01*
X175267905Y-101677600D02*
X175220286Y-101629980D01*
X202372933Y-98702019D02*
X202039600Y-98225828D01*
X201801505Y-98702019D02*
X201801505Y-97702019D01*
X201801505Y-97702019D02*
X202182457Y-97702019D01*
X202182457Y-97702019D02*
X202277695Y-97749638D01*
X202277695Y-97749638D02*
X202325314Y-97797257D01*
X202325314Y-97797257D02*
X202372933Y-97892495D01*
X202372933Y-97892495D02*
X202372933Y-98035352D01*
X202372933Y-98035352D02*
X202325314Y-98130590D01*
X202325314Y-98130590D02*
X202277695Y-98178209D01*
X202277695Y-98178209D02*
X202182457Y-98225828D01*
X202182457Y-98225828D02*
X201801505Y-98225828D01*
X202706267Y-97702019D02*
X203372933Y-97702019D01*
X203372933Y-97702019D02*
X202944362Y-98702019D01*
X176210933Y-96771619D02*
X175877600Y-96295428D01*
X175639505Y-96771619D02*
X175639505Y-95771619D01*
X175639505Y-95771619D02*
X176020457Y-95771619D01*
X176020457Y-95771619D02*
X176115695Y-95819238D01*
X176115695Y-95819238D02*
X176163314Y-95866857D01*
X176163314Y-95866857D02*
X176210933Y-95962095D01*
X176210933Y-95962095D02*
X176210933Y-96104952D01*
X176210933Y-96104952D02*
X176163314Y-96200190D01*
X176163314Y-96200190D02*
X176115695Y-96247809D01*
X176115695Y-96247809D02*
X176020457Y-96295428D01*
X176020457Y-96295428D02*
X175639505Y-96295428D01*
X176782362Y-96200190D02*
X176687124Y-96152571D01*
X176687124Y-96152571D02*
X176639505Y-96104952D01*
X176639505Y-96104952D02*
X176591886Y-96009714D01*
X176591886Y-96009714D02*
X176591886Y-95962095D01*
X176591886Y-95962095D02*
X176639505Y-95866857D01*
X176639505Y-95866857D02*
X176687124Y-95819238D01*
X176687124Y-95819238D02*
X176782362Y-95771619D01*
X176782362Y-95771619D02*
X176972838Y-95771619D01*
X176972838Y-95771619D02*
X177068076Y-95819238D01*
X177068076Y-95819238D02*
X177115695Y-95866857D01*
X177115695Y-95866857D02*
X177163314Y-95962095D01*
X177163314Y-95962095D02*
X177163314Y-96009714D01*
X177163314Y-96009714D02*
X177115695Y-96104952D01*
X177115695Y-96104952D02*
X177068076Y-96152571D01*
X177068076Y-96152571D02*
X176972838Y-96200190D01*
X176972838Y-96200190D02*
X176782362Y-96200190D01*
X176782362Y-96200190D02*
X176687124Y-96247809D01*
X176687124Y-96247809D02*
X176639505Y-96295428D01*
X176639505Y-96295428D02*
X176591886Y-96390666D01*
X176591886Y-96390666D02*
X176591886Y-96581142D01*
X176591886Y-96581142D02*
X176639505Y-96676380D01*
X176639505Y-96676380D02*
X176687124Y-96724000D01*
X176687124Y-96724000D02*
X176782362Y-96771619D01*
X176782362Y-96771619D02*
X176972838Y-96771619D01*
X176972838Y-96771619D02*
X177068076Y-96724000D01*
X177068076Y-96724000D02*
X177115695Y-96676380D01*
X177115695Y-96676380D02*
X177163314Y-96581142D01*
X177163314Y-96581142D02*
X177163314Y-96390666D01*
X177163314Y-96390666D02*
X177115695Y-96295428D01*
X177115695Y-96295428D02*
X177068076Y-96247809D01*
X177068076Y-96247809D02*
X176972838Y-96200190D01*
X122039142Y-102359619D02*
X121705809Y-101883428D01*
X121467714Y-102359619D02*
X121467714Y-101359619D01*
X121467714Y-101359619D02*
X121848666Y-101359619D01*
X121848666Y-101359619D02*
X121943904Y-101407238D01*
X121943904Y-101407238D02*
X121991523Y-101454857D01*
X121991523Y-101454857D02*
X122039142Y-101550095D01*
X122039142Y-101550095D02*
X122039142Y-101692952D01*
X122039142Y-101692952D02*
X121991523Y-101788190D01*
X121991523Y-101788190D02*
X121943904Y-101835809D01*
X121943904Y-101835809D02*
X121848666Y-101883428D01*
X121848666Y-101883428D02*
X121467714Y-101883428D01*
X122991523Y-102359619D02*
X122420095Y-102359619D01*
X122705809Y-102359619D02*
X122705809Y-101359619D01*
X122705809Y-101359619D02*
X122610571Y-101502476D01*
X122610571Y-101502476D02*
X122515333Y-101597714D01*
X122515333Y-101597714D02*
X122420095Y-101645333D01*
X123372476Y-101454857D02*
X123420095Y-101407238D01*
X123420095Y-101407238D02*
X123515333Y-101359619D01*
X123515333Y-101359619D02*
X123753428Y-101359619D01*
X123753428Y-101359619D02*
X123848666Y-101407238D01*
X123848666Y-101407238D02*
X123896285Y-101454857D01*
X123896285Y-101454857D02*
X123943904Y-101550095D01*
X123943904Y-101550095D02*
X123943904Y-101645333D01*
X123943904Y-101645333D02*
X123896285Y-101788190D01*
X123896285Y-101788190D02*
X123324857Y-102359619D01*
X123324857Y-102359619D02*
X123943904Y-102359619D01*
X148626533Y-101851619D02*
X148293200Y-101375428D01*
X148055105Y-101851619D02*
X148055105Y-100851619D01*
X148055105Y-100851619D02*
X148436057Y-100851619D01*
X148436057Y-100851619D02*
X148531295Y-100899238D01*
X148531295Y-100899238D02*
X148578914Y-100946857D01*
X148578914Y-100946857D02*
X148626533Y-101042095D01*
X148626533Y-101042095D02*
X148626533Y-101184952D01*
X148626533Y-101184952D02*
X148578914Y-101280190D01*
X148578914Y-101280190D02*
X148531295Y-101327809D01*
X148531295Y-101327809D02*
X148436057Y-101375428D01*
X148436057Y-101375428D02*
X148055105Y-101375428D01*
X149483676Y-100851619D02*
X149293200Y-100851619D01*
X149293200Y-100851619D02*
X149197962Y-100899238D01*
X149197962Y-100899238D02*
X149150343Y-100946857D01*
X149150343Y-100946857D02*
X149055105Y-101089714D01*
X149055105Y-101089714D02*
X149007486Y-101280190D01*
X149007486Y-101280190D02*
X149007486Y-101661142D01*
X149007486Y-101661142D02*
X149055105Y-101756380D01*
X149055105Y-101756380D02*
X149102724Y-101804000D01*
X149102724Y-101804000D02*
X149197962Y-101851619D01*
X149197962Y-101851619D02*
X149388438Y-101851619D01*
X149388438Y-101851619D02*
X149483676Y-101804000D01*
X149483676Y-101804000D02*
X149531295Y-101756380D01*
X149531295Y-101756380D02*
X149578914Y-101661142D01*
X149578914Y-101661142D02*
X149578914Y-101423047D01*
X149578914Y-101423047D02*
X149531295Y-101327809D01*
X149531295Y-101327809D02*
X149483676Y-101280190D01*
X149483676Y-101280190D02*
X149388438Y-101232571D01*
X149388438Y-101232571D02*
X149197962Y-101232571D01*
X149197962Y-101232571D02*
X149102724Y-101280190D01*
X149102724Y-101280190D02*
X149055105Y-101327809D01*
X149055105Y-101327809D02*
X149007486Y-101423047D01*
X177277733Y-101648419D02*
X176944400Y-101172228D01*
X176706305Y-101648419D02*
X176706305Y-100648419D01*
X176706305Y-100648419D02*
X177087257Y-100648419D01*
X177087257Y-100648419D02*
X177182495Y-100696038D01*
X177182495Y-100696038D02*
X177230114Y-100743657D01*
X177230114Y-100743657D02*
X177277733Y-100838895D01*
X177277733Y-100838895D02*
X177277733Y-100981752D01*
X177277733Y-100981752D02*
X177230114Y-101076990D01*
X177230114Y-101076990D02*
X177182495Y-101124609D01*
X177182495Y-101124609D02*
X177087257Y-101172228D01*
X177087257Y-101172228D02*
X176706305Y-101172228D01*
X177658686Y-100743657D02*
X177706305Y-100696038D01*
X177706305Y-100696038D02*
X177801543Y-100648419D01*
X177801543Y-100648419D02*
X178039638Y-100648419D01*
X178039638Y-100648419D02*
X178134876Y-100696038D01*
X178134876Y-100696038D02*
X178182495Y-100743657D01*
X178182495Y-100743657D02*
X178230114Y-100838895D01*
X178230114Y-100838895D02*
X178230114Y-100934133D01*
X178230114Y-100934133D02*
X178182495Y-101076990D01*
X178182495Y-101076990D02*
X177611067Y-101648419D01*
X177611067Y-101648419D02*
X178230114Y-101648419D01*
X201052133Y-102435219D02*
X200718800Y-101959028D01*
X200480705Y-102435219D02*
X200480705Y-101435219D01*
X200480705Y-101435219D02*
X200861657Y-101435219D01*
X200861657Y-101435219D02*
X200956895Y-101482838D01*
X200956895Y-101482838D02*
X201004514Y-101530457D01*
X201004514Y-101530457D02*
X201052133Y-101625695D01*
X201052133Y-101625695D02*
X201052133Y-101768552D01*
X201052133Y-101768552D02*
X201004514Y-101863790D01*
X201004514Y-101863790D02*
X200956895Y-101911409D01*
X200956895Y-101911409D02*
X200861657Y-101959028D01*
X200861657Y-101959028D02*
X200480705Y-101959028D01*
X201909276Y-101768552D02*
X201909276Y-102435219D01*
X201671181Y-101387600D02*
X201433086Y-102101885D01*
X201433086Y-102101885D02*
X202052133Y-102101885D01*
X124883942Y-102359619D02*
X124550609Y-101883428D01*
X124312514Y-102359619D02*
X124312514Y-101359619D01*
X124312514Y-101359619D02*
X124693466Y-101359619D01*
X124693466Y-101359619D02*
X124788704Y-101407238D01*
X124788704Y-101407238D02*
X124836323Y-101454857D01*
X124836323Y-101454857D02*
X124883942Y-101550095D01*
X124883942Y-101550095D02*
X124883942Y-101692952D01*
X124883942Y-101692952D02*
X124836323Y-101788190D01*
X124836323Y-101788190D02*
X124788704Y-101835809D01*
X124788704Y-101835809D02*
X124693466Y-101883428D01*
X124693466Y-101883428D02*
X124312514Y-101883428D01*
X125836323Y-102359619D02*
X125264895Y-102359619D01*
X125550609Y-102359619D02*
X125550609Y-101359619D01*
X125550609Y-101359619D02*
X125455371Y-101502476D01*
X125455371Y-101502476D02*
X125360133Y-101597714D01*
X125360133Y-101597714D02*
X125264895Y-101645333D01*
X126788704Y-102359619D02*
X126217276Y-102359619D01*
X126502990Y-102359619D02*
X126502990Y-101359619D01*
X126502990Y-101359619D02*
X126407752Y-101502476D01*
X126407752Y-101502476D02*
X126312514Y-101597714D01*
X126312514Y-101597714D02*
X126217276Y-101645333D01*
D12*
X124729864Y-100884400D02*
X123275736Y-100884400D01*
X124729864Y-99064400D02*
X123275736Y-99064400D01*
X152574000Y-103896136D02*
X152574000Y-105350264D01*
X150754000Y-103896136D02*
X150754000Y-105350264D01*
X150841064Y-99004800D02*
X149386936Y-99004800D01*
X150841064Y-97184800D02*
X149386936Y-97184800D01*
X204821200Y-104428936D02*
X204821200Y-105883064D01*
X203001200Y-104428936D02*
X203001200Y-105883064D01*
X154252000Y-115745200D02*
X155277000Y-115745200D01*
X154252000Y-116855200D02*
X154252000Y-115745200D01*
X155277000Y-115745200D02*
X155277000Y-115205200D01*
X157432000Y-111235200D02*
X158257000Y-111235200D01*
X158257000Y-111235200D02*
X158257000Y-109435200D01*
X168387000Y-111235200D02*
X169212000Y-111235200D01*
X171367000Y-115205200D02*
X171367000Y-115745200D01*
X171367000Y-115745200D02*
X172392000Y-115745200D01*
X172392000Y-115745200D02*
X172392000Y-116855200D01*
X172392000Y-116855200D02*
X154252000Y-116855200D01*
X175966800Y-103920936D02*
X175966800Y-105375064D01*
X174146800Y-103920936D02*
X174146800Y-105375064D01*
X203266664Y-100986000D02*
X201812536Y-100986000D01*
X203266664Y-99166000D02*
X201812536Y-99166000D01*
X177130664Y-99055600D02*
X175676536Y-99055600D01*
X177130664Y-97235600D02*
X175676536Y-97235600D01*
X123490400Y-104404136D02*
X123490400Y-105858264D01*
X121670400Y-104404136D02*
X121670400Y-105858264D01*
X149804800Y-103894936D02*
X149804800Y-105349064D01*
X147984800Y-103894936D02*
X147984800Y-105349064D01*
X178608400Y-103920936D02*
X178608400Y-105375064D01*
X176788400Y-103920936D02*
X176788400Y-105375064D01*
X202128800Y-104428936D02*
X202128800Y-105883064D01*
X200308800Y-104428936D02*
X200308800Y-105883064D01*
X126386000Y-104404136D02*
X126386000Y-105858264D01*
X124566000Y-104404136D02*
X124566000Y-105858264D01*
%LPC*%
D13*
X186182000Y-113030000D03*
X158292800Y-95859600D03*
D14*
X125552800Y-99974400D03*
X122452800Y-99974400D03*
D15*
X151664000Y-103073200D03*
X151664000Y-106173200D03*
D14*
X151664000Y-98094800D03*
X148564000Y-98094800D03*
D15*
X203911200Y-103606000D03*
X203911200Y-106706000D03*
D16*
X158822000Y-110345200D03*
X159822000Y-110345200D03*
X160822000Y-110345200D03*
X161822000Y-110345200D03*
X162822000Y-110345200D03*
X163822000Y-110345200D03*
X164822000Y-110345200D03*
X165822000Y-110345200D03*
X166822000Y-110345200D03*
X167822000Y-110345200D03*
D17*
X155832000Y-113145200D03*
X170812000Y-113145200D03*
D15*
X175056800Y-103098000D03*
X175056800Y-106198000D03*
D14*
X204089600Y-100076000D03*
X200989600Y-100076000D03*
X177953600Y-98145600D03*
X174853600Y-98145600D03*
D13*
X140360400Y-112826800D03*
D15*
X122580400Y-103581200D03*
X122580400Y-106681200D03*
D13*
X168300400Y-95859600D03*
D15*
X148894800Y-103072000D03*
X148894800Y-106172000D03*
X177698400Y-103098000D03*
X177698400Y-106198000D03*
X201218800Y-103606000D03*
X201218800Y-106706000D03*
X125476000Y-103581200D03*
X125476000Y-106681200D03*
D18*
X194704400Y-104597200D03*
D19*
X194704400Y-102057200D03*
X197504400Y-102057200D03*
X197504400Y-104597200D03*
D18*
X142386400Y-104597200D03*
D19*
X142386400Y-102057200D03*
X145186400Y-102057200D03*
X145186400Y-104597200D03*
D18*
X155436000Y-104597200D03*
D19*
X155436000Y-102057200D03*
X158236000Y-102057200D03*
X158236000Y-104597200D03*
D18*
X168548400Y-104597200D03*
D19*
X168548400Y-102057200D03*
X171348400Y-102057200D03*
X171348400Y-104597200D03*
D18*
X181604000Y-104597200D03*
D19*
X181604000Y-102057200D03*
X184404000Y-102057200D03*
X184404000Y-104597200D03*
D18*
X207810800Y-104597200D03*
D19*
X207810800Y-102057200D03*
X210610800Y-102057200D03*
X210610800Y-104597200D03*
D18*
X129280000Y-104597200D03*
D19*
X129280000Y-102057200D03*
X132080000Y-102057200D03*
X132080000Y-104597200D03*
D18*
X116224400Y-104597200D03*
D19*
X116224400Y-102057200D03*
X119024400Y-102057200D03*
X119024400Y-104597200D03*
%LPD*%
M02*
