G04 #@! TF.GenerationSoftware,KiCad,Pcbnew,7.0.5*
G04 #@! TF.CreationDate,2023-08-03T15:05:36+02:00*
G04 #@! TF.ProjectId,Siguelineas,53696775-656c-4696-9e65-61732e6b6963,rev?*
G04 #@! TF.SameCoordinates,Original*
G04 #@! TF.FileFunction,Copper,L2,Bot*
G04 #@! TF.FilePolarity,Positive*
%FSLAX46Y46*%
G04 Gerber Fmt 4.6, Leading zero omitted, Abs format (unit mm)*
G04 Created by KiCad (PCBNEW 7.0.5) date 2023-08-03 15:05:36*
%MOMM*%
%LPD*%
G01*
G04 APERTURE LIST*
G04 Aperture macros list*
%AMRoundRect*
0 Rectangle with rounded corners*
0 $1 Rounding radius*
0 $2 $3 $4 $5 $6 $7 $8 $9 X,Y pos of 4 corners*
0 Add a 4 corners polygon primitive as box body*
4,1,4,$2,$3,$4,$5,$6,$7,$8,$9,$2,$3,0*
0 Add four circle primitives for the rounded corners*
1,1,$1+$1,$2,$3*
1,1,$1+$1,$4,$5*
1,1,$1+$1,$6,$7*
1,1,$1+$1,$8,$9*
0 Add four rect primitives between the rounded corners*
20,1,$1+$1,$2,$3,$4,$5,0*
20,1,$1+$1,$4,$5,$6,$7,0*
20,1,$1+$1,$6,$7,$8,$9,0*
20,1,$1+$1,$8,$9,$2,$3,0*%
G04 Aperture macros list end*
G04 #@! TA.AperFunction,ComponentPad*
%ADD10R,2.000000X2.000000*%
G04 #@! TD*
G04 #@! TA.AperFunction,ComponentPad*
%ADD11C,2.000000*%
G04 #@! TD*
G04 #@! TA.AperFunction,ComponentPad*
%ADD12C,3.800000*%
G04 #@! TD*
G04 #@! TA.AperFunction,ComponentPad*
%ADD13R,1.700000X1.700000*%
G04 #@! TD*
G04 #@! TA.AperFunction,ComponentPad*
%ADD14O,1.700000X1.700000*%
G04 #@! TD*
G04 #@! TA.AperFunction,ComponentPad*
%ADD15C,5.600000*%
G04 #@! TD*
G04 #@! TA.AperFunction,ComponentPad*
%ADD16O,2.200000X3.500000*%
G04 #@! TD*
G04 #@! TA.AperFunction,ComponentPad*
%ADD17R,1.500000X2.500000*%
G04 #@! TD*
G04 #@! TA.AperFunction,ComponentPad*
%ADD18O,1.500000X2.500000*%
G04 #@! TD*
G04 #@! TA.AperFunction,ComponentPad*
%ADD19RoundRect,0.250000X-0.350000X-0.625000X0.350000X-0.625000X0.350000X0.625000X-0.350000X0.625000X0*%
G04 #@! TD*
G04 #@! TA.AperFunction,ComponentPad*
%ADD20O,1.200000X1.750000*%
G04 #@! TD*
G04 #@! TA.AperFunction,ComponentPad*
%ADD21O,2.500000X2.000000*%
G04 #@! TD*
G04 #@! TA.AperFunction,ComponentPad*
%ADD22R,3.800000X3.800000*%
G04 #@! TD*
G04 #@! TA.AperFunction,ViaPad*
%ADD23C,0.800000*%
G04 #@! TD*
G04 #@! TA.AperFunction,Conductor*
%ADD24C,0.250000*%
G04 #@! TD*
G04 #@! TA.AperFunction,Conductor*
%ADD25C,1.000000*%
G04 #@! TD*
G04 APERTURE END LIST*
D10*
X127430800Y-83173200D03*
D11*
X129970800Y-83173200D03*
X132510800Y-83173200D03*
X135050800Y-83173200D03*
X137590800Y-83173200D03*
X140130800Y-83173200D03*
X142670800Y-83173200D03*
X145210800Y-83173200D03*
X147750800Y-83173200D03*
X150290800Y-83173200D03*
X152830800Y-83173200D03*
X155370800Y-83173200D03*
X157910800Y-83173200D03*
X160450800Y-83173200D03*
X162990800Y-83173200D03*
X162990800Y-57773200D03*
X160450800Y-57773200D03*
X157910800Y-57773200D03*
X155370800Y-57773200D03*
X152830800Y-57773200D03*
X150290800Y-57773200D03*
X147750800Y-57773200D03*
X145210800Y-57773200D03*
X142670800Y-57773200D03*
X140130800Y-57773200D03*
X137590800Y-57773200D03*
X135050800Y-57773200D03*
X132510800Y-57773200D03*
X129970800Y-57773200D03*
X127430800Y-57773200D03*
D12*
X99237800Y-120116600D03*
D13*
X100101000Y-60101000D03*
D14*
X100101000Y-62641000D03*
X100101000Y-65181000D03*
X100101000Y-67721000D03*
X100101000Y-70261000D03*
X100101000Y-72801000D03*
X100101000Y-75341000D03*
X100101000Y-77881000D03*
X100101000Y-80421000D03*
X100101000Y-82961000D03*
D15*
X129540000Y-47701200D03*
X189230000Y-45974000D03*
D13*
X126542800Y-103022400D03*
D14*
X126542800Y-100482400D03*
X126542800Y-97942400D03*
X126542800Y-95402400D03*
X126542800Y-92862400D03*
X126542800Y-90322400D03*
D12*
X189661800Y-101879400D03*
X99212400Y-101879400D03*
X189687200Y-120116600D03*
D16*
X167386000Y-139674600D03*
X175586000Y-139674600D03*
D17*
X169486000Y-139674600D03*
D18*
X171486000Y-139674600D03*
X173486000Y-139674600D03*
D19*
X174294800Y-98044000D03*
D20*
X176294800Y-98044000D03*
D13*
X172974000Y-90932000D03*
D14*
X175514000Y-90932000D03*
X178054000Y-90932000D03*
X180594000Y-90932000D03*
X183134000Y-90932000D03*
X185674000Y-90932000D03*
X188214000Y-90932000D03*
X190754000Y-90932000D03*
D15*
X114300000Y-47752000D03*
X189230000Y-52832000D03*
D13*
X99542600Y-90297000D03*
D14*
X102082600Y-90297000D03*
D13*
X172999400Y-74396600D03*
D14*
X175539400Y-74396600D03*
X178079400Y-74396600D03*
X180619400Y-74396600D03*
X183159400Y-74396600D03*
X185699400Y-74396600D03*
X188239400Y-74396600D03*
X190779400Y-74396600D03*
D15*
X99314000Y-45974000D03*
X159512000Y-47701200D03*
D19*
X114128800Y-96367600D03*
D20*
X116128800Y-96367600D03*
D13*
X164617400Y-90830400D03*
D14*
X164617400Y-93370400D03*
D13*
X140411200Y-140335000D03*
D14*
X142951200Y-140335000D03*
X145491200Y-140335000D03*
X148031200Y-140335000D03*
D11*
X173330800Y-60818200D03*
X179830800Y-60818200D03*
X173330800Y-65318200D03*
X179830800Y-65318200D03*
X190930600Y-65343600D03*
X184430600Y-65343600D03*
X190930600Y-60843600D03*
X184430600Y-60843600D03*
D15*
X174498000Y-47752000D03*
D21*
X96469200Y-130151600D03*
X96469200Y-139291600D03*
X111709200Y-130151600D03*
X111709200Y-139291600D03*
D12*
X190042800Y-136550400D03*
D22*
X190042800Y-131550400D03*
D15*
X99314000Y-52832000D03*
D23*
X105613200Y-137261600D03*
X129489200Y-136398000D03*
X137820400Y-132892800D03*
X117246400Y-92506800D03*
X151130000Y-116484400D03*
X126136400Y-114757200D03*
X124764800Y-115570000D03*
X116281200Y-85902800D03*
X116281200Y-82804000D03*
X109423200Y-86004400D03*
X114198400Y-82245200D03*
X106934000Y-74218800D03*
X155498800Y-73304400D03*
X145618200Y-127533400D03*
X160350200Y-78282800D03*
X148005800Y-126492000D03*
X153009600Y-71819100D03*
X144068800Y-72644000D03*
X156337000Y-86487000D03*
X159435800Y-86410800D03*
X153670000Y-60401200D03*
X136702800Y-66852800D03*
X176072800Y-69062600D03*
X169418000Y-55880000D03*
D24*
X143370200Y-85013800D02*
X145210800Y-83173200D01*
X128397000Y-85013800D02*
X143370200Y-85013800D01*
X126542800Y-86868000D02*
X128397000Y-85013800D01*
X126542800Y-90322400D02*
X126542800Y-86868000D01*
D25*
X183642000Y-136550400D02*
X190042800Y-136550400D01*
X165103117Y-118011517D02*
X183642000Y-136550400D01*
D24*
X171486000Y-138008800D02*
X166370000Y-132892800D01*
X166370000Y-132892800D02*
X137820400Y-132892800D01*
X171486000Y-139674600D02*
X171486000Y-138008800D01*
X96623600Y-130151600D02*
X101041200Y-134569200D01*
X169486000Y-138174600D02*
X169486000Y-139674600D01*
X165880600Y-134569200D02*
X169486000Y-138174600D01*
X101041200Y-134569200D02*
X165880600Y-134569200D01*
X96469200Y-130151600D02*
X96623600Y-130151600D01*
D25*
X165103117Y-118011517D02*
X168046400Y-115068235D01*
X158956317Y-124158317D02*
X165103117Y-118011517D01*
X116128800Y-104749600D02*
X116128800Y-96367600D01*
X126136400Y-114757200D02*
X116128800Y-104749600D01*
X114128800Y-104934000D02*
X114128800Y-96367600D01*
X124764800Y-115570000D02*
X114128800Y-104934000D01*
D24*
X116281200Y-82804000D02*
X116281200Y-85902800D01*
X110439200Y-86004400D02*
X109423200Y-86004400D01*
X114198400Y-82245200D02*
X110439200Y-86004400D01*
D25*
X168046400Y-115068235D02*
X168046400Y-93548200D01*
X168046400Y-93548200D02*
X168224200Y-93370400D01*
D24*
X140411200Y-139649200D02*
X140411200Y-140335000D01*
D25*
X158956317Y-124158317D02*
X153473035Y-129641600D01*
X168224200Y-93370400D02*
X170657828Y-93370400D01*
X112219200Y-129641600D02*
X111709200Y-130151600D01*
X170657828Y-93370400D02*
X172958914Y-91069314D01*
X164617400Y-93370400D02*
X168224200Y-93370400D01*
X153473035Y-129641600D02*
X112219200Y-129641600D01*
D24*
X101112400Y-71272400D02*
X100101000Y-70261000D01*
X104749600Y-78765400D02*
X103911400Y-77927200D01*
X127430800Y-83173200D02*
X123023000Y-78765400D01*
X123023000Y-78765400D02*
X104749600Y-78765400D01*
X103911400Y-77927200D02*
X103911400Y-71856600D01*
X103327200Y-71272400D02*
X101112400Y-71272400D01*
X103911400Y-71856600D02*
X103327200Y-71272400D01*
X152730200Y-67691000D02*
X102611000Y-67691000D01*
X155498800Y-73304400D02*
X155498800Y-73282995D01*
X160450800Y-78383400D02*
X160450800Y-83173200D01*
X152730200Y-67894200D02*
X152730200Y-67691000D01*
X155498800Y-73282995D02*
X154736800Y-72520995D01*
X161493200Y-120065800D02*
X161493200Y-84215600D01*
X160350200Y-78282800D02*
X160450800Y-78383400D01*
X154736800Y-72520995D02*
X154736800Y-69900800D01*
X154025600Y-127533400D02*
X161493200Y-120065800D01*
X154736800Y-69900800D02*
X152730200Y-67894200D01*
X145618200Y-127533400D02*
X154025600Y-127533400D01*
X161493200Y-84215600D02*
X160450800Y-83173200D01*
X102611000Y-67691000D02*
X100101000Y-65181000D01*
X153238200Y-126492000D02*
X160477200Y-119253000D01*
X149377400Y-71819100D02*
X146519300Y-68961000D01*
X146519300Y-68961000D02*
X101341000Y-68961000D01*
X160477200Y-86385400D02*
X159588200Y-85496400D01*
X153009600Y-71819100D02*
X149377400Y-71819100D01*
X159588200Y-85496400D02*
X155154000Y-85496400D01*
X101341000Y-68961000D02*
X100101000Y-67721000D01*
X148005800Y-126492000D02*
X153238200Y-126492000D01*
X160477200Y-119253000D02*
X160477200Y-86385400D01*
X155154000Y-85496400D02*
X152830800Y-83173200D01*
X172984314Y-74533914D02*
X143690086Y-74533914D01*
X143690086Y-74533914D02*
X135050800Y-83173200D01*
X178064314Y-74533914D02*
X176398228Y-76200000D01*
X157632400Y-76200000D02*
X155370800Y-78461600D01*
X176398228Y-76200000D02*
X157632400Y-76200000D01*
X155370800Y-78461600D02*
X155370800Y-83173200D01*
X155370800Y-64337200D02*
X155370800Y-57773200D01*
X176504600Y-67894200D02*
X183144314Y-74533914D01*
X176504600Y-67894200D02*
X158927800Y-67894200D01*
X158927800Y-67894200D02*
X155370800Y-64337200D01*
X169367200Y-57251600D02*
X167767000Y-55651400D01*
X172262800Y-67284600D02*
X169367200Y-64389000D01*
X154952600Y-55651400D02*
X152830800Y-57773200D01*
X185684314Y-74533914D02*
X178435000Y-67284600D01*
X178435000Y-67284600D02*
X172262800Y-67284600D01*
X167767000Y-55651400D02*
X154952600Y-55651400D01*
X169367200Y-64389000D02*
X169367200Y-57251600D01*
X144068800Y-72644000D02*
X143040000Y-72644000D01*
X143040000Y-72644000D02*
X132510800Y-83173200D01*
X128574800Y-87528400D02*
X129667000Y-86436200D01*
X128574800Y-95910400D02*
X128574800Y-87528400D01*
X129667000Y-86436200D02*
X147027800Y-86436200D01*
X126542800Y-97942400D02*
X128574800Y-95910400D01*
X147027800Y-86436200D02*
X150290800Y-83173200D01*
X156337000Y-86487000D02*
X159359600Y-86487000D01*
X159359600Y-86487000D02*
X159435800Y-86410800D01*
X127921600Y-86657600D02*
X127921600Y-91483600D01*
X127921600Y-91483600D02*
X126542800Y-92862400D01*
X147750800Y-83173200D02*
X145275200Y-85648800D01*
X145275200Y-85648800D02*
X128930400Y-85648800D01*
X128930400Y-85648800D02*
X127921600Y-86657600D01*
X147218400Y-66852800D02*
X153670000Y-60401200D01*
X136702800Y-66852800D02*
X147218400Y-66852800D01*
X171399200Y-63386600D02*
X173330800Y-65318200D01*
X169418000Y-55880000D02*
X171399200Y-57861200D01*
X180604314Y-74533914D02*
X176072800Y-70002400D01*
X171399200Y-57861200D02*
X171399200Y-63386600D01*
X176072800Y-70002400D02*
X176072800Y-69062600D01*
G04 #@! TA.AperFunction,Conductor*
G36*
X95201203Y-131254032D02*
G01*
X95203963Y-131256497D01*
X95230261Y-131280706D01*
X95294417Y-131339766D01*
X95502593Y-131475773D01*
X95730318Y-131575663D01*
X95834530Y-131602053D01*
X95971379Y-131636708D01*
X95971381Y-131636708D01*
X95971386Y-131636709D01*
X96124789Y-131649419D01*
X96157133Y-131652100D01*
X96157137Y-131652100D01*
X96781263Y-131652100D01*
X96781267Y-131652100D01*
X96843877Y-131646911D01*
X96967013Y-131636709D01*
X96967016Y-131636708D01*
X96967021Y-131636708D01*
X97103867Y-131602053D01*
X97173684Y-131604677D01*
X97221987Y-131634577D01*
X100540397Y-134952988D01*
X100550222Y-134965251D01*
X100550443Y-134965069D01*
X100555411Y-134971074D01*
X100605132Y-135017766D01*
X100606532Y-135019123D01*
X100626723Y-135039315D01*
X100626727Y-135039318D01*
X100626729Y-135039320D01*
X100632211Y-135043573D01*
X100636643Y-135047357D01*
X100670618Y-135079262D01*
X100688176Y-135088914D01*
X100704433Y-135099593D01*
X100720264Y-135111873D01*
X100739937Y-135120386D01*
X100763033Y-135130382D01*
X100768277Y-135132950D01*
X100809108Y-135155397D01*
X100821723Y-135158635D01*
X100828505Y-135160377D01*
X100846919Y-135166681D01*
X100865304Y-135174638D01*
X100911357Y-135181932D01*
X100917026Y-135183106D01*
X100962181Y-135194700D01*
X100982216Y-135194700D01*
X101001613Y-135196226D01*
X101021396Y-135199360D01*
X101067783Y-135194975D01*
X101073622Y-135194700D01*
X165570148Y-135194700D01*
X165637187Y-135214385D01*
X165657829Y-135231019D01*
X167647583Y-137220773D01*
X167681068Y-137282096D01*
X167676084Y-137351788D01*
X167634212Y-137407721D01*
X167568748Y-137432138D01*
X167550175Y-137432072D01*
X167386000Y-137419151D01*
X167134848Y-137438917D01*
X166889889Y-137497726D01*
X166657140Y-137594133D01*
X166442346Y-137725760D01*
X166442343Y-137725761D01*
X166250776Y-137889376D01*
X166087161Y-138080943D01*
X166087160Y-138080946D01*
X165955533Y-138295740D01*
X165859126Y-138528489D01*
X165800317Y-138773448D01*
X165785500Y-138961712D01*
X165785500Y-140387487D01*
X165800317Y-140575751D01*
X165859126Y-140820710D01*
X165955533Y-141053459D01*
X166087160Y-141268253D01*
X166087161Y-141268256D01*
X166110455Y-141295529D01*
X166250776Y-141459824D01*
X166313869Y-141513711D01*
X166352062Y-141572217D01*
X166352561Y-141642084D01*
X166315207Y-141701131D01*
X166251860Y-141730609D01*
X166233337Y-141732000D01*
X148783881Y-141732000D01*
X148716842Y-141712315D01*
X148671087Y-141659511D01*
X148661143Y-141590353D01*
X148690168Y-141526797D01*
X148712757Y-141506425D01*
X148779303Y-141459829D01*
X148902601Y-141373495D01*
X149069695Y-141206401D01*
X149205235Y-141012830D01*
X149305103Y-140798663D01*
X149366263Y-140570408D01*
X149386859Y-140335000D01*
X149366263Y-140099592D01*
X149305103Y-139871337D01*
X149304902Y-139870906D01*
X154928028Y-139870906D01*
X154937813Y-140101262D01*
X154937814Y-140101270D01*
X154986390Y-140326662D01*
X154986390Y-140326663D01*
X155050844Y-140487064D01*
X155072359Y-140540606D01*
X155103638Y-140591406D01*
X155193248Y-140736942D01*
X155345580Y-140910025D01*
X155345584Y-140910029D01*
X155524965Y-141054869D01*
X155524966Y-141054870D01*
X155524969Y-141054871D01*
X155524972Y-141054874D01*
X155681951Y-141142567D01*
X155724211Y-141166175D01*
X155726263Y-141167321D01*
X155943662Y-141244133D01*
X156070472Y-141265877D01*
X156170906Y-141283099D01*
X156170915Y-141283100D01*
X156343734Y-141283100D01*
X156343735Y-141283100D01*
X156343736Y-141283099D01*
X156343753Y-141283099D01*
X156515934Y-141268444D01*
X156515937Y-141268443D01*
X156515939Y-141268443D01*
X156739069Y-141210345D01*
X156889011Y-141142567D01*
X156949165Y-141115376D01*
X156949167Y-141115375D01*
X156949167Y-141115374D01*
X156949171Y-141115373D01*
X157140200Y-140986259D01*
X157306662Y-140826719D01*
X157443766Y-140641342D01*
X157547570Y-140435460D01*
X157615086Y-140214997D01*
X157644372Y-139986294D01*
X157634586Y-139755932D01*
X157586010Y-139530538D01*
X157500041Y-139316594D01*
X157379151Y-139120257D01*
X157226820Y-138947175D01*
X157226819Y-138947174D01*
X157226815Y-138947170D01*
X157047434Y-138802330D01*
X157047433Y-138802329D01*
X157030058Y-138792623D01*
X156912113Y-138726735D01*
X156846138Y-138689879D01*
X156628741Y-138613068D01*
X156628740Y-138613067D01*
X156628738Y-138613067D01*
X156628734Y-138613066D01*
X156628733Y-138613066D01*
X156401493Y-138574100D01*
X156401485Y-138574100D01*
X156228665Y-138574100D01*
X156228646Y-138574100D01*
X156056465Y-138588755D01*
X155833331Y-138646854D01*
X155623234Y-138741823D01*
X155623232Y-138741824D01*
X155432199Y-138870942D01*
X155265740Y-139030478D01*
X155128634Y-139215857D01*
X155024830Y-139421738D01*
X154957313Y-139642206D01*
X154928028Y-139870906D01*
X149304902Y-139870906D01*
X149205235Y-139657171D01*
X149199625Y-139649158D01*
X149069694Y-139463597D01*
X148902602Y-139296506D01*
X148902595Y-139296501D01*
X148709034Y-139160967D01*
X148709030Y-139160965D01*
X148637927Y-139127809D01*
X148494863Y-139061097D01*
X148494859Y-139061096D01*
X148494855Y-139061094D01*
X148266613Y-138999938D01*
X148266603Y-138999936D01*
X148031201Y-138979341D01*
X148031199Y-138979341D01*
X147795796Y-138999936D01*
X147795786Y-138999938D01*
X147567544Y-139061094D01*
X147567535Y-139061098D01*
X147353371Y-139160964D01*
X147353369Y-139160965D01*
X147159797Y-139296505D01*
X146992705Y-139463597D01*
X146862775Y-139649158D01*
X146808198Y-139692783D01*
X146738700Y-139699977D01*
X146676345Y-139668454D01*
X146659625Y-139649158D01*
X146529694Y-139463597D01*
X146362602Y-139296506D01*
X146362595Y-139296501D01*
X146169034Y-139160967D01*
X146169030Y-139160965D01*
X146097927Y-139127809D01*
X145954863Y-139061097D01*
X145954859Y-139061096D01*
X145954855Y-139061094D01*
X145726613Y-138999938D01*
X145726603Y-138999936D01*
X145491201Y-138979341D01*
X145491199Y-138979341D01*
X145255796Y-138999936D01*
X145255786Y-138999938D01*
X145027544Y-139061094D01*
X145027535Y-139061098D01*
X144813371Y-139160964D01*
X144813369Y-139160965D01*
X144619797Y-139296505D01*
X144452705Y-139463597D01*
X144322775Y-139649158D01*
X144268198Y-139692783D01*
X144198700Y-139699977D01*
X144136345Y-139668454D01*
X144119625Y-139649158D01*
X143989694Y-139463597D01*
X143822602Y-139296506D01*
X143822595Y-139296501D01*
X143629034Y-139160967D01*
X143629030Y-139160965D01*
X143557927Y-139127809D01*
X143414863Y-139061097D01*
X143414859Y-139061096D01*
X143414855Y-139061094D01*
X143186613Y-138999938D01*
X143186603Y-138999936D01*
X142951201Y-138979341D01*
X142951199Y-138979341D01*
X142715796Y-138999936D01*
X142715786Y-138999938D01*
X142487544Y-139061094D01*
X142487535Y-139061098D01*
X142273371Y-139160964D01*
X142273369Y-139160965D01*
X142079800Y-139296503D01*
X141957484Y-139418819D01*
X141896161Y-139452303D01*
X141826469Y-139447319D01*
X141770536Y-139405447D01*
X141753621Y-139374470D01*
X141704554Y-139242913D01*
X141704550Y-139242906D01*
X141618390Y-139127812D01*
X141618387Y-139127809D01*
X141503293Y-139041649D01*
X141503286Y-139041645D01*
X141368579Y-138991403D01*
X141368572Y-138991401D01*
X141309044Y-138985000D01*
X140661200Y-138985000D01*
X140661200Y-139899498D01*
X140553515Y-139850320D01*
X140446963Y-139835000D01*
X140375437Y-139835000D01*
X140268885Y-139850320D01*
X140161200Y-139899498D01*
X140161200Y-138985000D01*
X139513355Y-138985000D01*
X139453827Y-138991401D01*
X139453820Y-138991403D01*
X139319113Y-139041645D01*
X139319106Y-139041649D01*
X139204012Y-139127809D01*
X139204009Y-139127812D01*
X139117849Y-139242906D01*
X139117845Y-139242913D01*
X139067603Y-139377620D01*
X139067601Y-139377627D01*
X139061200Y-139437155D01*
X139061200Y-140085000D01*
X139977514Y-140085000D01*
X139951707Y-140125156D01*
X139911200Y-140263111D01*
X139911200Y-140406889D01*
X139951707Y-140544844D01*
X139977514Y-140585000D01*
X139061200Y-140585000D01*
X139061200Y-141232844D01*
X139067601Y-141292372D01*
X139067603Y-141292379D01*
X139117845Y-141427086D01*
X139117846Y-141427088D01*
X139197648Y-141533689D01*
X139222065Y-141599153D01*
X139207214Y-141667426D01*
X139157809Y-141716832D01*
X139098381Y-141732000D01*
X95120000Y-141732000D01*
X95052961Y-141712315D01*
X95007206Y-141659511D01*
X94996000Y-141608000D01*
X94996000Y-140487064D01*
X95015685Y-140420025D01*
X95068489Y-140374270D01*
X95137647Y-140364326D01*
X95201203Y-140393351D01*
X95203984Y-140395835D01*
X95294725Y-140479370D01*
X95502832Y-140615332D01*
X95730482Y-140715187D01*
X95971461Y-140776212D01*
X95971469Y-140776214D01*
X96157145Y-140791599D01*
X96157161Y-140791600D01*
X96219200Y-140791600D01*
X96219200Y-139579820D01*
X96285357Y-139631313D01*
X96405622Y-139672600D01*
X96500769Y-139672600D01*
X96594621Y-139656939D01*
X96706451Y-139596420D01*
X96719200Y-139582570D01*
X96719200Y-140791600D01*
X96781239Y-140791600D01*
X96781254Y-140791599D01*
X96966930Y-140776214D01*
X96966938Y-140776212D01*
X97207917Y-140715187D01*
X97435567Y-140615332D01*
X97643678Y-140479367D01*
X97826564Y-140311007D01*
X97826573Y-140310997D01*
X97979251Y-140114837D01*
X97979257Y-140114828D01*
X98097564Y-139896214D01*
X98097569Y-139896203D01*
X98178283Y-139661092D01*
X98198223Y-139541600D01*
X96756917Y-139541600D01*
X96792571Y-139502869D01*
X96843648Y-139386423D01*
X96854149Y-139259702D01*
X96822934Y-139136438D01*
X96760973Y-139041600D01*
X98198222Y-139041600D01*
X98198223Y-139041599D01*
X109980176Y-139041599D01*
X109980178Y-139041600D01*
X111421483Y-139041600D01*
X111385829Y-139080331D01*
X111334752Y-139196777D01*
X111324251Y-139323498D01*
X111355466Y-139446762D01*
X111417427Y-139541600D01*
X109980177Y-139541600D01*
X110000116Y-139661092D01*
X110080830Y-139896203D01*
X110080835Y-139896214D01*
X110199142Y-140114828D01*
X110199148Y-140114837D01*
X110351826Y-140310997D01*
X110351835Y-140311007D01*
X110534722Y-140479367D01*
X110534721Y-140479367D01*
X110742832Y-140615332D01*
X110970482Y-140715187D01*
X111211461Y-140776212D01*
X111211469Y-140776214D01*
X111397145Y-140791599D01*
X111397161Y-140791600D01*
X111459199Y-140791600D01*
X111459199Y-139579820D01*
X111525357Y-139631313D01*
X111645622Y-139672600D01*
X111740769Y-139672600D01*
X111834621Y-139656939D01*
X111946451Y-139596420D01*
X111959200Y-139582570D01*
X111959200Y-140791600D01*
X112021239Y-140791600D01*
X112021254Y-140791599D01*
X112206930Y-140776214D01*
X112206938Y-140776212D01*
X112447917Y-140715187D01*
X112675567Y-140615332D01*
X112883678Y-140479367D01*
X113066564Y-140311007D01*
X113066573Y-140310997D01*
X113219251Y-140114837D01*
X113219257Y-140114828D01*
X113323769Y-139921706D01*
X131102828Y-139921706D01*
X131112613Y-140152062D01*
X131112614Y-140152070D01*
X131161190Y-140377462D01*
X131161190Y-140377463D01*
X131247157Y-140591402D01*
X131368048Y-140787742D01*
X131520380Y-140960825D01*
X131520384Y-140960829D01*
X131699765Y-141105669D01*
X131699766Y-141105670D01*
X131699769Y-141105671D01*
X131699772Y-141105674D01*
X131810126Y-141167321D01*
X131893374Y-141213826D01*
X131901063Y-141218121D01*
X132118462Y-141294933D01*
X132245272Y-141316677D01*
X132345706Y-141333899D01*
X132345715Y-141333900D01*
X132518534Y-141333900D01*
X132518535Y-141333900D01*
X132518536Y-141333899D01*
X132518553Y-141333899D01*
X132690734Y-141319244D01*
X132690737Y-141319243D01*
X132690739Y-141319243D01*
X132913869Y-141261145D01*
X133057661Y-141196147D01*
X133123965Y-141166176D01*
X133123967Y-141166175D01*
X133123967Y-141166174D01*
X133123971Y-141166173D01*
X133315000Y-141037059D01*
X133481462Y-140877519D01*
X133618566Y-140692142D01*
X133722370Y-140486260D01*
X133789886Y-140265797D01*
X133819172Y-140037094D01*
X133809386Y-139806732D01*
X133760810Y-139581338D01*
X133674841Y-139367394D01*
X133553951Y-139171057D01*
X133401620Y-138997975D01*
X133401619Y-138997974D01*
X133401615Y-138997970D01*
X133222234Y-138853130D01*
X133222233Y-138853129D01*
X133020938Y-138740679D01*
X132803541Y-138663868D01*
X132803540Y-138663867D01*
X132803538Y-138663867D01*
X132803534Y-138663866D01*
X132803533Y-138663866D01*
X132576293Y-138624900D01*
X132576285Y-138624900D01*
X132403465Y-138624900D01*
X132403446Y-138624900D01*
X132231265Y-138639555D01*
X132008131Y-138697654D01*
X131798034Y-138792623D01*
X131798032Y-138792624D01*
X131682159Y-138870942D01*
X131619871Y-138913042D01*
X131606999Y-138921742D01*
X131440540Y-139081278D01*
X131303434Y-139266657D01*
X131199630Y-139472538D01*
X131132113Y-139693006D01*
X131102828Y-139921706D01*
X113323769Y-139921706D01*
X113337564Y-139896214D01*
X113337569Y-139896203D01*
X113418283Y-139661092D01*
X113438223Y-139541600D01*
X111996917Y-139541600D01*
X112032571Y-139502869D01*
X112083648Y-139386423D01*
X112094149Y-139259702D01*
X112062934Y-139136438D01*
X112000973Y-139041600D01*
X113438222Y-139041600D01*
X113438223Y-139041599D01*
X113418283Y-138922107D01*
X113337569Y-138686996D01*
X113337564Y-138686985D01*
X113219257Y-138468371D01*
X113219251Y-138468362D01*
X113066573Y-138272202D01*
X113066564Y-138272192D01*
X112883677Y-138103832D01*
X112883678Y-138103832D01*
X112675567Y-137967867D01*
X112447917Y-137868012D01*
X112206938Y-137806987D01*
X112206930Y-137806985D01*
X112021254Y-137791600D01*
X111959200Y-137791600D01*
X111959200Y-139003379D01*
X111893043Y-138951887D01*
X111772778Y-138910600D01*
X111677631Y-138910600D01*
X111583779Y-138926261D01*
X111471949Y-138986780D01*
X111459199Y-139000630D01*
X111459200Y-137791600D01*
X111397145Y-137791600D01*
X111211469Y-137806985D01*
X111211461Y-137806987D01*
X110970482Y-137868012D01*
X110742832Y-137967867D01*
X110534721Y-138103832D01*
X110351835Y-138272192D01*
X110351826Y-138272202D01*
X110199148Y-138468362D01*
X110199142Y-138468371D01*
X110080835Y-138686985D01*
X110080830Y-138686996D01*
X110000116Y-138922107D01*
X109980176Y-139041599D01*
X98198223Y-139041599D01*
X98178283Y-138922107D01*
X98097569Y-138686996D01*
X98097564Y-138686985D01*
X97979257Y-138468371D01*
X97979251Y-138468362D01*
X97826573Y-138272202D01*
X97826564Y-138272192D01*
X97643677Y-138103832D01*
X97643678Y-138103832D01*
X97435567Y-137967867D01*
X97207917Y-137868012D01*
X96966938Y-137806987D01*
X96966930Y-137806985D01*
X96781254Y-137791600D01*
X96719200Y-137791600D01*
X96719200Y-139003379D01*
X96653043Y-138951887D01*
X96532778Y-138910600D01*
X96437631Y-138910600D01*
X96343779Y-138926261D01*
X96231949Y-138986780D01*
X96219200Y-139000629D01*
X96219200Y-137791600D01*
X96157145Y-137791600D01*
X95971469Y-137806985D01*
X95971461Y-137806987D01*
X95730482Y-137868012D01*
X95502832Y-137967867D01*
X95294721Y-138103832D01*
X95203983Y-138187364D01*
X95141329Y-138218287D01*
X95071903Y-138210427D01*
X95017747Y-138166280D01*
X94996056Y-138099863D01*
X94996000Y-138096135D01*
X94996000Y-131347745D01*
X95015685Y-131280706D01*
X95068489Y-131234951D01*
X95137647Y-131225007D01*
X95201203Y-131254032D01*
G37*
G04 #@! TD.AperFunction*
G04 #@! TA.AperFunction,Conductor*
G36*
X131194234Y-84043082D02*
G01*
X131205661Y-84041897D01*
X131274373Y-84054560D01*
X131318892Y-84094394D01*
X131319483Y-84093935D01*
X131322018Y-84097192D01*
X131322256Y-84097405D01*
X131322631Y-84097980D01*
X131398428Y-84180317D01*
X131429350Y-84242972D01*
X131421490Y-84312398D01*
X131377343Y-84366553D01*
X131310925Y-84388244D01*
X131307198Y-84388300D01*
X130883709Y-84388300D01*
X130816670Y-84368615D01*
X130796028Y-84351981D01*
X130112165Y-83668118D01*
X130115961Y-83667573D01*
X130249362Y-83606651D01*
X130360195Y-83510613D01*
X130439482Y-83387240D01*
X130461932Y-83310780D01*
X131194234Y-84043082D01*
G37*
G04 #@! TD.AperFunction*
G04 #@! TA.AperFunction,Conductor*
G36*
X146275887Y-69606185D02*
G01*
X146296529Y-69622819D01*
X148876594Y-72202884D01*
X148886419Y-72215148D01*
X148886640Y-72214966D01*
X148891610Y-72220974D01*
X148941349Y-72267682D01*
X148942716Y-72269006D01*
X148962929Y-72289218D01*
X148962929Y-72289219D01*
X148968404Y-72293466D01*
X148972846Y-72297260D01*
X149006815Y-72329160D01*
X149006817Y-72329161D01*
X149006818Y-72329162D01*
X149024376Y-72338814D01*
X149040637Y-72349496D01*
X149056464Y-72361773D01*
X149099223Y-72380276D01*
X149104473Y-72382848D01*
X149142767Y-72403900D01*
X149145308Y-72405297D01*
X149145312Y-72405298D01*
X149164711Y-72410279D01*
X149183122Y-72416583D01*
X149201497Y-72424535D01*
X149201500Y-72424535D01*
X149201505Y-72424538D01*
X149247549Y-72431829D01*
X149253232Y-72433006D01*
X149298381Y-72444600D01*
X149318416Y-72444600D01*
X149337813Y-72446126D01*
X149357596Y-72449260D01*
X149403983Y-72444875D01*
X149409822Y-72444600D01*
X152305852Y-72444600D01*
X152372891Y-72464285D01*
X152398000Y-72485626D01*
X152403726Y-72491985D01*
X152403730Y-72491989D01*
X152556865Y-72603248D01*
X152556870Y-72603251D01*
X152729792Y-72680242D01*
X152729797Y-72680244D01*
X152914954Y-72719600D01*
X152914955Y-72719600D01*
X153104244Y-72719600D01*
X153104246Y-72719600D01*
X153289403Y-72680244D01*
X153462330Y-72603251D01*
X153615471Y-72491988D01*
X153742133Y-72351316D01*
X153836779Y-72187384D01*
X153869368Y-72087083D01*
X153908806Y-72029408D01*
X153973165Y-72002209D01*
X154042011Y-72014124D01*
X154093487Y-72061368D01*
X154111300Y-72125401D01*
X154111300Y-72438250D01*
X154109575Y-72453867D01*
X154109861Y-72453894D01*
X154109126Y-72461661D01*
X154111269Y-72529841D01*
X154111300Y-72531788D01*
X154111300Y-72560338D01*
X154111301Y-72560355D01*
X154112168Y-72567226D01*
X154112626Y-72573045D01*
X154114090Y-72619619D01*
X154114091Y-72619622D01*
X154119680Y-72638862D01*
X154123624Y-72657906D01*
X154126136Y-72677787D01*
X154143290Y-72721114D01*
X154145182Y-72726642D01*
X154158181Y-72771383D01*
X154168380Y-72788629D01*
X154176938Y-72806098D01*
X154184314Y-72824727D01*
X154211698Y-72862418D01*
X154214906Y-72867302D01*
X154238627Y-72907411D01*
X154238633Y-72907419D01*
X154252790Y-72921575D01*
X154265428Y-72936371D01*
X154277205Y-72952581D01*
X154277206Y-72952582D01*
X154313109Y-72982283D01*
X154317420Y-72986205D01*
X154447355Y-73116140D01*
X154557324Y-73226109D01*
X154590809Y-73287432D01*
X154592964Y-73300828D01*
X154599025Y-73358491D01*
X154613126Y-73492656D01*
X154613127Y-73492659D01*
X154671618Y-73672677D01*
X154671621Y-73672684D01*
X154698374Y-73719022D01*
X154700333Y-73722414D01*
X154716806Y-73790314D01*
X154693953Y-73856341D01*
X154639032Y-73899532D01*
X154592946Y-73908414D01*
X143772823Y-73908414D01*
X143757206Y-73906690D01*
X143757179Y-73906976D01*
X143749417Y-73906241D01*
X143681257Y-73908383D01*
X143679310Y-73908414D01*
X143650736Y-73908414D01*
X143650015Y-73908504D01*
X143643843Y-73909283D01*
X143638031Y-73909740D01*
X143591458Y-73911204D01*
X143591455Y-73911205D01*
X143572212Y-73916795D01*
X143553169Y-73920739D01*
X143533290Y-73923250D01*
X143533289Y-73923251D01*
X143489964Y-73940404D01*
X143484438Y-73942296D01*
X143439694Y-73955297D01*
X143439690Y-73955299D01*
X143422451Y-73965494D01*
X143404984Y-73974051D01*
X143386355Y-73981426D01*
X143386353Y-73981427D01*
X143348650Y-74008820D01*
X143343768Y-74012026D01*
X143303666Y-74035742D01*
X143289494Y-74049914D01*
X143274709Y-74062542D01*
X143258498Y-74074321D01*
X143228795Y-74110224D01*
X143224863Y-74114545D01*
X135628028Y-81711379D01*
X135566705Y-81744864D01*
X135500084Y-81740979D01*
X135420416Y-81713629D01*
X135173434Y-81672416D01*
X135110548Y-81641966D01*
X135074109Y-81582351D01*
X135075684Y-81512499D01*
X135106160Y-81462428D01*
X143262771Y-73305819D01*
X143324095Y-73272334D01*
X143350453Y-73269500D01*
X143365052Y-73269500D01*
X143432091Y-73289185D01*
X143457200Y-73310526D01*
X143462926Y-73316885D01*
X143462930Y-73316889D01*
X143616065Y-73428148D01*
X143616070Y-73428151D01*
X143788992Y-73505142D01*
X143788997Y-73505144D01*
X143974154Y-73544500D01*
X143974155Y-73544500D01*
X144163444Y-73544500D01*
X144163446Y-73544500D01*
X144348603Y-73505144D01*
X144521530Y-73428151D01*
X144674671Y-73316888D01*
X144801333Y-73176216D01*
X144895979Y-73012284D01*
X144954474Y-72832256D01*
X144974260Y-72644000D01*
X144954474Y-72455744D01*
X144895979Y-72275716D01*
X144801333Y-72111784D01*
X144674671Y-71971112D01*
X144674670Y-71971111D01*
X144521534Y-71859851D01*
X144521529Y-71859848D01*
X144348607Y-71782857D01*
X144348602Y-71782855D01*
X144187247Y-71748559D01*
X144163446Y-71743500D01*
X143974154Y-71743500D01*
X143950353Y-71748559D01*
X143788997Y-71782855D01*
X143788992Y-71782857D01*
X143616070Y-71859848D01*
X143616065Y-71859851D01*
X143462930Y-71971110D01*
X143462926Y-71971114D01*
X143457200Y-71977474D01*
X143397713Y-72014121D01*
X143365052Y-72018500D01*
X143122737Y-72018500D01*
X143107120Y-72016776D01*
X143107093Y-72017062D01*
X143099331Y-72016327D01*
X143031171Y-72018469D01*
X143029224Y-72018500D01*
X143000650Y-72018500D01*
X142999929Y-72018590D01*
X142993757Y-72019369D01*
X142987945Y-72019826D01*
X142941372Y-72021290D01*
X142941369Y-72021291D01*
X142922126Y-72026881D01*
X142903083Y-72030825D01*
X142883204Y-72033336D01*
X142883203Y-72033337D01*
X142839878Y-72050490D01*
X142834352Y-72052382D01*
X142789608Y-72065383D01*
X142789604Y-72065385D01*
X142772365Y-72075580D01*
X142754898Y-72084137D01*
X142736269Y-72091512D01*
X142736267Y-72091513D01*
X142698564Y-72118906D01*
X142693682Y-72122112D01*
X142653580Y-72145828D01*
X142639408Y-72160000D01*
X142624623Y-72172628D01*
X142608412Y-72184407D01*
X142578709Y-72220310D01*
X142574777Y-72224631D01*
X133088028Y-81711379D01*
X133026705Y-81744864D01*
X132960084Y-81740979D01*
X132880416Y-81713629D01*
X132635135Y-81672700D01*
X132386465Y-81672700D01*
X132141183Y-81713629D01*
X131905997Y-81794369D01*
X131905988Y-81794372D01*
X131687293Y-81912724D01*
X131491057Y-82065461D01*
X131322637Y-82248413D01*
X131322629Y-82248424D01*
X131322255Y-82248997D01*
X131322042Y-82249178D01*
X131319490Y-82252458D01*
X131318814Y-82251932D01*
X131269104Y-82294347D01*
X131205665Y-82304502D01*
X131194234Y-82303316D01*
X130461932Y-83035618D01*
X130439482Y-82959160D01*
X130360195Y-82835787D01*
X130249362Y-82739749D01*
X130115961Y-82678827D01*
X130112165Y-82678281D01*
X130840857Y-81949589D01*
X130794029Y-81913143D01*
X130575414Y-81794835D01*
X130575403Y-81794830D01*
X130340293Y-81714116D01*
X130095093Y-81673200D01*
X129846507Y-81673200D01*
X129601306Y-81714116D01*
X129366196Y-81794830D01*
X129366185Y-81794835D01*
X129147571Y-81913142D01*
X129147569Y-81913143D01*
X129064197Y-81978035D01*
X128999203Y-82003677D01*
X128930663Y-81990110D01*
X128880338Y-81941642D01*
X128878920Y-81938613D01*
X128878847Y-81938654D01*
X128874593Y-81930864D01*
X128788347Y-81815655D01*
X128788344Y-81815652D01*
X128673135Y-81729406D01*
X128673128Y-81729402D01*
X128538282Y-81679108D01*
X128538283Y-81679108D01*
X128478683Y-81672701D01*
X128478681Y-81672700D01*
X128478673Y-81672700D01*
X128478665Y-81672700D01*
X126866253Y-81672700D01*
X126799214Y-81653015D01*
X126778572Y-81636381D01*
X123523803Y-78381612D01*
X123513980Y-78369350D01*
X123513759Y-78369534D01*
X123508786Y-78363522D01*
X123459066Y-78316832D01*
X123457666Y-78315475D01*
X123437476Y-78295284D01*
X123431986Y-78291025D01*
X123427561Y-78287247D01*
X123393582Y-78255338D01*
X123393580Y-78255336D01*
X123393577Y-78255335D01*
X123376029Y-78245688D01*
X123359763Y-78235004D01*
X123343936Y-78222727D01*
X123343935Y-78222726D01*
X123343933Y-78222725D01*
X123301168Y-78204218D01*
X123295922Y-78201648D01*
X123255093Y-78179203D01*
X123255092Y-78179202D01*
X123235693Y-78174222D01*
X123217281Y-78167918D01*
X123198898Y-78159962D01*
X123198892Y-78159960D01*
X123152874Y-78152672D01*
X123147152Y-78151487D01*
X123102021Y-78139900D01*
X123102019Y-78139900D01*
X123081984Y-78139900D01*
X123062586Y-78138373D01*
X123055162Y-78137197D01*
X123042805Y-78135240D01*
X123042804Y-78135240D01*
X122996416Y-78139625D01*
X122990578Y-78139900D01*
X105060052Y-78139900D01*
X104993013Y-78120215D01*
X104972371Y-78103581D01*
X104573219Y-77704428D01*
X104539734Y-77643105D01*
X104536900Y-77616747D01*
X104536900Y-71939342D01*
X104538624Y-71923722D01*
X104538339Y-71923695D01*
X104539073Y-71915933D01*
X104536931Y-71847739D01*
X104536900Y-71845792D01*
X104536900Y-71817256D01*
X104536900Y-71817250D01*
X104536031Y-71810379D01*
X104535573Y-71804552D01*
X104535330Y-71796813D01*
X104534110Y-71757973D01*
X104528519Y-71738730D01*
X104524573Y-71719678D01*
X104522064Y-71699808D01*
X104504904Y-71656467D01*
X104503024Y-71650979D01*
X104490018Y-71606210D01*
X104479822Y-71588970D01*
X104471261Y-71571494D01*
X104463887Y-71552870D01*
X104462248Y-71550614D01*
X104436479Y-71515145D01*
X104433288Y-71510286D01*
X104409572Y-71470183D01*
X104409565Y-71470174D01*
X104395406Y-71456015D01*
X104382768Y-71441219D01*
X104374421Y-71429730D01*
X104370994Y-71425013D01*
X104335088Y-71395309D01*
X104330776Y-71391386D01*
X103828003Y-70888612D01*
X103818180Y-70876350D01*
X103817959Y-70876534D01*
X103812986Y-70870522D01*
X103763266Y-70823832D01*
X103761866Y-70822475D01*
X103741676Y-70802284D01*
X103736186Y-70798025D01*
X103731761Y-70794247D01*
X103697782Y-70762338D01*
X103697780Y-70762336D01*
X103697777Y-70762335D01*
X103680229Y-70752688D01*
X103663963Y-70742004D01*
X103648133Y-70729725D01*
X103605368Y-70711218D01*
X103600122Y-70708648D01*
X103559293Y-70686203D01*
X103559292Y-70686202D01*
X103539893Y-70681222D01*
X103521481Y-70674918D01*
X103503098Y-70666962D01*
X103503092Y-70666960D01*
X103457074Y-70659672D01*
X103451352Y-70658487D01*
X103406221Y-70646900D01*
X103406219Y-70646900D01*
X103386184Y-70646900D01*
X103366786Y-70645373D01*
X103359362Y-70644197D01*
X103347005Y-70642240D01*
X103347004Y-70642240D01*
X103300616Y-70646625D01*
X103294778Y-70646900D01*
X101557305Y-70646900D01*
X101490266Y-70627215D01*
X101444511Y-70574411D01*
X101434567Y-70505253D01*
X101435188Y-70501374D01*
X101436062Y-70496413D01*
X101436062Y-70496411D01*
X101436063Y-70496408D01*
X101456659Y-70261000D01*
X101436063Y-70025592D01*
X101374903Y-69797337D01*
X101374900Y-69797330D01*
X101358847Y-69762904D01*
X101348355Y-69693827D01*
X101376875Y-69630043D01*
X101435352Y-69591804D01*
X101471229Y-69586500D01*
X146208848Y-69586500D01*
X146275887Y-69606185D01*
G37*
G04 #@! TD.AperFunction*
G04 #@! TA.AperFunction,Conductor*
G36*
X100351000Y-74905498D02*
G01*
X100243315Y-74856320D01*
X100136763Y-74841000D01*
X100065237Y-74841000D01*
X99958685Y-74856320D01*
X99851000Y-74905498D01*
X99851000Y-73236501D01*
X99958685Y-73285680D01*
X100065237Y-73301000D01*
X100136763Y-73301000D01*
X100243315Y-73285680D01*
X100351000Y-73236501D01*
X100351000Y-74905498D01*
G37*
G04 #@! TD.AperFunction*
G04 #@! TA.AperFunction,Conductor*
G36*
X98094449Y-42691685D02*
G01*
X98140204Y-42744489D01*
X98150148Y-42813647D01*
X98121123Y-42877203D01*
X98079478Y-42908538D01*
X97943271Y-42971553D01*
X97765745Y-43053685D01*
X97503415Y-43211524D01*
X97459081Y-43238200D01*
X97370768Y-43305333D01*
X97174172Y-43454781D01*
X97174163Y-43454789D01*
X96914331Y-43700914D01*
X96682641Y-43973680D01*
X96682634Y-43973690D01*
X96481790Y-44269913D01*
X96481784Y-44269922D01*
X96314151Y-44586111D01*
X96314142Y-44586129D01*
X96181674Y-44918600D01*
X96181672Y-44918607D01*
X96085932Y-45263434D01*
X96085926Y-45263460D01*
X96028029Y-45616614D01*
X96028028Y-45616631D01*
X96008652Y-45973997D01*
X96008652Y-45974002D01*
X96028028Y-46331368D01*
X96028029Y-46331385D01*
X96085926Y-46684539D01*
X96085932Y-46684565D01*
X96181672Y-47029392D01*
X96181674Y-47029399D01*
X96314142Y-47361870D01*
X96314151Y-47361888D01*
X96481784Y-47678077D01*
X96481787Y-47678082D01*
X96481789Y-47678085D01*
X96497461Y-47701200D01*
X96682634Y-47974309D01*
X96682641Y-47974319D01*
X96914331Y-48247085D01*
X96914332Y-48247086D01*
X97174163Y-48493211D01*
X97459081Y-48709800D01*
X97765747Y-48894315D01*
X97765749Y-48894316D01*
X97765751Y-48894317D01*
X97765755Y-48894319D01*
X98090552Y-49044585D01*
X98090565Y-49044591D01*
X98429726Y-49158868D01*
X98779254Y-49235805D01*
X99135052Y-49274500D01*
X99135058Y-49274500D01*
X99492942Y-49274500D01*
X99492948Y-49274500D01*
X99848746Y-49235805D01*
X100198274Y-49158868D01*
X100537435Y-49044591D01*
X100862253Y-48894315D01*
X101168919Y-48709800D01*
X101453837Y-48493211D01*
X101713668Y-48247086D01*
X101945365Y-47974311D01*
X102096095Y-47752000D01*
X110994652Y-47752000D01*
X111011274Y-48058585D01*
X111014028Y-48109368D01*
X111014029Y-48109385D01*
X111071926Y-48462539D01*
X111071932Y-48462565D01*
X111167672Y-48807392D01*
X111167674Y-48807399D01*
X111300142Y-49139870D01*
X111300151Y-49139888D01*
X111467784Y-49456077D01*
X111467787Y-49456082D01*
X111467789Y-49456085D01*
X111634197Y-49701519D01*
X111668634Y-49752309D01*
X111668641Y-49752319D01*
X111804008Y-49911685D01*
X111900332Y-50025086D01*
X112160163Y-50271211D01*
X112445081Y-50487800D01*
X112751747Y-50672315D01*
X112751749Y-50672316D01*
X112751751Y-50672317D01*
X112751755Y-50672319D01*
X112966762Y-50771791D01*
X113076565Y-50822591D01*
X113415726Y-50936868D01*
X113765254Y-51013805D01*
X114121052Y-51052500D01*
X114121058Y-51052500D01*
X114478942Y-51052500D01*
X114478948Y-51052500D01*
X114834746Y-51013805D01*
X115184274Y-50936868D01*
X115523435Y-50822591D01*
X115848253Y-50672315D01*
X116154919Y-50487800D01*
X116439837Y-50271211D01*
X116699668Y-50025086D01*
X116931365Y-49752311D01*
X117132211Y-49456085D01*
X117299853Y-49139880D01*
X117432324Y-48807403D01*
X117528071Y-48462552D01*
X117585972Y-48109371D01*
X117605348Y-47752000D01*
X117602594Y-47701200D01*
X126234652Y-47701200D01*
X126249459Y-47974309D01*
X126254028Y-48058568D01*
X126254029Y-48058585D01*
X126311926Y-48411739D01*
X126311932Y-48411765D01*
X126407672Y-48756592D01*
X126407674Y-48756599D01*
X126540142Y-49089070D01*
X126540151Y-49089088D01*
X126707784Y-49405277D01*
X126707787Y-49405282D01*
X126707789Y-49405285D01*
X126871765Y-49647132D01*
X126908634Y-49701509D01*
X126908641Y-49701519D01*
X127087158Y-49911685D01*
X127140332Y-49974286D01*
X127400163Y-50220411D01*
X127685081Y-50437000D01*
X127991747Y-50621515D01*
X127991749Y-50621516D01*
X127991751Y-50621517D01*
X127991755Y-50621519D01*
X128316552Y-50771785D01*
X128316565Y-50771791D01*
X128655726Y-50886068D01*
X129005254Y-50963005D01*
X129361052Y-51001700D01*
X129361058Y-51001700D01*
X129718942Y-51001700D01*
X129718948Y-51001700D01*
X130074746Y-50963005D01*
X130424274Y-50886068D01*
X130763435Y-50771791D01*
X131088253Y-50621515D01*
X131394919Y-50437000D01*
X131679837Y-50220411D01*
X131939668Y-49974286D01*
X132171365Y-49701511D01*
X132372211Y-49405285D01*
X132539853Y-49089080D01*
X132672324Y-48756603D01*
X132768071Y-48411752D01*
X132795067Y-48247085D01*
X132825970Y-48058585D01*
X132825970Y-48058582D01*
X132825972Y-48058571D01*
X132845348Y-47701200D01*
X156206652Y-47701200D01*
X156221459Y-47974309D01*
X156226028Y-48058568D01*
X156226029Y-48058585D01*
X156283926Y-48411739D01*
X156283932Y-48411765D01*
X156379672Y-48756592D01*
X156379674Y-48756599D01*
X156512142Y-49089070D01*
X156512151Y-49089088D01*
X156679784Y-49405277D01*
X156679787Y-49405282D01*
X156679789Y-49405285D01*
X156843765Y-49647132D01*
X156880634Y-49701509D01*
X156880641Y-49701519D01*
X157059158Y-49911685D01*
X157112332Y-49974286D01*
X157372163Y-50220411D01*
X157657081Y-50437000D01*
X157963747Y-50621515D01*
X157963749Y-50621516D01*
X157963751Y-50621517D01*
X157963755Y-50621519D01*
X158288552Y-50771785D01*
X158288565Y-50771791D01*
X158627726Y-50886068D01*
X158977254Y-50963005D01*
X159333052Y-51001700D01*
X159333058Y-51001700D01*
X159690942Y-51001700D01*
X159690948Y-51001700D01*
X160046746Y-50963005D01*
X160396274Y-50886068D01*
X160735435Y-50771791D01*
X161060253Y-50621515D01*
X161366919Y-50437000D01*
X161651837Y-50220411D01*
X161911668Y-49974286D01*
X162143365Y-49701511D01*
X162344211Y-49405285D01*
X162511853Y-49089080D01*
X162644324Y-48756603D01*
X162740071Y-48411752D01*
X162767067Y-48247085D01*
X162797970Y-48058585D01*
X162797970Y-48058582D01*
X162797972Y-48058571D01*
X162814594Y-47752000D01*
X171192652Y-47752000D01*
X171209274Y-48058585D01*
X171212028Y-48109368D01*
X171212029Y-48109385D01*
X171269926Y-48462539D01*
X171269932Y-48462565D01*
X171365672Y-48807392D01*
X171365674Y-48807399D01*
X171498142Y-49139870D01*
X171498151Y-49139888D01*
X171665784Y-49456077D01*
X171665787Y-49456082D01*
X171665789Y-49456085D01*
X171832197Y-49701519D01*
X171866634Y-49752309D01*
X171866641Y-49752319D01*
X172002008Y-49911685D01*
X172098332Y-50025086D01*
X172358163Y-50271211D01*
X172643081Y-50487800D01*
X172949747Y-50672315D01*
X172949749Y-50672316D01*
X172949751Y-50672317D01*
X172949755Y-50672319D01*
X173164762Y-50771791D01*
X173274565Y-50822591D01*
X173613726Y-50936868D01*
X173963254Y-51013805D01*
X174319052Y-51052500D01*
X174319058Y-51052500D01*
X174676942Y-51052500D01*
X174676948Y-51052500D01*
X175032746Y-51013805D01*
X175382274Y-50936868D01*
X175721435Y-50822591D01*
X176046253Y-50672315D01*
X176352919Y-50487800D01*
X176637837Y-50271211D01*
X176897668Y-50025086D01*
X177129365Y-49752311D01*
X177330211Y-49456085D01*
X177497853Y-49139880D01*
X177630324Y-48807403D01*
X177726071Y-48462552D01*
X177783972Y-48109371D01*
X177803348Y-47752000D01*
X177783972Y-47394629D01*
X177778604Y-47361888D01*
X177726073Y-47041460D01*
X177726072Y-47041459D01*
X177726071Y-47041448D01*
X177630324Y-46696597D01*
X177497853Y-46364120D01*
X177330211Y-46047915D01*
X177129365Y-45751689D01*
X177129361Y-45751684D01*
X177129358Y-45751680D01*
X176897668Y-45478914D01*
X176844039Y-45428114D01*
X176637837Y-45232789D01*
X176637830Y-45232783D01*
X176637827Y-45232781D01*
X176570245Y-45181407D01*
X176352919Y-45016200D01*
X176046253Y-44831685D01*
X176046252Y-44831684D01*
X176046248Y-44831682D01*
X176046244Y-44831680D01*
X175721447Y-44681414D01*
X175721441Y-44681411D01*
X175721435Y-44681409D01*
X175551854Y-44624270D01*
X175382273Y-44567131D01*
X175032744Y-44490194D01*
X174676949Y-44451500D01*
X174676948Y-44451500D01*
X174319052Y-44451500D01*
X174319050Y-44451500D01*
X173963255Y-44490194D01*
X173613726Y-44567131D01*
X173357970Y-44653306D01*
X173274565Y-44681409D01*
X173274562Y-44681410D01*
X173274563Y-44681410D01*
X173274552Y-44681414D01*
X172949755Y-44831680D01*
X172949751Y-44831682D01*
X172727513Y-44965399D01*
X172643081Y-45016200D01*
X172554768Y-45083333D01*
X172358172Y-45232781D01*
X172358163Y-45232789D01*
X172098331Y-45478914D01*
X171866641Y-45751680D01*
X171866634Y-45751690D01*
X171665790Y-46047913D01*
X171665784Y-46047922D01*
X171498151Y-46364111D01*
X171498142Y-46364129D01*
X171365674Y-46696600D01*
X171365672Y-46696607D01*
X171269932Y-47041434D01*
X171269926Y-47041460D01*
X171212029Y-47394614D01*
X171212028Y-47394631D01*
X171196660Y-47678085D01*
X171192652Y-47752000D01*
X162814594Y-47752000D01*
X162817348Y-47701200D01*
X162797972Y-47343829D01*
X162740071Y-46990648D01*
X162658429Y-46696600D01*
X162644327Y-46645807D01*
X162644325Y-46645800D01*
X162511857Y-46313329D01*
X162511848Y-46313311D01*
X162344215Y-45997122D01*
X162344213Y-45997119D01*
X162344211Y-45997115D01*
X162143365Y-45700889D01*
X162143361Y-45700884D01*
X162143358Y-45700880D01*
X161911668Y-45428114D01*
X161911667Y-45428114D01*
X161651837Y-45181989D01*
X161651830Y-45181983D01*
X161651827Y-45181981D01*
X161584245Y-45130607D01*
X161366919Y-44965400D01*
X161060253Y-44780885D01*
X161060252Y-44780884D01*
X161060248Y-44780882D01*
X161060244Y-44780880D01*
X160735447Y-44630614D01*
X160735441Y-44630611D01*
X160735435Y-44630609D01*
X160547040Y-44567131D01*
X160396273Y-44516331D01*
X160046744Y-44439394D01*
X159690949Y-44400700D01*
X159690948Y-44400700D01*
X159333052Y-44400700D01*
X159333050Y-44400700D01*
X158977255Y-44439394D01*
X158627726Y-44516331D01*
X158371970Y-44602506D01*
X158288565Y-44630609D01*
X158288562Y-44630610D01*
X158288563Y-44630610D01*
X158288552Y-44630614D01*
X157963755Y-44780880D01*
X157963751Y-44780882D01*
X157735367Y-44918296D01*
X157657081Y-44965400D01*
X157590256Y-45016199D01*
X157372172Y-45181981D01*
X157372163Y-45181989D01*
X157112331Y-45428114D01*
X156880641Y-45700880D01*
X156880634Y-45700890D01*
X156679790Y-45997113D01*
X156679784Y-45997122D01*
X156512151Y-46313311D01*
X156512142Y-46313329D01*
X156379674Y-46645800D01*
X156379672Y-46645807D01*
X156283932Y-46990634D01*
X156283926Y-46990660D01*
X156226029Y-47343814D01*
X156226028Y-47343827D01*
X156226028Y-47343829D01*
X156206652Y-47701200D01*
X132845348Y-47701200D01*
X132825972Y-47343829D01*
X132768071Y-46990648D01*
X132686429Y-46696600D01*
X132672327Y-46645807D01*
X132672325Y-46645800D01*
X132539857Y-46313329D01*
X132539848Y-46313311D01*
X132372215Y-45997122D01*
X132372213Y-45997119D01*
X132372211Y-45997115D01*
X132171365Y-45700889D01*
X132171361Y-45700884D01*
X132171358Y-45700880D01*
X131939668Y-45428114D01*
X131939667Y-45428113D01*
X131679837Y-45181989D01*
X131679830Y-45181983D01*
X131679827Y-45181981D01*
X131612245Y-45130607D01*
X131394919Y-44965400D01*
X131088253Y-44780885D01*
X131088252Y-44780884D01*
X131088248Y-44780882D01*
X131088244Y-44780880D01*
X130763447Y-44630614D01*
X130763441Y-44630611D01*
X130763435Y-44630609D01*
X130575040Y-44567131D01*
X130424273Y-44516331D01*
X130074744Y-44439394D01*
X129718949Y-44400700D01*
X129718948Y-44400700D01*
X129361052Y-44400700D01*
X129361050Y-44400700D01*
X129005255Y-44439394D01*
X128655726Y-44516331D01*
X128399970Y-44602506D01*
X128316565Y-44630609D01*
X128316562Y-44630610D01*
X128316563Y-44630610D01*
X128316552Y-44630614D01*
X127991755Y-44780880D01*
X127991751Y-44780882D01*
X127763367Y-44918296D01*
X127685081Y-44965400D01*
X127618256Y-45016199D01*
X127400172Y-45181981D01*
X127400163Y-45181989D01*
X127140331Y-45428114D01*
X126908641Y-45700880D01*
X126908634Y-45700890D01*
X126707790Y-45997113D01*
X126707784Y-45997122D01*
X126540151Y-46313311D01*
X126540142Y-46313329D01*
X126407674Y-46645800D01*
X126407672Y-46645807D01*
X126311932Y-46990634D01*
X126311926Y-46990660D01*
X126254029Y-47343814D01*
X126254028Y-47343827D01*
X126254028Y-47343829D01*
X126234652Y-47701200D01*
X117602594Y-47701200D01*
X117585972Y-47394629D01*
X117580604Y-47361888D01*
X117528073Y-47041460D01*
X117528072Y-47041459D01*
X117528071Y-47041448D01*
X117432324Y-46696597D01*
X117299853Y-46364120D01*
X117132211Y-46047915D01*
X116931365Y-45751689D01*
X116931361Y-45751684D01*
X116931358Y-45751680D01*
X116699668Y-45478914D01*
X116646039Y-45428114D01*
X116439837Y-45232789D01*
X116439830Y-45232783D01*
X116439827Y-45232781D01*
X116372245Y-45181407D01*
X116154919Y-45016200D01*
X115848253Y-44831685D01*
X115848252Y-44831684D01*
X115848248Y-44831682D01*
X115848244Y-44831680D01*
X115523447Y-44681414D01*
X115523441Y-44681411D01*
X115523435Y-44681409D01*
X115353854Y-44624270D01*
X115184273Y-44567131D01*
X114834744Y-44490194D01*
X114478949Y-44451500D01*
X114478948Y-44451500D01*
X114121052Y-44451500D01*
X114121050Y-44451500D01*
X113765255Y-44490194D01*
X113415726Y-44567131D01*
X113159970Y-44653306D01*
X113076565Y-44681409D01*
X113076562Y-44681410D01*
X113076563Y-44681410D01*
X113076552Y-44681414D01*
X112751755Y-44831680D01*
X112751751Y-44831682D01*
X112529513Y-44965399D01*
X112445081Y-45016200D01*
X112356768Y-45083333D01*
X112160172Y-45232781D01*
X112160163Y-45232789D01*
X111900331Y-45478914D01*
X111668641Y-45751680D01*
X111668634Y-45751690D01*
X111467790Y-46047913D01*
X111467784Y-46047922D01*
X111300151Y-46364111D01*
X111300142Y-46364129D01*
X111167674Y-46696600D01*
X111167672Y-46696607D01*
X111071932Y-47041434D01*
X111071926Y-47041460D01*
X111014029Y-47394614D01*
X111014028Y-47394631D01*
X110998660Y-47678085D01*
X110994652Y-47752000D01*
X102096095Y-47752000D01*
X102146211Y-47678085D01*
X102313853Y-47361880D01*
X102446324Y-47029403D01*
X102542071Y-46684552D01*
X102599972Y-46331371D01*
X102619348Y-45974000D01*
X102599972Y-45616629D01*
X102542071Y-45263448D01*
X102459319Y-44965400D01*
X102446327Y-44918607D01*
X102446325Y-44918600D01*
X102313857Y-44586129D01*
X102313848Y-44586111D01*
X102303785Y-44567131D01*
X102146211Y-44269915D01*
X101945365Y-43973689D01*
X101945361Y-43973684D01*
X101945358Y-43973680D01*
X101713668Y-43700914D01*
X101713667Y-43700914D01*
X101453837Y-43454789D01*
X101453830Y-43454783D01*
X101453827Y-43454781D01*
X101386245Y-43403407D01*
X101168919Y-43238200D01*
X100993418Y-43132604D01*
X100862254Y-43053685D01*
X100738468Y-42996416D01*
X100548522Y-42908538D01*
X100495946Y-42862525D01*
X100476592Y-42795390D01*
X100496606Y-42728448D01*
X100549634Y-42682953D01*
X100600590Y-42672000D01*
X187943410Y-42672000D01*
X188010449Y-42691685D01*
X188056204Y-42744489D01*
X188066148Y-42813647D01*
X188037123Y-42877203D01*
X187995478Y-42908538D01*
X187859271Y-42971553D01*
X187681745Y-43053685D01*
X187419415Y-43211524D01*
X187375081Y-43238200D01*
X187286768Y-43305333D01*
X187090172Y-43454781D01*
X187090163Y-43454789D01*
X186830331Y-43700914D01*
X186598641Y-43973680D01*
X186598634Y-43973690D01*
X186397790Y-44269913D01*
X186397784Y-44269922D01*
X186230151Y-44586111D01*
X186230142Y-44586129D01*
X186097674Y-44918600D01*
X186097672Y-44918607D01*
X186001932Y-45263434D01*
X186001926Y-45263460D01*
X185944029Y-45616614D01*
X185944028Y-45616631D01*
X185924652Y-45973997D01*
X185924652Y-45974002D01*
X185944028Y-46331368D01*
X185944029Y-46331385D01*
X186001926Y-46684539D01*
X186001932Y-46684565D01*
X186097672Y-47029392D01*
X186097674Y-47029399D01*
X186230142Y-47361870D01*
X186230151Y-47361888D01*
X186397784Y-47678077D01*
X186397787Y-47678082D01*
X186397789Y-47678085D01*
X186413461Y-47701200D01*
X186598634Y-47974309D01*
X186598641Y-47974319D01*
X186830331Y-48247085D01*
X186830332Y-48247086D01*
X187090163Y-48493211D01*
X187375081Y-48709800D01*
X187681747Y-48894315D01*
X187681749Y-48894316D01*
X187681751Y-48894317D01*
X187681755Y-48894319D01*
X188006552Y-49044585D01*
X188006565Y-49044591D01*
X188345726Y-49158868D01*
X188695254Y-49235805D01*
X189051052Y-49274500D01*
X189051058Y-49274500D01*
X189408942Y-49274500D01*
X189408948Y-49274500D01*
X189764746Y-49235805D01*
X190114274Y-49158868D01*
X190453435Y-49044591D01*
X190778253Y-48894315D01*
X191084919Y-48709800D01*
X191369837Y-48493211D01*
X191629668Y-48247086D01*
X191861365Y-47974311D01*
X192062211Y-47678085D01*
X192229853Y-47361880D01*
X192362324Y-47029403D01*
X192458071Y-46684552D01*
X192515972Y-46331371D01*
X192535348Y-45974000D01*
X192515972Y-45616629D01*
X192458071Y-45263448D01*
X192375319Y-44965400D01*
X192362327Y-44918607D01*
X192362325Y-44918600D01*
X192229857Y-44586129D01*
X192229848Y-44586111D01*
X192219785Y-44567131D01*
X192062211Y-44269915D01*
X191861365Y-43973689D01*
X191861361Y-43973684D01*
X191861358Y-43973680D01*
X191629668Y-43700914D01*
X191629667Y-43700914D01*
X191369837Y-43454789D01*
X191369830Y-43454783D01*
X191369827Y-43454781D01*
X191302245Y-43403407D01*
X191084919Y-43238200D01*
X190909418Y-43132604D01*
X190778254Y-43053685D01*
X190654468Y-42996416D01*
X190464522Y-42908538D01*
X190411946Y-42862525D01*
X190392592Y-42795390D01*
X190412606Y-42728448D01*
X190465634Y-42682953D01*
X190516590Y-42672000D01*
X193424000Y-42672000D01*
X193491039Y-42691685D01*
X193536794Y-42744489D01*
X193548000Y-42796000D01*
X193548000Y-141608000D01*
X193528315Y-141675039D01*
X193475511Y-141720794D01*
X193424000Y-141732000D01*
X176738663Y-141732000D01*
X176671624Y-141712315D01*
X176625869Y-141659511D01*
X176615925Y-141590353D01*
X176644950Y-141526797D01*
X176658127Y-141513713D01*
X176721224Y-141459824D01*
X176884836Y-141268259D01*
X177016466Y-141053459D01*
X177112873Y-140820711D01*
X177171683Y-140575748D01*
X177186500Y-140387482D01*
X177186500Y-138961718D01*
X177171683Y-138773452D01*
X177112873Y-138528489D01*
X177016466Y-138295740D01*
X176884839Y-138080946D01*
X176884838Y-138080943D01*
X176832858Y-138020083D01*
X176721224Y-137889376D01*
X176549853Y-137743011D01*
X176529656Y-137725761D01*
X176529653Y-137725760D01*
X176314859Y-137594133D01*
X176082110Y-137497726D01*
X175837151Y-137438917D01*
X175586000Y-137419151D01*
X175334848Y-137438917D01*
X175089889Y-137497726D01*
X174857140Y-137594133D01*
X174642346Y-137725760D01*
X174642343Y-137725761D01*
X174450776Y-137889376D01*
X174290525Y-138077005D01*
X174232018Y-138115198D01*
X174162150Y-138115696D01*
X174127924Y-138099960D01*
X174080966Y-138068963D01*
X173873995Y-137980499D01*
X173873982Y-137980495D01*
X173654542Y-137930410D01*
X173654538Y-137930409D01*
X173654537Y-137930409D01*
X173654536Y-137930408D01*
X173654531Y-137930408D01*
X173429674Y-137920310D01*
X173429673Y-137920310D01*
X173429670Y-137920310D01*
X173206613Y-137950525D01*
X173206610Y-137950525D01*
X173206609Y-137950526D01*
X172992534Y-138020083D01*
X172794321Y-138126746D01*
X172794318Y-138126748D01*
X172618337Y-138267088D01*
X172618329Y-138267096D01*
X172579874Y-138311111D01*
X172520942Y-138348644D01*
X172451073Y-138348358D01*
X172400803Y-138319152D01*
X172346348Y-138267088D01*
X172268825Y-138192968D01*
X172168001Y-138126414D01*
X172122897Y-138073054D01*
X172112375Y-138026822D01*
X172111531Y-137999939D01*
X172111500Y-137997992D01*
X172111500Y-137969456D01*
X172111500Y-137969450D01*
X172110631Y-137962579D01*
X172110173Y-137956752D01*
X172108710Y-137910173D01*
X172103119Y-137890930D01*
X172099173Y-137871878D01*
X172096664Y-137852008D01*
X172079504Y-137808667D01*
X172077624Y-137803179D01*
X172064618Y-137758410D01*
X172054422Y-137741170D01*
X172045861Y-137723694D01*
X172038487Y-137705070D01*
X172038486Y-137705068D01*
X172011079Y-137667345D01*
X172007888Y-137662486D01*
X171984172Y-137622383D01*
X171984165Y-137622374D01*
X171970006Y-137608215D01*
X171957368Y-137593419D01*
X171945594Y-137577213D01*
X171909688Y-137547509D01*
X171905376Y-137543586D01*
X166870803Y-132509012D01*
X166860980Y-132496750D01*
X166860759Y-132496934D01*
X166855786Y-132490922D01*
X166806066Y-132444232D01*
X166804666Y-132442875D01*
X166784476Y-132422684D01*
X166782921Y-132421478D01*
X166778984Y-132418424D01*
X166774561Y-132414647D01*
X166740582Y-132382738D01*
X166740580Y-132382736D01*
X166740577Y-132382735D01*
X166723029Y-132373088D01*
X166706763Y-132362404D01*
X166690933Y-132350125D01*
X166648168Y-132331618D01*
X166642922Y-132329048D01*
X166602093Y-132306603D01*
X166602092Y-132306602D01*
X166582693Y-132301622D01*
X166564281Y-132295318D01*
X166545898Y-132287362D01*
X166545892Y-132287360D01*
X166499874Y-132280072D01*
X166494152Y-132278887D01*
X166449021Y-132267300D01*
X166449019Y-132267300D01*
X166428984Y-132267300D01*
X166409586Y-132265773D01*
X166402162Y-132264597D01*
X166389805Y-132262640D01*
X166389804Y-132262640D01*
X166343416Y-132267025D01*
X166337578Y-132267300D01*
X138524148Y-132267300D01*
X138457109Y-132247615D01*
X138432000Y-132226274D01*
X138426273Y-132219914D01*
X138426269Y-132219910D01*
X138273134Y-132108651D01*
X138273129Y-132108648D01*
X138100207Y-132031657D01*
X138100202Y-132031655D01*
X137954400Y-132000665D01*
X137915046Y-131992300D01*
X137725754Y-131992300D01*
X137693297Y-131999198D01*
X137540597Y-132031655D01*
X137540592Y-132031657D01*
X137367670Y-132108648D01*
X137367665Y-132108651D01*
X137214529Y-132219911D01*
X137087866Y-132360585D01*
X136993221Y-132524515D01*
X136993218Y-132524522D01*
X136934727Y-132704540D01*
X136934726Y-132704544D01*
X136914940Y-132892800D01*
X136934726Y-133081056D01*
X136934727Y-133081059D01*
X136993218Y-133261077D01*
X136993221Y-133261084D01*
X137087867Y-133425016D01*
X137189585Y-133537985D01*
X137214529Y-133565688D01*
X137367665Y-133676948D01*
X137367670Y-133676951D01*
X137433859Y-133706421D01*
X137487096Y-133751672D01*
X137507417Y-133818521D01*
X137488371Y-133885744D01*
X137436005Y-133931999D01*
X137383423Y-133943700D01*
X101351652Y-133943700D01*
X101284613Y-133924015D01*
X101263971Y-133907381D01*
X98156587Y-130799996D01*
X98123102Y-130738673D01*
X98126986Y-130672054D01*
X98178771Y-130521214D01*
X98219700Y-130275935D01*
X98219700Y-130027265D01*
X98178771Y-129781986D01*
X98098028Y-129546790D01*
X97979674Y-129328091D01*
X97826938Y-129131856D01*
X97643985Y-128963436D01*
X97643982Y-128963433D01*
X97435806Y-128827426D01*
X97208081Y-128727536D01*
X96967024Y-128666492D01*
X96967013Y-128666490D01*
X96781277Y-128651100D01*
X96781267Y-128651100D01*
X96157133Y-128651100D01*
X96157122Y-128651100D01*
X95971386Y-128666490D01*
X95971375Y-128666492D01*
X95730318Y-128727536D01*
X95502593Y-128827426D01*
X95294414Y-128963436D01*
X95203982Y-129046684D01*
X95141328Y-129077606D01*
X95071902Y-129069746D01*
X95017746Y-129025598D01*
X94996056Y-128959181D01*
X94996000Y-128955454D01*
X94996000Y-120116605D01*
X96832554Y-120116605D01*
X96851518Y-120418046D01*
X96851519Y-120418053D01*
X96908120Y-120714764D01*
X97001459Y-121002031D01*
X97001461Y-121002036D01*
X97130065Y-121275332D01*
X97130068Y-121275338D01*
X97291911Y-121530363D01*
X97484452Y-121763105D01*
X97704636Y-121969872D01*
X97704646Y-121969880D01*
X97948993Y-122147408D01*
X97948998Y-122147410D01*
X97949005Y-122147416D01*
X98213696Y-122292932D01*
X98213701Y-122292934D01*
X98213703Y-122292935D01*
X98213704Y-122292936D01*
X98494534Y-122404124D01*
X98494537Y-122404125D01*
X98592059Y-122429164D01*
X98787102Y-122479242D01*
X98933839Y-122497779D01*
X99086763Y-122517099D01*
X99086769Y-122517099D01*
X99086773Y-122517100D01*
X99086775Y-122517100D01*
X99388825Y-122517100D01*
X99388827Y-122517100D01*
X99388832Y-122517099D01*
X99388836Y-122517099D01*
X99468391Y-122507048D01*
X99688498Y-122479242D01*
X99981062Y-122404125D01*
X99981065Y-122404124D01*
X100261895Y-122292936D01*
X100261896Y-122292935D01*
X100261894Y-122292935D01*
X100261904Y-122292932D01*
X100526595Y-122147416D01*
X100770962Y-121969874D01*
X100991149Y-121763104D01*
X101183685Y-121530368D01*
X101345533Y-121275336D01*
X101474141Y-121002030D01*
X101567481Y-120714760D01*
X101624080Y-120418057D01*
X101643046Y-120116600D01*
X101624080Y-119815143D01*
X101567481Y-119518440D01*
X101474141Y-119231170D01*
X101345533Y-118957864D01*
X101183685Y-118702832D01*
X100991149Y-118470096D01*
X100770962Y-118263326D01*
X100770959Y-118263324D01*
X100770953Y-118263319D01*
X100526606Y-118085791D01*
X100526599Y-118085786D01*
X100526595Y-118085784D01*
X100261904Y-117940268D01*
X100261901Y-117940266D01*
X100261896Y-117940264D01*
X100261895Y-117940263D01*
X99981065Y-117829075D01*
X99981062Y-117829074D01*
X99688495Y-117753957D01*
X99388836Y-117716100D01*
X99388827Y-117716100D01*
X99086773Y-117716100D01*
X99086763Y-117716100D01*
X98787104Y-117753957D01*
X98494537Y-117829074D01*
X98494534Y-117829075D01*
X98213704Y-117940263D01*
X98213703Y-117940264D01*
X97949005Y-118085784D01*
X97948993Y-118085791D01*
X97704646Y-118263319D01*
X97704636Y-118263327D01*
X97484452Y-118470094D01*
X97291911Y-118702836D01*
X97130068Y-118957861D01*
X97130065Y-118957867D01*
X97001461Y-119231163D01*
X97001459Y-119231168D01*
X96908120Y-119518435D01*
X96851519Y-119815146D01*
X96851518Y-119815153D01*
X96832554Y-120116594D01*
X96832554Y-120116605D01*
X94996000Y-120116605D01*
X94996000Y-101879405D01*
X96807154Y-101879405D01*
X96826118Y-102180846D01*
X96826119Y-102180853D01*
X96882720Y-102477564D01*
X96976059Y-102764831D01*
X96976061Y-102764836D01*
X97104665Y-103038132D01*
X97104668Y-103038138D01*
X97266511Y-103293163D01*
X97266514Y-103293167D01*
X97266515Y-103293168D01*
X97443478Y-103507080D01*
X97459052Y-103525905D01*
X97679236Y-103732672D01*
X97679246Y-103732680D01*
X97923593Y-103910208D01*
X97923598Y-103910210D01*
X97923605Y-103910216D01*
X98188296Y-104055732D01*
X98188301Y-104055734D01*
X98188303Y-104055735D01*
X98188304Y-104055736D01*
X98469134Y-104166924D01*
X98469137Y-104166925D01*
X98566659Y-104191963D01*
X98761702Y-104242042D01*
X98908439Y-104260579D01*
X99061363Y-104279899D01*
X99061369Y-104279899D01*
X99061373Y-104279900D01*
X99061375Y-104279900D01*
X99363425Y-104279900D01*
X99363427Y-104279900D01*
X99363432Y-104279899D01*
X99363436Y-104279899D01*
X99442991Y-104269848D01*
X99663098Y-104242042D01*
X99955662Y-104166925D01*
X99955665Y-104166924D01*
X100236495Y-104055736D01*
X100236496Y-104055735D01*
X100236494Y-104055735D01*
X100236504Y-104055732D01*
X100501195Y-103910216D01*
X100745562Y-103732674D01*
X100965749Y-103525904D01*
X101158285Y-103293168D01*
X101320133Y-103038136D01*
X101448741Y-102764830D01*
X101542081Y-102477560D01*
X101598680Y-102180857D01*
X101602221Y-102124572D01*
X101617646Y-101879405D01*
X101617646Y-101879394D01*
X101598681Y-101577953D01*
X101598680Y-101577946D01*
X101598680Y-101577943D01*
X101542081Y-101281240D01*
X101448741Y-100993970D01*
X101320133Y-100720664D01*
X101245076Y-100602393D01*
X101158288Y-100465636D01*
X101158285Y-100465632D01*
X100965749Y-100232896D01*
X100745562Y-100026126D01*
X100745559Y-100026124D01*
X100745553Y-100026119D01*
X100501206Y-99848591D01*
X100501199Y-99848586D01*
X100501195Y-99848584D01*
X100236504Y-99703068D01*
X100236501Y-99703066D01*
X100236496Y-99703064D01*
X100236495Y-99703063D01*
X99955665Y-99591875D01*
X99955662Y-99591874D01*
X99663095Y-99516757D01*
X99363436Y-99478900D01*
X99363427Y-99478900D01*
X99061373Y-99478900D01*
X99061363Y-99478900D01*
X98761704Y-99516757D01*
X98469137Y-99591874D01*
X98469134Y-99591875D01*
X98188304Y-99703063D01*
X98188303Y-99703064D01*
X97923605Y-99848584D01*
X97923593Y-99848591D01*
X97679246Y-100026119D01*
X97679236Y-100026127D01*
X97459052Y-100232894D01*
X97266511Y-100465636D01*
X97104668Y-100720661D01*
X97104665Y-100720667D01*
X96976061Y-100993963D01*
X96976059Y-100993968D01*
X96882720Y-101281235D01*
X96826119Y-101577946D01*
X96826118Y-101577953D01*
X96807154Y-101879394D01*
X96807154Y-101879405D01*
X94996000Y-101879405D01*
X94996000Y-97042601D01*
X113028300Y-97042601D01*
X113028301Y-97042618D01*
X113038800Y-97145396D01*
X113038801Y-97145399D01*
X113093985Y-97311931D01*
X113093986Y-97311934D01*
X113109839Y-97337636D01*
X113128300Y-97402732D01*
X113128300Y-104920506D01*
X113128280Y-104922076D01*
X113126043Y-105010362D01*
X113126043Y-105010370D01*
X113136864Y-105070739D01*
X113137518Y-105075404D01*
X113143725Y-105136430D01*
X113143727Y-105136444D01*
X113154008Y-105169213D01*
X113155879Y-105176837D01*
X113161942Y-105210652D01*
X113161942Y-105210655D01*
X113184694Y-105267612D01*
X113186274Y-105272051D01*
X113204641Y-105330588D01*
X113204644Y-105330595D01*
X113221309Y-105360619D01*
X113224679Y-105367714D01*
X113237422Y-105399614D01*
X113237427Y-105399624D01*
X113271177Y-105450833D01*
X113273618Y-105454863D01*
X113303388Y-105508498D01*
X113303389Y-105508499D01*
X113303391Y-105508502D01*
X113325768Y-105534567D01*
X113330493Y-105540835D01*
X113343063Y-105559906D01*
X113349398Y-105569519D01*
X113392778Y-105612899D01*
X113395969Y-105616343D01*
X113413323Y-105636557D01*
X113435934Y-105662895D01*
X113463094Y-105683918D01*
X113468990Y-105689111D01*
X124093219Y-116313340D01*
X124211392Y-116409697D01*
X124391751Y-116503909D01*
X124587382Y-116559886D01*
X124775917Y-116574243D01*
X124790275Y-116575337D01*
X124790276Y-116575337D01*
X124790277Y-116575337D01*
X124992120Y-116549631D01*
X124992120Y-116549630D01*
X124992127Y-116549630D01*
X125184672Y-116483816D01*
X125360027Y-116380590D01*
X125511013Y-116244179D01*
X125631449Y-116080167D01*
X125716405Y-115895268D01*
X125726441Y-115852023D01*
X125734267Y-115818296D01*
X125768596Y-115757442D01*
X125830375Y-115724807D01*
X125889170Y-115727111D01*
X125958978Y-115747086D01*
X125958979Y-115747086D01*
X125958982Y-115747087D01*
X126026613Y-115752237D01*
X126161875Y-115762537D01*
X126161877Y-115762537D01*
X126161878Y-115762537D01*
X126363721Y-115736831D01*
X126363721Y-115736830D01*
X126363728Y-115736830D01*
X126556272Y-115671016D01*
X126731627Y-115567791D01*
X126882614Y-115431379D01*
X127003049Y-115267367D01*
X127088005Y-115082469D01*
X127134003Y-114884254D01*
X127136172Y-114798637D01*
X127139157Y-114680841D01*
X127139156Y-114680840D01*
X127139157Y-114680837D01*
X127108125Y-114507700D01*
X127103259Y-114480552D01*
X127103257Y-114480545D01*
X127074738Y-114409148D01*
X127027778Y-114291583D01*
X126953092Y-114178262D01*
X126927420Y-114139309D01*
X130348779Y-114139309D01*
X130378468Y-114409135D01*
X130378470Y-114409148D01*
X130413127Y-114541715D01*
X130447132Y-114671784D01*
X130553303Y-114921624D01*
X130625588Y-115040068D01*
X130694716Y-115153340D01*
X130694717Y-115153342D01*
X130784184Y-115260847D01*
X130868368Y-115362004D01*
X131070546Y-115543157D01*
X131296947Y-115692942D01*
X131542743Y-115808167D01*
X131802697Y-115886375D01*
X132071268Y-115925900D01*
X132071273Y-115925900D01*
X132274779Y-115925900D01*
X132274781Y-115925900D01*
X132274786Y-115925899D01*
X132274798Y-115925899D01*
X132312424Y-115923144D01*
X132477740Y-115911045D01*
X132588488Y-115886375D01*
X132742702Y-115852023D01*
X132742704Y-115852022D01*
X132742709Y-115852021D01*
X132996261Y-115755046D01*
X133232991Y-115622186D01*
X133447853Y-115456275D01*
X133636269Y-115260847D01*
X133794223Y-115040068D01*
X133918348Y-114798644D01*
X134005998Y-114541720D01*
X134055306Y-114274771D01*
X134065220Y-114003489D01*
X134035530Y-113733653D01*
X133966868Y-113471016D01*
X133860697Y-113221176D01*
X133719281Y-112989456D01*
X133545632Y-112780796D01*
X133343454Y-112599643D01*
X133223997Y-112520611D01*
X133117055Y-112449859D01*
X133117053Y-112449858D01*
X132871257Y-112334633D01*
X132611303Y-112256425D01*
X132611301Y-112256424D01*
X132611299Y-112256424D01*
X132514999Y-112242252D01*
X132342732Y-112216900D01*
X132139219Y-112216900D01*
X132139201Y-112216900D01*
X131936260Y-112231755D01*
X131936246Y-112231757D01*
X131671297Y-112290776D01*
X131671290Y-112290779D01*
X131417736Y-112387755D01*
X131181012Y-112520611D01*
X130966140Y-112686530D01*
X130966139Y-112686532D01*
X130777734Y-112881949D01*
X130777732Y-112881951D01*
X130619778Y-113102729D01*
X130495656Y-113344146D01*
X130495649Y-113344162D01*
X130408005Y-113601066D01*
X130408001Y-113601084D01*
X130358693Y-113868031D01*
X130358693Y-113868033D01*
X130348779Y-114139309D01*
X126927420Y-114139309D01*
X126915802Y-114121681D01*
X117165619Y-104371498D01*
X117132134Y-104310175D01*
X117129300Y-104283817D01*
X117129300Y-100717803D01*
X117129300Y-97128385D01*
X117138181Y-97082307D01*
X117189525Y-96954057D01*
X117229300Y-96747685D01*
X117229300Y-96040175D01*
X117214328Y-95883382D01*
X117155116Y-95681725D01*
X117058811Y-95494918D01*
X117058809Y-95494916D01*
X117058808Y-95494913D01*
X116928894Y-95329716D01*
X116928890Y-95329712D01*
X116770053Y-95192078D01*
X116588049Y-95086998D01*
X116588045Y-95086996D01*
X116588044Y-95086996D01*
X116389433Y-95018256D01*
X116181402Y-94988346D01*
X116181398Y-94988346D01*
X115971472Y-94998345D01*
X115767221Y-95047896D01*
X115767217Y-95047898D01*
X115576056Y-95135198D01*
X115576051Y-95135201D01*
X115404846Y-95257115D01*
X115404845Y-95257115D01*
X115307049Y-95359682D01*
X115246540Y-95394617D01*
X115176749Y-95391292D01*
X115119835Y-95350764D01*
X115111767Y-95339208D01*
X115105910Y-95329712D01*
X115071512Y-95273944D01*
X114947456Y-95149888D01*
X114854688Y-95092669D01*
X114798136Y-95057787D01*
X114798131Y-95057785D01*
X114768288Y-95047896D01*
X114631597Y-95002601D01*
X114631595Y-95002600D01*
X114528810Y-94992100D01*
X113728798Y-94992100D01*
X113728780Y-94992101D01*
X113626003Y-95002600D01*
X113626000Y-95002601D01*
X113459468Y-95057785D01*
X113459463Y-95057787D01*
X113310142Y-95149889D01*
X113186089Y-95273942D01*
X113093987Y-95423263D01*
X113093985Y-95423266D01*
X113093986Y-95423266D01*
X113038801Y-95589803D01*
X113038801Y-95589804D01*
X113038800Y-95589804D01*
X113028300Y-95692583D01*
X113028300Y-97042601D01*
X94996000Y-97042601D01*
X94996000Y-91194870D01*
X98192100Y-91194870D01*
X98192101Y-91194876D01*
X98198508Y-91254483D01*
X98248802Y-91389328D01*
X98248806Y-91389335D01*
X98335052Y-91504544D01*
X98335055Y-91504547D01*
X98450264Y-91590793D01*
X98450271Y-91590797D01*
X98585117Y-91641091D01*
X98585116Y-91641091D01*
X98592044Y-91641835D01*
X98644727Y-91647500D01*
X100440472Y-91647499D01*
X100500083Y-91641091D01*
X100634931Y-91590796D01*
X100750146Y-91504546D01*
X100836396Y-91389331D01*
X100885410Y-91257916D01*
X100927281Y-91201984D01*
X100992745Y-91177566D01*
X101061018Y-91192417D01*
X101089273Y-91213569D01*
X101211199Y-91335495D01*
X101296875Y-91395486D01*
X101404765Y-91471032D01*
X101404767Y-91471033D01*
X101404770Y-91471035D01*
X101618937Y-91570903D01*
X101618943Y-91570904D01*
X101618944Y-91570905D01*
X101673885Y-91585626D01*
X101847192Y-91632063D01*
X102032446Y-91648271D01*
X102082599Y-91652659D01*
X102082600Y-91652659D01*
X102082601Y-91652659D01*
X102132754Y-91648271D01*
X102318008Y-91632063D01*
X102546263Y-91570903D01*
X102760430Y-91471035D01*
X102954001Y-91335495D01*
X103121095Y-91168401D01*
X103256635Y-90974830D01*
X103356503Y-90760663D01*
X103417663Y-90532408D01*
X103438259Y-90297000D01*
X103417663Y-90061592D01*
X103356503Y-89833337D01*
X103256635Y-89619171D01*
X103244167Y-89601364D01*
X103121094Y-89425597D01*
X102954002Y-89258506D01*
X102953995Y-89258501D01*
X102760434Y-89122967D01*
X102760430Y-89122965D01*
X102710600Y-89099729D01*
X102546263Y-89023097D01*
X102546259Y-89023096D01*
X102546255Y-89023094D01*
X102318013Y-88961938D01*
X102318003Y-88961936D01*
X102082601Y-88941341D01*
X102082599Y-88941341D01*
X101847196Y-88961936D01*
X101847186Y-88961938D01*
X101618944Y-89023094D01*
X101618935Y-89023098D01*
X101404771Y-89122964D01*
X101404769Y-89122965D01*
X101211200Y-89258503D01*
X101089273Y-89380430D01*
X101027950Y-89413914D01*
X100958258Y-89408930D01*
X100902325Y-89367058D01*
X100885410Y-89336081D01*
X100836397Y-89204671D01*
X100836393Y-89204664D01*
X100750147Y-89089455D01*
X100750144Y-89089452D01*
X100634935Y-89003206D01*
X100634928Y-89003202D01*
X100500082Y-88952908D01*
X100500083Y-88952908D01*
X100440483Y-88946501D01*
X100440481Y-88946500D01*
X100440473Y-88946500D01*
X100440464Y-88946500D01*
X98644729Y-88946500D01*
X98644723Y-88946501D01*
X98585116Y-88952908D01*
X98450271Y-89003202D01*
X98450264Y-89003206D01*
X98335055Y-89089452D01*
X98335052Y-89089455D01*
X98248806Y-89204664D01*
X98248802Y-89204671D01*
X98198508Y-89339517D01*
X98192101Y-89399116D01*
X98192100Y-89399135D01*
X98192100Y-91194870D01*
X94996000Y-91194870D01*
X94996000Y-86004400D01*
X108517740Y-86004400D01*
X108537526Y-86192656D01*
X108537527Y-86192659D01*
X108596018Y-86372677D01*
X108596021Y-86372684D01*
X108690667Y-86536616D01*
X108780070Y-86635908D01*
X108817329Y-86677288D01*
X108970465Y-86788548D01*
X108970470Y-86788551D01*
X109143392Y-86865542D01*
X109143397Y-86865544D01*
X109328554Y-86904900D01*
X109328555Y-86904900D01*
X109517844Y-86904900D01*
X109517846Y-86904900D01*
X109703003Y-86865544D01*
X109875930Y-86788551D01*
X110029071Y-86677288D01*
X110032293Y-86673710D01*
X110034800Y-86670926D01*
X110094287Y-86634279D01*
X110126948Y-86629900D01*
X110356457Y-86629900D01*
X110372077Y-86631624D01*
X110372104Y-86631339D01*
X110379866Y-86632073D01*
X110379866Y-86632072D01*
X110379867Y-86632073D01*
X110383199Y-86631968D01*
X110448047Y-86629931D01*
X110449994Y-86629900D01*
X110478547Y-86629900D01*
X110478550Y-86629900D01*
X110485428Y-86629030D01*
X110491241Y-86628572D01*
X110537827Y-86627109D01*
X110557069Y-86621517D01*
X110576112Y-86617574D01*
X110595992Y-86615064D01*
X110639322Y-86597907D01*
X110644846Y-86596017D01*
X110648596Y-86594927D01*
X110689590Y-86583018D01*
X110706829Y-86572822D01*
X110724303Y-86564262D01*
X110742927Y-86556888D01*
X110742927Y-86556887D01*
X110742932Y-86556886D01*
X110780649Y-86529482D01*
X110785505Y-86526292D01*
X110825620Y-86502570D01*
X110839789Y-86488399D01*
X110854579Y-86475768D01*
X110870787Y-86463994D01*
X110900499Y-86428076D01*
X110904412Y-86423776D01*
X111425388Y-85902800D01*
X115375740Y-85902800D01*
X115395526Y-86091056D01*
X115395527Y-86091059D01*
X115454018Y-86271077D01*
X115454021Y-86271084D01*
X115548667Y-86435016D01*
X115658400Y-86556886D01*
X115675329Y-86575688D01*
X115828465Y-86686948D01*
X115828470Y-86686951D01*
X116001392Y-86763942D01*
X116001397Y-86763944D01*
X116186554Y-86803300D01*
X116186555Y-86803300D01*
X116375844Y-86803300D01*
X116375846Y-86803300D01*
X116561003Y-86763944D01*
X116733930Y-86686951D01*
X116887071Y-86575688D01*
X117013733Y-86435016D01*
X117108379Y-86271084D01*
X117166874Y-86091056D01*
X117186660Y-85902800D01*
X117166874Y-85714544D01*
X117108379Y-85534516D01*
X117013733Y-85370584D01*
X116984281Y-85337874D01*
X116938550Y-85287084D01*
X116908320Y-85224092D01*
X116906700Y-85204112D01*
X116906700Y-83502687D01*
X116926385Y-83435648D01*
X116938550Y-83419715D01*
X116957091Y-83399122D01*
X117013733Y-83336216D01*
X117108379Y-83172284D01*
X117166874Y-82992256D01*
X117178179Y-82884689D01*
X117716300Y-82884689D01*
X117755490Y-83144703D01*
X117755492Y-83144709D01*
X117833002Y-83395988D01*
X117947095Y-83632905D01*
X117947097Y-83632907D01*
X117947098Y-83632910D01*
X118095230Y-83850180D01*
X118274090Y-84042946D01*
X118479683Y-84206901D01*
X118707416Y-84338383D01*
X118952202Y-84434454D01*
X119208572Y-84492969D01*
X119208578Y-84492969D01*
X119208581Y-84492970D01*
X119405124Y-84507699D01*
X119405143Y-84507699D01*
X119405146Y-84507700D01*
X119405148Y-84507700D01*
X119536452Y-84507700D01*
X119536454Y-84507700D01*
X119536456Y-84507699D01*
X119536475Y-84507699D01*
X119733018Y-84492970D01*
X119733020Y-84492969D01*
X119733028Y-84492969D01*
X119989398Y-84434454D01*
X120234184Y-84338383D01*
X120461917Y-84206901D01*
X120667510Y-84042946D01*
X120846370Y-83850180D01*
X120994502Y-83632910D01*
X121108598Y-83395988D01*
X121186108Y-83144708D01*
X121191891Y-83106344D01*
X121225299Y-82884689D01*
X121225300Y-82884680D01*
X121225300Y-82621719D01*
X121225299Y-82621710D01*
X121186109Y-82361696D01*
X121186107Y-82361690D01*
X121168101Y-82303316D01*
X121108598Y-82110412D01*
X120994502Y-81873490D01*
X120846370Y-81656220D01*
X120667510Y-81463454D01*
X120461917Y-81299499D01*
X120234184Y-81168017D01*
X119989398Y-81071946D01*
X119989393Y-81071944D01*
X119989384Y-81071942D01*
X119771301Y-81022166D01*
X119733028Y-81013431D01*
X119733027Y-81013430D01*
X119733023Y-81013430D01*
X119733018Y-81013429D01*
X119536475Y-80998700D01*
X119536454Y-80998700D01*
X119405146Y-80998700D01*
X119405124Y-80998700D01*
X119208581Y-81013429D01*
X119208576Y-81013430D01*
X118952215Y-81071942D01*
X118952196Y-81071948D01*
X118707415Y-81168017D01*
X118479683Y-81299499D01*
X118274090Y-81463454D01*
X118274088Y-81463456D01*
X118095230Y-81656219D01*
X117947095Y-81873494D01*
X117833002Y-82110411D01*
X117755492Y-82361690D01*
X117755490Y-82361696D01*
X117716300Y-82621710D01*
X117716300Y-82884689D01*
X117178179Y-82884689D01*
X117186660Y-82804000D01*
X117166874Y-82615744D01*
X117108379Y-82435716D01*
X117013733Y-82271784D01*
X116887071Y-82131112D01*
X116858580Y-82110412D01*
X116733934Y-82019851D01*
X116733929Y-82019848D01*
X116561007Y-81942857D01*
X116561002Y-81942855D01*
X116415201Y-81911865D01*
X116375846Y-81903500D01*
X116186554Y-81903500D01*
X116154097Y-81910398D01*
X116001397Y-81942855D01*
X116001392Y-81942857D01*
X115828470Y-82019848D01*
X115828465Y-82019851D01*
X115675329Y-82131111D01*
X115548666Y-82271785D01*
X115454021Y-82435715D01*
X115454018Y-82435722D01*
X115396260Y-82613484D01*
X115395526Y-82615744D01*
X115375740Y-82804000D01*
X115395526Y-82992256D01*
X115395527Y-82992259D01*
X115454018Y-83172277D01*
X115454021Y-83172284D01*
X115548667Y-83336216D01*
X115591972Y-83384310D01*
X115623850Y-83419715D01*
X115654080Y-83482706D01*
X115655700Y-83502687D01*
X115655700Y-85204112D01*
X115636015Y-85271151D01*
X115623850Y-85287084D01*
X115548666Y-85370584D01*
X115454021Y-85534515D01*
X115454018Y-85534522D01*
X115410307Y-85669053D01*
X115395526Y-85714544D01*
X115375740Y-85902800D01*
X111425388Y-85902800D01*
X114146170Y-83182019D01*
X114207494Y-83148534D01*
X114233852Y-83145700D01*
X114293044Y-83145700D01*
X114293046Y-83145700D01*
X114478203Y-83106344D01*
X114651130Y-83029351D01*
X114804271Y-82918088D01*
X114930933Y-82777416D01*
X115025579Y-82613484D01*
X115084074Y-82433456D01*
X115103860Y-82245200D01*
X115084074Y-82056944D01*
X115025579Y-81876916D01*
X114930933Y-81712984D01*
X114804271Y-81572312D01*
X114804270Y-81572311D01*
X114651134Y-81461051D01*
X114651129Y-81461048D01*
X114478207Y-81384057D01*
X114478202Y-81384055D01*
X114332401Y-81353065D01*
X114293046Y-81344700D01*
X114103754Y-81344700D01*
X114071297Y-81351598D01*
X113918597Y-81384055D01*
X113918592Y-81384057D01*
X113745670Y-81461048D01*
X113745665Y-81461051D01*
X113592529Y-81572311D01*
X113465866Y-81712985D01*
X113371221Y-81876915D01*
X113371218Y-81876922D01*
X113324779Y-82019848D01*
X113312726Y-82056944D01*
X113305539Y-82125328D01*
X113295078Y-82224851D01*
X113268493Y-82289466D01*
X113259438Y-82299570D01*
X110216428Y-85342581D01*
X110155105Y-85376066D01*
X110128747Y-85378900D01*
X110126948Y-85378900D01*
X110059909Y-85359215D01*
X110034800Y-85337874D01*
X110029073Y-85331514D01*
X110029069Y-85331510D01*
X109875934Y-85220251D01*
X109875929Y-85220248D01*
X109703007Y-85143257D01*
X109703002Y-85143255D01*
X109557200Y-85112265D01*
X109517846Y-85103900D01*
X109328554Y-85103900D01*
X109296097Y-85110798D01*
X109143397Y-85143255D01*
X109143392Y-85143257D01*
X108970470Y-85220248D01*
X108970465Y-85220251D01*
X108817329Y-85331511D01*
X108690666Y-85472185D01*
X108596021Y-85636115D01*
X108596018Y-85636122D01*
X108539295Y-85810700D01*
X108537526Y-85816144D01*
X108517740Y-86004400D01*
X94996000Y-86004400D01*
X94996000Y-80421000D01*
X98745341Y-80421000D01*
X98765936Y-80656403D01*
X98765938Y-80656413D01*
X98827094Y-80884655D01*
X98827096Y-80884659D01*
X98827097Y-80884663D01*
X98887142Y-81013429D01*
X98926965Y-81098830D01*
X98926967Y-81098834D01*
X99004917Y-81210157D01*
X99062505Y-81292401D01*
X99229599Y-81459495D01*
X99405055Y-81582351D01*
X99415594Y-81589730D01*
X99459219Y-81644307D01*
X99466413Y-81713805D01*
X99434890Y-81776160D01*
X99415595Y-81792880D01*
X99229922Y-81922890D01*
X99229920Y-81922891D01*
X99062891Y-82089920D01*
X99062886Y-82089926D01*
X98927400Y-82283420D01*
X98927399Y-82283422D01*
X98827570Y-82497507D01*
X98827567Y-82497513D01*
X98770364Y-82710999D01*
X98770364Y-82711000D01*
X99667314Y-82711000D01*
X99641507Y-82751156D01*
X99601000Y-82889111D01*
X99601000Y-83032889D01*
X99641507Y-83170844D01*
X99667314Y-83211000D01*
X98770364Y-83211000D01*
X98827567Y-83424486D01*
X98827570Y-83424492D01*
X98927399Y-83638578D01*
X99062894Y-83832082D01*
X99229917Y-83999105D01*
X99423421Y-84134600D01*
X99637507Y-84234429D01*
X99637516Y-84234433D01*
X99850998Y-84291635D01*
X99850999Y-84291634D01*
X99850999Y-83396501D01*
X99958685Y-83445680D01*
X100065237Y-83461000D01*
X100136763Y-83461000D01*
X100243315Y-83445680D01*
X100351000Y-83396501D01*
X100351000Y-84291633D01*
X100564483Y-84234433D01*
X100564492Y-84234429D01*
X100778578Y-84134600D01*
X100972082Y-83999105D01*
X101139105Y-83832082D01*
X101274600Y-83638578D01*
X101374429Y-83424492D01*
X101374432Y-83424486D01*
X101431636Y-83211000D01*
X100534686Y-83211000D01*
X100560493Y-83170844D01*
X100601000Y-83032889D01*
X100601000Y-82889111D01*
X100560493Y-82751156D01*
X100534686Y-82711000D01*
X101431636Y-82711000D01*
X101431635Y-82710999D01*
X101374432Y-82497513D01*
X101374429Y-82497507D01*
X101372004Y-82492306D01*
X108725428Y-82492306D01*
X108735213Y-82722662D01*
X108735214Y-82722670D01*
X108783790Y-82948062D01*
X108783790Y-82948063D01*
X108869757Y-83162002D01*
X108869759Y-83162006D01*
X108882082Y-83182019D01*
X108990648Y-83358342D01*
X109142980Y-83531425D01*
X109142984Y-83531429D01*
X109322365Y-83676269D01*
X109322366Y-83676270D01*
X109322369Y-83676271D01*
X109322372Y-83676274D01*
X109523663Y-83788721D01*
X109741062Y-83865533D01*
X109867872Y-83887277D01*
X109968306Y-83904499D01*
X109968315Y-83904500D01*
X110141134Y-83904500D01*
X110141135Y-83904500D01*
X110141136Y-83904499D01*
X110141153Y-83904499D01*
X110313334Y-83889844D01*
X110313337Y-83889843D01*
X110313339Y-83889843D01*
X110536469Y-83831745D01*
X110664829Y-83773722D01*
X110746565Y-83736776D01*
X110746567Y-83736775D01*
X110746567Y-83736774D01*
X110746571Y-83736773D01*
X110937600Y-83607659D01*
X111104062Y-83448119D01*
X111241166Y-83262742D01*
X111344970Y-83056860D01*
X111412486Y-82836397D01*
X111441772Y-82607694D01*
X111431986Y-82377332D01*
X111383410Y-82151938D01*
X111297441Y-81937994D01*
X111176551Y-81741657D01*
X111024220Y-81568575D01*
X111024219Y-81568574D01*
X111024215Y-81568570D01*
X110844834Y-81423730D01*
X110844833Y-81423729D01*
X110643538Y-81311279D01*
X110426141Y-81234468D01*
X110426140Y-81234467D01*
X110426138Y-81234467D01*
X110426134Y-81234466D01*
X110426133Y-81234466D01*
X110198893Y-81195500D01*
X110198885Y-81195500D01*
X110026065Y-81195500D01*
X110026046Y-81195500D01*
X109853865Y-81210155D01*
X109630731Y-81268254D01*
X109420634Y-81363223D01*
X109420632Y-81363224D01*
X109229599Y-81492342D01*
X109063140Y-81651878D01*
X108926034Y-81837257D01*
X108822230Y-82043138D01*
X108754713Y-82263606D01*
X108725428Y-82492306D01*
X101372004Y-82492306D01*
X101274600Y-82283422D01*
X101274599Y-82283420D01*
X101139113Y-82089926D01*
X101139108Y-82089920D01*
X100972078Y-81922890D01*
X100786405Y-81792879D01*
X100742780Y-81738302D01*
X100735588Y-81668804D01*
X100767110Y-81606449D01*
X100786406Y-81589730D01*
X100972401Y-81459495D01*
X101139495Y-81292401D01*
X101275035Y-81098830D01*
X101374903Y-80884663D01*
X101436063Y-80656408D01*
X101456659Y-80421000D01*
X101436063Y-80185592D01*
X101374903Y-79957337D01*
X101275035Y-79743171D01*
X101139495Y-79549599D01*
X101139494Y-79549597D01*
X100972402Y-79382506D01*
X100972396Y-79382501D01*
X100786842Y-79252575D01*
X100743217Y-79197998D01*
X100736023Y-79128500D01*
X100767546Y-79066145D01*
X100786842Y-79049425D01*
X100920712Y-78955688D01*
X100972401Y-78919495D01*
X101139495Y-78752401D01*
X101275035Y-78558830D01*
X101374903Y-78344663D01*
X101436063Y-78116408D01*
X101456659Y-77881000D01*
X101436063Y-77645592D01*
X101374903Y-77417337D01*
X101275035Y-77203171D01*
X101139495Y-77009599D01*
X101139494Y-77009597D01*
X100972402Y-76842506D01*
X100972401Y-76842505D01*
X100786405Y-76712269D01*
X100742781Y-76657692D01*
X100735588Y-76588193D01*
X100767110Y-76525839D01*
X100786405Y-76509119D01*
X100972082Y-76379105D01*
X101139105Y-76212082D01*
X101274600Y-76018578D01*
X101374429Y-75804492D01*
X101374432Y-75804486D01*
X101431636Y-75591000D01*
X100534686Y-75591000D01*
X100560493Y-75550844D01*
X100601000Y-75412889D01*
X100601000Y-75269111D01*
X100560493Y-75131156D01*
X100534686Y-75091000D01*
X101431636Y-75091000D01*
X101431635Y-75090999D01*
X101374432Y-74877513D01*
X101374429Y-74877507D01*
X101274600Y-74663422D01*
X101274599Y-74663420D01*
X101139113Y-74469926D01*
X101139108Y-74469920D01*
X100972082Y-74302894D01*
X100785968Y-74172575D01*
X100742344Y-74117998D01*
X100735151Y-74048499D01*
X100766673Y-73986145D01*
X100785968Y-73969425D01*
X100972082Y-73839105D01*
X101139105Y-73672082D01*
X101274600Y-73478578D01*
X101374429Y-73264492D01*
X101374432Y-73264486D01*
X101431636Y-73051000D01*
X100534686Y-73051000D01*
X100560493Y-73010844D01*
X100601000Y-72872889D01*
X100601000Y-72729111D01*
X100560493Y-72591156D01*
X100534686Y-72551000D01*
X101431636Y-72551000D01*
X101431635Y-72550999D01*
X101374432Y-72337513D01*
X101374429Y-72337507D01*
X101274600Y-72123422D01*
X101274599Y-72123420D01*
X101253315Y-72093023D01*
X101230988Y-72026817D01*
X101247998Y-71959049D01*
X101298947Y-71911237D01*
X101354890Y-71897900D01*
X103016748Y-71897900D01*
X103083787Y-71917585D01*
X103104429Y-71934219D01*
X103249581Y-72079371D01*
X103283066Y-72140694D01*
X103285900Y-72167052D01*
X103285900Y-77844455D01*
X103284175Y-77860072D01*
X103284461Y-77860099D01*
X103283726Y-77867866D01*
X103285869Y-77936046D01*
X103285900Y-77937993D01*
X103285900Y-77966543D01*
X103285901Y-77966560D01*
X103286768Y-77973431D01*
X103287226Y-77979250D01*
X103288690Y-78025824D01*
X103289011Y-78026929D01*
X103294280Y-78045067D01*
X103298224Y-78064111D01*
X103300736Y-78083991D01*
X103317890Y-78127319D01*
X103319782Y-78132847D01*
X103329971Y-78167918D01*
X103332782Y-78177590D01*
X103336240Y-78183438D01*
X103342980Y-78194834D01*
X103351536Y-78212300D01*
X103355665Y-78222727D01*
X103358914Y-78230932D01*
X103386298Y-78268623D01*
X103389506Y-78273507D01*
X103413227Y-78313616D01*
X103413233Y-78313624D01*
X103427390Y-78327780D01*
X103440027Y-78342575D01*
X103451806Y-78358787D01*
X103480568Y-78382581D01*
X103487709Y-78388488D01*
X103492020Y-78392410D01*
X104076986Y-78977377D01*
X104248797Y-79149188D01*
X104258622Y-79161451D01*
X104258843Y-79161269D01*
X104263811Y-79167274D01*
X104313532Y-79213966D01*
X104314932Y-79215323D01*
X104335123Y-79235515D01*
X104335127Y-79235518D01*
X104335129Y-79235520D01*
X104340611Y-79239773D01*
X104345043Y-79243557D01*
X104379018Y-79275462D01*
X104396576Y-79285114D01*
X104412833Y-79295793D01*
X104428664Y-79308073D01*
X104448337Y-79316586D01*
X104471433Y-79326582D01*
X104476677Y-79329150D01*
X104517508Y-79351597D01*
X104530123Y-79354835D01*
X104536905Y-79356577D01*
X104555319Y-79362881D01*
X104573704Y-79370838D01*
X104619757Y-79378132D01*
X104625426Y-79379306D01*
X104670581Y-79390900D01*
X104690616Y-79390900D01*
X104710013Y-79392426D01*
X104729796Y-79395560D01*
X104776183Y-79391175D01*
X104782022Y-79390900D01*
X122712548Y-79390900D01*
X122779587Y-79410585D01*
X122800229Y-79427219D01*
X125893981Y-82520971D01*
X125927466Y-82582294D01*
X125930300Y-82608652D01*
X125930300Y-84221070D01*
X125930301Y-84221076D01*
X125936708Y-84280683D01*
X125987002Y-84415528D01*
X125987006Y-84415535D01*
X126073252Y-84530744D01*
X126073255Y-84530747D01*
X126188464Y-84616993D01*
X126188471Y-84616997D01*
X126323317Y-84667291D01*
X126323316Y-84667291D01*
X126330244Y-84668035D01*
X126382927Y-84673700D01*
X127553147Y-84673699D01*
X127620186Y-84693384D01*
X127665941Y-84746187D01*
X127675885Y-84815346D01*
X127646860Y-84878902D01*
X127640828Y-84885380D01*
X126159008Y-86367199D01*
X126146751Y-86377020D01*
X126146934Y-86377241D01*
X126140922Y-86382214D01*
X126094232Y-86431932D01*
X126092879Y-86433329D01*
X126072689Y-86453519D01*
X126072677Y-86453532D01*
X126068421Y-86459017D01*
X126064637Y-86463447D01*
X126032737Y-86497418D01*
X126032736Y-86497420D01*
X126023084Y-86514976D01*
X126012410Y-86531226D01*
X126000129Y-86547061D01*
X126000124Y-86547068D01*
X125981615Y-86589838D01*
X125979045Y-86595084D01*
X125956603Y-86635906D01*
X125951622Y-86655307D01*
X125945321Y-86673710D01*
X125937362Y-86692102D01*
X125937361Y-86692105D01*
X125930071Y-86738127D01*
X125928887Y-86743846D01*
X125917301Y-86788972D01*
X125917300Y-86788982D01*
X125917300Y-86809016D01*
X125915773Y-86828416D01*
X125912639Y-86848194D01*
X125917024Y-86894580D01*
X125917299Y-86900417D01*
X125917299Y-89047173D01*
X125897614Y-89114212D01*
X125864423Y-89148748D01*
X125671394Y-89283908D01*
X125504305Y-89450997D01*
X125368765Y-89644569D01*
X125368764Y-89644571D01*
X125268898Y-89858735D01*
X125268894Y-89858744D01*
X125207738Y-90086986D01*
X125207736Y-90086996D01*
X125187141Y-90322399D01*
X125187141Y-90322400D01*
X125207736Y-90557803D01*
X125207738Y-90557813D01*
X125268894Y-90786055D01*
X125268896Y-90786059D01*
X125268897Y-90786063D01*
X125336949Y-90932000D01*
X125368765Y-91000230D01*
X125368767Y-91000234D01*
X125504301Y-91193795D01*
X125504306Y-91193802D01*
X125671397Y-91360893D01*
X125671403Y-91360898D01*
X125856958Y-91490825D01*
X125900583Y-91545402D01*
X125907777Y-91614900D01*
X125876254Y-91677255D01*
X125856958Y-91693975D01*
X125671397Y-91823905D01*
X125504305Y-91990997D01*
X125368765Y-92184569D01*
X125368764Y-92184571D01*
X125268898Y-92398735D01*
X125268894Y-92398744D01*
X125207738Y-92626986D01*
X125207736Y-92626996D01*
X125187141Y-92862399D01*
X125187141Y-92862400D01*
X125207736Y-93097803D01*
X125207738Y-93097813D01*
X125268894Y-93326055D01*
X125268896Y-93326059D01*
X125268897Y-93326063D01*
X125341823Y-93482453D01*
X125368765Y-93540230D01*
X125368767Y-93540234D01*
X125504301Y-93733795D01*
X125504306Y-93733802D01*
X125671397Y-93900893D01*
X125671403Y-93900898D01*
X125856958Y-94030825D01*
X125900583Y-94085402D01*
X125907777Y-94154900D01*
X125876254Y-94217255D01*
X125856958Y-94233975D01*
X125671397Y-94363905D01*
X125504305Y-94530997D01*
X125368765Y-94724569D01*
X125368764Y-94724571D01*
X125268898Y-94938735D01*
X125268894Y-94938744D01*
X125207738Y-95166986D01*
X125207736Y-95166996D01*
X125187141Y-95402399D01*
X125187141Y-95402400D01*
X125207736Y-95637803D01*
X125207738Y-95637813D01*
X125268894Y-95866055D01*
X125268896Y-95866059D01*
X125268897Y-95866063D01*
X125317076Y-95969383D01*
X125368765Y-96080230D01*
X125368767Y-96080234D01*
X125504301Y-96273795D01*
X125504306Y-96273802D01*
X125671397Y-96440893D01*
X125671403Y-96440898D01*
X125856958Y-96570825D01*
X125900583Y-96625402D01*
X125907777Y-96694900D01*
X125876254Y-96757255D01*
X125856958Y-96773975D01*
X125671397Y-96903905D01*
X125504305Y-97070997D01*
X125368765Y-97264569D01*
X125368764Y-97264571D01*
X125268898Y-97478735D01*
X125268894Y-97478744D01*
X125207738Y-97706986D01*
X125207736Y-97706996D01*
X125187141Y-97942399D01*
X125187141Y-97942400D01*
X125207736Y-98177803D01*
X125207738Y-98177813D01*
X125268894Y-98406055D01*
X125268896Y-98406059D01*
X125268897Y-98406063D01*
X125275397Y-98420002D01*
X125368765Y-98620230D01*
X125368767Y-98620234D01*
X125504301Y-98813795D01*
X125504306Y-98813802D01*
X125671397Y-98980893D01*
X125671403Y-98980898D01*
X125856958Y-99110825D01*
X125900583Y-99165402D01*
X125907777Y-99234900D01*
X125876254Y-99297255D01*
X125856958Y-99313975D01*
X125671397Y-99443905D01*
X125504305Y-99610997D01*
X125368765Y-99804569D01*
X125368764Y-99804571D01*
X125268898Y-100018735D01*
X125268894Y-100018744D01*
X125207738Y-100246986D01*
X125207736Y-100246996D01*
X125187141Y-100482399D01*
X125187141Y-100482400D01*
X125207736Y-100717803D01*
X125207738Y-100717813D01*
X125268894Y-100946055D01*
X125268896Y-100946059D01*
X125268897Y-100946063D01*
X125368765Y-101160230D01*
X125368767Y-101160234D01*
X125453494Y-101281235D01*
X125504301Y-101353796D01*
X125504306Y-101353802D01*
X125626618Y-101476114D01*
X125660103Y-101537437D01*
X125655119Y-101607129D01*
X125613247Y-101663062D01*
X125582271Y-101679977D01*
X125450712Y-101729046D01*
X125450706Y-101729049D01*
X125335612Y-101815209D01*
X125335609Y-101815212D01*
X125249449Y-101930306D01*
X125249445Y-101930313D01*
X125199203Y-102065020D01*
X125199201Y-102065027D01*
X125192800Y-102124555D01*
X125192800Y-102772400D01*
X126109114Y-102772400D01*
X126083307Y-102812556D01*
X126042800Y-102950511D01*
X126042800Y-103094289D01*
X126083307Y-103232244D01*
X126109114Y-103272400D01*
X125192800Y-103272400D01*
X125192800Y-103920244D01*
X125199201Y-103979772D01*
X125199203Y-103979779D01*
X125249445Y-104114486D01*
X125249449Y-104114493D01*
X125335609Y-104229587D01*
X125335612Y-104229590D01*
X125450706Y-104315750D01*
X125450713Y-104315754D01*
X125585420Y-104365996D01*
X125585427Y-104365998D01*
X125644955Y-104372399D01*
X125644972Y-104372400D01*
X126292800Y-104372400D01*
X126292800Y-103457901D01*
X126400485Y-103507080D01*
X126507037Y-103522400D01*
X126578563Y-103522400D01*
X126685115Y-103507080D01*
X126792800Y-103457901D01*
X126792800Y-104372400D01*
X127440628Y-104372400D01*
X127440644Y-104372399D01*
X127500172Y-104365998D01*
X127500179Y-104365996D01*
X127634886Y-104315754D01*
X127634893Y-104315750D01*
X127749987Y-104229590D01*
X127749990Y-104229587D01*
X127836150Y-104114493D01*
X127836154Y-104114486D01*
X127886396Y-103979779D01*
X127886398Y-103979772D01*
X127892799Y-103920244D01*
X127892800Y-103920227D01*
X127892800Y-103272400D01*
X126976486Y-103272400D01*
X127002293Y-103232244D01*
X127042800Y-103094289D01*
X127042800Y-102950511D01*
X127002293Y-102812556D01*
X126976486Y-102772400D01*
X127892800Y-102772400D01*
X127892800Y-102124572D01*
X127892799Y-102124555D01*
X127888288Y-102082600D01*
X130584055Y-102082600D01*
X130604133Y-102823789D01*
X130664308Y-103562787D01*
X130664310Y-103562806D01*
X130764408Y-104297481D01*
X130904125Y-105025615D01*
X130904129Y-105025633D01*
X130904130Y-105025638D01*
X131083071Y-105745179D01*
X131083073Y-105745187D01*
X131083076Y-105745197D01*
X131300707Y-106453979D01*
X131556395Y-107149955D01*
X131556395Y-107149956D01*
X131736367Y-107568330D01*
X131849388Y-107831064D01*
X131849399Y-107831086D01*
X132178816Y-108495294D01*
X132178829Y-108495319D01*
X132543749Y-109140769D01*
X132943070Y-109765499D01*
X133375613Y-110367675D01*
X133375627Y-110367695D01*
X133840146Y-110945583D01*
X133840160Y-110945600D01*
X134335307Y-111497516D01*
X134859571Y-112021780D01*
X134859580Y-112021788D01*
X134859585Y-112021793D01*
X135411489Y-112516929D01*
X135989391Y-112981459D01*
X136118204Y-113073985D01*
X136591588Y-113414017D01*
X137216318Y-113813338D01*
X137216330Y-113813345D01*
X137216332Y-113813346D01*
X137861774Y-114178262D01*
X138526024Y-114507700D01*
X139207136Y-114800694D01*
X139903112Y-115056382D01*
X140611909Y-115274017D01*
X141331450Y-115452958D01*
X141869913Y-115556280D01*
X142051877Y-115591196D01*
X142059622Y-115592682D01*
X142794292Y-115692779D01*
X143533303Y-115752955D01*
X144274488Y-115773033D01*
X145015673Y-115752955D01*
X145754684Y-115692779D01*
X146489354Y-115592682D01*
X147217526Y-115452958D01*
X147937067Y-115274017D01*
X148645864Y-115056382D01*
X149341840Y-114800694D01*
X150022952Y-114507700D01*
X150687202Y-114178262D01*
X150756100Y-114139309D01*
X154351779Y-114139309D01*
X154381468Y-114409135D01*
X154381470Y-114409148D01*
X154416127Y-114541715D01*
X154450132Y-114671784D01*
X154556303Y-114921624D01*
X154628588Y-115040068D01*
X154697716Y-115153340D01*
X154697717Y-115153342D01*
X154787184Y-115260847D01*
X154871368Y-115362004D01*
X155073546Y-115543157D01*
X155299947Y-115692942D01*
X155545743Y-115808167D01*
X155805697Y-115886375D01*
X156074268Y-115925900D01*
X156074273Y-115925900D01*
X156277779Y-115925900D01*
X156277781Y-115925900D01*
X156277786Y-115925899D01*
X156277798Y-115925899D01*
X156315424Y-115923144D01*
X156480740Y-115911045D01*
X156591488Y-115886375D01*
X156745702Y-115852023D01*
X156745704Y-115852022D01*
X156745709Y-115852021D01*
X156999261Y-115755046D01*
X157235991Y-115622186D01*
X157450853Y-115456275D01*
X157639269Y-115260847D01*
X157797223Y-115040068D01*
X157921348Y-114798644D01*
X158008998Y-114541720D01*
X158058306Y-114274771D01*
X158068220Y-114003489D01*
X158038530Y-113733653D01*
X157969868Y-113471016D01*
X157863697Y-113221176D01*
X157722281Y-112989456D01*
X157548632Y-112780796D01*
X157346454Y-112599643D01*
X157226997Y-112520611D01*
X157120055Y-112449859D01*
X157120053Y-112449858D01*
X156874257Y-112334633D01*
X156614303Y-112256425D01*
X156614301Y-112256424D01*
X156614299Y-112256424D01*
X156517999Y-112242252D01*
X156345732Y-112216900D01*
X156142219Y-112216900D01*
X156142201Y-112216900D01*
X155939260Y-112231755D01*
X155939246Y-112231757D01*
X155674297Y-112290776D01*
X155674290Y-112290779D01*
X155420736Y-112387755D01*
X155184012Y-112520611D01*
X154969140Y-112686530D01*
X154969139Y-112686532D01*
X154780734Y-112881949D01*
X154780732Y-112881951D01*
X154622778Y-113102729D01*
X154498656Y-113344146D01*
X154498649Y-113344162D01*
X154411005Y-113601066D01*
X154411001Y-113601084D01*
X154361693Y-113868031D01*
X154361693Y-113868033D01*
X154351779Y-114139309D01*
X150756100Y-114139309D01*
X151332644Y-113813346D01*
X151957382Y-113414021D01*
X152559585Y-112981459D01*
X153137487Y-112516929D01*
X153689391Y-112021793D01*
X154213681Y-111497503D01*
X154708817Y-110945599D01*
X155173347Y-110367697D01*
X155605909Y-109765494D01*
X156005234Y-109140756D01*
X156370150Y-108495314D01*
X156699588Y-107831064D01*
X156992582Y-107149952D01*
X157248270Y-106453976D01*
X157465905Y-105745179D01*
X157644846Y-105025638D01*
X157784570Y-104297466D01*
X157884667Y-103562796D01*
X157944843Y-102823785D01*
X157964921Y-102082600D01*
X157944843Y-101341415D01*
X157884667Y-100602404D01*
X157784570Y-99867734D01*
X157644846Y-99139562D01*
X157465905Y-98420021D01*
X157248270Y-97711224D01*
X156992582Y-97015248D01*
X156966259Y-96954057D01*
X156904978Y-96811598D01*
X156699588Y-96334136D01*
X156370150Y-95669886D01*
X156005234Y-95024444D01*
X156005233Y-95024442D01*
X156005226Y-95024430D01*
X155605905Y-94399700D01*
X155173362Y-93797524D01*
X155173348Y-93797504D01*
X154708829Y-93219616D01*
X154708815Y-93219599D01*
X154428140Y-92906744D01*
X154213681Y-92667697D01*
X154213676Y-92667692D01*
X154213668Y-92667683D01*
X153689404Y-92143419D01*
X153674132Y-92129718D01*
X153137487Y-91648271D01*
X153136527Y-91647499D01*
X152559583Y-91183739D01*
X152559563Y-91183725D01*
X151957387Y-90751182D01*
X151332657Y-90351861D01*
X150861549Y-90085509D01*
X154351779Y-90085509D01*
X154381468Y-90355335D01*
X154381470Y-90355348D01*
X154445744Y-90601202D01*
X154450132Y-90617984D01*
X154556303Y-90867824D01*
X154587305Y-90918623D01*
X154697716Y-91099540D01*
X154697717Y-91099542D01*
X154775009Y-91192417D01*
X154871368Y-91308204D01*
X155073546Y-91489357D01*
X155299947Y-91639142D01*
X155545743Y-91754367D01*
X155805697Y-91832575D01*
X156074268Y-91872100D01*
X156074273Y-91872100D01*
X156277779Y-91872100D01*
X156277781Y-91872100D01*
X156277786Y-91872099D01*
X156277798Y-91872099D01*
X156315424Y-91869344D01*
X156480740Y-91857245D01*
X156531397Y-91845960D01*
X156745702Y-91798223D01*
X156745704Y-91798222D01*
X156745709Y-91798221D01*
X156999261Y-91701246D01*
X157235991Y-91568386D01*
X157450853Y-91402475D01*
X157639269Y-91207047D01*
X157797223Y-90986268D01*
X157921348Y-90744844D01*
X157985156Y-90557808D01*
X158008994Y-90487933D01*
X158008994Y-90487929D01*
X158008998Y-90487920D01*
X158058306Y-90220971D01*
X158068220Y-89949689D01*
X158038530Y-89679853D01*
X157969868Y-89417216D01*
X157863697Y-89167376D01*
X157728899Y-88946500D01*
X157722283Y-88935659D01*
X157722282Y-88935657D01*
X157632814Y-88828151D01*
X157548632Y-88726996D01*
X157500123Y-88683532D01*
X157346454Y-88545843D01*
X157120055Y-88396059D01*
X157111753Y-88392167D01*
X156874257Y-88280833D01*
X156614303Y-88202625D01*
X156614301Y-88202624D01*
X156614299Y-88202624D01*
X156517999Y-88188452D01*
X156345732Y-88163100D01*
X156142219Y-88163100D01*
X156142201Y-88163100D01*
X155939260Y-88177955D01*
X155939246Y-88177957D01*
X155674297Y-88236976D01*
X155674290Y-88236979D01*
X155420736Y-88333955D01*
X155184012Y-88466811D01*
X154969140Y-88632730D01*
X154969139Y-88632732D01*
X154780734Y-88828149D01*
X154780732Y-88828151D01*
X154622778Y-89048929D01*
X154498656Y-89290346D01*
X154498649Y-89290362D01*
X154411005Y-89547266D01*
X154411001Y-89547284D01*
X154361693Y-89814231D01*
X154361693Y-89814233D01*
X154351779Y-90085509D01*
X150861549Y-90085509D01*
X150819253Y-90061596D01*
X150687202Y-89986938D01*
X150662157Y-89974517D01*
X150068045Y-89679864D01*
X150022952Y-89657500D01*
X149624991Y-89486309D01*
X149341844Y-89364507D01*
X148645867Y-89108819D01*
X148616272Y-89099732D01*
X148553596Y-89080487D01*
X147937085Y-88891188D01*
X147937075Y-88891185D01*
X147937067Y-88891183D01*
X147217526Y-88712242D01*
X147217522Y-88712241D01*
X147217503Y-88712237D01*
X146489369Y-88572520D01*
X145754694Y-88472422D01*
X145754675Y-88472420D01*
X145015673Y-88412245D01*
X145015681Y-88412245D01*
X144274488Y-88392167D01*
X143533298Y-88412245D01*
X142794300Y-88472420D01*
X142794281Y-88472422D01*
X142059606Y-88572520D01*
X141331472Y-88712237D01*
X141331454Y-88712241D01*
X141331449Y-88712242D01*
X141331450Y-88712242D01*
X140611909Y-88891183D01*
X140611904Y-88891184D01*
X140611890Y-88891188D01*
X139903108Y-89108819D01*
X139207132Y-89364507D01*
X139207131Y-89364507D01*
X138539030Y-89651904D01*
X138526024Y-89657500D01*
X138526012Y-89657505D01*
X138526001Y-89657511D01*
X137861793Y-89986928D01*
X137861768Y-89986941D01*
X137216318Y-90351861D01*
X136591588Y-90751182D01*
X135989412Y-91183725D01*
X135989392Y-91183739D01*
X135411504Y-91648258D01*
X135411487Y-91648272D01*
X134859571Y-92143419D01*
X134335307Y-92667683D01*
X133840160Y-93219599D01*
X133840146Y-93219616D01*
X133375627Y-93797504D01*
X133375613Y-93797524D01*
X132943070Y-94399700D01*
X132543749Y-95024430D01*
X132178829Y-95669880D01*
X132178816Y-95669905D01*
X131849399Y-96334113D01*
X131849382Y-96334150D01*
X131556395Y-97015243D01*
X131556395Y-97015244D01*
X131300707Y-97711220D01*
X131083076Y-98420002D01*
X131083072Y-98420016D01*
X131083071Y-98420021D01*
X130982215Y-98825574D01*
X130904129Y-99139566D01*
X130904125Y-99139584D01*
X130764408Y-99867718D01*
X130664310Y-100602393D01*
X130664308Y-100602412D01*
X130604133Y-101341410D01*
X130584055Y-102082600D01*
X127888288Y-102082600D01*
X127886398Y-102065027D01*
X127886396Y-102065020D01*
X127836154Y-101930313D01*
X127836150Y-101930306D01*
X127749990Y-101815212D01*
X127749987Y-101815209D01*
X127634893Y-101729049D01*
X127634888Y-101729046D01*
X127503328Y-101679977D01*
X127447395Y-101638105D01*
X127422978Y-101572641D01*
X127437830Y-101504368D01*
X127458975Y-101476120D01*
X127581295Y-101353801D01*
X127716835Y-101160230D01*
X127816703Y-100946063D01*
X127877863Y-100717808D01*
X127898459Y-100482400D01*
X127877863Y-100246992D01*
X127816703Y-100018737D01*
X127716835Y-99804571D01*
X127645763Y-99703068D01*
X127581294Y-99610997D01*
X127414202Y-99443906D01*
X127414201Y-99443905D01*
X127243822Y-99324604D01*
X127228641Y-99313974D01*
X127185016Y-99259397D01*
X127177824Y-99189898D01*
X127209346Y-99127544D01*
X127228636Y-99110828D01*
X127414201Y-98980895D01*
X127581295Y-98813801D01*
X127716835Y-98620230D01*
X127816703Y-98406063D01*
X127877863Y-98177808D01*
X127898459Y-97942400D01*
X127877863Y-97706992D01*
X127850942Y-97606525D01*
X127852606Y-97536676D01*
X127883035Y-97486753D01*
X128958587Y-96411202D01*
X128970842Y-96401386D01*
X128970659Y-96401164D01*
X128976668Y-96396191D01*
X128976677Y-96396186D01*
X129023407Y-96346422D01*
X129024646Y-96345143D01*
X129044920Y-96324871D01*
X129049179Y-96319378D01*
X129052952Y-96314961D01*
X129084862Y-96280982D01*
X129094515Y-96263420D01*
X129105189Y-96247170D01*
X129117473Y-96231336D01*
X129135980Y-96188567D01*
X129138549Y-96183324D01*
X129160996Y-96142493D01*
X129160997Y-96142492D01*
X129165977Y-96123091D01*
X129172278Y-96104688D01*
X129180238Y-96086296D01*
X129187530Y-96040249D01*
X129188711Y-96034552D01*
X129200300Y-95989419D01*
X129200300Y-95969382D01*
X129201827Y-95949982D01*
X129204960Y-95930204D01*
X129200575Y-95883815D01*
X129200300Y-95877977D01*
X129200300Y-90136309D01*
X130399579Y-90136309D01*
X130429268Y-90406135D01*
X130429270Y-90406148D01*
X130484649Y-90617978D01*
X130497932Y-90668784D01*
X130604103Y-90918624D01*
X130645387Y-90986270D01*
X130745516Y-91150340D01*
X130745517Y-91150342D01*
X130834984Y-91257847D01*
X130919168Y-91359004D01*
X131121346Y-91540157D01*
X131347747Y-91689942D01*
X131593543Y-91805167D01*
X131853497Y-91883375D01*
X132122068Y-91922900D01*
X132122073Y-91922900D01*
X132325579Y-91922900D01*
X132325581Y-91922900D01*
X132325586Y-91922899D01*
X132325598Y-91922899D01*
X132363224Y-91920144D01*
X132528540Y-91908045D01*
X132639288Y-91883375D01*
X132793502Y-91849023D01*
X132793504Y-91849022D01*
X132793509Y-91849021D01*
X133047061Y-91752046D01*
X133283791Y-91619186D01*
X133498653Y-91453275D01*
X133687069Y-91257847D01*
X133845023Y-91037068D01*
X133969148Y-90795644D01*
X134035482Y-90601202D01*
X134056794Y-90538733D01*
X134056794Y-90538729D01*
X134056798Y-90538720D01*
X134106106Y-90271771D01*
X134116020Y-90000489D01*
X134086330Y-89730653D01*
X134017668Y-89468016D01*
X133911497Y-89218176D01*
X133770081Y-88986456D01*
X133596432Y-88777796D01*
X133394254Y-88596643D01*
X133357789Y-88572518D01*
X133167855Y-88446859D01*
X133167853Y-88446858D01*
X132922057Y-88331633D01*
X132662103Y-88253425D01*
X132662101Y-88253424D01*
X132662099Y-88253424D01*
X132550353Y-88236979D01*
X132393532Y-88213900D01*
X132190019Y-88213900D01*
X132190001Y-88213900D01*
X131987060Y-88228755D01*
X131987046Y-88228757D01*
X131722097Y-88287776D01*
X131722090Y-88287779D01*
X131468536Y-88384755D01*
X131231812Y-88517611D01*
X131016940Y-88683530D01*
X131016939Y-88683532D01*
X130828534Y-88878949D01*
X130828532Y-88878951D01*
X130670578Y-89099729D01*
X130546456Y-89341146D01*
X130546449Y-89341162D01*
X130458805Y-89598066D01*
X130458801Y-89598084D01*
X130409493Y-89865031D01*
X130409493Y-89865033D01*
X130399579Y-90136309D01*
X129200300Y-90136309D01*
X129200300Y-87838852D01*
X129219985Y-87771813D01*
X129236619Y-87751171D01*
X129889772Y-87098019D01*
X129951095Y-87064534D01*
X129977453Y-87061700D01*
X146945057Y-87061700D01*
X146960677Y-87063424D01*
X146960704Y-87063139D01*
X146968466Y-87063873D01*
X146968466Y-87063872D01*
X146968467Y-87063873D01*
X146971799Y-87063768D01*
X147036647Y-87061731D01*
X147038594Y-87061700D01*
X147067147Y-87061700D01*
X147067150Y-87061700D01*
X147074028Y-87060830D01*
X147079841Y-87060372D01*
X147126427Y-87058909D01*
X147145669Y-87053317D01*
X147164712Y-87049374D01*
X147184592Y-87046864D01*
X147227922Y-87029707D01*
X147233446Y-87027817D01*
X147237196Y-87026727D01*
X147278190Y-87014818D01*
X147295429Y-87004622D01*
X147312903Y-86996062D01*
X147331527Y-86988688D01*
X147331527Y-86988687D01*
X147331532Y-86988686D01*
X147369249Y-86961282D01*
X147374105Y-86958092D01*
X147414220Y-86934370D01*
X147428389Y-86920199D01*
X147443179Y-86907568D01*
X147459387Y-86895794D01*
X147489099Y-86859876D01*
X147493012Y-86855576D01*
X149713572Y-84635017D01*
X149774893Y-84601534D01*
X149841512Y-84605418D01*
X149893029Y-84623104D01*
X149921185Y-84632771D01*
X150166465Y-84673700D01*
X150415135Y-84673700D01*
X150660414Y-84632771D01*
X150895610Y-84552028D01*
X151114309Y-84433674D01*
X151310544Y-84280938D01*
X151469571Y-84108188D01*
X151529457Y-84072199D01*
X151599295Y-84074299D01*
X151652028Y-84108188D01*
X151811056Y-84280938D01*
X152007291Y-84433674D01*
X152007293Y-84433675D01*
X152141717Y-84506422D01*
X152225990Y-84552028D01*
X152461186Y-84632771D01*
X152706465Y-84673700D01*
X152955135Y-84673700D01*
X153200414Y-84632771D01*
X153280087Y-84605418D01*
X153349882Y-84602268D01*
X153408028Y-84635018D01*
X154044160Y-85271151D01*
X154653197Y-85880188D01*
X154663022Y-85892451D01*
X154663243Y-85892269D01*
X154668211Y-85898274D01*
X154668213Y-85898276D01*
X154668214Y-85898277D01*
X154694095Y-85922581D01*
X154717932Y-85944966D01*
X154719332Y-85946323D01*
X154739523Y-85966515D01*
X154739527Y-85966518D01*
X154739529Y-85966520D01*
X154745011Y-85970773D01*
X154749443Y-85974557D01*
X154783418Y-86006462D01*
X154800976Y-86016114D01*
X154817233Y-86026793D01*
X154833064Y-86039073D01*
X154852737Y-86047586D01*
X154875833Y-86057582D01*
X154881077Y-86060150D01*
X154921908Y-86082597D01*
X154934523Y-86085835D01*
X154941305Y-86087577D01*
X154959719Y-86093881D01*
X154978104Y-86101838D01*
X155024157Y-86109132D01*
X155029826Y-86110306D01*
X155074981Y-86121900D01*
X155095016Y-86121900D01*
X155114413Y-86123426D01*
X155134196Y-86126560D01*
X155180583Y-86122175D01*
X155186422Y-86121900D01*
X155338115Y-86121900D01*
X155405154Y-86141585D01*
X155450909Y-86194389D01*
X155460853Y-86263547D01*
X155456046Y-86284218D01*
X155451327Y-86298740D01*
X155451326Y-86298743D01*
X155443555Y-86372684D01*
X155431540Y-86487000D01*
X155451326Y-86675256D01*
X155451327Y-86675259D01*
X155509818Y-86855277D01*
X155509821Y-86855284D01*
X155604467Y-87019216D01*
X155701597Y-87127089D01*
X155731129Y-87159888D01*
X155884265Y-87271148D01*
X155884270Y-87271151D01*
X156057192Y-87348142D01*
X156057197Y-87348144D01*
X156242354Y-87387500D01*
X156242355Y-87387500D01*
X156431644Y-87387500D01*
X156431646Y-87387500D01*
X156616803Y-87348144D01*
X156789730Y-87271151D01*
X156942871Y-87159888D01*
X156945788Y-87156647D01*
X156948600Y-87153526D01*
X157008087Y-87116879D01*
X157040748Y-87112500D01*
X158829296Y-87112500D01*
X158896335Y-87132185D01*
X158902160Y-87136167D01*
X158983070Y-87194951D01*
X159155992Y-87271942D01*
X159155997Y-87271944D01*
X159341154Y-87311300D01*
X159341155Y-87311300D01*
X159530444Y-87311300D01*
X159530446Y-87311300D01*
X159701920Y-87274852D01*
X159771585Y-87280168D01*
X159827319Y-87322305D01*
X159851424Y-87387885D01*
X159851699Y-87396142D01*
X159851699Y-118942547D01*
X159832014Y-119009586D01*
X159815380Y-119030228D01*
X153015428Y-125830181D01*
X152954105Y-125863666D01*
X152927747Y-125866500D01*
X148709548Y-125866500D01*
X148642509Y-125846815D01*
X148617400Y-125825474D01*
X148611673Y-125819114D01*
X148611669Y-125819110D01*
X148458534Y-125707851D01*
X148458529Y-125707848D01*
X148285607Y-125630857D01*
X148285602Y-125630855D01*
X148139800Y-125599865D01*
X148100446Y-125591500D01*
X147911154Y-125591500D01*
X147878697Y-125598398D01*
X147725997Y-125630855D01*
X147725992Y-125630857D01*
X147553070Y-125707848D01*
X147553065Y-125707851D01*
X147399929Y-125819111D01*
X147273266Y-125959785D01*
X147178621Y-126123715D01*
X147178618Y-126123722D01*
X147120127Y-126303740D01*
X147120126Y-126303744D01*
X147103377Y-126463101D01*
X147100340Y-126491999D01*
X147120126Y-126680257D01*
X147141352Y-126745581D01*
X147143347Y-126815423D01*
X147107267Y-126875256D01*
X147044566Y-126906084D01*
X147023421Y-126907900D01*
X146321948Y-126907900D01*
X146254909Y-126888215D01*
X146229800Y-126866874D01*
X146224073Y-126860514D01*
X146224069Y-126860510D01*
X146070934Y-126749251D01*
X146070929Y-126749248D01*
X145898007Y-126672257D01*
X145898002Y-126672255D01*
X145752201Y-126641265D01*
X145712846Y-126632900D01*
X145523554Y-126632900D01*
X145491097Y-126639798D01*
X145338397Y-126672255D01*
X145338392Y-126672257D01*
X145165470Y-126749248D01*
X145165465Y-126749251D01*
X145012329Y-126860511D01*
X144885666Y-127001185D01*
X144791021Y-127165115D01*
X144791018Y-127165122D01*
X144732527Y-127345140D01*
X144732526Y-127345144D01*
X144712740Y-127533400D01*
X144732526Y-127721656D01*
X144732527Y-127721659D01*
X144791018Y-127901677D01*
X144791021Y-127901684D01*
X144885667Y-128065616D01*
X144987385Y-128178585D01*
X145012329Y-128206288D01*
X145165465Y-128317548D01*
X145165470Y-128317551D01*
X145338392Y-128394542D01*
X145338397Y-128394544D01*
X145344352Y-128395810D01*
X145405834Y-128429002D01*
X145439610Y-128490165D01*
X145434958Y-128559880D01*
X145393353Y-128616012D01*
X145328006Y-128640741D01*
X145318571Y-128641100D01*
X112232693Y-128641100D01*
X112231130Y-128641080D01*
X112142837Y-128638843D01*
X112142828Y-128638843D01*
X112082459Y-128649664D01*
X112077791Y-128650319D01*
X112059564Y-128652172D01*
X112036789Y-128652385D01*
X112021275Y-128651100D01*
X112021267Y-128651100D01*
X111397133Y-128651100D01*
X111397122Y-128651100D01*
X111211386Y-128666490D01*
X111211375Y-128666492D01*
X110970318Y-128727536D01*
X110742593Y-128827426D01*
X110534417Y-128963433D01*
X110351461Y-129131857D01*
X110198724Y-129328093D01*
X110080372Y-129546788D01*
X110080369Y-129546797D01*
X109999629Y-129781983D01*
X109958700Y-130027265D01*
X109958700Y-130275934D01*
X109999629Y-130521216D01*
X110080369Y-130756402D01*
X110080372Y-130756411D01*
X110143370Y-130872821D01*
X110198726Y-130975109D01*
X110351462Y-131171344D01*
X110470261Y-131280706D01*
X110534417Y-131339766D01*
X110742593Y-131475773D01*
X110970318Y-131575663D01*
X111074530Y-131602053D01*
X111211379Y-131636708D01*
X111211381Y-131636708D01*
X111211386Y-131636709D01*
X111364789Y-131649419D01*
X111397133Y-131652100D01*
X111397137Y-131652100D01*
X112021263Y-131652100D01*
X112021267Y-131652100D01*
X112083877Y-131646911D01*
X112207013Y-131636709D01*
X112207016Y-131636708D01*
X112207021Y-131636708D01*
X112448081Y-131575663D01*
X112675807Y-131475773D01*
X112883985Y-131339764D01*
X113066938Y-131171344D01*
X113219674Y-130975109D01*
X113338028Y-130756410D01*
X113348523Y-130725837D01*
X113388909Y-130668822D01*
X113453709Y-130642691D01*
X113465805Y-130642100D01*
X153459542Y-130642100D01*
X153461104Y-130642119D01*
X153498318Y-130643062D01*
X153549393Y-130644357D01*
X153549393Y-130644356D01*
X153549398Y-130644357D01*
X153609788Y-130633532D01*
X153614447Y-130632880D01*
X153656642Y-130628588D01*
X153675473Y-130626674D01*
X153708262Y-130616386D01*
X153715875Y-130614518D01*
X153749688Y-130608458D01*
X153806656Y-130585701D01*
X153811088Y-130584124D01*
X153869623Y-130565759D01*
X153899662Y-130549084D01*
X153906743Y-130545722D01*
X153938652Y-130532977D01*
X153989889Y-130499208D01*
X153993886Y-130496787D01*
X154047537Y-130467009D01*
X154073603Y-130444630D01*
X154079878Y-130439900D01*
X154108554Y-130421002D01*
X154151927Y-130377627D01*
X154155385Y-130374423D01*
X154158648Y-130371620D01*
X154201930Y-130334466D01*
X154222963Y-130307291D01*
X154228133Y-130301421D01*
X159699657Y-124829898D01*
X159699657Y-124829897D01*
X165015435Y-119514117D01*
X165076758Y-119480633D01*
X165146450Y-119485617D01*
X165190797Y-119514117D01*
X182925042Y-137248363D01*
X182926101Y-137249450D01*
X182986937Y-137313450D01*
X182986941Y-137313453D01*
X183037281Y-137348492D01*
X183041043Y-137351328D01*
X183088587Y-137390094D01*
X183088590Y-137390095D01*
X183088593Y-137390098D01*
X183119045Y-137406004D01*
X183125758Y-137410072D01*
X183153951Y-137429695D01*
X183210329Y-137453889D01*
X183214578Y-137455907D01*
X183268951Y-137484309D01*
X183296489Y-137492188D01*
X183301974Y-137493758D01*
X183309368Y-137496390D01*
X183340942Y-137509940D01*
X183340945Y-137509940D01*
X183340946Y-137509941D01*
X183401022Y-137522287D01*
X183405600Y-137523410D01*
X183419501Y-137527387D01*
X183464582Y-137540287D01*
X183498839Y-137542895D01*
X183506614Y-137543986D01*
X183540255Y-137550900D01*
X183540259Y-137550900D01*
X183601599Y-137550900D01*
X183606305Y-137551078D01*
X183641063Y-137553725D01*
X183667476Y-137555737D01*
X183667476Y-137555736D01*
X183667477Y-137555737D01*
X183701560Y-137551396D01*
X183709390Y-137550900D01*
X187781914Y-137550900D01*
X187848953Y-137570585D01*
X187894112Y-137622103D01*
X187935065Y-137709132D01*
X187935068Y-137709138D01*
X188096911Y-137964163D01*
X188096914Y-137964167D01*
X188096915Y-137964168D01*
X188258925Y-138160005D01*
X188289452Y-138196905D01*
X188362846Y-138265827D01*
X188419631Y-138319152D01*
X188509636Y-138403672D01*
X188509646Y-138403680D01*
X188753993Y-138581208D01*
X188753998Y-138581210D01*
X188754005Y-138581216D01*
X189018696Y-138726732D01*
X189018701Y-138726734D01*
X189018703Y-138726735D01*
X189018704Y-138726736D01*
X189299534Y-138837924D01*
X189299537Y-138837925D01*
X189358754Y-138853129D01*
X189592102Y-138913042D01*
X189738839Y-138931579D01*
X189891763Y-138950899D01*
X189891769Y-138950899D01*
X189891773Y-138950900D01*
X189891775Y-138950900D01*
X190193825Y-138950900D01*
X190193827Y-138950900D01*
X190193832Y-138950899D01*
X190193836Y-138950899D01*
X190273391Y-138940848D01*
X190493498Y-138913042D01*
X190786062Y-138837925D01*
X190786065Y-138837924D01*
X191066895Y-138726736D01*
X191066896Y-138726735D01*
X191066894Y-138726735D01*
X191066904Y-138726732D01*
X191331595Y-138581216D01*
X191575962Y-138403674D01*
X191796149Y-138196904D01*
X191988685Y-137964168D01*
X192150533Y-137709136D01*
X192279141Y-137435830D01*
X192372481Y-137148560D01*
X192429080Y-136851857D01*
X192448046Y-136550400D01*
X192429080Y-136248943D01*
X192372481Y-135952240D01*
X192279141Y-135664970D01*
X192150533Y-135391664D01*
X192048585Y-135231019D01*
X191988688Y-135136636D01*
X191988685Y-135136632D01*
X191796149Y-134903896D01*
X191575962Y-134697126D01*
X191575959Y-134697124D01*
X191575953Y-134697119D01*
X191331606Y-134519591D01*
X191331599Y-134519586D01*
X191331595Y-134519584D01*
X191066904Y-134374068D01*
X191066901Y-134374066D01*
X191066896Y-134374064D01*
X191066895Y-134374063D01*
X190786065Y-134262875D01*
X190786062Y-134262874D01*
X190519772Y-134194504D01*
X190459734Y-134158766D01*
X190428548Y-134096243D01*
X190436116Y-134026784D01*
X190480034Y-133972443D01*
X190546360Y-133950473D01*
X190550609Y-133950400D01*
X191990628Y-133950400D01*
X191990644Y-133950399D01*
X192050172Y-133943998D01*
X192050179Y-133943996D01*
X192184886Y-133893754D01*
X192184893Y-133893750D01*
X192299987Y-133807590D01*
X192299990Y-133807587D01*
X192386150Y-133692493D01*
X192386154Y-133692486D01*
X192436396Y-133557779D01*
X192436398Y-133557772D01*
X192442799Y-133498244D01*
X192442800Y-133498227D01*
X192442800Y-131800400D01*
X191373436Y-131800400D01*
X191377369Y-131785721D01*
X191397957Y-131550400D01*
X191377369Y-131315079D01*
X191373436Y-131300400D01*
X192442800Y-131300400D01*
X192442800Y-129602572D01*
X192442799Y-129602555D01*
X192436398Y-129543027D01*
X192436396Y-129543020D01*
X192386154Y-129408313D01*
X192386150Y-129408306D01*
X192299990Y-129293212D01*
X192299987Y-129293209D01*
X192184893Y-129207049D01*
X192184886Y-129207045D01*
X192050179Y-129156803D01*
X192050172Y-129156801D01*
X191990644Y-129150400D01*
X190292800Y-129150400D01*
X190292800Y-130219764D01*
X190278121Y-130215831D01*
X190101745Y-130200400D01*
X189983855Y-130200400D01*
X189807479Y-130215831D01*
X189792800Y-130219764D01*
X189792800Y-129150400D01*
X188094955Y-129150400D01*
X188035427Y-129156801D01*
X188035420Y-129156803D01*
X187900713Y-129207045D01*
X187900706Y-129207049D01*
X187785612Y-129293209D01*
X187785609Y-129293212D01*
X187699449Y-129408306D01*
X187699445Y-129408313D01*
X187649203Y-129543020D01*
X187649201Y-129543027D01*
X187642800Y-129602555D01*
X187642800Y-131300400D01*
X188712164Y-131300400D01*
X188708231Y-131315079D01*
X188687643Y-131550400D01*
X188708231Y-131785721D01*
X188712164Y-131800400D01*
X187642800Y-131800400D01*
X187642800Y-133498244D01*
X187649201Y-133557772D01*
X187649203Y-133557779D01*
X187699445Y-133692486D01*
X187699449Y-133692493D01*
X187785609Y-133807587D01*
X187785612Y-133807590D01*
X187900706Y-133893750D01*
X187900713Y-133893754D01*
X188035420Y-133943996D01*
X188035427Y-133943998D01*
X188094955Y-133950399D01*
X188094972Y-133950400D01*
X189534991Y-133950400D01*
X189602030Y-133970085D01*
X189647785Y-134022889D01*
X189657729Y-134092047D01*
X189628704Y-134155603D01*
X189569926Y-134193377D01*
X189565828Y-134194504D01*
X189299537Y-134262874D01*
X189299534Y-134262875D01*
X189018704Y-134374063D01*
X189018703Y-134374064D01*
X188754005Y-134519584D01*
X188753993Y-134519591D01*
X188509646Y-134697119D01*
X188509636Y-134697127D01*
X188289452Y-134903894D01*
X188096911Y-135136636D01*
X187935068Y-135391661D01*
X187935065Y-135391667D01*
X187894112Y-135478697D01*
X187847757Y-135530975D01*
X187781914Y-135549900D01*
X184107782Y-135549900D01*
X184040743Y-135530215D01*
X184020101Y-135513581D01*
X168623126Y-120116605D01*
X187281954Y-120116605D01*
X187300918Y-120418046D01*
X187300919Y-120418053D01*
X187357520Y-120714764D01*
X187450859Y-121002031D01*
X187450861Y-121002036D01*
X187579465Y-121275332D01*
X187579468Y-121275338D01*
X187741311Y-121530363D01*
X187933852Y-121763105D01*
X188154036Y-121969872D01*
X188154046Y-121969880D01*
X188398393Y-122147408D01*
X188398398Y-122147410D01*
X188398405Y-122147416D01*
X188663096Y-122292932D01*
X188663101Y-122292934D01*
X188663103Y-122292935D01*
X188663104Y-122292936D01*
X188943934Y-122404124D01*
X188943937Y-122404125D01*
X189041459Y-122429163D01*
X189236502Y-122479242D01*
X189383239Y-122497779D01*
X189536163Y-122517099D01*
X189536169Y-122517099D01*
X189536173Y-122517100D01*
X189536175Y-122517100D01*
X189838225Y-122517100D01*
X189838227Y-122517100D01*
X189838232Y-122517099D01*
X189838236Y-122517099D01*
X189917791Y-122507048D01*
X190137898Y-122479242D01*
X190430462Y-122404125D01*
X190430465Y-122404124D01*
X190711295Y-122292936D01*
X190711296Y-122292935D01*
X190711294Y-122292935D01*
X190711304Y-122292932D01*
X190975995Y-122147416D01*
X191220362Y-121969874D01*
X191440549Y-121763104D01*
X191633085Y-121530368D01*
X191794933Y-121275336D01*
X191923541Y-121002030D01*
X192016881Y-120714760D01*
X192073480Y-120418057D01*
X192092446Y-120116600D01*
X192073480Y-119815143D01*
X192016881Y-119518440D01*
X191923541Y-119231170D01*
X191794933Y-118957864D01*
X191633085Y-118702832D01*
X191440549Y-118470096D01*
X191220362Y-118263326D01*
X191220359Y-118263324D01*
X191220353Y-118263319D01*
X190976006Y-118085791D01*
X190975999Y-118085786D01*
X190975995Y-118085784D01*
X190711304Y-117940268D01*
X190711301Y-117940266D01*
X190711296Y-117940264D01*
X190711295Y-117940263D01*
X190430465Y-117829075D01*
X190430462Y-117829074D01*
X190137895Y-117753957D01*
X189838236Y-117716100D01*
X189838227Y-117716100D01*
X189536173Y-117716100D01*
X189536163Y-117716100D01*
X189236504Y-117753957D01*
X188943937Y-117829074D01*
X188943934Y-117829075D01*
X188663104Y-117940263D01*
X188663103Y-117940264D01*
X188398405Y-118085784D01*
X188398393Y-118085791D01*
X188154046Y-118263319D01*
X188154036Y-118263327D01*
X187933852Y-118470094D01*
X187741311Y-118702836D01*
X187579468Y-118957861D01*
X187579465Y-118957867D01*
X187450861Y-119231163D01*
X187450859Y-119231168D01*
X187357520Y-119518435D01*
X187300919Y-119815146D01*
X187300918Y-119815153D01*
X187281954Y-120116594D01*
X187281954Y-120116605D01*
X168623126Y-120116605D01*
X166605718Y-118099197D01*
X166572233Y-118037874D01*
X166577217Y-117968182D01*
X166605716Y-117923837D01*
X168744381Y-115785172D01*
X168745394Y-115784185D01*
X168809453Y-115723294D01*
X168844499Y-115672941D01*
X168847338Y-115669176D01*
X168851012Y-115664670D01*
X168886098Y-115621642D01*
X168902001Y-115591195D01*
X168906074Y-115584474D01*
X168917684Y-115567793D01*
X168925695Y-115556284D01*
X168949892Y-115499895D01*
X168951898Y-115495670D01*
X168980309Y-115441284D01*
X168989760Y-115408250D01*
X168992391Y-115400863D01*
X169005940Y-115369293D01*
X169018293Y-115309175D01*
X169019406Y-115304647D01*
X169036287Y-115245653D01*
X169038895Y-115211390D01*
X169039987Y-115203611D01*
X169046900Y-115169974D01*
X169046900Y-115108636D01*
X169047079Y-115103927D01*
X169051737Y-115042761D01*
X169051394Y-115040070D01*
X169047397Y-115008677D01*
X169046900Y-115000838D01*
X169046900Y-101879405D01*
X187256554Y-101879405D01*
X187275518Y-102180846D01*
X187275519Y-102180853D01*
X187332120Y-102477564D01*
X187425459Y-102764831D01*
X187425461Y-102764836D01*
X187554065Y-103038132D01*
X187554068Y-103038138D01*
X187715911Y-103293163D01*
X187715914Y-103293167D01*
X187715915Y-103293168D01*
X187892878Y-103507080D01*
X187908452Y-103525905D01*
X188128636Y-103732672D01*
X188128646Y-103732680D01*
X188372993Y-103910208D01*
X188372998Y-103910210D01*
X188373005Y-103910216D01*
X188637696Y-104055732D01*
X188637701Y-104055734D01*
X188637703Y-104055735D01*
X188637704Y-104055736D01*
X188918534Y-104166924D01*
X188918537Y-104166925D01*
X189016059Y-104191963D01*
X189211102Y-104242042D01*
X189357839Y-104260579D01*
X189510763Y-104279899D01*
X189510769Y-104279899D01*
X189510773Y-104279900D01*
X189510775Y-104279900D01*
X189812825Y-104279900D01*
X189812827Y-104279900D01*
X189812832Y-104279899D01*
X189812836Y-104279899D01*
X189892391Y-104269848D01*
X190112498Y-104242042D01*
X190405062Y-104166925D01*
X190405065Y-104166924D01*
X190685895Y-104055736D01*
X190685896Y-104055735D01*
X190685894Y-104055735D01*
X190685904Y-104055732D01*
X190950595Y-103910216D01*
X191194962Y-103732674D01*
X191415149Y-103525904D01*
X191607685Y-103293168D01*
X191769533Y-103038136D01*
X191898141Y-102764830D01*
X191991481Y-102477560D01*
X192048080Y-102180857D01*
X192051621Y-102124572D01*
X192067046Y-101879405D01*
X192067046Y-101879394D01*
X192048081Y-101577953D01*
X192048080Y-101577946D01*
X192048080Y-101577943D01*
X191991481Y-101281240D01*
X191898141Y-100993970D01*
X191769533Y-100720664D01*
X191694476Y-100602393D01*
X191607688Y-100465636D01*
X191607685Y-100465632D01*
X191415149Y-100232896D01*
X191194962Y-100026126D01*
X191194959Y-100026124D01*
X191194953Y-100026119D01*
X190950606Y-99848591D01*
X190950599Y-99848586D01*
X190950595Y-99848584D01*
X190685904Y-99703068D01*
X190685901Y-99703066D01*
X190685896Y-99703064D01*
X190685895Y-99703063D01*
X190405065Y-99591875D01*
X190405062Y-99591874D01*
X190112495Y-99516757D01*
X189812836Y-99478900D01*
X189812827Y-99478900D01*
X189510773Y-99478900D01*
X189510763Y-99478900D01*
X189211104Y-99516757D01*
X188918537Y-99591874D01*
X188918534Y-99591875D01*
X188637704Y-99703063D01*
X188637703Y-99703064D01*
X188373005Y-99848584D01*
X188372993Y-99848591D01*
X188128646Y-100026119D01*
X188128636Y-100026127D01*
X187908452Y-100232894D01*
X187715911Y-100465636D01*
X187554068Y-100720661D01*
X187554065Y-100720667D01*
X187425461Y-100993963D01*
X187425459Y-100993968D01*
X187332120Y-101281235D01*
X187275519Y-101577946D01*
X187275518Y-101577953D01*
X187256554Y-101879394D01*
X187256554Y-101879405D01*
X169046900Y-101879405D01*
X169046900Y-98719001D01*
X173194300Y-98719001D01*
X173194301Y-98719018D01*
X173204800Y-98821796D01*
X173204801Y-98821799D01*
X173236243Y-98916682D01*
X173259986Y-98988334D01*
X173352088Y-99137656D01*
X173476144Y-99261712D01*
X173625466Y-99353814D01*
X173792003Y-99408999D01*
X173894791Y-99419500D01*
X174694808Y-99419499D01*
X174694816Y-99419498D01*
X174694819Y-99419498D01*
X174755943Y-99413254D01*
X174797597Y-99408999D01*
X174964134Y-99353814D01*
X175113456Y-99261712D01*
X175237512Y-99137656D01*
X175276615Y-99074258D01*
X175328561Y-99027535D01*
X175397523Y-99016312D01*
X175461606Y-99044155D01*
X175479624Y-99062705D01*
X175494707Y-99081885D01*
X175494709Y-99081887D01*
X175653546Y-99219521D01*
X175835550Y-99324601D01*
X175835552Y-99324601D01*
X175835556Y-99324604D01*
X176034167Y-99393344D01*
X176242198Y-99423254D01*
X176452130Y-99413254D01*
X176656376Y-99363704D01*
X176777551Y-99308365D01*
X176847543Y-99276401D01*
X176847546Y-99276399D01*
X176847553Y-99276396D01*
X177018752Y-99154486D01*
X177034799Y-99137657D01*
X177163785Y-99002379D01*
X177172810Y-98988336D01*
X177277413Y-98825572D01*
X177355525Y-98630457D01*
X177395300Y-98424085D01*
X177395300Y-97716575D01*
X177380328Y-97559782D01*
X177321116Y-97358125D01*
X177224811Y-97171318D01*
X177224809Y-97171316D01*
X177224808Y-97171313D01*
X177094894Y-97006116D01*
X177094890Y-97006112D01*
X176936053Y-96868478D01*
X176754049Y-96763398D01*
X176754045Y-96763396D01*
X176754044Y-96763396D01*
X176555433Y-96694656D01*
X176347402Y-96664746D01*
X176347398Y-96664746D01*
X176137472Y-96674745D01*
X175933221Y-96724296D01*
X175933217Y-96724298D01*
X175742056Y-96811598D01*
X175742051Y-96811601D01*
X175570846Y-96933515D01*
X175570845Y-96933515D01*
X175473049Y-97036082D01*
X175412540Y-97071017D01*
X175342749Y-97067692D01*
X175285835Y-97027164D01*
X175277767Y-97015608D01*
X175271910Y-97006112D01*
X175237512Y-96950344D01*
X175113456Y-96826288D01*
X175019547Y-96768365D01*
X174964136Y-96734187D01*
X174964131Y-96734185D01*
X174934288Y-96724296D01*
X174797597Y-96679001D01*
X174797595Y-96679000D01*
X174694810Y-96668500D01*
X173894798Y-96668500D01*
X173894780Y-96668501D01*
X173792003Y-96679000D01*
X173792000Y-96679001D01*
X173625468Y-96734185D01*
X173625463Y-96734187D01*
X173476142Y-96826289D01*
X173352089Y-96950342D01*
X173259987Y-97099663D01*
X173259985Y-97099668D01*
X173238160Y-97165532D01*
X173204801Y-97266203D01*
X173204801Y-97266204D01*
X173204800Y-97266204D01*
X173194300Y-97368983D01*
X173194300Y-98719001D01*
X169046900Y-98719001D01*
X169046900Y-94494900D01*
X169066585Y-94427861D01*
X169119389Y-94382106D01*
X169170900Y-94370900D01*
X170644335Y-94370900D01*
X170645897Y-94370919D01*
X170683111Y-94371862D01*
X170734186Y-94373157D01*
X170734186Y-94373156D01*
X170734191Y-94373157D01*
X170794581Y-94362332D01*
X170799240Y-94361680D01*
X170841435Y-94357388D01*
X170860266Y-94355474D01*
X170893055Y-94345186D01*
X170900668Y-94343318D01*
X170934481Y-94337258D01*
X170991449Y-94314501D01*
X170995881Y-94312924D01*
X171054416Y-94294559D01*
X171084455Y-94277884D01*
X171091536Y-94274522D01*
X171123445Y-94261777D01*
X171174682Y-94228008D01*
X171178679Y-94225587D01*
X171232330Y-94195809D01*
X171258396Y-94173430D01*
X171264671Y-94168700D01*
X171285611Y-94154900D01*
X171293347Y-94149802D01*
X171336720Y-94106427D01*
X171340178Y-94103223D01*
X171360937Y-94085402D01*
X171386723Y-94063266D01*
X171407756Y-94036091D01*
X171412926Y-94030221D01*
X173124329Y-92318817D01*
X173185652Y-92285333D01*
X173212010Y-92282499D01*
X173871871Y-92282499D01*
X173871872Y-92282499D01*
X173931483Y-92276091D01*
X174066331Y-92225796D01*
X174181546Y-92139546D01*
X174267796Y-92024331D01*
X174316810Y-91892916D01*
X174358681Y-91836984D01*
X174424145Y-91812566D01*
X174492418Y-91827417D01*
X174520673Y-91848569D01*
X174642599Y-91970495D01*
X174738926Y-92037944D01*
X174836165Y-92106032D01*
X174836167Y-92106033D01*
X174836170Y-92106035D01*
X175050337Y-92205903D01*
X175278592Y-92267063D01*
X175466918Y-92283539D01*
X175513999Y-92287659D01*
X175514000Y-92287659D01*
X175514001Y-92287659D01*
X175553234Y-92284226D01*
X175749408Y-92267063D01*
X175977663Y-92205903D01*
X176191830Y-92106035D01*
X176385401Y-91970495D01*
X176552495Y-91803401D01*
X176682730Y-91617405D01*
X176737307Y-91573781D01*
X176806805Y-91566587D01*
X176869160Y-91598110D01*
X176885879Y-91617405D01*
X177015890Y-91803078D01*
X177182917Y-91970105D01*
X177376421Y-92105600D01*
X177590507Y-92205429D01*
X177590516Y-92205433D01*
X177804000Y-92262634D01*
X177804000Y-91367501D01*
X177911685Y-91416680D01*
X178018237Y-91432000D01*
X178089763Y-91432000D01*
X178196315Y-91416680D01*
X178304000Y-91367501D01*
X178304000Y-92262633D01*
X178517483Y-92205433D01*
X178517492Y-92205429D01*
X178731578Y-92105600D01*
X178925082Y-91970105D01*
X179092105Y-91803082D01*
X179222119Y-91617405D01*
X179276696Y-91573781D01*
X179346195Y-91566588D01*
X179408549Y-91598110D01*
X179425269Y-91617405D01*
X179435531Y-91632061D01*
X179555505Y-91803401D01*
X179722599Y-91970495D01*
X179818926Y-92037944D01*
X179916165Y-92106032D01*
X179916167Y-92106033D01*
X179916170Y-92106035D01*
X180130337Y-92205903D01*
X180358592Y-92267063D01*
X180546918Y-92283539D01*
X180593999Y-92287659D01*
X180594000Y-92287659D01*
X180594001Y-92287659D01*
X180633234Y-92284226D01*
X180829408Y-92267063D01*
X181057663Y-92205903D01*
X181271830Y-92106035D01*
X181465401Y-91970495D01*
X181632495Y-91803401D01*
X181746891Y-91640026D01*
X181762425Y-91617842D01*
X181817002Y-91574217D01*
X181886500Y-91567023D01*
X181948855Y-91598546D01*
X181965575Y-91617842D01*
X182095281Y-91803082D01*
X182095505Y-91803401D01*
X182262599Y-91970495D01*
X182358926Y-92037944D01*
X182456165Y-92106032D01*
X182456167Y-92106033D01*
X182456170Y-92106035D01*
X182670337Y-92205903D01*
X182898592Y-92267063D01*
X183086918Y-92283539D01*
X183133999Y-92287659D01*
X183134000Y-92287659D01*
X183134001Y-92287659D01*
X183173234Y-92284226D01*
X183369408Y-92267063D01*
X183597663Y-92205903D01*
X183811830Y-92106035D01*
X184005401Y-91970495D01*
X184172495Y-91803401D01*
X184302426Y-91617840D01*
X184357001Y-91574217D01*
X184426499Y-91567023D01*
X184488854Y-91598546D01*
X184505574Y-91617841D01*
X184526882Y-91648271D01*
X184635505Y-91803401D01*
X184802599Y-91970495D01*
X184898926Y-92037944D01*
X184996165Y-92106032D01*
X184996167Y-92106033D01*
X184996170Y-92106035D01*
X185210337Y-92205903D01*
X185438592Y-92267063D01*
X185626918Y-92283539D01*
X185673999Y-92287659D01*
X185674000Y-92287659D01*
X185674001Y-92287659D01*
X185713234Y-92284226D01*
X185909408Y-92267063D01*
X186137663Y-92205903D01*
X186351830Y-92106035D01*
X186545401Y-91970495D01*
X186712495Y-91803401D01*
X186826891Y-91640026D01*
X186842425Y-91617842D01*
X186897002Y-91574217D01*
X186966500Y-91567023D01*
X187028855Y-91598546D01*
X187045575Y-91617842D01*
X187175281Y-91803082D01*
X187175505Y-91803401D01*
X187342599Y-91970495D01*
X187438926Y-92037944D01*
X187536165Y-92106032D01*
X187536167Y-92106033D01*
X187536170Y-92106035D01*
X187750337Y-92205903D01*
X187978592Y-92267063D01*
X188166918Y-92283539D01*
X188213999Y-92287659D01*
X188214000Y-92287659D01*
X188214001Y-92287659D01*
X188253234Y-92284226D01*
X188449408Y-92267063D01*
X188677663Y-92205903D01*
X188891830Y-92106035D01*
X189085401Y-91970495D01*
X189252495Y-91803401D01*
X189382730Y-91617405D01*
X189437307Y-91573781D01*
X189506805Y-91566587D01*
X189569160Y-91598110D01*
X189585879Y-91617405D01*
X189715890Y-91803078D01*
X189882917Y-91970105D01*
X190076421Y-92105600D01*
X190290507Y-92205429D01*
X190290516Y-92205433D01*
X190504000Y-92262634D01*
X190504000Y-91367501D01*
X190611685Y-91416680D01*
X190718237Y-91432000D01*
X190789763Y-91432000D01*
X190896315Y-91416680D01*
X191004000Y-91367501D01*
X191004000Y-92262633D01*
X191217483Y-92205433D01*
X191217492Y-92205429D01*
X191431578Y-92105600D01*
X191625082Y-91970105D01*
X191792105Y-91803082D01*
X191927600Y-91609578D01*
X192027429Y-91395492D01*
X192027432Y-91395486D01*
X192084636Y-91182000D01*
X191187686Y-91182000D01*
X191213493Y-91141844D01*
X191254000Y-91003889D01*
X191254000Y-90860111D01*
X191213493Y-90722156D01*
X191187686Y-90682000D01*
X192084636Y-90682000D01*
X192084635Y-90681999D01*
X192027432Y-90468513D01*
X192027429Y-90468507D01*
X191927600Y-90254422D01*
X191927599Y-90254420D01*
X191792113Y-90060926D01*
X191792108Y-90060920D01*
X191625082Y-89893894D01*
X191431578Y-89758399D01*
X191217492Y-89658570D01*
X191217486Y-89658567D01*
X191004000Y-89601364D01*
X191003999Y-89601364D01*
X191003999Y-90496498D01*
X190896315Y-90447320D01*
X190789763Y-90432000D01*
X190718237Y-90432000D01*
X190611685Y-90447320D01*
X190504000Y-90496498D01*
X190504000Y-89601364D01*
X190503999Y-89601364D01*
X190290513Y-89658567D01*
X190290507Y-89658570D01*
X190076422Y-89758399D01*
X190076420Y-89758400D01*
X189882926Y-89893886D01*
X189882920Y-89893891D01*
X189715891Y-90060920D01*
X189715890Y-90060922D01*
X189585880Y-90246595D01*
X189531303Y-90290219D01*
X189461804Y-90297412D01*
X189399450Y-90265890D01*
X189382730Y-90246594D01*
X189252494Y-90060597D01*
X189085402Y-89893506D01*
X189085395Y-89893501D01*
X188891834Y-89757967D01*
X188891830Y-89757965D01*
X188833255Y-89730651D01*
X188677663Y-89658097D01*
X188677659Y-89658096D01*
X188677655Y-89658094D01*
X188449413Y-89596938D01*
X188449403Y-89596936D01*
X188214001Y-89576341D01*
X188213999Y-89576341D01*
X187978596Y-89596936D01*
X187978586Y-89596938D01*
X187750344Y-89658094D01*
X187750335Y-89658098D01*
X187536171Y-89757964D01*
X187536169Y-89757965D01*
X187342597Y-89893505D01*
X187175505Y-90060597D01*
X187045575Y-90246158D01*
X186990998Y-90289783D01*
X186921500Y-90296977D01*
X186859145Y-90265454D01*
X186842425Y-90246158D01*
X186712494Y-90060597D01*
X186545402Y-89893506D01*
X186545395Y-89893501D01*
X186351834Y-89757967D01*
X186351830Y-89757965D01*
X186293255Y-89730651D01*
X186137663Y-89658097D01*
X186137659Y-89658096D01*
X186137655Y-89658094D01*
X185909413Y-89596938D01*
X185909403Y-89596936D01*
X185674001Y-89576341D01*
X185673999Y-89576341D01*
X185438596Y-89596936D01*
X185438586Y-89596938D01*
X185210344Y-89658094D01*
X185210335Y-89658098D01*
X184996171Y-89757964D01*
X184996169Y-89757965D01*
X184802597Y-89893505D01*
X184635505Y-90060597D01*
X184505575Y-90246158D01*
X184450998Y-90289783D01*
X184381500Y-90296977D01*
X184319145Y-90265454D01*
X184302425Y-90246158D01*
X184172494Y-90060597D01*
X184005402Y-89893506D01*
X184005395Y-89893501D01*
X183811834Y-89757967D01*
X183811830Y-89757965D01*
X183753255Y-89730651D01*
X183597663Y-89658097D01*
X183597659Y-89658096D01*
X183597655Y-89658094D01*
X183369413Y-89596938D01*
X183369403Y-89596936D01*
X183134001Y-89576341D01*
X183133999Y-89576341D01*
X182898596Y-89596936D01*
X182898586Y-89596938D01*
X182670344Y-89658094D01*
X182670335Y-89658098D01*
X182456171Y-89757964D01*
X182456169Y-89757965D01*
X182262597Y-89893505D01*
X182095505Y-90060597D01*
X181965575Y-90246158D01*
X181910998Y-90289783D01*
X181841500Y-90296977D01*
X181779145Y-90265454D01*
X181762425Y-90246158D01*
X181632494Y-90060597D01*
X181465402Y-89893506D01*
X181465395Y-89893501D01*
X181271834Y-89757967D01*
X181271830Y-89757965D01*
X181213255Y-89730651D01*
X181057663Y-89658097D01*
X181057659Y-89658096D01*
X181057655Y-89658094D01*
X180829413Y-89596938D01*
X180829403Y-89596936D01*
X180594001Y-89576341D01*
X180593999Y-89576341D01*
X180358596Y-89596936D01*
X180358586Y-89596938D01*
X180130344Y-89658094D01*
X180130335Y-89658098D01*
X179916171Y-89757964D01*
X179916169Y-89757965D01*
X179722597Y-89893505D01*
X179555508Y-90060594D01*
X179425269Y-90246595D01*
X179370692Y-90290219D01*
X179301193Y-90297412D01*
X179238839Y-90265890D01*
X179222119Y-90246594D01*
X179092113Y-90060926D01*
X179092108Y-90060920D01*
X178925082Y-89893894D01*
X178731578Y-89758399D01*
X178517492Y-89658570D01*
X178517486Y-89658567D01*
X178304000Y-89601364D01*
X178304000Y-90496498D01*
X178196315Y-90447320D01*
X178089763Y-90432000D01*
X178018237Y-90432000D01*
X177911685Y-90447320D01*
X177804000Y-90496498D01*
X177804000Y-89601364D01*
X177803999Y-89601364D01*
X177590513Y-89658567D01*
X177590507Y-89658570D01*
X177376422Y-89758399D01*
X177376420Y-89758400D01*
X177182926Y-89893886D01*
X177182920Y-89893891D01*
X177015891Y-90060920D01*
X177015890Y-90060922D01*
X176885880Y-90246595D01*
X176831303Y-90290219D01*
X176761804Y-90297412D01*
X176699450Y-90265890D01*
X176682730Y-90246594D01*
X176552494Y-90060597D01*
X176385402Y-89893506D01*
X176385395Y-89893501D01*
X176191834Y-89757967D01*
X176191830Y-89757965D01*
X176133255Y-89730651D01*
X175977663Y-89658097D01*
X175977659Y-89658096D01*
X175977655Y-89658094D01*
X175749413Y-89596938D01*
X175749403Y-89596936D01*
X175514001Y-89576341D01*
X175513999Y-89576341D01*
X175278596Y-89596936D01*
X175278586Y-89596938D01*
X175050344Y-89658094D01*
X175050335Y-89658098D01*
X174836171Y-89757964D01*
X174836169Y-89757965D01*
X174642600Y-89893503D01*
X174520673Y-90015430D01*
X174459350Y-90048914D01*
X174389658Y-90043930D01*
X174333725Y-90002058D01*
X174316810Y-89971081D01*
X174267797Y-89839671D01*
X174267793Y-89839664D01*
X174181547Y-89724455D01*
X174181544Y-89724452D01*
X174066335Y-89638206D01*
X174066328Y-89638202D01*
X173931482Y-89587908D01*
X173931483Y-89587908D01*
X173871883Y-89581501D01*
X173871881Y-89581500D01*
X173871873Y-89581500D01*
X173871864Y-89581500D01*
X172076129Y-89581500D01*
X172076123Y-89581501D01*
X172016516Y-89587908D01*
X171881671Y-89638202D01*
X171881664Y-89638206D01*
X171766455Y-89724452D01*
X171766452Y-89724455D01*
X171680206Y-89839664D01*
X171680202Y-89839671D01*
X171629908Y-89974517D01*
X171623501Y-90034116D01*
X171623500Y-90034135D01*
X171623500Y-90938444D01*
X171603815Y-91005483D01*
X171587181Y-91026125D01*
X171256355Y-91356952D01*
X170588973Y-92024335D01*
X170279727Y-92333581D01*
X170218404Y-92367066D01*
X170192046Y-92369900D01*
X168237653Y-92369900D01*
X168236090Y-92369880D01*
X168179091Y-92368435D01*
X168147839Y-92367644D01*
X168147838Y-92367644D01*
X168147837Y-92367644D01*
X168146092Y-92367956D01*
X168124227Y-92369900D01*
X165738260Y-92369900D01*
X165671221Y-92350215D01*
X165625466Y-92297411D01*
X165615522Y-92228253D01*
X165644547Y-92164697D01*
X165694927Y-92129718D01*
X165709728Y-92124197D01*
X165709727Y-92124197D01*
X165709731Y-92124196D01*
X165824946Y-92037946D01*
X165911196Y-91922731D01*
X165961491Y-91787883D01*
X165967900Y-91728273D01*
X165967899Y-89932528D01*
X165961491Y-89872917D01*
X165958550Y-89865033D01*
X165911197Y-89738071D01*
X165911193Y-89738064D01*
X165824947Y-89622855D01*
X165824944Y-89622852D01*
X165709735Y-89536606D01*
X165709728Y-89536602D01*
X165574882Y-89486308D01*
X165574883Y-89486308D01*
X165515283Y-89479901D01*
X165515281Y-89479900D01*
X165515273Y-89479900D01*
X165515264Y-89479900D01*
X163719529Y-89479900D01*
X163719523Y-89479901D01*
X163659916Y-89486308D01*
X163525071Y-89536602D01*
X163525064Y-89536606D01*
X163409855Y-89622852D01*
X163409852Y-89622855D01*
X163323606Y-89738064D01*
X163323602Y-89738071D01*
X163273308Y-89872917D01*
X163266901Y-89932516D01*
X163266901Y-89932523D01*
X163266900Y-89932535D01*
X163266900Y-91728270D01*
X163266901Y-91728276D01*
X163273308Y-91787883D01*
X163323602Y-91922728D01*
X163323606Y-91922735D01*
X163409852Y-92037944D01*
X163409855Y-92037947D01*
X163525064Y-92124193D01*
X163525071Y-92124197D01*
X163656481Y-92173210D01*
X163712415Y-92215081D01*
X163736832Y-92280545D01*
X163721980Y-92348818D01*
X163700830Y-92377073D01*
X163578903Y-92499000D01*
X163443365Y-92692569D01*
X163443364Y-92692571D01*
X163343498Y-92906735D01*
X163343494Y-92906744D01*
X163282338Y-93134986D01*
X163282336Y-93134996D01*
X163261741Y-93370399D01*
X163261741Y-93370400D01*
X163282336Y-93605803D01*
X163282338Y-93605813D01*
X163343494Y-93834055D01*
X163343496Y-93834059D01*
X163343497Y-93834063D01*
X163374663Y-93900898D01*
X163443365Y-94048230D01*
X163443367Y-94048234D01*
X163518056Y-94154900D01*
X163578905Y-94241801D01*
X163745999Y-94408895D01*
X163842784Y-94476664D01*
X163939565Y-94544432D01*
X163939567Y-94544433D01*
X163939570Y-94544435D01*
X164153737Y-94644303D01*
X164381992Y-94705463D01*
X164570318Y-94721939D01*
X164617399Y-94726059D01*
X164617400Y-94726059D01*
X164617401Y-94726059D01*
X164656634Y-94722626D01*
X164852808Y-94705463D01*
X165081063Y-94644303D01*
X165295230Y-94544435D01*
X165488801Y-94408895D01*
X165490477Y-94407219D01*
X165491395Y-94406717D01*
X165492944Y-94405418D01*
X165493205Y-94405729D01*
X165551800Y-94373734D01*
X165578158Y-94370900D01*
X166921900Y-94370900D01*
X166988939Y-94390585D01*
X167034694Y-94443389D01*
X167045900Y-94494900D01*
X167045900Y-114602451D01*
X167026215Y-114669490D01*
X167009581Y-114690132D01*
X164467598Y-117232115D01*
X164414699Y-117285013D01*
X164412423Y-117287176D01*
X164356903Y-117337338D01*
X164347367Y-117350324D01*
X164335105Y-117364606D01*
X162330381Y-119369331D01*
X162269058Y-119402816D01*
X162199366Y-119397832D01*
X162143433Y-119355960D01*
X162119016Y-119290496D01*
X162118700Y-119281650D01*
X162118700Y-84615477D01*
X162138385Y-84548438D01*
X162191189Y-84502683D01*
X162260347Y-84492739D01*
X162301716Y-84506421D01*
X162385990Y-84552028D01*
X162621186Y-84632771D01*
X162866465Y-84673700D01*
X163115135Y-84673700D01*
X163360414Y-84632771D01*
X163595610Y-84552028D01*
X163814309Y-84433674D01*
X164010544Y-84280938D01*
X164178964Y-84097985D01*
X164314973Y-83889807D01*
X164414863Y-83662081D01*
X164475908Y-83421021D01*
X164489594Y-83255854D01*
X164514747Y-83190671D01*
X164571149Y-83149433D01*
X164640892Y-83145235D01*
X164701834Y-83179409D01*
X164731661Y-83229546D01*
X164783002Y-83395988D01*
X164897095Y-83632905D01*
X164897097Y-83632907D01*
X164897098Y-83632910D01*
X165045230Y-83850180D01*
X165224090Y-84042946D01*
X165429683Y-84206901D01*
X165657416Y-84338383D01*
X165902202Y-84434454D01*
X166158572Y-84492969D01*
X166158578Y-84492969D01*
X166158581Y-84492970D01*
X166355124Y-84507699D01*
X166355143Y-84507699D01*
X166355146Y-84507700D01*
X166355148Y-84507700D01*
X166486452Y-84507700D01*
X166486454Y-84507700D01*
X166486456Y-84507699D01*
X166486475Y-84507699D01*
X166683018Y-84492970D01*
X166683020Y-84492969D01*
X166683028Y-84492969D01*
X166939398Y-84434454D01*
X167184184Y-84338383D01*
X167411917Y-84206901D01*
X167617510Y-84042946D01*
X167796370Y-83850180D01*
X167944502Y-83632910D01*
X168058598Y-83395988D01*
X168136108Y-83144708D01*
X168141891Y-83106344D01*
X168175299Y-82884689D01*
X168175300Y-82884680D01*
X168175300Y-82621719D01*
X168175299Y-82621710D01*
X168136109Y-82361696D01*
X168136107Y-82361690D01*
X168118101Y-82303316D01*
X168058598Y-82110412D01*
X167944502Y-81873490D01*
X167796370Y-81656220D01*
X167617510Y-81463454D01*
X167411917Y-81299499D01*
X167184184Y-81168017D01*
X166939398Y-81071946D01*
X166939393Y-81071944D01*
X166939384Y-81071942D01*
X166721301Y-81022166D01*
X166683028Y-81013431D01*
X166683027Y-81013430D01*
X166683023Y-81013430D01*
X166683018Y-81013429D01*
X166486475Y-80998700D01*
X166486454Y-80998700D01*
X166355146Y-80998700D01*
X166355124Y-80998700D01*
X166158581Y-81013429D01*
X166158576Y-81013430D01*
X165902215Y-81071942D01*
X165902196Y-81071948D01*
X165657415Y-81168017D01*
X165429683Y-81299499D01*
X165224090Y-81463454D01*
X165224088Y-81463456D01*
X165045230Y-81656219D01*
X164897095Y-81873494D01*
X164783002Y-82110411D01*
X164705492Y-82361690D01*
X164705490Y-82361696D01*
X164666300Y-82621710D01*
X164666300Y-82682433D01*
X164646615Y-82749472D01*
X164593811Y-82795227D01*
X164524653Y-82805171D01*
X164461097Y-82776146D01*
X164423323Y-82717368D01*
X164422094Y-82712873D01*
X164414863Y-82684318D01*
X164314973Y-82456593D01*
X164178966Y-82248417D01*
X164157272Y-82224851D01*
X164010544Y-82065462D01*
X163814309Y-81912726D01*
X163814307Y-81912725D01*
X163814306Y-81912724D01*
X163595611Y-81794372D01*
X163595602Y-81794369D01*
X163360416Y-81713629D01*
X163115135Y-81672700D01*
X162866465Y-81672700D01*
X162621183Y-81713629D01*
X162385997Y-81794369D01*
X162385988Y-81794372D01*
X162167293Y-81912724D01*
X161971057Y-82065461D01*
X161812030Y-82238210D01*
X161752142Y-82274201D01*
X161682304Y-82272100D01*
X161629570Y-82238210D01*
X161589908Y-82195126D01*
X161470544Y-82065462D01*
X161274309Y-81912726D01*
X161274308Y-81912725D01*
X161274305Y-81912723D01*
X161274303Y-81912722D01*
X161141281Y-81840733D01*
X161091691Y-81791513D01*
X161076300Y-81731679D01*
X161076300Y-78859383D01*
X161092913Y-78797383D01*
X161118883Y-78752402D01*
X161177379Y-78651084D01*
X161235874Y-78471056D01*
X161255660Y-78282800D01*
X161235874Y-78094544D01*
X161177379Y-77914516D01*
X161082733Y-77750584D01*
X160956071Y-77609912D01*
X160956070Y-77609911D01*
X160802934Y-77498651D01*
X160802929Y-77498648D01*
X160630007Y-77421657D01*
X160630002Y-77421655D01*
X160484201Y-77390665D01*
X160444846Y-77382300D01*
X160255554Y-77382300D01*
X160223097Y-77389198D01*
X160070397Y-77421655D01*
X160070392Y-77421657D01*
X159897470Y-77498648D01*
X159897465Y-77498651D01*
X159744329Y-77609911D01*
X159617666Y-77750585D01*
X159523021Y-77914515D01*
X159523018Y-77914522D01*
X159465671Y-78091020D01*
X159464526Y-78094544D01*
X159444740Y-78282800D01*
X159464526Y-78471056D01*
X159464527Y-78471059D01*
X159523018Y-78651077D01*
X159523021Y-78651084D01*
X159617667Y-78815016D01*
X159744329Y-78955688D01*
X159774184Y-78977378D01*
X159816850Y-79032707D01*
X159825300Y-79077697D01*
X159825300Y-81731679D01*
X159805615Y-81798718D01*
X159760319Y-81840733D01*
X159627296Y-81912722D01*
X159627294Y-81912723D01*
X159431057Y-82065461D01*
X159272030Y-82238210D01*
X159212142Y-82274201D01*
X159142304Y-82272100D01*
X159089570Y-82238210D01*
X159049908Y-82195126D01*
X158930544Y-82065462D01*
X158734309Y-81912726D01*
X158734307Y-81912725D01*
X158734306Y-81912724D01*
X158515611Y-81794372D01*
X158515602Y-81794369D01*
X158280416Y-81713629D01*
X158035135Y-81672700D01*
X157786465Y-81672700D01*
X157541183Y-81713629D01*
X157305997Y-81794369D01*
X157305988Y-81794372D01*
X157087293Y-81912724D01*
X156891057Y-82065461D01*
X156732030Y-82238210D01*
X156672142Y-82274201D01*
X156602304Y-82272100D01*
X156549570Y-82238210D01*
X156509908Y-82195126D01*
X156390544Y-82065462D01*
X156194309Y-81912726D01*
X156194308Y-81912725D01*
X156194305Y-81912723D01*
X156194303Y-81912722D01*
X156061281Y-81840733D01*
X156011691Y-81791513D01*
X155996300Y-81731679D01*
X155996300Y-78772052D01*
X156015985Y-78705013D01*
X156032619Y-78684371D01*
X157855172Y-76861819D01*
X157916495Y-76828334D01*
X157942853Y-76825500D01*
X176315485Y-76825500D01*
X176331105Y-76827224D01*
X176331132Y-76826939D01*
X176338894Y-76827673D01*
X176338894Y-76827672D01*
X176338895Y-76827673D01*
X176342227Y-76827568D01*
X176407075Y-76825531D01*
X176409022Y-76825500D01*
X176437575Y-76825500D01*
X176437578Y-76825500D01*
X176444456Y-76824630D01*
X176450269Y-76824172D01*
X176496855Y-76822709D01*
X176516097Y-76817117D01*
X176535140Y-76813174D01*
X176555020Y-76810664D01*
X176598350Y-76793507D01*
X176603874Y-76791617D01*
X176607624Y-76790527D01*
X176648618Y-76778618D01*
X176665857Y-76768422D01*
X176683331Y-76759862D01*
X176701955Y-76752488D01*
X176701955Y-76752487D01*
X176701960Y-76752486D01*
X176739677Y-76725082D01*
X176744533Y-76721892D01*
X176784648Y-76698170D01*
X176798817Y-76683999D01*
X176813607Y-76671368D01*
X176829815Y-76659594D01*
X176859527Y-76623676D01*
X176863440Y-76619376D01*
X177720152Y-75762665D01*
X177781473Y-75729182D01*
X177839923Y-75730573D01*
X177841299Y-75730941D01*
X177843992Y-75731663D01*
X178032318Y-75748139D01*
X178079399Y-75752259D01*
X178079400Y-75752259D01*
X178079401Y-75752259D01*
X178118634Y-75748826D01*
X178314808Y-75731663D01*
X178543063Y-75670503D01*
X178757230Y-75570635D01*
X178950801Y-75435095D01*
X179117895Y-75268001D01*
X179247826Y-75082441D01*
X179302402Y-75038817D01*
X179371900Y-75031623D01*
X179434255Y-75063146D01*
X179450975Y-75082442D01*
X179580681Y-75267682D01*
X179580905Y-75268001D01*
X179747999Y-75435095D01*
X179807643Y-75476858D01*
X179941565Y-75570632D01*
X179941567Y-75570633D01*
X179941570Y-75570635D01*
X180155737Y-75670503D01*
X180155743Y-75670504D01*
X180155744Y-75670505D01*
X180210685Y-75685226D01*
X180383992Y-75731663D01*
X180572318Y-75748139D01*
X180619399Y-75752259D01*
X180619400Y-75752259D01*
X180619401Y-75752259D01*
X180658634Y-75748826D01*
X180854808Y-75731663D01*
X181083063Y-75670503D01*
X181297230Y-75570635D01*
X181490801Y-75435095D01*
X181657895Y-75268001D01*
X181787826Y-75082441D01*
X181842402Y-75038817D01*
X181911900Y-75031623D01*
X181974255Y-75063146D01*
X181990975Y-75082442D01*
X182120681Y-75267682D01*
X182120905Y-75268001D01*
X182287999Y-75435095D01*
X182347643Y-75476858D01*
X182481565Y-75570632D01*
X182481567Y-75570633D01*
X182481570Y-75570635D01*
X182695737Y-75670503D01*
X182695743Y-75670504D01*
X182695744Y-75670505D01*
X182750685Y-75685226D01*
X182923992Y-75731663D01*
X183112318Y-75748139D01*
X183159399Y-75752259D01*
X183159400Y-75752259D01*
X183159401Y-75752259D01*
X183198634Y-75748826D01*
X183394808Y-75731663D01*
X183623063Y-75670503D01*
X183837230Y-75570635D01*
X184030801Y-75435095D01*
X184197895Y-75268001D01*
X184327826Y-75082441D01*
X184382402Y-75038817D01*
X184451900Y-75031623D01*
X184514255Y-75063146D01*
X184530975Y-75082442D01*
X184660681Y-75267682D01*
X184660905Y-75268001D01*
X184827999Y-75435095D01*
X184887643Y-75476858D01*
X185021565Y-75570632D01*
X185021567Y-75570633D01*
X185021570Y-75570635D01*
X185235737Y-75670503D01*
X185235743Y-75670504D01*
X185235744Y-75670505D01*
X185290685Y-75685226D01*
X185463992Y-75731663D01*
X185652318Y-75748139D01*
X185699399Y-75752259D01*
X185699400Y-75752259D01*
X185699401Y-75752259D01*
X185738634Y-75748826D01*
X185934808Y-75731663D01*
X186163063Y-75670503D01*
X186377230Y-75570635D01*
X186570801Y-75435095D01*
X186737895Y-75268001D01*
X186867826Y-75082440D01*
X186922401Y-75038817D01*
X186991899Y-75031623D01*
X187054254Y-75063146D01*
X187070974Y-75082441D01*
X187076967Y-75091000D01*
X187200905Y-75268001D01*
X187367999Y-75435095D01*
X187427643Y-75476858D01*
X187561565Y-75570632D01*
X187561567Y-75570633D01*
X187561570Y-75570635D01*
X187775737Y-75670503D01*
X187775743Y-75670504D01*
X187775744Y-75670505D01*
X187830685Y-75685226D01*
X188003992Y-75731663D01*
X188192318Y-75748139D01*
X188239399Y-75752259D01*
X188239400Y-75752259D01*
X188239401Y-75752259D01*
X188278634Y-75748826D01*
X188474808Y-75731663D01*
X188703063Y-75670503D01*
X188917230Y-75570635D01*
X189110801Y-75435095D01*
X189277895Y-75268001D01*
X189408130Y-75082005D01*
X189462707Y-75038381D01*
X189532205Y-75031187D01*
X189594560Y-75062710D01*
X189611279Y-75082005D01*
X189741290Y-75267678D01*
X189908317Y-75434705D01*
X190101821Y-75570200D01*
X190315907Y-75670029D01*
X190315916Y-75670033D01*
X190529400Y-75727234D01*
X190529400Y-74832101D01*
X190637085Y-74881280D01*
X190743637Y-74896600D01*
X190815163Y-74896600D01*
X190921715Y-74881280D01*
X191029399Y-74832101D01*
X191029399Y-75727233D01*
X191242883Y-75670033D01*
X191242892Y-75670029D01*
X191456978Y-75570200D01*
X191650482Y-75434705D01*
X191817505Y-75267682D01*
X191953000Y-75074178D01*
X192052829Y-74860092D01*
X192052832Y-74860086D01*
X192110036Y-74646600D01*
X191213086Y-74646600D01*
X191238893Y-74606444D01*
X191279400Y-74468489D01*
X191279400Y-74324711D01*
X191238893Y-74186756D01*
X191213086Y-74146600D01*
X192110036Y-74146600D01*
X192110035Y-74146599D01*
X192052832Y-73933113D01*
X192052829Y-73933107D01*
X191953000Y-73719022D01*
X191952999Y-73719020D01*
X191817513Y-73525526D01*
X191817508Y-73525520D01*
X191650482Y-73358494D01*
X191456978Y-73222999D01*
X191242892Y-73123170D01*
X191242886Y-73123167D01*
X191029400Y-73065964D01*
X191029400Y-73961098D01*
X190921715Y-73911920D01*
X190815163Y-73896600D01*
X190743637Y-73896600D01*
X190637085Y-73911920D01*
X190529400Y-73961098D01*
X190529400Y-73065964D01*
X190529399Y-73065964D01*
X190315913Y-73123167D01*
X190315907Y-73123170D01*
X190101822Y-73222999D01*
X190101820Y-73223000D01*
X189908326Y-73358486D01*
X189908320Y-73358491D01*
X189741291Y-73525520D01*
X189741290Y-73525522D01*
X189611280Y-73711195D01*
X189556703Y-73754819D01*
X189487204Y-73762012D01*
X189424850Y-73730490D01*
X189408130Y-73711194D01*
X189277894Y-73525197D01*
X189110802Y-73358106D01*
X189110795Y-73358101D01*
X188917234Y-73222567D01*
X188917230Y-73222565D01*
X188917230Y-73222564D01*
X188703063Y-73122697D01*
X188703059Y-73122696D01*
X188703055Y-73122694D01*
X188474813Y-73061538D01*
X188474803Y-73061536D01*
X188239401Y-73040941D01*
X188239399Y-73040941D01*
X188003996Y-73061536D01*
X188003986Y-73061538D01*
X187775744Y-73122694D01*
X187775735Y-73122698D01*
X187561571Y-73222564D01*
X187561569Y-73222565D01*
X187367997Y-73358105D01*
X187200905Y-73525197D01*
X187070975Y-73710758D01*
X187016398Y-73754383D01*
X186946900Y-73761577D01*
X186884545Y-73730054D01*
X186867825Y-73710758D01*
X186737894Y-73525197D01*
X186570802Y-73358106D01*
X186570795Y-73358101D01*
X186377234Y-73222567D01*
X186377230Y-73222565D01*
X186377229Y-73222564D01*
X186163063Y-73122697D01*
X186163059Y-73122696D01*
X186163055Y-73122694D01*
X185934813Y-73061538D01*
X185934803Y-73061536D01*
X185699401Y-73040941D01*
X185699399Y-73040941D01*
X185463996Y-73061536D01*
X185463986Y-73061538D01*
X185243332Y-73120661D01*
X185173482Y-73118998D01*
X185123558Y-73088567D01*
X178935803Y-66900812D01*
X178925980Y-66888550D01*
X178925759Y-66888734D01*
X178920786Y-66882722D01*
X178871066Y-66836032D01*
X178869666Y-66834675D01*
X178849476Y-66814484D01*
X178843986Y-66810225D01*
X178839561Y-66806447D01*
X178805582Y-66774538D01*
X178805580Y-66774536D01*
X178805577Y-66774535D01*
X178788029Y-66764888D01*
X178771763Y-66754204D01*
X178755933Y-66741925D01*
X178713168Y-66723418D01*
X178707922Y-66720848D01*
X178667093Y-66698403D01*
X178667092Y-66698402D01*
X178647693Y-66693422D01*
X178629281Y-66687118D01*
X178610898Y-66679162D01*
X178610892Y-66679160D01*
X178564874Y-66671872D01*
X178559152Y-66670687D01*
X178514021Y-66659100D01*
X178514019Y-66659100D01*
X178493984Y-66659100D01*
X178474586Y-66657573D01*
X178467162Y-66656397D01*
X178454805Y-66654440D01*
X178454804Y-66654440D01*
X178408416Y-66658825D01*
X178402578Y-66659100D01*
X174412177Y-66659100D01*
X174345138Y-66639415D01*
X174299383Y-66586611D01*
X174289439Y-66517453D01*
X174318464Y-66453897D01*
X174336015Y-66437246D01*
X174350544Y-66425938D01*
X174518964Y-66242985D01*
X174654973Y-66034807D01*
X174754863Y-65807081D01*
X174815908Y-65566021D01*
X174836443Y-65318205D01*
X178325157Y-65318205D01*
X178345690Y-65566012D01*
X178345692Y-65566024D01*
X178406736Y-65807081D01*
X178506626Y-66034806D01*
X178642633Y-66242982D01*
X178642636Y-66242985D01*
X178811056Y-66425938D01*
X179007291Y-66578674D01*
X179007293Y-66578675D01*
X179192976Y-66679162D01*
X179225990Y-66697028D01*
X179461186Y-66777771D01*
X179706465Y-66818700D01*
X179955135Y-66818700D01*
X180200414Y-66777771D01*
X180435610Y-66697028D01*
X180654309Y-66578674D01*
X180850544Y-66425938D01*
X181018964Y-66242985D01*
X181154973Y-66034807D01*
X181254863Y-65807081D01*
X181315908Y-65566021D01*
X181334338Y-65343605D01*
X182924957Y-65343605D01*
X182945490Y-65591412D01*
X182945492Y-65591424D01*
X183006536Y-65832481D01*
X183106426Y-66060206D01*
X183242433Y-66268382D01*
X183242436Y-66268385D01*
X183410856Y-66451338D01*
X183607091Y-66604074D01*
X183825790Y-66722428D01*
X184060986Y-66803171D01*
X184306265Y-66844100D01*
X184554935Y-66844100D01*
X184800214Y-66803171D01*
X185035410Y-66722428D01*
X185254109Y-66604074D01*
X185450344Y-66451338D01*
X185618764Y-66268385D01*
X185754773Y-66060207D01*
X185854663Y-65832481D01*
X185915708Y-65591421D01*
X185917813Y-65566025D01*
X185921924Y-65516402D01*
X185936243Y-65343605D01*
X189424957Y-65343605D01*
X189445490Y-65591412D01*
X189445492Y-65591424D01*
X189506536Y-65832481D01*
X189606426Y-66060206D01*
X189742433Y-66268382D01*
X189742436Y-66268385D01*
X189910856Y-66451338D01*
X190107091Y-66604074D01*
X190325790Y-66722428D01*
X190560986Y-66803171D01*
X190806265Y-66844100D01*
X191054935Y-66844100D01*
X191300214Y-66803171D01*
X191535410Y-66722428D01*
X191754109Y-66604074D01*
X191950344Y-66451338D01*
X192118764Y-66268385D01*
X192254773Y-66060207D01*
X192354663Y-65832481D01*
X192415708Y-65591421D01*
X192417813Y-65566025D01*
X192421924Y-65516402D01*
X192436243Y-65343600D01*
X192415708Y-65095779D01*
X192354663Y-64854719D01*
X192352719Y-64850288D01*
X192254773Y-64626993D01*
X192118766Y-64418817D01*
X192097157Y-64395344D01*
X191950344Y-64235862D01*
X191754109Y-64083126D01*
X191754107Y-64083125D01*
X191754106Y-64083124D01*
X191535411Y-63964772D01*
X191535402Y-63964769D01*
X191300216Y-63884029D01*
X191054935Y-63843100D01*
X190806265Y-63843100D01*
X190560983Y-63884029D01*
X190325797Y-63964769D01*
X190325788Y-63964772D01*
X190107093Y-64083124D01*
X189910857Y-64235861D01*
X189742433Y-64418817D01*
X189606426Y-64626993D01*
X189506536Y-64854718D01*
X189445492Y-65095775D01*
X189445490Y-65095787D01*
X189424957Y-65343594D01*
X189424957Y-65343605D01*
X185936243Y-65343605D01*
X185936243Y-65343600D01*
X185915708Y-65095779D01*
X185854663Y-64854719D01*
X185852719Y-64850288D01*
X185754773Y-64626993D01*
X185618766Y-64418817D01*
X185597157Y-64395344D01*
X185450344Y-64235862D01*
X185254109Y-64083126D01*
X185254107Y-64083125D01*
X185254106Y-64083124D01*
X185035411Y-63964772D01*
X185035402Y-63964769D01*
X184800216Y-63884029D01*
X184554935Y-63843100D01*
X184306265Y-63843100D01*
X184060983Y-63884029D01*
X183825797Y-63964769D01*
X183825788Y-63964772D01*
X183607093Y-64083124D01*
X183410857Y-64235861D01*
X183242433Y-64418817D01*
X183106426Y-64626993D01*
X183006536Y-64854718D01*
X182945492Y-65095775D01*
X182945490Y-65095787D01*
X182924957Y-65343594D01*
X182924957Y-65343605D01*
X181334338Y-65343605D01*
X181336443Y-65318200D01*
X181324149Y-65169843D01*
X181315909Y-65070387D01*
X181315907Y-65070375D01*
X181254863Y-64829318D01*
X181154973Y-64601593D01*
X181018966Y-64393417D01*
X180941804Y-64309597D01*
X180850544Y-64210462D01*
X180654309Y-64057726D01*
X180654307Y-64057725D01*
X180654306Y-64057724D01*
X180435611Y-63939372D01*
X180435602Y-63939369D01*
X180200416Y-63858629D01*
X179955135Y-63817700D01*
X179706465Y-63817700D01*
X179461183Y-63858629D01*
X179225997Y-63939369D01*
X179225988Y-63939372D01*
X179007293Y-64057724D01*
X178811057Y-64210461D01*
X178642633Y-64393417D01*
X178506626Y-64601593D01*
X178406736Y-64829318D01*
X178345692Y-65070375D01*
X178345690Y-65070387D01*
X178325157Y-65318194D01*
X178325157Y-65318205D01*
X174836443Y-65318205D01*
X174836443Y-65318200D01*
X174824149Y-65169843D01*
X174815909Y-65070387D01*
X174815907Y-65070375D01*
X174754863Y-64829318D01*
X174654973Y-64601593D01*
X174518966Y-64393417D01*
X174441804Y-64309597D01*
X174350544Y-64210462D01*
X174154309Y-64057726D01*
X174154307Y-64057725D01*
X174154306Y-64057724D01*
X173935611Y-63939372D01*
X173935602Y-63939369D01*
X173700416Y-63858629D01*
X173455135Y-63817700D01*
X173206465Y-63817700D01*
X172961186Y-63858628D01*
X172881513Y-63885980D01*
X172811714Y-63889129D01*
X172753570Y-63856379D01*
X172061019Y-63163827D01*
X172027534Y-63102504D01*
X172024700Y-63076146D01*
X172024700Y-61932656D01*
X172044385Y-61865617D01*
X172097189Y-61819862D01*
X172166347Y-61809918D01*
X172229903Y-61838943D01*
X172239925Y-61848669D01*
X172311056Y-61925938D01*
X172507291Y-62078674D01*
X172725990Y-62197028D01*
X172961186Y-62277771D01*
X173206465Y-62318700D01*
X173455135Y-62318700D01*
X173700414Y-62277771D01*
X173935610Y-62197028D01*
X174154309Y-62078674D01*
X174350544Y-61925938D01*
X174518964Y-61742985D01*
X174654973Y-61534807D01*
X174754863Y-61307081D01*
X174815908Y-61066021D01*
X174836443Y-60818205D01*
X178325157Y-60818205D01*
X178345690Y-61066012D01*
X178345692Y-61066024D01*
X178406736Y-61307081D01*
X178506626Y-61534806D01*
X178642633Y-61742982D01*
X178642636Y-61742985D01*
X178811056Y-61925938D01*
X179007291Y-62078674D01*
X179225990Y-62197028D01*
X179461186Y-62277771D01*
X179706465Y-62318700D01*
X179955135Y-62318700D01*
X180200414Y-62277771D01*
X180435610Y-62197028D01*
X180654309Y-62078674D01*
X180850544Y-61925938D01*
X181018964Y-61742985D01*
X181154973Y-61534807D01*
X181254863Y-61307081D01*
X181315908Y-61066021D01*
X181334338Y-60843605D01*
X182924957Y-60843605D01*
X182945490Y-61091412D01*
X182945492Y-61091424D01*
X183006536Y-61332481D01*
X183106426Y-61560206D01*
X183242433Y-61768382D01*
X183274845Y-61803591D01*
X183410856Y-61951338D01*
X183607091Y-62104074D01*
X183825790Y-62222428D01*
X184060986Y-62303171D01*
X184306265Y-62344100D01*
X184554935Y-62344100D01*
X184800214Y-62303171D01*
X185035410Y-62222428D01*
X185254109Y-62104074D01*
X185450344Y-61951338D01*
X185618764Y-61768385D01*
X185754773Y-61560207D01*
X185854663Y-61332481D01*
X185915708Y-61091421D01*
X185917813Y-61066024D01*
X185923377Y-60998864D01*
X185936243Y-60843605D01*
X189424957Y-60843605D01*
X189445490Y-61091412D01*
X189445492Y-61091424D01*
X189506536Y-61332481D01*
X189606426Y-61560206D01*
X189742433Y-61768382D01*
X189774845Y-61803591D01*
X189910856Y-61951338D01*
X190107091Y-62104074D01*
X190325790Y-62222428D01*
X190560986Y-62303171D01*
X190806265Y-62344100D01*
X191054935Y-62344100D01*
X191300214Y-62303171D01*
X191535410Y-62222428D01*
X191754109Y-62104074D01*
X191950344Y-61951338D01*
X192118764Y-61768385D01*
X192254773Y-61560207D01*
X192354663Y-61332481D01*
X192415708Y-61091421D01*
X192417813Y-61066024D01*
X192423377Y-60998864D01*
X192436243Y-60843600D01*
X192415708Y-60595779D01*
X192354663Y-60354719D01*
X192254773Y-60126993D01*
X192224519Y-60080686D01*
X192118766Y-59918817D01*
X192097157Y-59895344D01*
X191950344Y-59735862D01*
X191754109Y-59583126D01*
X191754107Y-59583125D01*
X191754106Y-59583124D01*
X191535411Y-59464772D01*
X191535402Y-59464769D01*
X191300216Y-59384029D01*
X191054935Y-59343100D01*
X190806265Y-59343100D01*
X190560983Y-59384029D01*
X190325797Y-59464769D01*
X190325788Y-59464772D01*
X190107093Y-59583124D01*
X189910857Y-59735861D01*
X189742433Y-59918817D01*
X189606426Y-60126993D01*
X189506536Y-60354718D01*
X189445492Y-60595775D01*
X189445490Y-60595787D01*
X189424957Y-60843594D01*
X189424957Y-60843605D01*
X185936243Y-60843605D01*
X185936243Y-60843600D01*
X185915708Y-60595779D01*
X185854663Y-60354719D01*
X185754773Y-60126993D01*
X185724519Y-60080686D01*
X185618766Y-59918817D01*
X185597157Y-59895344D01*
X185450344Y-59735862D01*
X185254109Y-59583126D01*
X185254107Y-59583125D01*
X185254106Y-59583124D01*
X185035411Y-59464772D01*
X185035402Y-59464769D01*
X184800216Y-59384029D01*
X184554935Y-59343100D01*
X184306265Y-59343100D01*
X184060983Y-59384029D01*
X183825797Y-59464769D01*
X183825788Y-59464772D01*
X183607093Y-59583124D01*
X183410857Y-59735861D01*
X183242433Y-59918817D01*
X183106426Y-60126993D01*
X183006536Y-60354718D01*
X182945492Y-60595775D01*
X182945490Y-60595787D01*
X182924957Y-60843594D01*
X182924957Y-60843605D01*
X181334338Y-60843605D01*
X181336443Y-60818200D01*
X181323795Y-60665560D01*
X181315909Y-60570387D01*
X181315907Y-60570375D01*
X181254863Y-60329318D01*
X181154973Y-60101593D01*
X181018966Y-59893417D01*
X180959097Y-59828382D01*
X180850544Y-59710462D01*
X180654309Y-59557726D01*
X180654307Y-59557725D01*
X180654306Y-59557724D01*
X180435611Y-59439372D01*
X180435602Y-59439369D01*
X180200416Y-59358629D01*
X179955135Y-59317700D01*
X179706465Y-59317700D01*
X179461183Y-59358629D01*
X179225997Y-59439369D01*
X179225988Y-59439372D01*
X179007293Y-59557724D01*
X178811057Y-59710461D01*
X178642633Y-59893417D01*
X178506626Y-60101593D01*
X178406736Y-60329318D01*
X178345692Y-60570375D01*
X178345690Y-60570387D01*
X178325157Y-60818194D01*
X178325157Y-60818205D01*
X174836443Y-60818205D01*
X174836443Y-60818200D01*
X174823795Y-60665560D01*
X174815909Y-60570387D01*
X174815907Y-60570375D01*
X174754863Y-60329318D01*
X174654973Y-60101593D01*
X174518966Y-59893417D01*
X174459097Y-59828382D01*
X174350544Y-59710462D01*
X174154309Y-59557726D01*
X174154307Y-59557725D01*
X174154306Y-59557724D01*
X173935611Y-59439372D01*
X173935602Y-59439369D01*
X173700416Y-59358629D01*
X173455135Y-59317700D01*
X173206465Y-59317700D01*
X172961183Y-59358629D01*
X172725997Y-59439369D01*
X172725988Y-59439372D01*
X172507293Y-59557724D01*
X172311057Y-59710461D01*
X172311056Y-59710462D01*
X172251300Y-59775375D01*
X172239930Y-59787726D01*
X172180043Y-59823716D01*
X172110205Y-59821616D01*
X172052588Y-59782092D01*
X172025487Y-59717693D01*
X172024700Y-59703743D01*
X172024700Y-57943942D01*
X172026424Y-57928322D01*
X172026139Y-57928296D01*
X172026873Y-57920533D01*
X172024731Y-57852352D01*
X172024700Y-57850405D01*
X172024700Y-57821854D01*
X172024700Y-57821850D01*
X172023831Y-57814972D01*
X172023372Y-57809143D01*
X172021909Y-57762572D01*
X172016322Y-57743344D01*
X172012374Y-57724284D01*
X172009863Y-57704404D01*
X171992712Y-57661087D01*
X171990819Y-57655558D01*
X171977818Y-57610809D01*
X171977816Y-57610806D01*
X171967623Y-57593571D01*
X171959061Y-57576094D01*
X171951687Y-57557470D01*
X171951686Y-57557468D01*
X171924279Y-57519745D01*
X171921088Y-57514886D01*
X171897372Y-57474783D01*
X171897365Y-57474774D01*
X171883206Y-57460615D01*
X171870568Y-57445819D01*
X171858794Y-57429613D01*
X171822888Y-57399909D01*
X171818576Y-57395986D01*
X170356960Y-55934369D01*
X170323475Y-55873046D01*
X170321323Y-55859668D01*
X170303674Y-55691744D01*
X170245179Y-55511716D01*
X170150533Y-55347784D01*
X170023871Y-55207112D01*
X170017073Y-55202173D01*
X169870734Y-55095851D01*
X169870729Y-55095848D01*
X169697807Y-55018857D01*
X169697802Y-55018855D01*
X169552000Y-54987865D01*
X169512646Y-54979500D01*
X169323354Y-54979500D01*
X169290897Y-54986398D01*
X169138197Y-55018855D01*
X169138192Y-55018857D01*
X168965270Y-55095848D01*
X168965265Y-55095851D01*
X168812129Y-55207111D01*
X168685466Y-55347785D01*
X168642736Y-55421796D01*
X168592169Y-55470012D01*
X168523562Y-55483235D01*
X168458697Y-55457267D01*
X168447668Y-55447477D01*
X168267803Y-55267612D01*
X168257980Y-55255350D01*
X168257759Y-55255534D01*
X168252786Y-55249522D01*
X168203066Y-55202832D01*
X168201666Y-55201475D01*
X168181476Y-55181284D01*
X168175986Y-55177025D01*
X168171561Y-55173247D01*
X168137582Y-55141338D01*
X168137580Y-55141336D01*
X168137577Y-55141335D01*
X168120029Y-55131688D01*
X168103763Y-55121004D01*
X168087933Y-55108725D01*
X168045168Y-55090218D01*
X168039922Y-55087648D01*
X167999093Y-55065203D01*
X167999092Y-55065202D01*
X167979693Y-55060222D01*
X167961281Y-55053918D01*
X167942898Y-55045962D01*
X167942892Y-55045960D01*
X167896874Y-55038672D01*
X167891152Y-55037487D01*
X167846021Y-55025900D01*
X167846019Y-55025900D01*
X167825984Y-55025900D01*
X167806586Y-55024373D01*
X167799162Y-55023197D01*
X167786805Y-55021240D01*
X167786804Y-55021240D01*
X167740416Y-55025625D01*
X167734578Y-55025900D01*
X155035337Y-55025900D01*
X155019720Y-55024176D01*
X155019693Y-55024462D01*
X155011931Y-55023727D01*
X154943771Y-55025869D01*
X154941824Y-55025900D01*
X154913250Y-55025900D01*
X154912529Y-55025990D01*
X154906357Y-55026769D01*
X154900545Y-55027226D01*
X154853978Y-55028690D01*
X154853967Y-55028692D01*
X154834734Y-55034279D01*
X154815694Y-55038222D01*
X154795817Y-55040734D01*
X154795810Y-55040735D01*
X154795808Y-55040736D01*
X154795806Y-55040736D01*
X154795805Y-55040737D01*
X154752468Y-55057894D01*
X154746942Y-55059786D01*
X154702211Y-55072782D01*
X154702208Y-55072783D01*
X154684963Y-55082981D01*
X154667501Y-55091535D01*
X154648872Y-55098911D01*
X154648867Y-55098913D01*
X154611164Y-55126306D01*
X154606282Y-55129512D01*
X154566180Y-55153228D01*
X154552008Y-55167400D01*
X154537223Y-55180028D01*
X154521012Y-55191807D01*
X154491309Y-55227710D01*
X154487377Y-55232031D01*
X153408028Y-56311379D01*
X153346705Y-56344864D01*
X153280084Y-56340979D01*
X153200416Y-56313629D01*
X152955135Y-56272700D01*
X152706465Y-56272700D01*
X152461183Y-56313629D01*
X152225997Y-56394369D01*
X152225988Y-56394372D01*
X152007293Y-56512724D01*
X151811057Y-56665461D01*
X151652030Y-56838210D01*
X151592142Y-56874201D01*
X151522304Y-56872100D01*
X151469570Y-56838210D01*
X151424728Y-56789499D01*
X151310544Y-56665462D01*
X151114309Y-56512726D01*
X151114307Y-56512725D01*
X151114306Y-56512724D01*
X150895611Y-56394372D01*
X150895602Y-56394369D01*
X150660416Y-56313629D01*
X150415135Y-56272700D01*
X150166465Y-56272700D01*
X149921183Y-56313629D01*
X149685997Y-56394369D01*
X149685988Y-56394372D01*
X149467293Y-56512724D01*
X149271057Y-56665461D01*
X149112030Y-56838210D01*
X149052142Y-56874201D01*
X148982304Y-56872100D01*
X148929570Y-56838210D01*
X148884728Y-56789499D01*
X148770544Y-56665462D01*
X148574309Y-56512726D01*
X148574307Y-56512725D01*
X148574306Y-56512724D01*
X148355611Y-56394372D01*
X148355602Y-56394369D01*
X148120416Y-56313629D01*
X147875135Y-56272700D01*
X147626465Y-56272700D01*
X147381183Y-56313629D01*
X147145997Y-56394369D01*
X147145988Y-56394372D01*
X146927293Y-56512724D01*
X146731057Y-56665461D01*
X146572030Y-56838210D01*
X146512142Y-56874201D01*
X146442304Y-56872100D01*
X146389570Y-56838210D01*
X146344728Y-56789499D01*
X146230544Y-56665462D01*
X146034309Y-56512726D01*
X146034307Y-56512725D01*
X146034306Y-56512724D01*
X145815611Y-56394372D01*
X145815602Y-56394369D01*
X145580416Y-56313629D01*
X145335135Y-56272700D01*
X145086465Y-56272700D01*
X144841183Y-56313629D01*
X144605997Y-56394369D01*
X144605988Y-56394372D01*
X144387293Y-56512724D01*
X144191057Y-56665461D01*
X144032030Y-56838210D01*
X143972142Y-56874201D01*
X143902304Y-56872100D01*
X143849570Y-56838210D01*
X143804728Y-56789499D01*
X143690544Y-56665462D01*
X143494309Y-56512726D01*
X143494307Y-56512725D01*
X143494306Y-56512724D01*
X143275611Y-56394372D01*
X143275602Y-56394369D01*
X143040416Y-56313629D01*
X142795135Y-56272700D01*
X142546465Y-56272700D01*
X142301183Y-56313629D01*
X142065997Y-56394369D01*
X142065988Y-56394372D01*
X141847293Y-56512724D01*
X141651057Y-56665461D01*
X141492030Y-56838210D01*
X141432142Y-56874201D01*
X141362304Y-56872100D01*
X141309570Y-56838210D01*
X141264728Y-56789499D01*
X141150544Y-56665462D01*
X140954309Y-56512726D01*
X140954307Y-56512725D01*
X140954306Y-56512724D01*
X140735611Y-56394372D01*
X140735602Y-56394369D01*
X140500416Y-56313629D01*
X140255135Y-56272700D01*
X140006465Y-56272700D01*
X139761183Y-56313629D01*
X139525997Y-56394369D01*
X139525988Y-56394372D01*
X139307293Y-56512724D01*
X139111057Y-56665461D01*
X138952030Y-56838210D01*
X138892142Y-56874201D01*
X138822304Y-56872100D01*
X138769570Y-56838210D01*
X138724728Y-56789499D01*
X138610544Y-56665462D01*
X138414309Y-56512726D01*
X138414307Y-56512725D01*
X138414306Y-56512724D01*
X138195611Y-56394372D01*
X138195602Y-56394369D01*
X137960416Y-56313629D01*
X137715135Y-56272700D01*
X137466465Y-56272700D01*
X137221183Y-56313629D01*
X136985997Y-56394369D01*
X136985988Y-56394372D01*
X136767293Y-56512724D01*
X136571057Y-56665461D01*
X136412030Y-56838210D01*
X136352142Y-56874201D01*
X136282304Y-56872100D01*
X136229570Y-56838210D01*
X136184728Y-56789499D01*
X136070544Y-56665462D01*
X135874309Y-56512726D01*
X135874307Y-56512725D01*
X135874306Y-56512724D01*
X135655611Y-56394372D01*
X135655602Y-56394369D01*
X135420416Y-56313629D01*
X135175135Y-56272700D01*
X134926465Y-56272700D01*
X134681183Y-56313629D01*
X134445997Y-56394369D01*
X134445988Y-56394372D01*
X134227293Y-56512724D01*
X134031057Y-56665461D01*
X133872030Y-56838210D01*
X133812142Y-56874201D01*
X133742304Y-56872100D01*
X133689570Y-56838210D01*
X133644728Y-56789499D01*
X133530544Y-56665462D01*
X133334309Y-56512726D01*
X133334307Y-56512725D01*
X133334306Y-56512724D01*
X133115611Y-56394372D01*
X133115602Y-56394369D01*
X132880416Y-56313629D01*
X132635135Y-56272700D01*
X132386465Y-56272700D01*
X132141183Y-56313629D01*
X131905997Y-56394369D01*
X131905988Y-56394372D01*
X131687293Y-56512724D01*
X131491057Y-56665461D01*
X131322637Y-56848413D01*
X131322629Y-56848424D01*
X131322255Y-56848997D01*
X131322042Y-56849178D01*
X131319490Y-56852458D01*
X131318814Y-56851932D01*
X131269104Y-56894347D01*
X131205665Y-56904502D01*
X131194234Y-56903316D01*
X130461932Y-57635617D01*
X130439482Y-57559160D01*
X130360195Y-57435787D01*
X130249362Y-57339749D01*
X130115961Y-57278827D01*
X130112166Y-57278281D01*
X130840857Y-56549590D01*
X130840856Y-56549589D01*
X130794029Y-56513143D01*
X130575414Y-56394835D01*
X130575403Y-56394830D01*
X130340293Y-56314116D01*
X130095093Y-56273200D01*
X129846507Y-56273200D01*
X129601306Y-56314116D01*
X129366196Y-56394830D01*
X129366190Y-56394832D01*
X129147561Y-56513149D01*
X129100742Y-56549588D01*
X129100742Y-56549590D01*
X129829434Y-57278281D01*
X129825639Y-57278827D01*
X129692238Y-57339749D01*
X129581405Y-57435787D01*
X129502118Y-57559160D01*
X129479667Y-57635619D01*
X128747364Y-56903316D01*
X128735935Y-56904502D01*
X128667223Y-56891837D01*
X128622710Y-56852002D01*
X128622117Y-56852465D01*
X128619568Y-56849191D01*
X128619335Y-56848982D01*
X128618966Y-56848418D01*
X128618965Y-56848417D01*
X128618964Y-56848415D01*
X128450544Y-56665462D01*
X128254309Y-56512726D01*
X128254307Y-56512725D01*
X128254306Y-56512724D01*
X128035611Y-56394372D01*
X128035602Y-56394369D01*
X127800416Y-56313629D01*
X127555135Y-56272700D01*
X127306465Y-56272700D01*
X127061183Y-56313629D01*
X126825997Y-56394369D01*
X126825988Y-56394372D01*
X126607293Y-56512724D01*
X126411057Y-56665461D01*
X126242633Y-56848417D01*
X126106626Y-57056593D01*
X126006736Y-57284318D01*
X125945692Y-57525375D01*
X125945690Y-57525387D01*
X125925157Y-57773194D01*
X125925157Y-57773205D01*
X125945690Y-58021012D01*
X125945692Y-58021024D01*
X126006736Y-58262081D01*
X126106626Y-58489806D01*
X126242633Y-58697982D01*
X126242636Y-58697985D01*
X126411056Y-58880938D01*
X126607291Y-59033674D01*
X126607293Y-59033675D01*
X126825132Y-59151564D01*
X126825990Y-59152028D01*
X127044941Y-59227194D01*
X127059764Y-59232283D01*
X127061186Y-59232771D01*
X127306465Y-59273700D01*
X127555135Y-59273700D01*
X127800414Y-59232771D01*
X128035610Y-59152028D01*
X128254309Y-59033674D01*
X128450544Y-58880938D01*
X128618964Y-58697985D01*
X128619333Y-58697419D01*
X128619545Y-58697238D01*
X128622122Y-58693929D01*
X128622802Y-58694458D01*
X128672476Y-58652060D01*
X128735938Y-58641897D01*
X128747364Y-58643082D01*
X129479666Y-57910780D01*
X129502118Y-57987240D01*
X129581405Y-58110613D01*
X129692238Y-58206651D01*
X129825639Y-58267573D01*
X129829434Y-58268118D01*
X129100742Y-58996809D01*
X129147568Y-59033255D01*
X129147570Y-59033256D01*
X129366185Y-59151564D01*
X129366196Y-59151569D01*
X129601306Y-59232283D01*
X129846507Y-59273200D01*
X130095093Y-59273200D01*
X130340293Y-59232283D01*
X130575403Y-59151569D01*
X130575414Y-59151564D01*
X130794028Y-59033257D01*
X130794031Y-59033255D01*
X130840856Y-58996809D01*
X130112165Y-58268118D01*
X130115961Y-58267573D01*
X130249362Y-58206651D01*
X130360195Y-58110613D01*
X130439482Y-57987240D01*
X130461933Y-57910780D01*
X131194234Y-58643082D01*
X131205661Y-58641897D01*
X131274373Y-58654560D01*
X131318892Y-58694394D01*
X131319483Y-58693935D01*
X131322018Y-58697192D01*
X131322256Y-58697405D01*
X131322631Y-58697980D01*
X131322636Y-58697985D01*
X131491056Y-58880938D01*
X131687291Y-59033674D01*
X131687293Y-59033675D01*
X131905132Y-59151564D01*
X131905990Y-59152028D01*
X132124941Y-59227194D01*
X132139764Y-59232283D01*
X132141186Y-59232771D01*
X132386465Y-59273700D01*
X132635135Y-59273700D01*
X132880414Y-59232771D01*
X133115610Y-59152028D01*
X133334309Y-59033674D01*
X133530544Y-58880938D01*
X133689571Y-58708188D01*
X133749457Y-58672199D01*
X133819295Y-58674299D01*
X133872028Y-58708188D01*
X134031056Y-58880938D01*
X134227291Y-59033674D01*
X134227293Y-59033675D01*
X134445132Y-59151564D01*
X134445990Y-59152028D01*
X134664941Y-59227194D01*
X134679764Y-59232283D01*
X134681186Y-59232771D01*
X134926465Y-59273700D01*
X135175135Y-59273700D01*
X135420414Y-59232771D01*
X135655610Y-59152028D01*
X135874309Y-59033674D01*
X136070544Y-58880938D01*
X136229571Y-58708188D01*
X136289457Y-58672199D01*
X136359295Y-58674299D01*
X136412028Y-58708188D01*
X136571056Y-58880938D01*
X136767291Y-59033674D01*
X136767293Y-59033675D01*
X136985132Y-59151564D01*
X136985990Y-59152028D01*
X137204941Y-59227194D01*
X137219764Y-59232283D01*
X137221186Y-59232771D01*
X137466465Y-59273700D01*
X137715135Y-59273700D01*
X137960414Y-59232771D01*
X138195610Y-59152028D01*
X138414309Y-59033674D01*
X138610544Y-58880938D01*
X138769571Y-58708188D01*
X138829457Y-58672199D01*
X138899295Y-58674299D01*
X138952028Y-58708188D01*
X139111056Y-58880938D01*
X139307291Y-59033674D01*
X139307293Y-59033675D01*
X139525132Y-59151564D01*
X139525990Y-59152028D01*
X139744941Y-59227194D01*
X139759764Y-59232283D01*
X139761186Y-59232771D01*
X140006465Y-59273700D01*
X140255135Y-59273700D01*
X140500414Y-59232771D01*
X140735610Y-59152028D01*
X140954309Y-59033674D01*
X141150544Y-58880938D01*
X141309571Y-58708188D01*
X141369457Y-58672199D01*
X141439295Y-58674299D01*
X141492028Y-58708188D01*
X141651056Y-58880938D01*
X141847291Y-59033674D01*
X141847293Y-59033675D01*
X142065132Y-59151564D01*
X142065990Y-59152028D01*
X142284941Y-59227194D01*
X142299764Y-59232283D01*
X142301186Y-59232771D01*
X142546465Y-59273700D01*
X142795135Y-59273700D01*
X143040414Y-59232771D01*
X143275610Y-59152028D01*
X143494309Y-59033674D01*
X143690544Y-58880938D01*
X143849571Y-58708188D01*
X143909457Y-58672199D01*
X143979295Y-58674299D01*
X144032028Y-58708188D01*
X144191056Y-58880938D01*
X144387291Y-59033674D01*
X144387293Y-59033675D01*
X144605132Y-59151564D01*
X144605990Y-59152028D01*
X144824941Y-59227194D01*
X144839764Y-59232283D01*
X144841186Y-59232771D01*
X145086465Y-59273700D01*
X145335135Y-59273700D01*
X145580414Y-59232771D01*
X145815610Y-59152028D01*
X146034309Y-59033674D01*
X146230544Y-58880938D01*
X146389571Y-58708188D01*
X146449457Y-58672199D01*
X146519295Y-58674299D01*
X146572028Y-58708188D01*
X146731056Y-58880938D01*
X146927291Y-59033674D01*
X146927293Y-59033675D01*
X147145132Y-59151564D01*
X147145990Y-59152028D01*
X147364941Y-59227194D01*
X147379764Y-59232283D01*
X147381186Y-59232771D01*
X147626465Y-59273700D01*
X147875135Y-59273700D01*
X148120414Y-59232771D01*
X148355610Y-59152028D01*
X148574309Y-59033674D01*
X148770544Y-58880938D01*
X148929572Y-58708186D01*
X148989456Y-58672199D01*
X149059294Y-58674299D01*
X149112028Y-58708189D01*
X149271052Y-58880934D01*
X149271056Y-58880938D01*
X149467291Y-59033674D01*
X149467293Y-59033675D01*
X149685132Y-59151564D01*
X149685990Y-59152028D01*
X149904941Y-59227194D01*
X149919764Y-59232283D01*
X149921186Y-59232771D01*
X150166465Y-59273700D01*
X150415135Y-59273700D01*
X150660414Y-59232771D01*
X150895610Y-59152028D01*
X151114309Y-59033674D01*
X151310544Y-58880938D01*
X151469571Y-58708188D01*
X151529457Y-58672199D01*
X151599295Y-58674299D01*
X151652028Y-58708188D01*
X151811056Y-58880938D01*
X152007291Y-59033674D01*
X152007293Y-59033675D01*
X152225132Y-59151564D01*
X152225990Y-59152028D01*
X152444941Y-59227194D01*
X152459764Y-59232283D01*
X152461186Y-59232771D01*
X152706465Y-59273700D01*
X152955135Y-59273700D01*
X153200414Y-59232771D01*
X153435610Y-59152028D01*
X153654309Y-59033674D01*
X153850544Y-58880938D01*
X154009571Y-58708188D01*
X154069457Y-58672199D01*
X154139295Y-58674299D01*
X154192028Y-58708188D01*
X154351056Y-58880938D01*
X154367137Y-58893454D01*
X154547288Y-59033672D01*
X154547293Y-59033675D01*
X154680317Y-59105664D01*
X154729908Y-59154883D01*
X154745300Y-59214719D01*
X154745300Y-60013647D01*
X154725615Y-60080686D01*
X154672811Y-60126441D01*
X154603653Y-60136385D01*
X154540097Y-60107360D01*
X154503369Y-60051966D01*
X154497180Y-60032919D01*
X154497179Y-60032918D01*
X154497179Y-60032916D01*
X154402533Y-59868984D01*
X154275871Y-59728312D01*
X154275870Y-59728311D01*
X154122734Y-59617051D01*
X154122729Y-59617048D01*
X153949807Y-59540057D01*
X153949802Y-59540055D01*
X153804001Y-59509065D01*
X153764646Y-59500700D01*
X153575354Y-59500700D01*
X153542897Y-59507598D01*
X153390197Y-59540055D01*
X153390192Y-59540057D01*
X153217270Y-59617048D01*
X153217265Y-59617051D01*
X153064129Y-59728311D01*
X152937466Y-59868985D01*
X152842821Y-60032915D01*
X152842818Y-60032922D01*
X152806469Y-60144794D01*
X152784326Y-60212944D01*
X152780438Y-60249938D01*
X152766679Y-60380849D01*
X152740094Y-60445463D01*
X152731039Y-60455568D01*
X146995628Y-66190981D01*
X146934305Y-66224466D01*
X146907947Y-66227300D01*
X137406548Y-66227300D01*
X137339509Y-66207615D01*
X137314400Y-66186274D01*
X137308673Y-66179914D01*
X137308669Y-66179910D01*
X137155534Y-66068651D01*
X137155529Y-66068648D01*
X136982607Y-65991657D01*
X136982602Y-65991655D01*
X136836800Y-65960665D01*
X136797446Y-65952300D01*
X136608154Y-65952300D01*
X136575697Y-65959198D01*
X136422997Y-65991655D01*
X136422992Y-65991657D01*
X136250070Y-66068648D01*
X136250065Y-66068651D01*
X136096929Y-66179911D01*
X135970266Y-66320585D01*
X135875621Y-66484515D01*
X135875618Y-66484522D01*
X135825291Y-66639415D01*
X135817126Y-66664544D01*
X135801367Y-66814484D01*
X135797340Y-66852800D01*
X135805300Y-66928540D01*
X135792730Y-66997269D01*
X135744997Y-67048293D01*
X135681979Y-67065500D01*
X102921452Y-67065500D01*
X102854413Y-67045815D01*
X102833771Y-67029181D01*
X101441237Y-65636647D01*
X101407752Y-65575324D01*
X101409143Y-65516872D01*
X101436063Y-65416408D01*
X101456659Y-65181000D01*
X101436063Y-64945592D01*
X101376587Y-64723620D01*
X101374905Y-64717344D01*
X101374904Y-64717343D01*
X101374903Y-64717337D01*
X101275035Y-64503171D01*
X101268608Y-64493991D01*
X101139494Y-64309597D01*
X100972402Y-64142506D01*
X100972401Y-64142505D01*
X100786405Y-64012269D01*
X100742781Y-63957692D01*
X100735588Y-63888193D01*
X100767110Y-63825839D01*
X100786405Y-63809119D01*
X100972082Y-63679105D01*
X101139105Y-63512082D01*
X101274600Y-63318578D01*
X101374429Y-63104492D01*
X101374432Y-63104486D01*
X101431636Y-62891000D01*
X100534686Y-62891000D01*
X100560493Y-62850844D01*
X100601000Y-62712889D01*
X100601000Y-62569111D01*
X100560493Y-62431156D01*
X100534686Y-62391000D01*
X101431636Y-62391000D01*
X101431635Y-62390999D01*
X101374432Y-62177513D01*
X101374429Y-62177507D01*
X101274600Y-61963422D01*
X101274599Y-61963420D01*
X101139113Y-61769926D01*
X101139108Y-61769920D01*
X101017053Y-61647865D01*
X100983568Y-61586542D01*
X100988552Y-61516850D01*
X101030424Y-61460917D01*
X101061400Y-61444002D01*
X101193331Y-61394796D01*
X101308546Y-61308546D01*
X101394796Y-61193331D01*
X101445091Y-61058483D01*
X101451500Y-60998873D01*
X101451500Y-60699106D01*
X108877828Y-60699106D01*
X108887613Y-60929462D01*
X108887614Y-60929470D01*
X108936190Y-61154862D01*
X108936190Y-61154863D01*
X109022157Y-61368802D01*
X109022159Y-61368806D01*
X109038163Y-61394798D01*
X109143048Y-61565142D01*
X109295380Y-61738225D01*
X109295384Y-61738229D01*
X109474765Y-61883069D01*
X109474766Y-61883070D01*
X109474769Y-61883071D01*
X109474772Y-61883074D01*
X109676063Y-61995521D01*
X109893462Y-62072333D01*
X110020272Y-62094077D01*
X110120706Y-62111299D01*
X110120715Y-62111300D01*
X110293534Y-62111300D01*
X110293535Y-62111300D01*
X110293536Y-62111299D01*
X110293553Y-62111299D01*
X110465734Y-62096644D01*
X110465737Y-62096643D01*
X110465739Y-62096643D01*
X110688869Y-62038545D01*
X110855060Y-61963422D01*
X110898965Y-61943576D01*
X110898967Y-61943575D01*
X110898967Y-61943574D01*
X110898971Y-61943573D01*
X111090000Y-61814459D01*
X111256462Y-61654919D01*
X111393566Y-61469542D01*
X111497370Y-61263660D01*
X111564886Y-61043197D01*
X111594172Y-60814494D01*
X111593078Y-60788752D01*
X111584881Y-60595779D01*
X111584386Y-60584132D01*
X111535810Y-60358738D01*
X111449841Y-60144794D01*
X111328951Y-59948457D01*
X111176620Y-59775375D01*
X111176619Y-59775374D01*
X111176615Y-59775370D01*
X110997234Y-59630530D01*
X110997233Y-59630529D01*
X110795938Y-59518079D01*
X110578541Y-59441268D01*
X110578540Y-59441267D01*
X110578538Y-59441267D01*
X110578534Y-59441266D01*
X110578533Y-59441266D01*
X110351293Y-59402300D01*
X110351285Y-59402300D01*
X110178465Y-59402300D01*
X110178446Y-59402300D01*
X110006265Y-59416955D01*
X109783131Y-59475054D01*
X109573034Y-59570023D01*
X109573032Y-59570024D01*
X109429757Y-59666862D01*
X109385315Y-59696901D01*
X109381999Y-59699142D01*
X109215540Y-59858678D01*
X109078434Y-60044057D01*
X108974630Y-60249938D01*
X108907113Y-60470406D01*
X108877828Y-60699106D01*
X101451500Y-60699106D01*
X101451499Y-59203128D01*
X101445091Y-59143517D01*
X101444089Y-59140831D01*
X101394797Y-59008671D01*
X101394793Y-59008664D01*
X101308547Y-58893455D01*
X101308544Y-58893452D01*
X101193335Y-58807206D01*
X101193328Y-58807202D01*
X101058482Y-58756908D01*
X101058483Y-58756908D01*
X100998883Y-58750501D01*
X100998881Y-58750500D01*
X100998873Y-58750500D01*
X100998864Y-58750500D01*
X99203129Y-58750500D01*
X99203123Y-58750501D01*
X99143516Y-58756908D01*
X99008671Y-58807202D01*
X99008664Y-58807206D01*
X98893455Y-58893452D01*
X98893452Y-58893455D01*
X98807206Y-59008664D01*
X98807202Y-59008671D01*
X98756908Y-59143517D01*
X98750501Y-59203116D01*
X98750501Y-59203123D01*
X98750500Y-59203135D01*
X98750500Y-60998870D01*
X98750501Y-60998876D01*
X98756908Y-61058483D01*
X98807202Y-61193328D01*
X98807206Y-61193335D01*
X98893452Y-61308544D01*
X98893455Y-61308547D01*
X99008664Y-61394793D01*
X99008671Y-61394797D01*
X99008674Y-61394798D01*
X99140598Y-61444002D01*
X99196531Y-61485873D01*
X99220949Y-61551337D01*
X99206098Y-61619610D01*
X99184947Y-61647865D01*
X99062886Y-61769926D01*
X98927400Y-61963420D01*
X98927399Y-61963422D01*
X98827570Y-62177507D01*
X98827567Y-62177513D01*
X98770364Y-62390999D01*
X98770364Y-62391000D01*
X99667314Y-62391000D01*
X99641507Y-62431156D01*
X99601000Y-62569111D01*
X99601000Y-62712889D01*
X99641507Y-62850844D01*
X99667314Y-62891000D01*
X98770364Y-62891000D01*
X98827567Y-63104486D01*
X98827570Y-63104492D01*
X98927399Y-63318578D01*
X99062894Y-63512082D01*
X99229917Y-63679105D01*
X99415595Y-63809119D01*
X99459219Y-63863696D01*
X99466412Y-63933195D01*
X99434890Y-63995549D01*
X99415595Y-64012269D01*
X99229594Y-64142508D01*
X99062505Y-64309597D01*
X98926965Y-64503169D01*
X98926964Y-64503171D01*
X98827098Y-64717335D01*
X98827094Y-64717344D01*
X98765938Y-64945586D01*
X98765936Y-64945596D01*
X98745341Y-65180999D01*
X98745341Y-65181000D01*
X98765936Y-65416403D01*
X98765938Y-65416413D01*
X98827094Y-65644655D01*
X98827096Y-65644659D01*
X98827097Y-65644663D01*
X98914678Y-65832481D01*
X98926965Y-65858830D01*
X98926967Y-65858834D01*
X99062501Y-66052395D01*
X99062506Y-66052402D01*
X99229597Y-66219493D01*
X99229603Y-66219498D01*
X99415158Y-66349425D01*
X99458783Y-66404002D01*
X99465977Y-66473500D01*
X99434454Y-66535855D01*
X99415158Y-66552575D01*
X99229597Y-66682505D01*
X99062505Y-66849597D01*
X98926965Y-67043169D01*
X98926964Y-67043171D01*
X98827098Y-67257335D01*
X98827094Y-67257344D01*
X98765938Y-67485586D01*
X98765936Y-67485596D01*
X98745341Y-67720999D01*
X98745341Y-67721000D01*
X98765936Y-67956403D01*
X98765938Y-67956413D01*
X98827094Y-68184655D01*
X98827096Y-68184659D01*
X98827097Y-68184663D01*
X98908589Y-68359422D01*
X98926965Y-68398830D01*
X98926967Y-68398834D01*
X99011598Y-68519699D01*
X99039203Y-68559123D01*
X99062501Y-68592395D01*
X99062506Y-68592402D01*
X99229597Y-68759493D01*
X99229603Y-68759498D01*
X99415158Y-68889425D01*
X99458783Y-68944002D01*
X99465977Y-69013500D01*
X99434454Y-69075855D01*
X99415158Y-69092575D01*
X99229597Y-69222505D01*
X99062505Y-69389597D01*
X98926965Y-69583169D01*
X98926964Y-69583171D01*
X98827098Y-69797335D01*
X98827094Y-69797344D01*
X98765938Y-70025586D01*
X98765936Y-70025596D01*
X98745341Y-70260999D01*
X98745341Y-70261000D01*
X98765936Y-70496403D01*
X98765938Y-70496413D01*
X98827094Y-70724655D01*
X98827096Y-70724659D01*
X98827097Y-70724663D01*
X98895113Y-70870523D01*
X98926965Y-70938830D01*
X98926967Y-70938834D01*
X99035281Y-71093521D01*
X99062505Y-71132401D01*
X99229599Y-71299495D01*
X99408854Y-71425011D01*
X99415594Y-71429730D01*
X99459219Y-71484307D01*
X99466413Y-71553805D01*
X99434890Y-71616160D01*
X99415595Y-71632880D01*
X99229922Y-71762890D01*
X99229920Y-71762891D01*
X99062891Y-71929920D01*
X99062886Y-71929926D01*
X98927400Y-72123420D01*
X98927399Y-72123422D01*
X98827570Y-72337507D01*
X98827567Y-72337513D01*
X98770364Y-72550999D01*
X98770364Y-72551000D01*
X99667314Y-72551000D01*
X99641507Y-72591156D01*
X99601000Y-72729111D01*
X99601000Y-72872889D01*
X99641507Y-73010844D01*
X99667314Y-73051000D01*
X98770364Y-73051000D01*
X98827567Y-73264486D01*
X98827570Y-73264492D01*
X98927399Y-73478578D01*
X99062894Y-73672082D01*
X99229917Y-73839105D01*
X99416031Y-73969425D01*
X99459656Y-74024003D01*
X99466848Y-74093501D01*
X99435326Y-74155856D01*
X99416031Y-74172575D01*
X99229922Y-74302890D01*
X99229920Y-74302891D01*
X99062891Y-74469920D01*
X99062886Y-74469926D01*
X98927400Y-74663420D01*
X98927399Y-74663422D01*
X98827570Y-74877507D01*
X98827567Y-74877513D01*
X98770364Y-75090999D01*
X98770364Y-75091000D01*
X99667314Y-75091000D01*
X99641507Y-75131156D01*
X99601000Y-75269111D01*
X99601000Y-75412889D01*
X99641507Y-75550844D01*
X99667314Y-75591000D01*
X98770364Y-75591000D01*
X98827567Y-75804486D01*
X98827570Y-75804492D01*
X98927399Y-76018578D01*
X99062894Y-76212082D01*
X99229917Y-76379105D01*
X99415595Y-76509119D01*
X99459219Y-76563696D01*
X99466412Y-76633195D01*
X99434890Y-76695549D01*
X99415595Y-76712269D01*
X99229594Y-76842508D01*
X99062505Y-77009597D01*
X98926965Y-77203169D01*
X98926964Y-77203171D01*
X98827098Y-77417335D01*
X98827094Y-77417344D01*
X98765938Y-77645586D01*
X98765936Y-77645596D01*
X98745341Y-77880999D01*
X98745341Y-77881000D01*
X98765936Y-78116403D01*
X98765938Y-78116413D01*
X98827094Y-78344655D01*
X98827096Y-78344659D01*
X98827097Y-78344663D01*
X98849367Y-78392421D01*
X98926965Y-78558830D01*
X98926967Y-78558834D01*
X99062501Y-78752395D01*
X99062506Y-78752402D01*
X99229597Y-78919493D01*
X99229603Y-78919498D01*
X99415158Y-79049425D01*
X99458783Y-79104002D01*
X99465977Y-79173500D01*
X99434454Y-79235855D01*
X99415158Y-79252575D01*
X99229597Y-79382505D01*
X99062505Y-79549597D01*
X98926965Y-79743169D01*
X98926964Y-79743171D01*
X98827098Y-79957335D01*
X98827094Y-79957344D01*
X98765938Y-80185586D01*
X98765936Y-80185596D01*
X98745341Y-80420999D01*
X98745341Y-80421000D01*
X94996000Y-80421000D01*
X94996000Y-58374689D01*
X117716300Y-58374689D01*
X117755490Y-58634703D01*
X117755492Y-58634709D01*
X117833002Y-58885988D01*
X117947095Y-59122905D01*
X117947097Y-59122907D01*
X117947098Y-59122910D01*
X118095230Y-59340180D01*
X118274090Y-59532946D01*
X118479683Y-59696901D01*
X118707416Y-59828383D01*
X118952202Y-59924454D01*
X119208572Y-59982969D01*
X119208578Y-59982969D01*
X119208581Y-59982970D01*
X119405124Y-59997699D01*
X119405143Y-59997699D01*
X119405146Y-59997700D01*
X119405148Y-59997700D01*
X119536452Y-59997700D01*
X119536454Y-59997700D01*
X119536456Y-59997699D01*
X119536475Y-59997699D01*
X119733018Y-59982970D01*
X119733020Y-59982969D01*
X119733028Y-59982969D01*
X119989398Y-59924454D01*
X120234184Y-59828383D01*
X120461917Y-59696901D01*
X120667510Y-59532946D01*
X120846370Y-59340180D01*
X120994502Y-59122910D01*
X121108598Y-58885988D01*
X121186108Y-58634708D01*
X121225300Y-58374682D01*
X121225300Y-58111718D01*
X121225299Y-58111710D01*
X121186109Y-57851696D01*
X121186107Y-57851690D01*
X121185711Y-57850405D01*
X121108598Y-57600412D01*
X120994502Y-57363490D01*
X120846370Y-57146220D01*
X120667510Y-56953454D01*
X120461917Y-56789499D01*
X120234184Y-56658017D01*
X119989398Y-56561946D01*
X119989393Y-56561944D01*
X119989384Y-56561942D01*
X119761611Y-56509955D01*
X119733028Y-56503431D01*
X119733027Y-56503430D01*
X119733023Y-56503430D01*
X119733018Y-56503429D01*
X119536475Y-56488700D01*
X119536454Y-56488700D01*
X119405146Y-56488700D01*
X119405124Y-56488700D01*
X119208581Y-56503429D01*
X119208576Y-56503430D01*
X118952215Y-56561942D01*
X118952196Y-56561948D01*
X118707415Y-56658017D01*
X118479683Y-56789499D01*
X118274090Y-56953454D01*
X118274088Y-56953456D01*
X118095230Y-57146219D01*
X117947095Y-57363494D01*
X117833002Y-57600411D01*
X117755492Y-57851690D01*
X117755490Y-57851696D01*
X117716300Y-58111710D01*
X117716300Y-58374689D01*
X94996000Y-58374689D01*
X94996000Y-52832002D01*
X96008652Y-52832002D01*
X96028028Y-53189368D01*
X96028029Y-53189385D01*
X96085926Y-53542539D01*
X96085932Y-53542565D01*
X96181672Y-53887392D01*
X96181674Y-53887399D01*
X96314142Y-54219870D01*
X96314151Y-54219888D01*
X96481784Y-54536077D01*
X96481790Y-54536086D01*
X96682634Y-54832309D01*
X96682641Y-54832319D01*
X96909089Y-55098914D01*
X96914332Y-55105086D01*
X97174163Y-55351211D01*
X97459081Y-55567800D01*
X97765747Y-55752315D01*
X97765749Y-55752316D01*
X97765751Y-55752317D01*
X97765755Y-55752319D01*
X97997747Y-55859649D01*
X98090565Y-55902591D01*
X98429726Y-56016868D01*
X98779254Y-56093805D01*
X99135052Y-56132500D01*
X99135058Y-56132500D01*
X99492942Y-56132500D01*
X99492948Y-56132500D01*
X99848746Y-56093805D01*
X100198274Y-56016868D01*
X100537435Y-55902591D01*
X100862253Y-55752315D01*
X101168919Y-55567800D01*
X101453837Y-55351211D01*
X101713668Y-55105086D01*
X101945365Y-54832311D01*
X102146211Y-54536085D01*
X102313853Y-54219880D01*
X102446324Y-53887403D01*
X102542071Y-53542552D01*
X102599972Y-53189371D01*
X102619348Y-52832002D01*
X185924652Y-52832002D01*
X185944028Y-53189368D01*
X185944029Y-53189385D01*
X186001926Y-53542539D01*
X186001932Y-53542565D01*
X186097672Y-53887392D01*
X186097674Y-53887399D01*
X186230142Y-54219870D01*
X186230151Y-54219888D01*
X186397784Y-54536077D01*
X186397790Y-54536086D01*
X186598634Y-54832309D01*
X186598641Y-54832319D01*
X186825089Y-55098914D01*
X186830332Y-55105086D01*
X187090163Y-55351211D01*
X187375081Y-55567800D01*
X187681747Y-55752315D01*
X187681749Y-55752316D01*
X187681751Y-55752317D01*
X187681755Y-55752319D01*
X187913747Y-55859649D01*
X188006565Y-55902591D01*
X188345726Y-56016868D01*
X188695254Y-56093805D01*
X189051052Y-56132500D01*
X189051058Y-56132500D01*
X189408942Y-56132500D01*
X189408948Y-56132500D01*
X189764746Y-56093805D01*
X190114274Y-56016868D01*
X190453435Y-55902591D01*
X190778253Y-55752315D01*
X191084919Y-55567800D01*
X191369837Y-55351211D01*
X191629668Y-55105086D01*
X191861365Y-54832311D01*
X192062211Y-54536085D01*
X192229853Y-54219880D01*
X192362324Y-53887403D01*
X192458071Y-53542552D01*
X192515972Y-53189371D01*
X192535348Y-52832000D01*
X192515972Y-52474629D01*
X192458071Y-52121448D01*
X192362324Y-51776597D01*
X192229853Y-51444120D01*
X192062211Y-51127915D01*
X191861365Y-50831689D01*
X191861361Y-50831684D01*
X191861358Y-50831680D01*
X191629668Y-50558914D01*
X191554594Y-50487800D01*
X191369837Y-50312789D01*
X191369830Y-50312783D01*
X191369827Y-50312781D01*
X191248325Y-50220418D01*
X191084919Y-50096200D01*
X190778253Y-49911685D01*
X190778252Y-49911684D01*
X190778248Y-49911682D01*
X190778244Y-49911680D01*
X190453447Y-49761414D01*
X190453441Y-49761411D01*
X190453435Y-49761409D01*
X190275659Y-49701509D01*
X190114273Y-49647131D01*
X189764744Y-49570194D01*
X189408949Y-49531500D01*
X189408948Y-49531500D01*
X189051052Y-49531500D01*
X189051050Y-49531500D01*
X188695255Y-49570194D01*
X188345726Y-49647131D01*
X188089970Y-49733306D01*
X188006565Y-49761409D01*
X188006562Y-49761410D01*
X188006563Y-49761410D01*
X188006552Y-49761414D01*
X187681755Y-49911680D01*
X187681751Y-49911682D01*
X187577705Y-49974285D01*
X187375081Y-50096200D01*
X187286768Y-50163333D01*
X187090172Y-50312781D01*
X187090163Y-50312789D01*
X186830331Y-50558914D01*
X186598641Y-50831680D01*
X186598634Y-50831690D01*
X186397790Y-51127913D01*
X186397784Y-51127922D01*
X186230151Y-51444111D01*
X186230142Y-51444129D01*
X186097674Y-51776600D01*
X186097672Y-51776607D01*
X186001932Y-52121434D01*
X186001926Y-52121460D01*
X185944029Y-52474614D01*
X185944028Y-52474631D01*
X185924652Y-52831997D01*
X185924652Y-52832002D01*
X102619348Y-52832002D01*
X102619348Y-52832000D01*
X102599972Y-52474629D01*
X102542071Y-52121448D01*
X102446324Y-51776597D01*
X102313853Y-51444120D01*
X102146211Y-51127915D01*
X101945365Y-50831689D01*
X101945361Y-50831684D01*
X101945358Y-50831680D01*
X101713668Y-50558914D01*
X101638594Y-50487800D01*
X101453837Y-50312789D01*
X101453830Y-50312783D01*
X101453827Y-50312781D01*
X101332325Y-50220418D01*
X101168919Y-50096200D01*
X100862253Y-49911685D01*
X100862252Y-49911684D01*
X100862248Y-49911682D01*
X100862244Y-49911680D01*
X100537447Y-49761414D01*
X100537441Y-49761411D01*
X100537435Y-49761409D01*
X100359659Y-49701509D01*
X100198273Y-49647131D01*
X99848744Y-49570194D01*
X99492949Y-49531500D01*
X99492948Y-49531500D01*
X99135052Y-49531500D01*
X99135050Y-49531500D01*
X98779255Y-49570194D01*
X98429726Y-49647131D01*
X98173970Y-49733306D01*
X98090565Y-49761409D01*
X98090562Y-49761410D01*
X98090563Y-49761410D01*
X98090552Y-49761414D01*
X97765755Y-49911680D01*
X97765751Y-49911682D01*
X97661705Y-49974285D01*
X97459081Y-50096200D01*
X97370768Y-50163333D01*
X97174172Y-50312781D01*
X97174163Y-50312789D01*
X96914331Y-50558914D01*
X96682641Y-50831680D01*
X96682634Y-50831690D01*
X96481790Y-51127913D01*
X96481784Y-51127922D01*
X96314151Y-51444111D01*
X96314142Y-51444129D01*
X96181674Y-51776600D01*
X96181672Y-51776607D01*
X96085932Y-52121434D01*
X96085926Y-52121460D01*
X96028029Y-52474614D01*
X96028028Y-52474631D01*
X96008652Y-52831997D01*
X96008652Y-52832002D01*
X94996000Y-52832002D01*
X94996000Y-42796000D01*
X95015685Y-42728961D01*
X95068489Y-42683206D01*
X95120000Y-42672000D01*
X98027410Y-42672000D01*
X98094449Y-42691685D01*
G37*
G04 #@! TD.AperFunction*
M02*
