G04 #@! TF.GenerationSoftware,KiCad,Pcbnew,7.0.5*
G04 #@! TF.CreationDate,2023-08-10T19:34:01+02:00*
G04 #@! TF.ProjectId,Siguelineas,53696775-656c-4696-9e65-61732e6b6963,rev?*
G04 #@! TF.SameCoordinates,Original*
G04 #@! TF.FileFunction,Copper,L2,Bot*
G04 #@! TF.FilePolarity,Positive*
%FSLAX46Y46*%
G04 Gerber Fmt 4.6, Leading zero omitted, Abs format (unit mm)*
G04 Created by KiCad (PCBNEW 7.0.5) date 2023-08-10 19:34:01*
%MOMM*%
%LPD*%
G01*
G04 APERTURE LIST*
G04 Aperture macros list*
%AMRoundRect*
0 Rectangle with rounded corners*
0 $1 Rounding radius*
0 $2 $3 $4 $5 $6 $7 $8 $9 X,Y pos of 4 corners*
0 Add a 4 corners polygon primitive as box body*
4,1,4,$2,$3,$4,$5,$6,$7,$8,$9,$2,$3,0*
0 Add four circle primitives for the rounded corners*
1,1,$1+$1,$2,$3*
1,1,$1+$1,$4,$5*
1,1,$1+$1,$6,$7*
1,1,$1+$1,$8,$9*
0 Add four rect primitives between the rounded corners*
20,1,$1+$1,$2,$3,$4,$5,0*
20,1,$1+$1,$4,$5,$6,$7,0*
20,1,$1+$1,$6,$7,$8,$9,0*
20,1,$1+$1,$8,$9,$2,$3,0*%
G04 Aperture macros list end*
G04 #@! TA.AperFunction,ComponentPad*
%ADD10C,3.800000*%
G04 #@! TD*
G04 #@! TA.AperFunction,ComponentPad*
%ADD11C,5.600000*%
G04 #@! TD*
G04 #@! TA.AperFunction,ComponentPad*
%ADD12R,1.700000X1.700000*%
G04 #@! TD*
G04 #@! TA.AperFunction,ComponentPad*
%ADD13O,1.700000X1.700000*%
G04 #@! TD*
G04 #@! TA.AperFunction,ComponentPad*
%ADD14O,2.200000X3.500000*%
G04 #@! TD*
G04 #@! TA.AperFunction,ComponentPad*
%ADD15R,1.500000X2.500000*%
G04 #@! TD*
G04 #@! TA.AperFunction,ComponentPad*
%ADD16O,1.500000X2.500000*%
G04 #@! TD*
G04 #@! TA.AperFunction,ComponentPad*
%ADD17RoundRect,0.250000X0.350000X0.625000X-0.350000X0.625000X-0.350000X-0.625000X0.350000X-0.625000X0*%
G04 #@! TD*
G04 #@! TA.AperFunction,ComponentPad*
%ADD18O,1.200000X1.750000*%
G04 #@! TD*
G04 #@! TA.AperFunction,ComponentPad*
%ADD19C,2.000000*%
G04 #@! TD*
G04 #@! TA.AperFunction,ComponentPad*
%ADD20R,2.000000X2.000000*%
G04 #@! TD*
G04 #@! TA.AperFunction,ComponentPad*
%ADD21RoundRect,0.250000X-0.350000X-0.625000X0.350000X-0.625000X0.350000X0.625000X-0.350000X0.625000X0*%
G04 #@! TD*
G04 #@! TA.AperFunction,ComponentPad*
%ADD22O,2.500000X2.000000*%
G04 #@! TD*
G04 #@! TA.AperFunction,ComponentPad*
%ADD23R,3.800000X3.800000*%
G04 #@! TD*
G04 #@! TA.AperFunction,ViaPad*
%ADD24C,0.800000*%
G04 #@! TD*
G04 #@! TA.AperFunction,Conductor*
%ADD25C,0.250000*%
G04 #@! TD*
G04 #@! TA.AperFunction,Conductor*
%ADD26C,1.000000*%
G04 #@! TD*
G04 APERTURE END LIST*
D10*
X190239800Y-119224800D03*
X190214400Y-100987600D03*
X98685200Y-119140000D03*
D11*
X121285000Y-46634400D03*
D12*
X164337600Y-91998400D03*
D13*
X164337600Y-94538400D03*
X164337600Y-97078400D03*
X164337600Y-99618400D03*
X164337600Y-102158400D03*
X164337600Y-104698400D03*
D10*
X98659800Y-100902800D03*
D14*
X114035400Y-139732000D03*
X122235400Y-139732000D03*
D15*
X116135400Y-139732000D03*
D16*
X118135400Y-139732000D03*
X120135400Y-139732000D03*
D17*
X107984800Y-124146400D03*
D18*
X105984800Y-124146400D03*
D12*
X130037600Y-77318000D03*
D13*
X132577600Y-77318000D03*
X135117600Y-77318000D03*
X137657600Y-77318000D03*
X140197600Y-77318000D03*
X142737600Y-77318000D03*
X145277600Y-77318000D03*
X147817600Y-77318000D03*
D19*
X128822200Y-56946800D03*
X131362200Y-56946800D03*
X133902200Y-56946800D03*
X136442200Y-56946800D03*
X138982200Y-56946800D03*
X141522200Y-56946800D03*
X144062200Y-56946800D03*
X146602200Y-56946800D03*
X149142200Y-56946800D03*
X151682200Y-56946800D03*
X154222200Y-56946800D03*
X156762200Y-56946800D03*
X159302200Y-56946800D03*
X161842200Y-56946800D03*
X164382200Y-56946800D03*
X164382200Y-82346800D03*
X161842200Y-82346800D03*
X159302200Y-82346800D03*
X156762200Y-82346800D03*
X154222200Y-82346800D03*
X151682200Y-82346800D03*
X149142200Y-82346800D03*
X146602200Y-82346800D03*
X144062200Y-82346800D03*
X141522200Y-82346800D03*
X138982200Y-82346800D03*
X136442200Y-82346800D03*
X133902200Y-82346800D03*
X131362200Y-82346800D03*
D20*
X128822200Y-82346800D03*
D12*
X120187800Y-102260400D03*
D13*
X122727800Y-102260400D03*
D12*
X130063000Y-60782600D03*
D13*
X132603000Y-60782600D03*
X135143000Y-60782600D03*
X137683000Y-60782600D03*
X140223000Y-60782600D03*
X142763000Y-60782600D03*
X145303000Y-60782600D03*
X147843000Y-60782600D03*
D11*
X167233600Y-46685200D03*
D18*
X178047400Y-88773000D03*
D21*
X176047400Y-88773000D03*
D13*
X178308000Y-97764600D03*
D12*
X175768000Y-97764600D03*
X140537200Y-140335000D03*
D13*
X143077200Y-140335000D03*
X145617200Y-140335000D03*
X148157200Y-140335000D03*
D19*
X97283200Y-133589200D03*
X103783200Y-133589200D03*
X97283200Y-138089200D03*
X103783200Y-138089200D03*
D22*
X123139200Y-97026000D03*
X123139200Y-87886000D03*
X107899200Y-97026000D03*
X107899200Y-87886000D03*
D23*
X190119000Y-137515600D03*
D10*
X190119000Y-132515600D03*
D24*
X112242600Y-129540000D03*
X150266400Y-76860400D03*
X150241000Y-70332600D03*
X126288800Y-77165200D03*
X125704600Y-87934800D03*
X148107400Y-136423400D03*
X118135400Y-133934200D03*
X148005800Y-47650400D03*
X137683000Y-69265800D03*
D25*
X170281600Y-55956200D02*
X170281600Y-60858400D01*
X156337000Y-54864000D02*
X169189400Y-54864000D01*
X149123400Y-47650400D02*
X156337000Y-54864000D01*
X169189400Y-54864000D02*
X170281600Y-55956200D01*
X170281600Y-60858400D02*
X161785300Y-69354700D01*
X148005800Y-47650400D02*
X149123400Y-47650400D01*
D26*
X138169400Y-85699600D02*
X141522200Y-82346800D01*
X127381000Y-87071200D02*
X128752600Y-85699600D01*
X127381000Y-114401600D02*
X127381000Y-87071200D01*
X112242600Y-129540000D02*
X127381000Y-114401600D01*
X128752600Y-85699600D02*
X138169400Y-85699600D01*
X133273800Y-71374000D02*
X137657600Y-75757800D01*
X115062000Y-80746600D02*
X124434600Y-71374000D01*
X115062000Y-98094800D02*
X115062000Y-80746600D01*
X124434600Y-71374000D02*
X133273800Y-71374000D01*
X107984800Y-105172000D02*
X115062000Y-98094800D01*
X137657600Y-75757800D02*
X137657600Y-77318000D01*
X107984800Y-124146400D02*
X107984800Y-105172000D01*
X133959600Y-68630800D02*
X140197600Y-74868800D01*
X112598200Y-79654400D02*
X123621800Y-68630800D01*
X123621800Y-68630800D02*
X133959600Y-68630800D01*
X140197600Y-74868800D02*
X140197600Y-77318000D01*
X105949200Y-103804000D02*
X112598200Y-97155000D01*
X105949200Y-124110800D02*
X105949200Y-103804000D01*
X112598200Y-97155000D02*
X112598200Y-79654400D01*
X105984800Y-124146400D02*
X105949200Y-124110800D01*
D25*
X150266400Y-70358000D02*
X150241000Y-70332600D01*
X150266400Y-76860400D02*
X150266400Y-70358000D01*
X127533400Y-80594200D02*
X132149600Y-80594200D01*
X126288800Y-77165200D02*
X126288800Y-79349600D01*
X126288800Y-79349600D02*
X127533400Y-80594200D01*
X132149600Y-80594200D02*
X133902200Y-82346800D01*
X120187800Y-95178800D02*
X120187800Y-102260400D01*
X125704600Y-89662000D02*
X120187800Y-95178800D01*
X125704600Y-87934800D02*
X125704600Y-89662000D01*
X160629600Y-88754200D02*
X154222200Y-82346800D01*
X160629600Y-123901200D02*
X160629600Y-88754200D01*
X148107400Y-136423400D02*
X160629600Y-123901200D01*
X161315400Y-82873600D02*
X161842200Y-82346800D01*
X161315400Y-124636800D02*
X161315400Y-82873600D01*
X145617200Y-140335000D02*
X161315400Y-124636800D01*
D26*
X107887400Y-133985000D02*
X103783200Y-138089200D01*
X118084600Y-133985000D02*
X107887400Y-133985000D01*
X118135400Y-133934200D02*
X118084600Y-133985000D01*
D25*
X162001200Y-97282000D02*
X162001200Y-84727800D01*
X164337600Y-99618400D02*
X162001200Y-97282000D01*
X162001200Y-84727800D02*
X164382200Y-82346800D01*
X161785300Y-69354700D02*
X173659800Y-81229200D01*
X161696400Y-69265800D02*
X161785300Y-69354700D01*
X173659800Y-81229200D02*
X173659800Y-85216200D01*
X173659800Y-85216200D02*
X164337600Y-94538400D01*
X137683000Y-69265800D02*
X161696400Y-69265800D01*
G04 #@! TA.AperFunction,Conductor*
G36*
X152840232Y-42364599D02*
G01*
X152889967Y-42369497D01*
X152981024Y-42378465D01*
X153004852Y-42383204D01*
X153131477Y-42421615D01*
X153153925Y-42430914D01*
X153270606Y-42493282D01*
X153290816Y-42506786D01*
X153351161Y-42556309D01*
X153393091Y-42590720D01*
X153410279Y-42607908D01*
X153494212Y-42710181D01*
X153507717Y-42730393D01*
X153570083Y-42847071D01*
X153579386Y-42869528D01*
X153608264Y-42964727D01*
X153617793Y-42996138D01*
X153622535Y-43019980D01*
X153636401Y-43160766D01*
X153636700Y-43166847D01*
X153636700Y-46623918D01*
X153636700Y-46663800D01*
X153636700Y-46874900D01*
X153673350Y-47282116D01*
X153674547Y-47295406D01*
X153749933Y-47710821D01*
X153862249Y-48117787D01*
X153862252Y-48117795D01*
X153862253Y-48117799D01*
X154010603Y-48513076D01*
X154010605Y-48513081D01*
X154010610Y-48513093D01*
X154193778Y-48893447D01*
X154193781Y-48893451D01*
X154193788Y-48893465D01*
X154410334Y-49255901D01*
X154410337Y-49255905D01*
X154410340Y-49255910D01*
X154658488Y-49597456D01*
X154658510Y-49597484D01*
X154936268Y-49915403D01*
X154936278Y-49915414D01*
X155241442Y-50207180D01*
X155241446Y-50207183D01*
X155241448Y-50207185D01*
X155571534Y-50470421D01*
X155571535Y-50470422D01*
X155750229Y-50588375D01*
X155923887Y-50703006D01*
X156271553Y-50890093D01*
X156295676Y-50903074D01*
X156295684Y-50903078D01*
X156538313Y-51006782D01*
X156683898Y-51069008D01*
X157085433Y-51199475D01*
X157497047Y-51293423D01*
X157915426Y-51350096D01*
X158231756Y-51364302D01*
X158337197Y-51369038D01*
X158337200Y-51369038D01*
X158337203Y-51369038D01*
X158434532Y-51364666D01*
X158758974Y-51350096D01*
X159177353Y-51293423D01*
X159588967Y-51199475D01*
X159990502Y-51069008D01*
X160329978Y-50923909D01*
X160378715Y-50903078D01*
X160378719Y-50903075D01*
X160378726Y-50903073D01*
X160750513Y-50703006D01*
X161102870Y-50470418D01*
X161432958Y-50207180D01*
X161738122Y-49915414D01*
X162015903Y-49597468D01*
X162264066Y-49255901D01*
X162480612Y-48893465D01*
X162529190Y-48792593D01*
X162663789Y-48513093D01*
X162663789Y-48513091D01*
X162663797Y-48513076D01*
X162812147Y-48117799D01*
X162924468Y-47710814D01*
X162999854Y-47295399D01*
X163037700Y-46874900D01*
X163037700Y-46685200D01*
X163928252Y-46685200D01*
X163947362Y-47037672D01*
X163947628Y-47042568D01*
X163947629Y-47042585D01*
X164005526Y-47395739D01*
X164005532Y-47395765D01*
X164101272Y-47740592D01*
X164101274Y-47740599D01*
X164233742Y-48073070D01*
X164233751Y-48073088D01*
X164401384Y-48389277D01*
X164401387Y-48389282D01*
X164401389Y-48389285D01*
X164567797Y-48634719D01*
X164602234Y-48685509D01*
X164602241Y-48685519D01*
X164790781Y-48907485D01*
X164833932Y-48958286D01*
X165093763Y-49204411D01*
X165378681Y-49421000D01*
X165685347Y-49605515D01*
X165685349Y-49605516D01*
X165685351Y-49605517D01*
X165685355Y-49605519D01*
X165900362Y-49704991D01*
X166010165Y-49755791D01*
X166349326Y-49870068D01*
X166468067Y-49896205D01*
X166543373Y-49912781D01*
X166604614Y-49946417D01*
X166637948Y-50007822D01*
X166632792Y-50077501D01*
X166590783Y-50133332D01*
X166570519Y-50145602D01*
X166484570Y-50186992D01*
X166273982Y-50330568D01*
X166087152Y-50503921D01*
X166087150Y-50503923D01*
X165928241Y-50703188D01*
X165800808Y-50923909D01*
X165707692Y-51161162D01*
X165707690Y-51161169D01*
X165650977Y-51409645D01*
X165631932Y-51663795D01*
X165631932Y-51663804D01*
X165650977Y-51917954D01*
X165650978Y-51917957D01*
X165707692Y-52166437D01*
X165800807Y-52403688D01*
X165928241Y-52624412D01*
X166087150Y-52823677D01*
X166273983Y-52997032D01*
X166484566Y-53140605D01*
X166484571Y-53140607D01*
X166484572Y-53140608D01*
X166484573Y-53140609D01*
X166606528Y-53199338D01*
X166714192Y-53251187D01*
X166714193Y-53251187D01*
X166714196Y-53251189D01*
X166957742Y-53326313D01*
X167209765Y-53364300D01*
X167464635Y-53364300D01*
X167716658Y-53326313D01*
X167960204Y-53251189D01*
X168189834Y-53140605D01*
X168400417Y-52997032D01*
X168587250Y-52823677D01*
X168746159Y-52624412D01*
X168873593Y-52403688D01*
X168966708Y-52166437D01*
X169023422Y-51917957D01*
X169042468Y-51663800D01*
X169023422Y-51409643D01*
X168966708Y-51161163D01*
X168873593Y-50923912D01*
X168746159Y-50703188D01*
X168587250Y-50503923D01*
X168400417Y-50330568D01*
X168189834Y-50186995D01*
X168189828Y-50186992D01*
X168189827Y-50186991D01*
X168189825Y-50186990D01*
X168038884Y-50114301D01*
X167987024Y-50067479D01*
X167968711Y-50000052D01*
X167989759Y-49933428D01*
X168043485Y-49888759D01*
X168066029Y-49881480D01*
X168074379Y-49879641D01*
X168117874Y-49870068D01*
X168457035Y-49755791D01*
X168781853Y-49605515D01*
X169088519Y-49421000D01*
X169373437Y-49204411D01*
X169633268Y-48958286D01*
X169864965Y-48685511D01*
X170065811Y-48389285D01*
X170233453Y-48073080D01*
X170365924Y-47740603D01*
X170461671Y-47395752D01*
X170484430Y-47256930D01*
X170519570Y-47042585D01*
X170519570Y-47042582D01*
X170519572Y-47042571D01*
X170538948Y-46685200D01*
X170519572Y-46327829D01*
X170511244Y-46277031D01*
X170461673Y-45974660D01*
X170461672Y-45974659D01*
X170461671Y-45974648D01*
X170366259Y-45631004D01*
X170365927Y-45629807D01*
X170365925Y-45629800D01*
X170233457Y-45297329D01*
X170233448Y-45297311D01*
X170065815Y-44981122D01*
X170065813Y-44981119D01*
X170065811Y-44981115D01*
X169864965Y-44684889D01*
X169864961Y-44684884D01*
X169864958Y-44684880D01*
X169633268Y-44412114D01*
X169530071Y-44314361D01*
X169373437Y-44165989D01*
X169373430Y-44165983D01*
X169373427Y-44165981D01*
X169291126Y-44103418D01*
X169088519Y-43949400D01*
X168781853Y-43764885D01*
X168781852Y-43764884D01*
X168781848Y-43764882D01*
X168781844Y-43764880D01*
X168457047Y-43614614D01*
X168457041Y-43614611D01*
X168457035Y-43614609D01*
X168287454Y-43557470D01*
X168117873Y-43500331D01*
X167768344Y-43423394D01*
X167412549Y-43384700D01*
X167412548Y-43384700D01*
X167054652Y-43384700D01*
X167054650Y-43384700D01*
X166698855Y-43423394D01*
X166349326Y-43500331D01*
X166093570Y-43586506D01*
X166010165Y-43614609D01*
X166010162Y-43614610D01*
X166010163Y-43614610D01*
X166010152Y-43614614D01*
X165685355Y-43764880D01*
X165685351Y-43764882D01*
X165463113Y-43898599D01*
X165378681Y-43949400D01*
X165290368Y-44016533D01*
X165093772Y-44165981D01*
X165093763Y-44165989D01*
X164833931Y-44412114D01*
X164602241Y-44684880D01*
X164602234Y-44684890D01*
X164401390Y-44981113D01*
X164401384Y-44981122D01*
X164233751Y-45297311D01*
X164233742Y-45297329D01*
X164101274Y-45629800D01*
X164101272Y-45629807D01*
X164005532Y-45974634D01*
X164005526Y-45974660D01*
X163947629Y-46327814D01*
X163947628Y-46327831D01*
X163931575Y-46623918D01*
X163928252Y-46685200D01*
X163037700Y-46685200D01*
X163037700Y-46665218D01*
X163037765Y-46662381D01*
X163039528Y-46623914D01*
X163055588Y-46273442D01*
X163056103Y-46267834D01*
X163109229Y-45883537D01*
X163110255Y-45877994D01*
X163198297Y-45500180D01*
X163199835Y-45494726D01*
X163322052Y-45126566D01*
X163324077Y-45121282D01*
X163479462Y-44765811D01*
X163481947Y-44760768D01*
X163669195Y-44420985D01*
X163672151Y-44416160D01*
X163674891Y-44412114D01*
X163889666Y-44094952D01*
X163893028Y-44090446D01*
X164139020Y-43790459D01*
X164142803Y-43786253D01*
X164415196Y-43510018D01*
X164419328Y-43506195D01*
X164715846Y-43256024D01*
X164720309Y-43252596D01*
X165038444Y-43030600D01*
X165043229Y-43027576D01*
X165380325Y-42835608D01*
X165385383Y-42833028D01*
X165738614Y-42672694D01*
X165743875Y-42670590D01*
X166110305Y-42543224D01*
X166115721Y-42541617D01*
X166492252Y-42448295D01*
X166497784Y-42447190D01*
X166881290Y-42388690D01*
X166886903Y-42388095D01*
X167274158Y-42364910D01*
X167279789Y-42364831D01*
X167667533Y-42377156D01*
X167673184Y-42377596D01*
X168058153Y-42425326D01*
X168063736Y-42426278D01*
X168442734Y-42509013D01*
X168448193Y-42510469D01*
X168818052Y-42627522D01*
X168823357Y-42629471D01*
X169180920Y-42779838D01*
X169180949Y-42779850D01*
X169186066Y-42782282D01*
X169528379Y-42964716D01*
X169528400Y-42964727D01*
X169533280Y-42967621D01*
X169857507Y-43180615D01*
X169862089Y-43183935D01*
X170114043Y-43384700D01*
X170165463Y-43425673D01*
X170169730Y-43429404D01*
X170362890Y-43614610D01*
X170449739Y-43697883D01*
X170453653Y-43701997D01*
X170707933Y-43994952D01*
X170711434Y-43999379D01*
X170937865Y-44314371D01*
X170940959Y-44319119D01*
X171137509Y-44653281D01*
X171140312Y-44658625D01*
X171215768Y-44821273D01*
X171218157Y-44827206D01*
X171276386Y-44996519D01*
X171278152Y-45002666D01*
X171318645Y-45177088D01*
X171319768Y-45183384D01*
X171342290Y-45362640D01*
X171342607Y-45365821D01*
X171346264Y-45415539D01*
X171346281Y-45415642D01*
X171406570Y-46234772D01*
X171406573Y-46234814D01*
X171573229Y-47972771D01*
X171778322Y-49706649D01*
X172021741Y-51435499D01*
X172303375Y-53158544D01*
X172303381Y-53158578D01*
X172623067Y-54874845D01*
X172623077Y-54874899D01*
X172623084Y-54874933D01*
X172816553Y-55799404D01*
X172980714Y-56583835D01*
X173083351Y-57025292D01*
X173358156Y-58207274D01*
X173376099Y-58284447D01*
X173376100Y-58284453D01*
X173808991Y-59975719D01*
X173809027Y-59975854D01*
X174212147Y-61417187D01*
X174279271Y-61657187D01*
X174423810Y-62133099D01*
X174786650Y-63327795D01*
X175330872Y-64986713D01*
X175911681Y-66633161D01*
X176528784Y-68266319D01*
X176528801Y-68266362D01*
X176528810Y-68266385D01*
X176783397Y-68897522D01*
X177181933Y-69885519D01*
X177181934Y-69885522D01*
X177870742Y-71489805D01*
X177870753Y-71489831D01*
X177870756Y-71489836D01*
X178594918Y-73078492D01*
X178594933Y-73078523D01*
X178594938Y-73078534D01*
X179354058Y-74650701D01*
X179354073Y-74650731D01*
X180147858Y-76205796D01*
X180975822Y-77742810D01*
X180975851Y-77742864D01*
X181229121Y-78189078D01*
X181837678Y-79261243D01*
X181837682Y-79261249D01*
X181837689Y-79261262D01*
X182298310Y-80032502D01*
X182732911Y-80760176D01*
X183219443Y-81535290D01*
X183661102Y-82238916D01*
X183661138Y-82238972D01*
X184621788Y-83696723D01*
X184621804Y-83696746D01*
X184621811Y-83696757D01*
X185614553Y-85132968D01*
X186638847Y-86546849D01*
X187694190Y-87937708D01*
X188780065Y-89304863D01*
X188780080Y-89304881D01*
X188780096Y-89304901D01*
X188780100Y-89304907D01*
X189574914Y-90261340D01*
X189895939Y-90647644D01*
X189895951Y-90647658D01*
X190020719Y-90791209D01*
X191041267Y-91965393D01*
X191041296Y-91965425D01*
X191041297Y-91965426D01*
X192215457Y-93257433D01*
X192215522Y-93257502D01*
X192786990Y-93859026D01*
X192787012Y-93859051D01*
X192815845Y-93889398D01*
X192817584Y-93891307D01*
X192984680Y-94082751D01*
X193081383Y-94193545D01*
X193084656Y-94197631D01*
X193321228Y-94519944D01*
X193324145Y-94524291D01*
X193532702Y-94865415D01*
X193535242Y-94869993D01*
X193714287Y-95227476D01*
X193716431Y-95232251D01*
X193864699Y-95603569D01*
X193866433Y-95608508D01*
X193982861Y-95991005D01*
X193984171Y-95996067D01*
X194022946Y-96177044D01*
X194067931Y-96387011D01*
X194068811Y-96392172D01*
X194119306Y-96788789D01*
X194119747Y-96794005D01*
X194136645Y-97194037D01*
X194136700Y-97196654D01*
X194136700Y-141160751D01*
X194136401Y-141166832D01*
X194122535Y-141307619D01*
X194117793Y-141331461D01*
X194079386Y-141458071D01*
X194070083Y-141480528D01*
X194007717Y-141597206D01*
X193994212Y-141617418D01*
X193910279Y-141719691D01*
X193893091Y-141736879D01*
X193790818Y-141820812D01*
X193770606Y-141834317D01*
X193653928Y-141896683D01*
X193631471Y-141905986D01*
X193504861Y-141944393D01*
X193481019Y-141949135D01*
X193340233Y-141963001D01*
X193334152Y-141963300D01*
X123157791Y-141963300D01*
X123090752Y-141943615D01*
X123044997Y-141890811D01*
X123035053Y-141821653D01*
X123064078Y-141758097D01*
X123093001Y-141733573D01*
X123163029Y-141690659D01*
X123179059Y-141680836D01*
X123370624Y-141517224D01*
X123534236Y-141325659D01*
X123665866Y-141110859D01*
X123762273Y-140878111D01*
X123821083Y-140633148D01*
X123835900Y-140444882D01*
X123835900Y-139921706D01*
X131102828Y-139921706D01*
X131112613Y-140152062D01*
X131112614Y-140152070D01*
X131161190Y-140377462D01*
X131161190Y-140377463D01*
X131247157Y-140591402D01*
X131368048Y-140787742D01*
X131520380Y-140960825D01*
X131520384Y-140960829D01*
X131699765Y-141105669D01*
X131699766Y-141105670D01*
X131699769Y-141105671D01*
X131699772Y-141105674D01*
X131901063Y-141218121D01*
X132118462Y-141294933D01*
X132245272Y-141316677D01*
X132345706Y-141333899D01*
X132345715Y-141333900D01*
X132518534Y-141333900D01*
X132518535Y-141333900D01*
X132518536Y-141333899D01*
X132518553Y-141333899D01*
X132690734Y-141319244D01*
X132690737Y-141319243D01*
X132690739Y-141319243D01*
X132913869Y-141261145D01*
X133049210Y-141199967D01*
X133123965Y-141166176D01*
X133123967Y-141166175D01*
X133123967Y-141166174D01*
X133123971Y-141166173D01*
X133315000Y-141037059D01*
X133481462Y-140877519D01*
X133618566Y-140692142D01*
X133722370Y-140486260D01*
X133789886Y-140265797D01*
X133819172Y-140037094D01*
X133809386Y-139806732D01*
X133760810Y-139581338D01*
X133674841Y-139367394D01*
X133553951Y-139171057D01*
X133401620Y-138997975D01*
X133401619Y-138997974D01*
X133401615Y-138997970D01*
X133222234Y-138853130D01*
X133222233Y-138853129D01*
X133216934Y-138850169D01*
X133167837Y-138822741D01*
X133020938Y-138740679D01*
X132803541Y-138663868D01*
X132803540Y-138663867D01*
X132803538Y-138663867D01*
X132803534Y-138663866D01*
X132803533Y-138663866D01*
X132576293Y-138624900D01*
X132576285Y-138624900D01*
X132403465Y-138624900D01*
X132403446Y-138624900D01*
X132231265Y-138639555D01*
X132008131Y-138697654D01*
X131798034Y-138792623D01*
X131798032Y-138792624D01*
X131606999Y-138921742D01*
X131440540Y-139081278D01*
X131303434Y-139266657D01*
X131199630Y-139472538D01*
X131132113Y-139693006D01*
X131102828Y-139921706D01*
X123835900Y-139921706D01*
X123835900Y-139019118D01*
X123821083Y-138830852D01*
X123762273Y-138585889D01*
X123687661Y-138405758D01*
X123665866Y-138353140D01*
X123534239Y-138138346D01*
X123534238Y-138138343D01*
X123469632Y-138062700D01*
X123370624Y-137946776D01*
X123243971Y-137838604D01*
X123179056Y-137783161D01*
X123179053Y-137783160D01*
X122964259Y-137651533D01*
X122731510Y-137555126D01*
X122486551Y-137496317D01*
X122298186Y-137481492D01*
X122235400Y-137476551D01*
X122235399Y-137476551D01*
X121984248Y-137496317D01*
X121739289Y-137555126D01*
X121506540Y-137651533D01*
X121291746Y-137783160D01*
X121291743Y-137783161D01*
X121100176Y-137946776D01*
X120939925Y-138134405D01*
X120881418Y-138172598D01*
X120811550Y-138173096D01*
X120777324Y-138157360D01*
X120730366Y-138126363D01*
X120523395Y-138037899D01*
X120523382Y-138037895D01*
X120303942Y-137987810D01*
X120303938Y-137987809D01*
X120303937Y-137987809D01*
X120303936Y-137987808D01*
X120303931Y-137987808D01*
X120079074Y-137977710D01*
X120079073Y-137977710D01*
X120079070Y-137977710D01*
X119856013Y-138007925D01*
X119856010Y-138007925D01*
X119856009Y-138007926D01*
X119641934Y-138077483D01*
X119443721Y-138184146D01*
X119443718Y-138184148D01*
X119267737Y-138324488D01*
X119267729Y-138324496D01*
X119229274Y-138368511D01*
X119170342Y-138406044D01*
X119100473Y-138405758D01*
X119050203Y-138376552D01*
X119008847Y-138337012D01*
X118918225Y-138250368D01*
X118918223Y-138250366D01*
X118730366Y-138126363D01*
X118523395Y-138037899D01*
X118523382Y-138037895D01*
X118303942Y-137987810D01*
X118303938Y-137987809D01*
X118303937Y-137987809D01*
X118303936Y-137987808D01*
X118303931Y-137987808D01*
X118079074Y-137977710D01*
X118079073Y-137977710D01*
X118079070Y-137977710D01*
X117856013Y-138007925D01*
X117856010Y-138007925D01*
X117856009Y-138007926D01*
X117641934Y-138077483D01*
X117443711Y-138184152D01*
X117439069Y-138187217D01*
X117438014Y-138185619D01*
X117381217Y-138208788D01*
X117312526Y-138196012D01*
X117269360Y-138159739D01*
X117253345Y-138138346D01*
X117242946Y-138124454D01*
X117242945Y-138124453D01*
X117242944Y-138124452D01*
X117127735Y-138038206D01*
X117127728Y-138038202D01*
X116992882Y-137987908D01*
X116992883Y-137987908D01*
X116933283Y-137981501D01*
X116933281Y-137981500D01*
X116933273Y-137981500D01*
X116933264Y-137981500D01*
X115337529Y-137981500D01*
X115337518Y-137981501D01*
X115276872Y-137988020D01*
X115208113Y-137975612D01*
X115174768Y-137949521D01*
X115174069Y-137950221D01*
X115170627Y-137946779D01*
X115170625Y-137946777D01*
X115170624Y-137946776D01*
X115074841Y-137864969D01*
X114979056Y-137783161D01*
X114979053Y-137783160D01*
X114764259Y-137651533D01*
X114531510Y-137555126D01*
X114286551Y-137496317D01*
X114098186Y-137481492D01*
X114035400Y-137476551D01*
X114035399Y-137476551D01*
X113784248Y-137496317D01*
X113539289Y-137555126D01*
X113306540Y-137651533D01*
X113091746Y-137783160D01*
X113091743Y-137783161D01*
X112900176Y-137946776D01*
X112736561Y-138138343D01*
X112736560Y-138138346D01*
X112604933Y-138353140D01*
X112508526Y-138585889D01*
X112449717Y-138830848D01*
X112434900Y-139019112D01*
X112434900Y-140444887D01*
X112449717Y-140633151D01*
X112508526Y-140878110D01*
X112604933Y-141110859D01*
X112736560Y-141325653D01*
X112736561Y-141325656D01*
X112748425Y-141339547D01*
X112900176Y-141517224D01*
X113048466Y-141643875D01*
X113091743Y-141680838D01*
X113091746Y-141680839D01*
X113177799Y-141733573D01*
X113224674Y-141785385D01*
X113236097Y-141854314D01*
X113208440Y-141918477D01*
X113150484Y-141957502D01*
X113113009Y-141963300D01*
X95340248Y-141963300D01*
X95334167Y-141963001D01*
X95193380Y-141949135D01*
X95169540Y-141944393D01*
X95042928Y-141905986D01*
X95020471Y-141896683D01*
X94903793Y-141834317D01*
X94883581Y-141820812D01*
X94781308Y-141736879D01*
X94764120Y-141719691D01*
X94730394Y-141678596D01*
X94680186Y-141617416D01*
X94666682Y-141597206D01*
X94622092Y-141513784D01*
X94604314Y-141480525D01*
X94595015Y-141458077D01*
X94556604Y-141331452D01*
X94551865Y-141307624D01*
X94537999Y-141166831D01*
X94537700Y-141160751D01*
X94537700Y-138089205D01*
X95777557Y-138089205D01*
X95798090Y-138337012D01*
X95798092Y-138337024D01*
X95859136Y-138578081D01*
X95959026Y-138805806D01*
X96095033Y-139013982D01*
X96106884Y-139026855D01*
X96263456Y-139196938D01*
X96459691Y-139349674D01*
X96459693Y-139349675D01*
X96669919Y-139463444D01*
X96678390Y-139468028D01*
X96913586Y-139548771D01*
X97158865Y-139589700D01*
X97407535Y-139589700D01*
X97652814Y-139548771D01*
X97888010Y-139468028D01*
X98106709Y-139349674D01*
X98302944Y-139196938D01*
X98471364Y-139013985D01*
X98607373Y-138805807D01*
X98707263Y-138578081D01*
X98768308Y-138337021D01*
X98774088Y-138267268D01*
X98788843Y-138089205D01*
X102277557Y-138089205D01*
X102298090Y-138337012D01*
X102298092Y-138337024D01*
X102359136Y-138578081D01*
X102459026Y-138805806D01*
X102595033Y-139013982D01*
X102606884Y-139026855D01*
X102763456Y-139196938D01*
X102959691Y-139349674D01*
X102959693Y-139349675D01*
X103169919Y-139463444D01*
X103178390Y-139468028D01*
X103413586Y-139548771D01*
X103658865Y-139589700D01*
X103907535Y-139589700D01*
X104152814Y-139548771D01*
X104388010Y-139468028D01*
X104606709Y-139349674D01*
X104802944Y-139196938D01*
X104971364Y-139013985D01*
X105107373Y-138805807D01*
X105207263Y-138578081D01*
X105268308Y-138337021D01*
X105274088Y-138267268D01*
X105288843Y-138089204D01*
X105288843Y-138089196D01*
X105286647Y-138062700D01*
X105300727Y-137994264D01*
X105322539Y-137964780D01*
X108265501Y-135021819D01*
X108326825Y-134988334D01*
X108353183Y-134985500D01*
X118071107Y-134985500D01*
X118072669Y-134985519D01*
X118109883Y-134986462D01*
X118160958Y-134987757D01*
X118160958Y-134987756D01*
X118160963Y-134987757D01*
X118221353Y-134976932D01*
X118226012Y-134976280D01*
X118268207Y-134971988D01*
X118287038Y-134970074D01*
X118319827Y-134959786D01*
X118327440Y-134957918D01*
X118361253Y-134951858D01*
X118418221Y-134929101D01*
X118422653Y-134927524D01*
X118481188Y-134909159D01*
X118511227Y-134892484D01*
X118518308Y-134889122D01*
X118550217Y-134876377D01*
X118601454Y-134842608D01*
X118605451Y-134840187D01*
X118659102Y-134810409D01*
X118685168Y-134788030D01*
X118691443Y-134783300D01*
X118720119Y-134764402D01*
X118763516Y-134721003D01*
X118766933Y-134717837D01*
X118813495Y-134677866D01*
X118834523Y-134650698D01*
X118839709Y-134644809D01*
X118878740Y-134605780D01*
X118975098Y-134487607D01*
X119069309Y-134307249D01*
X119125287Y-134111618D01*
X119140737Y-133908724D01*
X119115030Y-133706872D01*
X119049216Y-133514328D01*
X118945990Y-133338973D01*
X118809579Y-133187987D01*
X118727045Y-133127381D01*
X118645571Y-133067553D01*
X118645564Y-133067549D01*
X118460674Y-132982597D01*
X118460661Y-132982592D01*
X118262454Y-132936597D01*
X118059042Y-132931442D01*
X117858751Y-132967340D01*
X117858749Y-132967341D01*
X117852127Y-132969986D01*
X117837939Y-132975653D01*
X117791943Y-132984500D01*
X107900852Y-132984500D01*
X107899289Y-132984480D01*
X107811036Y-132982244D01*
X107811035Y-132982244D01*
X107811026Y-132982244D01*
X107750663Y-132993064D01*
X107745997Y-132993718D01*
X107684964Y-132999925D01*
X107652180Y-133010210D01*
X107644553Y-133012082D01*
X107610749Y-133018141D01*
X107553781Y-133040895D01*
X107549345Y-133042474D01*
X107490814Y-133060840D01*
X107490810Y-133060842D01*
X107460778Y-133077510D01*
X107453684Y-133080879D01*
X107421782Y-133093623D01*
X107421777Y-133093625D01*
X107370556Y-133127381D01*
X107366528Y-133129822D01*
X107312901Y-133159588D01*
X107286834Y-133181965D01*
X107280565Y-133186692D01*
X107251884Y-133205595D01*
X107251878Y-133205600D01*
X107208509Y-133248968D01*
X107205055Y-133252169D01*
X107158502Y-133292136D01*
X107137476Y-133319298D01*
X107132285Y-133325192D01*
X103905099Y-136552381D01*
X103843776Y-136585866D01*
X103817418Y-136588700D01*
X103658865Y-136588700D01*
X103413583Y-136629629D01*
X103178397Y-136710369D01*
X103178388Y-136710372D01*
X102959693Y-136828724D01*
X102763457Y-136981461D01*
X102595033Y-137164417D01*
X102459026Y-137372593D01*
X102359136Y-137600318D01*
X102298092Y-137841375D01*
X102298090Y-137841387D01*
X102277557Y-138089194D01*
X102277557Y-138089205D01*
X98788843Y-138089205D01*
X98788843Y-138089194D01*
X98768309Y-137841387D01*
X98768307Y-137841375D01*
X98707263Y-137600318D01*
X98607373Y-137372593D01*
X98471366Y-137164417D01*
X98449757Y-137140944D01*
X98302944Y-136981462D01*
X98106709Y-136828726D01*
X98106707Y-136828725D01*
X98106706Y-136828724D01*
X97888011Y-136710372D01*
X97888002Y-136710369D01*
X97652816Y-136629629D01*
X97407535Y-136588700D01*
X97158865Y-136588700D01*
X96913583Y-136629629D01*
X96678397Y-136710369D01*
X96678388Y-136710372D01*
X96459693Y-136828724D01*
X96263457Y-136981461D01*
X96095033Y-137164417D01*
X95959026Y-137372593D01*
X95859136Y-137600318D01*
X95798092Y-137841375D01*
X95798090Y-137841387D01*
X95777557Y-138089194D01*
X95777557Y-138089205D01*
X94537700Y-138089205D01*
X94537700Y-133589205D01*
X95777557Y-133589205D01*
X95798090Y-133837012D01*
X95798092Y-133837024D01*
X95859136Y-134078081D01*
X95959026Y-134305806D01*
X96095033Y-134513982D01*
X96095036Y-134513985D01*
X96263456Y-134696938D01*
X96459691Y-134849674D01*
X96459693Y-134849675D01*
X96663167Y-134959790D01*
X96678390Y-134968028D01*
X96913586Y-135048771D01*
X97158865Y-135089700D01*
X97407535Y-135089700D01*
X97652814Y-135048771D01*
X97888010Y-134968028D01*
X98106709Y-134849674D01*
X98302944Y-134696938D01*
X98471364Y-134513985D01*
X98607373Y-134305807D01*
X98707263Y-134078081D01*
X98768308Y-133837021D01*
X98779092Y-133706878D01*
X98788843Y-133589205D01*
X102277557Y-133589205D01*
X102298090Y-133837012D01*
X102298092Y-133837024D01*
X102359136Y-134078081D01*
X102459026Y-134305806D01*
X102595033Y-134513982D01*
X102595036Y-134513985D01*
X102763456Y-134696938D01*
X102959691Y-134849674D01*
X102959693Y-134849675D01*
X103163167Y-134959790D01*
X103178390Y-134968028D01*
X103413586Y-135048771D01*
X103658865Y-135089700D01*
X103907535Y-135089700D01*
X104152814Y-135048771D01*
X104388010Y-134968028D01*
X104606709Y-134849674D01*
X104802944Y-134696938D01*
X104971364Y-134513985D01*
X105107373Y-134305807D01*
X105207263Y-134078081D01*
X105268308Y-133837021D01*
X105279092Y-133706878D01*
X105288843Y-133589205D01*
X105288843Y-133589194D01*
X105268309Y-133341387D01*
X105268307Y-133341375D01*
X105207263Y-133100318D01*
X105107373Y-132872593D01*
X104971366Y-132664417D01*
X104949757Y-132640944D01*
X104802944Y-132481462D01*
X104606709Y-132328726D01*
X104606707Y-132328725D01*
X104606706Y-132328724D01*
X104388011Y-132210372D01*
X104388002Y-132210369D01*
X104152816Y-132129629D01*
X103907535Y-132088700D01*
X103658865Y-132088700D01*
X103413583Y-132129629D01*
X103178397Y-132210369D01*
X103178388Y-132210372D01*
X102959693Y-132328724D01*
X102763457Y-132481461D01*
X102595033Y-132664417D01*
X102459026Y-132872593D01*
X102359136Y-133100318D01*
X102298092Y-133341375D01*
X102298090Y-133341387D01*
X102277557Y-133589194D01*
X102277557Y-133589205D01*
X98788843Y-133589205D01*
X98788843Y-133589194D01*
X98768309Y-133341387D01*
X98768307Y-133341375D01*
X98707263Y-133100318D01*
X98607373Y-132872593D01*
X98471366Y-132664417D01*
X98449757Y-132640944D01*
X98302944Y-132481462D01*
X98106709Y-132328726D01*
X98106707Y-132328725D01*
X98106706Y-132328724D01*
X97888011Y-132210372D01*
X97888002Y-132210369D01*
X97652816Y-132129629D01*
X97407535Y-132088700D01*
X97158865Y-132088700D01*
X96913583Y-132129629D01*
X96678397Y-132210369D01*
X96678388Y-132210372D01*
X96459693Y-132328724D01*
X96263457Y-132481461D01*
X96095033Y-132664417D01*
X95959026Y-132872593D01*
X95859136Y-133100318D01*
X95798092Y-133341375D01*
X95798090Y-133341387D01*
X95777557Y-133589194D01*
X95777557Y-133589205D01*
X94537700Y-133589205D01*
X94537700Y-129565477D01*
X111237262Y-129565477D01*
X111262968Y-129767321D01*
X111262970Y-129767329D01*
X111328783Y-129959870D01*
X111328789Y-129959882D01*
X111432006Y-130135221D01*
X111432010Y-130135227D01*
X111448029Y-130152958D01*
X111568420Y-130286212D01*
X111732428Y-130406646D01*
X111732435Y-130406650D01*
X111902486Y-130484784D01*
X111917332Y-130491605D01*
X111983056Y-130506857D01*
X112115545Y-130537603D01*
X112318958Y-130542757D01*
X112318958Y-130542756D01*
X112318963Y-130542757D01*
X112498452Y-130510586D01*
X112519248Y-130506859D01*
X112519248Y-130506858D01*
X112519253Y-130506858D01*
X112708217Y-130431377D01*
X112878119Y-130319402D01*
X128079001Y-115118518D01*
X128080014Y-115117531D01*
X128144053Y-115056659D01*
X128179112Y-115006286D01*
X128181925Y-115002557D01*
X128220698Y-114955007D01*
X128236607Y-114924548D01*
X128240667Y-114917848D01*
X128260295Y-114889649D01*
X128284492Y-114833260D01*
X128286498Y-114829035D01*
X128314909Y-114774649D01*
X128324360Y-114741615D01*
X128326991Y-114734228D01*
X128339553Y-114704957D01*
X128340540Y-114702658D01*
X128352893Y-114642540D01*
X128354006Y-114638012D01*
X128370887Y-114579018D01*
X128373495Y-114544755D01*
X128374587Y-114536976D01*
X128377295Y-114523804D01*
X128381500Y-114503341D01*
X128381500Y-114442000D01*
X128381679Y-114437292D01*
X128386337Y-114376125D01*
X128381997Y-114342041D01*
X128381500Y-114334202D01*
X128381500Y-113301109D01*
X130477479Y-113301109D01*
X130507168Y-113570935D01*
X130507170Y-113570948D01*
X130541827Y-113703515D01*
X130575832Y-113833584D01*
X130682003Y-114083424D01*
X130754288Y-114201868D01*
X130823416Y-114315140D01*
X130823417Y-114315142D01*
X130823419Y-114315144D01*
X130997068Y-114523804D01*
X131199246Y-114704957D01*
X131425647Y-114854742D01*
X131671443Y-114969967D01*
X131931397Y-115048175D01*
X132199968Y-115087700D01*
X132199973Y-115087700D01*
X132403479Y-115087700D01*
X132403481Y-115087700D01*
X132403486Y-115087699D01*
X132403498Y-115087699D01*
X132441124Y-115084944D01*
X132606440Y-115072845D01*
X132717188Y-115048175D01*
X132871402Y-115013823D01*
X132871404Y-115013822D01*
X132871409Y-115013821D01*
X133124961Y-114916846D01*
X133361691Y-114783986D01*
X133576553Y-114618075D01*
X133764969Y-114422647D01*
X133922923Y-114201868D01*
X134047048Y-113960444D01*
X134134698Y-113703520D01*
X134184006Y-113436571D01*
X134193920Y-113165289D01*
X134164230Y-112895453D01*
X134095568Y-112632816D01*
X133989397Y-112382976D01*
X133847981Y-112151256D01*
X133674332Y-111942596D01*
X133472154Y-111761443D01*
X133352697Y-111682411D01*
X133245755Y-111611659D01*
X133245753Y-111611658D01*
X132999957Y-111496433D01*
X132740003Y-111418225D01*
X132740001Y-111418224D01*
X132739999Y-111418224D01*
X132643699Y-111404052D01*
X132471432Y-111378700D01*
X132267919Y-111378700D01*
X132267901Y-111378700D01*
X132064960Y-111393555D01*
X132064946Y-111393557D01*
X131799997Y-111452576D01*
X131799990Y-111452579D01*
X131546436Y-111549555D01*
X131309712Y-111682411D01*
X131094840Y-111848330D01*
X131094839Y-111848332D01*
X130906434Y-112043749D01*
X130906432Y-112043751D01*
X130748478Y-112264529D01*
X130624356Y-112505946D01*
X130624349Y-112505962D01*
X130536705Y-112762866D01*
X130536701Y-112762884D01*
X130487393Y-113029831D01*
X130487393Y-113029833D01*
X130477479Y-113301109D01*
X128381500Y-113301109D01*
X128381500Y-101244400D01*
X130712755Y-101244400D01*
X130732833Y-101985589D01*
X130793008Y-102724587D01*
X130793010Y-102724606D01*
X130893108Y-103459281D01*
X131032825Y-104187415D01*
X131032829Y-104187433D01*
X131032830Y-104187438D01*
X131211771Y-104906979D01*
X131211773Y-104906987D01*
X131211776Y-104906997D01*
X131429407Y-105615779D01*
X131685095Y-106311755D01*
X131685095Y-106311756D01*
X131865067Y-106730130D01*
X131978088Y-106992864D01*
X131978099Y-106992886D01*
X132307516Y-107657094D01*
X132307529Y-107657119D01*
X132672449Y-108302569D01*
X133071770Y-108927299D01*
X133504313Y-109529475D01*
X133504327Y-109529495D01*
X133968846Y-110107383D01*
X133968860Y-110107400D01*
X134464007Y-110659316D01*
X134988271Y-111183580D01*
X134988280Y-111183588D01*
X134988285Y-111183593D01*
X135540189Y-111678729D01*
X136118091Y-112143259D01*
X136246904Y-112235785D01*
X136720288Y-112575817D01*
X137345018Y-112975138D01*
X137345030Y-112975145D01*
X137345032Y-112975146D01*
X137990474Y-113340062D01*
X138654724Y-113669500D01*
X139335836Y-113962494D01*
X140031812Y-114218182D01*
X140740609Y-114435817D01*
X141460150Y-114614758D01*
X142013162Y-114720871D01*
X142121364Y-114741634D01*
X142188322Y-114754482D01*
X142922992Y-114854579D01*
X143662003Y-114914755D01*
X144403188Y-114934833D01*
X145144373Y-114914755D01*
X145883384Y-114854579D01*
X146618054Y-114754482D01*
X147346226Y-114614758D01*
X148065767Y-114435817D01*
X148774564Y-114218182D01*
X149470540Y-113962494D01*
X150151652Y-113669500D01*
X150815902Y-113340062D01*
X150884800Y-113301109D01*
X154480479Y-113301109D01*
X154510168Y-113570935D01*
X154510170Y-113570948D01*
X154544827Y-113703515D01*
X154578832Y-113833584D01*
X154685003Y-114083424D01*
X154757288Y-114201868D01*
X154826416Y-114315140D01*
X154826417Y-114315142D01*
X154826419Y-114315144D01*
X155000068Y-114523804D01*
X155202246Y-114704957D01*
X155428647Y-114854742D01*
X155674443Y-114969967D01*
X155934397Y-115048175D01*
X156202968Y-115087700D01*
X156202973Y-115087700D01*
X156406479Y-115087700D01*
X156406481Y-115087700D01*
X156406486Y-115087699D01*
X156406498Y-115087699D01*
X156444124Y-115084944D01*
X156609440Y-115072845D01*
X156720188Y-115048175D01*
X156874402Y-115013823D01*
X156874404Y-115013822D01*
X156874409Y-115013821D01*
X157127961Y-114916846D01*
X157364691Y-114783986D01*
X157579553Y-114618075D01*
X157767969Y-114422647D01*
X157925923Y-114201868D01*
X158050048Y-113960444D01*
X158137698Y-113703520D01*
X158187006Y-113436571D01*
X158196920Y-113165289D01*
X158167230Y-112895453D01*
X158098568Y-112632816D01*
X157992397Y-112382976D01*
X157850981Y-112151256D01*
X157677332Y-111942596D01*
X157475154Y-111761443D01*
X157355697Y-111682411D01*
X157248755Y-111611659D01*
X157248753Y-111611658D01*
X157002957Y-111496433D01*
X156743003Y-111418225D01*
X156743001Y-111418224D01*
X156742999Y-111418224D01*
X156646699Y-111404052D01*
X156474432Y-111378700D01*
X156270919Y-111378700D01*
X156270901Y-111378700D01*
X156067960Y-111393555D01*
X156067946Y-111393557D01*
X155802997Y-111452576D01*
X155802990Y-111452579D01*
X155549436Y-111549555D01*
X155312712Y-111682411D01*
X155097840Y-111848330D01*
X155097839Y-111848332D01*
X154909434Y-112043749D01*
X154909432Y-112043751D01*
X154751478Y-112264529D01*
X154627356Y-112505946D01*
X154627349Y-112505962D01*
X154539705Y-112762866D01*
X154539701Y-112762884D01*
X154490393Y-113029831D01*
X154490393Y-113029833D01*
X154480479Y-113301109D01*
X150884800Y-113301109D01*
X151461344Y-112975146D01*
X152086082Y-112575821D01*
X152688285Y-112143259D01*
X153266187Y-111678729D01*
X153818091Y-111183593D01*
X154342381Y-110659303D01*
X154837517Y-110107399D01*
X155302047Y-109529497D01*
X155734609Y-108927294D01*
X156133934Y-108302556D01*
X156498850Y-107657114D01*
X156828288Y-106992864D01*
X157121282Y-106311752D01*
X157376970Y-105615776D01*
X157594605Y-104906979D01*
X157773546Y-104187438D01*
X157913270Y-103459266D01*
X158013367Y-102724596D01*
X158073543Y-101985585D01*
X158093621Y-101244400D01*
X158073543Y-100503215D01*
X158013367Y-99764204D01*
X157913270Y-99029534D01*
X157899310Y-98956784D01*
X157842837Y-98662472D01*
X157773546Y-98301362D01*
X157594605Y-97581821D01*
X157376970Y-96873024D01*
X157121282Y-96177048D01*
X156828288Y-95495936D01*
X156498850Y-94831686D01*
X156133934Y-94186244D01*
X156133933Y-94186242D01*
X156133926Y-94186230D01*
X155793730Y-93654001D01*
X155734609Y-93561506D01*
X155702230Y-93516429D01*
X155302062Y-92959324D01*
X155302048Y-92959304D01*
X154837529Y-92381416D01*
X154837515Y-92381399D01*
X154801935Y-92341740D01*
X154342381Y-91829497D01*
X154342376Y-91829492D01*
X154342368Y-91829483D01*
X153818104Y-91305219D01*
X153572302Y-91084700D01*
X153266187Y-90810071D01*
X153254828Y-90800940D01*
X152688283Y-90345539D01*
X152688263Y-90345525D01*
X152086087Y-89912982D01*
X151461357Y-89513661D01*
X150990249Y-89247309D01*
X154480479Y-89247309D01*
X154510168Y-89517135D01*
X154510170Y-89517148D01*
X154569819Y-89745312D01*
X154578832Y-89779784D01*
X154685003Y-90029624D01*
X154725927Y-90096681D01*
X154826416Y-90261340D01*
X154826417Y-90261342D01*
X154915884Y-90368847D01*
X155000068Y-90470004D01*
X155202246Y-90651157D01*
X155428647Y-90800942D01*
X155674443Y-90916167D01*
X155934397Y-90994375D01*
X156202968Y-91033900D01*
X156202973Y-91033900D01*
X156406479Y-91033900D01*
X156406481Y-91033900D01*
X156406486Y-91033899D01*
X156406498Y-91033899D01*
X156444124Y-91031144D01*
X156609440Y-91019045D01*
X156720188Y-90994375D01*
X156874402Y-90960023D01*
X156874404Y-90960022D01*
X156874409Y-90960021D01*
X157127961Y-90863046D01*
X157364691Y-90730186D01*
X157579553Y-90564275D01*
X157767969Y-90368847D01*
X157925923Y-90148068D01*
X158050048Y-89906644D01*
X158114631Y-89717336D01*
X158137694Y-89649733D01*
X158137694Y-89649729D01*
X158137698Y-89649720D01*
X158187006Y-89382771D01*
X158196920Y-89111489D01*
X158167230Y-88841653D01*
X158098568Y-88579016D01*
X157992397Y-88329176D01*
X157850981Y-88097456D01*
X157842383Y-88087125D01*
X157761514Y-87989951D01*
X157677332Y-87888796D01*
X157628823Y-87845332D01*
X157475154Y-87707643D01*
X157248755Y-87557859D01*
X157240453Y-87553967D01*
X157002957Y-87442633D01*
X156743003Y-87364425D01*
X156743001Y-87364424D01*
X156742999Y-87364424D01*
X156646699Y-87350252D01*
X156474432Y-87324900D01*
X156270919Y-87324900D01*
X156270901Y-87324900D01*
X156067960Y-87339755D01*
X156067946Y-87339757D01*
X155802997Y-87398776D01*
X155802990Y-87398779D01*
X155549436Y-87495755D01*
X155312712Y-87628611D01*
X155097840Y-87794530D01*
X155097839Y-87794532D01*
X154909434Y-87989949D01*
X154909432Y-87989951D01*
X154751478Y-88210729D01*
X154627356Y-88452146D01*
X154627349Y-88452162D01*
X154539705Y-88709066D01*
X154539701Y-88709084D01*
X154490393Y-88976031D01*
X154490393Y-88976033D01*
X154480479Y-89247309D01*
X150990249Y-89247309D01*
X150815902Y-89148738D01*
X150542796Y-89013290D01*
X150196745Y-88841664D01*
X150151652Y-88819300D01*
X149719700Y-88633487D01*
X149470544Y-88526307D01*
X148774567Y-88270619D01*
X148744972Y-88261532D01*
X148638110Y-88228720D01*
X148065785Y-88052988D01*
X148065775Y-88052985D01*
X148065767Y-88052983D01*
X147346226Y-87874042D01*
X147346222Y-87874041D01*
X147346203Y-87874037D01*
X146618069Y-87734320D01*
X145883394Y-87634222D01*
X145883375Y-87634220D01*
X145144373Y-87574045D01*
X145144381Y-87574045D01*
X144403188Y-87553967D01*
X143661998Y-87574045D01*
X142923000Y-87634220D01*
X142922981Y-87634222D01*
X142188306Y-87734320D01*
X141460172Y-87874037D01*
X141460154Y-87874041D01*
X141460149Y-87874042D01*
X141460150Y-87874042D01*
X140740609Y-88052983D01*
X140740604Y-88052984D01*
X140740590Y-88052988D01*
X140031808Y-88270619D01*
X139335832Y-88526307D01*
X139335831Y-88526307D01*
X138792855Y-88759880D01*
X138654724Y-88819300D01*
X138654712Y-88819305D01*
X138654701Y-88819311D01*
X137990493Y-89148728D01*
X137990468Y-89148741D01*
X137345018Y-89513661D01*
X136720288Y-89912982D01*
X136118112Y-90345525D01*
X136118092Y-90345539D01*
X135540204Y-90810058D01*
X135540187Y-90810072D01*
X134988271Y-91305219D01*
X134464007Y-91829483D01*
X133968860Y-92381399D01*
X133968846Y-92381416D01*
X133504327Y-92959304D01*
X133504313Y-92959324D01*
X133071770Y-93561500D01*
X132672449Y-94186230D01*
X132307529Y-94831680D01*
X132307516Y-94831705D01*
X131978099Y-95495913D01*
X131978082Y-95495950D01*
X131685095Y-96177043D01*
X131685095Y-96177044D01*
X131429407Y-96873020D01*
X131211776Y-97581802D01*
X131211772Y-97581816D01*
X131211771Y-97581821D01*
X131099011Y-98035242D01*
X131032829Y-98301366D01*
X131032825Y-98301384D01*
X130893108Y-99029518D01*
X130793010Y-99764193D01*
X130793008Y-99764212D01*
X130732833Y-100503210D01*
X130712755Y-101244400D01*
X128381500Y-101244400D01*
X128381500Y-100966602D01*
X128381500Y-89298109D01*
X130528279Y-89298109D01*
X130557968Y-89567935D01*
X130557970Y-89567948D01*
X130621482Y-89810887D01*
X130626632Y-89830584D01*
X130732803Y-90080424D01*
X130783080Y-90162806D01*
X130874216Y-90312140D01*
X130874217Y-90312142D01*
X130921410Y-90368850D01*
X131047868Y-90520804D01*
X131250046Y-90701957D01*
X131476447Y-90851742D01*
X131722243Y-90966967D01*
X131982197Y-91045175D01*
X132250768Y-91084700D01*
X132250773Y-91084700D01*
X132454279Y-91084700D01*
X132454281Y-91084700D01*
X132454286Y-91084699D01*
X132454298Y-91084699D01*
X132491924Y-91081944D01*
X132657240Y-91069845D01*
X132767988Y-91045175D01*
X132922202Y-91010823D01*
X132922204Y-91010822D01*
X132922209Y-91010821D01*
X133175761Y-90913846D01*
X133412491Y-90780986D01*
X133627353Y-90615075D01*
X133815769Y-90419647D01*
X133973723Y-90198868D01*
X134097848Y-89957444D01*
X134147846Y-89810887D01*
X134185494Y-89700533D01*
X134185494Y-89700529D01*
X134185498Y-89700520D01*
X134234806Y-89433571D01*
X134244720Y-89162289D01*
X134215030Y-88892453D01*
X134146368Y-88629816D01*
X134040197Y-88379976D01*
X133898781Y-88148256D01*
X133725132Y-87939596D01*
X133723011Y-87937696D01*
X133522954Y-87758443D01*
X133296555Y-87608659D01*
X133272704Y-87597478D01*
X133050757Y-87493433D01*
X132790803Y-87415225D01*
X132790801Y-87415224D01*
X132790799Y-87415224D01*
X132679053Y-87398779D01*
X132522232Y-87375700D01*
X132318719Y-87375700D01*
X132318701Y-87375700D01*
X132115760Y-87390555D01*
X132115746Y-87390557D01*
X131850797Y-87449576D01*
X131850790Y-87449579D01*
X131597236Y-87546555D01*
X131360512Y-87679411D01*
X131145640Y-87845330D01*
X131145639Y-87845332D01*
X130957234Y-88040749D01*
X130957232Y-88040751D01*
X130799278Y-88261529D01*
X130675156Y-88502946D01*
X130675149Y-88502962D01*
X130587505Y-88759866D01*
X130587501Y-88759884D01*
X130538193Y-89026831D01*
X130538193Y-89026833D01*
X130528279Y-89298109D01*
X128381500Y-89298109D01*
X128381500Y-87536979D01*
X128401184Y-87469944D01*
X128417813Y-87449307D01*
X129130701Y-86736419D01*
X129192025Y-86702934D01*
X129218383Y-86700100D01*
X138155907Y-86700100D01*
X138157469Y-86700119D01*
X138194683Y-86701062D01*
X138245758Y-86702357D01*
X138245758Y-86702356D01*
X138245763Y-86702357D01*
X138306153Y-86691532D01*
X138310812Y-86690880D01*
X138353007Y-86686588D01*
X138371838Y-86684674D01*
X138404627Y-86674386D01*
X138412240Y-86672518D01*
X138446053Y-86666458D01*
X138503021Y-86643701D01*
X138507453Y-86642124D01*
X138515721Y-86639530D01*
X138565988Y-86623759D01*
X138596027Y-86607084D01*
X138603108Y-86603722D01*
X138635017Y-86590977D01*
X138686254Y-86557208D01*
X138690251Y-86554787D01*
X138743902Y-86525009D01*
X138769968Y-86502630D01*
X138776243Y-86497900D01*
X138804919Y-86479002D01*
X138848292Y-86435627D01*
X138851750Y-86432423D01*
X138870716Y-86416141D01*
X138898295Y-86392466D01*
X138919328Y-86365291D01*
X138924498Y-86359421D01*
X141400301Y-83883619D01*
X141461624Y-83850134D01*
X141487982Y-83847300D01*
X141646535Y-83847300D01*
X141891814Y-83806371D01*
X142127010Y-83725628D01*
X142345709Y-83607274D01*
X142541944Y-83454538D01*
X142700971Y-83281788D01*
X142760857Y-83245799D01*
X142830695Y-83247899D01*
X142883428Y-83281788D01*
X143042456Y-83454538D01*
X143238691Y-83607274D01*
X143238693Y-83607275D01*
X143456532Y-83725164D01*
X143457390Y-83725628D01*
X143646626Y-83790593D01*
X143691164Y-83805883D01*
X143692586Y-83806371D01*
X143937865Y-83847300D01*
X144186535Y-83847300D01*
X144431814Y-83806371D01*
X144667010Y-83725628D01*
X144885709Y-83607274D01*
X145081944Y-83454538D01*
X145240971Y-83281788D01*
X145300857Y-83245799D01*
X145370695Y-83247899D01*
X145423428Y-83281788D01*
X145582456Y-83454538D01*
X145778691Y-83607274D01*
X145778693Y-83607275D01*
X145996532Y-83725164D01*
X145997390Y-83725628D01*
X146186626Y-83790593D01*
X146231164Y-83805883D01*
X146232586Y-83806371D01*
X146477865Y-83847300D01*
X146726535Y-83847300D01*
X146971814Y-83806371D01*
X147207010Y-83725628D01*
X147425709Y-83607274D01*
X147621944Y-83454538D01*
X147780971Y-83281788D01*
X147840857Y-83245799D01*
X147910695Y-83247899D01*
X147963428Y-83281788D01*
X148122456Y-83454538D01*
X148318691Y-83607274D01*
X148318693Y-83607275D01*
X148536532Y-83725164D01*
X148537390Y-83725628D01*
X148726626Y-83790593D01*
X148771164Y-83805883D01*
X148772586Y-83806371D01*
X149017865Y-83847300D01*
X149266535Y-83847300D01*
X149511814Y-83806371D01*
X149747010Y-83725628D01*
X149965709Y-83607274D01*
X150161944Y-83454538D01*
X150320971Y-83281788D01*
X150380857Y-83245799D01*
X150450695Y-83247899D01*
X150503428Y-83281788D01*
X150662456Y-83454538D01*
X150858691Y-83607274D01*
X150858693Y-83607275D01*
X151076532Y-83725164D01*
X151077390Y-83725628D01*
X151266626Y-83790593D01*
X151311164Y-83805883D01*
X151312586Y-83806371D01*
X151557865Y-83847300D01*
X151806535Y-83847300D01*
X152051814Y-83806371D01*
X152287010Y-83725628D01*
X152505709Y-83607274D01*
X152701944Y-83454538D01*
X152860971Y-83281788D01*
X152920857Y-83245799D01*
X152990695Y-83247899D01*
X153043428Y-83281788D01*
X153202456Y-83454538D01*
X153398691Y-83607274D01*
X153398693Y-83607275D01*
X153616532Y-83725164D01*
X153617390Y-83725628D01*
X153806626Y-83790593D01*
X153851164Y-83805883D01*
X153852586Y-83806371D01*
X154097865Y-83847300D01*
X154346535Y-83847300D01*
X154591814Y-83806371D01*
X154671487Y-83779018D01*
X154741282Y-83775868D01*
X154799429Y-83808619D01*
X159967781Y-88976971D01*
X160001266Y-89038294D01*
X160004100Y-89064652D01*
X160004100Y-123590747D01*
X159984415Y-123657786D01*
X159967781Y-123678428D01*
X148159628Y-135486581D01*
X148098305Y-135520066D01*
X148071947Y-135522900D01*
X148012754Y-135522900D01*
X147980297Y-135529798D01*
X147827597Y-135562255D01*
X147827592Y-135562257D01*
X147654670Y-135639248D01*
X147654665Y-135639251D01*
X147501529Y-135750511D01*
X147374866Y-135891185D01*
X147280221Y-136055115D01*
X147280218Y-136055122D01*
X147244322Y-136165600D01*
X147221726Y-136235144D01*
X147201940Y-136423400D01*
X147221726Y-136611656D01*
X147221727Y-136611659D01*
X147280218Y-136791677D01*
X147280221Y-136791684D01*
X147374867Y-136955616D01*
X147501529Y-137096288D01*
X147585185Y-137157067D01*
X147656171Y-137208642D01*
X147698836Y-137263972D01*
X147704815Y-137333586D01*
X147672209Y-137395380D01*
X147670966Y-137396641D01*
X146072846Y-138994761D01*
X146011523Y-139028246D01*
X145953073Y-139026855D01*
X145852608Y-138999937D01*
X145617201Y-138979341D01*
X145617199Y-138979341D01*
X145381796Y-138999936D01*
X145381786Y-138999938D01*
X145153544Y-139061094D01*
X145153535Y-139061098D01*
X144939371Y-139160964D01*
X144939369Y-139160965D01*
X144745797Y-139296505D01*
X144578705Y-139463597D01*
X144448775Y-139649158D01*
X144394198Y-139692783D01*
X144324700Y-139699977D01*
X144262345Y-139668454D01*
X144245625Y-139649158D01*
X144115694Y-139463597D01*
X143948602Y-139296506D01*
X143948595Y-139296501D01*
X143755034Y-139160967D01*
X143755030Y-139160965D01*
X143683927Y-139127809D01*
X143540863Y-139061097D01*
X143540859Y-139061096D01*
X143540855Y-139061094D01*
X143312613Y-138999938D01*
X143312603Y-138999936D01*
X143077201Y-138979341D01*
X143077199Y-138979341D01*
X142841796Y-138999936D01*
X142841786Y-138999938D01*
X142613544Y-139061094D01*
X142613535Y-139061098D01*
X142399371Y-139160964D01*
X142399369Y-139160965D01*
X142205800Y-139296503D01*
X142083484Y-139418819D01*
X142022161Y-139452303D01*
X141952469Y-139447319D01*
X141896536Y-139405447D01*
X141879621Y-139374470D01*
X141830554Y-139242913D01*
X141830550Y-139242906D01*
X141744390Y-139127812D01*
X141744387Y-139127809D01*
X141629293Y-139041649D01*
X141629286Y-139041645D01*
X141494579Y-138991403D01*
X141494572Y-138991401D01*
X141435044Y-138985000D01*
X140787200Y-138985000D01*
X140787200Y-139899498D01*
X140679515Y-139850320D01*
X140572963Y-139835000D01*
X140501437Y-139835000D01*
X140394885Y-139850320D01*
X140287200Y-139899498D01*
X140287200Y-138985000D01*
X139639355Y-138985000D01*
X139579827Y-138991401D01*
X139579820Y-138991403D01*
X139445113Y-139041645D01*
X139445106Y-139041649D01*
X139330012Y-139127809D01*
X139330009Y-139127812D01*
X139243849Y-139242906D01*
X139243845Y-139242913D01*
X139193603Y-139377620D01*
X139193601Y-139377627D01*
X139187200Y-139437155D01*
X139187200Y-140085000D01*
X140103514Y-140085000D01*
X140077707Y-140125156D01*
X140037200Y-140263111D01*
X140037200Y-140406889D01*
X140077707Y-140544844D01*
X140103514Y-140585000D01*
X139187200Y-140585000D01*
X139187200Y-141232844D01*
X139193601Y-141292372D01*
X139193603Y-141292379D01*
X139243845Y-141427086D01*
X139243849Y-141427093D01*
X139330009Y-141542187D01*
X139330012Y-141542190D01*
X139445106Y-141628350D01*
X139445113Y-141628354D01*
X139579820Y-141678596D01*
X139579827Y-141678598D01*
X139639355Y-141684999D01*
X139639372Y-141685000D01*
X140287200Y-141685000D01*
X140287200Y-140770501D01*
X140394885Y-140819680D01*
X140501437Y-140835000D01*
X140572963Y-140835000D01*
X140679515Y-140819680D01*
X140787200Y-140770501D01*
X140787200Y-141685000D01*
X141435028Y-141685000D01*
X141435044Y-141684999D01*
X141494572Y-141678598D01*
X141494579Y-141678596D01*
X141629286Y-141628354D01*
X141629293Y-141628350D01*
X141744387Y-141542190D01*
X141744390Y-141542187D01*
X141830550Y-141427093D01*
X141830554Y-141427086D01*
X141879622Y-141295529D01*
X141921493Y-141239595D01*
X141986957Y-141215178D01*
X142055230Y-141230030D01*
X142083485Y-141251181D01*
X142205799Y-141373495D01*
X142282335Y-141427086D01*
X142399365Y-141509032D01*
X142399367Y-141509033D01*
X142399370Y-141509035D01*
X142613537Y-141608903D01*
X142841792Y-141670063D01*
X143012519Y-141685000D01*
X143077199Y-141690659D01*
X143077200Y-141690659D01*
X143077201Y-141690659D01*
X143141881Y-141685000D01*
X143312608Y-141670063D01*
X143540863Y-141608903D01*
X143755030Y-141509035D01*
X143948601Y-141373495D01*
X144115695Y-141206401D01*
X144245624Y-141020842D01*
X144300202Y-140977217D01*
X144369700Y-140970023D01*
X144432055Y-141001546D01*
X144448775Y-141020842D01*
X144578700Y-141206395D01*
X144578705Y-141206401D01*
X144745799Y-141373495D01*
X144822335Y-141427086D01*
X144939365Y-141509032D01*
X144939367Y-141509033D01*
X144939370Y-141509035D01*
X145153537Y-141608903D01*
X145381792Y-141670063D01*
X145552519Y-141685000D01*
X145617199Y-141690659D01*
X145617200Y-141690659D01*
X145617201Y-141690659D01*
X145681881Y-141685000D01*
X145852608Y-141670063D01*
X146080863Y-141608903D01*
X146295030Y-141509035D01*
X146488601Y-141373495D01*
X146655695Y-141206401D01*
X146785624Y-141020842D01*
X146840202Y-140977217D01*
X146909700Y-140970023D01*
X146972055Y-141001546D01*
X146988775Y-141020842D01*
X147118700Y-141206395D01*
X147118705Y-141206401D01*
X147285799Y-141373495D01*
X147362335Y-141427086D01*
X147479365Y-141509032D01*
X147479367Y-141509033D01*
X147479370Y-141509035D01*
X147693537Y-141608903D01*
X147921792Y-141670063D01*
X148092519Y-141685000D01*
X148157199Y-141690659D01*
X148157200Y-141690659D01*
X148157201Y-141690659D01*
X148221881Y-141685000D01*
X148392608Y-141670063D01*
X148620863Y-141608903D01*
X148835030Y-141509035D01*
X149028601Y-141373495D01*
X149195695Y-141206401D01*
X149331235Y-141012830D01*
X149431103Y-140798663D01*
X149492263Y-140570408D01*
X149512859Y-140335000D01*
X149492263Y-140099592D01*
X149431103Y-139871337D01*
X149430902Y-139870906D01*
X154928028Y-139870906D01*
X154937813Y-140101262D01*
X154937814Y-140101270D01*
X154986390Y-140326662D01*
X154986390Y-140326663D01*
X155072357Y-140540602D01*
X155072359Y-140540606D01*
X155134385Y-140641342D01*
X155193248Y-140736942D01*
X155345580Y-140910025D01*
X155345584Y-140910029D01*
X155524965Y-141054869D01*
X155524966Y-141054870D01*
X155524969Y-141054871D01*
X155524972Y-141054874D01*
X155676475Y-141139508D01*
X155725387Y-141166832D01*
X155726263Y-141167321D01*
X155943662Y-141244133D01*
X156070472Y-141265877D01*
X156170906Y-141283099D01*
X156170915Y-141283100D01*
X156343734Y-141283100D01*
X156343735Y-141283100D01*
X156343736Y-141283099D01*
X156343753Y-141283099D01*
X156515934Y-141268444D01*
X156515937Y-141268443D01*
X156515939Y-141268443D01*
X156739069Y-141210345D01*
X156867429Y-141152322D01*
X156949165Y-141115376D01*
X156949167Y-141115375D01*
X156949167Y-141115374D01*
X156949171Y-141115373D01*
X157140200Y-140986259D01*
X157306662Y-140826719D01*
X157443766Y-140641342D01*
X157547570Y-140435460D01*
X157615086Y-140214997D01*
X157644372Y-139986294D01*
X157634586Y-139755932D01*
X157586010Y-139530538D01*
X157560892Y-139468030D01*
X157513334Y-139349675D01*
X157500041Y-139316594D01*
X157379151Y-139120257D01*
X157226820Y-138947175D01*
X157226819Y-138947174D01*
X157226815Y-138947170D01*
X157047434Y-138802330D01*
X157047433Y-138802329D01*
X157030058Y-138792623D01*
X156937074Y-138740679D01*
X156846138Y-138689879D01*
X156628741Y-138613068D01*
X156628740Y-138613067D01*
X156628738Y-138613067D01*
X156628734Y-138613066D01*
X156628733Y-138613066D01*
X156401493Y-138574100D01*
X156401485Y-138574100D01*
X156228665Y-138574100D01*
X156228646Y-138574100D01*
X156056465Y-138588755D01*
X155833331Y-138646854D01*
X155623234Y-138741823D01*
X155623232Y-138741824D01*
X155528568Y-138805807D01*
X155440103Y-138865600D01*
X155432199Y-138870942D01*
X155265740Y-139030478D01*
X155128634Y-139215857D01*
X155024830Y-139421738D01*
X154957313Y-139642206D01*
X154928028Y-139870906D01*
X149430902Y-139870906D01*
X149331235Y-139657171D01*
X149325625Y-139649158D01*
X149195694Y-139463597D01*
X149028602Y-139296506D01*
X149028595Y-139296501D01*
X148835034Y-139160967D01*
X148835030Y-139160965D01*
X148763927Y-139127809D01*
X148620863Y-139061097D01*
X148620859Y-139061096D01*
X148620855Y-139061094D01*
X148392613Y-138999938D01*
X148392603Y-138999936D01*
X148157201Y-138979341D01*
X148156810Y-138979341D01*
X148156644Y-138979292D01*
X148151806Y-138978869D01*
X148151891Y-138977896D01*
X148089771Y-138959656D01*
X148044016Y-138906852D01*
X148034072Y-138837694D01*
X148063097Y-138774138D01*
X148069129Y-138767660D01*
X154321184Y-132515605D01*
X187713754Y-132515605D01*
X187732718Y-132817046D01*
X187732719Y-132817053D01*
X187732720Y-132817057D01*
X187782768Y-133079421D01*
X187789320Y-133113764D01*
X187882659Y-133401031D01*
X187882661Y-133401036D01*
X188011265Y-133674332D01*
X188011268Y-133674338D01*
X188173111Y-133929363D01*
X188173114Y-133929367D01*
X188173115Y-133929368D01*
X188323885Y-134111618D01*
X188365652Y-134162105D01*
X188585836Y-134368872D01*
X188585846Y-134368880D01*
X188830193Y-134546408D01*
X188830198Y-134546410D01*
X188830205Y-134546416D01*
X189094896Y-134691932D01*
X189094901Y-134691934D01*
X189094903Y-134691935D01*
X189094904Y-134691936D01*
X189375734Y-134803124D01*
X189375737Y-134803125D01*
X189642028Y-134871496D01*
X189702066Y-134907234D01*
X189733252Y-134969757D01*
X189725684Y-135039216D01*
X189681766Y-135093557D01*
X189615440Y-135115527D01*
X189611191Y-135115600D01*
X188171155Y-135115600D01*
X188111627Y-135122001D01*
X188111620Y-135122003D01*
X187976913Y-135172245D01*
X187976906Y-135172249D01*
X187861812Y-135258409D01*
X187861809Y-135258412D01*
X187775649Y-135373506D01*
X187775645Y-135373513D01*
X187725403Y-135508220D01*
X187725401Y-135508227D01*
X187719000Y-135567755D01*
X187719000Y-137265600D01*
X188788364Y-137265600D01*
X188784431Y-137280279D01*
X188763843Y-137515600D01*
X188784431Y-137750921D01*
X188788364Y-137765600D01*
X187719000Y-137765600D01*
X187719000Y-139463444D01*
X187725401Y-139522972D01*
X187725403Y-139522979D01*
X187775645Y-139657686D01*
X187775649Y-139657693D01*
X187861809Y-139772787D01*
X187861812Y-139772790D01*
X187976906Y-139858950D01*
X187976913Y-139858954D01*
X188111620Y-139909196D01*
X188111627Y-139909198D01*
X188171155Y-139915599D01*
X188171172Y-139915600D01*
X189869000Y-139915600D01*
X189869000Y-138846235D01*
X189883679Y-138850169D01*
X190060055Y-138865600D01*
X190177945Y-138865600D01*
X190354321Y-138850169D01*
X190369000Y-138846235D01*
X190369000Y-139915600D01*
X192066828Y-139915600D01*
X192066844Y-139915599D01*
X192126372Y-139909198D01*
X192126379Y-139909196D01*
X192261086Y-139858954D01*
X192261093Y-139858950D01*
X192376187Y-139772790D01*
X192376190Y-139772787D01*
X192462350Y-139657693D01*
X192462354Y-139657686D01*
X192512596Y-139522979D01*
X192512598Y-139522972D01*
X192518999Y-139463444D01*
X192519000Y-139463427D01*
X192519000Y-137765600D01*
X191449636Y-137765600D01*
X191453569Y-137750921D01*
X191474157Y-137515600D01*
X191453569Y-137280279D01*
X191449636Y-137265600D01*
X192519000Y-137265600D01*
X192519000Y-135567772D01*
X192518999Y-135567755D01*
X192512598Y-135508227D01*
X192512596Y-135508220D01*
X192462354Y-135373513D01*
X192462350Y-135373506D01*
X192376190Y-135258412D01*
X192376187Y-135258409D01*
X192261093Y-135172249D01*
X192261086Y-135172245D01*
X192126379Y-135122003D01*
X192126372Y-135122001D01*
X192066844Y-135115600D01*
X190626809Y-135115600D01*
X190559770Y-135095915D01*
X190514015Y-135043111D01*
X190504071Y-134973953D01*
X190533096Y-134910397D01*
X190591874Y-134872623D01*
X190595972Y-134871496D01*
X190862262Y-134803125D01*
X190862265Y-134803124D01*
X191143095Y-134691936D01*
X191143096Y-134691935D01*
X191143094Y-134691935D01*
X191143104Y-134691932D01*
X191407795Y-134546416D01*
X191652162Y-134368874D01*
X191872349Y-134162104D01*
X192064885Y-133929368D01*
X192226733Y-133674336D01*
X192355341Y-133401030D01*
X192448681Y-133113760D01*
X192505280Y-132817057D01*
X192505281Y-132817046D01*
X192524246Y-132515605D01*
X192524246Y-132515594D01*
X192505281Y-132214153D01*
X192505280Y-132214146D01*
X192505280Y-132214143D01*
X192448681Y-131917440D01*
X192355341Y-131630170D01*
X192226733Y-131356864D01*
X192064885Y-131101832D01*
X191872349Y-130869096D01*
X191652162Y-130662326D01*
X191652159Y-130662324D01*
X191652153Y-130662319D01*
X191407806Y-130484791D01*
X191407799Y-130484786D01*
X191407795Y-130484784D01*
X191143104Y-130339268D01*
X191143101Y-130339266D01*
X191143096Y-130339264D01*
X191143095Y-130339263D01*
X190862265Y-130228075D01*
X190862262Y-130228074D01*
X190569695Y-130152957D01*
X190270036Y-130115100D01*
X190270027Y-130115100D01*
X189967973Y-130115100D01*
X189967963Y-130115100D01*
X189668304Y-130152957D01*
X189375737Y-130228074D01*
X189375734Y-130228075D01*
X189094904Y-130339263D01*
X189094903Y-130339264D01*
X188830205Y-130484784D01*
X188830193Y-130484791D01*
X188585846Y-130662319D01*
X188585836Y-130662327D01*
X188365652Y-130869094D01*
X188173111Y-131101836D01*
X188011268Y-131356861D01*
X188011265Y-131356867D01*
X187882661Y-131630163D01*
X187882659Y-131630168D01*
X187789320Y-131917435D01*
X187732719Y-132214146D01*
X187732718Y-132214153D01*
X187713754Y-132515594D01*
X187713754Y-132515605D01*
X154321184Y-132515605D01*
X154748089Y-132088700D01*
X161699188Y-125137601D01*
X161711442Y-125127786D01*
X161711259Y-125127564D01*
X161717268Y-125122591D01*
X161717277Y-125122586D01*
X161764007Y-125072822D01*
X161765246Y-125071543D01*
X161785520Y-125051271D01*
X161789779Y-125045778D01*
X161793552Y-125041361D01*
X161825462Y-125007382D01*
X161835113Y-124989824D01*
X161845796Y-124973561D01*
X161858073Y-124957736D01*
X161876585Y-124914953D01*
X161879138Y-124909741D01*
X161901597Y-124868892D01*
X161906580Y-124849480D01*
X161912881Y-124831080D01*
X161920837Y-124812696D01*
X161928129Y-124766652D01*
X161929306Y-124760971D01*
X161940900Y-124715819D01*
X161940900Y-124695783D01*
X161942427Y-124676382D01*
X161945560Y-124656604D01*
X161941175Y-124610215D01*
X161940900Y-124604377D01*
X161940900Y-119224805D01*
X187834554Y-119224805D01*
X187853518Y-119526246D01*
X187853519Y-119526253D01*
X187910120Y-119822964D01*
X188003459Y-120110231D01*
X188003461Y-120110236D01*
X188132065Y-120383532D01*
X188132068Y-120383538D01*
X188293911Y-120638563D01*
X188293914Y-120638567D01*
X188293915Y-120638568D01*
X188486451Y-120871304D01*
X188616335Y-120993274D01*
X188706636Y-121078072D01*
X188706646Y-121078080D01*
X188950993Y-121255608D01*
X188950998Y-121255610D01*
X188951005Y-121255616D01*
X189215696Y-121401132D01*
X189215701Y-121401134D01*
X189215703Y-121401135D01*
X189215704Y-121401136D01*
X189496534Y-121512324D01*
X189496537Y-121512325D01*
X189594059Y-121537363D01*
X189789102Y-121587442D01*
X189935839Y-121605979D01*
X190088763Y-121625299D01*
X190088769Y-121625299D01*
X190088773Y-121625300D01*
X190088775Y-121625300D01*
X190390825Y-121625300D01*
X190390827Y-121625300D01*
X190390832Y-121625299D01*
X190390836Y-121625299D01*
X190470391Y-121615248D01*
X190690498Y-121587442D01*
X190983062Y-121512325D01*
X191007519Y-121502642D01*
X191263895Y-121401136D01*
X191263896Y-121401135D01*
X191263894Y-121401135D01*
X191263904Y-121401132D01*
X191528595Y-121255616D01*
X191772962Y-121078074D01*
X191993149Y-120871304D01*
X192185685Y-120638568D01*
X192347533Y-120383536D01*
X192476141Y-120110230D01*
X192569481Y-119822960D01*
X192626080Y-119526257D01*
X192631415Y-119441457D01*
X192645046Y-119224805D01*
X192645046Y-119224794D01*
X192626081Y-118923353D01*
X192626080Y-118923346D01*
X192626080Y-118923343D01*
X192569481Y-118626640D01*
X192476141Y-118339370D01*
X192347533Y-118066064D01*
X192293717Y-117981264D01*
X192185688Y-117811036D01*
X192185685Y-117811032D01*
X191993149Y-117578296D01*
X191902846Y-117493496D01*
X191772963Y-117371527D01*
X191772953Y-117371519D01*
X191528606Y-117193991D01*
X191528599Y-117193986D01*
X191528595Y-117193984D01*
X191263904Y-117048468D01*
X191263901Y-117048466D01*
X191263896Y-117048464D01*
X191263895Y-117048463D01*
X190983065Y-116937275D01*
X190983062Y-116937274D01*
X190690495Y-116862157D01*
X190390836Y-116824300D01*
X190390827Y-116824300D01*
X190088773Y-116824300D01*
X190088763Y-116824300D01*
X189789104Y-116862157D01*
X189496537Y-116937274D01*
X189496534Y-116937275D01*
X189215704Y-117048463D01*
X189215703Y-117048464D01*
X188951005Y-117193984D01*
X188950993Y-117193991D01*
X188706646Y-117371519D01*
X188706636Y-117371527D01*
X188486452Y-117578294D01*
X188293911Y-117811036D01*
X188132068Y-118066061D01*
X188132065Y-118066067D01*
X188003461Y-118339363D01*
X188003459Y-118339368D01*
X187910120Y-118626635D01*
X187853519Y-118923346D01*
X187853518Y-118923353D01*
X187834554Y-119224794D01*
X187834554Y-119224805D01*
X161940900Y-119224805D01*
X161940900Y-98405651D01*
X161960585Y-98338612D01*
X162013389Y-98292857D01*
X162082547Y-98282913D01*
X162146103Y-98311938D01*
X162152578Y-98317967D01*
X162581607Y-98746997D01*
X162997362Y-99162752D01*
X163030847Y-99224075D01*
X163029456Y-99282526D01*
X163002538Y-99382986D01*
X163002536Y-99382996D01*
X162981941Y-99618399D01*
X162981941Y-99618400D01*
X163002536Y-99853803D01*
X163002538Y-99853813D01*
X163063694Y-100082055D01*
X163063696Y-100082059D01*
X163063697Y-100082063D01*
X163163564Y-100296229D01*
X163163565Y-100296230D01*
X163163567Y-100296234D01*
X163299101Y-100489795D01*
X163299106Y-100489802D01*
X163466197Y-100656893D01*
X163466203Y-100656898D01*
X163651758Y-100786825D01*
X163695383Y-100841402D01*
X163702577Y-100910900D01*
X163671054Y-100973255D01*
X163651758Y-100989975D01*
X163466197Y-101119905D01*
X163299105Y-101286997D01*
X163163565Y-101480569D01*
X163163564Y-101480571D01*
X163063698Y-101694735D01*
X163063694Y-101694744D01*
X163002538Y-101922986D01*
X163002536Y-101922996D01*
X162981941Y-102158399D01*
X162981941Y-102158400D01*
X163002536Y-102393803D01*
X163002538Y-102393813D01*
X163063694Y-102622055D01*
X163063696Y-102622059D01*
X163063697Y-102622063D01*
X163163564Y-102836229D01*
X163163565Y-102836230D01*
X163163567Y-102836234D01*
X163231755Y-102933616D01*
X163291132Y-103018415D01*
X163299101Y-103029795D01*
X163299106Y-103029802D01*
X163466197Y-103196893D01*
X163466203Y-103196898D01*
X163651758Y-103326825D01*
X163695383Y-103381402D01*
X163702577Y-103450900D01*
X163671054Y-103513255D01*
X163651758Y-103529975D01*
X163466197Y-103659905D01*
X163299105Y-103826997D01*
X163163565Y-104020569D01*
X163163564Y-104020571D01*
X163063698Y-104234735D01*
X163063694Y-104234744D01*
X163002538Y-104462986D01*
X163002536Y-104462996D01*
X162981941Y-104698399D01*
X162981941Y-104698400D01*
X163002536Y-104933803D01*
X163002538Y-104933813D01*
X163063694Y-105162055D01*
X163063696Y-105162059D01*
X163063697Y-105162063D01*
X163097921Y-105235456D01*
X163163565Y-105376230D01*
X163163567Y-105376234D01*
X163240520Y-105486133D01*
X163299105Y-105569801D01*
X163466199Y-105736895D01*
X163562984Y-105804664D01*
X163659765Y-105872432D01*
X163659767Y-105872433D01*
X163659770Y-105872435D01*
X163873937Y-105972303D01*
X164102192Y-106033463D01*
X164290518Y-106049939D01*
X164337599Y-106054059D01*
X164337600Y-106054059D01*
X164337601Y-106054059D01*
X164376834Y-106050626D01*
X164573008Y-106033463D01*
X164801263Y-105972303D01*
X165015430Y-105872435D01*
X165209001Y-105736895D01*
X165376095Y-105569801D01*
X165511635Y-105376230D01*
X165611503Y-105162063D01*
X165672663Y-104933808D01*
X165693259Y-104698400D01*
X165672663Y-104462992D01*
X165611503Y-104234737D01*
X165511635Y-104020571D01*
X165404424Y-103867456D01*
X165376094Y-103826997D01*
X165209002Y-103659906D01*
X165208996Y-103659901D01*
X165023442Y-103529975D01*
X164979817Y-103475398D01*
X164972623Y-103405900D01*
X165004146Y-103343545D01*
X165023442Y-103326825D01*
X165083848Y-103284528D01*
X165209001Y-103196895D01*
X165376095Y-103029801D01*
X165511635Y-102836230D01*
X165611503Y-102622063D01*
X165672663Y-102393808D01*
X165693259Y-102158400D01*
X165672663Y-101922992D01*
X165611503Y-101694737D01*
X165511635Y-101480571D01*
X165447515Y-101388997D01*
X165376094Y-101286997D01*
X165209002Y-101119906D01*
X165209001Y-101119905D01*
X165023442Y-100989975D01*
X165023441Y-100989974D01*
X165021547Y-100987605D01*
X187809154Y-100987605D01*
X187828118Y-101289046D01*
X187828119Y-101289053D01*
X187847185Y-101388999D01*
X187884110Y-101582569D01*
X187884720Y-101585764D01*
X187978059Y-101873031D01*
X187978061Y-101873036D01*
X188106665Y-102146332D01*
X188106668Y-102146338D01*
X188268511Y-102401363D01*
X188268514Y-102401367D01*
X188268515Y-102401368D01*
X188461051Y-102634104D01*
X188590935Y-102756074D01*
X188681236Y-102840872D01*
X188681246Y-102840880D01*
X188925593Y-103018408D01*
X188925598Y-103018410D01*
X188925605Y-103018416D01*
X189190296Y-103163932D01*
X189190301Y-103163934D01*
X189190303Y-103163935D01*
X189190304Y-103163936D01*
X189471134Y-103275124D01*
X189471137Y-103275125D01*
X189568659Y-103300163D01*
X189763702Y-103350242D01*
X189910439Y-103368779D01*
X190063363Y-103388099D01*
X190063369Y-103388099D01*
X190063373Y-103388100D01*
X190063375Y-103388100D01*
X190365425Y-103388100D01*
X190365427Y-103388100D01*
X190365432Y-103388099D01*
X190365436Y-103388099D01*
X190473159Y-103374490D01*
X190665098Y-103350242D01*
X190957662Y-103275125D01*
X191019623Y-103250593D01*
X191238495Y-103163936D01*
X191238496Y-103163935D01*
X191238494Y-103163935D01*
X191238504Y-103163932D01*
X191503195Y-103018416D01*
X191747562Y-102840874D01*
X191967749Y-102634104D01*
X192160285Y-102401368D01*
X192322133Y-102146336D01*
X192450741Y-101873030D01*
X192544081Y-101585760D01*
X192600680Y-101289057D01*
X192600681Y-101289046D01*
X192619646Y-100987605D01*
X192619646Y-100987594D01*
X192600681Y-100686153D01*
X192600680Y-100686146D01*
X192600680Y-100686143D01*
X192544081Y-100389440D01*
X192450741Y-100102170D01*
X192441279Y-100082063D01*
X192333873Y-99853813D01*
X192322133Y-99828864D01*
X192268317Y-99744064D01*
X192160288Y-99573836D01*
X192160285Y-99573832D01*
X191967749Y-99341096D01*
X191905378Y-99282526D01*
X191820957Y-99203249D01*
X191747562Y-99134326D01*
X191747559Y-99134324D01*
X191747553Y-99134319D01*
X191503206Y-98956791D01*
X191503199Y-98956786D01*
X191503195Y-98956784D01*
X191238504Y-98811268D01*
X191238501Y-98811266D01*
X191238496Y-98811264D01*
X191238495Y-98811263D01*
X190957665Y-98700075D01*
X190957662Y-98700074D01*
X190665095Y-98624957D01*
X190365436Y-98587100D01*
X190365427Y-98587100D01*
X190063373Y-98587100D01*
X190063363Y-98587100D01*
X189763704Y-98624957D01*
X189471137Y-98700074D01*
X189471134Y-98700075D01*
X189190304Y-98811263D01*
X189190303Y-98811264D01*
X188925605Y-98956784D01*
X188925593Y-98956791D01*
X188681246Y-99134319D01*
X188681236Y-99134327D01*
X188461052Y-99341094D01*
X188268511Y-99573836D01*
X188106668Y-99828861D01*
X188106665Y-99828867D01*
X187978061Y-100102163D01*
X187978059Y-100102168D01*
X187884720Y-100389435D01*
X187828119Y-100686146D01*
X187828118Y-100686153D01*
X187809154Y-100987594D01*
X187809154Y-100987605D01*
X165021547Y-100987605D01*
X164979816Y-100935397D01*
X164972624Y-100865898D01*
X165004146Y-100803544D01*
X165023436Y-100786828D01*
X165209001Y-100656895D01*
X165376095Y-100489801D01*
X165511635Y-100296230D01*
X165611503Y-100082063D01*
X165672663Y-99853808D01*
X165693259Y-99618400D01*
X165672663Y-99382992D01*
X165611503Y-99154737D01*
X165511635Y-98940571D01*
X165510280Y-98938635D01*
X165376094Y-98746997D01*
X165291566Y-98662470D01*
X174417500Y-98662470D01*
X174417501Y-98662476D01*
X174423908Y-98722083D01*
X174474202Y-98856928D01*
X174474206Y-98856935D01*
X174560452Y-98972144D01*
X174560455Y-98972147D01*
X174675664Y-99058393D01*
X174675671Y-99058397D01*
X174810517Y-99108691D01*
X174810516Y-99108691D01*
X174817444Y-99109435D01*
X174870127Y-99115100D01*
X176665872Y-99115099D01*
X176725483Y-99108691D01*
X176860331Y-99058396D01*
X176975546Y-98972146D01*
X177061796Y-98856931D01*
X177110810Y-98725516D01*
X177152681Y-98669584D01*
X177218145Y-98645166D01*
X177286418Y-98660017D01*
X177314673Y-98681168D01*
X177436599Y-98803095D01*
X177533384Y-98870864D01*
X177630165Y-98938632D01*
X177630167Y-98938633D01*
X177630170Y-98938635D01*
X177844337Y-99038503D01*
X178072592Y-99099663D01*
X178249034Y-99115100D01*
X178307999Y-99120259D01*
X178308000Y-99120259D01*
X178308001Y-99120259D01*
X178366966Y-99115100D01*
X178543408Y-99099663D01*
X178771663Y-99038503D01*
X178985830Y-98938635D01*
X179179401Y-98803095D01*
X179346495Y-98636001D01*
X179482035Y-98442430D01*
X179581903Y-98228263D01*
X179643063Y-98000008D01*
X179663659Y-97764600D01*
X179643063Y-97529192D01*
X179581903Y-97300937D01*
X179482035Y-97086771D01*
X179479951Y-97083794D01*
X179346494Y-96893197D01*
X179179402Y-96726106D01*
X179179395Y-96726101D01*
X178985834Y-96590567D01*
X178985830Y-96590565D01*
X178985829Y-96590564D01*
X178771663Y-96490697D01*
X178771659Y-96490696D01*
X178771655Y-96490694D01*
X178543413Y-96429538D01*
X178543403Y-96429536D01*
X178308001Y-96408941D01*
X178307999Y-96408941D01*
X178072596Y-96429536D01*
X178072586Y-96429538D01*
X177844344Y-96490694D01*
X177844335Y-96490698D01*
X177630171Y-96590564D01*
X177630169Y-96590565D01*
X177436600Y-96726103D01*
X177314673Y-96848030D01*
X177253350Y-96881514D01*
X177183658Y-96876530D01*
X177127725Y-96834658D01*
X177110810Y-96803681D01*
X177061797Y-96672271D01*
X177061793Y-96672264D01*
X176975547Y-96557055D01*
X176975544Y-96557052D01*
X176860335Y-96470806D01*
X176860328Y-96470802D01*
X176725482Y-96420508D01*
X176725483Y-96420508D01*
X176665883Y-96414101D01*
X176665881Y-96414100D01*
X176665873Y-96414100D01*
X176665864Y-96414100D01*
X174870129Y-96414100D01*
X174870123Y-96414101D01*
X174810516Y-96420508D01*
X174675671Y-96470802D01*
X174675664Y-96470806D01*
X174560455Y-96557052D01*
X174560452Y-96557055D01*
X174474206Y-96672264D01*
X174474202Y-96672271D01*
X174423908Y-96807117D01*
X174417501Y-96866716D01*
X174417500Y-96866735D01*
X174417500Y-98662470D01*
X165291566Y-98662470D01*
X165209002Y-98579906D01*
X165208996Y-98579901D01*
X165023442Y-98449975D01*
X164979817Y-98395398D01*
X164972623Y-98325900D01*
X165004146Y-98263545D01*
X165023442Y-98246825D01*
X165049963Y-98228255D01*
X165209001Y-98116895D01*
X165376095Y-97949801D01*
X165511635Y-97756230D01*
X165611503Y-97542063D01*
X165672663Y-97313808D01*
X165693259Y-97078400D01*
X165672663Y-96842992D01*
X165611503Y-96614737D01*
X165511635Y-96400571D01*
X165502141Y-96387011D01*
X165376094Y-96206997D01*
X165209002Y-96039906D01*
X165209001Y-96039905D01*
X165023442Y-95909975D01*
X165023441Y-95909974D01*
X164979816Y-95855397D01*
X164972624Y-95785898D01*
X165004146Y-95723544D01*
X165023436Y-95706828D01*
X165209001Y-95576895D01*
X165376095Y-95409801D01*
X165511635Y-95216230D01*
X165611503Y-95002063D01*
X165672663Y-94773808D01*
X165693259Y-94538400D01*
X165672663Y-94302992D01*
X165645742Y-94202525D01*
X165647406Y-94132676D01*
X165677835Y-94082753D01*
X170312587Y-89448001D01*
X174946900Y-89448001D01*
X174946901Y-89448018D01*
X174957400Y-89550796D01*
X174957401Y-89550799D01*
X175007013Y-89700515D01*
X175012586Y-89717334D01*
X175104688Y-89866656D01*
X175228744Y-89990712D01*
X175378066Y-90082814D01*
X175544603Y-90137999D01*
X175647391Y-90148500D01*
X176447408Y-90148499D01*
X176447416Y-90148498D01*
X176447419Y-90148498D01*
X176508543Y-90142254D01*
X176550197Y-90137999D01*
X176716734Y-90082814D01*
X176866056Y-89990712D01*
X176990112Y-89866656D01*
X177029215Y-89803258D01*
X177081161Y-89756535D01*
X177150123Y-89745312D01*
X177214206Y-89773155D01*
X177232224Y-89791705D01*
X177247307Y-89810885D01*
X177247309Y-89810887D01*
X177406146Y-89948521D01*
X177588150Y-90053601D01*
X177588152Y-90053601D01*
X177588156Y-90053604D01*
X177786767Y-90122344D01*
X177994798Y-90152254D01*
X178204730Y-90142254D01*
X178408976Y-90092704D01*
X178504924Y-90048886D01*
X178600143Y-90005401D01*
X178600146Y-90005399D01*
X178600153Y-90005396D01*
X178771352Y-89883486D01*
X178787399Y-89866657D01*
X178916385Y-89731379D01*
X178916386Y-89731378D01*
X179030013Y-89554572D01*
X179108125Y-89359457D01*
X179147900Y-89153085D01*
X179147900Y-88445575D01*
X179132928Y-88288782D01*
X179073716Y-88087125D01*
X178977411Y-87900318D01*
X178977409Y-87900316D01*
X178977408Y-87900313D01*
X178847494Y-87735116D01*
X178847490Y-87735112D01*
X178688653Y-87597478D01*
X178506649Y-87492398D01*
X178506645Y-87492396D01*
X178506644Y-87492396D01*
X178308033Y-87423656D01*
X178100002Y-87393746D01*
X178099998Y-87393746D01*
X177890072Y-87403745D01*
X177685821Y-87453296D01*
X177685817Y-87453298D01*
X177494656Y-87540598D01*
X177494651Y-87540601D01*
X177323446Y-87662515D01*
X177323445Y-87662515D01*
X177225649Y-87765082D01*
X177165140Y-87800017D01*
X177095349Y-87796692D01*
X177038435Y-87756164D01*
X177030367Y-87744608D01*
X177007567Y-87707643D01*
X176990112Y-87679344D01*
X176866056Y-87555288D01*
X176769535Y-87495754D01*
X176716736Y-87463187D01*
X176716731Y-87463185D01*
X176686888Y-87453296D01*
X176550197Y-87408001D01*
X176550195Y-87408000D01*
X176447410Y-87397500D01*
X175647398Y-87397500D01*
X175647380Y-87397501D01*
X175544603Y-87408000D01*
X175544600Y-87408001D01*
X175378068Y-87463185D01*
X175378063Y-87463187D01*
X175228742Y-87555289D01*
X175104689Y-87679342D01*
X175012587Y-87828663D01*
X175012585Y-87828668D01*
X174992661Y-87888796D01*
X174957401Y-87995203D01*
X174957401Y-87995204D01*
X174957400Y-87995204D01*
X174946900Y-88097983D01*
X174946900Y-89448001D01*
X170312587Y-89448001D01*
X174043586Y-85717002D01*
X174055848Y-85707180D01*
X174055665Y-85706959D01*
X174061673Y-85701988D01*
X174061677Y-85701986D01*
X174108449Y-85652177D01*
X174109691Y-85650897D01*
X174129920Y-85630670D01*
X174134173Y-85625186D01*
X174137950Y-85620763D01*
X174169862Y-85586782D01*
X174179514Y-85569223D01*
X174190189Y-85552972D01*
X174202474Y-85537136D01*
X174220986Y-85494352D01*
X174223542Y-85489135D01*
X174245997Y-85448292D01*
X174250980Y-85428880D01*
X174257277Y-85410491D01*
X174265238Y-85392095D01*
X174272529Y-85346053D01*
X174273708Y-85340362D01*
X174285300Y-85295219D01*
X174285300Y-85275183D01*
X174286827Y-85255782D01*
X174289960Y-85236004D01*
X174285575Y-85189615D01*
X174285300Y-85183777D01*
X174285300Y-81311942D01*
X174287024Y-81296322D01*
X174286739Y-81296296D01*
X174287473Y-81288533D01*
X174285331Y-81220352D01*
X174285300Y-81218405D01*
X174285300Y-81189854D01*
X174285300Y-81189850D01*
X174284431Y-81182972D01*
X174283972Y-81177143D01*
X174282509Y-81130572D01*
X174276922Y-81111344D01*
X174272974Y-81092284D01*
X174270464Y-81072408D01*
X174270463Y-81072406D01*
X174270463Y-81072404D01*
X174253312Y-81029087D01*
X174251419Y-81023558D01*
X174238418Y-80978809D01*
X174238416Y-80978806D01*
X174228223Y-80961571D01*
X174219661Y-80944094D01*
X174212287Y-80925470D01*
X174204375Y-80914580D01*
X174184879Y-80887745D01*
X174181688Y-80882886D01*
X174157972Y-80842783D01*
X174157965Y-80842774D01*
X174143806Y-80828615D01*
X174131168Y-80813819D01*
X174125594Y-80806147D01*
X174119394Y-80797613D01*
X174088522Y-80772074D01*
X174083488Y-80767909D01*
X174079176Y-80763986D01*
X162757568Y-69442377D01*
X162724085Y-69381057D01*
X162729069Y-69311365D01*
X162757568Y-69267020D01*
X170665386Y-61359202D01*
X170677648Y-61349380D01*
X170677465Y-61349159D01*
X170683473Y-61344188D01*
X170683477Y-61344186D01*
X170730249Y-61294377D01*
X170731491Y-61293097D01*
X170751720Y-61272870D01*
X170755973Y-61267386D01*
X170759750Y-61262963D01*
X170791662Y-61228982D01*
X170801314Y-61211423D01*
X170811989Y-61195172D01*
X170824274Y-61179336D01*
X170842786Y-61136552D01*
X170845342Y-61131335D01*
X170867797Y-61090492D01*
X170872780Y-61071080D01*
X170879077Y-61052691D01*
X170887038Y-61034295D01*
X170894329Y-60988253D01*
X170895508Y-60982562D01*
X170907100Y-60937419D01*
X170907100Y-60917374D01*
X170908625Y-60897991D01*
X170911760Y-60878204D01*
X170907375Y-60831815D01*
X170907100Y-60825977D01*
X170907100Y-56038938D01*
X170908824Y-56023324D01*
X170908538Y-56023297D01*
X170909272Y-56015534D01*
X170907131Y-55947371D01*
X170907100Y-55945424D01*
X170907100Y-55916851D01*
X170907100Y-55916850D01*
X170906229Y-55909959D01*
X170905772Y-55904145D01*
X170904309Y-55857572D01*
X170898722Y-55838344D01*
X170894774Y-55819284D01*
X170892263Y-55799404D01*
X170875112Y-55756087D01*
X170873219Y-55750558D01*
X170860218Y-55705809D01*
X170860216Y-55705806D01*
X170850023Y-55688571D01*
X170841461Y-55671094D01*
X170834087Y-55652470D01*
X170830291Y-55647245D01*
X170806679Y-55614745D01*
X170803488Y-55609886D01*
X170779772Y-55569783D01*
X170779765Y-55569774D01*
X170765606Y-55555615D01*
X170752968Y-55540819D01*
X170742070Y-55525819D01*
X170741194Y-55524613D01*
X170738371Y-55522278D01*
X170705288Y-55494909D01*
X170700976Y-55490986D01*
X169690203Y-54480212D01*
X169680380Y-54467950D01*
X169680159Y-54468134D01*
X169675186Y-54462122D01*
X169625466Y-54415432D01*
X169624066Y-54414075D01*
X169603876Y-54393884D01*
X169598386Y-54389625D01*
X169593961Y-54385847D01*
X169559982Y-54353938D01*
X169559980Y-54353936D01*
X169559977Y-54353935D01*
X169542429Y-54344288D01*
X169526163Y-54333604D01*
X169510333Y-54321325D01*
X169467568Y-54302818D01*
X169462322Y-54300248D01*
X169421493Y-54277803D01*
X169421492Y-54277802D01*
X169402093Y-54272822D01*
X169383681Y-54266518D01*
X169365298Y-54258562D01*
X169365292Y-54258560D01*
X169319274Y-54251272D01*
X169313552Y-54250087D01*
X169268421Y-54238500D01*
X169268419Y-54238500D01*
X169248384Y-54238500D01*
X169228986Y-54236973D01*
X169221562Y-54235797D01*
X169209205Y-54233840D01*
X169209204Y-54233840D01*
X169162816Y-54238225D01*
X169156978Y-54238500D01*
X156647452Y-54238500D01*
X156580413Y-54218815D01*
X156559771Y-54202181D01*
X149624203Y-47266612D01*
X149614380Y-47254350D01*
X149614159Y-47254534D01*
X149609186Y-47248522D01*
X149559466Y-47201832D01*
X149558066Y-47200475D01*
X149537876Y-47180284D01*
X149532386Y-47176025D01*
X149527961Y-47172247D01*
X149493982Y-47140338D01*
X149493980Y-47140336D01*
X149493977Y-47140335D01*
X149476429Y-47130688D01*
X149460163Y-47120004D01*
X149444333Y-47107725D01*
X149401568Y-47089218D01*
X149396322Y-47086648D01*
X149355493Y-47064203D01*
X149355492Y-47064202D01*
X149336093Y-47059222D01*
X149317681Y-47052918D01*
X149299298Y-47044962D01*
X149299292Y-47044960D01*
X149253274Y-47037672D01*
X149247552Y-47036487D01*
X149202421Y-47024900D01*
X149202419Y-47024900D01*
X149182384Y-47024900D01*
X149162986Y-47023373D01*
X149155562Y-47022197D01*
X149143205Y-47020240D01*
X149143204Y-47020240D01*
X149096816Y-47024625D01*
X149090978Y-47024900D01*
X148709548Y-47024900D01*
X148642509Y-47005215D01*
X148617400Y-46983874D01*
X148611673Y-46977514D01*
X148611669Y-46977510D01*
X148458534Y-46866251D01*
X148458529Y-46866248D01*
X148285607Y-46789257D01*
X148285602Y-46789255D01*
X148139801Y-46758265D01*
X148100446Y-46749900D01*
X147911154Y-46749900D01*
X147878697Y-46756798D01*
X147725997Y-46789255D01*
X147725992Y-46789257D01*
X147553070Y-46866248D01*
X147553065Y-46866251D01*
X147399929Y-46977511D01*
X147273266Y-47118185D01*
X147178621Y-47282115D01*
X147178618Y-47282122D01*
X147122827Y-47453831D01*
X147120126Y-47462144D01*
X147100340Y-47650400D01*
X147120126Y-47838656D01*
X147120127Y-47838659D01*
X147178618Y-48018677D01*
X147178621Y-48018684D01*
X147273267Y-48182616D01*
X147374985Y-48295585D01*
X147399929Y-48323288D01*
X147553065Y-48434548D01*
X147553070Y-48434551D01*
X147725992Y-48511542D01*
X147725997Y-48511544D01*
X147911154Y-48550900D01*
X147911155Y-48550900D01*
X148100444Y-48550900D01*
X148100446Y-48550900D01*
X148285603Y-48511544D01*
X148458530Y-48434551D01*
X148611671Y-48323288D01*
X148614588Y-48320047D01*
X148617400Y-48316926D01*
X148676887Y-48280279D01*
X148709548Y-48275900D01*
X148812948Y-48275900D01*
X148879987Y-48295585D01*
X148900629Y-48312219D01*
X155836197Y-55247788D01*
X155846022Y-55260051D01*
X155846243Y-55259869D01*
X155851211Y-55265874D01*
X155900932Y-55312566D01*
X155902332Y-55313923D01*
X155922523Y-55334115D01*
X155922527Y-55334118D01*
X155922529Y-55334120D01*
X155928011Y-55338373D01*
X155932443Y-55342157D01*
X155966418Y-55374062D01*
X155983976Y-55383714D01*
X156000233Y-55394393D01*
X156016064Y-55406673D01*
X156025029Y-55410552D01*
X156025959Y-55410955D01*
X156079667Y-55455645D01*
X156100687Y-55522278D01*
X156082347Y-55589697D01*
X156035730Y-55633811D01*
X155938693Y-55686324D01*
X155742457Y-55839061D01*
X155583430Y-56011810D01*
X155523542Y-56047801D01*
X155453704Y-56045700D01*
X155400970Y-56011810D01*
X155339857Y-55945424D01*
X155241944Y-55839062D01*
X155045709Y-55686326D01*
X155045707Y-55686325D01*
X155045706Y-55686324D01*
X154827011Y-55567972D01*
X154827002Y-55567969D01*
X154591816Y-55487229D01*
X154346535Y-55446300D01*
X154097865Y-55446300D01*
X153852583Y-55487229D01*
X153617397Y-55567969D01*
X153617388Y-55567972D01*
X153398693Y-55686324D01*
X153202457Y-55839061D01*
X153043430Y-56011810D01*
X152983542Y-56047801D01*
X152913704Y-56045700D01*
X152860970Y-56011810D01*
X152799857Y-55945424D01*
X152701944Y-55839062D01*
X152505709Y-55686326D01*
X152505707Y-55686325D01*
X152505706Y-55686324D01*
X152287011Y-55567972D01*
X152287002Y-55567969D01*
X152051816Y-55487229D01*
X151806535Y-55446300D01*
X151557865Y-55446300D01*
X151312583Y-55487229D01*
X151077397Y-55567969D01*
X151077388Y-55567972D01*
X150858693Y-55686324D01*
X150662457Y-55839061D01*
X150503430Y-56011810D01*
X150443542Y-56047801D01*
X150373704Y-56045700D01*
X150320970Y-56011810D01*
X150259857Y-55945424D01*
X150161944Y-55839062D01*
X149965709Y-55686326D01*
X149965707Y-55686325D01*
X149965706Y-55686324D01*
X149747011Y-55567972D01*
X149747002Y-55567969D01*
X149511816Y-55487229D01*
X149266535Y-55446300D01*
X149017865Y-55446300D01*
X148772583Y-55487229D01*
X148537397Y-55567969D01*
X148537388Y-55567972D01*
X148318693Y-55686324D01*
X148122457Y-55839061D01*
X147963430Y-56011810D01*
X147903542Y-56047801D01*
X147833704Y-56045700D01*
X147780970Y-56011810D01*
X147719857Y-55945424D01*
X147621944Y-55839062D01*
X147425709Y-55686326D01*
X147425707Y-55686325D01*
X147425706Y-55686324D01*
X147207011Y-55567972D01*
X147207002Y-55567969D01*
X146971816Y-55487229D01*
X146726535Y-55446300D01*
X146477865Y-55446300D01*
X146232583Y-55487229D01*
X145997397Y-55567969D01*
X145997388Y-55567972D01*
X145778693Y-55686324D01*
X145582457Y-55839061D01*
X145423430Y-56011810D01*
X145363542Y-56047801D01*
X145293704Y-56045700D01*
X145240970Y-56011810D01*
X145179857Y-55945424D01*
X145081944Y-55839062D01*
X144885709Y-55686326D01*
X144885707Y-55686325D01*
X144885706Y-55686324D01*
X144667011Y-55567972D01*
X144667002Y-55567969D01*
X144431816Y-55487229D01*
X144186535Y-55446300D01*
X143937865Y-55446300D01*
X143692583Y-55487229D01*
X143457397Y-55567969D01*
X143457388Y-55567972D01*
X143238693Y-55686324D01*
X143042457Y-55839061D01*
X142883430Y-56011810D01*
X142823542Y-56047801D01*
X142753704Y-56045700D01*
X142700970Y-56011810D01*
X142639857Y-55945424D01*
X142541944Y-55839062D01*
X142345709Y-55686326D01*
X142345707Y-55686325D01*
X142345706Y-55686324D01*
X142127011Y-55567972D01*
X142127002Y-55567969D01*
X141891816Y-55487229D01*
X141646535Y-55446300D01*
X141397865Y-55446300D01*
X141152583Y-55487229D01*
X140917397Y-55567969D01*
X140917388Y-55567972D01*
X140698693Y-55686324D01*
X140502455Y-55839062D01*
X140502452Y-55839065D01*
X140343428Y-56011810D01*
X140283541Y-56047801D01*
X140213703Y-56045700D01*
X140160970Y-56011811D01*
X140001944Y-55839062D01*
X139805709Y-55686326D01*
X139805707Y-55686325D01*
X139805706Y-55686324D01*
X139587011Y-55567972D01*
X139587002Y-55567969D01*
X139351816Y-55487229D01*
X139106535Y-55446300D01*
X138857865Y-55446300D01*
X138612583Y-55487229D01*
X138377397Y-55567969D01*
X138377388Y-55567972D01*
X138158693Y-55686324D01*
X137962457Y-55839061D01*
X137803430Y-56011810D01*
X137743542Y-56047801D01*
X137673704Y-56045700D01*
X137620970Y-56011810D01*
X137559857Y-55945424D01*
X137461944Y-55839062D01*
X137265709Y-55686326D01*
X137265707Y-55686325D01*
X137265706Y-55686324D01*
X137047011Y-55567972D01*
X137047002Y-55567969D01*
X136811816Y-55487229D01*
X136566535Y-55446300D01*
X136317865Y-55446300D01*
X136072583Y-55487229D01*
X135837397Y-55567969D01*
X135837388Y-55567972D01*
X135618693Y-55686324D01*
X135422457Y-55839061D01*
X135263430Y-56011810D01*
X135203542Y-56047801D01*
X135133704Y-56045700D01*
X135080970Y-56011810D01*
X135019857Y-55945424D01*
X134921944Y-55839062D01*
X134725709Y-55686326D01*
X134725707Y-55686325D01*
X134725706Y-55686324D01*
X134507011Y-55567972D01*
X134507002Y-55567969D01*
X134271816Y-55487229D01*
X134026535Y-55446300D01*
X133777865Y-55446300D01*
X133532583Y-55487229D01*
X133297397Y-55567969D01*
X133297388Y-55567972D01*
X133078693Y-55686324D01*
X132882457Y-55839061D01*
X132714037Y-56022013D01*
X132714029Y-56022024D01*
X132713655Y-56022597D01*
X132713442Y-56022778D01*
X132710890Y-56026058D01*
X132710214Y-56025532D01*
X132660504Y-56067947D01*
X132597065Y-56078102D01*
X132585634Y-56076916D01*
X131853332Y-56809218D01*
X131830882Y-56732760D01*
X131751595Y-56609387D01*
X131640762Y-56513349D01*
X131507361Y-56452427D01*
X131503563Y-56451881D01*
X132232256Y-55723189D01*
X132185429Y-55686743D01*
X131966814Y-55568435D01*
X131966803Y-55568430D01*
X131731693Y-55487716D01*
X131486493Y-55446800D01*
X131237907Y-55446800D01*
X130992706Y-55487716D01*
X130757596Y-55568430D01*
X130757590Y-55568432D01*
X130538961Y-55686749D01*
X130492142Y-55723188D01*
X130492141Y-55723189D01*
X131220834Y-56451881D01*
X131217039Y-56452427D01*
X131083638Y-56513349D01*
X130972805Y-56609387D01*
X130893518Y-56732760D01*
X130871067Y-56809219D01*
X130138764Y-56076916D01*
X130127335Y-56078102D01*
X130058623Y-56065437D01*
X130014110Y-56025602D01*
X130013517Y-56026065D01*
X130010968Y-56022791D01*
X130010735Y-56022582D01*
X130010366Y-56022018D01*
X130010365Y-56022017D01*
X130010364Y-56022015D01*
X129841944Y-55839062D01*
X129645709Y-55686326D01*
X129645707Y-55686325D01*
X129645706Y-55686324D01*
X129427011Y-55567972D01*
X129427002Y-55567969D01*
X129191816Y-55487229D01*
X128946535Y-55446300D01*
X128697865Y-55446300D01*
X128452583Y-55487229D01*
X128217397Y-55567969D01*
X128217388Y-55567972D01*
X127998693Y-55686324D01*
X127802457Y-55839061D01*
X127634033Y-56022017D01*
X127498026Y-56230193D01*
X127398136Y-56457918D01*
X127337092Y-56698975D01*
X127337090Y-56698987D01*
X127316557Y-56946794D01*
X127316557Y-56946805D01*
X127337090Y-57194612D01*
X127337092Y-57194624D01*
X127398136Y-57435681D01*
X127498026Y-57663406D01*
X127634033Y-57871582D01*
X127634036Y-57871585D01*
X127802456Y-58054538D01*
X127998691Y-58207274D01*
X127998693Y-58207275D01*
X128216532Y-58325164D01*
X128217390Y-58325628D01*
X128436341Y-58400794D01*
X128451164Y-58405883D01*
X128452586Y-58406371D01*
X128697865Y-58447300D01*
X128946535Y-58447300D01*
X129191814Y-58406371D01*
X129427010Y-58325628D01*
X129645709Y-58207274D01*
X129841944Y-58054538D01*
X130010364Y-57871585D01*
X130010733Y-57871019D01*
X130010945Y-57870838D01*
X130013522Y-57867529D01*
X130014202Y-57868058D01*
X130063876Y-57825660D01*
X130127338Y-57815497D01*
X130138764Y-57816682D01*
X130871066Y-57084380D01*
X130893518Y-57160840D01*
X130972805Y-57284213D01*
X131083638Y-57380251D01*
X131217039Y-57441173D01*
X131220834Y-57441718D01*
X130492142Y-58170409D01*
X130538968Y-58206855D01*
X130538970Y-58206856D01*
X130757585Y-58325164D01*
X130757596Y-58325169D01*
X130992706Y-58405883D01*
X131237907Y-58446800D01*
X131486493Y-58446800D01*
X131731693Y-58405883D01*
X131966803Y-58325169D01*
X131966814Y-58325164D01*
X132185428Y-58206857D01*
X132185431Y-58206855D01*
X132232256Y-58170409D01*
X131503565Y-57441718D01*
X131507361Y-57441173D01*
X131640762Y-57380251D01*
X131751595Y-57284213D01*
X131830882Y-57160840D01*
X131853333Y-57084380D01*
X132585634Y-57816682D01*
X132597061Y-57815497D01*
X132665773Y-57828160D01*
X132710292Y-57867994D01*
X132710883Y-57867535D01*
X132713418Y-57870792D01*
X132713656Y-57871005D01*
X132714031Y-57871580D01*
X132714036Y-57871585D01*
X132882456Y-58054538D01*
X133078691Y-58207274D01*
X133078693Y-58207275D01*
X133296532Y-58325164D01*
X133297390Y-58325628D01*
X133516341Y-58400794D01*
X133531164Y-58405883D01*
X133532586Y-58406371D01*
X133777865Y-58447300D01*
X134026535Y-58447300D01*
X134271814Y-58406371D01*
X134507010Y-58325628D01*
X134725709Y-58207274D01*
X134921944Y-58054538D01*
X135080971Y-57881788D01*
X135140857Y-57845799D01*
X135210695Y-57847899D01*
X135263428Y-57881788D01*
X135422456Y-58054538D01*
X135618691Y-58207274D01*
X135618693Y-58207275D01*
X135836532Y-58325164D01*
X135837390Y-58325628D01*
X136056341Y-58400794D01*
X136071164Y-58405883D01*
X136072586Y-58406371D01*
X136317865Y-58447300D01*
X136566535Y-58447300D01*
X136811814Y-58406371D01*
X137047010Y-58325628D01*
X137265709Y-58207274D01*
X137461944Y-58054538D01*
X137620971Y-57881788D01*
X137680857Y-57845799D01*
X137750695Y-57847899D01*
X137803428Y-57881788D01*
X137962456Y-58054538D01*
X138158691Y-58207274D01*
X138158693Y-58207275D01*
X138376532Y-58325164D01*
X138377390Y-58325628D01*
X138596341Y-58400794D01*
X138611164Y-58405883D01*
X138612586Y-58406371D01*
X138857865Y-58447300D01*
X139106535Y-58447300D01*
X139351814Y-58406371D01*
X139587010Y-58325628D01*
X139805709Y-58207274D01*
X140001944Y-58054538D01*
X140160971Y-57881788D01*
X140220857Y-57845799D01*
X140290695Y-57847899D01*
X140343428Y-57881788D01*
X140502456Y-58054538D01*
X140698691Y-58207274D01*
X140698693Y-58207275D01*
X140916532Y-58325164D01*
X140917390Y-58325628D01*
X141136341Y-58400794D01*
X141151164Y-58405883D01*
X141152586Y-58406371D01*
X141397865Y-58447300D01*
X141646535Y-58447300D01*
X141891814Y-58406371D01*
X142127010Y-58325628D01*
X142345709Y-58207274D01*
X142541944Y-58054538D01*
X142700971Y-57881788D01*
X142760857Y-57845799D01*
X142830695Y-57847899D01*
X142883428Y-57881788D01*
X143042456Y-58054538D01*
X143238691Y-58207274D01*
X143238693Y-58207275D01*
X143456532Y-58325164D01*
X143457390Y-58325628D01*
X143676341Y-58400794D01*
X143691164Y-58405883D01*
X143692586Y-58406371D01*
X143937865Y-58447300D01*
X144186535Y-58447300D01*
X144431814Y-58406371D01*
X144667010Y-58325628D01*
X144885709Y-58207274D01*
X145081944Y-58054538D01*
X145240971Y-57881788D01*
X145300857Y-57845799D01*
X145370695Y-57847899D01*
X145423428Y-57881788D01*
X145582456Y-58054538D01*
X145778691Y-58207274D01*
X145778693Y-58207275D01*
X145996532Y-58325164D01*
X145997390Y-58325628D01*
X146216341Y-58400794D01*
X146231164Y-58405883D01*
X146232586Y-58406371D01*
X146477865Y-58447300D01*
X146726535Y-58447300D01*
X146971814Y-58406371D01*
X147207010Y-58325628D01*
X147425709Y-58207274D01*
X147621944Y-58054538D01*
X147780971Y-57881788D01*
X147840857Y-57845799D01*
X147910695Y-57847899D01*
X147963428Y-57881788D01*
X148122456Y-58054538D01*
X148318691Y-58207274D01*
X148318693Y-58207275D01*
X148536532Y-58325164D01*
X148537390Y-58325628D01*
X148756341Y-58400794D01*
X148771164Y-58405883D01*
X148772586Y-58406371D01*
X149017865Y-58447300D01*
X149266535Y-58447300D01*
X149511814Y-58406371D01*
X149747010Y-58325628D01*
X149965709Y-58207274D01*
X150161944Y-58054538D01*
X150320971Y-57881788D01*
X150380857Y-57845799D01*
X150450695Y-57847899D01*
X150503428Y-57881788D01*
X150662456Y-58054538D01*
X150858691Y-58207274D01*
X150858693Y-58207275D01*
X151076532Y-58325164D01*
X151077390Y-58325628D01*
X151296341Y-58400794D01*
X151311164Y-58405883D01*
X151312586Y-58406371D01*
X151557865Y-58447300D01*
X151806535Y-58447300D01*
X152051814Y-58406371D01*
X152287010Y-58325628D01*
X152505709Y-58207274D01*
X152701944Y-58054538D01*
X152860971Y-57881788D01*
X152920857Y-57845799D01*
X152990695Y-57847899D01*
X153043428Y-57881788D01*
X153202456Y-58054538D01*
X153398691Y-58207274D01*
X153398693Y-58207275D01*
X153616532Y-58325164D01*
X153617390Y-58325628D01*
X153836341Y-58400794D01*
X153851164Y-58405883D01*
X153852586Y-58406371D01*
X154097865Y-58447300D01*
X154346535Y-58447300D01*
X154591814Y-58406371D01*
X154827010Y-58325628D01*
X155045709Y-58207274D01*
X155241944Y-58054538D01*
X155400971Y-57881788D01*
X155460857Y-57845799D01*
X155530695Y-57847899D01*
X155583428Y-57881788D01*
X155742456Y-58054538D01*
X155938691Y-58207274D01*
X155938693Y-58207275D01*
X156156532Y-58325164D01*
X156157390Y-58325628D01*
X156376341Y-58400794D01*
X156391164Y-58405883D01*
X156392586Y-58406371D01*
X156637865Y-58447300D01*
X156886535Y-58447300D01*
X157131814Y-58406371D01*
X157367010Y-58325628D01*
X157585709Y-58207274D01*
X157781944Y-58054538D01*
X157940971Y-57881788D01*
X158000857Y-57845799D01*
X158070695Y-57847899D01*
X158123428Y-57881788D01*
X158282456Y-58054538D01*
X158478691Y-58207274D01*
X158478693Y-58207275D01*
X158696532Y-58325164D01*
X158697390Y-58325628D01*
X158916341Y-58400794D01*
X158931164Y-58405883D01*
X158932586Y-58406371D01*
X159177865Y-58447300D01*
X159426535Y-58447300D01*
X159671814Y-58406371D01*
X159907010Y-58325628D01*
X160125709Y-58207274D01*
X160321944Y-58054538D01*
X160480971Y-57881788D01*
X160540857Y-57845799D01*
X160610695Y-57847899D01*
X160663428Y-57881788D01*
X160822456Y-58054538D01*
X161018691Y-58207274D01*
X161018693Y-58207275D01*
X161236532Y-58325164D01*
X161237390Y-58325628D01*
X161456341Y-58400794D01*
X161471164Y-58405883D01*
X161472586Y-58406371D01*
X161717865Y-58447300D01*
X161966535Y-58447300D01*
X162211814Y-58406371D01*
X162447010Y-58325628D01*
X162665709Y-58207274D01*
X162861944Y-58054538D01*
X163020971Y-57881788D01*
X163080857Y-57845799D01*
X163150695Y-57847899D01*
X163203428Y-57881788D01*
X163362456Y-58054538D01*
X163558691Y-58207274D01*
X163558693Y-58207275D01*
X163776532Y-58325164D01*
X163777390Y-58325628D01*
X163996341Y-58400794D01*
X164011164Y-58405883D01*
X164012586Y-58406371D01*
X164257865Y-58447300D01*
X164506535Y-58447300D01*
X164751814Y-58406371D01*
X164987010Y-58325628D01*
X165205709Y-58207274D01*
X165401944Y-58054538D01*
X165570364Y-57871585D01*
X165706373Y-57663407D01*
X165806263Y-57435681D01*
X165813494Y-57407125D01*
X165849033Y-57346970D01*
X165911454Y-57315578D01*
X165980937Y-57322916D01*
X166035423Y-57366654D01*
X166057612Y-57432907D01*
X166057700Y-57437566D01*
X166057700Y-57548289D01*
X166096890Y-57808303D01*
X166096892Y-57808309D01*
X166174402Y-58059588D01*
X166288495Y-58296505D01*
X166288497Y-58296507D01*
X166288498Y-58296510D01*
X166436630Y-58513780D01*
X166615490Y-58706546D01*
X166821083Y-58870501D01*
X167048816Y-59001983D01*
X167293602Y-59098054D01*
X167549972Y-59156569D01*
X167549978Y-59156569D01*
X167549981Y-59156570D01*
X167746524Y-59171299D01*
X167746543Y-59171299D01*
X167746546Y-59171300D01*
X167746548Y-59171300D01*
X167877852Y-59171300D01*
X167877854Y-59171300D01*
X167877856Y-59171299D01*
X167877875Y-59171299D01*
X168074418Y-59156570D01*
X168074420Y-59156569D01*
X168074428Y-59156569D01*
X168330798Y-59098054D01*
X168575584Y-59001983D01*
X168803317Y-58870501D01*
X169008910Y-58706546D01*
X169187770Y-58513780D01*
X169335902Y-58296510D01*
X169420380Y-58121089D01*
X169467202Y-58069230D01*
X169534629Y-58050917D01*
X169601253Y-58071965D01*
X169645922Y-58125691D01*
X169656100Y-58174891D01*
X169656100Y-60547947D01*
X169636415Y-60614986D01*
X169619781Y-60635628D01*
X161651428Y-68603981D01*
X161590105Y-68637466D01*
X161563747Y-68640300D01*
X138386748Y-68640300D01*
X138319709Y-68620615D01*
X138294600Y-68599274D01*
X138288873Y-68592914D01*
X138288869Y-68592910D01*
X138135734Y-68481651D01*
X138135729Y-68481648D01*
X137962807Y-68404657D01*
X137962802Y-68404655D01*
X137817000Y-68373665D01*
X137777646Y-68365300D01*
X137588354Y-68365300D01*
X137555897Y-68372198D01*
X137403197Y-68404655D01*
X137403192Y-68404657D01*
X137230270Y-68481648D01*
X137230265Y-68481651D01*
X137077129Y-68592911D01*
X136950466Y-68733585D01*
X136855821Y-68897515D01*
X136855818Y-68897522D01*
X136797327Y-69077540D01*
X136797326Y-69077544D01*
X136777540Y-69265800D01*
X136797326Y-69454056D01*
X136797327Y-69454059D01*
X136855818Y-69634077D01*
X136855821Y-69634084D01*
X136950467Y-69798016D01*
X137052185Y-69910985D01*
X137077129Y-69938688D01*
X137230265Y-70049948D01*
X137230270Y-70049951D01*
X137403192Y-70126942D01*
X137403197Y-70126944D01*
X137588354Y-70166300D01*
X137588355Y-70166300D01*
X137777644Y-70166300D01*
X137777646Y-70166300D01*
X137962803Y-70126944D01*
X138135730Y-70049951D01*
X138288871Y-69938688D01*
X138291788Y-69935447D01*
X138294600Y-69932326D01*
X138354087Y-69895679D01*
X138386748Y-69891300D01*
X149266874Y-69891300D01*
X149333913Y-69910985D01*
X149379668Y-69963789D01*
X149389612Y-70032947D01*
X149384805Y-70053618D01*
X149360980Y-70126944D01*
X149355326Y-70144344D01*
X149335540Y-70332600D01*
X149355326Y-70520856D01*
X149355327Y-70520859D01*
X149413818Y-70700877D01*
X149413821Y-70700884D01*
X149508467Y-70864816D01*
X149558249Y-70920104D01*
X149609049Y-70976523D01*
X149639279Y-71039514D01*
X149640899Y-71059495D01*
X149640899Y-76161712D01*
X149621214Y-76228751D01*
X149609050Y-76244683D01*
X149533866Y-76328185D01*
X149439221Y-76492115D01*
X149439218Y-76492122D01*
X149387448Y-76651455D01*
X149380726Y-76672144D01*
X149367612Y-76796916D01*
X149360940Y-76860400D01*
X149369435Y-76941226D01*
X149356865Y-77009956D01*
X149348440Y-77018961D01*
X149359598Y-77025227D01*
X149388811Y-77073540D01*
X149439219Y-77228680D01*
X149439221Y-77228684D01*
X149533867Y-77392616D01*
X149655627Y-77527844D01*
X149660529Y-77533288D01*
X149813665Y-77644548D01*
X149813670Y-77644551D01*
X149986592Y-77721542D01*
X149986597Y-77721544D01*
X150171754Y-77760900D01*
X150171755Y-77760900D01*
X150361044Y-77760900D01*
X150361046Y-77760900D01*
X150546203Y-77721544D01*
X150719130Y-77644551D01*
X150872271Y-77533288D01*
X150998933Y-77392616D01*
X151093579Y-77228684D01*
X151152074Y-77048656D01*
X151171860Y-76860400D01*
X151152074Y-76672144D01*
X151093579Y-76492116D01*
X150998933Y-76328184D01*
X150977207Y-76304055D01*
X150923750Y-76244684D01*
X150893520Y-76181692D01*
X150891900Y-76161712D01*
X150891900Y-71003077D01*
X150911585Y-70936038D01*
X150923743Y-70920112D01*
X150973533Y-70864816D01*
X151068179Y-70700884D01*
X151126674Y-70520856D01*
X151146460Y-70332600D01*
X151126674Y-70144344D01*
X151097194Y-70053617D01*
X151095200Y-69983777D01*
X151131280Y-69923944D01*
X151193981Y-69893116D01*
X151215126Y-69891300D01*
X161385948Y-69891300D01*
X161452987Y-69910985D01*
X161473629Y-69927619D01*
X172997981Y-81451971D01*
X173031466Y-81513294D01*
X173034300Y-81539652D01*
X173034300Y-84905746D01*
X173014615Y-84972785D01*
X172997981Y-84993427D01*
X165779326Y-92212081D01*
X165718003Y-92245566D01*
X165691645Y-92248400D01*
X164771286Y-92248400D01*
X164797093Y-92208244D01*
X164837600Y-92070289D01*
X164837600Y-91926511D01*
X164797093Y-91788556D01*
X164771286Y-91748400D01*
X165687600Y-91748400D01*
X165687600Y-91100572D01*
X165687599Y-91100555D01*
X165681198Y-91041027D01*
X165681196Y-91041020D01*
X165630954Y-90906313D01*
X165630950Y-90906306D01*
X165544790Y-90791212D01*
X165544787Y-90791209D01*
X165429693Y-90705049D01*
X165429686Y-90705045D01*
X165294979Y-90654803D01*
X165294972Y-90654801D01*
X165235444Y-90648400D01*
X164587600Y-90648400D01*
X164587600Y-91562898D01*
X164479915Y-91513720D01*
X164373363Y-91498400D01*
X164301837Y-91498400D01*
X164195285Y-91513720D01*
X164087600Y-91562898D01*
X164087600Y-90648400D01*
X163439755Y-90648400D01*
X163380227Y-90654801D01*
X163380220Y-90654803D01*
X163245513Y-90705045D01*
X163245506Y-90705049D01*
X163130412Y-90791209D01*
X163130409Y-90791212D01*
X163044249Y-90906306D01*
X163044245Y-90906313D01*
X162994003Y-91041020D01*
X162994001Y-91041027D01*
X162987600Y-91100555D01*
X162987600Y-91748400D01*
X163903914Y-91748400D01*
X163878107Y-91788556D01*
X163837600Y-91926511D01*
X163837600Y-92070289D01*
X163878107Y-92208244D01*
X163903914Y-92248400D01*
X162987600Y-92248400D01*
X162987600Y-92896244D01*
X162994001Y-92955772D01*
X162994003Y-92955779D01*
X163044245Y-93090486D01*
X163044249Y-93090493D01*
X163130409Y-93205587D01*
X163130412Y-93205590D01*
X163245506Y-93291750D01*
X163245513Y-93291754D01*
X163377070Y-93340821D01*
X163433003Y-93382692D01*
X163457421Y-93448156D01*
X163442570Y-93516429D01*
X163421419Y-93544684D01*
X163299103Y-93667000D01*
X163163565Y-93860569D01*
X163163564Y-93860571D01*
X163063698Y-94074735D01*
X163063694Y-94074744D01*
X163002538Y-94302986D01*
X163002536Y-94302996D01*
X162981941Y-94538399D01*
X162981941Y-94538400D01*
X163002536Y-94773803D01*
X163002538Y-94773813D01*
X163063694Y-95002055D01*
X163063696Y-95002059D01*
X163063697Y-95002063D01*
X163123156Y-95129573D01*
X163163565Y-95216230D01*
X163163567Y-95216234D01*
X163299101Y-95409795D01*
X163299106Y-95409802D01*
X163466197Y-95576893D01*
X163466203Y-95576898D01*
X163651758Y-95706825D01*
X163695383Y-95761402D01*
X163702577Y-95830900D01*
X163671054Y-95893255D01*
X163651758Y-95909975D01*
X163466197Y-96039905D01*
X163299105Y-96206997D01*
X163163565Y-96400569D01*
X163163564Y-96400571D01*
X163063698Y-96614735D01*
X163063694Y-96614744D01*
X163002538Y-96842986D01*
X163002536Y-96842996D01*
X162981941Y-97078399D01*
X162981941Y-97078788D01*
X162981892Y-97078953D01*
X162981469Y-97083794D01*
X162980496Y-97083708D01*
X162962256Y-97145827D01*
X162909452Y-97191582D01*
X162840294Y-97201526D01*
X162776738Y-97172501D01*
X162770273Y-97166482D01*
X162663018Y-97059227D01*
X162629534Y-96997904D01*
X162626700Y-96971546D01*
X162626700Y-85038252D01*
X162646385Y-84971213D01*
X162663019Y-84950571D01*
X162950809Y-84662781D01*
X163804972Y-83808617D01*
X163866293Y-83775134D01*
X163932912Y-83779018D01*
X163984429Y-83796704D01*
X164012585Y-83806371D01*
X164257865Y-83847300D01*
X164506535Y-83847300D01*
X164751814Y-83806371D01*
X164987010Y-83725628D01*
X165205709Y-83607274D01*
X165401944Y-83454538D01*
X165570364Y-83271585D01*
X165706373Y-83063407D01*
X165806263Y-82835681D01*
X165867308Y-82594621D01*
X165880994Y-82429454D01*
X165906147Y-82364271D01*
X165962549Y-82323033D01*
X166032292Y-82318835D01*
X166093234Y-82353009D01*
X166123061Y-82403146D01*
X166174402Y-82569588D01*
X166288495Y-82806505D01*
X166288497Y-82806507D01*
X166288498Y-82806510D01*
X166436630Y-83023780D01*
X166615490Y-83216546D01*
X166821083Y-83380501D01*
X167048816Y-83511983D01*
X167293602Y-83608054D01*
X167549972Y-83666569D01*
X167549978Y-83666569D01*
X167549981Y-83666570D01*
X167746524Y-83681299D01*
X167746543Y-83681299D01*
X167746546Y-83681300D01*
X167746548Y-83681300D01*
X167877852Y-83681300D01*
X167877854Y-83681300D01*
X167877856Y-83681299D01*
X167877875Y-83681299D01*
X168074418Y-83666570D01*
X168074420Y-83666569D01*
X168074428Y-83666569D01*
X168330798Y-83608054D01*
X168575584Y-83511983D01*
X168803317Y-83380501D01*
X169008910Y-83216546D01*
X169187770Y-83023780D01*
X169335902Y-82806510D01*
X169449998Y-82569588D01*
X169527508Y-82318308D01*
X169539474Y-82238922D01*
X169566699Y-82058289D01*
X169566700Y-82058280D01*
X169566700Y-81795319D01*
X169566699Y-81795310D01*
X169527509Y-81535296D01*
X169527507Y-81535290D01*
X169520722Y-81513294D01*
X169449998Y-81284012D01*
X169335902Y-81047090D01*
X169187770Y-80829820D01*
X169008910Y-80637054D01*
X168803317Y-80473099D01*
X168575584Y-80341617D01*
X168330798Y-80245546D01*
X168330793Y-80245544D01*
X168330784Y-80245542D01*
X168101421Y-80193192D01*
X168074428Y-80187031D01*
X168074427Y-80187030D01*
X168074423Y-80187030D01*
X168074418Y-80187029D01*
X167877875Y-80172300D01*
X167877854Y-80172300D01*
X167746546Y-80172300D01*
X167746524Y-80172300D01*
X167549981Y-80187029D01*
X167549976Y-80187030D01*
X167293615Y-80245542D01*
X167293596Y-80245548D01*
X167048815Y-80341617D01*
X166821083Y-80473099D01*
X166615490Y-80637054D01*
X166615488Y-80637056D01*
X166436630Y-80829819D01*
X166288495Y-81047094D01*
X166174402Y-81284011D01*
X166096892Y-81535290D01*
X166096890Y-81535296D01*
X166057700Y-81795310D01*
X166057700Y-81856033D01*
X166038015Y-81923072D01*
X165985211Y-81968827D01*
X165916053Y-81978771D01*
X165852497Y-81949746D01*
X165814723Y-81890968D01*
X165813494Y-81886473D01*
X165806263Y-81857918D01*
X165706373Y-81630193D01*
X165570366Y-81422017D01*
X165548757Y-81398544D01*
X165401944Y-81239062D01*
X165205709Y-81086326D01*
X165205707Y-81086325D01*
X165205706Y-81086324D01*
X164987011Y-80967972D01*
X164987002Y-80967969D01*
X164751816Y-80887229D01*
X164506535Y-80846300D01*
X164257865Y-80846300D01*
X164012583Y-80887229D01*
X163777397Y-80967969D01*
X163777388Y-80967972D01*
X163558693Y-81086324D01*
X163362457Y-81239061D01*
X163203430Y-81411810D01*
X163143542Y-81447801D01*
X163073704Y-81445700D01*
X163020970Y-81411810D01*
X162981308Y-81368726D01*
X162861944Y-81239062D01*
X162665709Y-81086326D01*
X162665707Y-81086325D01*
X162665706Y-81086324D01*
X162447011Y-80967972D01*
X162447002Y-80967969D01*
X162211816Y-80887229D01*
X161966535Y-80846300D01*
X161717865Y-80846300D01*
X161472583Y-80887229D01*
X161237397Y-80967969D01*
X161237388Y-80967972D01*
X161018693Y-81086324D01*
X160822457Y-81239061D01*
X160663430Y-81411810D01*
X160603542Y-81447801D01*
X160533704Y-81445700D01*
X160480970Y-81411810D01*
X160441308Y-81368726D01*
X160321944Y-81239062D01*
X160125709Y-81086326D01*
X160125707Y-81086325D01*
X160125706Y-81086324D01*
X159907011Y-80967972D01*
X159907002Y-80967969D01*
X159671816Y-80887229D01*
X159426535Y-80846300D01*
X159177865Y-80846300D01*
X158932583Y-80887229D01*
X158697397Y-80967969D01*
X158697388Y-80967972D01*
X158478693Y-81086324D01*
X158282457Y-81239061D01*
X158123430Y-81411810D01*
X158063542Y-81447801D01*
X157993704Y-81445700D01*
X157940970Y-81411810D01*
X157901308Y-81368726D01*
X157781944Y-81239062D01*
X157585709Y-81086326D01*
X157585707Y-81086325D01*
X157585706Y-81086324D01*
X157367011Y-80967972D01*
X157367002Y-80967969D01*
X157131816Y-80887229D01*
X156886535Y-80846300D01*
X156637865Y-80846300D01*
X156392583Y-80887229D01*
X156157397Y-80967969D01*
X156157388Y-80967972D01*
X155938693Y-81086324D01*
X155742457Y-81239061D01*
X155583430Y-81411810D01*
X155523542Y-81447801D01*
X155453704Y-81445700D01*
X155400970Y-81411810D01*
X155361308Y-81368726D01*
X155241944Y-81239062D01*
X155045709Y-81086326D01*
X155045707Y-81086325D01*
X155045706Y-81086324D01*
X154827011Y-80967972D01*
X154827002Y-80967969D01*
X154591816Y-80887229D01*
X154346535Y-80846300D01*
X154097865Y-80846300D01*
X153852583Y-80887229D01*
X153617397Y-80967969D01*
X153617388Y-80967972D01*
X153398693Y-81086324D01*
X153202457Y-81239061D01*
X153043430Y-81411810D01*
X152983542Y-81447801D01*
X152913704Y-81445700D01*
X152860970Y-81411810D01*
X152821308Y-81368726D01*
X152701944Y-81239062D01*
X152505709Y-81086326D01*
X152505707Y-81086325D01*
X152505706Y-81086324D01*
X152287011Y-80967972D01*
X152287002Y-80967969D01*
X152051816Y-80887229D01*
X151806535Y-80846300D01*
X151557865Y-80846300D01*
X151312583Y-80887229D01*
X151077397Y-80967969D01*
X151077388Y-80967972D01*
X150858693Y-81086324D01*
X150662457Y-81239061D01*
X150503430Y-81411810D01*
X150443542Y-81447801D01*
X150373704Y-81445700D01*
X150320970Y-81411810D01*
X150281308Y-81368726D01*
X150161944Y-81239062D01*
X149965709Y-81086326D01*
X149965707Y-81086325D01*
X149965706Y-81086324D01*
X149747011Y-80967972D01*
X149747002Y-80967969D01*
X149511816Y-80887229D01*
X149266535Y-80846300D01*
X149017865Y-80846300D01*
X148772583Y-80887229D01*
X148537397Y-80967969D01*
X148537388Y-80967972D01*
X148318693Y-81086324D01*
X148122457Y-81239061D01*
X147963430Y-81411810D01*
X147903542Y-81447801D01*
X147833704Y-81445700D01*
X147780970Y-81411810D01*
X147741308Y-81368726D01*
X147621944Y-81239062D01*
X147425709Y-81086326D01*
X147425707Y-81086325D01*
X147425706Y-81086324D01*
X147207011Y-80967972D01*
X147207002Y-80967969D01*
X146971816Y-80887229D01*
X146726535Y-80846300D01*
X146477865Y-80846300D01*
X146232583Y-80887229D01*
X145997397Y-80967969D01*
X145997388Y-80967972D01*
X145778693Y-81086324D01*
X145582457Y-81239061D01*
X145423430Y-81411810D01*
X145363542Y-81447801D01*
X145293704Y-81445700D01*
X145240970Y-81411810D01*
X145201308Y-81368726D01*
X145081944Y-81239062D01*
X144885709Y-81086326D01*
X144885707Y-81086325D01*
X144885706Y-81086324D01*
X144667011Y-80967972D01*
X144667002Y-80967969D01*
X144431816Y-80887229D01*
X144186535Y-80846300D01*
X143937865Y-80846300D01*
X143692583Y-80887229D01*
X143457397Y-80967969D01*
X143457388Y-80967972D01*
X143238693Y-81086324D01*
X143042457Y-81239061D01*
X142883430Y-81411810D01*
X142823542Y-81447801D01*
X142753704Y-81445700D01*
X142700970Y-81411810D01*
X142661308Y-81368726D01*
X142541944Y-81239062D01*
X142345709Y-81086326D01*
X142345707Y-81086325D01*
X142345706Y-81086324D01*
X142127011Y-80967972D01*
X142127002Y-80967969D01*
X141891816Y-80887229D01*
X141646535Y-80846300D01*
X141397865Y-80846300D01*
X141152583Y-80887229D01*
X140917397Y-80967969D01*
X140917388Y-80967972D01*
X140698693Y-81086324D01*
X140502457Y-81239061D01*
X140343430Y-81411810D01*
X140283542Y-81447801D01*
X140213704Y-81445700D01*
X140160970Y-81411810D01*
X140121308Y-81368726D01*
X140001944Y-81239062D01*
X139805709Y-81086326D01*
X139805707Y-81086325D01*
X139805706Y-81086324D01*
X139587011Y-80967972D01*
X139587002Y-80967969D01*
X139351816Y-80887229D01*
X139106535Y-80846300D01*
X138857865Y-80846300D01*
X138612583Y-80887229D01*
X138377397Y-80967969D01*
X138377388Y-80967972D01*
X138158693Y-81086324D01*
X137962457Y-81239061D01*
X137803430Y-81411810D01*
X137743542Y-81447801D01*
X137673704Y-81445700D01*
X137620970Y-81411810D01*
X137581308Y-81368726D01*
X137461944Y-81239062D01*
X137265709Y-81086326D01*
X137265707Y-81086325D01*
X137265706Y-81086324D01*
X137047011Y-80967972D01*
X137047002Y-80967969D01*
X136811816Y-80887229D01*
X136566535Y-80846300D01*
X136317865Y-80846300D01*
X136072583Y-80887229D01*
X135837397Y-80967969D01*
X135837388Y-80967972D01*
X135618693Y-81086324D01*
X135422457Y-81239061D01*
X135263430Y-81411810D01*
X135203542Y-81447801D01*
X135133704Y-81445700D01*
X135080970Y-81411810D01*
X135041308Y-81368726D01*
X134921944Y-81239062D01*
X134725709Y-81086326D01*
X134725707Y-81086325D01*
X134725706Y-81086324D01*
X134507011Y-80967972D01*
X134507002Y-80967969D01*
X134271816Y-80887229D01*
X134026535Y-80846300D01*
X133777865Y-80846300D01*
X133532586Y-80887228D01*
X133452913Y-80914580D01*
X133383114Y-80917729D01*
X133324970Y-80884979D01*
X132650403Y-80210412D01*
X132640580Y-80198150D01*
X132640359Y-80198334D01*
X132635386Y-80192322D01*
X132585666Y-80145632D01*
X132584266Y-80144275D01*
X132564076Y-80124084D01*
X132559047Y-80120183D01*
X132558584Y-80119824D01*
X132554161Y-80116047D01*
X132520182Y-80084138D01*
X132520180Y-80084136D01*
X132520177Y-80084135D01*
X132502629Y-80074488D01*
X132486363Y-80063804D01*
X132470536Y-80051527D01*
X132470535Y-80051526D01*
X132470533Y-80051525D01*
X132427768Y-80033018D01*
X132422522Y-80030448D01*
X132381693Y-80008003D01*
X132381692Y-80008002D01*
X132362293Y-80003022D01*
X132343881Y-79996718D01*
X132325498Y-79988762D01*
X132325492Y-79988760D01*
X132279474Y-79981472D01*
X132273752Y-79980287D01*
X132228621Y-79968700D01*
X132228619Y-79968700D01*
X132208584Y-79968700D01*
X132189186Y-79967173D01*
X132181762Y-79965997D01*
X132169405Y-79964040D01*
X132169404Y-79964040D01*
X132123016Y-79968425D01*
X132117178Y-79968700D01*
X127843853Y-79968700D01*
X127776814Y-79949015D01*
X127756172Y-79932381D01*
X126950618Y-79126827D01*
X126917133Y-79065504D01*
X126914299Y-79039146D01*
X126914299Y-78491600D01*
X126914299Y-77863883D01*
X126933984Y-77796848D01*
X126946150Y-77780914D01*
X126964171Y-77760900D01*
X127021333Y-77697416D01*
X127115979Y-77533484D01*
X127174474Y-77353456D01*
X127194260Y-77165200D01*
X127174474Y-76976944D01*
X127115979Y-76796916D01*
X127021333Y-76632984D01*
X126894671Y-76492312D01*
X126894670Y-76492311D01*
X126741534Y-76381051D01*
X126741529Y-76381048D01*
X126568607Y-76304057D01*
X126568602Y-76304055D01*
X126422800Y-76273065D01*
X126383446Y-76264700D01*
X126194154Y-76264700D01*
X126161697Y-76271598D01*
X126008997Y-76304055D01*
X126008992Y-76304057D01*
X125836070Y-76381048D01*
X125836065Y-76381051D01*
X125682929Y-76492311D01*
X125556266Y-76632985D01*
X125461621Y-76796915D01*
X125461618Y-76796922D01*
X125403127Y-76976940D01*
X125403126Y-76976944D01*
X125383340Y-77165200D01*
X125403126Y-77353456D01*
X125403127Y-77353459D01*
X125461618Y-77533477D01*
X125461621Y-77533484D01*
X125556267Y-77697416D01*
X125597140Y-77742810D01*
X125631450Y-77780915D01*
X125661680Y-77843906D01*
X125663300Y-77863887D01*
X125663300Y-79266855D01*
X125661575Y-79282472D01*
X125661861Y-79282499D01*
X125661126Y-79290266D01*
X125663269Y-79358446D01*
X125663300Y-79360393D01*
X125663300Y-79388943D01*
X125663301Y-79388960D01*
X125664168Y-79395831D01*
X125664626Y-79401650D01*
X125666090Y-79448224D01*
X125666091Y-79448227D01*
X125671680Y-79467467D01*
X125675624Y-79486511D01*
X125678136Y-79506392D01*
X125683136Y-79519020D01*
X125695290Y-79549719D01*
X125697182Y-79555247D01*
X125710182Y-79599990D01*
X125718465Y-79613997D01*
X125720380Y-79617234D01*
X125728938Y-79634703D01*
X125736314Y-79653332D01*
X125763698Y-79691023D01*
X125766906Y-79695907D01*
X125790627Y-79736016D01*
X125790633Y-79736024D01*
X125804790Y-79750180D01*
X125817428Y-79764976D01*
X125829205Y-79781186D01*
X125829206Y-79781187D01*
X125865109Y-79810888D01*
X125869420Y-79814810D01*
X126760806Y-80706197D01*
X127032597Y-80977988D01*
X127042422Y-80990251D01*
X127042643Y-80990069D01*
X127047611Y-80996074D01*
X127097332Y-81042766D01*
X127098732Y-81044123D01*
X127118923Y-81064315D01*
X127118927Y-81064318D01*
X127118929Y-81064320D01*
X127124411Y-81068573D01*
X127128843Y-81072357D01*
X127162818Y-81104262D01*
X127180376Y-81113914D01*
X127196637Y-81124596D01*
X127212464Y-81136873D01*
X127249686Y-81152980D01*
X127303394Y-81197669D01*
X127324416Y-81264301D01*
X127323731Y-81280033D01*
X127321700Y-81298924D01*
X127321700Y-83394670D01*
X127321701Y-83394676D01*
X127328108Y-83454283D01*
X127378402Y-83589128D01*
X127378406Y-83589135D01*
X127464652Y-83704344D01*
X127464655Y-83704347D01*
X127579864Y-83790593D01*
X127579871Y-83790597D01*
X127714717Y-83840891D01*
X127714716Y-83840891D01*
X127721644Y-83841635D01*
X127774327Y-83847300D01*
X129870072Y-83847299D01*
X129929683Y-83840891D01*
X130064531Y-83790596D01*
X130179746Y-83704346D01*
X130265996Y-83589131D01*
X130265997Y-83589126D01*
X130270247Y-83581346D01*
X130273335Y-83583032D01*
X130305073Y-83540590D01*
X130370524Y-83516139D01*
X130438805Y-83530955D01*
X130455598Y-83541965D01*
X130538968Y-83606855D01*
X130538971Y-83606857D01*
X130757585Y-83725164D01*
X130757596Y-83725169D01*
X130992706Y-83805883D01*
X131237907Y-83846800D01*
X131486493Y-83846800D01*
X131731693Y-83805883D01*
X131966803Y-83725169D01*
X131966814Y-83725164D01*
X132185428Y-83606857D01*
X132185431Y-83606855D01*
X132232256Y-83570409D01*
X131503565Y-82841718D01*
X131507361Y-82841173D01*
X131640762Y-82780251D01*
X131751595Y-82684213D01*
X131830882Y-82560840D01*
X131853332Y-82484380D01*
X132585634Y-83216682D01*
X132597061Y-83215497D01*
X132665773Y-83228160D01*
X132710292Y-83267994D01*
X132710883Y-83267535D01*
X132713418Y-83270792D01*
X132713656Y-83271005D01*
X132714031Y-83271580D01*
X132714036Y-83271585D01*
X132882456Y-83454538D01*
X133078691Y-83607274D01*
X133078693Y-83607275D01*
X133296532Y-83725164D01*
X133297390Y-83725628D01*
X133486626Y-83790593D01*
X133531164Y-83805883D01*
X133532586Y-83806371D01*
X133777865Y-83847300D01*
X134026535Y-83847300D01*
X134271814Y-83806371D01*
X134507010Y-83725628D01*
X134725709Y-83607274D01*
X134921944Y-83454538D01*
X135080971Y-83281788D01*
X135140857Y-83245799D01*
X135210695Y-83247899D01*
X135263428Y-83281788D01*
X135422456Y-83454538D01*
X135618691Y-83607274D01*
X135618693Y-83607275D01*
X135836532Y-83725164D01*
X135837390Y-83725628D01*
X136026626Y-83790593D01*
X136071164Y-83805883D01*
X136072586Y-83806371D01*
X136317865Y-83847300D01*
X136566535Y-83847300D01*
X136811814Y-83806371D01*
X137047010Y-83725628D01*
X137265709Y-83607274D01*
X137461944Y-83454538D01*
X137620971Y-83281788D01*
X137680857Y-83245799D01*
X137750695Y-83247899D01*
X137803428Y-83281788D01*
X137962456Y-83454538D01*
X138158691Y-83607274D01*
X138158693Y-83607275D01*
X138377388Y-83725627D01*
X138377400Y-83725632D01*
X138450849Y-83750847D01*
X138507865Y-83791232D01*
X138533996Y-83856032D01*
X138520945Y-83924672D01*
X138498268Y-83955809D01*
X137791299Y-84662781D01*
X137729976Y-84696266D01*
X137703618Y-84699100D01*
X128766052Y-84699100D01*
X128764489Y-84699080D01*
X128676236Y-84696844D01*
X128676235Y-84696844D01*
X128676226Y-84696844D01*
X128615863Y-84707664D01*
X128611197Y-84708318D01*
X128550164Y-84714525D01*
X128517380Y-84724810D01*
X128509753Y-84726682D01*
X128475949Y-84732741D01*
X128418981Y-84755495D01*
X128414545Y-84757074D01*
X128356014Y-84775440D01*
X128356010Y-84775442D01*
X128325978Y-84792110D01*
X128318884Y-84795479D01*
X128286982Y-84808223D01*
X128286977Y-84808225D01*
X128235756Y-84841981D01*
X128231728Y-84844422D01*
X128178101Y-84874188D01*
X128152034Y-84896565D01*
X128145765Y-84901292D01*
X128117084Y-84920195D01*
X128117078Y-84920200D01*
X128073709Y-84963568D01*
X128070255Y-84966769D01*
X128023702Y-85006736D01*
X128002676Y-85033898D01*
X127997485Y-85039792D01*
X126683090Y-86354188D01*
X126681966Y-86355284D01*
X126617946Y-86416142D01*
X126582899Y-86466494D01*
X126580062Y-86470256D01*
X126541302Y-86517792D01*
X126541299Y-86517797D01*
X126525392Y-86548247D01*
X126521324Y-86554961D01*
X126501702Y-86583154D01*
X126477509Y-86639530D01*
X126475488Y-86643784D01*
X126447091Y-86698151D01*
X126447090Y-86698152D01*
X126437640Y-86731175D01*
X126435007Y-86738571D01*
X126421459Y-86770143D01*
X126409113Y-86830219D01*
X126407990Y-86834795D01*
X126391113Y-86893777D01*
X126391113Y-86893779D01*
X126388503Y-86928041D01*
X126387414Y-86935808D01*
X126381980Y-86962252D01*
X126380500Y-86969458D01*
X126380500Y-87030798D01*
X126380321Y-87035508D01*
X126377184Y-87076695D01*
X126352465Y-87142046D01*
X126296339Y-87183659D01*
X126226625Y-87188321D01*
X126180658Y-87167597D01*
X126157333Y-87150651D01*
X126157329Y-87150648D01*
X125984407Y-87073657D01*
X125984402Y-87073655D01*
X125838600Y-87042665D01*
X125799246Y-87034300D01*
X125609954Y-87034300D01*
X125577497Y-87041198D01*
X125424797Y-87073655D01*
X125424792Y-87073657D01*
X125251870Y-87150648D01*
X125251865Y-87150651D01*
X125098729Y-87261911D01*
X125098728Y-87261912D01*
X124995526Y-87376529D01*
X124936040Y-87413177D01*
X124866183Y-87411846D01*
X124808135Y-87372959D01*
X124786096Y-87333819D01*
X124768030Y-87281197D01*
X124768027Y-87281188D01*
X124649675Y-87062493D01*
X124649674Y-87062491D01*
X124496938Y-86866256D01*
X124316466Y-86700120D01*
X124313982Y-86697833D01*
X124105806Y-86561826D01*
X123878081Y-86461936D01*
X123637024Y-86400892D01*
X123637013Y-86400890D01*
X123451277Y-86385500D01*
X123451267Y-86385500D01*
X122827133Y-86385500D01*
X122827122Y-86385500D01*
X122641386Y-86400890D01*
X122641375Y-86400892D01*
X122400318Y-86461936D01*
X122172593Y-86561826D01*
X121964417Y-86697833D01*
X121781461Y-86866257D01*
X121628724Y-87062493D01*
X121510372Y-87281188D01*
X121510369Y-87281197D01*
X121429629Y-87516383D01*
X121402425Y-87679411D01*
X121388700Y-87761665D01*
X121388700Y-88010335D01*
X121393776Y-88040753D01*
X121429629Y-88255616D01*
X121510369Y-88490802D01*
X121510372Y-88490811D01*
X121628724Y-88709506D01*
X121628726Y-88709509D01*
X121781462Y-88905744D01*
X121912998Y-89026831D01*
X121964417Y-89074166D01*
X122172593Y-89210173D01*
X122400318Y-89310063D01*
X122595370Y-89359457D01*
X122641379Y-89371108D01*
X122641381Y-89371108D01*
X122641386Y-89371109D01*
X122794789Y-89383819D01*
X122827133Y-89386500D01*
X122827137Y-89386500D01*
X123451263Y-89386500D01*
X123451267Y-89386500D01*
X123513877Y-89381311D01*
X123637013Y-89371109D01*
X123637016Y-89371108D01*
X123637021Y-89371108D01*
X123878081Y-89310063D01*
X124105807Y-89210173D01*
X124313985Y-89074164D01*
X124496938Y-88905744D01*
X124649674Y-88709509D01*
X124768028Y-88490810D01*
X124768029Y-88490805D01*
X124769037Y-88488944D01*
X124818256Y-88439353D01*
X124886473Y-88424245D01*
X124952029Y-88448415D01*
X124970242Y-88464989D01*
X125047249Y-88550515D01*
X125077479Y-88613507D01*
X125079099Y-88633487D01*
X125079100Y-89351546D01*
X125059416Y-89418585D01*
X125042781Y-89439227D01*
X119804008Y-94677999D01*
X119791751Y-94687820D01*
X119791934Y-94688041D01*
X119785922Y-94693014D01*
X119739232Y-94742732D01*
X119737879Y-94744129D01*
X119717689Y-94764319D01*
X119717677Y-94764332D01*
X119713421Y-94769817D01*
X119709637Y-94774247D01*
X119677737Y-94808218D01*
X119677736Y-94808220D01*
X119668084Y-94825776D01*
X119657410Y-94842026D01*
X119645129Y-94857861D01*
X119645124Y-94857868D01*
X119626615Y-94900638D01*
X119624045Y-94905884D01*
X119601603Y-94946706D01*
X119596622Y-94966107D01*
X119590321Y-94984510D01*
X119582362Y-95002902D01*
X119582361Y-95002905D01*
X119575071Y-95048927D01*
X119573887Y-95054646D01*
X119562301Y-95099772D01*
X119562300Y-95099782D01*
X119562300Y-95119816D01*
X119560773Y-95139215D01*
X119557640Y-95158994D01*
X119557640Y-95158995D01*
X119562025Y-95205383D01*
X119562300Y-95211221D01*
X119562300Y-100785900D01*
X119542615Y-100852939D01*
X119489811Y-100898694D01*
X119438301Y-100909900D01*
X119289930Y-100909900D01*
X119289923Y-100909901D01*
X119230316Y-100916308D01*
X119095471Y-100966602D01*
X119095464Y-100966606D01*
X118980255Y-101052852D01*
X118980252Y-101052855D01*
X118894006Y-101168064D01*
X118894002Y-101168071D01*
X118843708Y-101302917D01*
X118837301Y-101362516D01*
X118837300Y-101362535D01*
X118837300Y-103158270D01*
X118837301Y-103158276D01*
X118843708Y-103217883D01*
X118894002Y-103352728D01*
X118894006Y-103352735D01*
X118980252Y-103467944D01*
X118980255Y-103467947D01*
X119095464Y-103554193D01*
X119095471Y-103554197D01*
X119230317Y-103604491D01*
X119230316Y-103604491D01*
X119237244Y-103605235D01*
X119289927Y-103610900D01*
X121085672Y-103610899D01*
X121145283Y-103604491D01*
X121280131Y-103554196D01*
X121395346Y-103467946D01*
X121481596Y-103352731D01*
X121530610Y-103221316D01*
X121572481Y-103165384D01*
X121637945Y-103140966D01*
X121706218Y-103155817D01*
X121734473Y-103176969D01*
X121856399Y-103298895D01*
X121953184Y-103366665D01*
X122049965Y-103434432D01*
X122049967Y-103434433D01*
X122049970Y-103434435D01*
X122264137Y-103534303D01*
X122492392Y-103595463D01*
X122668834Y-103610900D01*
X122727799Y-103616059D01*
X122727800Y-103616059D01*
X122727801Y-103616059D01*
X122786766Y-103610900D01*
X122963208Y-103595463D01*
X123191463Y-103534303D01*
X123405630Y-103434435D01*
X123599201Y-103298895D01*
X123766295Y-103131801D01*
X123901835Y-102938230D01*
X124001703Y-102724063D01*
X124062863Y-102495808D01*
X124083459Y-102260400D01*
X124062863Y-102024992D01*
X124001703Y-101796737D01*
X123901835Y-101582571D01*
X123844694Y-101500964D01*
X123766294Y-101388997D01*
X123599202Y-101221906D01*
X123599195Y-101221901D01*
X123405634Y-101086367D01*
X123405630Y-101086365D01*
X123405629Y-101086364D01*
X123191463Y-100986497D01*
X123191459Y-100986496D01*
X123191455Y-100986494D01*
X122963213Y-100925338D01*
X122963203Y-100925336D01*
X122727801Y-100904741D01*
X122727799Y-100904741D01*
X122492396Y-100925336D01*
X122492386Y-100925338D01*
X122264144Y-100986494D01*
X122264137Y-100986496D01*
X122264137Y-100986497D01*
X122250616Y-100992801D01*
X122049971Y-101086364D01*
X122049969Y-101086365D01*
X121856400Y-101221903D01*
X121734473Y-101343830D01*
X121673150Y-101377314D01*
X121603458Y-101372330D01*
X121547525Y-101330458D01*
X121530610Y-101299481D01*
X121481597Y-101168071D01*
X121481593Y-101168064D01*
X121395347Y-101052855D01*
X121395344Y-101052852D01*
X121280135Y-100966606D01*
X121280128Y-100966602D01*
X121145282Y-100916308D01*
X121145283Y-100916308D01*
X121085683Y-100909901D01*
X121085681Y-100909900D01*
X121085673Y-100909900D01*
X121085665Y-100909900D01*
X120937300Y-100909900D01*
X120870261Y-100890215D01*
X120824506Y-100837411D01*
X120813300Y-100785900D01*
X120813299Y-96775999D01*
X121410176Y-96775999D01*
X121410178Y-96776000D01*
X122851483Y-96776000D01*
X122815829Y-96814731D01*
X122764752Y-96931177D01*
X122754251Y-97057898D01*
X122785466Y-97181162D01*
X122847427Y-97276000D01*
X121410177Y-97276000D01*
X121430116Y-97395492D01*
X121510830Y-97630603D01*
X121510835Y-97630614D01*
X121629142Y-97849228D01*
X121629148Y-97849237D01*
X121781826Y-98045397D01*
X121781835Y-98045407D01*
X121964722Y-98213767D01*
X121964721Y-98213767D01*
X122172832Y-98349732D01*
X122400482Y-98449587D01*
X122641461Y-98510612D01*
X122641469Y-98510614D01*
X122827145Y-98525999D01*
X122827161Y-98526000D01*
X122889200Y-98526000D01*
X122889200Y-97314220D01*
X122955357Y-97365713D01*
X123075622Y-97407000D01*
X123170769Y-97407000D01*
X123264621Y-97391339D01*
X123376451Y-97330820D01*
X123389200Y-97316970D01*
X123389200Y-98526000D01*
X123451239Y-98526000D01*
X123451254Y-98525999D01*
X123636930Y-98510614D01*
X123636938Y-98510612D01*
X123877917Y-98449587D01*
X124105567Y-98349732D01*
X124313678Y-98213767D01*
X124496564Y-98045407D01*
X124496573Y-98045397D01*
X124649251Y-97849237D01*
X124649257Y-97849228D01*
X124767564Y-97630614D01*
X124767569Y-97630603D01*
X124848283Y-97395492D01*
X124868223Y-97276000D01*
X123426917Y-97276000D01*
X123462571Y-97237269D01*
X123513648Y-97120823D01*
X123524149Y-96994102D01*
X123492934Y-96870838D01*
X123430973Y-96776000D01*
X124868222Y-96776000D01*
X124868223Y-96775999D01*
X124848283Y-96656507D01*
X124767569Y-96421396D01*
X124767564Y-96421385D01*
X124649257Y-96202771D01*
X124649251Y-96202762D01*
X124496573Y-96006602D01*
X124496564Y-96006592D01*
X124313677Y-95838232D01*
X124313678Y-95838232D01*
X124105567Y-95702267D01*
X123877917Y-95602412D01*
X123636938Y-95541387D01*
X123636930Y-95541385D01*
X123451254Y-95526000D01*
X123389200Y-95526000D01*
X123389200Y-96737779D01*
X123323043Y-96686287D01*
X123202778Y-96645000D01*
X123107631Y-96645000D01*
X123013779Y-96660661D01*
X122901949Y-96721180D01*
X122889200Y-96735029D01*
X122889200Y-95526000D01*
X122827145Y-95526000D01*
X122641469Y-95541385D01*
X122641461Y-95541387D01*
X122400482Y-95602412D01*
X122172832Y-95702267D01*
X121964721Y-95838232D01*
X121781835Y-96006592D01*
X121781826Y-96006602D01*
X121629148Y-96202762D01*
X121629142Y-96202771D01*
X121510835Y-96421385D01*
X121510830Y-96421396D01*
X121430116Y-96656507D01*
X121410176Y-96775999D01*
X120813299Y-96775999D01*
X120813299Y-95489251D01*
X120832984Y-95422212D01*
X120849613Y-95401575D01*
X126088388Y-90162801D01*
X126100642Y-90152986D01*
X126100459Y-90152764D01*
X126106468Y-90147791D01*
X126106477Y-90147786D01*
X126153208Y-90098021D01*
X126154444Y-90096745D01*
X126168822Y-90082368D01*
X126230145Y-90048886D01*
X126299837Y-90053873D01*
X126355769Y-90095746D01*
X126380183Y-90161211D01*
X126380499Y-90170053D01*
X126380499Y-113935818D01*
X126360814Y-114002857D01*
X126344180Y-114023499D01*
X111499262Y-128868417D01*
X111402904Y-128986590D01*
X111308690Y-129166953D01*
X111252712Y-129362584D01*
X111237262Y-129565474D01*
X111237262Y-129565477D01*
X94537700Y-129565477D01*
X94537700Y-124473825D01*
X104884300Y-124473825D01*
X104896766Y-124604377D01*
X104899272Y-124630617D01*
X104899273Y-124630621D01*
X104955295Y-124821416D01*
X104958484Y-124832275D01*
X105005872Y-124924195D01*
X105054791Y-125019086D01*
X105184705Y-125184283D01*
X105184709Y-125184287D01*
X105343546Y-125321921D01*
X105525550Y-125427001D01*
X105525552Y-125427001D01*
X105525556Y-125427004D01*
X105724167Y-125495744D01*
X105932198Y-125525654D01*
X106142130Y-125515654D01*
X106346376Y-125466104D01*
X106431999Y-125427001D01*
X106537543Y-125378801D01*
X106537546Y-125378799D01*
X106537553Y-125378796D01*
X106708752Y-125256886D01*
X106806551Y-125154316D01*
X106867058Y-125119383D01*
X106936849Y-125122707D01*
X106993763Y-125163235D01*
X107001830Y-125174788D01*
X107042088Y-125240056D01*
X107166144Y-125364112D01*
X107315466Y-125456214D01*
X107482003Y-125511399D01*
X107584791Y-125521900D01*
X108384808Y-125521899D01*
X108384816Y-125521898D01*
X108384819Y-125521898D01*
X108445943Y-125515654D01*
X108487597Y-125511399D01*
X108654134Y-125456214D01*
X108803456Y-125364112D01*
X108927512Y-125240056D01*
X109019614Y-125090734D01*
X109074799Y-124924197D01*
X109085300Y-124821409D01*
X109085299Y-123471392D01*
X109074799Y-123368603D01*
X109019614Y-123202066D01*
X109016620Y-123197212D01*
X109003760Y-123176361D01*
X108985300Y-123111267D01*
X108985300Y-105637781D01*
X109004985Y-105570742D01*
X109021614Y-105550105D01*
X115759981Y-98811737D01*
X115760994Y-98810750D01*
X115825053Y-98749859D01*
X115859703Y-98700075D01*
X115860099Y-98699506D01*
X115862938Y-98695741D01*
X115874820Y-98681169D01*
X115901698Y-98648207D01*
X115917601Y-98617760D01*
X115921674Y-98611039D01*
X115926489Y-98604120D01*
X115941295Y-98582849D01*
X115965492Y-98526460D01*
X115967498Y-98522235D01*
X115995909Y-98467849D01*
X116005357Y-98434822D01*
X116007988Y-98427433D01*
X116021540Y-98395858D01*
X116033895Y-98335730D01*
X116034999Y-98331229D01*
X116051886Y-98272218D01*
X116054494Y-98237957D01*
X116055585Y-98230189D01*
X116062500Y-98196543D01*
X116062500Y-98135198D01*
X116062679Y-98130488D01*
X116063714Y-98116893D01*
X116067337Y-98069324D01*
X116062997Y-98035242D01*
X116062500Y-98027403D01*
X116062500Y-82058289D01*
X119107700Y-82058289D01*
X119146890Y-82318303D01*
X119146892Y-82318309D01*
X119224402Y-82569588D01*
X119338495Y-82806505D01*
X119338497Y-82806507D01*
X119338498Y-82806510D01*
X119486630Y-83023780D01*
X119665490Y-83216546D01*
X119871083Y-83380501D01*
X120098816Y-83511983D01*
X120343602Y-83608054D01*
X120599972Y-83666569D01*
X120599978Y-83666569D01*
X120599981Y-83666570D01*
X120796524Y-83681299D01*
X120796543Y-83681299D01*
X120796546Y-83681300D01*
X120796548Y-83681300D01*
X120927852Y-83681300D01*
X120927854Y-83681300D01*
X120927856Y-83681299D01*
X120927875Y-83681299D01*
X121124418Y-83666570D01*
X121124420Y-83666569D01*
X121124428Y-83666569D01*
X121380798Y-83608054D01*
X121625584Y-83511983D01*
X121853317Y-83380501D01*
X122058910Y-83216546D01*
X122237770Y-83023780D01*
X122385902Y-82806510D01*
X122499998Y-82569588D01*
X122577508Y-82318308D01*
X122589474Y-82238922D01*
X122616699Y-82058289D01*
X122616700Y-82058280D01*
X122616700Y-81795319D01*
X122616699Y-81795310D01*
X122577509Y-81535296D01*
X122577507Y-81535290D01*
X122570722Y-81513294D01*
X122499998Y-81284012D01*
X122385902Y-81047090D01*
X122237770Y-80829820D01*
X122058910Y-80637054D01*
X121853317Y-80473099D01*
X121625584Y-80341617D01*
X121380798Y-80245546D01*
X121380793Y-80245544D01*
X121380784Y-80245542D01*
X121151421Y-80193192D01*
X121124428Y-80187031D01*
X121124427Y-80187030D01*
X121124423Y-80187030D01*
X121124418Y-80187029D01*
X120927875Y-80172300D01*
X120927854Y-80172300D01*
X120796546Y-80172300D01*
X120796524Y-80172300D01*
X120599981Y-80187029D01*
X120599976Y-80187030D01*
X120343615Y-80245542D01*
X120343596Y-80245548D01*
X120098815Y-80341617D01*
X119871083Y-80473099D01*
X119665490Y-80637054D01*
X119665488Y-80637056D01*
X119486630Y-80829819D01*
X119338495Y-81047094D01*
X119224402Y-81284011D01*
X119146892Y-81535290D01*
X119146890Y-81535296D01*
X119107700Y-81795310D01*
X119107700Y-82058289D01*
X116062500Y-82058289D01*
X116062500Y-81212381D01*
X116082185Y-81145342D01*
X116098814Y-81124705D01*
X124812700Y-72410819D01*
X124874024Y-72377334D01*
X124900382Y-72374500D01*
X132808017Y-72374500D01*
X132875056Y-72394185D01*
X132895698Y-72410819D01*
X136620781Y-76135902D01*
X136654266Y-76197225D01*
X136657100Y-76223583D01*
X136657100Y-76357241D01*
X136637415Y-76424280D01*
X136620781Y-76444922D01*
X136619108Y-76446594D01*
X136488869Y-76632595D01*
X136434292Y-76676219D01*
X136364793Y-76683412D01*
X136302439Y-76651890D01*
X136285719Y-76632594D01*
X136155713Y-76446926D01*
X136155708Y-76446920D01*
X135988682Y-76279894D01*
X135795178Y-76144399D01*
X135581092Y-76044570D01*
X135581086Y-76044567D01*
X135367600Y-75987364D01*
X135367600Y-76882498D01*
X135259915Y-76833320D01*
X135153363Y-76818000D01*
X135081837Y-76818000D01*
X134975285Y-76833320D01*
X134867600Y-76882498D01*
X134867600Y-75987364D01*
X134867599Y-75987364D01*
X134654113Y-76044567D01*
X134654107Y-76044570D01*
X134440022Y-76144399D01*
X134440020Y-76144400D01*
X134246526Y-76279886D01*
X134246520Y-76279891D01*
X134079491Y-76446920D01*
X134079490Y-76446922D01*
X133949480Y-76632595D01*
X133894903Y-76676219D01*
X133825404Y-76683412D01*
X133763050Y-76651890D01*
X133746330Y-76632594D01*
X133616094Y-76446597D01*
X133449002Y-76279506D01*
X133448995Y-76279501D01*
X133255434Y-76143967D01*
X133255430Y-76143965D01*
X133238139Y-76135902D01*
X133041263Y-76044097D01*
X133041259Y-76044096D01*
X133041255Y-76044094D01*
X132813013Y-75982938D01*
X132813003Y-75982936D01*
X132577601Y-75962341D01*
X132577599Y-75962341D01*
X132342196Y-75982936D01*
X132342186Y-75982938D01*
X132113944Y-76044094D01*
X132113935Y-76044098D01*
X131899771Y-76143964D01*
X131899769Y-76143965D01*
X131706200Y-76279503D01*
X131584273Y-76401430D01*
X131522950Y-76434914D01*
X131453258Y-76429930D01*
X131397325Y-76388058D01*
X131380410Y-76357081D01*
X131331397Y-76225671D01*
X131331393Y-76225664D01*
X131245147Y-76110455D01*
X131245144Y-76110452D01*
X131129935Y-76024206D01*
X131129928Y-76024202D01*
X130995082Y-75973908D01*
X130995083Y-75973908D01*
X130935483Y-75967501D01*
X130935481Y-75967500D01*
X130935473Y-75967500D01*
X130935464Y-75967500D01*
X129139729Y-75967500D01*
X129139723Y-75967501D01*
X129080116Y-75973908D01*
X128945271Y-76024202D01*
X128945264Y-76024206D01*
X128830055Y-76110452D01*
X128830052Y-76110455D01*
X128743806Y-76225664D01*
X128743802Y-76225671D01*
X128693508Y-76360517D01*
X128687101Y-76420116D01*
X128687100Y-76420135D01*
X128687100Y-78215870D01*
X128687101Y-78215876D01*
X128693508Y-78275483D01*
X128743802Y-78410328D01*
X128743806Y-78410335D01*
X128830052Y-78525544D01*
X128830055Y-78525547D01*
X128945264Y-78611793D01*
X128945271Y-78611797D01*
X129080117Y-78662091D01*
X129080116Y-78662091D01*
X129087044Y-78662835D01*
X129139727Y-78668500D01*
X130935472Y-78668499D01*
X130995083Y-78662091D01*
X131129931Y-78611796D01*
X131245146Y-78525546D01*
X131331396Y-78410331D01*
X131380410Y-78278916D01*
X131422281Y-78222984D01*
X131487745Y-78198566D01*
X131556018Y-78213417D01*
X131584272Y-78234569D01*
X131706199Y-78356495D01*
X131802984Y-78424265D01*
X131899765Y-78492032D01*
X131899767Y-78492033D01*
X131899770Y-78492035D01*
X132113937Y-78591903D01*
X132342192Y-78653063D01*
X132518634Y-78668500D01*
X132577599Y-78673659D01*
X132577600Y-78673659D01*
X132577601Y-78673659D01*
X132636566Y-78668500D01*
X132813008Y-78653063D01*
X133041263Y-78591903D01*
X133255430Y-78492035D01*
X133449001Y-78356495D01*
X133616095Y-78189401D01*
X133746330Y-78003405D01*
X133800907Y-77959781D01*
X133870405Y-77952587D01*
X133932760Y-77984110D01*
X133949479Y-78003405D01*
X134079490Y-78189078D01*
X134246517Y-78356105D01*
X134440021Y-78491600D01*
X134654107Y-78591429D01*
X134654116Y-78591433D01*
X134867600Y-78648634D01*
X134867600Y-77753501D01*
X134975285Y-77802680D01*
X135081837Y-77818000D01*
X135153363Y-77818000D01*
X135259915Y-77802680D01*
X135367600Y-77753501D01*
X135367600Y-78648633D01*
X135581083Y-78591433D01*
X135581092Y-78591429D01*
X135795178Y-78491600D01*
X135988682Y-78356105D01*
X136155705Y-78189082D01*
X136285719Y-78003405D01*
X136340296Y-77959781D01*
X136409795Y-77952588D01*
X136472149Y-77984110D01*
X136488869Y-78003405D01*
X136619105Y-78189401D01*
X136786199Y-78356495D01*
X136882984Y-78424265D01*
X136979765Y-78492032D01*
X136979767Y-78492033D01*
X136979770Y-78492035D01*
X137193937Y-78591903D01*
X137422192Y-78653063D01*
X137598634Y-78668500D01*
X137657599Y-78673659D01*
X137657600Y-78673659D01*
X137657601Y-78673659D01*
X137716566Y-78668500D01*
X137893008Y-78653063D01*
X138121263Y-78591903D01*
X138335430Y-78492035D01*
X138529001Y-78356495D01*
X138696095Y-78189401D01*
X138826024Y-78003842D01*
X138880602Y-77960217D01*
X138950100Y-77953023D01*
X139012455Y-77984546D01*
X139029175Y-78003842D01*
X139158881Y-78189082D01*
X139159105Y-78189401D01*
X139326199Y-78356495D01*
X139422984Y-78424265D01*
X139519765Y-78492032D01*
X139519767Y-78492033D01*
X139519770Y-78492035D01*
X139733937Y-78591903D01*
X139962192Y-78653063D01*
X140138634Y-78668500D01*
X140197599Y-78673659D01*
X140197600Y-78673659D01*
X140197601Y-78673659D01*
X140256566Y-78668500D01*
X140433008Y-78653063D01*
X140661263Y-78591903D01*
X140875430Y-78492035D01*
X141069001Y-78356495D01*
X141236095Y-78189401D01*
X141366024Y-78003842D01*
X141420602Y-77960217D01*
X141490100Y-77953023D01*
X141552455Y-77984546D01*
X141569175Y-78003842D01*
X141698881Y-78189082D01*
X141699105Y-78189401D01*
X141866199Y-78356495D01*
X141962984Y-78424265D01*
X142059765Y-78492032D01*
X142059767Y-78492033D01*
X142059770Y-78492035D01*
X142273937Y-78591903D01*
X142502192Y-78653063D01*
X142678634Y-78668500D01*
X142737599Y-78673659D01*
X142737600Y-78673659D01*
X142737601Y-78673659D01*
X142796566Y-78668500D01*
X142973008Y-78653063D01*
X143201263Y-78591903D01*
X143415430Y-78492035D01*
X143609001Y-78356495D01*
X143776095Y-78189401D01*
X143906024Y-78003842D01*
X143960602Y-77960217D01*
X144030100Y-77953023D01*
X144092455Y-77984546D01*
X144109175Y-78003842D01*
X144238881Y-78189082D01*
X144239105Y-78189401D01*
X144406199Y-78356495D01*
X144502984Y-78424264D01*
X144599765Y-78492032D01*
X144599767Y-78492033D01*
X144599770Y-78492035D01*
X144813937Y-78591903D01*
X145042192Y-78653063D01*
X145218634Y-78668500D01*
X145277599Y-78673659D01*
X145277600Y-78673659D01*
X145277601Y-78673659D01*
X145336566Y-78668500D01*
X145513008Y-78653063D01*
X145741263Y-78591903D01*
X145955430Y-78492035D01*
X146149001Y-78356495D01*
X146316095Y-78189401D01*
X146446330Y-78003405D01*
X146500907Y-77959781D01*
X146570405Y-77952587D01*
X146632760Y-77984110D01*
X146649479Y-78003405D01*
X146779490Y-78189078D01*
X146946517Y-78356105D01*
X147140021Y-78491600D01*
X147354107Y-78591429D01*
X147354116Y-78591433D01*
X147567600Y-78648634D01*
X147567600Y-77753501D01*
X147675285Y-77802680D01*
X147781837Y-77818000D01*
X147853363Y-77818000D01*
X147959915Y-77802680D01*
X148067600Y-77753501D01*
X148067600Y-78648633D01*
X148281083Y-78591433D01*
X148281092Y-78591429D01*
X148495178Y-78491600D01*
X148688682Y-78356105D01*
X148855705Y-78189082D01*
X148991200Y-77995578D01*
X149091029Y-77781492D01*
X149091032Y-77781486D01*
X149148236Y-77568000D01*
X148251286Y-77568000D01*
X148277093Y-77527844D01*
X148317600Y-77389889D01*
X148317600Y-77246111D01*
X148277093Y-77108156D01*
X148251286Y-77068000D01*
X149148236Y-77068000D01*
X149166151Y-77044651D01*
X149131440Y-77001366D01*
X149126339Y-76986280D01*
X149091033Y-76854516D01*
X149091029Y-76854507D01*
X148991200Y-76640422D01*
X148991199Y-76640420D01*
X148855713Y-76446926D01*
X148855708Y-76446920D01*
X148688682Y-76279894D01*
X148495178Y-76144399D01*
X148281092Y-76044570D01*
X148281086Y-76044567D01*
X148067600Y-75987364D01*
X148067600Y-76882498D01*
X147959915Y-76833320D01*
X147853363Y-76818000D01*
X147781837Y-76818000D01*
X147675285Y-76833320D01*
X147567600Y-76882498D01*
X147567600Y-75987364D01*
X147567599Y-75987364D01*
X147354113Y-76044567D01*
X147354107Y-76044570D01*
X147140022Y-76144399D01*
X147140020Y-76144400D01*
X146946526Y-76279886D01*
X146946520Y-76279891D01*
X146779491Y-76446920D01*
X146779490Y-76446922D01*
X146649480Y-76632595D01*
X146594903Y-76676219D01*
X146525404Y-76683412D01*
X146463050Y-76651890D01*
X146446330Y-76632594D01*
X146316094Y-76446597D01*
X146149002Y-76279506D01*
X146148995Y-76279501D01*
X145955434Y-76143967D01*
X145955430Y-76143965D01*
X145938139Y-76135902D01*
X145741263Y-76044097D01*
X145741259Y-76044096D01*
X145741255Y-76044094D01*
X145513013Y-75982938D01*
X145513003Y-75982936D01*
X145277601Y-75962341D01*
X145277599Y-75962341D01*
X145042196Y-75982936D01*
X145042186Y-75982938D01*
X144813944Y-76044094D01*
X144813935Y-76044098D01*
X144599771Y-76143964D01*
X144599769Y-76143965D01*
X144406197Y-76279505D01*
X144239105Y-76446597D01*
X144109175Y-76632158D01*
X144054598Y-76675783D01*
X143985100Y-76682977D01*
X143922745Y-76651454D01*
X143906025Y-76632158D01*
X143776094Y-76446597D01*
X143609002Y-76279506D01*
X143608995Y-76279501D01*
X143415434Y-76143967D01*
X143415430Y-76143965D01*
X143398139Y-76135902D01*
X143201263Y-76044097D01*
X143201259Y-76044096D01*
X143201255Y-76044094D01*
X142973013Y-75982938D01*
X142973003Y-75982936D01*
X142737601Y-75962341D01*
X142737599Y-75962341D01*
X142502196Y-75982936D01*
X142502186Y-75982938D01*
X142273944Y-76044094D01*
X142273935Y-76044098D01*
X142059771Y-76143964D01*
X142059769Y-76143965D01*
X141866197Y-76279505D01*
X141699105Y-76446597D01*
X141569175Y-76632158D01*
X141514598Y-76675783D01*
X141445100Y-76682977D01*
X141382745Y-76651454D01*
X141366025Y-76632158D01*
X141236094Y-76446597D01*
X141234419Y-76444922D01*
X141233915Y-76444000D01*
X141232614Y-76442449D01*
X141232925Y-76442187D01*
X141200934Y-76383599D01*
X141198100Y-76357241D01*
X141198100Y-74882253D01*
X141198120Y-74880683D01*
X141200356Y-74792437D01*
X141189532Y-74732047D01*
X141188882Y-74727417D01*
X141182674Y-74666362D01*
X141172390Y-74633586D01*
X141170517Y-74625954D01*
X141164458Y-74592149D01*
X141164458Y-74592147D01*
X141141702Y-74535178D01*
X141140121Y-74530737D01*
X141121757Y-74472207D01*
X141105088Y-74442178D01*
X141101717Y-74435078D01*
X141088978Y-74403186D01*
X141088977Y-74403183D01*
X141055220Y-74351963D01*
X141052780Y-74347934D01*
X141041979Y-74328475D01*
X141023009Y-74294298D01*
X141023007Y-74294295D01*
X141000633Y-74268234D01*
X140995902Y-74261959D01*
X140977002Y-74233281D01*
X140933612Y-74189891D01*
X140930422Y-74186448D01*
X140890467Y-74139906D01*
X140890463Y-74139902D01*
X140863298Y-74118874D01*
X140857403Y-74113682D01*
X134676612Y-67932892D01*
X134675515Y-67931767D01*
X134614661Y-67867749D01*
X134614660Y-67867748D01*
X134614659Y-67867747D01*
X134586804Y-67848359D01*
X134564309Y-67832702D01*
X134560546Y-67829864D01*
X134513013Y-67791105D01*
X134513006Y-67791100D01*
X134482559Y-67775197D01*
X134475851Y-67771134D01*
X134447649Y-67751505D01*
X134447646Y-67751503D01*
X134447645Y-67751503D01*
X134447641Y-67751501D01*
X134391280Y-67727314D01*
X134387024Y-67725293D01*
X134332657Y-67696894D01*
X134332650Y-67696891D01*
X134332649Y-67696891D01*
X134326608Y-67695162D01*
X134299630Y-67687442D01*
X134292230Y-67684808D01*
X134260657Y-67671259D01*
X134260658Y-67671259D01*
X134200566Y-67658909D01*
X134195991Y-67657786D01*
X134137020Y-67640913D01*
X134137025Y-67640913D01*
X134102758Y-67638303D01*
X134094980Y-67637212D01*
X134061342Y-67630300D01*
X134061341Y-67630300D01*
X134000002Y-67630300D01*
X133995295Y-67630121D01*
X133989721Y-67629696D01*
X133934124Y-67625462D01*
X133914189Y-67628001D01*
X133900040Y-67629803D01*
X133892211Y-67630300D01*
X123635293Y-67630300D01*
X123633730Y-67630280D01*
X123545437Y-67628043D01*
X123545428Y-67628043D01*
X123485060Y-67638864D01*
X123480395Y-67639518D01*
X123419363Y-67645725D01*
X123419355Y-67645727D01*
X123386581Y-67656010D01*
X123378954Y-67657882D01*
X123345150Y-67663941D01*
X123288184Y-67686694D01*
X123283748Y-67688273D01*
X123225214Y-67706640D01*
X123225212Y-67706641D01*
X123195185Y-67723306D01*
X123188093Y-67726674D01*
X123156183Y-67739421D01*
X123104954Y-67773183D01*
X123100926Y-67775624D01*
X123047302Y-67805388D01*
X123047299Y-67805390D01*
X123021227Y-67827770D01*
X123014960Y-67832495D01*
X122986282Y-67851398D01*
X122986275Y-67851403D01*
X122942916Y-67894762D01*
X122939461Y-67897964D01*
X122892906Y-67937932D01*
X122892905Y-67937933D01*
X122871876Y-67965100D01*
X122866684Y-67970994D01*
X111900291Y-78937387D01*
X111899167Y-78938483D01*
X111835146Y-78999342D01*
X111800099Y-79049694D01*
X111797262Y-79053456D01*
X111758502Y-79100992D01*
X111758499Y-79100997D01*
X111742592Y-79131447D01*
X111738524Y-79138161D01*
X111718902Y-79166354D01*
X111694709Y-79222730D01*
X111692688Y-79226984D01*
X111664291Y-79281351D01*
X111664290Y-79281352D01*
X111654840Y-79314375D01*
X111652207Y-79321771D01*
X111638659Y-79353343D01*
X111626313Y-79413419D01*
X111625190Y-79417995D01*
X111608313Y-79476977D01*
X111608313Y-79476979D01*
X111605703Y-79511241D01*
X111604614Y-79519008D01*
X111599180Y-79545452D01*
X111597700Y-79552658D01*
X111597700Y-79613997D01*
X111597521Y-79618706D01*
X111592862Y-79679874D01*
X111594585Y-79693396D01*
X111597203Y-79713960D01*
X111597700Y-79721788D01*
X111597699Y-96689217D01*
X111578014Y-96756256D01*
X111561380Y-96776898D01*
X105251291Y-103086987D01*
X105250167Y-103088083D01*
X105186146Y-103148942D01*
X105151099Y-103199294D01*
X105148262Y-103203056D01*
X105109502Y-103250592D01*
X105109499Y-103250597D01*
X105093592Y-103281047D01*
X105089524Y-103287761D01*
X105069902Y-103315954D01*
X105045709Y-103372330D01*
X105043688Y-103376584D01*
X105015291Y-103430951D01*
X105015290Y-103430952D01*
X105005840Y-103463975D01*
X105003207Y-103471371D01*
X104989659Y-103502943D01*
X104977313Y-103563019D01*
X104976190Y-103567595D01*
X104959313Y-103626577D01*
X104959313Y-103626579D01*
X104956703Y-103660841D01*
X104955614Y-103668608D01*
X104950180Y-103695052D01*
X104948700Y-103702258D01*
X104948700Y-103763597D01*
X104948521Y-103768306D01*
X104943862Y-103829473D01*
X104948202Y-103863549D01*
X104948699Y-103871389D01*
X104948699Y-123474535D01*
X104939818Y-123520614D01*
X104924075Y-123559943D01*
X104924074Y-123559946D01*
X104905217Y-123657786D01*
X104884300Y-123766315D01*
X104884300Y-124473825D01*
X94537700Y-124473825D01*
X94537700Y-119140005D01*
X96279954Y-119140005D01*
X96298918Y-119441446D01*
X96298919Y-119441453D01*
X96355520Y-119738164D01*
X96448859Y-120025431D01*
X96448861Y-120025436D01*
X96577465Y-120298732D01*
X96577468Y-120298738D01*
X96739311Y-120553763D01*
X96931852Y-120786505D01*
X97152036Y-120993272D01*
X97152046Y-120993280D01*
X97396393Y-121170808D01*
X97396398Y-121170810D01*
X97396405Y-121170816D01*
X97661096Y-121316332D01*
X97661101Y-121316334D01*
X97661103Y-121316335D01*
X97661104Y-121316336D01*
X97941934Y-121427524D01*
X97941937Y-121427525D01*
X98039459Y-121452564D01*
X98234502Y-121502642D01*
X98381239Y-121521179D01*
X98534163Y-121540499D01*
X98534169Y-121540499D01*
X98534173Y-121540500D01*
X98534175Y-121540500D01*
X98836225Y-121540500D01*
X98836227Y-121540500D01*
X98836232Y-121540499D01*
X98836236Y-121540499D01*
X98915791Y-121530448D01*
X99135898Y-121502642D01*
X99428462Y-121427525D01*
X99428465Y-121427524D01*
X99709295Y-121316336D01*
X99709296Y-121316335D01*
X99709294Y-121316335D01*
X99709304Y-121316332D01*
X99973995Y-121170816D01*
X100218362Y-120993274D01*
X100438549Y-120786504D01*
X100631085Y-120553768D01*
X100792933Y-120298736D01*
X100921541Y-120025430D01*
X101014881Y-119738160D01*
X101071480Y-119441457D01*
X101085111Y-119224800D01*
X101090446Y-119140005D01*
X101090446Y-119139994D01*
X101071481Y-118838553D01*
X101071480Y-118838546D01*
X101071480Y-118838543D01*
X101014881Y-118541840D01*
X100921541Y-118254570D01*
X100792933Y-117981264D01*
X100631085Y-117726232D01*
X100438549Y-117493496D01*
X100218362Y-117286726D01*
X100218359Y-117286724D01*
X100218353Y-117286719D01*
X99974006Y-117109191D01*
X99973999Y-117109186D01*
X99973995Y-117109184D01*
X99709304Y-116963668D01*
X99709301Y-116963666D01*
X99709296Y-116963664D01*
X99709295Y-116963663D01*
X99428465Y-116852475D01*
X99428462Y-116852474D01*
X99135895Y-116777357D01*
X98836236Y-116739500D01*
X98836227Y-116739500D01*
X98534173Y-116739500D01*
X98534163Y-116739500D01*
X98234504Y-116777357D01*
X97941937Y-116852474D01*
X97941934Y-116852475D01*
X97661104Y-116963663D01*
X97661103Y-116963664D01*
X97396405Y-117109184D01*
X97396393Y-117109191D01*
X97152046Y-117286719D01*
X97152036Y-117286727D01*
X96931852Y-117493494D01*
X96739311Y-117726236D01*
X96577468Y-117981261D01*
X96577465Y-117981267D01*
X96448861Y-118254563D01*
X96448859Y-118254568D01*
X96355520Y-118541835D01*
X96298919Y-118838546D01*
X96298918Y-118838553D01*
X96279954Y-119139994D01*
X96279954Y-119140005D01*
X94537700Y-119140005D01*
X94537700Y-100902805D01*
X96254554Y-100902805D01*
X96273518Y-101204246D01*
X96273519Y-101204253D01*
X96330120Y-101500964D01*
X96423459Y-101788231D01*
X96423461Y-101788236D01*
X96552065Y-102061532D01*
X96552068Y-102061538D01*
X96713911Y-102316563D01*
X96713914Y-102316567D01*
X96713915Y-102316568D01*
X96906451Y-102549304D01*
X97093117Y-102724596D01*
X97126636Y-102756072D01*
X97126646Y-102756080D01*
X97370993Y-102933608D01*
X97370998Y-102933610D01*
X97371005Y-102933616D01*
X97635696Y-103079132D01*
X97635701Y-103079134D01*
X97635703Y-103079135D01*
X97635704Y-103079136D01*
X97916534Y-103190324D01*
X97916537Y-103190325D01*
X97966122Y-103203056D01*
X98209102Y-103265442D01*
X98332626Y-103281047D01*
X98508763Y-103303299D01*
X98508769Y-103303299D01*
X98508773Y-103303300D01*
X98508775Y-103303300D01*
X98810825Y-103303300D01*
X98810827Y-103303300D01*
X98810832Y-103303299D01*
X98810836Y-103303299D01*
X98933828Y-103287761D01*
X99110498Y-103265442D01*
X99403062Y-103190325D01*
X99403065Y-103190324D01*
X99683895Y-103079136D01*
X99683896Y-103079135D01*
X99683894Y-103079135D01*
X99683904Y-103079132D01*
X99948595Y-102933616D01*
X100192962Y-102756074D01*
X100413149Y-102549304D01*
X100605685Y-102316568D01*
X100767533Y-102061536D01*
X100896141Y-101788230D01*
X100989481Y-101500960D01*
X101046080Y-101204257D01*
X101053497Y-101086364D01*
X101065046Y-100902805D01*
X101065046Y-100902794D01*
X101046081Y-100601353D01*
X101046080Y-100601346D01*
X101046080Y-100601343D01*
X100989481Y-100304640D01*
X100896141Y-100017370D01*
X100767533Y-99744064D01*
X100605685Y-99489032D01*
X100413149Y-99256296D01*
X100192962Y-99049526D01*
X100192959Y-99049524D01*
X100192953Y-99049519D01*
X99948606Y-98871991D01*
X99948599Y-98871986D01*
X99948595Y-98871984D01*
X99683904Y-98726468D01*
X99683901Y-98726466D01*
X99683896Y-98726464D01*
X99683895Y-98726463D01*
X99403065Y-98615275D01*
X99403062Y-98615274D01*
X99110495Y-98540157D01*
X98810836Y-98502300D01*
X98810827Y-98502300D01*
X98508773Y-98502300D01*
X98508763Y-98502300D01*
X98209104Y-98540157D01*
X97916537Y-98615274D01*
X97916534Y-98615275D01*
X97635704Y-98726463D01*
X97635703Y-98726464D01*
X97371005Y-98871984D01*
X97370993Y-98871991D01*
X97126646Y-99049519D01*
X97126636Y-99049527D01*
X96906452Y-99256294D01*
X96713911Y-99489036D01*
X96552068Y-99744061D01*
X96552065Y-99744067D01*
X96423461Y-100017363D01*
X96423459Y-100017368D01*
X96330120Y-100304635D01*
X96273519Y-100601346D01*
X96273518Y-100601353D01*
X96254554Y-100902794D01*
X96254554Y-100902805D01*
X94537700Y-100902805D01*
X94537700Y-97197412D01*
X94537755Y-97194796D01*
X94554683Y-96794007D01*
X94555122Y-96788806D01*
X94556753Y-96775999D01*
X106170176Y-96775999D01*
X106170178Y-96776000D01*
X107611483Y-96776000D01*
X107575829Y-96814731D01*
X107524752Y-96931177D01*
X107514251Y-97057898D01*
X107545466Y-97181162D01*
X107607427Y-97276000D01*
X106170177Y-97276000D01*
X106190116Y-97395492D01*
X106270830Y-97630603D01*
X106270835Y-97630614D01*
X106389142Y-97849228D01*
X106389148Y-97849237D01*
X106541826Y-98045397D01*
X106541835Y-98045407D01*
X106724722Y-98213767D01*
X106724721Y-98213767D01*
X106932832Y-98349732D01*
X107160482Y-98449587D01*
X107401461Y-98510612D01*
X107401469Y-98510614D01*
X107587145Y-98525999D01*
X107587161Y-98526000D01*
X107649200Y-98526000D01*
X107649200Y-97314220D01*
X107715357Y-97365713D01*
X107835622Y-97407000D01*
X107930769Y-97407000D01*
X108024621Y-97391339D01*
X108136451Y-97330820D01*
X108149200Y-97316970D01*
X108149200Y-98526000D01*
X108211239Y-98526000D01*
X108211254Y-98525999D01*
X108396930Y-98510614D01*
X108396938Y-98510612D01*
X108637917Y-98449587D01*
X108865567Y-98349732D01*
X109073678Y-98213767D01*
X109256564Y-98045407D01*
X109256573Y-98045397D01*
X109409251Y-97849237D01*
X109409257Y-97849228D01*
X109527564Y-97630614D01*
X109527569Y-97630603D01*
X109608283Y-97395492D01*
X109628223Y-97276000D01*
X108186917Y-97276000D01*
X108222571Y-97237269D01*
X108273648Y-97120823D01*
X108284149Y-96994102D01*
X108252934Y-96870838D01*
X108190973Y-96776000D01*
X109628222Y-96776000D01*
X109628223Y-96775999D01*
X109608283Y-96656507D01*
X109527569Y-96421396D01*
X109527564Y-96421385D01*
X109409257Y-96202771D01*
X109409251Y-96202762D01*
X109256573Y-96006602D01*
X109256564Y-96006592D01*
X109073677Y-95838232D01*
X109073678Y-95838232D01*
X108865567Y-95702267D01*
X108637917Y-95602412D01*
X108396938Y-95541387D01*
X108396930Y-95541385D01*
X108211254Y-95526000D01*
X108149200Y-95526000D01*
X108149200Y-96737779D01*
X108083043Y-96686287D01*
X107962778Y-96645000D01*
X107867631Y-96645000D01*
X107773779Y-96660661D01*
X107661949Y-96721180D01*
X107649200Y-96735029D01*
X107649200Y-95526000D01*
X107587145Y-95526000D01*
X107401469Y-95541385D01*
X107401461Y-95541387D01*
X107160482Y-95602412D01*
X106932832Y-95702267D01*
X106724721Y-95838232D01*
X106541835Y-96006592D01*
X106541826Y-96006602D01*
X106389148Y-96202762D01*
X106389142Y-96202771D01*
X106270835Y-96421385D01*
X106270830Y-96421396D01*
X106190116Y-96656507D01*
X106170176Y-96775999D01*
X94556753Y-96775999D01*
X94605622Y-96392154D01*
X94606497Y-96387026D01*
X94606501Y-96387011D01*
X94690260Y-95996057D01*
X94691559Y-95991035D01*
X94807998Y-95608494D01*
X94809718Y-95603597D01*
X94957999Y-95232235D01*
X94960131Y-95227491D01*
X94969747Y-95208292D01*
X95139182Y-94869987D01*
X95141717Y-94865419D01*
X95141720Y-94865415D01*
X95256301Y-94677999D01*
X95350271Y-94524295D01*
X95353178Y-94519960D01*
X95589774Y-94197607D01*
X95593003Y-94193575D01*
X95856895Y-93891222D01*
X95858635Y-93889313D01*
X95894507Y-93851555D01*
X95894510Y-93851549D01*
X96458914Y-93257463D01*
X97633133Y-91965392D01*
X98778460Y-90647643D01*
X99894335Y-89304862D01*
X100922525Y-88010335D01*
X106148700Y-88010335D01*
X106153776Y-88040753D01*
X106189629Y-88255616D01*
X106270369Y-88490802D01*
X106270372Y-88490811D01*
X106388724Y-88709506D01*
X106388726Y-88709509D01*
X106541462Y-88905744D01*
X106672998Y-89026831D01*
X106724417Y-89074166D01*
X106932593Y-89210173D01*
X107160318Y-89310063D01*
X107355370Y-89359457D01*
X107401379Y-89371108D01*
X107401381Y-89371108D01*
X107401386Y-89371109D01*
X107554789Y-89383819D01*
X107587133Y-89386500D01*
X107587137Y-89386500D01*
X108211263Y-89386500D01*
X108211267Y-89386500D01*
X108273877Y-89381311D01*
X108397013Y-89371109D01*
X108397016Y-89371108D01*
X108397021Y-89371108D01*
X108638081Y-89310063D01*
X108865807Y-89210173D01*
X109073985Y-89074164D01*
X109256938Y-88905744D01*
X109409674Y-88709509D01*
X109528028Y-88490810D01*
X109608771Y-88255614D01*
X109649700Y-88010335D01*
X109649700Y-87761665D01*
X109608771Y-87516386D01*
X109528028Y-87281190D01*
X109409674Y-87062491D01*
X109256938Y-86866256D01*
X109076466Y-86700120D01*
X109073982Y-86697833D01*
X108865806Y-86561826D01*
X108638081Y-86461936D01*
X108397024Y-86400892D01*
X108397013Y-86400890D01*
X108211277Y-86385500D01*
X108211267Y-86385500D01*
X107587133Y-86385500D01*
X107587122Y-86385500D01*
X107401386Y-86400890D01*
X107401375Y-86400892D01*
X107160318Y-86461936D01*
X106932593Y-86561826D01*
X106724417Y-86697833D01*
X106541461Y-86866257D01*
X106388724Y-87062493D01*
X106270372Y-87281188D01*
X106270369Y-87281197D01*
X106189629Y-87516383D01*
X106162425Y-87679411D01*
X106148700Y-87761665D01*
X106148700Y-88010335D01*
X100922525Y-88010335D01*
X100980210Y-87937707D01*
X102035553Y-86546848D01*
X103059847Y-85132967D01*
X104052589Y-83696757D01*
X105013294Y-82238921D01*
X105941490Y-80760175D01*
X106836722Y-79261243D01*
X107698551Y-77742860D01*
X108526556Y-76205770D01*
X109320330Y-74650726D01*
X110079484Y-73078491D01*
X110803646Y-71489836D01*
X111492461Y-69885538D01*
X112145592Y-68266385D01*
X112258260Y-67968212D01*
X112762721Y-66633161D01*
X113343530Y-64986713D01*
X113656656Y-64032231D01*
X113887764Y-63327760D01*
X114388062Y-61680470D01*
X128712500Y-61680470D01*
X128712501Y-61680476D01*
X128718908Y-61740083D01*
X128769202Y-61874928D01*
X128769206Y-61874935D01*
X128855452Y-61990144D01*
X128855455Y-61990147D01*
X128970664Y-62076393D01*
X128970671Y-62076397D01*
X129105517Y-62126691D01*
X129105516Y-62126691D01*
X129112444Y-62127435D01*
X129165127Y-62133100D01*
X130960872Y-62133099D01*
X131020483Y-62126691D01*
X131155331Y-62076396D01*
X131270546Y-61990146D01*
X131356796Y-61874931D01*
X131405810Y-61743516D01*
X131447681Y-61687584D01*
X131513145Y-61663166D01*
X131581418Y-61678017D01*
X131609672Y-61699168D01*
X131731599Y-61821095D01*
X131828384Y-61888865D01*
X131925165Y-61956632D01*
X131925167Y-61956633D01*
X131925170Y-61956635D01*
X132139337Y-62056503D01*
X132367592Y-62117663D01*
X132544034Y-62133100D01*
X132602999Y-62138259D01*
X132603000Y-62138259D01*
X132603001Y-62138259D01*
X132661966Y-62133100D01*
X132838408Y-62117663D01*
X133066663Y-62056503D01*
X133280830Y-61956635D01*
X133474401Y-61821095D01*
X133641495Y-61654001D01*
X133771424Y-61468442D01*
X133826002Y-61424817D01*
X133895500Y-61417623D01*
X133957855Y-61449146D01*
X133974575Y-61468442D01*
X134104281Y-61653682D01*
X134104505Y-61654001D01*
X134271599Y-61821095D01*
X134368384Y-61888865D01*
X134465165Y-61956632D01*
X134465167Y-61956633D01*
X134465170Y-61956635D01*
X134679337Y-62056503D01*
X134907592Y-62117663D01*
X135084034Y-62133100D01*
X135142999Y-62138259D01*
X135143000Y-62138259D01*
X135143001Y-62138259D01*
X135201966Y-62133100D01*
X135378408Y-62117663D01*
X135606663Y-62056503D01*
X135820830Y-61956635D01*
X136014401Y-61821095D01*
X136181495Y-61654001D01*
X136311424Y-61468442D01*
X136366002Y-61424817D01*
X136435500Y-61417623D01*
X136497855Y-61449146D01*
X136514575Y-61468442D01*
X136644281Y-61653682D01*
X136644505Y-61654001D01*
X136811599Y-61821095D01*
X136908384Y-61888865D01*
X137005165Y-61956632D01*
X137005167Y-61956633D01*
X137005170Y-61956635D01*
X137219337Y-62056503D01*
X137447592Y-62117663D01*
X137624034Y-62133100D01*
X137682999Y-62138259D01*
X137683000Y-62138259D01*
X137683001Y-62138259D01*
X137741966Y-62133100D01*
X137918408Y-62117663D01*
X138146663Y-62056503D01*
X138360830Y-61956635D01*
X138554401Y-61821095D01*
X138721495Y-61654001D01*
X138851424Y-61468442D01*
X138906002Y-61424817D01*
X138975500Y-61417623D01*
X139037855Y-61449146D01*
X139054575Y-61468442D01*
X139184281Y-61653682D01*
X139184505Y-61654001D01*
X139351599Y-61821095D01*
X139448384Y-61888865D01*
X139545165Y-61956632D01*
X139545167Y-61956633D01*
X139545170Y-61956635D01*
X139759337Y-62056503D01*
X139987592Y-62117663D01*
X140164034Y-62133100D01*
X140222999Y-62138259D01*
X140223000Y-62138259D01*
X140223001Y-62138259D01*
X140281966Y-62133100D01*
X140458408Y-62117663D01*
X140686663Y-62056503D01*
X140900830Y-61956635D01*
X141094401Y-61821095D01*
X141261495Y-61654001D01*
X141391424Y-61468442D01*
X141446002Y-61424817D01*
X141515500Y-61417623D01*
X141577855Y-61449146D01*
X141594575Y-61468442D01*
X141724281Y-61653682D01*
X141724505Y-61654001D01*
X141891599Y-61821095D01*
X141988384Y-61888865D01*
X142085165Y-61956632D01*
X142085167Y-61956633D01*
X142085170Y-61956635D01*
X142299337Y-62056503D01*
X142527592Y-62117663D01*
X142704034Y-62133100D01*
X142762999Y-62138259D01*
X142763000Y-62138259D01*
X142763001Y-62138259D01*
X142821966Y-62133100D01*
X142998408Y-62117663D01*
X143226663Y-62056503D01*
X143440830Y-61956635D01*
X143634401Y-61821095D01*
X143801495Y-61654001D01*
X143931424Y-61468442D01*
X143986002Y-61424817D01*
X144055500Y-61417623D01*
X144117855Y-61449146D01*
X144134575Y-61468442D01*
X144264281Y-61653682D01*
X144264505Y-61654001D01*
X144431599Y-61821095D01*
X144528384Y-61888865D01*
X144625165Y-61956632D01*
X144625167Y-61956633D01*
X144625170Y-61956635D01*
X144839337Y-62056503D01*
X145067592Y-62117663D01*
X145244034Y-62133100D01*
X145302999Y-62138259D01*
X145303000Y-62138259D01*
X145303001Y-62138259D01*
X145361966Y-62133100D01*
X145538408Y-62117663D01*
X145766663Y-62056503D01*
X145980830Y-61956635D01*
X146174401Y-61821095D01*
X146341495Y-61654001D01*
X146471730Y-61468005D01*
X146526307Y-61424381D01*
X146595805Y-61417187D01*
X146658160Y-61448710D01*
X146674879Y-61468005D01*
X146804890Y-61653678D01*
X146971917Y-61820705D01*
X147165421Y-61956200D01*
X147379507Y-62056029D01*
X147379516Y-62056033D01*
X147593000Y-62113234D01*
X147593000Y-61218101D01*
X147700685Y-61267280D01*
X147807237Y-61282600D01*
X147878763Y-61282600D01*
X147985315Y-61267280D01*
X148093000Y-61218101D01*
X148093000Y-62113233D01*
X148306483Y-62056033D01*
X148306492Y-62056029D01*
X148520578Y-61956200D01*
X148714082Y-61820705D01*
X148881105Y-61653682D01*
X149016600Y-61460178D01*
X149116429Y-61246092D01*
X149116432Y-61246086D01*
X149173636Y-61032600D01*
X148276686Y-61032600D01*
X148302493Y-60992444D01*
X148343000Y-60854489D01*
X148343000Y-60710711D01*
X148302493Y-60572756D01*
X148276686Y-60532600D01*
X149173636Y-60532600D01*
X149173635Y-60532599D01*
X149116432Y-60319113D01*
X149116429Y-60319107D01*
X149016600Y-60105022D01*
X149016599Y-60105020D01*
X148881113Y-59911526D01*
X148881108Y-59911520D01*
X148714082Y-59744494D01*
X148520578Y-59608999D01*
X148306492Y-59509170D01*
X148306486Y-59509167D01*
X148093000Y-59451964D01*
X148093000Y-60347098D01*
X147985315Y-60297920D01*
X147878763Y-60282600D01*
X147807237Y-60282600D01*
X147700685Y-60297920D01*
X147593000Y-60347098D01*
X147593000Y-59451964D01*
X147592999Y-59451964D01*
X147379513Y-59509167D01*
X147379507Y-59509170D01*
X147165422Y-59608999D01*
X147165420Y-59609000D01*
X146971926Y-59744486D01*
X146971920Y-59744491D01*
X146804891Y-59911520D01*
X146804890Y-59911522D01*
X146674880Y-60097195D01*
X146620303Y-60140819D01*
X146550804Y-60148012D01*
X146488450Y-60116490D01*
X146471730Y-60097194D01*
X146341494Y-59911197D01*
X146174402Y-59744106D01*
X146174395Y-59744101D01*
X145980834Y-59608567D01*
X145980830Y-59608565D01*
X145980828Y-59608564D01*
X145766663Y-59508697D01*
X145766659Y-59508696D01*
X145766655Y-59508694D01*
X145538413Y-59447538D01*
X145538403Y-59447536D01*
X145303001Y-59426941D01*
X145302999Y-59426941D01*
X145067596Y-59447536D01*
X145067586Y-59447538D01*
X144839344Y-59508694D01*
X144839335Y-59508698D01*
X144625171Y-59608564D01*
X144625169Y-59608565D01*
X144431597Y-59744105D01*
X144264505Y-59911197D01*
X144134575Y-60096758D01*
X144079998Y-60140383D01*
X144010500Y-60147577D01*
X143948145Y-60116054D01*
X143931425Y-60096758D01*
X143801494Y-59911197D01*
X143634402Y-59744106D01*
X143634395Y-59744101D01*
X143440834Y-59608567D01*
X143440830Y-59608565D01*
X143440828Y-59608564D01*
X143226663Y-59508697D01*
X143226659Y-59508696D01*
X143226655Y-59508694D01*
X142998413Y-59447538D01*
X142998403Y-59447536D01*
X142763001Y-59426941D01*
X142762999Y-59426941D01*
X142527596Y-59447536D01*
X142527586Y-59447538D01*
X142299344Y-59508694D01*
X142299335Y-59508698D01*
X142085171Y-59608564D01*
X142085169Y-59608565D01*
X141891597Y-59744105D01*
X141724505Y-59911197D01*
X141594575Y-60096758D01*
X141539998Y-60140383D01*
X141470500Y-60147577D01*
X141408145Y-60116054D01*
X141391425Y-60096758D01*
X141261494Y-59911197D01*
X141094402Y-59744106D01*
X141094395Y-59744101D01*
X140900834Y-59608567D01*
X140900830Y-59608565D01*
X140900829Y-59608564D01*
X140686663Y-59508697D01*
X140686659Y-59508696D01*
X140686655Y-59508694D01*
X140458413Y-59447538D01*
X140458403Y-59447536D01*
X140223001Y-59426941D01*
X140222999Y-59426941D01*
X139987596Y-59447536D01*
X139987586Y-59447538D01*
X139759344Y-59508694D01*
X139759335Y-59508698D01*
X139545171Y-59608564D01*
X139545169Y-59608565D01*
X139351597Y-59744105D01*
X139184505Y-59911197D01*
X139054575Y-60096758D01*
X138999998Y-60140383D01*
X138930500Y-60147577D01*
X138868145Y-60116054D01*
X138851425Y-60096758D01*
X138721494Y-59911197D01*
X138554402Y-59744106D01*
X138554395Y-59744101D01*
X138360834Y-59608567D01*
X138360830Y-59608565D01*
X138360829Y-59608564D01*
X138146663Y-59508697D01*
X138146659Y-59508696D01*
X138146655Y-59508694D01*
X137918413Y-59447538D01*
X137918403Y-59447536D01*
X137683001Y-59426941D01*
X137682999Y-59426941D01*
X137447596Y-59447536D01*
X137447586Y-59447538D01*
X137219344Y-59508694D01*
X137219335Y-59508698D01*
X137005171Y-59608564D01*
X137005169Y-59608565D01*
X136811597Y-59744105D01*
X136644508Y-59911194D01*
X136514574Y-60096760D01*
X136459997Y-60140384D01*
X136390498Y-60147577D01*
X136328144Y-60116055D01*
X136311429Y-60096764D01*
X136181495Y-59911199D01*
X136181493Y-59911196D01*
X136014402Y-59744106D01*
X136014395Y-59744101D01*
X135820834Y-59608567D01*
X135820830Y-59608565D01*
X135820829Y-59608564D01*
X135606663Y-59508697D01*
X135606659Y-59508696D01*
X135606655Y-59508694D01*
X135378413Y-59447538D01*
X135378403Y-59447536D01*
X135143001Y-59426941D01*
X135142999Y-59426941D01*
X134907596Y-59447536D01*
X134907586Y-59447538D01*
X134679344Y-59508694D01*
X134679335Y-59508698D01*
X134465171Y-59608564D01*
X134465169Y-59608565D01*
X134271597Y-59744105D01*
X134104505Y-59911197D01*
X133974575Y-60096758D01*
X133919998Y-60140383D01*
X133850500Y-60147577D01*
X133788145Y-60116054D01*
X133771425Y-60096758D01*
X133641494Y-59911197D01*
X133474402Y-59744106D01*
X133474395Y-59744101D01*
X133280834Y-59608567D01*
X133280830Y-59608565D01*
X133280828Y-59608564D01*
X133066663Y-59508697D01*
X133066659Y-59508696D01*
X133066655Y-59508694D01*
X132838413Y-59447538D01*
X132838403Y-59447536D01*
X132603001Y-59426941D01*
X132602999Y-59426941D01*
X132367596Y-59447536D01*
X132367586Y-59447538D01*
X132139344Y-59508694D01*
X132139335Y-59508698D01*
X131925171Y-59608564D01*
X131925169Y-59608565D01*
X131731600Y-59744103D01*
X131609673Y-59866030D01*
X131548350Y-59899514D01*
X131478658Y-59894530D01*
X131422725Y-59852658D01*
X131405810Y-59821681D01*
X131356797Y-59690271D01*
X131356793Y-59690264D01*
X131270547Y-59575055D01*
X131270544Y-59575052D01*
X131155335Y-59488806D01*
X131155328Y-59488802D01*
X131020482Y-59438508D01*
X131020483Y-59438508D01*
X130960883Y-59432101D01*
X130960881Y-59432100D01*
X130960873Y-59432100D01*
X130960864Y-59432100D01*
X129165129Y-59432100D01*
X129165123Y-59432101D01*
X129105516Y-59438508D01*
X128970671Y-59488802D01*
X128970664Y-59488806D01*
X128855455Y-59575052D01*
X128855452Y-59575055D01*
X128769206Y-59690264D01*
X128769202Y-59690271D01*
X128718908Y-59825117D01*
X128712501Y-59884716D01*
X128712500Y-59884735D01*
X128712500Y-61680470D01*
X114388062Y-61680470D01*
X114395133Y-61657187D01*
X114865394Y-59975791D01*
X115071309Y-59171300D01*
X115298300Y-58284471D01*
X115298309Y-58284430D01*
X115298318Y-58284397D01*
X115469460Y-57548289D01*
X119107700Y-57548289D01*
X119146890Y-57808303D01*
X119146892Y-57808309D01*
X119224402Y-58059588D01*
X119338495Y-58296505D01*
X119338497Y-58296507D01*
X119338498Y-58296510D01*
X119486630Y-58513780D01*
X119665490Y-58706546D01*
X119871083Y-58870501D01*
X120098816Y-59001983D01*
X120343602Y-59098054D01*
X120599972Y-59156569D01*
X120599978Y-59156569D01*
X120599981Y-59156570D01*
X120796524Y-59171299D01*
X120796543Y-59171299D01*
X120796546Y-59171300D01*
X120796548Y-59171300D01*
X120927852Y-59171300D01*
X120927854Y-59171300D01*
X120927856Y-59171299D01*
X120927875Y-59171299D01*
X121124418Y-59156570D01*
X121124420Y-59156569D01*
X121124428Y-59156569D01*
X121380798Y-59098054D01*
X121625584Y-59001983D01*
X121853317Y-58870501D01*
X122058910Y-58706546D01*
X122237770Y-58513780D01*
X122385902Y-58296510D01*
X122499998Y-58059588D01*
X122577508Y-57808308D01*
X122616700Y-57548282D01*
X122616700Y-57285318D01*
X122616699Y-57285310D01*
X122577509Y-57025296D01*
X122577507Y-57025290D01*
X122499998Y-56774012D01*
X122385902Y-56537090D01*
X122237770Y-56319820D01*
X122058910Y-56127054D01*
X121853317Y-55963099D01*
X121625584Y-55831617D01*
X121380798Y-55735546D01*
X121380793Y-55735544D01*
X121380784Y-55735542D01*
X121162701Y-55685766D01*
X121124428Y-55677031D01*
X121124427Y-55677030D01*
X121124423Y-55677030D01*
X121124418Y-55677029D01*
X120927875Y-55662300D01*
X120927854Y-55662300D01*
X120796546Y-55662300D01*
X120796524Y-55662300D01*
X120599981Y-55677029D01*
X120599976Y-55677030D01*
X120343615Y-55735542D01*
X120343596Y-55735548D01*
X120098815Y-55831617D01*
X119871083Y-55963099D01*
X119665490Y-56127054D01*
X119665488Y-56127056D01*
X119486630Y-56319819D01*
X119338495Y-56537094D01*
X119224402Y-56774011D01*
X119146892Y-57025290D01*
X119146890Y-57025296D01*
X119107700Y-57285310D01*
X119107700Y-57548289D01*
X115469460Y-57548289D01*
X115693692Y-56583833D01*
X116051322Y-54874934D01*
X116371033Y-53158535D01*
X116652669Y-51435480D01*
X116896090Y-49706613D01*
X117101179Y-47972780D01*
X117229519Y-46634400D01*
X117979652Y-46634400D01*
X117992691Y-46874900D01*
X117999028Y-46991768D01*
X117999029Y-46991785D01*
X118056926Y-47344939D01*
X118056932Y-47344965D01*
X118152672Y-47689792D01*
X118152674Y-47689799D01*
X118285142Y-48022270D01*
X118285151Y-48022288D01*
X118452784Y-48338477D01*
X118452787Y-48338482D01*
X118452789Y-48338485D01*
X118571165Y-48513077D01*
X118653634Y-48634709D01*
X118653641Y-48634719D01*
X118873422Y-48893465D01*
X118885332Y-48907486D01*
X119145163Y-49153611D01*
X119430081Y-49370200D01*
X119736747Y-49554715D01*
X119736749Y-49554716D01*
X119736751Y-49554717D01*
X119736755Y-49554719D01*
X120061552Y-49704985D01*
X120061565Y-49704991D01*
X120400726Y-49819268D01*
X120631894Y-49870152D01*
X120693135Y-49903788D01*
X120726469Y-49965193D01*
X120721313Y-50034872D01*
X120679304Y-50090703D01*
X120659039Y-50102973D01*
X120484574Y-50186990D01*
X120484572Y-50186991D01*
X120273982Y-50330568D01*
X120087152Y-50503921D01*
X120087150Y-50503923D01*
X119928241Y-50703188D01*
X119800808Y-50923909D01*
X119707692Y-51161162D01*
X119707690Y-51161169D01*
X119650977Y-51409645D01*
X119631932Y-51663795D01*
X119631932Y-51663804D01*
X119650977Y-51917954D01*
X119650978Y-51917957D01*
X119707692Y-52166437D01*
X119800807Y-52403688D01*
X119928241Y-52624412D01*
X120087150Y-52823677D01*
X120273983Y-52997032D01*
X120484566Y-53140605D01*
X120484571Y-53140607D01*
X120484572Y-53140608D01*
X120484573Y-53140609D01*
X120606528Y-53199338D01*
X120714192Y-53251187D01*
X120714193Y-53251187D01*
X120714196Y-53251189D01*
X120957742Y-53326313D01*
X121209765Y-53364300D01*
X121464635Y-53364300D01*
X121716658Y-53326313D01*
X121960204Y-53251189D01*
X122189834Y-53140605D01*
X122400417Y-52997032D01*
X122587250Y-52823677D01*
X122746159Y-52624412D01*
X122873593Y-52403688D01*
X122966708Y-52166437D01*
X123023422Y-51917957D01*
X123042468Y-51663800D01*
X123023422Y-51409643D01*
X122966708Y-51161163D01*
X122873593Y-50923912D01*
X122746159Y-50703188D01*
X122587250Y-50503923D01*
X122400417Y-50330568D01*
X122189834Y-50186995D01*
X122189831Y-50186994D01*
X122189829Y-50186992D01*
X121982610Y-50087201D01*
X121930751Y-50040379D01*
X121912438Y-49972951D01*
X121933486Y-49906328D01*
X121987212Y-49861659D01*
X122009750Y-49854381D01*
X122169274Y-49819268D01*
X122508435Y-49704991D01*
X122833253Y-49554715D01*
X123139919Y-49370200D01*
X123424837Y-49153611D01*
X123684668Y-48907486D01*
X123916365Y-48634711D01*
X124117211Y-48338485D01*
X124284853Y-48022280D01*
X124417324Y-47689803D01*
X124513071Y-47344952D01*
X124540765Y-47176025D01*
X124570970Y-46991785D01*
X124570970Y-46991782D01*
X124570972Y-46991771D01*
X124590348Y-46634400D01*
X124589779Y-46623914D01*
X124580654Y-46455612D01*
X124570972Y-46277029D01*
X124570387Y-46273462D01*
X124513073Y-45923860D01*
X124513072Y-45923859D01*
X124513071Y-45923848D01*
X124431429Y-45629800D01*
X124417327Y-45579007D01*
X124417325Y-45579000D01*
X124284857Y-45246529D01*
X124284848Y-45246511D01*
X124275682Y-45229223D01*
X124153093Y-44997995D01*
X124117215Y-44930322D01*
X124117213Y-44930319D01*
X124117211Y-44930315D01*
X123916365Y-44634089D01*
X123916361Y-44634084D01*
X123916358Y-44634080D01*
X123684668Y-44361314D01*
X123635100Y-44314361D01*
X123424837Y-44115189D01*
X123424830Y-44115183D01*
X123424827Y-44115181D01*
X123357245Y-44063807D01*
X123139919Y-43898600D01*
X122833253Y-43714085D01*
X122833252Y-43714084D01*
X122833248Y-43714082D01*
X122833244Y-43714080D01*
X122508447Y-43563814D01*
X122508441Y-43563811D01*
X122508435Y-43563809D01*
X122320040Y-43500331D01*
X122169273Y-43449531D01*
X121819744Y-43372594D01*
X121463949Y-43333900D01*
X121463948Y-43333900D01*
X121106052Y-43333900D01*
X121106050Y-43333900D01*
X120750255Y-43372594D01*
X120400726Y-43449531D01*
X120144970Y-43535706D01*
X120061565Y-43563809D01*
X120061562Y-43563810D01*
X120061563Y-43563810D01*
X120061552Y-43563814D01*
X119736755Y-43714080D01*
X119736751Y-43714082D01*
X119508367Y-43851496D01*
X119430081Y-43898600D01*
X119382166Y-43935024D01*
X119145172Y-44115181D01*
X119145163Y-44115189D01*
X118885331Y-44361314D01*
X118653641Y-44634080D01*
X118653634Y-44634090D01*
X118452790Y-44930313D01*
X118452784Y-44930322D01*
X118285151Y-45246511D01*
X118285142Y-45246529D01*
X118152674Y-45579000D01*
X118152672Y-45579007D01*
X118056932Y-45923834D01*
X118056926Y-45923860D01*
X117999029Y-46277014D01*
X117999028Y-46277031D01*
X117980221Y-46623914D01*
X117979652Y-46634400D01*
X117229519Y-46634400D01*
X117267834Y-46234832D01*
X117322108Y-45497418D01*
X117331794Y-45365822D01*
X117332106Y-45362681D01*
X117354639Y-45183365D01*
X117355754Y-45177111D01*
X117396255Y-45002651D01*
X117398013Y-44996532D01*
X117456245Y-44827189D01*
X117458633Y-44821260D01*
X117533987Y-44658808D01*
X117536782Y-44653475D01*
X117733448Y-44319111D01*
X117736536Y-44314373D01*
X117757959Y-44284572D01*
X117894249Y-44094975D01*
X117962961Y-43999388D01*
X117966476Y-43994942D01*
X118220763Y-43701974D01*
X118224657Y-43697883D01*
X118504673Y-43429394D01*
X118508907Y-43425690D01*
X118812326Y-43183914D01*
X118816891Y-43180607D01*
X119141136Y-42967599D01*
X119145964Y-42964734D01*
X119488341Y-42782265D01*
X119493441Y-42779840D01*
X119851038Y-42629459D01*
X119856349Y-42627507D01*
X120226194Y-42510458D01*
X120231662Y-42508999D01*
X120610663Y-42426262D01*
X120616244Y-42425309D01*
X120984411Y-42379662D01*
X121001220Y-42377578D01*
X121006870Y-42377138D01*
X121394614Y-42364812D01*
X121400245Y-42364891D01*
X121787492Y-42388074D01*
X121793121Y-42388672D01*
X121877279Y-42401509D01*
X122176601Y-42447167D01*
X122182154Y-42448276D01*
X122363743Y-42493282D01*
X122558688Y-42541598D01*
X122564105Y-42543206D01*
X122930548Y-42670576D01*
X122935787Y-42672671D01*
X123289039Y-42833015D01*
X123294075Y-42835586D01*
X123631171Y-43027555D01*
X123635970Y-43030587D01*
X123954091Y-43252573D01*
X123958586Y-43256027D01*
X124187936Y-43449531D01*
X124255062Y-43506165D01*
X124259228Y-43510019D01*
X124531606Y-43786239D01*
X124535381Y-43790434D01*
X124781364Y-44090413D01*
X124784753Y-44094956D01*
X124913157Y-44284572D01*
X124999525Y-44412114D01*
X125002261Y-44416153D01*
X125005226Y-44420996D01*
X125192448Y-44760739D01*
X125194956Y-44765829D01*
X125350324Y-45121264D01*
X125352352Y-45126549D01*
X125474567Y-45494710D01*
X125476107Y-45500176D01*
X125564143Y-45877970D01*
X125565177Y-45883554D01*
X125586924Y-46040868D01*
X125613734Y-46234815D01*
X125618295Y-46267805D01*
X125618814Y-46273460D01*
X125636635Y-46662405D01*
X125636700Y-46665244D01*
X125636700Y-46874900D01*
X125673350Y-47282116D01*
X125674547Y-47295406D01*
X125749933Y-47710821D01*
X125862249Y-48117787D01*
X125862252Y-48117795D01*
X125862253Y-48117799D01*
X126010603Y-48513076D01*
X126010605Y-48513081D01*
X126010610Y-48513093D01*
X126193778Y-48893447D01*
X126193781Y-48893451D01*
X126193788Y-48893465D01*
X126410334Y-49255901D01*
X126410337Y-49255905D01*
X126410340Y-49255910D01*
X126658488Y-49597456D01*
X126658510Y-49597484D01*
X126936268Y-49915403D01*
X126936278Y-49915414D01*
X127241442Y-50207180D01*
X127241446Y-50207183D01*
X127241448Y-50207185D01*
X127571534Y-50470421D01*
X127571535Y-50470422D01*
X127750229Y-50588375D01*
X127923887Y-50703006D01*
X128271553Y-50890093D01*
X128295676Y-50903074D01*
X128295684Y-50903078D01*
X128538313Y-51006782D01*
X128683898Y-51069008D01*
X129085433Y-51199475D01*
X129497047Y-51293423D01*
X129915426Y-51350096D01*
X130231756Y-51364302D01*
X130337197Y-51369038D01*
X130337200Y-51369038D01*
X130337203Y-51369038D01*
X130434532Y-51364666D01*
X130758974Y-51350096D01*
X131177353Y-51293423D01*
X131588967Y-51199475D01*
X131990502Y-51069008D01*
X132329978Y-50923909D01*
X132378715Y-50903078D01*
X132378719Y-50903075D01*
X132378726Y-50903073D01*
X132750513Y-50703006D01*
X133102870Y-50470418D01*
X133432958Y-50207180D01*
X133738122Y-49915414D01*
X134015903Y-49597468D01*
X134264066Y-49255901D01*
X134480612Y-48893465D01*
X134529190Y-48792593D01*
X134663789Y-48513093D01*
X134663789Y-48513091D01*
X134663797Y-48513076D01*
X134812147Y-48117799D01*
X134924468Y-47710814D01*
X134999854Y-47295399D01*
X135037700Y-46874900D01*
X135037700Y-46663800D01*
X135037700Y-46623918D01*
X135037700Y-43166847D01*
X135037999Y-43160768D01*
X135050818Y-43030604D01*
X135051865Y-43019973D01*
X135056603Y-42996149D01*
X135095016Y-42869519D01*
X135104313Y-42847078D01*
X135166685Y-42730387D01*
X135180182Y-42710187D01*
X135264124Y-42607903D01*
X135281303Y-42590724D01*
X135383587Y-42506782D01*
X135403787Y-42493285D01*
X135520478Y-42430913D01*
X135542919Y-42421616D01*
X135669549Y-42383203D01*
X135693373Y-42378465D01*
X135787158Y-42369228D01*
X135834168Y-42364599D01*
X135840248Y-42364300D01*
X135877082Y-42364300D01*
X144314610Y-42364300D01*
X152797318Y-42364300D01*
X152834152Y-42364300D01*
X152840232Y-42364599D01*
G37*
G04 #@! TD.AperFunction*
M02*
