M48
; DRILL file {KiCad 7.0.5} date Thu Aug 10 19:34:14 2023
; FORMAT={-:-/ absolute / metric / decimal}
; #@! TF.CreationDate,2023-08-10T19:34:14+02:00
; #@! TF.GenerationSoftware,Kicad,Pcbnew,7.0.5
; #@! TF.FileFunction,Plated,1,2,PTH
FMAT,2
METRIC
; #@! TA.AperFunction,Plated,PTH,ViaDrill
T1C0.400
; #@! TA.AperFunction,Plated,PTH,ComponentDrill
T2C0.750
; #@! TA.AperFunction,Plated,PTH,ComponentDrill
T3C0.762
; #@! TA.AperFunction,Plated,PTH,ComponentDrill
T4C0.900
; #@! TA.AperFunction,Plated,PTH,ComponentDrill
T5C1.000
; #@! TA.AperFunction,Plated,PTH,ComponentDrill
T6C1.020
; #@! TA.AperFunction,Plated,PTH,ComponentDrill
T7C1.100
; #@! TA.AperFunction,Plated,PTH,ComponentDrill
T8C1.500
; #@! TA.AperFunction,Plated,PTH,ComponentDrill
T9C2.200
; #@! TA.AperFunction,Plated,PTH,ComponentDrill
T10C2.700
; #@! TA.AperFunction,Plated,PTH,ComponentDrill
T11C3.200
%
G90
G05
T1
X112.243Y-129.54
X118.135Y-133.934
X125.705Y-87.935
X126.289Y-77.165
X137.683Y-69.266
X148.006Y-47.65
X148.107Y-136.423
X150.241Y-70.333
X150.266Y-76.86
T2
X105.985Y-124.146
X107.985Y-124.146
X176.047Y-88.773
X178.047Y-88.773
T3
X107.899Y-87.886
X107.899Y-97.026
X123.139Y-87.886
X123.139Y-97.026
T4
X116.135Y-139.732
X118.135Y-139.732
X120.135Y-139.732
T5
X120.188Y-102.26
X122.728Y-102.26
X130.038Y-77.318
X130.063Y-60.783
X132.578Y-77.318
X132.603Y-60.783
X135.118Y-77.318
X135.143Y-60.783
X137.658Y-77.318
X137.683Y-60.783
X140.198Y-77.318
X140.223Y-60.783
X140.537Y-140.335
X142.738Y-77.318
X142.763Y-60.783
X143.077Y-140.335
X145.278Y-77.318
X145.303Y-60.783
X145.617Y-140.335
X147.818Y-77.318
X147.843Y-60.783
X148.157Y-140.335
X164.338Y-91.998
X164.338Y-94.538
X164.338Y-97.078
X164.338Y-99.618
X164.338Y-102.158
X164.338Y-104.698
X175.768Y-97.765
X178.308Y-97.765
T6
X128.822Y-56.947
X128.822Y-82.347
X131.362Y-56.947
X131.362Y-82.347
X133.902Y-56.947
X133.902Y-82.347
X136.442Y-56.947
X136.442Y-82.347
X138.982Y-56.947
X138.982Y-82.347
X141.522Y-56.947
X141.522Y-82.347
X144.062Y-56.947
X144.062Y-82.347
X146.602Y-56.947
X146.602Y-82.347
X149.142Y-56.947
X149.142Y-82.347
X151.682Y-56.947
X151.682Y-82.347
X154.222Y-56.947
X154.222Y-82.347
X156.762Y-56.947
X156.762Y-82.347
X159.302Y-56.947
X159.302Y-82.347
X161.842Y-56.947
X161.842Y-82.347
X164.382Y-56.947
X164.382Y-82.347
T7
X97.283Y-133.589
X97.283Y-138.089
X103.783Y-133.589
X103.783Y-138.089
T8
X114.035Y-139.732
X122.235Y-139.732
T9
X98.66Y-100.903
X98.685Y-119.14
X190.214Y-100.988
X190.24Y-119.225
T10
X190.119Y-132.516
X190.119Y-137.516
T11
X121.285Y-46.634
X167.234Y-46.685
T0
M30
