%TF.GenerationSoftware,KiCad,Pcbnew,7.0.5*%
%TF.CreationDate,2023-08-10T19:34:16+02:00*%
%TF.ProjectId,Siguelineas,53696775-656c-4696-9e65-61732e6b6963,rev?*%
%TF.SameCoordinates,Original*%
%TF.FileFunction,Drillmap*%
%TF.FilePolarity,Positive*%
%FSLAX45Y45*%
G04 Gerber Fmt 4.5, Leading zero omitted, Abs format (unit mm)*
G04 Created by KiCad (PCBNEW 7.0.5) date 2023-08-10 19:34:16*
%MOMM*%
%LPD*%
G01*
G04 APERTURE LIST*
%ADD10C,0.200000*%
%ADD11C,0.100000*%
%ADD12C,0.220000*%
%ADD13C,0.300000*%
%ADD14C,0.320000*%
G04 APERTURE END LIST*
D10*
X17154245Y-4534951D02*
G75*
G03*
X19296211Y-9375225I7844360J577285D01*
G01*
X16883720Y-5166380D02*
G75*
G03*
X16883720Y-5166380I-150000J0D01*
G01*
X15383721Y-4316380D02*
G75*
G03*
X15283720Y-4216380I-100002J-2D01*
G01*
X15383720Y-4666380D02*
G75*
G03*
X16283720Y-4666380I450000J0D01*
G01*
X17131634Y-4456231D02*
G75*
G03*
X16283720Y-4666380I-397914J-210151D01*
G01*
X17154246Y-4534951D02*
G75*
G03*
X17131636Y-4456230I-199457J-14681D01*
G01*
X19433720Y-9719609D02*
X19433720Y-14116380D01*
X14433720Y-4216380D02*
X15283720Y-4216380D01*
X15383720Y-4316380D02*
X15383720Y-4666380D01*
X19333720Y-14216383D02*
G75*
G03*
X19433720Y-14116380I-1J100001D01*
G01*
X19333720Y-14216380D02*
X14433720Y-14216380D01*
X19433722Y-9719609D02*
G75*
G03*
X19296211Y-9375225I-500003J-3D01*
G01*
X12283720Y-5166380D02*
G75*
G03*
X12283720Y-5166380I-150000J0D01*
G01*
X13583720Y-4216383D02*
G75*
G03*
X13483720Y-4316380I-1J-99999D01*
G01*
X9571229Y-9375225D02*
G75*
G03*
X9433720Y-9719609I362491J-344384D01*
G01*
X11735805Y-4456230D02*
G75*
G03*
X11713195Y-4534951I176854J-93402D01*
G01*
X12583720Y-4666380D02*
G75*
G03*
X13483720Y-4666380I450000J0D01*
G01*
X9433720Y-14116380D02*
G75*
G03*
X9533720Y-14216380I100000J0D01*
G01*
X9571229Y-9375225D02*
G75*
G03*
X11713195Y-4534951I-5702393J5417558D01*
G01*
X12583720Y-4666380D02*
G75*
G03*
X11735804Y-4456230I-450000J0D01*
G01*
X13483720Y-4316380D02*
X13483720Y-4666380D01*
X9533720Y-14216380D02*
X14433720Y-14216380D01*
X14433720Y-4216380D02*
X13583720Y-4216380D01*
X9433720Y-9719609D02*
X9433720Y-14116380D01*
D11*
X15788810Y-10124440D02*
G75*
G03*
X15788810Y-10124440I-1348491J0D01*
G01*
D10*
D12*
X13136100Y-13887940D02*
X13356100Y-14107940D01*
X13356100Y-13887940D02*
X13136100Y-14107940D01*
X15518620Y-13882860D02*
X15738620Y-14102860D01*
X15738620Y-13882860D02*
X15518620Y-14102860D01*
D13*
X12236220Y-5741680D02*
G75*
G03*
X12236220Y-5741680I-150000J0D01*
G01*
X12236220Y-8192680D02*
G75*
G03*
X12236220Y-8192680I-150000J0D01*
G01*
X16931220Y-5741680D02*
G75*
G03*
X16931220Y-5741680I-150000J0D01*
G01*
X16931220Y-8192680D02*
G75*
G03*
X16931220Y-8192680I-150000J0D01*
G01*
D14*
X13233570Y-11163320D02*
X13233570Y-11483320D01*
X13073570Y-11323320D02*
X13393570Y-11323320D01*
X13238650Y-8763020D02*
X13238650Y-9083020D01*
X13078650Y-8923020D02*
X13398650Y-8923020D01*
X15633870Y-8757940D02*
X15633870Y-9077940D01*
X15473870Y-8917940D02*
X15793870Y-8917940D01*
X15633870Y-11163320D02*
X15633870Y-11483320D01*
X15473870Y-11323320D02*
X15793870Y-11323320D01*
D10*
X9684497Y-14537864D02*
X9684497Y-14337864D01*
X9684497Y-14337864D02*
X9732116Y-14337864D01*
X9732116Y-14337864D02*
X9760687Y-14347388D01*
X9760687Y-14347388D02*
X9779735Y-14366435D01*
X9779735Y-14366435D02*
X9789259Y-14385483D01*
X9789259Y-14385483D02*
X9798783Y-14423578D01*
X9798783Y-14423578D02*
X9798783Y-14452149D01*
X9798783Y-14452149D02*
X9789259Y-14490245D01*
X9789259Y-14490245D02*
X9779735Y-14509292D01*
X9779735Y-14509292D02*
X9760687Y-14528340D01*
X9760687Y-14528340D02*
X9732116Y-14537864D01*
X9732116Y-14537864D02*
X9684497Y-14537864D01*
X9884497Y-14537864D02*
X9884497Y-14404530D01*
X9884497Y-14442626D02*
X9894021Y-14423578D01*
X9894021Y-14423578D02*
X9903544Y-14414054D01*
X9903544Y-14414054D02*
X9922592Y-14404530D01*
X9922592Y-14404530D02*
X9941640Y-14404530D01*
X10008306Y-14537864D02*
X10008306Y-14404530D01*
X10008306Y-14337864D02*
X9998783Y-14347388D01*
X9998783Y-14347388D02*
X10008306Y-14356911D01*
X10008306Y-14356911D02*
X10017830Y-14347388D01*
X10017830Y-14347388D02*
X10008306Y-14337864D01*
X10008306Y-14337864D02*
X10008306Y-14356911D01*
X10132116Y-14537864D02*
X10113068Y-14528340D01*
X10113068Y-14528340D02*
X10103544Y-14509292D01*
X10103544Y-14509292D02*
X10103544Y-14337864D01*
X10236878Y-14537864D02*
X10217830Y-14528340D01*
X10217830Y-14528340D02*
X10208306Y-14509292D01*
X10208306Y-14509292D02*
X10208306Y-14337864D01*
X10465449Y-14537864D02*
X10465449Y-14337864D01*
X10465449Y-14337864D02*
X10532116Y-14480721D01*
X10532116Y-14480721D02*
X10598783Y-14337864D01*
X10598783Y-14337864D02*
X10598783Y-14537864D01*
X10779735Y-14537864D02*
X10779735Y-14433102D01*
X10779735Y-14433102D02*
X10770211Y-14414054D01*
X10770211Y-14414054D02*
X10751164Y-14404530D01*
X10751164Y-14404530D02*
X10713068Y-14404530D01*
X10713068Y-14404530D02*
X10694021Y-14414054D01*
X10779735Y-14528340D02*
X10760687Y-14537864D01*
X10760687Y-14537864D02*
X10713068Y-14537864D01*
X10713068Y-14537864D02*
X10694021Y-14528340D01*
X10694021Y-14528340D02*
X10684497Y-14509292D01*
X10684497Y-14509292D02*
X10684497Y-14490245D01*
X10684497Y-14490245D02*
X10694021Y-14471197D01*
X10694021Y-14471197D02*
X10713068Y-14461673D01*
X10713068Y-14461673D02*
X10760687Y-14461673D01*
X10760687Y-14461673D02*
X10779735Y-14452149D01*
X10874973Y-14404530D02*
X10874973Y-14604530D01*
X10874973Y-14414054D02*
X10894021Y-14404530D01*
X10894021Y-14404530D02*
X10932116Y-14404530D01*
X10932116Y-14404530D02*
X10951164Y-14414054D01*
X10951164Y-14414054D02*
X10960687Y-14423578D01*
X10960687Y-14423578D02*
X10970211Y-14442626D01*
X10970211Y-14442626D02*
X10970211Y-14499768D01*
X10970211Y-14499768D02*
X10960687Y-14518816D01*
X10960687Y-14518816D02*
X10951164Y-14528340D01*
X10951164Y-14528340D02*
X10932116Y-14537864D01*
X10932116Y-14537864D02*
X10894021Y-14537864D01*
X10894021Y-14537864D02*
X10874973Y-14528340D01*
X11055925Y-14518816D02*
X11065449Y-14528340D01*
X11065449Y-14528340D02*
X11055925Y-14537864D01*
X11055925Y-14537864D02*
X11046402Y-14528340D01*
X11046402Y-14528340D02*
X11055925Y-14518816D01*
X11055925Y-14518816D02*
X11055925Y-14537864D01*
X11055925Y-14414054D02*
X11065449Y-14423578D01*
X11065449Y-14423578D02*
X11055925Y-14433102D01*
X11055925Y-14433102D02*
X11046402Y-14423578D01*
X11046402Y-14423578D02*
X11055925Y-14414054D01*
X11055925Y-14414054D02*
X11055925Y-14433102D01*
X9223720Y-14766380D02*
X9423720Y-14966380D01*
X9423720Y-14766380D02*
X9223720Y-14966380D01*
X9674973Y-14776911D02*
X9684497Y-14767388D01*
X9684497Y-14767388D02*
X9703544Y-14757864D01*
X9703544Y-14757864D02*
X9751164Y-14757864D01*
X9751164Y-14757864D02*
X9770211Y-14767388D01*
X9770211Y-14767388D02*
X9779735Y-14776911D01*
X9779735Y-14776911D02*
X9789259Y-14795959D01*
X9789259Y-14795959D02*
X9789259Y-14815007D01*
X9789259Y-14815007D02*
X9779735Y-14843578D01*
X9779735Y-14843578D02*
X9665449Y-14957864D01*
X9665449Y-14957864D02*
X9789259Y-14957864D01*
X9874973Y-14938816D02*
X9884497Y-14948340D01*
X9884497Y-14948340D02*
X9874973Y-14957864D01*
X9874973Y-14957864D02*
X9865449Y-14948340D01*
X9865449Y-14948340D02*
X9874973Y-14938816D01*
X9874973Y-14938816D02*
X9874973Y-14957864D01*
X9960687Y-14776911D02*
X9970211Y-14767388D01*
X9970211Y-14767388D02*
X9989259Y-14757864D01*
X9989259Y-14757864D02*
X10036878Y-14757864D01*
X10036878Y-14757864D02*
X10055925Y-14767388D01*
X10055925Y-14767388D02*
X10065449Y-14776911D01*
X10065449Y-14776911D02*
X10074973Y-14795959D01*
X10074973Y-14795959D02*
X10074973Y-14815007D01*
X10074973Y-14815007D02*
X10065449Y-14843578D01*
X10065449Y-14843578D02*
X9951164Y-14957864D01*
X9951164Y-14957864D02*
X10074973Y-14957864D01*
X10198783Y-14757864D02*
X10217830Y-14757864D01*
X10217830Y-14757864D02*
X10236878Y-14767388D01*
X10236878Y-14767388D02*
X10246402Y-14776911D01*
X10246402Y-14776911D02*
X10255925Y-14795959D01*
X10255925Y-14795959D02*
X10265449Y-14834054D01*
X10265449Y-14834054D02*
X10265449Y-14881673D01*
X10265449Y-14881673D02*
X10255925Y-14919768D01*
X10255925Y-14919768D02*
X10246402Y-14938816D01*
X10246402Y-14938816D02*
X10236878Y-14948340D01*
X10236878Y-14948340D02*
X10217830Y-14957864D01*
X10217830Y-14957864D02*
X10198783Y-14957864D01*
X10198783Y-14957864D02*
X10179735Y-14948340D01*
X10179735Y-14948340D02*
X10170211Y-14938816D01*
X10170211Y-14938816D02*
X10160687Y-14919768D01*
X10160687Y-14919768D02*
X10151164Y-14881673D01*
X10151164Y-14881673D02*
X10151164Y-14834054D01*
X10151164Y-14834054D02*
X10160687Y-14795959D01*
X10160687Y-14795959D02*
X10170211Y-14776911D01*
X10170211Y-14776911D02*
X10179735Y-14767388D01*
X10179735Y-14767388D02*
X10198783Y-14757864D01*
X10389259Y-14757864D02*
X10408306Y-14757864D01*
X10408306Y-14757864D02*
X10427354Y-14767388D01*
X10427354Y-14767388D02*
X10436878Y-14776911D01*
X10436878Y-14776911D02*
X10446402Y-14795959D01*
X10446402Y-14795959D02*
X10455925Y-14834054D01*
X10455925Y-14834054D02*
X10455925Y-14881673D01*
X10455925Y-14881673D02*
X10446402Y-14919768D01*
X10446402Y-14919768D02*
X10436878Y-14938816D01*
X10436878Y-14938816D02*
X10427354Y-14948340D01*
X10427354Y-14948340D02*
X10408306Y-14957864D01*
X10408306Y-14957864D02*
X10389259Y-14957864D01*
X10389259Y-14957864D02*
X10370211Y-14948340D01*
X10370211Y-14948340D02*
X10360687Y-14938816D01*
X10360687Y-14938816D02*
X10351164Y-14919768D01*
X10351164Y-14919768D02*
X10341640Y-14881673D01*
X10341640Y-14881673D02*
X10341640Y-14834054D01*
X10341640Y-14834054D02*
X10351164Y-14795959D01*
X10351164Y-14795959D02*
X10360687Y-14776911D01*
X10360687Y-14776911D02*
X10370211Y-14767388D01*
X10370211Y-14767388D02*
X10389259Y-14757864D01*
X10541640Y-14957864D02*
X10541640Y-14824530D01*
X10541640Y-14843578D02*
X10551164Y-14834054D01*
X10551164Y-14834054D02*
X10570211Y-14824530D01*
X10570211Y-14824530D02*
X10598783Y-14824530D01*
X10598783Y-14824530D02*
X10617830Y-14834054D01*
X10617830Y-14834054D02*
X10627354Y-14853102D01*
X10627354Y-14853102D02*
X10627354Y-14957864D01*
X10627354Y-14853102D02*
X10636878Y-14834054D01*
X10636878Y-14834054D02*
X10655925Y-14824530D01*
X10655925Y-14824530D02*
X10684497Y-14824530D01*
X10684497Y-14824530D02*
X10703545Y-14834054D01*
X10703545Y-14834054D02*
X10713068Y-14853102D01*
X10713068Y-14853102D02*
X10713068Y-14957864D01*
X10808306Y-14957864D02*
X10808306Y-14824530D01*
X10808306Y-14843578D02*
X10817830Y-14834054D01*
X10817830Y-14834054D02*
X10836878Y-14824530D01*
X10836878Y-14824530D02*
X10865449Y-14824530D01*
X10865449Y-14824530D02*
X10884497Y-14834054D01*
X10884497Y-14834054D02*
X10894021Y-14853102D01*
X10894021Y-14853102D02*
X10894021Y-14957864D01*
X10894021Y-14853102D02*
X10903545Y-14834054D01*
X10903545Y-14834054D02*
X10922592Y-14824530D01*
X10922592Y-14824530D02*
X10951164Y-14824530D01*
X10951164Y-14824530D02*
X10970211Y-14834054D01*
X10970211Y-14834054D02*
X10979735Y-14853102D01*
X10979735Y-14853102D02*
X10979735Y-14957864D01*
X11370211Y-14748340D02*
X11198783Y-15005483D01*
X11627354Y-14757864D02*
X11646402Y-14757864D01*
X11646402Y-14757864D02*
X11665449Y-14767388D01*
X11665449Y-14767388D02*
X11674973Y-14776911D01*
X11674973Y-14776911D02*
X11684497Y-14795959D01*
X11684497Y-14795959D02*
X11694021Y-14834054D01*
X11694021Y-14834054D02*
X11694021Y-14881673D01*
X11694021Y-14881673D02*
X11684497Y-14919768D01*
X11684497Y-14919768D02*
X11674973Y-14938816D01*
X11674973Y-14938816D02*
X11665449Y-14948340D01*
X11665449Y-14948340D02*
X11646402Y-14957864D01*
X11646402Y-14957864D02*
X11627354Y-14957864D01*
X11627354Y-14957864D02*
X11608306Y-14948340D01*
X11608306Y-14948340D02*
X11598783Y-14938816D01*
X11598783Y-14938816D02*
X11589259Y-14919768D01*
X11589259Y-14919768D02*
X11579735Y-14881673D01*
X11579735Y-14881673D02*
X11579735Y-14834054D01*
X11579735Y-14834054D02*
X11589259Y-14795959D01*
X11589259Y-14795959D02*
X11598783Y-14776911D01*
X11598783Y-14776911D02*
X11608306Y-14767388D01*
X11608306Y-14767388D02*
X11627354Y-14757864D01*
X11779735Y-14938816D02*
X11789259Y-14948340D01*
X11789259Y-14948340D02*
X11779735Y-14957864D01*
X11779735Y-14957864D02*
X11770211Y-14948340D01*
X11770211Y-14948340D02*
X11779735Y-14938816D01*
X11779735Y-14938816D02*
X11779735Y-14957864D01*
X11913068Y-14757864D02*
X11932116Y-14757864D01*
X11932116Y-14757864D02*
X11951164Y-14767388D01*
X11951164Y-14767388D02*
X11960687Y-14776911D01*
X11960687Y-14776911D02*
X11970211Y-14795959D01*
X11970211Y-14795959D02*
X11979735Y-14834054D01*
X11979735Y-14834054D02*
X11979735Y-14881673D01*
X11979735Y-14881673D02*
X11970211Y-14919768D01*
X11970211Y-14919768D02*
X11960687Y-14938816D01*
X11960687Y-14938816D02*
X11951164Y-14948340D01*
X11951164Y-14948340D02*
X11932116Y-14957864D01*
X11932116Y-14957864D02*
X11913068Y-14957864D01*
X11913068Y-14957864D02*
X11894021Y-14948340D01*
X11894021Y-14948340D02*
X11884497Y-14938816D01*
X11884497Y-14938816D02*
X11874973Y-14919768D01*
X11874973Y-14919768D02*
X11865449Y-14881673D01*
X11865449Y-14881673D02*
X11865449Y-14834054D01*
X11865449Y-14834054D02*
X11874973Y-14795959D01*
X11874973Y-14795959D02*
X11884497Y-14776911D01*
X11884497Y-14776911D02*
X11894021Y-14767388D01*
X11894021Y-14767388D02*
X11913068Y-14757864D01*
X12094021Y-14843578D02*
X12074973Y-14834054D01*
X12074973Y-14834054D02*
X12065449Y-14824530D01*
X12065449Y-14824530D02*
X12055926Y-14805483D01*
X12055926Y-14805483D02*
X12055926Y-14795959D01*
X12055926Y-14795959D02*
X12065449Y-14776911D01*
X12065449Y-14776911D02*
X12074973Y-14767388D01*
X12074973Y-14767388D02*
X12094021Y-14757864D01*
X12094021Y-14757864D02*
X12132116Y-14757864D01*
X12132116Y-14757864D02*
X12151164Y-14767388D01*
X12151164Y-14767388D02*
X12160687Y-14776911D01*
X12160687Y-14776911D02*
X12170211Y-14795959D01*
X12170211Y-14795959D02*
X12170211Y-14805483D01*
X12170211Y-14805483D02*
X12160687Y-14824530D01*
X12160687Y-14824530D02*
X12151164Y-14834054D01*
X12151164Y-14834054D02*
X12132116Y-14843578D01*
X12132116Y-14843578D02*
X12094021Y-14843578D01*
X12094021Y-14843578D02*
X12074973Y-14853102D01*
X12074973Y-14853102D02*
X12065449Y-14862626D01*
X12065449Y-14862626D02*
X12055926Y-14881673D01*
X12055926Y-14881673D02*
X12055926Y-14919768D01*
X12055926Y-14919768D02*
X12065449Y-14938816D01*
X12065449Y-14938816D02*
X12074973Y-14948340D01*
X12074973Y-14948340D02*
X12094021Y-14957864D01*
X12094021Y-14957864D02*
X12132116Y-14957864D01*
X12132116Y-14957864D02*
X12151164Y-14948340D01*
X12151164Y-14948340D02*
X12160687Y-14938816D01*
X12160687Y-14938816D02*
X12170211Y-14919768D01*
X12170211Y-14919768D02*
X12170211Y-14881673D01*
X12170211Y-14881673D02*
X12160687Y-14862626D01*
X12160687Y-14862626D02*
X12151164Y-14853102D01*
X12151164Y-14853102D02*
X12132116Y-14843578D01*
X12341640Y-14757864D02*
X12303545Y-14757864D01*
X12303545Y-14757864D02*
X12284497Y-14767388D01*
X12284497Y-14767388D02*
X12274973Y-14776911D01*
X12274973Y-14776911D02*
X12255926Y-14805483D01*
X12255926Y-14805483D02*
X12246402Y-14843578D01*
X12246402Y-14843578D02*
X12246402Y-14919768D01*
X12246402Y-14919768D02*
X12255926Y-14938816D01*
X12255926Y-14938816D02*
X12265449Y-14948340D01*
X12265449Y-14948340D02*
X12284497Y-14957864D01*
X12284497Y-14957864D02*
X12322592Y-14957864D01*
X12322592Y-14957864D02*
X12341640Y-14948340D01*
X12341640Y-14948340D02*
X12351164Y-14938816D01*
X12351164Y-14938816D02*
X12360687Y-14919768D01*
X12360687Y-14919768D02*
X12360687Y-14872149D01*
X12360687Y-14872149D02*
X12351164Y-14853102D01*
X12351164Y-14853102D02*
X12341640Y-14843578D01*
X12341640Y-14843578D02*
X12322592Y-14834054D01*
X12322592Y-14834054D02*
X12284497Y-14834054D01*
X12284497Y-14834054D02*
X12265449Y-14843578D01*
X12265449Y-14843578D02*
X12255926Y-14853102D01*
X12255926Y-14853102D02*
X12246402Y-14872149D01*
X12532116Y-14757864D02*
X12494021Y-14757864D01*
X12494021Y-14757864D02*
X12474973Y-14767388D01*
X12474973Y-14767388D02*
X12465449Y-14776911D01*
X12465449Y-14776911D02*
X12446402Y-14805483D01*
X12446402Y-14805483D02*
X12436878Y-14843578D01*
X12436878Y-14843578D02*
X12436878Y-14919768D01*
X12436878Y-14919768D02*
X12446402Y-14938816D01*
X12446402Y-14938816D02*
X12455926Y-14948340D01*
X12455926Y-14948340D02*
X12474973Y-14957864D01*
X12474973Y-14957864D02*
X12513068Y-14957864D01*
X12513068Y-14957864D02*
X12532116Y-14948340D01*
X12532116Y-14948340D02*
X12541640Y-14938816D01*
X12541640Y-14938816D02*
X12551164Y-14919768D01*
X12551164Y-14919768D02*
X12551164Y-14872149D01*
X12551164Y-14872149D02*
X12541640Y-14853102D01*
X12541640Y-14853102D02*
X12532116Y-14843578D01*
X12532116Y-14843578D02*
X12513068Y-14834054D01*
X12513068Y-14834054D02*
X12474973Y-14834054D01*
X12474973Y-14834054D02*
X12455926Y-14843578D01*
X12455926Y-14843578D02*
X12446402Y-14853102D01*
X12446402Y-14853102D02*
X12436878Y-14872149D01*
X12627354Y-14757864D02*
X12627354Y-14795959D01*
X12703545Y-14757864D02*
X12703545Y-14795959D01*
X12998783Y-15034054D02*
X12989259Y-15024530D01*
X12989259Y-15024530D02*
X12970211Y-14995959D01*
X12970211Y-14995959D02*
X12960688Y-14976911D01*
X12960688Y-14976911D02*
X12951164Y-14948340D01*
X12951164Y-14948340D02*
X12941640Y-14900721D01*
X12941640Y-14900721D02*
X12941640Y-14862626D01*
X12941640Y-14862626D02*
X12951164Y-14815007D01*
X12951164Y-14815007D02*
X12960688Y-14786435D01*
X12960688Y-14786435D02*
X12970211Y-14767388D01*
X12970211Y-14767388D02*
X12989259Y-14738816D01*
X12989259Y-14738816D02*
X12998783Y-14729292D01*
X13065449Y-14776911D02*
X13074973Y-14767388D01*
X13074973Y-14767388D02*
X13094021Y-14757864D01*
X13094021Y-14757864D02*
X13141640Y-14757864D01*
X13141640Y-14757864D02*
X13160688Y-14767388D01*
X13160688Y-14767388D02*
X13170211Y-14776911D01*
X13170211Y-14776911D02*
X13179735Y-14795959D01*
X13179735Y-14795959D02*
X13179735Y-14815007D01*
X13179735Y-14815007D02*
X13170211Y-14843578D01*
X13170211Y-14843578D02*
X13055926Y-14957864D01*
X13055926Y-14957864D02*
X13179735Y-14957864D01*
X13417830Y-14957864D02*
X13417830Y-14757864D01*
X13503545Y-14957864D02*
X13503545Y-14853102D01*
X13503545Y-14853102D02*
X13494021Y-14834054D01*
X13494021Y-14834054D02*
X13474973Y-14824530D01*
X13474973Y-14824530D02*
X13446402Y-14824530D01*
X13446402Y-14824530D02*
X13427354Y-14834054D01*
X13427354Y-14834054D02*
X13417830Y-14843578D01*
X13627354Y-14957864D02*
X13608307Y-14948340D01*
X13608307Y-14948340D02*
X13598783Y-14938816D01*
X13598783Y-14938816D02*
X13589259Y-14919768D01*
X13589259Y-14919768D02*
X13589259Y-14862626D01*
X13589259Y-14862626D02*
X13598783Y-14843578D01*
X13598783Y-14843578D02*
X13608307Y-14834054D01*
X13608307Y-14834054D02*
X13627354Y-14824530D01*
X13627354Y-14824530D02*
X13655926Y-14824530D01*
X13655926Y-14824530D02*
X13674973Y-14834054D01*
X13674973Y-14834054D02*
X13684497Y-14843578D01*
X13684497Y-14843578D02*
X13694021Y-14862626D01*
X13694021Y-14862626D02*
X13694021Y-14919768D01*
X13694021Y-14919768D02*
X13684497Y-14938816D01*
X13684497Y-14938816D02*
X13674973Y-14948340D01*
X13674973Y-14948340D02*
X13655926Y-14957864D01*
X13655926Y-14957864D02*
X13627354Y-14957864D01*
X13808307Y-14957864D02*
X13789259Y-14948340D01*
X13789259Y-14948340D02*
X13779735Y-14929292D01*
X13779735Y-14929292D02*
X13779735Y-14757864D01*
X13960688Y-14948340D02*
X13941640Y-14957864D01*
X13941640Y-14957864D02*
X13903545Y-14957864D01*
X13903545Y-14957864D02*
X13884497Y-14948340D01*
X13884497Y-14948340D02*
X13874973Y-14929292D01*
X13874973Y-14929292D02*
X13874973Y-14853102D01*
X13874973Y-14853102D02*
X13884497Y-14834054D01*
X13884497Y-14834054D02*
X13903545Y-14824530D01*
X13903545Y-14824530D02*
X13941640Y-14824530D01*
X13941640Y-14824530D02*
X13960688Y-14834054D01*
X13960688Y-14834054D02*
X13970211Y-14853102D01*
X13970211Y-14853102D02*
X13970211Y-14872149D01*
X13970211Y-14872149D02*
X13874973Y-14891197D01*
X14046402Y-14948340D02*
X14065450Y-14957864D01*
X14065450Y-14957864D02*
X14103545Y-14957864D01*
X14103545Y-14957864D02*
X14122592Y-14948340D01*
X14122592Y-14948340D02*
X14132116Y-14929292D01*
X14132116Y-14929292D02*
X14132116Y-14919768D01*
X14132116Y-14919768D02*
X14122592Y-14900721D01*
X14122592Y-14900721D02*
X14103545Y-14891197D01*
X14103545Y-14891197D02*
X14074973Y-14891197D01*
X14074973Y-14891197D02*
X14055926Y-14881673D01*
X14055926Y-14881673D02*
X14046402Y-14862626D01*
X14046402Y-14862626D02*
X14046402Y-14853102D01*
X14046402Y-14853102D02*
X14055926Y-14834054D01*
X14055926Y-14834054D02*
X14074973Y-14824530D01*
X14074973Y-14824530D02*
X14103545Y-14824530D01*
X14103545Y-14824530D02*
X14122592Y-14834054D01*
X14198783Y-15034054D02*
X14208307Y-15024530D01*
X14208307Y-15024530D02*
X14227354Y-14995959D01*
X14227354Y-14995959D02*
X14236878Y-14976911D01*
X14236878Y-14976911D02*
X14246402Y-14948340D01*
X14246402Y-14948340D02*
X14255926Y-14900721D01*
X14255926Y-14900721D02*
X14255926Y-14862626D01*
X14255926Y-14862626D02*
X14246402Y-14815007D01*
X14246402Y-14815007D02*
X14236878Y-14786435D01*
X14236878Y-14786435D02*
X14227354Y-14767388D01*
X14227354Y-14767388D02*
X14208307Y-14738816D01*
X14208307Y-14738816D02*
X14198783Y-14729292D01*
X14560688Y-15034054D02*
X14551164Y-15024530D01*
X14551164Y-15024530D02*
X14532116Y-14995959D01*
X14532116Y-14995959D02*
X14522592Y-14976911D01*
X14522592Y-14976911D02*
X14513069Y-14948340D01*
X14513069Y-14948340D02*
X14503545Y-14900721D01*
X14503545Y-14900721D02*
X14503545Y-14862626D01*
X14503545Y-14862626D02*
X14513069Y-14815007D01*
X14513069Y-14815007D02*
X14522592Y-14786435D01*
X14522592Y-14786435D02*
X14532116Y-14767388D01*
X14532116Y-14767388D02*
X14551164Y-14738816D01*
X14551164Y-14738816D02*
X14560688Y-14729292D01*
X14636878Y-14824530D02*
X14636878Y-14957864D01*
X14636878Y-14843578D02*
X14646402Y-14834054D01*
X14646402Y-14834054D02*
X14665450Y-14824530D01*
X14665450Y-14824530D02*
X14694021Y-14824530D01*
X14694021Y-14824530D02*
X14713069Y-14834054D01*
X14713069Y-14834054D02*
X14722592Y-14853102D01*
X14722592Y-14853102D02*
X14722592Y-14957864D01*
X14846402Y-14957864D02*
X14827354Y-14948340D01*
X14827354Y-14948340D02*
X14817831Y-14938816D01*
X14817831Y-14938816D02*
X14808307Y-14919768D01*
X14808307Y-14919768D02*
X14808307Y-14862626D01*
X14808307Y-14862626D02*
X14817831Y-14843578D01*
X14817831Y-14843578D02*
X14827354Y-14834054D01*
X14827354Y-14834054D02*
X14846402Y-14824530D01*
X14846402Y-14824530D02*
X14874973Y-14824530D01*
X14874973Y-14824530D02*
X14894021Y-14834054D01*
X14894021Y-14834054D02*
X14903545Y-14843578D01*
X14903545Y-14843578D02*
X14913069Y-14862626D01*
X14913069Y-14862626D02*
X14913069Y-14919768D01*
X14913069Y-14919768D02*
X14903545Y-14938816D01*
X14903545Y-14938816D02*
X14894021Y-14948340D01*
X14894021Y-14948340D02*
X14874973Y-14957864D01*
X14874973Y-14957864D02*
X14846402Y-14957864D01*
X14970212Y-14824530D02*
X15046402Y-14824530D01*
X14998783Y-14757864D02*
X14998783Y-14929292D01*
X14998783Y-14929292D02*
X15008307Y-14948340D01*
X15008307Y-14948340D02*
X15027354Y-14957864D01*
X15027354Y-14957864D02*
X15046402Y-14957864D01*
X15265450Y-14824530D02*
X15265450Y-15024530D01*
X15265450Y-14834054D02*
X15284497Y-14824530D01*
X15284497Y-14824530D02*
X15322593Y-14824530D01*
X15322593Y-14824530D02*
X15341640Y-14834054D01*
X15341640Y-14834054D02*
X15351164Y-14843578D01*
X15351164Y-14843578D02*
X15360688Y-14862626D01*
X15360688Y-14862626D02*
X15360688Y-14919768D01*
X15360688Y-14919768D02*
X15351164Y-14938816D01*
X15351164Y-14938816D02*
X15341640Y-14948340D01*
X15341640Y-14948340D02*
X15322593Y-14957864D01*
X15322593Y-14957864D02*
X15284497Y-14957864D01*
X15284497Y-14957864D02*
X15265450Y-14948340D01*
X15474973Y-14957864D02*
X15455926Y-14948340D01*
X15455926Y-14948340D02*
X15446402Y-14929292D01*
X15446402Y-14929292D02*
X15446402Y-14757864D01*
X15636878Y-14957864D02*
X15636878Y-14853102D01*
X15636878Y-14853102D02*
X15627354Y-14834054D01*
X15627354Y-14834054D02*
X15608307Y-14824530D01*
X15608307Y-14824530D02*
X15570212Y-14824530D01*
X15570212Y-14824530D02*
X15551164Y-14834054D01*
X15636878Y-14948340D02*
X15617831Y-14957864D01*
X15617831Y-14957864D02*
X15570212Y-14957864D01*
X15570212Y-14957864D02*
X15551164Y-14948340D01*
X15551164Y-14948340D02*
X15541640Y-14929292D01*
X15541640Y-14929292D02*
X15541640Y-14910245D01*
X15541640Y-14910245D02*
X15551164Y-14891197D01*
X15551164Y-14891197D02*
X15570212Y-14881673D01*
X15570212Y-14881673D02*
X15617831Y-14881673D01*
X15617831Y-14881673D02*
X15636878Y-14872149D01*
X15703545Y-14824530D02*
X15779735Y-14824530D01*
X15732116Y-14757864D02*
X15732116Y-14929292D01*
X15732116Y-14929292D02*
X15741640Y-14948340D01*
X15741640Y-14948340D02*
X15760688Y-14957864D01*
X15760688Y-14957864D02*
X15779735Y-14957864D01*
X15922593Y-14948340D02*
X15903545Y-14957864D01*
X15903545Y-14957864D02*
X15865450Y-14957864D01*
X15865450Y-14957864D02*
X15846402Y-14948340D01*
X15846402Y-14948340D02*
X15836878Y-14929292D01*
X15836878Y-14929292D02*
X15836878Y-14853102D01*
X15836878Y-14853102D02*
X15846402Y-14834054D01*
X15846402Y-14834054D02*
X15865450Y-14824530D01*
X15865450Y-14824530D02*
X15903545Y-14824530D01*
X15903545Y-14824530D02*
X15922593Y-14834054D01*
X15922593Y-14834054D02*
X15932116Y-14853102D01*
X15932116Y-14853102D02*
X15932116Y-14872149D01*
X15932116Y-14872149D02*
X15836878Y-14891197D01*
X16103545Y-14957864D02*
X16103545Y-14757864D01*
X16103545Y-14948340D02*
X16084497Y-14957864D01*
X16084497Y-14957864D02*
X16046402Y-14957864D01*
X16046402Y-14957864D02*
X16027354Y-14948340D01*
X16027354Y-14948340D02*
X16017831Y-14938816D01*
X16017831Y-14938816D02*
X16008307Y-14919768D01*
X16008307Y-14919768D02*
X16008307Y-14862626D01*
X16008307Y-14862626D02*
X16017831Y-14843578D01*
X16017831Y-14843578D02*
X16027354Y-14834054D01*
X16027354Y-14834054D02*
X16046402Y-14824530D01*
X16046402Y-14824530D02*
X16084497Y-14824530D01*
X16084497Y-14824530D02*
X16103545Y-14834054D01*
X16179735Y-15034054D02*
X16189259Y-15024530D01*
X16189259Y-15024530D02*
X16208307Y-14995959D01*
X16208307Y-14995959D02*
X16217831Y-14976911D01*
X16217831Y-14976911D02*
X16227354Y-14948340D01*
X16227354Y-14948340D02*
X16236878Y-14900721D01*
X16236878Y-14900721D02*
X16236878Y-14862626D01*
X16236878Y-14862626D02*
X16227354Y-14815007D01*
X16227354Y-14815007D02*
X16217831Y-14786435D01*
X16217831Y-14786435D02*
X16208307Y-14767388D01*
X16208307Y-14767388D02*
X16189259Y-14738816D01*
X16189259Y-14738816D02*
X16179735Y-14729292D01*
X9423720Y-15186380D02*
G75*
G03*
X9423720Y-15186380I-100000J0D01*
G01*
X9665449Y-15077864D02*
X9789259Y-15077864D01*
X9789259Y-15077864D02*
X9722592Y-15154054D01*
X9722592Y-15154054D02*
X9751164Y-15154054D01*
X9751164Y-15154054D02*
X9770211Y-15163578D01*
X9770211Y-15163578D02*
X9779735Y-15173102D01*
X9779735Y-15173102D02*
X9789259Y-15192149D01*
X9789259Y-15192149D02*
X9789259Y-15239768D01*
X9789259Y-15239768D02*
X9779735Y-15258816D01*
X9779735Y-15258816D02*
X9770211Y-15268340D01*
X9770211Y-15268340D02*
X9751164Y-15277864D01*
X9751164Y-15277864D02*
X9694021Y-15277864D01*
X9694021Y-15277864D02*
X9674973Y-15268340D01*
X9674973Y-15268340D02*
X9665449Y-15258816D01*
X9874973Y-15258816D02*
X9884497Y-15268340D01*
X9884497Y-15268340D02*
X9874973Y-15277864D01*
X9874973Y-15277864D02*
X9865449Y-15268340D01*
X9865449Y-15268340D02*
X9874973Y-15258816D01*
X9874973Y-15258816D02*
X9874973Y-15277864D01*
X10008306Y-15077864D02*
X10027354Y-15077864D01*
X10027354Y-15077864D02*
X10046402Y-15087388D01*
X10046402Y-15087388D02*
X10055925Y-15096911D01*
X10055925Y-15096911D02*
X10065449Y-15115959D01*
X10065449Y-15115959D02*
X10074973Y-15154054D01*
X10074973Y-15154054D02*
X10074973Y-15201673D01*
X10074973Y-15201673D02*
X10065449Y-15239768D01*
X10065449Y-15239768D02*
X10055925Y-15258816D01*
X10055925Y-15258816D02*
X10046402Y-15268340D01*
X10046402Y-15268340D02*
X10027354Y-15277864D01*
X10027354Y-15277864D02*
X10008306Y-15277864D01*
X10008306Y-15277864D02*
X9989259Y-15268340D01*
X9989259Y-15268340D02*
X9979735Y-15258816D01*
X9979735Y-15258816D02*
X9970211Y-15239768D01*
X9970211Y-15239768D02*
X9960687Y-15201673D01*
X9960687Y-15201673D02*
X9960687Y-15154054D01*
X9960687Y-15154054D02*
X9970211Y-15115959D01*
X9970211Y-15115959D02*
X9979735Y-15096911D01*
X9979735Y-15096911D02*
X9989259Y-15087388D01*
X9989259Y-15087388D02*
X10008306Y-15077864D01*
X10198783Y-15077864D02*
X10217830Y-15077864D01*
X10217830Y-15077864D02*
X10236878Y-15087388D01*
X10236878Y-15087388D02*
X10246402Y-15096911D01*
X10246402Y-15096911D02*
X10255925Y-15115959D01*
X10255925Y-15115959D02*
X10265449Y-15154054D01*
X10265449Y-15154054D02*
X10265449Y-15201673D01*
X10265449Y-15201673D02*
X10255925Y-15239768D01*
X10255925Y-15239768D02*
X10246402Y-15258816D01*
X10246402Y-15258816D02*
X10236878Y-15268340D01*
X10236878Y-15268340D02*
X10217830Y-15277864D01*
X10217830Y-15277864D02*
X10198783Y-15277864D01*
X10198783Y-15277864D02*
X10179735Y-15268340D01*
X10179735Y-15268340D02*
X10170211Y-15258816D01*
X10170211Y-15258816D02*
X10160687Y-15239768D01*
X10160687Y-15239768D02*
X10151164Y-15201673D01*
X10151164Y-15201673D02*
X10151164Y-15154054D01*
X10151164Y-15154054D02*
X10160687Y-15115959D01*
X10160687Y-15115959D02*
X10170211Y-15096911D01*
X10170211Y-15096911D02*
X10179735Y-15087388D01*
X10179735Y-15087388D02*
X10198783Y-15077864D01*
X10389259Y-15077864D02*
X10408306Y-15077864D01*
X10408306Y-15077864D02*
X10427354Y-15087388D01*
X10427354Y-15087388D02*
X10436878Y-15096911D01*
X10436878Y-15096911D02*
X10446402Y-15115959D01*
X10446402Y-15115959D02*
X10455925Y-15154054D01*
X10455925Y-15154054D02*
X10455925Y-15201673D01*
X10455925Y-15201673D02*
X10446402Y-15239768D01*
X10446402Y-15239768D02*
X10436878Y-15258816D01*
X10436878Y-15258816D02*
X10427354Y-15268340D01*
X10427354Y-15268340D02*
X10408306Y-15277864D01*
X10408306Y-15277864D02*
X10389259Y-15277864D01*
X10389259Y-15277864D02*
X10370211Y-15268340D01*
X10370211Y-15268340D02*
X10360687Y-15258816D01*
X10360687Y-15258816D02*
X10351164Y-15239768D01*
X10351164Y-15239768D02*
X10341640Y-15201673D01*
X10341640Y-15201673D02*
X10341640Y-15154054D01*
X10341640Y-15154054D02*
X10351164Y-15115959D01*
X10351164Y-15115959D02*
X10360687Y-15096911D01*
X10360687Y-15096911D02*
X10370211Y-15087388D01*
X10370211Y-15087388D02*
X10389259Y-15077864D01*
X10541640Y-15277864D02*
X10541640Y-15144530D01*
X10541640Y-15163578D02*
X10551164Y-15154054D01*
X10551164Y-15154054D02*
X10570211Y-15144530D01*
X10570211Y-15144530D02*
X10598783Y-15144530D01*
X10598783Y-15144530D02*
X10617830Y-15154054D01*
X10617830Y-15154054D02*
X10627354Y-15173102D01*
X10627354Y-15173102D02*
X10627354Y-15277864D01*
X10627354Y-15173102D02*
X10636878Y-15154054D01*
X10636878Y-15154054D02*
X10655925Y-15144530D01*
X10655925Y-15144530D02*
X10684497Y-15144530D01*
X10684497Y-15144530D02*
X10703545Y-15154054D01*
X10703545Y-15154054D02*
X10713068Y-15173102D01*
X10713068Y-15173102D02*
X10713068Y-15277864D01*
X10808306Y-15277864D02*
X10808306Y-15144530D01*
X10808306Y-15163578D02*
X10817830Y-15154054D01*
X10817830Y-15154054D02*
X10836878Y-15144530D01*
X10836878Y-15144530D02*
X10865449Y-15144530D01*
X10865449Y-15144530D02*
X10884497Y-15154054D01*
X10884497Y-15154054D02*
X10894021Y-15173102D01*
X10894021Y-15173102D02*
X10894021Y-15277864D01*
X10894021Y-15173102D02*
X10903545Y-15154054D01*
X10903545Y-15154054D02*
X10922592Y-15144530D01*
X10922592Y-15144530D02*
X10951164Y-15144530D01*
X10951164Y-15144530D02*
X10970211Y-15154054D01*
X10970211Y-15154054D02*
X10979735Y-15173102D01*
X10979735Y-15173102D02*
X10979735Y-15277864D01*
X11370211Y-15068340D02*
X11198783Y-15325483D01*
X11627354Y-15077864D02*
X11646402Y-15077864D01*
X11646402Y-15077864D02*
X11665449Y-15087388D01*
X11665449Y-15087388D02*
X11674973Y-15096911D01*
X11674973Y-15096911D02*
X11684497Y-15115959D01*
X11684497Y-15115959D02*
X11694021Y-15154054D01*
X11694021Y-15154054D02*
X11694021Y-15201673D01*
X11694021Y-15201673D02*
X11684497Y-15239768D01*
X11684497Y-15239768D02*
X11674973Y-15258816D01*
X11674973Y-15258816D02*
X11665449Y-15268340D01*
X11665449Y-15268340D02*
X11646402Y-15277864D01*
X11646402Y-15277864D02*
X11627354Y-15277864D01*
X11627354Y-15277864D02*
X11608306Y-15268340D01*
X11608306Y-15268340D02*
X11598783Y-15258816D01*
X11598783Y-15258816D02*
X11589259Y-15239768D01*
X11589259Y-15239768D02*
X11579735Y-15201673D01*
X11579735Y-15201673D02*
X11579735Y-15154054D01*
X11579735Y-15154054D02*
X11589259Y-15115959D01*
X11589259Y-15115959D02*
X11598783Y-15096911D01*
X11598783Y-15096911D02*
X11608306Y-15087388D01*
X11608306Y-15087388D02*
X11627354Y-15077864D01*
X11779735Y-15258816D02*
X11789259Y-15268340D01*
X11789259Y-15268340D02*
X11779735Y-15277864D01*
X11779735Y-15277864D02*
X11770211Y-15268340D01*
X11770211Y-15268340D02*
X11779735Y-15258816D01*
X11779735Y-15258816D02*
X11779735Y-15277864D01*
X11979735Y-15277864D02*
X11865449Y-15277864D01*
X11922592Y-15277864D02*
X11922592Y-15077864D01*
X11922592Y-15077864D02*
X11903545Y-15106435D01*
X11903545Y-15106435D02*
X11884497Y-15125483D01*
X11884497Y-15125483D02*
X11865449Y-15135007D01*
X12170211Y-15277864D02*
X12055926Y-15277864D01*
X12113068Y-15277864D02*
X12113068Y-15077864D01*
X12113068Y-15077864D02*
X12094021Y-15106435D01*
X12094021Y-15106435D02*
X12074973Y-15125483D01*
X12074973Y-15125483D02*
X12055926Y-15135007D01*
X12284497Y-15163578D02*
X12265449Y-15154054D01*
X12265449Y-15154054D02*
X12255926Y-15144530D01*
X12255926Y-15144530D02*
X12246402Y-15125483D01*
X12246402Y-15125483D02*
X12246402Y-15115959D01*
X12246402Y-15115959D02*
X12255926Y-15096911D01*
X12255926Y-15096911D02*
X12265449Y-15087388D01*
X12265449Y-15087388D02*
X12284497Y-15077864D01*
X12284497Y-15077864D02*
X12322592Y-15077864D01*
X12322592Y-15077864D02*
X12341640Y-15087388D01*
X12341640Y-15087388D02*
X12351164Y-15096911D01*
X12351164Y-15096911D02*
X12360687Y-15115959D01*
X12360687Y-15115959D02*
X12360687Y-15125483D01*
X12360687Y-15125483D02*
X12351164Y-15144530D01*
X12351164Y-15144530D02*
X12341640Y-15154054D01*
X12341640Y-15154054D02*
X12322592Y-15163578D01*
X12322592Y-15163578D02*
X12284497Y-15163578D01*
X12284497Y-15163578D02*
X12265449Y-15173102D01*
X12265449Y-15173102D02*
X12255926Y-15182626D01*
X12255926Y-15182626D02*
X12246402Y-15201673D01*
X12246402Y-15201673D02*
X12246402Y-15239768D01*
X12246402Y-15239768D02*
X12255926Y-15258816D01*
X12255926Y-15258816D02*
X12265449Y-15268340D01*
X12265449Y-15268340D02*
X12284497Y-15277864D01*
X12284497Y-15277864D02*
X12322592Y-15277864D01*
X12322592Y-15277864D02*
X12341640Y-15268340D01*
X12341640Y-15268340D02*
X12351164Y-15258816D01*
X12351164Y-15258816D02*
X12360687Y-15239768D01*
X12360687Y-15239768D02*
X12360687Y-15201673D01*
X12360687Y-15201673D02*
X12351164Y-15182626D01*
X12351164Y-15182626D02*
X12341640Y-15173102D01*
X12341640Y-15173102D02*
X12322592Y-15163578D01*
X12551164Y-15277864D02*
X12436878Y-15277864D01*
X12494021Y-15277864D02*
X12494021Y-15077864D01*
X12494021Y-15077864D02*
X12474973Y-15106435D01*
X12474973Y-15106435D02*
X12455926Y-15125483D01*
X12455926Y-15125483D02*
X12436878Y-15135007D01*
X12627354Y-15077864D02*
X12627354Y-15115959D01*
X12703545Y-15077864D02*
X12703545Y-15115959D01*
X12998783Y-15354054D02*
X12989259Y-15344530D01*
X12989259Y-15344530D02*
X12970211Y-15315959D01*
X12970211Y-15315959D02*
X12960688Y-15296911D01*
X12960688Y-15296911D02*
X12951164Y-15268340D01*
X12951164Y-15268340D02*
X12941640Y-15220721D01*
X12941640Y-15220721D02*
X12941640Y-15182626D01*
X12941640Y-15182626D02*
X12951164Y-15135007D01*
X12951164Y-15135007D02*
X12960688Y-15106435D01*
X12960688Y-15106435D02*
X12970211Y-15087388D01*
X12970211Y-15087388D02*
X12989259Y-15058816D01*
X12989259Y-15058816D02*
X12998783Y-15049292D01*
X13160688Y-15144530D02*
X13160688Y-15277864D01*
X13113068Y-15068340D02*
X13065449Y-15211197D01*
X13065449Y-15211197D02*
X13189259Y-15211197D01*
X13417830Y-15277864D02*
X13417830Y-15077864D01*
X13503545Y-15277864D02*
X13503545Y-15173102D01*
X13503545Y-15173102D02*
X13494021Y-15154054D01*
X13494021Y-15154054D02*
X13474973Y-15144530D01*
X13474973Y-15144530D02*
X13446402Y-15144530D01*
X13446402Y-15144530D02*
X13427354Y-15154054D01*
X13427354Y-15154054D02*
X13417830Y-15163578D01*
X13627354Y-15277864D02*
X13608307Y-15268340D01*
X13608307Y-15268340D02*
X13598783Y-15258816D01*
X13598783Y-15258816D02*
X13589259Y-15239768D01*
X13589259Y-15239768D02*
X13589259Y-15182626D01*
X13589259Y-15182626D02*
X13598783Y-15163578D01*
X13598783Y-15163578D02*
X13608307Y-15154054D01*
X13608307Y-15154054D02*
X13627354Y-15144530D01*
X13627354Y-15144530D02*
X13655926Y-15144530D01*
X13655926Y-15144530D02*
X13674973Y-15154054D01*
X13674973Y-15154054D02*
X13684497Y-15163578D01*
X13684497Y-15163578D02*
X13694021Y-15182626D01*
X13694021Y-15182626D02*
X13694021Y-15239768D01*
X13694021Y-15239768D02*
X13684497Y-15258816D01*
X13684497Y-15258816D02*
X13674973Y-15268340D01*
X13674973Y-15268340D02*
X13655926Y-15277864D01*
X13655926Y-15277864D02*
X13627354Y-15277864D01*
X13808307Y-15277864D02*
X13789259Y-15268340D01*
X13789259Y-15268340D02*
X13779735Y-15249292D01*
X13779735Y-15249292D02*
X13779735Y-15077864D01*
X13960688Y-15268340D02*
X13941640Y-15277864D01*
X13941640Y-15277864D02*
X13903545Y-15277864D01*
X13903545Y-15277864D02*
X13884497Y-15268340D01*
X13884497Y-15268340D02*
X13874973Y-15249292D01*
X13874973Y-15249292D02*
X13874973Y-15173102D01*
X13874973Y-15173102D02*
X13884497Y-15154054D01*
X13884497Y-15154054D02*
X13903545Y-15144530D01*
X13903545Y-15144530D02*
X13941640Y-15144530D01*
X13941640Y-15144530D02*
X13960688Y-15154054D01*
X13960688Y-15154054D02*
X13970211Y-15173102D01*
X13970211Y-15173102D02*
X13970211Y-15192149D01*
X13970211Y-15192149D02*
X13874973Y-15211197D01*
X14046402Y-15268340D02*
X14065450Y-15277864D01*
X14065450Y-15277864D02*
X14103545Y-15277864D01*
X14103545Y-15277864D02*
X14122592Y-15268340D01*
X14122592Y-15268340D02*
X14132116Y-15249292D01*
X14132116Y-15249292D02*
X14132116Y-15239768D01*
X14132116Y-15239768D02*
X14122592Y-15220721D01*
X14122592Y-15220721D02*
X14103545Y-15211197D01*
X14103545Y-15211197D02*
X14074973Y-15211197D01*
X14074973Y-15211197D02*
X14055926Y-15201673D01*
X14055926Y-15201673D02*
X14046402Y-15182626D01*
X14046402Y-15182626D02*
X14046402Y-15173102D01*
X14046402Y-15173102D02*
X14055926Y-15154054D01*
X14055926Y-15154054D02*
X14074973Y-15144530D01*
X14074973Y-15144530D02*
X14103545Y-15144530D01*
X14103545Y-15144530D02*
X14122592Y-15154054D01*
X14198783Y-15354054D02*
X14208307Y-15344530D01*
X14208307Y-15344530D02*
X14227354Y-15315959D01*
X14227354Y-15315959D02*
X14236878Y-15296911D01*
X14236878Y-15296911D02*
X14246402Y-15268340D01*
X14246402Y-15268340D02*
X14255926Y-15220721D01*
X14255926Y-15220721D02*
X14255926Y-15182626D01*
X14255926Y-15182626D02*
X14246402Y-15135007D01*
X14246402Y-15135007D02*
X14236878Y-15106435D01*
X14236878Y-15106435D02*
X14227354Y-15087388D01*
X14227354Y-15087388D02*
X14208307Y-15058816D01*
X14208307Y-15058816D02*
X14198783Y-15049292D01*
X14560688Y-15354054D02*
X14551164Y-15344530D01*
X14551164Y-15344530D02*
X14532116Y-15315959D01*
X14532116Y-15315959D02*
X14522592Y-15296911D01*
X14522592Y-15296911D02*
X14513069Y-15268340D01*
X14513069Y-15268340D02*
X14503545Y-15220721D01*
X14503545Y-15220721D02*
X14503545Y-15182626D01*
X14503545Y-15182626D02*
X14513069Y-15135007D01*
X14513069Y-15135007D02*
X14522592Y-15106435D01*
X14522592Y-15106435D02*
X14532116Y-15087388D01*
X14532116Y-15087388D02*
X14551164Y-15058816D01*
X14551164Y-15058816D02*
X14560688Y-15049292D01*
X14636878Y-15144530D02*
X14636878Y-15277864D01*
X14636878Y-15163578D02*
X14646402Y-15154054D01*
X14646402Y-15154054D02*
X14665450Y-15144530D01*
X14665450Y-15144530D02*
X14694021Y-15144530D01*
X14694021Y-15144530D02*
X14713069Y-15154054D01*
X14713069Y-15154054D02*
X14722592Y-15173102D01*
X14722592Y-15173102D02*
X14722592Y-15277864D01*
X14846402Y-15277864D02*
X14827354Y-15268340D01*
X14827354Y-15268340D02*
X14817831Y-15258816D01*
X14817831Y-15258816D02*
X14808307Y-15239768D01*
X14808307Y-15239768D02*
X14808307Y-15182626D01*
X14808307Y-15182626D02*
X14817831Y-15163578D01*
X14817831Y-15163578D02*
X14827354Y-15154054D01*
X14827354Y-15154054D02*
X14846402Y-15144530D01*
X14846402Y-15144530D02*
X14874973Y-15144530D01*
X14874973Y-15144530D02*
X14894021Y-15154054D01*
X14894021Y-15154054D02*
X14903545Y-15163578D01*
X14903545Y-15163578D02*
X14913069Y-15182626D01*
X14913069Y-15182626D02*
X14913069Y-15239768D01*
X14913069Y-15239768D02*
X14903545Y-15258816D01*
X14903545Y-15258816D02*
X14894021Y-15268340D01*
X14894021Y-15268340D02*
X14874973Y-15277864D01*
X14874973Y-15277864D02*
X14846402Y-15277864D01*
X14970212Y-15144530D02*
X15046402Y-15144530D01*
X14998783Y-15077864D02*
X14998783Y-15249292D01*
X14998783Y-15249292D02*
X15008307Y-15268340D01*
X15008307Y-15268340D02*
X15027354Y-15277864D01*
X15027354Y-15277864D02*
X15046402Y-15277864D01*
X15265450Y-15144530D02*
X15265450Y-15344530D01*
X15265450Y-15154054D02*
X15284497Y-15144530D01*
X15284497Y-15144530D02*
X15322593Y-15144530D01*
X15322593Y-15144530D02*
X15341640Y-15154054D01*
X15341640Y-15154054D02*
X15351164Y-15163578D01*
X15351164Y-15163578D02*
X15360688Y-15182626D01*
X15360688Y-15182626D02*
X15360688Y-15239768D01*
X15360688Y-15239768D02*
X15351164Y-15258816D01*
X15351164Y-15258816D02*
X15341640Y-15268340D01*
X15341640Y-15268340D02*
X15322593Y-15277864D01*
X15322593Y-15277864D02*
X15284497Y-15277864D01*
X15284497Y-15277864D02*
X15265450Y-15268340D01*
X15474973Y-15277864D02*
X15455926Y-15268340D01*
X15455926Y-15268340D02*
X15446402Y-15249292D01*
X15446402Y-15249292D02*
X15446402Y-15077864D01*
X15636878Y-15277864D02*
X15636878Y-15173102D01*
X15636878Y-15173102D02*
X15627354Y-15154054D01*
X15627354Y-15154054D02*
X15608307Y-15144530D01*
X15608307Y-15144530D02*
X15570212Y-15144530D01*
X15570212Y-15144530D02*
X15551164Y-15154054D01*
X15636878Y-15268340D02*
X15617831Y-15277864D01*
X15617831Y-15277864D02*
X15570212Y-15277864D01*
X15570212Y-15277864D02*
X15551164Y-15268340D01*
X15551164Y-15268340D02*
X15541640Y-15249292D01*
X15541640Y-15249292D02*
X15541640Y-15230245D01*
X15541640Y-15230245D02*
X15551164Y-15211197D01*
X15551164Y-15211197D02*
X15570212Y-15201673D01*
X15570212Y-15201673D02*
X15617831Y-15201673D01*
X15617831Y-15201673D02*
X15636878Y-15192149D01*
X15703545Y-15144530D02*
X15779735Y-15144530D01*
X15732116Y-15077864D02*
X15732116Y-15249292D01*
X15732116Y-15249292D02*
X15741640Y-15268340D01*
X15741640Y-15268340D02*
X15760688Y-15277864D01*
X15760688Y-15277864D02*
X15779735Y-15277864D01*
X15922593Y-15268340D02*
X15903545Y-15277864D01*
X15903545Y-15277864D02*
X15865450Y-15277864D01*
X15865450Y-15277864D02*
X15846402Y-15268340D01*
X15846402Y-15268340D02*
X15836878Y-15249292D01*
X15836878Y-15249292D02*
X15836878Y-15173102D01*
X15836878Y-15173102D02*
X15846402Y-15154054D01*
X15846402Y-15154054D02*
X15865450Y-15144530D01*
X15865450Y-15144530D02*
X15903545Y-15144530D01*
X15903545Y-15144530D02*
X15922593Y-15154054D01*
X15922593Y-15154054D02*
X15932116Y-15173102D01*
X15932116Y-15173102D02*
X15932116Y-15192149D01*
X15932116Y-15192149D02*
X15836878Y-15211197D01*
X16103545Y-15277864D02*
X16103545Y-15077864D01*
X16103545Y-15268340D02*
X16084497Y-15277864D01*
X16084497Y-15277864D02*
X16046402Y-15277864D01*
X16046402Y-15277864D02*
X16027354Y-15268340D01*
X16027354Y-15268340D02*
X16017831Y-15258816D01*
X16017831Y-15258816D02*
X16008307Y-15239768D01*
X16008307Y-15239768D02*
X16008307Y-15182626D01*
X16008307Y-15182626D02*
X16017831Y-15163578D01*
X16017831Y-15163578D02*
X16027354Y-15154054D01*
X16027354Y-15154054D02*
X16046402Y-15144530D01*
X16046402Y-15144530D02*
X16084497Y-15144530D01*
X16084497Y-15144530D02*
X16103545Y-15154054D01*
X16179735Y-15354054D02*
X16189259Y-15344530D01*
X16189259Y-15344530D02*
X16208307Y-15315959D01*
X16208307Y-15315959D02*
X16217831Y-15296911D01*
X16217831Y-15296911D02*
X16227354Y-15268340D01*
X16227354Y-15268340D02*
X16236878Y-15220721D01*
X16236878Y-15220721D02*
X16236878Y-15182626D01*
X16236878Y-15182626D02*
X16227354Y-15135007D01*
X16227354Y-15135007D02*
X16217831Y-15106435D01*
X16217831Y-15106435D02*
X16208307Y-15087388D01*
X16208307Y-15087388D02*
X16189259Y-15058816D01*
X16189259Y-15058816D02*
X16179735Y-15049292D01*
X9323720Y-15406380D02*
X9323720Y-15606380D01*
X9223720Y-15506380D02*
X9423720Y-15506380D01*
X9665449Y-15397864D02*
X9789259Y-15397864D01*
X9789259Y-15397864D02*
X9722592Y-15474054D01*
X9722592Y-15474054D02*
X9751164Y-15474054D01*
X9751164Y-15474054D02*
X9770211Y-15483578D01*
X9770211Y-15483578D02*
X9779735Y-15493102D01*
X9779735Y-15493102D02*
X9789259Y-15512149D01*
X9789259Y-15512149D02*
X9789259Y-15559768D01*
X9789259Y-15559768D02*
X9779735Y-15578816D01*
X9779735Y-15578816D02*
X9770211Y-15588340D01*
X9770211Y-15588340D02*
X9751164Y-15597864D01*
X9751164Y-15597864D02*
X9694021Y-15597864D01*
X9694021Y-15597864D02*
X9674973Y-15588340D01*
X9674973Y-15588340D02*
X9665449Y-15578816D01*
X9874973Y-15578816D02*
X9884497Y-15588340D01*
X9884497Y-15588340D02*
X9874973Y-15597864D01*
X9874973Y-15597864D02*
X9865449Y-15588340D01*
X9865449Y-15588340D02*
X9874973Y-15578816D01*
X9874973Y-15578816D02*
X9874973Y-15597864D01*
X9960687Y-15416911D02*
X9970211Y-15407388D01*
X9970211Y-15407388D02*
X9989259Y-15397864D01*
X9989259Y-15397864D02*
X10036878Y-15397864D01*
X10036878Y-15397864D02*
X10055925Y-15407388D01*
X10055925Y-15407388D02*
X10065449Y-15416911D01*
X10065449Y-15416911D02*
X10074973Y-15435959D01*
X10074973Y-15435959D02*
X10074973Y-15455007D01*
X10074973Y-15455007D02*
X10065449Y-15483578D01*
X10065449Y-15483578D02*
X9951164Y-15597864D01*
X9951164Y-15597864D02*
X10074973Y-15597864D01*
X10198783Y-15397864D02*
X10217830Y-15397864D01*
X10217830Y-15397864D02*
X10236878Y-15407388D01*
X10236878Y-15407388D02*
X10246402Y-15416911D01*
X10246402Y-15416911D02*
X10255925Y-15435959D01*
X10255925Y-15435959D02*
X10265449Y-15474054D01*
X10265449Y-15474054D02*
X10265449Y-15521673D01*
X10265449Y-15521673D02*
X10255925Y-15559768D01*
X10255925Y-15559768D02*
X10246402Y-15578816D01*
X10246402Y-15578816D02*
X10236878Y-15588340D01*
X10236878Y-15588340D02*
X10217830Y-15597864D01*
X10217830Y-15597864D02*
X10198783Y-15597864D01*
X10198783Y-15597864D02*
X10179735Y-15588340D01*
X10179735Y-15588340D02*
X10170211Y-15578816D01*
X10170211Y-15578816D02*
X10160687Y-15559768D01*
X10160687Y-15559768D02*
X10151164Y-15521673D01*
X10151164Y-15521673D02*
X10151164Y-15474054D01*
X10151164Y-15474054D02*
X10160687Y-15435959D01*
X10160687Y-15435959D02*
X10170211Y-15416911D01*
X10170211Y-15416911D02*
X10179735Y-15407388D01*
X10179735Y-15407388D02*
X10198783Y-15397864D01*
X10389259Y-15397864D02*
X10408306Y-15397864D01*
X10408306Y-15397864D02*
X10427354Y-15407388D01*
X10427354Y-15407388D02*
X10436878Y-15416911D01*
X10436878Y-15416911D02*
X10446402Y-15435959D01*
X10446402Y-15435959D02*
X10455925Y-15474054D01*
X10455925Y-15474054D02*
X10455925Y-15521673D01*
X10455925Y-15521673D02*
X10446402Y-15559768D01*
X10446402Y-15559768D02*
X10436878Y-15578816D01*
X10436878Y-15578816D02*
X10427354Y-15588340D01*
X10427354Y-15588340D02*
X10408306Y-15597864D01*
X10408306Y-15597864D02*
X10389259Y-15597864D01*
X10389259Y-15597864D02*
X10370211Y-15588340D01*
X10370211Y-15588340D02*
X10360687Y-15578816D01*
X10360687Y-15578816D02*
X10351164Y-15559768D01*
X10351164Y-15559768D02*
X10341640Y-15521673D01*
X10341640Y-15521673D02*
X10341640Y-15474054D01*
X10341640Y-15474054D02*
X10351164Y-15435959D01*
X10351164Y-15435959D02*
X10360687Y-15416911D01*
X10360687Y-15416911D02*
X10370211Y-15407388D01*
X10370211Y-15407388D02*
X10389259Y-15397864D01*
X10541640Y-15597864D02*
X10541640Y-15464530D01*
X10541640Y-15483578D02*
X10551164Y-15474054D01*
X10551164Y-15474054D02*
X10570211Y-15464530D01*
X10570211Y-15464530D02*
X10598783Y-15464530D01*
X10598783Y-15464530D02*
X10617830Y-15474054D01*
X10617830Y-15474054D02*
X10627354Y-15493102D01*
X10627354Y-15493102D02*
X10627354Y-15597864D01*
X10627354Y-15493102D02*
X10636878Y-15474054D01*
X10636878Y-15474054D02*
X10655925Y-15464530D01*
X10655925Y-15464530D02*
X10684497Y-15464530D01*
X10684497Y-15464530D02*
X10703545Y-15474054D01*
X10703545Y-15474054D02*
X10713068Y-15493102D01*
X10713068Y-15493102D02*
X10713068Y-15597864D01*
X10808306Y-15597864D02*
X10808306Y-15464530D01*
X10808306Y-15483578D02*
X10817830Y-15474054D01*
X10817830Y-15474054D02*
X10836878Y-15464530D01*
X10836878Y-15464530D02*
X10865449Y-15464530D01*
X10865449Y-15464530D02*
X10884497Y-15474054D01*
X10884497Y-15474054D02*
X10894021Y-15493102D01*
X10894021Y-15493102D02*
X10894021Y-15597864D01*
X10894021Y-15493102D02*
X10903545Y-15474054D01*
X10903545Y-15474054D02*
X10922592Y-15464530D01*
X10922592Y-15464530D02*
X10951164Y-15464530D01*
X10951164Y-15464530D02*
X10970211Y-15474054D01*
X10970211Y-15474054D02*
X10979735Y-15493102D01*
X10979735Y-15493102D02*
X10979735Y-15597864D01*
X11370211Y-15388340D02*
X11198783Y-15645483D01*
X11627354Y-15397864D02*
X11646402Y-15397864D01*
X11646402Y-15397864D02*
X11665449Y-15407388D01*
X11665449Y-15407388D02*
X11674973Y-15416911D01*
X11674973Y-15416911D02*
X11684497Y-15435959D01*
X11684497Y-15435959D02*
X11694021Y-15474054D01*
X11694021Y-15474054D02*
X11694021Y-15521673D01*
X11694021Y-15521673D02*
X11684497Y-15559768D01*
X11684497Y-15559768D02*
X11674973Y-15578816D01*
X11674973Y-15578816D02*
X11665449Y-15588340D01*
X11665449Y-15588340D02*
X11646402Y-15597864D01*
X11646402Y-15597864D02*
X11627354Y-15597864D01*
X11627354Y-15597864D02*
X11608306Y-15588340D01*
X11608306Y-15588340D02*
X11598783Y-15578816D01*
X11598783Y-15578816D02*
X11589259Y-15559768D01*
X11589259Y-15559768D02*
X11579735Y-15521673D01*
X11579735Y-15521673D02*
X11579735Y-15474054D01*
X11579735Y-15474054D02*
X11589259Y-15435959D01*
X11589259Y-15435959D02*
X11598783Y-15416911D01*
X11598783Y-15416911D02*
X11608306Y-15407388D01*
X11608306Y-15407388D02*
X11627354Y-15397864D01*
X11779735Y-15578816D02*
X11789259Y-15588340D01*
X11789259Y-15588340D02*
X11779735Y-15597864D01*
X11779735Y-15597864D02*
X11770211Y-15588340D01*
X11770211Y-15588340D02*
X11779735Y-15578816D01*
X11779735Y-15578816D02*
X11779735Y-15597864D01*
X11979735Y-15597864D02*
X11865449Y-15597864D01*
X11922592Y-15597864D02*
X11922592Y-15397864D01*
X11922592Y-15397864D02*
X11903545Y-15426435D01*
X11903545Y-15426435D02*
X11884497Y-15445483D01*
X11884497Y-15445483D02*
X11865449Y-15455007D01*
X12055926Y-15416911D02*
X12065449Y-15407388D01*
X12065449Y-15407388D02*
X12084497Y-15397864D01*
X12084497Y-15397864D02*
X12132116Y-15397864D01*
X12132116Y-15397864D02*
X12151164Y-15407388D01*
X12151164Y-15407388D02*
X12160687Y-15416911D01*
X12160687Y-15416911D02*
X12170211Y-15435959D01*
X12170211Y-15435959D02*
X12170211Y-15455007D01*
X12170211Y-15455007D02*
X12160687Y-15483578D01*
X12160687Y-15483578D02*
X12046402Y-15597864D01*
X12046402Y-15597864D02*
X12170211Y-15597864D01*
X12341640Y-15397864D02*
X12303545Y-15397864D01*
X12303545Y-15397864D02*
X12284497Y-15407388D01*
X12284497Y-15407388D02*
X12274973Y-15416911D01*
X12274973Y-15416911D02*
X12255926Y-15445483D01*
X12255926Y-15445483D02*
X12246402Y-15483578D01*
X12246402Y-15483578D02*
X12246402Y-15559768D01*
X12246402Y-15559768D02*
X12255926Y-15578816D01*
X12255926Y-15578816D02*
X12265449Y-15588340D01*
X12265449Y-15588340D02*
X12284497Y-15597864D01*
X12284497Y-15597864D02*
X12322592Y-15597864D01*
X12322592Y-15597864D02*
X12341640Y-15588340D01*
X12341640Y-15588340D02*
X12351164Y-15578816D01*
X12351164Y-15578816D02*
X12360687Y-15559768D01*
X12360687Y-15559768D02*
X12360687Y-15512149D01*
X12360687Y-15512149D02*
X12351164Y-15493102D01*
X12351164Y-15493102D02*
X12341640Y-15483578D01*
X12341640Y-15483578D02*
X12322592Y-15474054D01*
X12322592Y-15474054D02*
X12284497Y-15474054D01*
X12284497Y-15474054D02*
X12265449Y-15483578D01*
X12265449Y-15483578D02*
X12255926Y-15493102D01*
X12255926Y-15493102D02*
X12246402Y-15512149D01*
X12484497Y-15397864D02*
X12503545Y-15397864D01*
X12503545Y-15397864D02*
X12522592Y-15407388D01*
X12522592Y-15407388D02*
X12532116Y-15416911D01*
X12532116Y-15416911D02*
X12541640Y-15435959D01*
X12541640Y-15435959D02*
X12551164Y-15474054D01*
X12551164Y-15474054D02*
X12551164Y-15521673D01*
X12551164Y-15521673D02*
X12541640Y-15559768D01*
X12541640Y-15559768D02*
X12532116Y-15578816D01*
X12532116Y-15578816D02*
X12522592Y-15588340D01*
X12522592Y-15588340D02*
X12503545Y-15597864D01*
X12503545Y-15597864D02*
X12484497Y-15597864D01*
X12484497Y-15597864D02*
X12465449Y-15588340D01*
X12465449Y-15588340D02*
X12455926Y-15578816D01*
X12455926Y-15578816D02*
X12446402Y-15559768D01*
X12446402Y-15559768D02*
X12436878Y-15521673D01*
X12436878Y-15521673D02*
X12436878Y-15474054D01*
X12436878Y-15474054D02*
X12446402Y-15435959D01*
X12446402Y-15435959D02*
X12455926Y-15416911D01*
X12455926Y-15416911D02*
X12465449Y-15407388D01*
X12465449Y-15407388D02*
X12484497Y-15397864D01*
X12627354Y-15397864D02*
X12627354Y-15435959D01*
X12703545Y-15397864D02*
X12703545Y-15435959D01*
X12998783Y-15674054D02*
X12989259Y-15664530D01*
X12989259Y-15664530D02*
X12970211Y-15635959D01*
X12970211Y-15635959D02*
X12960688Y-15616911D01*
X12960688Y-15616911D02*
X12951164Y-15588340D01*
X12951164Y-15588340D02*
X12941640Y-15540721D01*
X12941640Y-15540721D02*
X12941640Y-15502626D01*
X12941640Y-15502626D02*
X12951164Y-15455007D01*
X12951164Y-15455007D02*
X12960688Y-15426435D01*
X12960688Y-15426435D02*
X12970211Y-15407388D01*
X12970211Y-15407388D02*
X12989259Y-15378816D01*
X12989259Y-15378816D02*
X12998783Y-15369292D01*
X13160688Y-15464530D02*
X13160688Y-15597864D01*
X13113068Y-15388340D02*
X13065449Y-15531197D01*
X13065449Y-15531197D02*
X13189259Y-15531197D01*
X13417830Y-15597864D02*
X13417830Y-15397864D01*
X13503545Y-15597864D02*
X13503545Y-15493102D01*
X13503545Y-15493102D02*
X13494021Y-15474054D01*
X13494021Y-15474054D02*
X13474973Y-15464530D01*
X13474973Y-15464530D02*
X13446402Y-15464530D01*
X13446402Y-15464530D02*
X13427354Y-15474054D01*
X13427354Y-15474054D02*
X13417830Y-15483578D01*
X13627354Y-15597864D02*
X13608307Y-15588340D01*
X13608307Y-15588340D02*
X13598783Y-15578816D01*
X13598783Y-15578816D02*
X13589259Y-15559768D01*
X13589259Y-15559768D02*
X13589259Y-15502626D01*
X13589259Y-15502626D02*
X13598783Y-15483578D01*
X13598783Y-15483578D02*
X13608307Y-15474054D01*
X13608307Y-15474054D02*
X13627354Y-15464530D01*
X13627354Y-15464530D02*
X13655926Y-15464530D01*
X13655926Y-15464530D02*
X13674973Y-15474054D01*
X13674973Y-15474054D02*
X13684497Y-15483578D01*
X13684497Y-15483578D02*
X13694021Y-15502626D01*
X13694021Y-15502626D02*
X13694021Y-15559768D01*
X13694021Y-15559768D02*
X13684497Y-15578816D01*
X13684497Y-15578816D02*
X13674973Y-15588340D01*
X13674973Y-15588340D02*
X13655926Y-15597864D01*
X13655926Y-15597864D02*
X13627354Y-15597864D01*
X13808307Y-15597864D02*
X13789259Y-15588340D01*
X13789259Y-15588340D02*
X13779735Y-15569292D01*
X13779735Y-15569292D02*
X13779735Y-15397864D01*
X13960688Y-15588340D02*
X13941640Y-15597864D01*
X13941640Y-15597864D02*
X13903545Y-15597864D01*
X13903545Y-15597864D02*
X13884497Y-15588340D01*
X13884497Y-15588340D02*
X13874973Y-15569292D01*
X13874973Y-15569292D02*
X13874973Y-15493102D01*
X13874973Y-15493102D02*
X13884497Y-15474054D01*
X13884497Y-15474054D02*
X13903545Y-15464530D01*
X13903545Y-15464530D02*
X13941640Y-15464530D01*
X13941640Y-15464530D02*
X13960688Y-15474054D01*
X13960688Y-15474054D02*
X13970211Y-15493102D01*
X13970211Y-15493102D02*
X13970211Y-15512149D01*
X13970211Y-15512149D02*
X13874973Y-15531197D01*
X14046402Y-15588340D02*
X14065450Y-15597864D01*
X14065450Y-15597864D02*
X14103545Y-15597864D01*
X14103545Y-15597864D02*
X14122592Y-15588340D01*
X14122592Y-15588340D02*
X14132116Y-15569292D01*
X14132116Y-15569292D02*
X14132116Y-15559768D01*
X14132116Y-15559768D02*
X14122592Y-15540721D01*
X14122592Y-15540721D02*
X14103545Y-15531197D01*
X14103545Y-15531197D02*
X14074973Y-15531197D01*
X14074973Y-15531197D02*
X14055926Y-15521673D01*
X14055926Y-15521673D02*
X14046402Y-15502626D01*
X14046402Y-15502626D02*
X14046402Y-15493102D01*
X14046402Y-15493102D02*
X14055926Y-15474054D01*
X14055926Y-15474054D02*
X14074973Y-15464530D01*
X14074973Y-15464530D02*
X14103545Y-15464530D01*
X14103545Y-15464530D02*
X14122592Y-15474054D01*
X14198783Y-15674054D02*
X14208307Y-15664530D01*
X14208307Y-15664530D02*
X14227354Y-15635959D01*
X14227354Y-15635959D02*
X14236878Y-15616911D01*
X14236878Y-15616911D02*
X14246402Y-15588340D01*
X14246402Y-15588340D02*
X14255926Y-15540721D01*
X14255926Y-15540721D02*
X14255926Y-15502626D01*
X14255926Y-15502626D02*
X14246402Y-15455007D01*
X14246402Y-15455007D02*
X14236878Y-15426435D01*
X14236878Y-15426435D02*
X14227354Y-15407388D01*
X14227354Y-15407388D02*
X14208307Y-15378816D01*
X14208307Y-15378816D02*
X14198783Y-15369292D01*
X14560688Y-15674054D02*
X14551164Y-15664530D01*
X14551164Y-15664530D02*
X14532116Y-15635959D01*
X14532116Y-15635959D02*
X14522592Y-15616911D01*
X14522592Y-15616911D02*
X14513069Y-15588340D01*
X14513069Y-15588340D02*
X14503545Y-15540721D01*
X14503545Y-15540721D02*
X14503545Y-15502626D01*
X14503545Y-15502626D02*
X14513069Y-15455007D01*
X14513069Y-15455007D02*
X14522592Y-15426435D01*
X14522592Y-15426435D02*
X14532116Y-15407388D01*
X14532116Y-15407388D02*
X14551164Y-15378816D01*
X14551164Y-15378816D02*
X14560688Y-15369292D01*
X14636878Y-15464530D02*
X14636878Y-15597864D01*
X14636878Y-15483578D02*
X14646402Y-15474054D01*
X14646402Y-15474054D02*
X14665450Y-15464530D01*
X14665450Y-15464530D02*
X14694021Y-15464530D01*
X14694021Y-15464530D02*
X14713069Y-15474054D01*
X14713069Y-15474054D02*
X14722592Y-15493102D01*
X14722592Y-15493102D02*
X14722592Y-15597864D01*
X14846402Y-15597864D02*
X14827354Y-15588340D01*
X14827354Y-15588340D02*
X14817831Y-15578816D01*
X14817831Y-15578816D02*
X14808307Y-15559768D01*
X14808307Y-15559768D02*
X14808307Y-15502626D01*
X14808307Y-15502626D02*
X14817831Y-15483578D01*
X14817831Y-15483578D02*
X14827354Y-15474054D01*
X14827354Y-15474054D02*
X14846402Y-15464530D01*
X14846402Y-15464530D02*
X14874973Y-15464530D01*
X14874973Y-15464530D02*
X14894021Y-15474054D01*
X14894021Y-15474054D02*
X14903545Y-15483578D01*
X14903545Y-15483578D02*
X14913069Y-15502626D01*
X14913069Y-15502626D02*
X14913069Y-15559768D01*
X14913069Y-15559768D02*
X14903545Y-15578816D01*
X14903545Y-15578816D02*
X14894021Y-15588340D01*
X14894021Y-15588340D02*
X14874973Y-15597864D01*
X14874973Y-15597864D02*
X14846402Y-15597864D01*
X14970212Y-15464530D02*
X15046402Y-15464530D01*
X14998783Y-15397864D02*
X14998783Y-15569292D01*
X14998783Y-15569292D02*
X15008307Y-15588340D01*
X15008307Y-15588340D02*
X15027354Y-15597864D01*
X15027354Y-15597864D02*
X15046402Y-15597864D01*
X15265450Y-15464530D02*
X15265450Y-15664530D01*
X15265450Y-15474054D02*
X15284497Y-15464530D01*
X15284497Y-15464530D02*
X15322593Y-15464530D01*
X15322593Y-15464530D02*
X15341640Y-15474054D01*
X15341640Y-15474054D02*
X15351164Y-15483578D01*
X15351164Y-15483578D02*
X15360688Y-15502626D01*
X15360688Y-15502626D02*
X15360688Y-15559768D01*
X15360688Y-15559768D02*
X15351164Y-15578816D01*
X15351164Y-15578816D02*
X15341640Y-15588340D01*
X15341640Y-15588340D02*
X15322593Y-15597864D01*
X15322593Y-15597864D02*
X15284497Y-15597864D01*
X15284497Y-15597864D02*
X15265450Y-15588340D01*
X15474973Y-15597864D02*
X15455926Y-15588340D01*
X15455926Y-15588340D02*
X15446402Y-15569292D01*
X15446402Y-15569292D02*
X15446402Y-15397864D01*
X15636878Y-15597864D02*
X15636878Y-15493102D01*
X15636878Y-15493102D02*
X15627354Y-15474054D01*
X15627354Y-15474054D02*
X15608307Y-15464530D01*
X15608307Y-15464530D02*
X15570212Y-15464530D01*
X15570212Y-15464530D02*
X15551164Y-15474054D01*
X15636878Y-15588340D02*
X15617831Y-15597864D01*
X15617831Y-15597864D02*
X15570212Y-15597864D01*
X15570212Y-15597864D02*
X15551164Y-15588340D01*
X15551164Y-15588340D02*
X15541640Y-15569292D01*
X15541640Y-15569292D02*
X15541640Y-15550245D01*
X15541640Y-15550245D02*
X15551164Y-15531197D01*
X15551164Y-15531197D02*
X15570212Y-15521673D01*
X15570212Y-15521673D02*
X15617831Y-15521673D01*
X15617831Y-15521673D02*
X15636878Y-15512149D01*
X15703545Y-15464530D02*
X15779735Y-15464530D01*
X15732116Y-15397864D02*
X15732116Y-15569292D01*
X15732116Y-15569292D02*
X15741640Y-15588340D01*
X15741640Y-15588340D02*
X15760688Y-15597864D01*
X15760688Y-15597864D02*
X15779735Y-15597864D01*
X15922593Y-15588340D02*
X15903545Y-15597864D01*
X15903545Y-15597864D02*
X15865450Y-15597864D01*
X15865450Y-15597864D02*
X15846402Y-15588340D01*
X15846402Y-15588340D02*
X15836878Y-15569292D01*
X15836878Y-15569292D02*
X15836878Y-15493102D01*
X15836878Y-15493102D02*
X15846402Y-15474054D01*
X15846402Y-15474054D02*
X15865450Y-15464530D01*
X15865450Y-15464530D02*
X15903545Y-15464530D01*
X15903545Y-15464530D02*
X15922593Y-15474054D01*
X15922593Y-15474054D02*
X15932116Y-15493102D01*
X15932116Y-15493102D02*
X15932116Y-15512149D01*
X15932116Y-15512149D02*
X15836878Y-15531197D01*
X16103545Y-15597864D02*
X16103545Y-15397864D01*
X16103545Y-15588340D02*
X16084497Y-15597864D01*
X16084497Y-15597864D02*
X16046402Y-15597864D01*
X16046402Y-15597864D02*
X16027354Y-15588340D01*
X16027354Y-15588340D02*
X16017831Y-15578816D01*
X16017831Y-15578816D02*
X16008307Y-15559768D01*
X16008307Y-15559768D02*
X16008307Y-15502626D01*
X16008307Y-15502626D02*
X16017831Y-15483578D01*
X16017831Y-15483578D02*
X16027354Y-15474054D01*
X16027354Y-15474054D02*
X16046402Y-15464530D01*
X16046402Y-15464530D02*
X16084497Y-15464530D01*
X16084497Y-15464530D02*
X16103545Y-15474054D01*
X16179735Y-15674054D02*
X16189259Y-15664530D01*
X16189259Y-15664530D02*
X16208307Y-15635959D01*
X16208307Y-15635959D02*
X16217831Y-15616911D01*
X16217831Y-15616911D02*
X16227354Y-15588340D01*
X16227354Y-15588340D02*
X16236878Y-15540721D01*
X16236878Y-15540721D02*
X16236878Y-15502626D01*
X16236878Y-15502626D02*
X16227354Y-15455007D01*
X16227354Y-15455007D02*
X16217831Y-15426435D01*
X16217831Y-15426435D02*
X16208307Y-15407388D01*
X16208307Y-15407388D02*
X16189259Y-15378816D01*
X16189259Y-15378816D02*
X16179735Y-15369292D01*
M02*
