G04 #@! TF.GenerationSoftware,KiCad,Pcbnew,7.0.5*
G04 #@! TF.CreationDate,2023-08-03T15:05:36+02:00*
G04 #@! TF.ProjectId,Siguelineas,53696775-656c-4696-9e65-61732e6b6963,rev?*
G04 #@! TF.SameCoordinates,Original*
G04 #@! TF.FileFunction,Legend,Top*
G04 #@! TF.FilePolarity,Positive*
%FSLAX46Y46*%
G04 Gerber Fmt 4.6, Leading zero omitted, Abs format (unit mm)*
G04 Created by KiCad (PCBNEW 7.0.5) date 2023-08-03 15:05:36*
%MOMM*%
%LPD*%
G01*
G04 APERTURE LIST*
G04 Aperture macros list*
%AMRoundRect*
0 Rectangle with rounded corners*
0 $1 Rounding radius*
0 $2 $3 $4 $5 $6 $7 $8 $9 X,Y pos of 4 corners*
0 Add a 4 corners polygon primitive as box body*
4,1,4,$2,$3,$4,$5,$6,$7,$8,$9,$2,$3,0*
0 Add four circle primitives for the rounded corners*
1,1,$1+$1,$2,$3*
1,1,$1+$1,$4,$5*
1,1,$1+$1,$6,$7*
1,1,$1+$1,$8,$9*
0 Add four rect primitives between the rounded corners*
20,1,$1+$1,$2,$3,$4,$5,0*
20,1,$1+$1,$4,$5,$6,$7,0*
20,1,$1+$1,$6,$7,$8,$9,0*
20,1,$1+$1,$8,$9,$2,$3,0*%
G04 Aperture macros list end*
%ADD10C,0.200000*%
%ADD11C,0.150000*%
%ADD12C,0.175000*%
%ADD13C,0.300000*%
%ADD14C,0.250000*%
%ADD15C,0.127000*%
%ADD16C,0.120000*%
%ADD17C,3.000000*%
%ADD18R,2.000000X2.000000*%
%ADD19C,2.000000*%
%ADD20C,3.800000*%
%ADD21R,1.700000X1.700000*%
%ADD22O,1.700000X1.700000*%
%ADD23RoundRect,0.150000X-0.150000X0.587500X-0.150000X-0.587500X0.150000X-0.587500X0.150000X0.587500X0*%
%ADD24C,3.200000*%
%ADD25C,5.600000*%
%ADD26RoundRect,0.250000X-0.625000X0.400000X-0.625000X-0.400000X0.625000X-0.400000X0.625000X0.400000X0*%
%ADD27RoundRect,0.250001X-0.462499X-0.624999X0.462499X-0.624999X0.462499X0.624999X-0.462499X0.624999X0*%
%ADD28RoundRect,0.150000X-0.587500X-0.150000X0.587500X-0.150000X0.587500X0.150000X-0.587500X0.150000X0*%
%ADD29O,2.200000X3.500000*%
%ADD30R,1.500000X2.500000*%
%ADD31O,1.500000X2.500000*%
%ADD32RoundRect,0.250000X0.400000X0.625000X-0.400000X0.625000X-0.400000X-0.625000X0.400000X-0.625000X0*%
%ADD33C,2.200000*%
%ADD34RoundRect,0.250000X-0.350000X-0.625000X0.350000X-0.625000X0.350000X0.625000X-0.350000X0.625000X0*%
%ADD35O,1.200000X1.750000*%
%ADD36R,0.610000X2.000000*%
%ADD37R,2.680000X3.600000*%
%ADD38RoundRect,0.250000X-0.400000X-0.625000X0.400000X-0.625000X0.400000X0.625000X-0.400000X0.625000X0*%
%ADD39O,2.500000X2.000000*%
%ADD40R,3.800000X3.800000*%
G04 APERTURE END LIST*
D10*
X169573400Y-105006400D02*
X169573400Y-117006400D01*
X182073400Y-118506400D02*
X182073400Y-103506400D01*
X182073400Y-103506400D02*
X185573400Y-103506400D01*
X185573400Y-103506400D02*
X185573400Y-102006400D01*
X169573400Y-117006400D02*
X182073400Y-117006400D01*
X193573400Y-102006400D02*
G75*
G03*
X185573400Y-102006400I-4000000J0D01*
G01*
X185573400Y-120006400D02*
X185573400Y-118506400D01*
X185573400Y-120006400D02*
G75*
G03*
X193573400Y-120006400I4000000J0D01*
G01*
X182073400Y-105006400D02*
X169573400Y-105006400D01*
X185573400Y-118506400D02*
X182073400Y-118506400D01*
X103097600Y-118540400D02*
X103097600Y-120040400D01*
X95097600Y-120040400D02*
G75*
G03*
X103097600Y-120040400I4000000J0D01*
G01*
X106597600Y-118540400D02*
X103097600Y-118540400D01*
X103097600Y-102040400D02*
X103097600Y-103540400D01*
X119097600Y-117040400D02*
X119097600Y-105040400D01*
X106597600Y-117040400D02*
X119097600Y-117040400D01*
D11*
X113284000Y-118770300D02*
X178284000Y-118770300D01*
X178284000Y-137261700D01*
X113284000Y-137261700D01*
X113284000Y-118770300D01*
X129283400Y-86842600D02*
X159283400Y-86842600D01*
X159283400Y-116842600D01*
X129283400Y-116842600D01*
X129283400Y-86842600D01*
D10*
X119097600Y-105040400D02*
X106597600Y-105040400D01*
X103097600Y-102040400D02*
G75*
G03*
X95097600Y-102040400I-4000000J0D01*
G01*
X106597600Y-103540400D02*
X106597600Y-118540400D01*
X103097600Y-103540400D02*
X106597600Y-103540400D01*
D12*
X95554278Y-58433595D02*
X96049516Y-58433595D01*
X96049516Y-58433595D02*
X95782850Y-58738357D01*
X95782850Y-58738357D02*
X95897135Y-58738357D01*
X95897135Y-58738357D02*
X95973326Y-58776452D01*
X95973326Y-58776452D02*
X96011421Y-58814547D01*
X96011421Y-58814547D02*
X96049516Y-58890738D01*
X96049516Y-58890738D02*
X96049516Y-59081214D01*
X96049516Y-59081214D02*
X96011421Y-59157404D01*
X96011421Y-59157404D02*
X95973326Y-59195500D01*
X95973326Y-59195500D02*
X95897135Y-59233595D01*
X95897135Y-59233595D02*
X95668564Y-59233595D01*
X95668564Y-59233595D02*
X95592373Y-59195500D01*
X95592373Y-59195500D02*
X95554278Y-59157404D01*
X96392374Y-59157404D02*
X96430469Y-59195500D01*
X96430469Y-59195500D02*
X96392374Y-59233595D01*
X96392374Y-59233595D02*
X96354278Y-59195500D01*
X96354278Y-59195500D02*
X96392374Y-59157404D01*
X96392374Y-59157404D02*
X96392374Y-59233595D01*
X96697135Y-58433595D02*
X97192373Y-58433595D01*
X97192373Y-58433595D02*
X96925707Y-58738357D01*
X96925707Y-58738357D02*
X97039992Y-58738357D01*
X97039992Y-58738357D02*
X97116183Y-58776452D01*
X97116183Y-58776452D02*
X97154278Y-58814547D01*
X97154278Y-58814547D02*
X97192373Y-58890738D01*
X97192373Y-58890738D02*
X97192373Y-59081214D01*
X97192373Y-59081214D02*
X97154278Y-59157404D01*
X97154278Y-59157404D02*
X97116183Y-59195500D01*
X97116183Y-59195500D02*
X97039992Y-59233595D01*
X97039992Y-59233595D02*
X96811421Y-59233595D01*
X96811421Y-59233595D02*
X96735230Y-59195500D01*
X96735230Y-59195500D02*
X96697135Y-59157404D01*
X97420945Y-58433595D02*
X97687612Y-59233595D01*
X97687612Y-59233595D02*
X97954278Y-58433595D01*
X96201897Y-61047690D02*
X96125707Y-61009595D01*
X96125707Y-61009595D02*
X96011421Y-61009595D01*
X96011421Y-61009595D02*
X95897135Y-61047690D01*
X95897135Y-61047690D02*
X95820945Y-61123880D01*
X95820945Y-61123880D02*
X95782850Y-61200071D01*
X95782850Y-61200071D02*
X95744754Y-61352452D01*
X95744754Y-61352452D02*
X95744754Y-61466738D01*
X95744754Y-61466738D02*
X95782850Y-61619119D01*
X95782850Y-61619119D02*
X95820945Y-61695309D01*
X95820945Y-61695309D02*
X95897135Y-61771500D01*
X95897135Y-61771500D02*
X96011421Y-61809595D01*
X96011421Y-61809595D02*
X96087612Y-61809595D01*
X96087612Y-61809595D02*
X96201897Y-61771500D01*
X96201897Y-61771500D02*
X96239993Y-61733404D01*
X96239993Y-61733404D02*
X96239993Y-61466738D01*
X96239993Y-61466738D02*
X96087612Y-61466738D01*
X96582850Y-61809595D02*
X96582850Y-61009595D01*
X96582850Y-61009595D02*
X97039993Y-61809595D01*
X97039993Y-61809595D02*
X97039993Y-61009595D01*
X97420945Y-61809595D02*
X97420945Y-61009595D01*
X97420945Y-61009595D02*
X97611421Y-61009595D01*
X97611421Y-61009595D02*
X97725707Y-61047690D01*
X97725707Y-61047690D02*
X97801897Y-61123880D01*
X97801897Y-61123880D02*
X97839992Y-61200071D01*
X97839992Y-61200071D02*
X97878088Y-61352452D01*
X97878088Y-61352452D02*
X97878088Y-61466738D01*
X97878088Y-61466738D02*
X97839992Y-61619119D01*
X97839992Y-61619119D02*
X97801897Y-61695309D01*
X97801897Y-61695309D02*
X97725707Y-61771500D01*
X97725707Y-61771500D02*
X97611421Y-61809595D01*
X97611421Y-61809595D02*
X97420945Y-61809595D01*
X95973325Y-64347500D02*
X96087611Y-64385595D01*
X96087611Y-64385595D02*
X96278087Y-64385595D01*
X96278087Y-64385595D02*
X96354278Y-64347500D01*
X96354278Y-64347500D02*
X96392373Y-64309404D01*
X96392373Y-64309404D02*
X96430468Y-64233214D01*
X96430468Y-64233214D02*
X96430468Y-64157023D01*
X96430468Y-64157023D02*
X96392373Y-64080833D01*
X96392373Y-64080833D02*
X96354278Y-64042738D01*
X96354278Y-64042738D02*
X96278087Y-64004642D01*
X96278087Y-64004642D02*
X96125706Y-63966547D01*
X96125706Y-63966547D02*
X96049516Y-63928452D01*
X96049516Y-63928452D02*
X96011421Y-63890357D01*
X96011421Y-63890357D02*
X95973325Y-63814166D01*
X95973325Y-63814166D02*
X95973325Y-63737976D01*
X95973325Y-63737976D02*
X96011421Y-63661785D01*
X96011421Y-63661785D02*
X96049516Y-63623690D01*
X96049516Y-63623690D02*
X96125706Y-63585595D01*
X96125706Y-63585595D02*
X96316183Y-63585595D01*
X96316183Y-63585595D02*
X96430468Y-63623690D01*
X97230469Y-64309404D02*
X97192373Y-64347500D01*
X97192373Y-64347500D02*
X97078088Y-64385595D01*
X97078088Y-64385595D02*
X97001897Y-64385595D01*
X97001897Y-64385595D02*
X96887611Y-64347500D01*
X96887611Y-64347500D02*
X96811421Y-64271309D01*
X96811421Y-64271309D02*
X96773326Y-64195119D01*
X96773326Y-64195119D02*
X96735230Y-64042738D01*
X96735230Y-64042738D02*
X96735230Y-63928452D01*
X96735230Y-63928452D02*
X96773326Y-63776071D01*
X96773326Y-63776071D02*
X96811421Y-63699880D01*
X96811421Y-63699880D02*
X96887611Y-63623690D01*
X96887611Y-63623690D02*
X97001897Y-63585595D01*
X97001897Y-63585595D02*
X97078088Y-63585595D01*
X97078088Y-63585595D02*
X97192373Y-63623690D01*
X97192373Y-63623690D02*
X97230469Y-63661785D01*
X97954278Y-64385595D02*
X97573326Y-64385595D01*
X97573326Y-64385595D02*
X97573326Y-63585595D01*
X95935230Y-66923500D02*
X96049516Y-66961595D01*
X96049516Y-66961595D02*
X96239992Y-66961595D01*
X96239992Y-66961595D02*
X96316183Y-66923500D01*
X96316183Y-66923500D02*
X96354278Y-66885404D01*
X96354278Y-66885404D02*
X96392373Y-66809214D01*
X96392373Y-66809214D02*
X96392373Y-66733023D01*
X96392373Y-66733023D02*
X96354278Y-66656833D01*
X96354278Y-66656833D02*
X96316183Y-66618738D01*
X96316183Y-66618738D02*
X96239992Y-66580642D01*
X96239992Y-66580642D02*
X96087611Y-66542547D01*
X96087611Y-66542547D02*
X96011421Y-66504452D01*
X96011421Y-66504452D02*
X95973326Y-66466357D01*
X95973326Y-66466357D02*
X95935230Y-66390166D01*
X95935230Y-66390166D02*
X95935230Y-66313976D01*
X95935230Y-66313976D02*
X95973326Y-66237785D01*
X95973326Y-66237785D02*
X96011421Y-66199690D01*
X96011421Y-66199690D02*
X96087611Y-66161595D01*
X96087611Y-66161595D02*
X96278088Y-66161595D01*
X96278088Y-66161595D02*
X96392373Y-66199690D01*
X96735231Y-66961595D02*
X96735231Y-66161595D01*
X96735231Y-66161595D02*
X96925707Y-66161595D01*
X96925707Y-66161595D02*
X97039993Y-66199690D01*
X97039993Y-66199690D02*
X97116183Y-66275880D01*
X97116183Y-66275880D02*
X97154278Y-66352071D01*
X97154278Y-66352071D02*
X97192374Y-66504452D01*
X97192374Y-66504452D02*
X97192374Y-66618738D01*
X97192374Y-66618738D02*
X97154278Y-66771119D01*
X97154278Y-66771119D02*
X97116183Y-66847309D01*
X97116183Y-66847309D02*
X97039993Y-66923500D01*
X97039993Y-66923500D02*
X96925707Y-66961595D01*
X96925707Y-66961595D02*
X96735231Y-66961595D01*
X97497135Y-66733023D02*
X97878088Y-66733023D01*
X97420945Y-66961595D02*
X97687612Y-66161595D01*
X97687612Y-66161595D02*
X97954278Y-66961595D01*
X96659040Y-69537595D02*
X96659040Y-68737595D01*
X96659040Y-68737595D02*
X96963802Y-68737595D01*
X96963802Y-68737595D02*
X97039992Y-68775690D01*
X97039992Y-68775690D02*
X97078087Y-68813785D01*
X97078087Y-68813785D02*
X97116183Y-68889976D01*
X97116183Y-68889976D02*
X97116183Y-69004261D01*
X97116183Y-69004261D02*
X97078087Y-69080452D01*
X97078087Y-69080452D02*
X97039992Y-69118547D01*
X97039992Y-69118547D02*
X96963802Y-69156642D01*
X96963802Y-69156642D02*
X96659040Y-69156642D01*
X97420944Y-69499500D02*
X97535230Y-69537595D01*
X97535230Y-69537595D02*
X97725706Y-69537595D01*
X97725706Y-69537595D02*
X97801897Y-69499500D01*
X97801897Y-69499500D02*
X97839992Y-69461404D01*
X97839992Y-69461404D02*
X97878087Y-69385214D01*
X97878087Y-69385214D02*
X97878087Y-69309023D01*
X97878087Y-69309023D02*
X97839992Y-69232833D01*
X97839992Y-69232833D02*
X97801897Y-69194738D01*
X97801897Y-69194738D02*
X97725706Y-69156642D01*
X97725706Y-69156642D02*
X97573325Y-69118547D01*
X97573325Y-69118547D02*
X97497135Y-69080452D01*
X97497135Y-69080452D02*
X97459040Y-69042357D01*
X97459040Y-69042357D02*
X97420944Y-68966166D01*
X97420944Y-68966166D02*
X97420944Y-68889976D01*
X97420944Y-68889976D02*
X97459040Y-68813785D01*
X97459040Y-68813785D02*
X97497135Y-68775690D01*
X97497135Y-68775690D02*
X97573325Y-68737595D01*
X97573325Y-68737595D02*
X97763802Y-68737595D01*
X97763802Y-68737595D02*
X97878087Y-68775690D01*
X95097134Y-72075500D02*
X95211420Y-72113595D01*
X95211420Y-72113595D02*
X95401896Y-72113595D01*
X95401896Y-72113595D02*
X95478087Y-72075500D01*
X95478087Y-72075500D02*
X95516182Y-72037404D01*
X95516182Y-72037404D02*
X95554277Y-71961214D01*
X95554277Y-71961214D02*
X95554277Y-71885023D01*
X95554277Y-71885023D02*
X95516182Y-71808833D01*
X95516182Y-71808833D02*
X95478087Y-71770738D01*
X95478087Y-71770738D02*
X95401896Y-71732642D01*
X95401896Y-71732642D02*
X95249515Y-71694547D01*
X95249515Y-71694547D02*
X95173325Y-71656452D01*
X95173325Y-71656452D02*
X95135230Y-71618357D01*
X95135230Y-71618357D02*
X95097134Y-71542166D01*
X95097134Y-71542166D02*
X95097134Y-71465976D01*
X95097134Y-71465976D02*
X95135230Y-71389785D01*
X95135230Y-71389785D02*
X95173325Y-71351690D01*
X95173325Y-71351690D02*
X95249515Y-71313595D01*
X95249515Y-71313595D02*
X95439992Y-71313595D01*
X95439992Y-71313595D02*
X95554277Y-71351690D01*
X95897135Y-72113595D02*
X95897135Y-71313595D01*
X95897135Y-71313595D02*
X96087611Y-71313595D01*
X96087611Y-71313595D02*
X96201897Y-71351690D01*
X96201897Y-71351690D02*
X96278087Y-71427880D01*
X96278087Y-71427880D02*
X96316182Y-71504071D01*
X96316182Y-71504071D02*
X96354278Y-71656452D01*
X96354278Y-71656452D02*
X96354278Y-71770738D01*
X96354278Y-71770738D02*
X96316182Y-71923119D01*
X96316182Y-71923119D02*
X96278087Y-71999309D01*
X96278087Y-71999309D02*
X96201897Y-72075500D01*
X96201897Y-72075500D02*
X96087611Y-72113595D01*
X96087611Y-72113595D02*
X95897135Y-72113595D01*
X96849516Y-71313595D02*
X96925706Y-71313595D01*
X96925706Y-71313595D02*
X97001897Y-71351690D01*
X97001897Y-71351690D02*
X97039992Y-71389785D01*
X97039992Y-71389785D02*
X97078087Y-71465976D01*
X97078087Y-71465976D02*
X97116182Y-71618357D01*
X97116182Y-71618357D02*
X97116182Y-71808833D01*
X97116182Y-71808833D02*
X97078087Y-71961214D01*
X97078087Y-71961214D02*
X97039992Y-72037404D01*
X97039992Y-72037404D02*
X97001897Y-72075500D01*
X97001897Y-72075500D02*
X96925706Y-72113595D01*
X96925706Y-72113595D02*
X96849516Y-72113595D01*
X96849516Y-72113595D02*
X96773325Y-72075500D01*
X96773325Y-72075500D02*
X96735230Y-72037404D01*
X96735230Y-72037404D02*
X96697135Y-71961214D01*
X96697135Y-71961214D02*
X96659039Y-71808833D01*
X96659039Y-71808833D02*
X96659039Y-71618357D01*
X96659039Y-71618357D02*
X96697135Y-71465976D01*
X96697135Y-71465976D02*
X96735230Y-71389785D01*
X96735230Y-71389785D02*
X96773325Y-71351690D01*
X96773325Y-71351690D02*
X96849516Y-71313595D01*
X97878087Y-72113595D02*
X97420944Y-72113595D01*
X97649516Y-72113595D02*
X97649516Y-71313595D01*
X97649516Y-71313595D02*
X97573325Y-71427880D01*
X97573325Y-71427880D02*
X97497135Y-71504071D01*
X97497135Y-71504071D02*
X97420944Y-71542166D01*
X95097134Y-74651500D02*
X95211420Y-74689595D01*
X95211420Y-74689595D02*
X95401896Y-74689595D01*
X95401896Y-74689595D02*
X95478087Y-74651500D01*
X95478087Y-74651500D02*
X95516182Y-74613404D01*
X95516182Y-74613404D02*
X95554277Y-74537214D01*
X95554277Y-74537214D02*
X95554277Y-74461023D01*
X95554277Y-74461023D02*
X95516182Y-74384833D01*
X95516182Y-74384833D02*
X95478087Y-74346738D01*
X95478087Y-74346738D02*
X95401896Y-74308642D01*
X95401896Y-74308642D02*
X95249515Y-74270547D01*
X95249515Y-74270547D02*
X95173325Y-74232452D01*
X95173325Y-74232452D02*
X95135230Y-74194357D01*
X95135230Y-74194357D02*
X95097134Y-74118166D01*
X95097134Y-74118166D02*
X95097134Y-74041976D01*
X95097134Y-74041976D02*
X95135230Y-73965785D01*
X95135230Y-73965785D02*
X95173325Y-73927690D01*
X95173325Y-73927690D02*
X95249515Y-73889595D01*
X95249515Y-73889595D02*
X95439992Y-73889595D01*
X95439992Y-73889595D02*
X95554277Y-73927690D01*
X95897135Y-74689595D02*
X95897135Y-73889595D01*
X95897135Y-73889595D02*
X96087611Y-73889595D01*
X96087611Y-73889595D02*
X96201897Y-73927690D01*
X96201897Y-73927690D02*
X96278087Y-74003880D01*
X96278087Y-74003880D02*
X96316182Y-74080071D01*
X96316182Y-74080071D02*
X96354278Y-74232452D01*
X96354278Y-74232452D02*
X96354278Y-74346738D01*
X96354278Y-74346738D02*
X96316182Y-74499119D01*
X96316182Y-74499119D02*
X96278087Y-74575309D01*
X96278087Y-74575309D02*
X96201897Y-74651500D01*
X96201897Y-74651500D02*
X96087611Y-74689595D01*
X96087611Y-74689595D02*
X95897135Y-74689595D01*
X96849516Y-73889595D02*
X96925706Y-73889595D01*
X96925706Y-73889595D02*
X97001897Y-73927690D01*
X97001897Y-73927690D02*
X97039992Y-73965785D01*
X97039992Y-73965785D02*
X97078087Y-74041976D01*
X97078087Y-74041976D02*
X97116182Y-74194357D01*
X97116182Y-74194357D02*
X97116182Y-74384833D01*
X97116182Y-74384833D02*
X97078087Y-74537214D01*
X97078087Y-74537214D02*
X97039992Y-74613404D01*
X97039992Y-74613404D02*
X97001897Y-74651500D01*
X97001897Y-74651500D02*
X96925706Y-74689595D01*
X96925706Y-74689595D02*
X96849516Y-74689595D01*
X96849516Y-74689595D02*
X96773325Y-74651500D01*
X96773325Y-74651500D02*
X96735230Y-74613404D01*
X96735230Y-74613404D02*
X96697135Y-74537214D01*
X96697135Y-74537214D02*
X96659039Y-74384833D01*
X96659039Y-74384833D02*
X96659039Y-74194357D01*
X96659039Y-74194357D02*
X96697135Y-74041976D01*
X96697135Y-74041976D02*
X96735230Y-73965785D01*
X96735230Y-73965785D02*
X96773325Y-73927690D01*
X96773325Y-73927690D02*
X96849516Y-73889595D01*
X97420944Y-73965785D02*
X97459040Y-73927690D01*
X97459040Y-73927690D02*
X97535230Y-73889595D01*
X97535230Y-73889595D02*
X97725706Y-73889595D01*
X97725706Y-73889595D02*
X97801897Y-73927690D01*
X97801897Y-73927690D02*
X97839992Y-73965785D01*
X97839992Y-73965785D02*
X97878087Y-74041976D01*
X97878087Y-74041976D02*
X97878087Y-74118166D01*
X97878087Y-74118166D02*
X97839992Y-74232452D01*
X97839992Y-74232452D02*
X97382849Y-74689595D01*
X97382849Y-74689595D02*
X97878087Y-74689595D01*
X95554278Y-77189404D02*
X95516182Y-77227500D01*
X95516182Y-77227500D02*
X95401897Y-77265595D01*
X95401897Y-77265595D02*
X95325706Y-77265595D01*
X95325706Y-77265595D02*
X95211420Y-77227500D01*
X95211420Y-77227500D02*
X95135230Y-77151309D01*
X95135230Y-77151309D02*
X95097135Y-77075119D01*
X95097135Y-77075119D02*
X95059039Y-76922738D01*
X95059039Y-76922738D02*
X95059039Y-76808452D01*
X95059039Y-76808452D02*
X95097135Y-76656071D01*
X95097135Y-76656071D02*
X95135230Y-76579880D01*
X95135230Y-76579880D02*
X95211420Y-76503690D01*
X95211420Y-76503690D02*
X95325706Y-76465595D01*
X95325706Y-76465595D02*
X95401897Y-76465595D01*
X95401897Y-76465595D02*
X95516182Y-76503690D01*
X95516182Y-76503690D02*
X95554278Y-76541785D01*
X95859039Y-77227500D02*
X95973325Y-77265595D01*
X95973325Y-77265595D02*
X96163801Y-77265595D01*
X96163801Y-77265595D02*
X96239992Y-77227500D01*
X96239992Y-77227500D02*
X96278087Y-77189404D01*
X96278087Y-77189404D02*
X96316182Y-77113214D01*
X96316182Y-77113214D02*
X96316182Y-77037023D01*
X96316182Y-77037023D02*
X96278087Y-76960833D01*
X96278087Y-76960833D02*
X96239992Y-76922738D01*
X96239992Y-76922738D02*
X96163801Y-76884642D01*
X96163801Y-76884642D02*
X96011420Y-76846547D01*
X96011420Y-76846547D02*
X95935230Y-76808452D01*
X95935230Y-76808452D02*
X95897135Y-76770357D01*
X95897135Y-76770357D02*
X95859039Y-76694166D01*
X95859039Y-76694166D02*
X95859039Y-76617976D01*
X95859039Y-76617976D02*
X95897135Y-76541785D01*
X95897135Y-76541785D02*
X95935230Y-76503690D01*
X95935230Y-76503690D02*
X96011420Y-76465595D01*
X96011420Y-76465595D02*
X96201897Y-76465595D01*
X96201897Y-76465595D02*
X96316182Y-76503690D01*
X96925706Y-76846547D02*
X97039992Y-76884642D01*
X97039992Y-76884642D02*
X97078087Y-76922738D01*
X97078087Y-76922738D02*
X97116183Y-76998928D01*
X97116183Y-76998928D02*
X97116183Y-77113214D01*
X97116183Y-77113214D02*
X97078087Y-77189404D01*
X97078087Y-77189404D02*
X97039992Y-77227500D01*
X97039992Y-77227500D02*
X96963802Y-77265595D01*
X96963802Y-77265595D02*
X96659040Y-77265595D01*
X96659040Y-77265595D02*
X96659040Y-76465595D01*
X96659040Y-76465595D02*
X96925706Y-76465595D01*
X96925706Y-76465595D02*
X97001897Y-76503690D01*
X97001897Y-76503690D02*
X97039992Y-76541785D01*
X97039992Y-76541785D02*
X97078087Y-76617976D01*
X97078087Y-76617976D02*
X97078087Y-76694166D01*
X97078087Y-76694166D02*
X97039992Y-76770357D01*
X97039992Y-76770357D02*
X97001897Y-76808452D01*
X97001897Y-76808452D02*
X96925706Y-76846547D01*
X96925706Y-76846547D02*
X96659040Y-76846547D01*
X97878087Y-77265595D02*
X97420944Y-77265595D01*
X97649516Y-77265595D02*
X97649516Y-76465595D01*
X97649516Y-76465595D02*
X97573325Y-76579880D01*
X97573325Y-76579880D02*
X97497135Y-76656071D01*
X97497135Y-76656071D02*
X97420944Y-76694166D01*
X95554278Y-79765404D02*
X95516182Y-79803500D01*
X95516182Y-79803500D02*
X95401897Y-79841595D01*
X95401897Y-79841595D02*
X95325706Y-79841595D01*
X95325706Y-79841595D02*
X95211420Y-79803500D01*
X95211420Y-79803500D02*
X95135230Y-79727309D01*
X95135230Y-79727309D02*
X95097135Y-79651119D01*
X95097135Y-79651119D02*
X95059039Y-79498738D01*
X95059039Y-79498738D02*
X95059039Y-79384452D01*
X95059039Y-79384452D02*
X95097135Y-79232071D01*
X95097135Y-79232071D02*
X95135230Y-79155880D01*
X95135230Y-79155880D02*
X95211420Y-79079690D01*
X95211420Y-79079690D02*
X95325706Y-79041595D01*
X95325706Y-79041595D02*
X95401897Y-79041595D01*
X95401897Y-79041595D02*
X95516182Y-79079690D01*
X95516182Y-79079690D02*
X95554278Y-79117785D01*
X95859039Y-79803500D02*
X95973325Y-79841595D01*
X95973325Y-79841595D02*
X96163801Y-79841595D01*
X96163801Y-79841595D02*
X96239992Y-79803500D01*
X96239992Y-79803500D02*
X96278087Y-79765404D01*
X96278087Y-79765404D02*
X96316182Y-79689214D01*
X96316182Y-79689214D02*
X96316182Y-79613023D01*
X96316182Y-79613023D02*
X96278087Y-79536833D01*
X96278087Y-79536833D02*
X96239992Y-79498738D01*
X96239992Y-79498738D02*
X96163801Y-79460642D01*
X96163801Y-79460642D02*
X96011420Y-79422547D01*
X96011420Y-79422547D02*
X95935230Y-79384452D01*
X95935230Y-79384452D02*
X95897135Y-79346357D01*
X95897135Y-79346357D02*
X95859039Y-79270166D01*
X95859039Y-79270166D02*
X95859039Y-79193976D01*
X95859039Y-79193976D02*
X95897135Y-79117785D01*
X95897135Y-79117785D02*
X95935230Y-79079690D01*
X95935230Y-79079690D02*
X96011420Y-79041595D01*
X96011420Y-79041595D02*
X96201897Y-79041595D01*
X96201897Y-79041595D02*
X96316182Y-79079690D01*
X96925706Y-79422547D02*
X97039992Y-79460642D01*
X97039992Y-79460642D02*
X97078087Y-79498738D01*
X97078087Y-79498738D02*
X97116183Y-79574928D01*
X97116183Y-79574928D02*
X97116183Y-79689214D01*
X97116183Y-79689214D02*
X97078087Y-79765404D01*
X97078087Y-79765404D02*
X97039992Y-79803500D01*
X97039992Y-79803500D02*
X96963802Y-79841595D01*
X96963802Y-79841595D02*
X96659040Y-79841595D01*
X96659040Y-79841595D02*
X96659040Y-79041595D01*
X96659040Y-79041595D02*
X96925706Y-79041595D01*
X96925706Y-79041595D02*
X97001897Y-79079690D01*
X97001897Y-79079690D02*
X97039992Y-79117785D01*
X97039992Y-79117785D02*
X97078087Y-79193976D01*
X97078087Y-79193976D02*
X97078087Y-79270166D01*
X97078087Y-79270166D02*
X97039992Y-79346357D01*
X97039992Y-79346357D02*
X97001897Y-79384452D01*
X97001897Y-79384452D02*
X96925706Y-79422547D01*
X96925706Y-79422547D02*
X96659040Y-79422547D01*
X97420944Y-79117785D02*
X97459040Y-79079690D01*
X97459040Y-79079690D02*
X97535230Y-79041595D01*
X97535230Y-79041595D02*
X97725706Y-79041595D01*
X97725706Y-79041595D02*
X97801897Y-79079690D01*
X97801897Y-79079690D02*
X97839992Y-79117785D01*
X97839992Y-79117785D02*
X97878087Y-79193976D01*
X97878087Y-79193976D02*
X97878087Y-79270166D01*
X97878087Y-79270166D02*
X97839992Y-79384452D01*
X97839992Y-79384452D02*
X97382849Y-79841595D01*
X97382849Y-79841595D02*
X97878087Y-79841595D01*
X95554278Y-82341404D02*
X95516182Y-82379500D01*
X95516182Y-82379500D02*
X95401897Y-82417595D01*
X95401897Y-82417595D02*
X95325706Y-82417595D01*
X95325706Y-82417595D02*
X95211420Y-82379500D01*
X95211420Y-82379500D02*
X95135230Y-82303309D01*
X95135230Y-82303309D02*
X95097135Y-82227119D01*
X95097135Y-82227119D02*
X95059039Y-82074738D01*
X95059039Y-82074738D02*
X95059039Y-81960452D01*
X95059039Y-81960452D02*
X95097135Y-81808071D01*
X95097135Y-81808071D02*
X95135230Y-81731880D01*
X95135230Y-81731880D02*
X95211420Y-81655690D01*
X95211420Y-81655690D02*
X95325706Y-81617595D01*
X95325706Y-81617595D02*
X95401897Y-81617595D01*
X95401897Y-81617595D02*
X95516182Y-81655690D01*
X95516182Y-81655690D02*
X95554278Y-81693785D01*
X95859039Y-82379500D02*
X95973325Y-82417595D01*
X95973325Y-82417595D02*
X96163801Y-82417595D01*
X96163801Y-82417595D02*
X96239992Y-82379500D01*
X96239992Y-82379500D02*
X96278087Y-82341404D01*
X96278087Y-82341404D02*
X96316182Y-82265214D01*
X96316182Y-82265214D02*
X96316182Y-82189023D01*
X96316182Y-82189023D02*
X96278087Y-82112833D01*
X96278087Y-82112833D02*
X96239992Y-82074738D01*
X96239992Y-82074738D02*
X96163801Y-82036642D01*
X96163801Y-82036642D02*
X96011420Y-81998547D01*
X96011420Y-81998547D02*
X95935230Y-81960452D01*
X95935230Y-81960452D02*
X95897135Y-81922357D01*
X95897135Y-81922357D02*
X95859039Y-81846166D01*
X95859039Y-81846166D02*
X95859039Y-81769976D01*
X95859039Y-81769976D02*
X95897135Y-81693785D01*
X95897135Y-81693785D02*
X95935230Y-81655690D01*
X95935230Y-81655690D02*
X96011420Y-81617595D01*
X96011420Y-81617595D02*
X96201897Y-81617595D01*
X96201897Y-81617595D02*
X96316182Y-81655690D01*
X96925706Y-81998547D02*
X97039992Y-82036642D01*
X97039992Y-82036642D02*
X97078087Y-82074738D01*
X97078087Y-82074738D02*
X97116183Y-82150928D01*
X97116183Y-82150928D02*
X97116183Y-82265214D01*
X97116183Y-82265214D02*
X97078087Y-82341404D01*
X97078087Y-82341404D02*
X97039992Y-82379500D01*
X97039992Y-82379500D02*
X96963802Y-82417595D01*
X96963802Y-82417595D02*
X96659040Y-82417595D01*
X96659040Y-82417595D02*
X96659040Y-81617595D01*
X96659040Y-81617595D02*
X96925706Y-81617595D01*
X96925706Y-81617595D02*
X97001897Y-81655690D01*
X97001897Y-81655690D02*
X97039992Y-81693785D01*
X97039992Y-81693785D02*
X97078087Y-81769976D01*
X97078087Y-81769976D02*
X97078087Y-81846166D01*
X97078087Y-81846166D02*
X97039992Y-81922357D01*
X97039992Y-81922357D02*
X97001897Y-81960452D01*
X97001897Y-81960452D02*
X96925706Y-81998547D01*
X96925706Y-81998547D02*
X96659040Y-81998547D01*
X97382849Y-81617595D02*
X97878087Y-81617595D01*
X97878087Y-81617595D02*
X97611421Y-81922357D01*
X97611421Y-81922357D02*
X97725706Y-81922357D01*
X97725706Y-81922357D02*
X97801897Y-81960452D01*
X97801897Y-81960452D02*
X97839992Y-81998547D01*
X97839992Y-81998547D02*
X97878087Y-82074738D01*
X97878087Y-82074738D02*
X97878087Y-82265214D01*
X97878087Y-82265214D02*
X97839992Y-82341404D01*
X97839992Y-82341404D02*
X97801897Y-82379500D01*
X97801897Y-82379500D02*
X97725706Y-82417595D01*
X97725706Y-82417595D02*
X97497135Y-82417595D01*
X97497135Y-82417595D02*
X97420944Y-82379500D01*
X97420944Y-82379500D02*
X97382849Y-82341404D01*
X172174654Y-88996195D02*
X171717511Y-88996195D01*
X171946083Y-88996195D02*
X171946083Y-88196195D01*
X171946083Y-88196195D02*
X171869892Y-88310480D01*
X171869892Y-88310480D02*
X171793702Y-88386671D01*
X171793702Y-88386671D02*
X171717511Y-88424766D01*
X172479416Y-88272385D02*
X172517512Y-88234290D01*
X172517512Y-88234290D02*
X172593702Y-88196195D01*
X172593702Y-88196195D02*
X172784178Y-88196195D01*
X172784178Y-88196195D02*
X172860369Y-88234290D01*
X172860369Y-88234290D02*
X172898464Y-88272385D01*
X172898464Y-88272385D02*
X172936559Y-88348576D01*
X172936559Y-88348576D02*
X172936559Y-88424766D01*
X172936559Y-88424766D02*
X172898464Y-88539052D01*
X172898464Y-88539052D02*
X172441321Y-88996195D01*
X172441321Y-88996195D02*
X172936559Y-88996195D01*
X173165131Y-88196195D02*
X173431798Y-88996195D01*
X173431798Y-88996195D02*
X173698464Y-88196195D01*
X174955607Y-88196195D02*
X174574655Y-88196195D01*
X174574655Y-88196195D02*
X174536559Y-88577147D01*
X174536559Y-88577147D02*
X174574655Y-88539052D01*
X174574655Y-88539052D02*
X174650845Y-88500957D01*
X174650845Y-88500957D02*
X174841321Y-88500957D01*
X174841321Y-88500957D02*
X174917512Y-88539052D01*
X174917512Y-88539052D02*
X174955607Y-88577147D01*
X174955607Y-88577147D02*
X174993702Y-88653338D01*
X174993702Y-88653338D02*
X174993702Y-88843814D01*
X174993702Y-88843814D02*
X174955607Y-88920004D01*
X174955607Y-88920004D02*
X174917512Y-88958100D01*
X174917512Y-88958100D02*
X174841321Y-88996195D01*
X174841321Y-88996195D02*
X174650845Y-88996195D01*
X174650845Y-88996195D02*
X174574655Y-88958100D01*
X174574655Y-88958100D02*
X174536559Y-88920004D01*
X175222274Y-88196195D02*
X175488941Y-88996195D01*
X175488941Y-88996195D02*
X175755607Y-88196195D01*
X177050845Y-88234290D02*
X176974655Y-88196195D01*
X176974655Y-88196195D02*
X176860369Y-88196195D01*
X176860369Y-88196195D02*
X176746083Y-88234290D01*
X176746083Y-88234290D02*
X176669893Y-88310480D01*
X176669893Y-88310480D02*
X176631798Y-88386671D01*
X176631798Y-88386671D02*
X176593702Y-88539052D01*
X176593702Y-88539052D02*
X176593702Y-88653338D01*
X176593702Y-88653338D02*
X176631798Y-88805719D01*
X176631798Y-88805719D02*
X176669893Y-88881909D01*
X176669893Y-88881909D02*
X176746083Y-88958100D01*
X176746083Y-88958100D02*
X176860369Y-88996195D01*
X176860369Y-88996195D02*
X176936560Y-88996195D01*
X176936560Y-88996195D02*
X177050845Y-88958100D01*
X177050845Y-88958100D02*
X177088941Y-88920004D01*
X177088941Y-88920004D02*
X177088941Y-88653338D01*
X177088941Y-88653338D02*
X176936560Y-88653338D01*
X177431798Y-88996195D02*
X177431798Y-88196195D01*
X177431798Y-88196195D02*
X177888941Y-88996195D01*
X177888941Y-88996195D02*
X177888941Y-88196195D01*
X178269893Y-88996195D02*
X178269893Y-88196195D01*
X178269893Y-88196195D02*
X178460369Y-88196195D01*
X178460369Y-88196195D02*
X178574655Y-88234290D01*
X178574655Y-88234290D02*
X178650845Y-88310480D01*
X178650845Y-88310480D02*
X178688940Y-88386671D01*
X178688940Y-88386671D02*
X178727036Y-88539052D01*
X178727036Y-88539052D02*
X178727036Y-88653338D01*
X178727036Y-88653338D02*
X178688940Y-88805719D01*
X178688940Y-88805719D02*
X178650845Y-88881909D01*
X178650845Y-88881909D02*
X178574655Y-88958100D01*
X178574655Y-88958100D02*
X178460369Y-88996195D01*
X178460369Y-88996195D02*
X178269893Y-88996195D01*
X179641321Y-88767623D02*
X180022274Y-88767623D01*
X179565131Y-88996195D02*
X179831798Y-88196195D01*
X179831798Y-88196195D02*
X180098464Y-88996195D01*
X180517512Y-88196195D02*
X180669893Y-88196195D01*
X180669893Y-88196195D02*
X180746083Y-88234290D01*
X180746083Y-88234290D02*
X180822274Y-88310480D01*
X180822274Y-88310480D02*
X180860369Y-88462861D01*
X180860369Y-88462861D02*
X180860369Y-88729528D01*
X180860369Y-88729528D02*
X180822274Y-88881909D01*
X180822274Y-88881909D02*
X180746083Y-88958100D01*
X180746083Y-88958100D02*
X180669893Y-88996195D01*
X180669893Y-88996195D02*
X180517512Y-88996195D01*
X180517512Y-88996195D02*
X180441321Y-88958100D01*
X180441321Y-88958100D02*
X180365131Y-88881909D01*
X180365131Y-88881909D02*
X180327035Y-88729528D01*
X180327035Y-88729528D02*
X180327035Y-88462861D01*
X180327035Y-88462861D02*
X180365131Y-88310480D01*
X180365131Y-88310480D02*
X180441321Y-88234290D01*
X180441321Y-88234290D02*
X180517512Y-88196195D01*
X181622273Y-88996195D02*
X181165130Y-88996195D01*
X181393702Y-88996195D02*
X181393702Y-88196195D01*
X181393702Y-88196195D02*
X181317511Y-88310480D01*
X181317511Y-88310480D02*
X181241321Y-88386671D01*
X181241321Y-88386671D02*
X181165130Y-88424766D01*
X182536559Y-88767623D02*
X182917512Y-88767623D01*
X182460369Y-88996195D02*
X182727036Y-88196195D01*
X182727036Y-88196195D02*
X182993702Y-88996195D01*
X183412750Y-88196195D02*
X183565131Y-88196195D01*
X183565131Y-88196195D02*
X183641321Y-88234290D01*
X183641321Y-88234290D02*
X183717512Y-88310480D01*
X183717512Y-88310480D02*
X183755607Y-88462861D01*
X183755607Y-88462861D02*
X183755607Y-88729528D01*
X183755607Y-88729528D02*
X183717512Y-88881909D01*
X183717512Y-88881909D02*
X183641321Y-88958100D01*
X183641321Y-88958100D02*
X183565131Y-88996195D01*
X183565131Y-88996195D02*
X183412750Y-88996195D01*
X183412750Y-88996195D02*
X183336559Y-88958100D01*
X183336559Y-88958100D02*
X183260369Y-88881909D01*
X183260369Y-88881909D02*
X183222273Y-88729528D01*
X183222273Y-88729528D02*
X183222273Y-88462861D01*
X183222273Y-88462861D02*
X183260369Y-88310480D01*
X183260369Y-88310480D02*
X183336559Y-88234290D01*
X183336559Y-88234290D02*
X183412750Y-88196195D01*
X184060368Y-88272385D02*
X184098464Y-88234290D01*
X184098464Y-88234290D02*
X184174654Y-88196195D01*
X184174654Y-88196195D02*
X184365130Y-88196195D01*
X184365130Y-88196195D02*
X184441321Y-88234290D01*
X184441321Y-88234290D02*
X184479416Y-88272385D01*
X184479416Y-88272385D02*
X184517511Y-88348576D01*
X184517511Y-88348576D02*
X184517511Y-88424766D01*
X184517511Y-88424766D02*
X184479416Y-88539052D01*
X184479416Y-88539052D02*
X184022273Y-88996195D01*
X184022273Y-88996195D02*
X184517511Y-88996195D01*
X185736559Y-88577147D02*
X185850845Y-88615242D01*
X185850845Y-88615242D02*
X185888940Y-88653338D01*
X185888940Y-88653338D02*
X185927036Y-88729528D01*
X185927036Y-88729528D02*
X185927036Y-88843814D01*
X185927036Y-88843814D02*
X185888940Y-88920004D01*
X185888940Y-88920004D02*
X185850845Y-88958100D01*
X185850845Y-88958100D02*
X185774655Y-88996195D01*
X185774655Y-88996195D02*
X185469893Y-88996195D01*
X185469893Y-88996195D02*
X185469893Y-88196195D01*
X185469893Y-88196195D02*
X185736559Y-88196195D01*
X185736559Y-88196195D02*
X185812750Y-88234290D01*
X185812750Y-88234290D02*
X185850845Y-88272385D01*
X185850845Y-88272385D02*
X185888940Y-88348576D01*
X185888940Y-88348576D02*
X185888940Y-88424766D01*
X185888940Y-88424766D02*
X185850845Y-88500957D01*
X185850845Y-88500957D02*
X185812750Y-88539052D01*
X185812750Y-88539052D02*
X185736559Y-88577147D01*
X185736559Y-88577147D02*
X185469893Y-88577147D01*
X186422274Y-88196195D02*
X186574655Y-88196195D01*
X186574655Y-88196195D02*
X186650845Y-88234290D01*
X186650845Y-88234290D02*
X186727036Y-88310480D01*
X186727036Y-88310480D02*
X186765131Y-88462861D01*
X186765131Y-88462861D02*
X186765131Y-88729528D01*
X186765131Y-88729528D02*
X186727036Y-88881909D01*
X186727036Y-88881909D02*
X186650845Y-88958100D01*
X186650845Y-88958100D02*
X186574655Y-88996195D01*
X186574655Y-88996195D02*
X186422274Y-88996195D01*
X186422274Y-88996195D02*
X186346083Y-88958100D01*
X186346083Y-88958100D02*
X186269893Y-88881909D01*
X186269893Y-88881909D02*
X186231797Y-88729528D01*
X186231797Y-88729528D02*
X186231797Y-88462861D01*
X186231797Y-88462861D02*
X186269893Y-88310480D01*
X186269893Y-88310480D02*
X186346083Y-88234290D01*
X186346083Y-88234290D02*
X186422274Y-88196195D01*
X187069892Y-88272385D02*
X187107988Y-88234290D01*
X187107988Y-88234290D02*
X187184178Y-88196195D01*
X187184178Y-88196195D02*
X187374654Y-88196195D01*
X187374654Y-88196195D02*
X187450845Y-88234290D01*
X187450845Y-88234290D02*
X187488940Y-88272385D01*
X187488940Y-88272385D02*
X187527035Y-88348576D01*
X187527035Y-88348576D02*
X187527035Y-88424766D01*
X187527035Y-88424766D02*
X187488940Y-88539052D01*
X187488940Y-88539052D02*
X187031797Y-88996195D01*
X187031797Y-88996195D02*
X187527035Y-88996195D01*
X188746083Y-88577147D02*
X188860369Y-88615242D01*
X188860369Y-88615242D02*
X188898464Y-88653338D01*
X188898464Y-88653338D02*
X188936560Y-88729528D01*
X188936560Y-88729528D02*
X188936560Y-88843814D01*
X188936560Y-88843814D02*
X188898464Y-88920004D01*
X188898464Y-88920004D02*
X188860369Y-88958100D01*
X188860369Y-88958100D02*
X188784179Y-88996195D01*
X188784179Y-88996195D02*
X188479417Y-88996195D01*
X188479417Y-88996195D02*
X188479417Y-88196195D01*
X188479417Y-88196195D02*
X188746083Y-88196195D01*
X188746083Y-88196195D02*
X188822274Y-88234290D01*
X188822274Y-88234290D02*
X188860369Y-88272385D01*
X188860369Y-88272385D02*
X188898464Y-88348576D01*
X188898464Y-88348576D02*
X188898464Y-88424766D01*
X188898464Y-88424766D02*
X188860369Y-88500957D01*
X188860369Y-88500957D02*
X188822274Y-88539052D01*
X188822274Y-88539052D02*
X188746083Y-88577147D01*
X188746083Y-88577147D02*
X188479417Y-88577147D01*
X189431798Y-88196195D02*
X189584179Y-88196195D01*
X189584179Y-88196195D02*
X189660369Y-88234290D01*
X189660369Y-88234290D02*
X189736560Y-88310480D01*
X189736560Y-88310480D02*
X189774655Y-88462861D01*
X189774655Y-88462861D02*
X189774655Y-88729528D01*
X189774655Y-88729528D02*
X189736560Y-88881909D01*
X189736560Y-88881909D02*
X189660369Y-88958100D01*
X189660369Y-88958100D02*
X189584179Y-88996195D01*
X189584179Y-88996195D02*
X189431798Y-88996195D01*
X189431798Y-88996195D02*
X189355607Y-88958100D01*
X189355607Y-88958100D02*
X189279417Y-88881909D01*
X189279417Y-88881909D02*
X189241321Y-88729528D01*
X189241321Y-88729528D02*
X189241321Y-88462861D01*
X189241321Y-88462861D02*
X189279417Y-88310480D01*
X189279417Y-88310480D02*
X189355607Y-88234290D01*
X189355607Y-88234290D02*
X189431798Y-88196195D01*
X190536559Y-88996195D02*
X190079416Y-88996195D01*
X190307988Y-88996195D02*
X190307988Y-88196195D01*
X190307988Y-88196195D02*
X190231797Y-88310480D01*
X190231797Y-88310480D02*
X190155607Y-88386671D01*
X190155607Y-88386671D02*
X190079416Y-88424766D01*
X191907988Y-88234290D02*
X191831798Y-88196195D01*
X191831798Y-88196195D02*
X191717512Y-88196195D01*
X191717512Y-88196195D02*
X191603226Y-88234290D01*
X191603226Y-88234290D02*
X191527036Y-88310480D01*
X191527036Y-88310480D02*
X191488941Y-88386671D01*
X191488941Y-88386671D02*
X191450845Y-88539052D01*
X191450845Y-88539052D02*
X191450845Y-88653338D01*
X191450845Y-88653338D02*
X191488941Y-88805719D01*
X191488941Y-88805719D02*
X191527036Y-88881909D01*
X191527036Y-88881909D02*
X191603226Y-88958100D01*
X191603226Y-88958100D02*
X191717512Y-88996195D01*
X191717512Y-88996195D02*
X191793703Y-88996195D01*
X191793703Y-88996195D02*
X191907988Y-88958100D01*
X191907988Y-88958100D02*
X191946084Y-88920004D01*
X191946084Y-88920004D02*
X191946084Y-88653338D01*
X191946084Y-88653338D02*
X191793703Y-88653338D01*
X192288941Y-88996195D02*
X192288941Y-88196195D01*
X192288941Y-88196195D02*
X192746084Y-88996195D01*
X192746084Y-88996195D02*
X192746084Y-88196195D01*
X193127036Y-88996195D02*
X193127036Y-88196195D01*
X193127036Y-88196195D02*
X193317512Y-88196195D01*
X193317512Y-88196195D02*
X193431798Y-88234290D01*
X193431798Y-88234290D02*
X193507988Y-88310480D01*
X193507988Y-88310480D02*
X193546083Y-88386671D01*
X193546083Y-88386671D02*
X193584179Y-88539052D01*
X193584179Y-88539052D02*
X193584179Y-88653338D01*
X193584179Y-88653338D02*
X193546083Y-88805719D01*
X193546083Y-88805719D02*
X193507988Y-88881909D01*
X193507988Y-88881909D02*
X193431798Y-88958100D01*
X193431798Y-88958100D02*
X193317512Y-88996195D01*
X193317512Y-88996195D02*
X193127036Y-88996195D01*
D11*
X96295411Y-93017819D02*
X96295411Y-93732104D01*
X96295411Y-93732104D02*
X96247792Y-93874961D01*
X96247792Y-93874961D02*
X96152554Y-93970200D01*
X96152554Y-93970200D02*
X96009697Y-94017819D01*
X96009697Y-94017819D02*
X95914459Y-94017819D01*
X96771602Y-93017819D02*
X96771602Y-93827342D01*
X96771602Y-93827342D02*
X96819221Y-93922580D01*
X96819221Y-93922580D02*
X96866840Y-93970200D01*
X96866840Y-93970200D02*
X96962078Y-94017819D01*
X96962078Y-94017819D02*
X97152554Y-94017819D01*
X97152554Y-94017819D02*
X97247792Y-93970200D01*
X97247792Y-93970200D02*
X97295411Y-93922580D01*
X97295411Y-93922580D02*
X97343030Y-93827342D01*
X97343030Y-93827342D02*
X97343030Y-93017819D01*
X97819221Y-94017819D02*
X97819221Y-93017819D01*
X97819221Y-93017819D02*
X98152554Y-93732104D01*
X98152554Y-93732104D02*
X98485887Y-93017819D01*
X98485887Y-93017819D02*
X98485887Y-94017819D01*
X98962078Y-94017819D02*
X98962078Y-93017819D01*
X98962078Y-93017819D02*
X99343030Y-93017819D01*
X99343030Y-93017819D02*
X99438268Y-93065438D01*
X99438268Y-93065438D02*
X99485887Y-93113057D01*
X99485887Y-93113057D02*
X99533506Y-93208295D01*
X99533506Y-93208295D02*
X99533506Y-93351152D01*
X99533506Y-93351152D02*
X99485887Y-93446390D01*
X99485887Y-93446390D02*
X99438268Y-93494009D01*
X99438268Y-93494009D02*
X99343030Y-93541628D01*
X99343030Y-93541628D02*
X98962078Y-93541628D01*
X99962078Y-93636866D02*
X100723983Y-93636866D01*
X101200173Y-93351152D02*
X101962078Y-93636866D01*
X101962078Y-93636866D02*
X101200173Y-93922580D01*
X102295411Y-93017819D02*
X102628744Y-94017819D01*
X102628744Y-94017819D02*
X102962077Y-93017819D01*
X103866839Y-93922580D02*
X103819220Y-93970200D01*
X103819220Y-93970200D02*
X103676363Y-94017819D01*
X103676363Y-94017819D02*
X103581125Y-94017819D01*
X103581125Y-94017819D02*
X103438268Y-93970200D01*
X103438268Y-93970200D02*
X103343030Y-93874961D01*
X103343030Y-93874961D02*
X103295411Y-93779723D01*
X103295411Y-93779723D02*
X103247792Y-93589247D01*
X103247792Y-93589247D02*
X103247792Y-93446390D01*
X103247792Y-93446390D02*
X103295411Y-93255914D01*
X103295411Y-93255914D02*
X103343030Y-93160676D01*
X103343030Y-93160676D02*
X103438268Y-93065438D01*
X103438268Y-93065438D02*
X103581125Y-93017819D01*
X103581125Y-93017819D02*
X103676363Y-93017819D01*
X103676363Y-93017819D02*
X103819220Y-93065438D01*
X103819220Y-93065438D02*
X103866839Y-93113057D01*
X104866839Y-93922580D02*
X104819220Y-93970200D01*
X104819220Y-93970200D02*
X104676363Y-94017819D01*
X104676363Y-94017819D02*
X104581125Y-94017819D01*
X104581125Y-94017819D02*
X104438268Y-93970200D01*
X104438268Y-93970200D02*
X104343030Y-93874961D01*
X104343030Y-93874961D02*
X104295411Y-93779723D01*
X104295411Y-93779723D02*
X104247792Y-93589247D01*
X104247792Y-93589247D02*
X104247792Y-93446390D01*
X104247792Y-93446390D02*
X104295411Y-93255914D01*
X104295411Y-93255914D02*
X104343030Y-93160676D01*
X104343030Y-93160676D02*
X104438268Y-93065438D01*
X104438268Y-93065438D02*
X104581125Y-93017819D01*
X104581125Y-93017819D02*
X104676363Y-93017819D01*
X104676363Y-93017819D02*
X104819220Y-93065438D01*
X104819220Y-93065438D02*
X104866839Y-93113057D01*
X95771602Y-95627819D02*
X95771602Y-94627819D01*
X95771602Y-94627819D02*
X96343030Y-95627819D01*
X96343030Y-95627819D02*
X96343030Y-94627819D01*
X97009697Y-94627819D02*
X97200173Y-94627819D01*
X97200173Y-94627819D02*
X97295411Y-94675438D01*
X97295411Y-94675438D02*
X97390649Y-94770676D01*
X97390649Y-94770676D02*
X97438268Y-94961152D01*
X97438268Y-94961152D02*
X97438268Y-95294485D01*
X97438268Y-95294485D02*
X97390649Y-95484961D01*
X97390649Y-95484961D02*
X97295411Y-95580200D01*
X97295411Y-95580200D02*
X97200173Y-95627819D01*
X97200173Y-95627819D02*
X97009697Y-95627819D01*
X97009697Y-95627819D02*
X96914459Y-95580200D01*
X96914459Y-95580200D02*
X96819221Y-95484961D01*
X96819221Y-95484961D02*
X96771602Y-95294485D01*
X96771602Y-95294485D02*
X96771602Y-94961152D01*
X96771602Y-94961152D02*
X96819221Y-94770676D01*
X96819221Y-94770676D02*
X96914459Y-94675438D01*
X96914459Y-94675438D02*
X97009697Y-94627819D01*
X97866840Y-95627819D02*
X97866840Y-94627819D01*
X97866840Y-94627819D02*
X98438268Y-95627819D01*
X98438268Y-95627819D02*
X98438268Y-94627819D01*
X98914459Y-95104009D02*
X99247792Y-95104009D01*
X99390649Y-95627819D02*
X98914459Y-95627819D01*
X98914459Y-95627819D02*
X98914459Y-94627819D01*
X98914459Y-94627819D02*
X99390649Y-94627819D01*
X99819221Y-95246866D02*
X100581126Y-95246866D01*
X101057316Y-94961152D02*
X101819221Y-95246866D01*
X101819221Y-95246866D02*
X101057316Y-95532580D01*
X102295411Y-94627819D02*
X102295411Y-95437342D01*
X102295411Y-95437342D02*
X102343030Y-95532580D01*
X102343030Y-95532580D02*
X102390649Y-95580200D01*
X102390649Y-95580200D02*
X102485887Y-95627819D01*
X102485887Y-95627819D02*
X102676363Y-95627819D01*
X102676363Y-95627819D02*
X102771601Y-95580200D01*
X102771601Y-95580200D02*
X102819220Y-95532580D01*
X102819220Y-95532580D02*
X102866839Y-95437342D01*
X102866839Y-95437342D02*
X102866839Y-94627819D01*
X103295411Y-95580200D02*
X103438268Y-95627819D01*
X103438268Y-95627819D02*
X103676363Y-95627819D01*
X103676363Y-95627819D02*
X103771601Y-95580200D01*
X103771601Y-95580200D02*
X103819220Y-95532580D01*
X103819220Y-95532580D02*
X103866839Y-95437342D01*
X103866839Y-95437342D02*
X103866839Y-95342104D01*
X103866839Y-95342104D02*
X103819220Y-95246866D01*
X103819220Y-95246866D02*
X103771601Y-95199247D01*
X103771601Y-95199247D02*
X103676363Y-95151628D01*
X103676363Y-95151628D02*
X103485887Y-95104009D01*
X103485887Y-95104009D02*
X103390649Y-95056390D01*
X103390649Y-95056390D02*
X103343030Y-95008771D01*
X103343030Y-95008771D02*
X103295411Y-94913533D01*
X103295411Y-94913533D02*
X103295411Y-94818295D01*
X103295411Y-94818295D02*
X103343030Y-94723057D01*
X103343030Y-94723057D02*
X103390649Y-94675438D01*
X103390649Y-94675438D02*
X103485887Y-94627819D01*
X103485887Y-94627819D02*
X103723982Y-94627819D01*
X103723982Y-94627819D02*
X103866839Y-94675438D01*
X104628744Y-95104009D02*
X104771601Y-95151628D01*
X104771601Y-95151628D02*
X104819220Y-95199247D01*
X104819220Y-95199247D02*
X104866839Y-95294485D01*
X104866839Y-95294485D02*
X104866839Y-95437342D01*
X104866839Y-95437342D02*
X104819220Y-95532580D01*
X104819220Y-95532580D02*
X104771601Y-95580200D01*
X104771601Y-95580200D02*
X104676363Y-95627819D01*
X104676363Y-95627819D02*
X104295411Y-95627819D01*
X104295411Y-95627819D02*
X104295411Y-94627819D01*
X104295411Y-94627819D02*
X104628744Y-94627819D01*
X104628744Y-94627819D02*
X104723982Y-94675438D01*
X104723982Y-94675438D02*
X104771601Y-94723057D01*
X104771601Y-94723057D02*
X104819220Y-94818295D01*
X104819220Y-94818295D02*
X104819220Y-94913533D01*
X104819220Y-94913533D02*
X104771601Y-95008771D01*
X104771601Y-95008771D02*
X104723982Y-95056390D01*
X104723982Y-95056390D02*
X104628744Y-95104009D01*
X104628744Y-95104009D02*
X104295411Y-95104009D01*
X140697179Y-70313609D02*
X141030512Y-70313609D01*
X141173369Y-70837419D02*
X140697179Y-70837419D01*
X140697179Y-70837419D02*
X140697179Y-69837419D01*
X140697179Y-69837419D02*
X141173369Y-69837419D01*
X141554322Y-70789800D02*
X141697179Y-70837419D01*
X141697179Y-70837419D02*
X141935274Y-70837419D01*
X141935274Y-70837419D02*
X142030512Y-70789800D01*
X142030512Y-70789800D02*
X142078131Y-70742180D01*
X142078131Y-70742180D02*
X142125750Y-70646942D01*
X142125750Y-70646942D02*
X142125750Y-70551704D01*
X142125750Y-70551704D02*
X142078131Y-70456466D01*
X142078131Y-70456466D02*
X142030512Y-70408847D01*
X142030512Y-70408847D02*
X141935274Y-70361228D01*
X141935274Y-70361228D02*
X141744798Y-70313609D01*
X141744798Y-70313609D02*
X141649560Y-70265990D01*
X141649560Y-70265990D02*
X141601941Y-70218371D01*
X141601941Y-70218371D02*
X141554322Y-70123133D01*
X141554322Y-70123133D02*
X141554322Y-70027895D01*
X141554322Y-70027895D02*
X141601941Y-69932657D01*
X141601941Y-69932657D02*
X141649560Y-69885038D01*
X141649560Y-69885038D02*
X141744798Y-69837419D01*
X141744798Y-69837419D02*
X141982893Y-69837419D01*
X141982893Y-69837419D02*
X142125750Y-69885038D01*
X142554322Y-70837419D02*
X142554322Y-69837419D01*
X142554322Y-69837419D02*
X142935274Y-69837419D01*
X142935274Y-69837419D02*
X143030512Y-69885038D01*
X143030512Y-69885038D02*
X143078131Y-69932657D01*
X143078131Y-69932657D02*
X143125750Y-70027895D01*
X143125750Y-70027895D02*
X143125750Y-70170752D01*
X143125750Y-70170752D02*
X143078131Y-70265990D01*
X143078131Y-70265990D02*
X143030512Y-70313609D01*
X143030512Y-70313609D02*
X142935274Y-70361228D01*
X142935274Y-70361228D02*
X142554322Y-70361228D01*
X143459084Y-69837419D02*
X144078131Y-69837419D01*
X144078131Y-69837419D02*
X143744798Y-70218371D01*
X143744798Y-70218371D02*
X143887655Y-70218371D01*
X143887655Y-70218371D02*
X143982893Y-70265990D01*
X143982893Y-70265990D02*
X144030512Y-70313609D01*
X144030512Y-70313609D02*
X144078131Y-70408847D01*
X144078131Y-70408847D02*
X144078131Y-70646942D01*
X144078131Y-70646942D02*
X144030512Y-70742180D01*
X144030512Y-70742180D02*
X143982893Y-70789800D01*
X143982893Y-70789800D02*
X143887655Y-70837419D01*
X143887655Y-70837419D02*
X143601941Y-70837419D01*
X143601941Y-70837419D02*
X143506703Y-70789800D01*
X143506703Y-70789800D02*
X143459084Y-70742180D01*
X144459084Y-69932657D02*
X144506703Y-69885038D01*
X144506703Y-69885038D02*
X144601941Y-69837419D01*
X144601941Y-69837419D02*
X144840036Y-69837419D01*
X144840036Y-69837419D02*
X144935274Y-69885038D01*
X144935274Y-69885038D02*
X144982893Y-69932657D01*
X144982893Y-69932657D02*
X145030512Y-70027895D01*
X145030512Y-70027895D02*
X145030512Y-70123133D01*
X145030512Y-70123133D02*
X144982893Y-70265990D01*
X144982893Y-70265990D02*
X144411465Y-70837419D01*
X144411465Y-70837419D02*
X145030512Y-70837419D01*
X144510312Y-117557609D02*
X144176979Y-117557609D01*
X144176979Y-118081419D02*
X144176979Y-117081419D01*
X144176979Y-117081419D02*
X144653169Y-117081419D01*
X144986503Y-117795704D02*
X145462693Y-117795704D01*
X144891265Y-118081419D02*
X145224598Y-117081419D01*
X145224598Y-117081419D02*
X145557931Y-118081419D01*
X145891265Y-118081419D02*
X145891265Y-117081419D01*
X145891265Y-117081419D02*
X146462693Y-118081419D01*
X146462693Y-118081419D02*
X146462693Y-117081419D01*
D12*
X171806407Y-77134395D02*
X171806407Y-76334395D01*
X171806407Y-76334395D02*
X172111169Y-76334395D01*
X172111169Y-76334395D02*
X172187359Y-76372490D01*
X172187359Y-76372490D02*
X172225454Y-76410585D01*
X172225454Y-76410585D02*
X172263550Y-76486776D01*
X172263550Y-76486776D02*
X172263550Y-76601061D01*
X172263550Y-76601061D02*
X172225454Y-76677252D01*
X172225454Y-76677252D02*
X172187359Y-76715347D01*
X172187359Y-76715347D02*
X172111169Y-76753442D01*
X172111169Y-76753442D02*
X171806407Y-76753442D01*
X172530216Y-76334395D02*
X172720692Y-77134395D01*
X172720692Y-77134395D02*
X172873073Y-76562966D01*
X172873073Y-76562966D02*
X173025454Y-77134395D01*
X173025454Y-77134395D02*
X173215931Y-76334395D01*
X173482597Y-76905823D02*
X173863550Y-76905823D01*
X173406407Y-77134395D02*
X173673074Y-76334395D01*
X173673074Y-76334395D02*
X173939740Y-77134395D01*
X174777835Y-76905823D02*
X175158788Y-76905823D01*
X174701645Y-77134395D02*
X174968312Y-76334395D01*
X174968312Y-76334395D02*
X175234978Y-77134395D01*
X175501645Y-77134395D02*
X175501645Y-76334395D01*
X175844501Y-76410585D02*
X175882597Y-76372490D01*
X175882597Y-76372490D02*
X175958787Y-76334395D01*
X175958787Y-76334395D02*
X176149263Y-76334395D01*
X176149263Y-76334395D02*
X176225454Y-76372490D01*
X176225454Y-76372490D02*
X176263549Y-76410585D01*
X176263549Y-76410585D02*
X176301644Y-76486776D01*
X176301644Y-76486776D02*
X176301644Y-76562966D01*
X176301644Y-76562966D02*
X176263549Y-76677252D01*
X176263549Y-76677252D02*
X175806406Y-77134395D01*
X175806406Y-77134395D02*
X176301644Y-77134395D01*
X177215930Y-76905823D02*
X177596883Y-76905823D01*
X177139740Y-77134395D02*
X177406407Y-76334395D01*
X177406407Y-76334395D02*
X177673073Y-77134395D01*
X177939740Y-77134395D02*
X177939740Y-76334395D01*
X178739739Y-77134395D02*
X178282596Y-77134395D01*
X178511168Y-77134395D02*
X178511168Y-76334395D01*
X178511168Y-76334395D02*
X178434977Y-76448680D01*
X178434977Y-76448680D02*
X178358787Y-76524871D01*
X178358787Y-76524871D02*
X178282596Y-76562966D01*
X179654025Y-77096300D02*
X179768311Y-77134395D01*
X179768311Y-77134395D02*
X179958787Y-77134395D01*
X179958787Y-77134395D02*
X180034978Y-77096300D01*
X180034978Y-77096300D02*
X180073073Y-77058204D01*
X180073073Y-77058204D02*
X180111168Y-76982014D01*
X180111168Y-76982014D02*
X180111168Y-76905823D01*
X180111168Y-76905823D02*
X180073073Y-76829633D01*
X180073073Y-76829633D02*
X180034978Y-76791538D01*
X180034978Y-76791538D02*
X179958787Y-76753442D01*
X179958787Y-76753442D02*
X179806406Y-76715347D01*
X179806406Y-76715347D02*
X179730216Y-76677252D01*
X179730216Y-76677252D02*
X179692121Y-76639157D01*
X179692121Y-76639157D02*
X179654025Y-76562966D01*
X179654025Y-76562966D02*
X179654025Y-76486776D01*
X179654025Y-76486776D02*
X179692121Y-76410585D01*
X179692121Y-76410585D02*
X179730216Y-76372490D01*
X179730216Y-76372490D02*
X179806406Y-76334395D01*
X179806406Y-76334395D02*
X179996883Y-76334395D01*
X179996883Y-76334395D02*
X180111168Y-76372490D01*
X180720692Y-76715347D02*
X180834978Y-76753442D01*
X180834978Y-76753442D02*
X180873073Y-76791538D01*
X180873073Y-76791538D02*
X180911169Y-76867728D01*
X180911169Y-76867728D02*
X180911169Y-76982014D01*
X180911169Y-76982014D02*
X180873073Y-77058204D01*
X180873073Y-77058204D02*
X180834978Y-77096300D01*
X180834978Y-77096300D02*
X180758788Y-77134395D01*
X180758788Y-77134395D02*
X180454026Y-77134395D01*
X180454026Y-77134395D02*
X180454026Y-76334395D01*
X180454026Y-76334395D02*
X180720692Y-76334395D01*
X180720692Y-76334395D02*
X180796883Y-76372490D01*
X180796883Y-76372490D02*
X180834978Y-76410585D01*
X180834978Y-76410585D02*
X180873073Y-76486776D01*
X180873073Y-76486776D02*
X180873073Y-76562966D01*
X180873073Y-76562966D02*
X180834978Y-76639157D01*
X180834978Y-76639157D02*
X180796883Y-76677252D01*
X180796883Y-76677252D02*
X180720692Y-76715347D01*
X180720692Y-76715347D02*
X180454026Y-76715347D01*
X181406407Y-76753442D02*
X181406407Y-77134395D01*
X181139740Y-76334395D02*
X181406407Y-76753442D01*
X181406407Y-76753442D02*
X181673073Y-76334395D01*
X182815930Y-76715347D02*
X182930216Y-76753442D01*
X182930216Y-76753442D02*
X182968311Y-76791538D01*
X182968311Y-76791538D02*
X183006407Y-76867728D01*
X183006407Y-76867728D02*
X183006407Y-76982014D01*
X183006407Y-76982014D02*
X182968311Y-77058204D01*
X182968311Y-77058204D02*
X182930216Y-77096300D01*
X182930216Y-77096300D02*
X182854026Y-77134395D01*
X182854026Y-77134395D02*
X182549264Y-77134395D01*
X182549264Y-77134395D02*
X182549264Y-76334395D01*
X182549264Y-76334395D02*
X182815930Y-76334395D01*
X182815930Y-76334395D02*
X182892121Y-76372490D01*
X182892121Y-76372490D02*
X182930216Y-76410585D01*
X182930216Y-76410585D02*
X182968311Y-76486776D01*
X182968311Y-76486776D02*
X182968311Y-76562966D01*
X182968311Y-76562966D02*
X182930216Y-76639157D01*
X182930216Y-76639157D02*
X182892121Y-76677252D01*
X182892121Y-76677252D02*
X182815930Y-76715347D01*
X182815930Y-76715347D02*
X182549264Y-76715347D01*
X183349264Y-77134395D02*
X183349264Y-76334395D01*
X184149263Y-77134395D02*
X183692120Y-77134395D01*
X183920692Y-77134395D02*
X183920692Y-76334395D01*
X183920692Y-76334395D02*
X183844501Y-76448680D01*
X183844501Y-76448680D02*
X183768311Y-76524871D01*
X183768311Y-76524871D02*
X183692120Y-76562966D01*
X185368311Y-76715347D02*
X185482597Y-76753442D01*
X185482597Y-76753442D02*
X185520692Y-76791538D01*
X185520692Y-76791538D02*
X185558788Y-76867728D01*
X185558788Y-76867728D02*
X185558788Y-76982014D01*
X185558788Y-76982014D02*
X185520692Y-77058204D01*
X185520692Y-77058204D02*
X185482597Y-77096300D01*
X185482597Y-77096300D02*
X185406407Y-77134395D01*
X185406407Y-77134395D02*
X185101645Y-77134395D01*
X185101645Y-77134395D02*
X185101645Y-76334395D01*
X185101645Y-76334395D02*
X185368311Y-76334395D01*
X185368311Y-76334395D02*
X185444502Y-76372490D01*
X185444502Y-76372490D02*
X185482597Y-76410585D01*
X185482597Y-76410585D02*
X185520692Y-76486776D01*
X185520692Y-76486776D02*
X185520692Y-76562966D01*
X185520692Y-76562966D02*
X185482597Y-76639157D01*
X185482597Y-76639157D02*
X185444502Y-76677252D01*
X185444502Y-76677252D02*
X185368311Y-76715347D01*
X185368311Y-76715347D02*
X185101645Y-76715347D01*
X185901645Y-77134395D02*
X185901645Y-76334395D01*
X186244501Y-76410585D02*
X186282597Y-76372490D01*
X186282597Y-76372490D02*
X186358787Y-76334395D01*
X186358787Y-76334395D02*
X186549263Y-76334395D01*
X186549263Y-76334395D02*
X186625454Y-76372490D01*
X186625454Y-76372490D02*
X186663549Y-76410585D01*
X186663549Y-76410585D02*
X186701644Y-76486776D01*
X186701644Y-76486776D02*
X186701644Y-76562966D01*
X186701644Y-76562966D02*
X186663549Y-76677252D01*
X186663549Y-76677252D02*
X186206406Y-77134395D01*
X186206406Y-77134395D02*
X186701644Y-77134395D01*
X187654026Y-77134395D02*
X187654026Y-76334395D01*
X187654026Y-76334395D02*
X187958788Y-76334395D01*
X187958788Y-76334395D02*
X188034978Y-76372490D01*
X188034978Y-76372490D02*
X188073073Y-76410585D01*
X188073073Y-76410585D02*
X188111169Y-76486776D01*
X188111169Y-76486776D02*
X188111169Y-76601061D01*
X188111169Y-76601061D02*
X188073073Y-76677252D01*
X188073073Y-76677252D02*
X188034978Y-76715347D01*
X188034978Y-76715347D02*
X187958788Y-76753442D01*
X187958788Y-76753442D02*
X187654026Y-76753442D01*
X188377835Y-76334395D02*
X188568311Y-77134395D01*
X188568311Y-77134395D02*
X188720692Y-76562966D01*
X188720692Y-76562966D02*
X188873073Y-77134395D01*
X188873073Y-77134395D02*
X189063550Y-76334395D01*
X189634978Y-76715347D02*
X189749264Y-76753442D01*
X189749264Y-76753442D02*
X189787359Y-76791538D01*
X189787359Y-76791538D02*
X189825455Y-76867728D01*
X189825455Y-76867728D02*
X189825455Y-76982014D01*
X189825455Y-76982014D02*
X189787359Y-77058204D01*
X189787359Y-77058204D02*
X189749264Y-77096300D01*
X189749264Y-77096300D02*
X189673074Y-77134395D01*
X189673074Y-77134395D02*
X189368312Y-77134395D01*
X189368312Y-77134395D02*
X189368312Y-76334395D01*
X189368312Y-76334395D02*
X189634978Y-76334395D01*
X189634978Y-76334395D02*
X189711169Y-76372490D01*
X189711169Y-76372490D02*
X189749264Y-76410585D01*
X189749264Y-76410585D02*
X189787359Y-76486776D01*
X189787359Y-76486776D02*
X189787359Y-76562966D01*
X189787359Y-76562966D02*
X189749264Y-76639157D01*
X189749264Y-76639157D02*
X189711169Y-76677252D01*
X189711169Y-76677252D02*
X189634978Y-76715347D01*
X189634978Y-76715347D02*
X189368312Y-76715347D01*
X191196883Y-76372490D02*
X191120693Y-76334395D01*
X191120693Y-76334395D02*
X191006407Y-76334395D01*
X191006407Y-76334395D02*
X190892121Y-76372490D01*
X190892121Y-76372490D02*
X190815931Y-76448680D01*
X190815931Y-76448680D02*
X190777836Y-76524871D01*
X190777836Y-76524871D02*
X190739740Y-76677252D01*
X190739740Y-76677252D02*
X190739740Y-76791538D01*
X190739740Y-76791538D02*
X190777836Y-76943919D01*
X190777836Y-76943919D02*
X190815931Y-77020109D01*
X190815931Y-77020109D02*
X190892121Y-77096300D01*
X190892121Y-77096300D02*
X191006407Y-77134395D01*
X191006407Y-77134395D02*
X191082598Y-77134395D01*
X191082598Y-77134395D02*
X191196883Y-77096300D01*
X191196883Y-77096300D02*
X191234979Y-77058204D01*
X191234979Y-77058204D02*
X191234979Y-76791538D01*
X191234979Y-76791538D02*
X191082598Y-76791538D01*
X191577836Y-77134395D02*
X191577836Y-76334395D01*
X191577836Y-76334395D02*
X192034979Y-77134395D01*
X192034979Y-77134395D02*
X192034979Y-76334395D01*
X192415931Y-77134395D02*
X192415931Y-76334395D01*
X192415931Y-76334395D02*
X192606407Y-76334395D01*
X192606407Y-76334395D02*
X192720693Y-76372490D01*
X192720693Y-76372490D02*
X192796883Y-76448680D01*
X192796883Y-76448680D02*
X192834978Y-76524871D01*
X192834978Y-76524871D02*
X192873074Y-76677252D01*
X192873074Y-76677252D02*
X192873074Y-76791538D01*
X192873074Y-76791538D02*
X192834978Y-76943919D01*
X192834978Y-76943919D02*
X192796883Y-77020109D01*
X192796883Y-77020109D02*
X192720693Y-77096300D01*
X192720693Y-77096300D02*
X192606407Y-77134395D01*
X192606407Y-77134395D02*
X192415931Y-77134395D01*
X122936750Y-90568804D02*
X122898654Y-90606900D01*
X122898654Y-90606900D02*
X122784369Y-90644995D01*
X122784369Y-90644995D02*
X122708178Y-90644995D01*
X122708178Y-90644995D02*
X122593892Y-90606900D01*
X122593892Y-90606900D02*
X122517702Y-90530709D01*
X122517702Y-90530709D02*
X122479607Y-90454519D01*
X122479607Y-90454519D02*
X122441511Y-90302138D01*
X122441511Y-90302138D02*
X122441511Y-90187852D01*
X122441511Y-90187852D02*
X122479607Y-90035471D01*
X122479607Y-90035471D02*
X122517702Y-89959280D01*
X122517702Y-89959280D02*
X122593892Y-89883090D01*
X122593892Y-89883090D02*
X122708178Y-89844995D01*
X122708178Y-89844995D02*
X122784369Y-89844995D01*
X122784369Y-89844995D02*
X122898654Y-89883090D01*
X122898654Y-89883090D02*
X122936750Y-89921185D01*
X123241511Y-90606900D02*
X123355797Y-90644995D01*
X123355797Y-90644995D02*
X123546273Y-90644995D01*
X123546273Y-90644995D02*
X123622464Y-90606900D01*
X123622464Y-90606900D02*
X123660559Y-90568804D01*
X123660559Y-90568804D02*
X123698654Y-90492614D01*
X123698654Y-90492614D02*
X123698654Y-90416423D01*
X123698654Y-90416423D02*
X123660559Y-90340233D01*
X123660559Y-90340233D02*
X123622464Y-90302138D01*
X123622464Y-90302138D02*
X123546273Y-90264042D01*
X123546273Y-90264042D02*
X123393892Y-90225947D01*
X123393892Y-90225947D02*
X123317702Y-90187852D01*
X123317702Y-90187852D02*
X123279607Y-90149757D01*
X123279607Y-90149757D02*
X123241511Y-90073566D01*
X123241511Y-90073566D02*
X123241511Y-89997376D01*
X123241511Y-89997376D02*
X123279607Y-89921185D01*
X123279607Y-89921185D02*
X123317702Y-89883090D01*
X123317702Y-89883090D02*
X123393892Y-89844995D01*
X123393892Y-89844995D02*
X123584369Y-89844995D01*
X123584369Y-89844995D02*
X123698654Y-89883090D01*
X122441511Y-93182900D02*
X122555797Y-93220995D01*
X122555797Y-93220995D02*
X122746273Y-93220995D01*
X122746273Y-93220995D02*
X122822464Y-93182900D01*
X122822464Y-93182900D02*
X122860559Y-93144804D01*
X122860559Y-93144804D02*
X122898654Y-93068614D01*
X122898654Y-93068614D02*
X122898654Y-92992423D01*
X122898654Y-92992423D02*
X122860559Y-92916233D01*
X122860559Y-92916233D02*
X122822464Y-92878138D01*
X122822464Y-92878138D02*
X122746273Y-92840042D01*
X122746273Y-92840042D02*
X122593892Y-92801947D01*
X122593892Y-92801947D02*
X122517702Y-92763852D01*
X122517702Y-92763852D02*
X122479607Y-92725757D01*
X122479607Y-92725757D02*
X122441511Y-92649566D01*
X122441511Y-92649566D02*
X122441511Y-92573376D01*
X122441511Y-92573376D02*
X122479607Y-92497185D01*
X122479607Y-92497185D02*
X122517702Y-92459090D01*
X122517702Y-92459090D02*
X122593892Y-92420995D01*
X122593892Y-92420995D02*
X122784369Y-92420995D01*
X122784369Y-92420995D02*
X122898654Y-92459090D01*
X123698655Y-93144804D02*
X123660559Y-93182900D01*
X123660559Y-93182900D02*
X123546274Y-93220995D01*
X123546274Y-93220995D02*
X123470083Y-93220995D01*
X123470083Y-93220995D02*
X123355797Y-93182900D01*
X123355797Y-93182900D02*
X123279607Y-93106709D01*
X123279607Y-93106709D02*
X123241512Y-93030519D01*
X123241512Y-93030519D02*
X123203416Y-92878138D01*
X123203416Y-92878138D02*
X123203416Y-92763852D01*
X123203416Y-92763852D02*
X123241512Y-92611471D01*
X123241512Y-92611471D02*
X123279607Y-92535280D01*
X123279607Y-92535280D02*
X123355797Y-92459090D01*
X123355797Y-92459090D02*
X123470083Y-92420995D01*
X123470083Y-92420995D02*
X123546274Y-92420995D01*
X123546274Y-92420995D02*
X123660559Y-92459090D01*
X123660559Y-92459090D02*
X123698655Y-92497185D01*
X124041512Y-93220995D02*
X124041512Y-92420995D01*
X124498655Y-93220995D02*
X124155797Y-92763852D01*
X124498655Y-92420995D02*
X124041512Y-92878138D01*
X122479607Y-95796995D02*
X122479607Y-94996995D01*
X122479607Y-94996995D02*
X122746273Y-95568423D01*
X122746273Y-95568423D02*
X123012940Y-94996995D01*
X123012940Y-94996995D02*
X123012940Y-95796995D01*
X123546274Y-94996995D02*
X123698655Y-94996995D01*
X123698655Y-94996995D02*
X123774845Y-95035090D01*
X123774845Y-95035090D02*
X123851036Y-95111280D01*
X123851036Y-95111280D02*
X123889131Y-95263661D01*
X123889131Y-95263661D02*
X123889131Y-95530328D01*
X123889131Y-95530328D02*
X123851036Y-95682709D01*
X123851036Y-95682709D02*
X123774845Y-95758900D01*
X123774845Y-95758900D02*
X123698655Y-95796995D01*
X123698655Y-95796995D02*
X123546274Y-95796995D01*
X123546274Y-95796995D02*
X123470083Y-95758900D01*
X123470083Y-95758900D02*
X123393893Y-95682709D01*
X123393893Y-95682709D02*
X123355797Y-95530328D01*
X123355797Y-95530328D02*
X123355797Y-95263661D01*
X123355797Y-95263661D02*
X123393893Y-95111280D01*
X123393893Y-95111280D02*
X123470083Y-95035090D01*
X123470083Y-95035090D02*
X123546274Y-94996995D01*
X124193892Y-95758900D02*
X124308178Y-95796995D01*
X124308178Y-95796995D02*
X124498654Y-95796995D01*
X124498654Y-95796995D02*
X124574845Y-95758900D01*
X124574845Y-95758900D02*
X124612940Y-95720804D01*
X124612940Y-95720804D02*
X124651035Y-95644614D01*
X124651035Y-95644614D02*
X124651035Y-95568423D01*
X124651035Y-95568423D02*
X124612940Y-95492233D01*
X124612940Y-95492233D02*
X124574845Y-95454138D01*
X124574845Y-95454138D02*
X124498654Y-95416042D01*
X124498654Y-95416042D02*
X124346273Y-95377947D01*
X124346273Y-95377947D02*
X124270083Y-95339852D01*
X124270083Y-95339852D02*
X124231988Y-95301757D01*
X124231988Y-95301757D02*
X124193892Y-95225566D01*
X124193892Y-95225566D02*
X124193892Y-95149376D01*
X124193892Y-95149376D02*
X124231988Y-95073185D01*
X124231988Y-95073185D02*
X124270083Y-95035090D01*
X124270083Y-95035090D02*
X124346273Y-94996995D01*
X124346273Y-94996995D02*
X124536750Y-94996995D01*
X124536750Y-94996995D02*
X124651035Y-95035090D01*
X124993893Y-95796995D02*
X124993893Y-94996995D01*
X122479607Y-98372995D02*
X122479607Y-97572995D01*
X122479607Y-97572995D02*
X122746273Y-98144423D01*
X122746273Y-98144423D02*
X123012940Y-97572995D01*
X123012940Y-97572995D02*
X123012940Y-98372995D01*
X123393893Y-98372995D02*
X123393893Y-97572995D01*
X123736749Y-98334900D02*
X123851035Y-98372995D01*
X123851035Y-98372995D02*
X124041511Y-98372995D01*
X124041511Y-98372995D02*
X124117702Y-98334900D01*
X124117702Y-98334900D02*
X124155797Y-98296804D01*
X124155797Y-98296804D02*
X124193892Y-98220614D01*
X124193892Y-98220614D02*
X124193892Y-98144423D01*
X124193892Y-98144423D02*
X124155797Y-98068233D01*
X124155797Y-98068233D02*
X124117702Y-98030138D01*
X124117702Y-98030138D02*
X124041511Y-97992042D01*
X124041511Y-97992042D02*
X123889130Y-97953947D01*
X123889130Y-97953947D02*
X123812940Y-97915852D01*
X123812940Y-97915852D02*
X123774845Y-97877757D01*
X123774845Y-97877757D02*
X123736749Y-97801566D01*
X123736749Y-97801566D02*
X123736749Y-97725376D01*
X123736749Y-97725376D02*
X123774845Y-97649185D01*
X123774845Y-97649185D02*
X123812940Y-97611090D01*
X123812940Y-97611090D02*
X123889130Y-97572995D01*
X123889130Y-97572995D02*
X124079607Y-97572995D01*
X124079607Y-97572995D02*
X124193892Y-97611090D01*
X124689131Y-97572995D02*
X124841512Y-97572995D01*
X124841512Y-97572995D02*
X124917702Y-97611090D01*
X124917702Y-97611090D02*
X124993893Y-97687280D01*
X124993893Y-97687280D02*
X125031988Y-97839661D01*
X125031988Y-97839661D02*
X125031988Y-98106328D01*
X125031988Y-98106328D02*
X124993893Y-98258709D01*
X124993893Y-98258709D02*
X124917702Y-98334900D01*
X124917702Y-98334900D02*
X124841512Y-98372995D01*
X124841512Y-98372995D02*
X124689131Y-98372995D01*
X124689131Y-98372995D02*
X124612940Y-98334900D01*
X124612940Y-98334900D02*
X124536750Y-98258709D01*
X124536750Y-98258709D02*
X124498654Y-98106328D01*
X124498654Y-98106328D02*
X124498654Y-97839661D01*
X124498654Y-97839661D02*
X124536750Y-97687280D01*
X124536750Y-97687280D02*
X124612940Y-97611090D01*
X124612940Y-97611090D02*
X124689131Y-97572995D01*
X122860559Y-100148995D02*
X122479607Y-100148995D01*
X122479607Y-100148995D02*
X122441511Y-100529947D01*
X122441511Y-100529947D02*
X122479607Y-100491852D01*
X122479607Y-100491852D02*
X122555797Y-100453757D01*
X122555797Y-100453757D02*
X122746273Y-100453757D01*
X122746273Y-100453757D02*
X122822464Y-100491852D01*
X122822464Y-100491852D02*
X122860559Y-100529947D01*
X122860559Y-100529947D02*
X122898654Y-100606138D01*
X122898654Y-100606138D02*
X122898654Y-100796614D01*
X122898654Y-100796614D02*
X122860559Y-100872804D01*
X122860559Y-100872804D02*
X122822464Y-100910900D01*
X122822464Y-100910900D02*
X122746273Y-100948995D01*
X122746273Y-100948995D02*
X122555797Y-100948995D01*
X122555797Y-100948995D02*
X122479607Y-100910900D01*
X122479607Y-100910900D02*
X122441511Y-100872804D01*
X123127226Y-100148995D02*
X123393893Y-100948995D01*
X123393893Y-100948995D02*
X123660559Y-100148995D01*
X122898654Y-102763090D02*
X122822464Y-102724995D01*
X122822464Y-102724995D02*
X122708178Y-102724995D01*
X122708178Y-102724995D02*
X122593892Y-102763090D01*
X122593892Y-102763090D02*
X122517702Y-102839280D01*
X122517702Y-102839280D02*
X122479607Y-102915471D01*
X122479607Y-102915471D02*
X122441511Y-103067852D01*
X122441511Y-103067852D02*
X122441511Y-103182138D01*
X122441511Y-103182138D02*
X122479607Y-103334519D01*
X122479607Y-103334519D02*
X122517702Y-103410709D01*
X122517702Y-103410709D02*
X122593892Y-103486900D01*
X122593892Y-103486900D02*
X122708178Y-103524995D01*
X122708178Y-103524995D02*
X122784369Y-103524995D01*
X122784369Y-103524995D02*
X122898654Y-103486900D01*
X122898654Y-103486900D02*
X122936750Y-103448804D01*
X122936750Y-103448804D02*
X122936750Y-103182138D01*
X122936750Y-103182138D02*
X122784369Y-103182138D01*
X123279607Y-103524995D02*
X123279607Y-102724995D01*
X123279607Y-102724995D02*
X123736750Y-103524995D01*
X123736750Y-103524995D02*
X123736750Y-102724995D01*
X124117702Y-103524995D02*
X124117702Y-102724995D01*
X124117702Y-102724995D02*
X124308178Y-102724995D01*
X124308178Y-102724995D02*
X124422464Y-102763090D01*
X124422464Y-102763090D02*
X124498654Y-102839280D01*
X124498654Y-102839280D02*
X124536749Y-102915471D01*
X124536749Y-102915471D02*
X124574845Y-103067852D01*
X124574845Y-103067852D02*
X124574845Y-103182138D01*
X124574845Y-103182138D02*
X124536749Y-103334519D01*
X124536749Y-103334519D02*
X124498654Y-103410709D01*
X124498654Y-103410709D02*
X124422464Y-103486900D01*
X124422464Y-103486900D02*
X124308178Y-103524995D01*
X124308178Y-103524995D02*
X124117702Y-103524995D01*
D13*
X108301310Y-111510028D02*
X108301310Y-110010028D01*
X108301310Y-110010028D02*
X108801310Y-111081457D01*
X108801310Y-111081457D02*
X109301310Y-110010028D01*
X109301310Y-110010028D02*
X109301310Y-111510028D01*
X110301311Y-110010028D02*
X110587025Y-110010028D01*
X110587025Y-110010028D02*
X110729882Y-110081457D01*
X110729882Y-110081457D02*
X110872739Y-110224314D01*
X110872739Y-110224314D02*
X110944168Y-110510028D01*
X110944168Y-110510028D02*
X110944168Y-111010028D01*
X110944168Y-111010028D02*
X110872739Y-111295742D01*
X110872739Y-111295742D02*
X110729882Y-111438600D01*
X110729882Y-111438600D02*
X110587025Y-111510028D01*
X110587025Y-111510028D02*
X110301311Y-111510028D01*
X110301311Y-111510028D02*
X110158454Y-111438600D01*
X110158454Y-111438600D02*
X110015596Y-111295742D01*
X110015596Y-111295742D02*
X109944168Y-111010028D01*
X109944168Y-111010028D02*
X109944168Y-110510028D01*
X109944168Y-110510028D02*
X110015596Y-110224314D01*
X110015596Y-110224314D02*
X110158454Y-110081457D01*
X110158454Y-110081457D02*
X110301311Y-110010028D01*
X111372740Y-110010028D02*
X112229883Y-110010028D01*
X111801311Y-111510028D02*
X111801311Y-110010028D01*
X113015597Y-110010028D02*
X113301311Y-110010028D01*
X113301311Y-110010028D02*
X113444168Y-110081457D01*
X113444168Y-110081457D02*
X113587025Y-110224314D01*
X113587025Y-110224314D02*
X113658454Y-110510028D01*
X113658454Y-110510028D02*
X113658454Y-111010028D01*
X113658454Y-111010028D02*
X113587025Y-111295742D01*
X113587025Y-111295742D02*
X113444168Y-111438600D01*
X113444168Y-111438600D02*
X113301311Y-111510028D01*
X113301311Y-111510028D02*
X113015597Y-111510028D01*
X113015597Y-111510028D02*
X112872740Y-111438600D01*
X112872740Y-111438600D02*
X112729882Y-111295742D01*
X112729882Y-111295742D02*
X112658454Y-111010028D01*
X112658454Y-111010028D02*
X112658454Y-110510028D01*
X112658454Y-110510028D02*
X112729882Y-110224314D01*
X112729882Y-110224314D02*
X112872740Y-110081457D01*
X112872740Y-110081457D02*
X113015597Y-110010028D01*
X115158454Y-111510028D02*
X114658454Y-110795742D01*
X114301311Y-111510028D02*
X114301311Y-110010028D01*
X114301311Y-110010028D02*
X114872740Y-110010028D01*
X114872740Y-110010028D02*
X115015597Y-110081457D01*
X115015597Y-110081457D02*
X115087026Y-110152885D01*
X115087026Y-110152885D02*
X115158454Y-110295742D01*
X115158454Y-110295742D02*
X115158454Y-110510028D01*
X115158454Y-110510028D02*
X115087026Y-110652885D01*
X115087026Y-110652885D02*
X115015597Y-110724314D01*
X115015597Y-110724314D02*
X114872740Y-110795742D01*
X114872740Y-110795742D02*
X114301311Y-110795742D01*
X115444169Y-111652885D02*
X116587026Y-111652885D01*
X116872740Y-110152885D02*
X116944168Y-110081457D01*
X116944168Y-110081457D02*
X117087026Y-110010028D01*
X117087026Y-110010028D02*
X117444168Y-110010028D01*
X117444168Y-110010028D02*
X117587026Y-110081457D01*
X117587026Y-110081457D02*
X117658454Y-110152885D01*
X117658454Y-110152885D02*
X117729883Y-110295742D01*
X117729883Y-110295742D02*
X117729883Y-110438600D01*
X117729883Y-110438600D02*
X117658454Y-110652885D01*
X117658454Y-110652885D02*
X116801311Y-111510028D01*
X116801311Y-111510028D02*
X117729883Y-111510028D01*
D11*
X140077941Y-128290619D02*
X140363655Y-128385857D01*
X140363655Y-128385857D02*
X140458893Y-128481095D01*
X140458893Y-128481095D02*
X140554131Y-128671571D01*
X140554131Y-128671571D02*
X140554131Y-128957285D01*
X140554131Y-128957285D02*
X140458893Y-129147761D01*
X140458893Y-129147761D02*
X140363655Y-129243000D01*
X140363655Y-129243000D02*
X140173179Y-129338238D01*
X140173179Y-129338238D02*
X139411274Y-129338238D01*
X139411274Y-129338238D02*
X139411274Y-127338238D01*
X139411274Y-127338238D02*
X140077941Y-127338238D01*
X140077941Y-127338238D02*
X140268417Y-127433476D01*
X140268417Y-127433476D02*
X140363655Y-127528714D01*
X140363655Y-127528714D02*
X140458893Y-127719190D01*
X140458893Y-127719190D02*
X140458893Y-127909666D01*
X140458893Y-127909666D02*
X140363655Y-128100142D01*
X140363655Y-128100142D02*
X140268417Y-128195380D01*
X140268417Y-128195380D02*
X140077941Y-128290619D01*
X140077941Y-128290619D02*
X139411274Y-128290619D01*
X141316036Y-128766809D02*
X142268417Y-128766809D01*
X141125560Y-129338238D02*
X141792226Y-127338238D01*
X141792226Y-127338238D02*
X142458893Y-129338238D01*
X142839846Y-127338238D02*
X143982703Y-127338238D01*
X143411274Y-129338238D02*
X143411274Y-127338238D01*
X144363656Y-127338238D02*
X145506513Y-127338238D01*
X144935084Y-129338238D02*
X144935084Y-127338238D01*
X146173180Y-128290619D02*
X146839847Y-128290619D01*
X147125561Y-129338238D02*
X146173180Y-129338238D01*
X146173180Y-129338238D02*
X146173180Y-127338238D01*
X146173180Y-127338238D02*
X147125561Y-127338238D01*
X149125561Y-129338238D02*
X148458894Y-128385857D01*
X147982704Y-129338238D02*
X147982704Y-127338238D01*
X147982704Y-127338238D02*
X148744609Y-127338238D01*
X148744609Y-127338238D02*
X148935085Y-127433476D01*
X148935085Y-127433476D02*
X149030323Y-127528714D01*
X149030323Y-127528714D02*
X149125561Y-127719190D01*
X149125561Y-127719190D02*
X149125561Y-128004904D01*
X149125561Y-128004904D02*
X149030323Y-128195380D01*
X149030323Y-128195380D02*
X148935085Y-128290619D01*
X148935085Y-128290619D02*
X148744609Y-128385857D01*
X148744609Y-128385857D02*
X147982704Y-128385857D01*
X150363656Y-128385857D02*
X150363656Y-129338238D01*
X149696990Y-127338238D02*
X150363656Y-128385857D01*
X150363656Y-128385857D02*
X151030323Y-127338238D01*
D14*
X140575577Y-137545438D02*
X140480339Y-137497819D01*
X140480339Y-137497819D02*
X140337482Y-137497819D01*
X140337482Y-137497819D02*
X140194625Y-137545438D01*
X140194625Y-137545438D02*
X140099387Y-137640676D01*
X140099387Y-137640676D02*
X140051768Y-137735914D01*
X140051768Y-137735914D02*
X140004149Y-137926390D01*
X140004149Y-137926390D02*
X140004149Y-138069247D01*
X140004149Y-138069247D02*
X140051768Y-138259723D01*
X140051768Y-138259723D02*
X140099387Y-138354961D01*
X140099387Y-138354961D02*
X140194625Y-138450200D01*
X140194625Y-138450200D02*
X140337482Y-138497819D01*
X140337482Y-138497819D02*
X140432720Y-138497819D01*
X140432720Y-138497819D02*
X140575577Y-138450200D01*
X140575577Y-138450200D02*
X140623196Y-138402580D01*
X140623196Y-138402580D02*
X140623196Y-138069247D01*
X140623196Y-138069247D02*
X140432720Y-138069247D01*
X142289863Y-137497819D02*
X141813673Y-137497819D01*
X141813673Y-137497819D02*
X141766054Y-137974009D01*
X141766054Y-137974009D02*
X141813673Y-137926390D01*
X141813673Y-137926390D02*
X141908911Y-137878771D01*
X141908911Y-137878771D02*
X142147006Y-137878771D01*
X142147006Y-137878771D02*
X142242244Y-137926390D01*
X142242244Y-137926390D02*
X142289863Y-137974009D01*
X142289863Y-137974009D02*
X142337482Y-138069247D01*
X142337482Y-138069247D02*
X142337482Y-138307342D01*
X142337482Y-138307342D02*
X142289863Y-138402580D01*
X142289863Y-138402580D02*
X142242244Y-138450200D01*
X142242244Y-138450200D02*
X142147006Y-138497819D01*
X142147006Y-138497819D02*
X141908911Y-138497819D01*
X141908911Y-138497819D02*
X141813673Y-138450200D01*
X141813673Y-138450200D02*
X141766054Y-138402580D01*
X142623197Y-137497819D02*
X142956530Y-138497819D01*
X142956530Y-138497819D02*
X143289863Y-137497819D01*
X144337483Y-138450200D02*
X144480340Y-138497819D01*
X144480340Y-138497819D02*
X144718435Y-138497819D01*
X144718435Y-138497819D02*
X144813673Y-138450200D01*
X144813673Y-138450200D02*
X144861292Y-138402580D01*
X144861292Y-138402580D02*
X144908911Y-138307342D01*
X144908911Y-138307342D02*
X144908911Y-138212104D01*
X144908911Y-138212104D02*
X144861292Y-138116866D01*
X144861292Y-138116866D02*
X144813673Y-138069247D01*
X144813673Y-138069247D02*
X144718435Y-138021628D01*
X144718435Y-138021628D02*
X144527959Y-137974009D01*
X144527959Y-137974009D02*
X144432721Y-137926390D01*
X144432721Y-137926390D02*
X144385102Y-137878771D01*
X144385102Y-137878771D02*
X144337483Y-137783533D01*
X144337483Y-137783533D02*
X144337483Y-137688295D01*
X144337483Y-137688295D02*
X144385102Y-137593057D01*
X144385102Y-137593057D02*
X144432721Y-137545438D01*
X144432721Y-137545438D02*
X144527959Y-137497819D01*
X144527959Y-137497819D02*
X144766054Y-137497819D01*
X144766054Y-137497819D02*
X144908911Y-137545438D01*
X145813673Y-138497819D02*
X145337483Y-138497819D01*
X145337483Y-138497819D02*
X145337483Y-137497819D01*
X146861293Y-138450200D02*
X147004150Y-138497819D01*
X147004150Y-138497819D02*
X147242245Y-138497819D01*
X147242245Y-138497819D02*
X147337483Y-138450200D01*
X147337483Y-138450200D02*
X147385102Y-138402580D01*
X147385102Y-138402580D02*
X147432721Y-138307342D01*
X147432721Y-138307342D02*
X147432721Y-138212104D01*
X147432721Y-138212104D02*
X147385102Y-138116866D01*
X147385102Y-138116866D02*
X147337483Y-138069247D01*
X147337483Y-138069247D02*
X147242245Y-138021628D01*
X147242245Y-138021628D02*
X147051769Y-137974009D01*
X147051769Y-137974009D02*
X146956531Y-137926390D01*
X146956531Y-137926390D02*
X146908912Y-137878771D01*
X146908912Y-137878771D02*
X146861293Y-137783533D01*
X146861293Y-137783533D02*
X146861293Y-137688295D01*
X146861293Y-137688295D02*
X146908912Y-137593057D01*
X146908912Y-137593057D02*
X146956531Y-137545438D01*
X146956531Y-137545438D02*
X147051769Y-137497819D01*
X147051769Y-137497819D02*
X147289864Y-137497819D01*
X147289864Y-137497819D02*
X147432721Y-137545438D01*
X147861293Y-138497819D02*
X147861293Y-137497819D01*
X147861293Y-137497819D02*
X148099388Y-137497819D01*
X148099388Y-137497819D02*
X148242245Y-137545438D01*
X148242245Y-137545438D02*
X148337483Y-137640676D01*
X148337483Y-137640676D02*
X148385102Y-137735914D01*
X148385102Y-137735914D02*
X148432721Y-137926390D01*
X148432721Y-137926390D02*
X148432721Y-138069247D01*
X148432721Y-138069247D02*
X148385102Y-138259723D01*
X148385102Y-138259723D02*
X148337483Y-138354961D01*
X148337483Y-138354961D02*
X148242245Y-138450200D01*
X148242245Y-138450200D02*
X148099388Y-138497819D01*
X148099388Y-138497819D02*
X147861293Y-138497819D01*
X148813674Y-138212104D02*
X149289864Y-138212104D01*
X148718436Y-138497819D02*
X149051769Y-137497819D01*
X149051769Y-137497819D02*
X149385102Y-138497819D01*
X166991577Y-90002438D02*
X166896339Y-89954819D01*
X166896339Y-89954819D02*
X166753482Y-89954819D01*
X166753482Y-89954819D02*
X166610625Y-90002438D01*
X166610625Y-90002438D02*
X166515387Y-90097676D01*
X166515387Y-90097676D02*
X166467768Y-90192914D01*
X166467768Y-90192914D02*
X166420149Y-90383390D01*
X166420149Y-90383390D02*
X166420149Y-90526247D01*
X166420149Y-90526247D02*
X166467768Y-90716723D01*
X166467768Y-90716723D02*
X166515387Y-90811961D01*
X166515387Y-90811961D02*
X166610625Y-90907200D01*
X166610625Y-90907200D02*
X166753482Y-90954819D01*
X166753482Y-90954819D02*
X166848720Y-90954819D01*
X166848720Y-90954819D02*
X166991577Y-90907200D01*
X166991577Y-90907200D02*
X167039196Y-90859580D01*
X167039196Y-90859580D02*
X167039196Y-90526247D01*
X167039196Y-90526247D02*
X166848720Y-90526247D01*
X167467768Y-90954819D02*
X167467768Y-89954819D01*
X167467768Y-89954819D02*
X168039196Y-90954819D01*
X168039196Y-90954819D02*
X168039196Y-89954819D01*
X168515387Y-90954819D02*
X168515387Y-89954819D01*
X168515387Y-89954819D02*
X168753482Y-89954819D01*
X168753482Y-89954819D02*
X168896339Y-90002438D01*
X168896339Y-90002438D02*
X168991577Y-90097676D01*
X168991577Y-90097676D02*
X169039196Y-90192914D01*
X169039196Y-90192914D02*
X169086815Y-90383390D01*
X169086815Y-90383390D02*
X169086815Y-90526247D01*
X169086815Y-90526247D02*
X169039196Y-90716723D01*
X169039196Y-90716723D02*
X168991577Y-90811961D01*
X168991577Y-90811961D02*
X168896339Y-90907200D01*
X168896339Y-90907200D02*
X168753482Y-90954819D01*
X168753482Y-90954819D02*
X168515387Y-90954819D01*
X166991577Y-94174819D02*
X166420149Y-94174819D01*
X166705863Y-94174819D02*
X166705863Y-93174819D01*
X166705863Y-93174819D02*
X166610625Y-93317676D01*
X166610625Y-93317676D02*
X166515387Y-93412914D01*
X166515387Y-93412914D02*
X166420149Y-93460533D01*
X167372530Y-93270057D02*
X167420149Y-93222438D01*
X167420149Y-93222438D02*
X167515387Y-93174819D01*
X167515387Y-93174819D02*
X167753482Y-93174819D01*
X167753482Y-93174819D02*
X167848720Y-93222438D01*
X167848720Y-93222438D02*
X167896339Y-93270057D01*
X167896339Y-93270057D02*
X167943958Y-93365295D01*
X167943958Y-93365295D02*
X167943958Y-93460533D01*
X167943958Y-93460533D02*
X167896339Y-93603390D01*
X167896339Y-93603390D02*
X167324911Y-94174819D01*
X167324911Y-94174819D02*
X167943958Y-94174819D01*
X168229673Y-93174819D02*
X168563006Y-94174819D01*
X168563006Y-94174819D02*
X168896339Y-93174819D01*
D13*
X171547310Y-111764028D02*
X171547310Y-110264028D01*
X171547310Y-110264028D02*
X172047310Y-111335457D01*
X172047310Y-111335457D02*
X172547310Y-110264028D01*
X172547310Y-110264028D02*
X172547310Y-111764028D01*
X173547311Y-110264028D02*
X173833025Y-110264028D01*
X173833025Y-110264028D02*
X173975882Y-110335457D01*
X173975882Y-110335457D02*
X174118739Y-110478314D01*
X174118739Y-110478314D02*
X174190168Y-110764028D01*
X174190168Y-110764028D02*
X174190168Y-111264028D01*
X174190168Y-111264028D02*
X174118739Y-111549742D01*
X174118739Y-111549742D02*
X173975882Y-111692600D01*
X173975882Y-111692600D02*
X173833025Y-111764028D01*
X173833025Y-111764028D02*
X173547311Y-111764028D01*
X173547311Y-111764028D02*
X173404454Y-111692600D01*
X173404454Y-111692600D02*
X173261596Y-111549742D01*
X173261596Y-111549742D02*
X173190168Y-111264028D01*
X173190168Y-111264028D02*
X173190168Y-110764028D01*
X173190168Y-110764028D02*
X173261596Y-110478314D01*
X173261596Y-110478314D02*
X173404454Y-110335457D01*
X173404454Y-110335457D02*
X173547311Y-110264028D01*
X174618740Y-110264028D02*
X175475883Y-110264028D01*
X175047311Y-111764028D02*
X175047311Y-110264028D01*
X176261597Y-110264028D02*
X176547311Y-110264028D01*
X176547311Y-110264028D02*
X176690168Y-110335457D01*
X176690168Y-110335457D02*
X176833025Y-110478314D01*
X176833025Y-110478314D02*
X176904454Y-110764028D01*
X176904454Y-110764028D02*
X176904454Y-111264028D01*
X176904454Y-111264028D02*
X176833025Y-111549742D01*
X176833025Y-111549742D02*
X176690168Y-111692600D01*
X176690168Y-111692600D02*
X176547311Y-111764028D01*
X176547311Y-111764028D02*
X176261597Y-111764028D01*
X176261597Y-111764028D02*
X176118740Y-111692600D01*
X176118740Y-111692600D02*
X175975882Y-111549742D01*
X175975882Y-111549742D02*
X175904454Y-111264028D01*
X175904454Y-111264028D02*
X175904454Y-110764028D01*
X175904454Y-110764028D02*
X175975882Y-110478314D01*
X175975882Y-110478314D02*
X176118740Y-110335457D01*
X176118740Y-110335457D02*
X176261597Y-110264028D01*
X178404454Y-111764028D02*
X177904454Y-111049742D01*
X177547311Y-111764028D02*
X177547311Y-110264028D01*
X177547311Y-110264028D02*
X178118740Y-110264028D01*
X178118740Y-110264028D02*
X178261597Y-110335457D01*
X178261597Y-110335457D02*
X178333026Y-110406885D01*
X178333026Y-110406885D02*
X178404454Y-110549742D01*
X178404454Y-110549742D02*
X178404454Y-110764028D01*
X178404454Y-110764028D02*
X178333026Y-110906885D01*
X178333026Y-110906885D02*
X178261597Y-110978314D01*
X178261597Y-110978314D02*
X178118740Y-111049742D01*
X178118740Y-111049742D02*
X177547311Y-111049742D01*
X178690169Y-111906885D02*
X179833026Y-111906885D01*
X180975883Y-111764028D02*
X180118740Y-111764028D01*
X180547311Y-111764028D02*
X180547311Y-110264028D01*
X180547311Y-110264028D02*
X180404454Y-110478314D01*
X180404454Y-110478314D02*
X180261597Y-110621171D01*
X180261597Y-110621171D02*
X180118740Y-110692600D01*
D11*
X178095522Y-81394419D02*
X178666950Y-81394419D01*
X178381236Y-82394419D02*
X178381236Y-81394419D01*
X179333617Y-81870609D02*
X179476474Y-81918228D01*
X179476474Y-81918228D02*
X179524093Y-81965847D01*
X179524093Y-81965847D02*
X179571712Y-82061085D01*
X179571712Y-82061085D02*
X179571712Y-82203942D01*
X179571712Y-82203942D02*
X179524093Y-82299180D01*
X179524093Y-82299180D02*
X179476474Y-82346800D01*
X179476474Y-82346800D02*
X179381236Y-82394419D01*
X179381236Y-82394419D02*
X179000284Y-82394419D01*
X179000284Y-82394419D02*
X179000284Y-81394419D01*
X179000284Y-81394419D02*
X179333617Y-81394419D01*
X179333617Y-81394419D02*
X179428855Y-81442038D01*
X179428855Y-81442038D02*
X179476474Y-81489657D01*
X179476474Y-81489657D02*
X179524093Y-81584895D01*
X179524093Y-81584895D02*
X179524093Y-81680133D01*
X179524093Y-81680133D02*
X179476474Y-81775371D01*
X179476474Y-81775371D02*
X179428855Y-81822990D01*
X179428855Y-81822990D02*
X179333617Y-81870609D01*
X179333617Y-81870609D02*
X179000284Y-81870609D01*
X180428855Y-81394419D02*
X180238379Y-81394419D01*
X180238379Y-81394419D02*
X180143141Y-81442038D01*
X180143141Y-81442038D02*
X180095522Y-81489657D01*
X180095522Y-81489657D02*
X180000284Y-81632514D01*
X180000284Y-81632514D02*
X179952665Y-81822990D01*
X179952665Y-81822990D02*
X179952665Y-82203942D01*
X179952665Y-82203942D02*
X180000284Y-82299180D01*
X180000284Y-82299180D02*
X180047903Y-82346800D01*
X180047903Y-82346800D02*
X180143141Y-82394419D01*
X180143141Y-82394419D02*
X180333617Y-82394419D01*
X180333617Y-82394419D02*
X180428855Y-82346800D01*
X180428855Y-82346800D02*
X180476474Y-82299180D01*
X180476474Y-82299180D02*
X180524093Y-82203942D01*
X180524093Y-82203942D02*
X180524093Y-81965847D01*
X180524093Y-81965847D02*
X180476474Y-81870609D01*
X180476474Y-81870609D02*
X180428855Y-81822990D01*
X180428855Y-81822990D02*
X180333617Y-81775371D01*
X180333617Y-81775371D02*
X180143141Y-81775371D01*
X180143141Y-81775371D02*
X180047903Y-81822990D01*
X180047903Y-81822990D02*
X180000284Y-81870609D01*
X180000284Y-81870609D02*
X179952665Y-81965847D01*
X181381236Y-81394419D02*
X181190760Y-81394419D01*
X181190760Y-81394419D02*
X181095522Y-81442038D01*
X181095522Y-81442038D02*
X181047903Y-81489657D01*
X181047903Y-81489657D02*
X180952665Y-81632514D01*
X180952665Y-81632514D02*
X180905046Y-81822990D01*
X180905046Y-81822990D02*
X180905046Y-82203942D01*
X180905046Y-82203942D02*
X180952665Y-82299180D01*
X180952665Y-82299180D02*
X181000284Y-82346800D01*
X181000284Y-82346800D02*
X181095522Y-82394419D01*
X181095522Y-82394419D02*
X181285998Y-82394419D01*
X181285998Y-82394419D02*
X181381236Y-82346800D01*
X181381236Y-82346800D02*
X181428855Y-82299180D01*
X181428855Y-82299180D02*
X181476474Y-82203942D01*
X181476474Y-82203942D02*
X181476474Y-81965847D01*
X181476474Y-81965847D02*
X181428855Y-81870609D01*
X181428855Y-81870609D02*
X181381236Y-81822990D01*
X181381236Y-81822990D02*
X181285998Y-81775371D01*
X181285998Y-81775371D02*
X181095522Y-81775371D01*
X181095522Y-81775371D02*
X181000284Y-81822990D01*
X181000284Y-81822990D02*
X180952665Y-81870609D01*
X180952665Y-81870609D02*
X180905046Y-81965847D01*
X182428855Y-82394419D02*
X181857427Y-82394419D01*
X182143141Y-82394419D02*
X182143141Y-81394419D01*
X182143141Y-81394419D02*
X182047903Y-81537276D01*
X182047903Y-81537276D02*
X181952665Y-81632514D01*
X181952665Y-81632514D02*
X181857427Y-81680133D01*
X182809808Y-81489657D02*
X182857427Y-81442038D01*
X182857427Y-81442038D02*
X182952665Y-81394419D01*
X182952665Y-81394419D02*
X183190760Y-81394419D01*
X183190760Y-81394419D02*
X183285998Y-81442038D01*
X183285998Y-81442038D02*
X183333617Y-81489657D01*
X183333617Y-81489657D02*
X183381236Y-81584895D01*
X183381236Y-81584895D02*
X183381236Y-81680133D01*
X183381236Y-81680133D02*
X183333617Y-81822990D01*
X183333617Y-81822990D02*
X182762189Y-82394419D01*
X182762189Y-82394419D02*
X183381236Y-82394419D01*
X184143141Y-81870609D02*
X183809808Y-81870609D01*
X183809808Y-82394419D02*
X183809808Y-81394419D01*
X183809808Y-81394419D02*
X184285998Y-81394419D01*
X184666951Y-82394419D02*
X184666951Y-81394419D01*
X184666951Y-81394419D02*
X185238379Y-82394419D01*
X185238379Y-82394419D02*
X185238379Y-81394419D01*
X186238379Y-81442038D02*
X186143141Y-81394419D01*
X186143141Y-81394419D02*
X186000284Y-81394419D01*
X186000284Y-81394419D02*
X185857427Y-81442038D01*
X185857427Y-81442038D02*
X185762189Y-81537276D01*
X185762189Y-81537276D02*
X185714570Y-81632514D01*
X185714570Y-81632514D02*
X185666951Y-81822990D01*
X185666951Y-81822990D02*
X185666951Y-81965847D01*
X185666951Y-81965847D02*
X185714570Y-82156323D01*
X185714570Y-82156323D02*
X185762189Y-82251561D01*
X185762189Y-82251561D02*
X185857427Y-82346800D01*
X185857427Y-82346800D02*
X186000284Y-82394419D01*
X186000284Y-82394419D02*
X186095522Y-82394419D01*
X186095522Y-82394419D02*
X186238379Y-82346800D01*
X186238379Y-82346800D02*
X186285998Y-82299180D01*
X186285998Y-82299180D02*
X186285998Y-81965847D01*
X186285998Y-81965847D02*
X186095522Y-81965847D01*
X119513484Y-66829552D02*
X118751579Y-67115266D01*
X118751579Y-67115266D02*
X119513484Y-67400980D01*
X119989674Y-67115266D02*
X120751579Y-67115266D01*
X118751579Y-68106219D02*
X118751579Y-68915742D01*
X118751579Y-68915742D02*
X118799198Y-69010980D01*
X118799198Y-69010980D02*
X118846817Y-69058600D01*
X118846817Y-69058600D02*
X118942055Y-69106219D01*
X118942055Y-69106219D02*
X119132531Y-69106219D01*
X119132531Y-69106219D02*
X119227769Y-69058600D01*
X119227769Y-69058600D02*
X119275388Y-69010980D01*
X119275388Y-69010980D02*
X119323007Y-68915742D01*
X119323007Y-68915742D02*
X119323007Y-68106219D01*
X118703960Y-70668600D02*
X118846817Y-70716219D01*
X118846817Y-70716219D02*
X119084912Y-70716219D01*
X119084912Y-70716219D02*
X119180150Y-70668600D01*
X119180150Y-70668600D02*
X119227769Y-70620980D01*
X119227769Y-70620980D02*
X119275388Y-70525742D01*
X119275388Y-70525742D02*
X119275388Y-70430504D01*
X119275388Y-70430504D02*
X119227769Y-70335266D01*
X119227769Y-70335266D02*
X119180150Y-70287647D01*
X119180150Y-70287647D02*
X119084912Y-70240028D01*
X119084912Y-70240028D02*
X118894436Y-70192409D01*
X118894436Y-70192409D02*
X118799198Y-70144790D01*
X118799198Y-70144790D02*
X118751579Y-70097171D01*
X118751579Y-70097171D02*
X118703960Y-70001933D01*
X118703960Y-70001933D02*
X118703960Y-69906695D01*
X118703960Y-69906695D02*
X118751579Y-69811457D01*
X118751579Y-69811457D02*
X118799198Y-69763838D01*
X118799198Y-69763838D02*
X118894436Y-69716219D01*
X118894436Y-69716219D02*
X119132531Y-69716219D01*
X119132531Y-69716219D02*
X119275388Y-69763838D01*
X119084912Y-71802409D02*
X119227769Y-71850028D01*
X119227769Y-71850028D02*
X119275388Y-71897647D01*
X119275388Y-71897647D02*
X119323007Y-71992885D01*
X119323007Y-71992885D02*
X119323007Y-72135742D01*
X119323007Y-72135742D02*
X119275388Y-72230980D01*
X119275388Y-72230980D02*
X119227769Y-72278600D01*
X119227769Y-72278600D02*
X119132531Y-72326219D01*
X119132531Y-72326219D02*
X118751579Y-72326219D01*
X118751579Y-72326219D02*
X118751579Y-71326219D01*
X118751579Y-71326219D02*
X119084912Y-71326219D01*
X119084912Y-71326219D02*
X119180150Y-71373838D01*
X119180150Y-71373838D02*
X119227769Y-71421457D01*
X119227769Y-71421457D02*
X119275388Y-71516695D01*
X119275388Y-71516695D02*
X119275388Y-71611933D01*
X119275388Y-71611933D02*
X119227769Y-71707171D01*
X119227769Y-71707171D02*
X119180150Y-71754790D01*
X119180150Y-71754790D02*
X119084912Y-71802409D01*
X119084912Y-71802409D02*
X118751579Y-71802409D01*
X119513484Y-73269552D02*
X118751579Y-73555266D01*
X118751579Y-73555266D02*
X119513484Y-73840980D01*
X119989674Y-73555266D02*
X120751579Y-73555266D01*
X115040619Y-82590104D02*
X115850142Y-82590104D01*
X115850142Y-82590104D02*
X115945380Y-82542485D01*
X115945380Y-82542485D02*
X115993000Y-82494866D01*
X115993000Y-82494866D02*
X116040619Y-82399628D01*
X116040619Y-82399628D02*
X116040619Y-82209152D01*
X116040619Y-82209152D02*
X115993000Y-82113914D01*
X115993000Y-82113914D02*
X115945380Y-82066295D01*
X115945380Y-82066295D02*
X115850142Y-82018676D01*
X115850142Y-82018676D02*
X115040619Y-82018676D01*
X115135857Y-81590104D02*
X115088238Y-81542485D01*
X115088238Y-81542485D02*
X115040619Y-81447247D01*
X115040619Y-81447247D02*
X115040619Y-81209152D01*
X115040619Y-81209152D02*
X115088238Y-81113914D01*
X115088238Y-81113914D02*
X115135857Y-81066295D01*
X115135857Y-81066295D02*
X115231095Y-81018676D01*
X115231095Y-81018676D02*
X115326333Y-81018676D01*
X115326333Y-81018676D02*
X115469190Y-81066295D01*
X115469190Y-81066295D02*
X116040619Y-81637723D01*
X116040619Y-81637723D02*
X116040619Y-81018676D01*
X99666066Y-85286019D02*
X99666066Y-86000304D01*
X99666066Y-86000304D02*
X99618447Y-86143161D01*
X99618447Y-86143161D02*
X99523209Y-86238400D01*
X99523209Y-86238400D02*
X99380352Y-86286019D01*
X99380352Y-86286019D02*
X99285114Y-86286019D01*
X100570828Y-85619352D02*
X100570828Y-86286019D01*
X100332733Y-85238400D02*
X100094638Y-85952685D01*
X100094638Y-85952685D02*
X100713685Y-85952685D01*
X116033561Y-86503657D02*
X115938323Y-86456038D01*
X115938323Y-86456038D02*
X115843085Y-86360800D01*
X115843085Y-86360800D02*
X115700228Y-86217942D01*
X115700228Y-86217942D02*
X115604990Y-86170323D01*
X115604990Y-86170323D02*
X115509752Y-86170323D01*
X115557371Y-86408419D02*
X115462133Y-86360800D01*
X115462133Y-86360800D02*
X115366895Y-86265561D01*
X115366895Y-86265561D02*
X115319276Y-86075085D01*
X115319276Y-86075085D02*
X115319276Y-85741752D01*
X115319276Y-85741752D02*
X115366895Y-85551276D01*
X115366895Y-85551276D02*
X115462133Y-85456038D01*
X115462133Y-85456038D02*
X115557371Y-85408419D01*
X115557371Y-85408419D02*
X115747847Y-85408419D01*
X115747847Y-85408419D02*
X115843085Y-85456038D01*
X115843085Y-85456038D02*
X115938323Y-85551276D01*
X115938323Y-85551276D02*
X115985942Y-85741752D01*
X115985942Y-85741752D02*
X115985942Y-86075085D01*
X115985942Y-86075085D02*
X115938323Y-86265561D01*
X115938323Y-86265561D02*
X115843085Y-86360800D01*
X115843085Y-86360800D02*
X115747847Y-86408419D01*
X115747847Y-86408419D02*
X115557371Y-86408419D01*
X116319276Y-85408419D02*
X116938323Y-85408419D01*
X116938323Y-85408419D02*
X116604990Y-85789371D01*
X116604990Y-85789371D02*
X116747847Y-85789371D01*
X116747847Y-85789371D02*
X116843085Y-85836990D01*
X116843085Y-85836990D02*
X116890704Y-85884609D01*
X116890704Y-85884609D02*
X116938323Y-85979847D01*
X116938323Y-85979847D02*
X116938323Y-86217942D01*
X116938323Y-86217942D02*
X116890704Y-86313180D01*
X116890704Y-86313180D02*
X116843085Y-86360800D01*
X116843085Y-86360800D02*
X116747847Y-86408419D01*
X116747847Y-86408419D02*
X116462133Y-86408419D01*
X116462133Y-86408419D02*
X116366895Y-86360800D01*
X116366895Y-86360800D02*
X116319276Y-86313180D01*
X125733276Y-105247219D02*
X125733276Y-105961504D01*
X125733276Y-105961504D02*
X125685657Y-106104361D01*
X125685657Y-106104361D02*
X125590419Y-106199600D01*
X125590419Y-106199600D02*
X125447562Y-106247219D01*
X125447562Y-106247219D02*
X125352324Y-106247219D01*
X126733276Y-106247219D02*
X126161848Y-106247219D01*
X126447562Y-106247219D02*
X126447562Y-105247219D01*
X126447562Y-105247219D02*
X126352324Y-105390076D01*
X126352324Y-105390076D02*
X126257086Y-105485314D01*
X126257086Y-105485314D02*
X126161848Y-105532933D01*
X127685657Y-106247219D02*
X127114229Y-106247219D01*
X127399943Y-106247219D02*
X127399943Y-105247219D01*
X127399943Y-105247219D02*
X127304705Y-105390076D01*
X127304705Y-105390076D02*
X127209467Y-105485314D01*
X127209467Y-105485314D02*
X127114229Y-105532933D01*
X120534133Y-86154419D02*
X120200800Y-85678228D01*
X119962705Y-86154419D02*
X119962705Y-85154419D01*
X119962705Y-85154419D02*
X120343657Y-85154419D01*
X120343657Y-85154419D02*
X120438895Y-85202038D01*
X120438895Y-85202038D02*
X120486514Y-85249657D01*
X120486514Y-85249657D02*
X120534133Y-85344895D01*
X120534133Y-85344895D02*
X120534133Y-85487752D01*
X120534133Y-85487752D02*
X120486514Y-85582990D01*
X120486514Y-85582990D02*
X120438895Y-85630609D01*
X120438895Y-85630609D02*
X120343657Y-85678228D01*
X120343657Y-85678228D02*
X119962705Y-85678228D01*
X120915086Y-85249657D02*
X120962705Y-85202038D01*
X120962705Y-85202038D02*
X121057943Y-85154419D01*
X121057943Y-85154419D02*
X121296038Y-85154419D01*
X121296038Y-85154419D02*
X121391276Y-85202038D01*
X121391276Y-85202038D02*
X121438895Y-85249657D01*
X121438895Y-85249657D02*
X121486514Y-85344895D01*
X121486514Y-85344895D02*
X121486514Y-85440133D01*
X121486514Y-85440133D02*
X121438895Y-85582990D01*
X121438895Y-85582990D02*
X120867467Y-86154419D01*
X120867467Y-86154419D02*
X121486514Y-86154419D01*
X164852361Y-103623257D02*
X164757123Y-103575638D01*
X164757123Y-103575638D02*
X164661885Y-103480400D01*
X164661885Y-103480400D02*
X164519028Y-103337542D01*
X164519028Y-103337542D02*
X164423790Y-103289923D01*
X164423790Y-103289923D02*
X164328552Y-103289923D01*
X164376171Y-103528019D02*
X164280933Y-103480400D01*
X164280933Y-103480400D02*
X164185695Y-103385161D01*
X164185695Y-103385161D02*
X164138076Y-103194685D01*
X164138076Y-103194685D02*
X164138076Y-102861352D01*
X164138076Y-102861352D02*
X164185695Y-102670876D01*
X164185695Y-102670876D02*
X164280933Y-102575638D01*
X164280933Y-102575638D02*
X164376171Y-102528019D01*
X164376171Y-102528019D02*
X164566647Y-102528019D01*
X164566647Y-102528019D02*
X164661885Y-102575638D01*
X164661885Y-102575638D02*
X164757123Y-102670876D01*
X164757123Y-102670876D02*
X164804742Y-102861352D01*
X164804742Y-102861352D02*
X164804742Y-103194685D01*
X164804742Y-103194685D02*
X164757123Y-103385161D01*
X164757123Y-103385161D02*
X164661885Y-103480400D01*
X164661885Y-103480400D02*
X164566647Y-103528019D01*
X164566647Y-103528019D02*
X164376171Y-103528019D01*
X165757123Y-103528019D02*
X165185695Y-103528019D01*
X165471409Y-103528019D02*
X165471409Y-102528019D01*
X165471409Y-102528019D02*
X165376171Y-102670876D01*
X165376171Y-102670876D02*
X165280933Y-102766114D01*
X165280933Y-102766114D02*
X165185695Y-102813733D01*
X166063267Y-136620800D02*
X166206124Y-136668419D01*
X166206124Y-136668419D02*
X166444219Y-136668419D01*
X166444219Y-136668419D02*
X166539457Y-136620800D01*
X166539457Y-136620800D02*
X166587076Y-136573180D01*
X166587076Y-136573180D02*
X166634695Y-136477942D01*
X166634695Y-136477942D02*
X166634695Y-136382704D01*
X166634695Y-136382704D02*
X166587076Y-136287466D01*
X166587076Y-136287466D02*
X166539457Y-136239847D01*
X166539457Y-136239847D02*
X166444219Y-136192228D01*
X166444219Y-136192228D02*
X166253743Y-136144609D01*
X166253743Y-136144609D02*
X166158505Y-136096990D01*
X166158505Y-136096990D02*
X166110886Y-136049371D01*
X166110886Y-136049371D02*
X166063267Y-135954133D01*
X166063267Y-135954133D02*
X166063267Y-135858895D01*
X166063267Y-135858895D02*
X166110886Y-135763657D01*
X166110886Y-135763657D02*
X166158505Y-135716038D01*
X166158505Y-135716038D02*
X166253743Y-135668419D01*
X166253743Y-135668419D02*
X166491838Y-135668419D01*
X166491838Y-135668419D02*
X166634695Y-135716038D01*
X166968029Y-135668419D02*
X167206124Y-136668419D01*
X167206124Y-136668419D02*
X167396600Y-135954133D01*
X167396600Y-135954133D02*
X167587076Y-136668419D01*
X167587076Y-136668419D02*
X167825172Y-135668419D01*
X168729933Y-136668419D02*
X168158505Y-136668419D01*
X168444219Y-136668419D02*
X168444219Y-135668419D01*
X168444219Y-135668419D02*
X168348981Y-135811276D01*
X168348981Y-135811276D02*
X168253743Y-135906514D01*
X168253743Y-135906514D02*
X168158505Y-135954133D01*
X180020933Y-57147619D02*
X179687600Y-56671428D01*
X179449505Y-57147619D02*
X179449505Y-56147619D01*
X179449505Y-56147619D02*
X179830457Y-56147619D01*
X179830457Y-56147619D02*
X179925695Y-56195238D01*
X179925695Y-56195238D02*
X179973314Y-56242857D01*
X179973314Y-56242857D02*
X180020933Y-56338095D01*
X180020933Y-56338095D02*
X180020933Y-56480952D01*
X180020933Y-56480952D02*
X179973314Y-56576190D01*
X179973314Y-56576190D02*
X179925695Y-56623809D01*
X179925695Y-56623809D02*
X179830457Y-56671428D01*
X179830457Y-56671428D02*
X179449505Y-56671428D01*
X180354267Y-56147619D02*
X180973314Y-56147619D01*
X180973314Y-56147619D02*
X180639981Y-56528571D01*
X180639981Y-56528571D02*
X180782838Y-56528571D01*
X180782838Y-56528571D02*
X180878076Y-56576190D01*
X180878076Y-56576190D02*
X180925695Y-56623809D01*
X180925695Y-56623809D02*
X180973314Y-56719047D01*
X180973314Y-56719047D02*
X180973314Y-56957142D01*
X180973314Y-56957142D02*
X180925695Y-57052380D01*
X180925695Y-57052380D02*
X180878076Y-57100000D01*
X180878076Y-57100000D02*
X180782838Y-57147619D01*
X180782838Y-57147619D02*
X180497124Y-57147619D01*
X180497124Y-57147619D02*
X180401886Y-57100000D01*
X180401886Y-57100000D02*
X180354267Y-57052380D01*
X174961466Y-94598819D02*
X174961466Y-95313104D01*
X174961466Y-95313104D02*
X174913847Y-95455961D01*
X174913847Y-95455961D02*
X174818609Y-95551200D01*
X174818609Y-95551200D02*
X174675752Y-95598819D01*
X174675752Y-95598819D02*
X174580514Y-95598819D01*
X175580514Y-95027390D02*
X175485276Y-94979771D01*
X175485276Y-94979771D02*
X175437657Y-94932152D01*
X175437657Y-94932152D02*
X175390038Y-94836914D01*
X175390038Y-94836914D02*
X175390038Y-94789295D01*
X175390038Y-94789295D02*
X175437657Y-94694057D01*
X175437657Y-94694057D02*
X175485276Y-94646438D01*
X175485276Y-94646438D02*
X175580514Y-94598819D01*
X175580514Y-94598819D02*
X175770990Y-94598819D01*
X175770990Y-94598819D02*
X175866228Y-94646438D01*
X175866228Y-94646438D02*
X175913847Y-94694057D01*
X175913847Y-94694057D02*
X175961466Y-94789295D01*
X175961466Y-94789295D02*
X175961466Y-94836914D01*
X175961466Y-94836914D02*
X175913847Y-94932152D01*
X175913847Y-94932152D02*
X175866228Y-94979771D01*
X175866228Y-94979771D02*
X175770990Y-95027390D01*
X175770990Y-95027390D02*
X175580514Y-95027390D01*
X175580514Y-95027390D02*
X175485276Y-95075009D01*
X175485276Y-95075009D02*
X175437657Y-95122628D01*
X175437657Y-95122628D02*
X175390038Y-95217866D01*
X175390038Y-95217866D02*
X175390038Y-95408342D01*
X175390038Y-95408342D02*
X175437657Y-95503580D01*
X175437657Y-95503580D02*
X175485276Y-95551200D01*
X175485276Y-95551200D02*
X175580514Y-95598819D01*
X175580514Y-95598819D02*
X175770990Y-95598819D01*
X175770990Y-95598819D02*
X175866228Y-95551200D01*
X175866228Y-95551200D02*
X175913847Y-95503580D01*
X175913847Y-95503580D02*
X175961466Y-95408342D01*
X175961466Y-95408342D02*
X175961466Y-95217866D01*
X175961466Y-95217866D02*
X175913847Y-95122628D01*
X175913847Y-95122628D02*
X175866228Y-95075009D01*
X175866228Y-95075009D02*
X175770990Y-95027390D01*
X192797952Y-90376505D02*
X192797952Y-91090790D01*
X192797952Y-91090790D02*
X192750333Y-91233647D01*
X192750333Y-91233647D02*
X192655095Y-91328886D01*
X192655095Y-91328886D02*
X192512238Y-91376505D01*
X192512238Y-91376505D02*
X192417000Y-91376505D01*
X193702714Y-90376505D02*
X193512238Y-90376505D01*
X193512238Y-90376505D02*
X193417000Y-90424124D01*
X193417000Y-90424124D02*
X193369381Y-90471743D01*
X193369381Y-90471743D02*
X193274143Y-90614600D01*
X193274143Y-90614600D02*
X193226524Y-90805076D01*
X193226524Y-90805076D02*
X193226524Y-91186028D01*
X193226524Y-91186028D02*
X193274143Y-91281266D01*
X193274143Y-91281266D02*
X193321762Y-91328886D01*
X193321762Y-91328886D02*
X193417000Y-91376505D01*
X193417000Y-91376505D02*
X193607476Y-91376505D01*
X193607476Y-91376505D02*
X193702714Y-91328886D01*
X193702714Y-91328886D02*
X193750333Y-91281266D01*
X193750333Y-91281266D02*
X193797952Y-91186028D01*
X193797952Y-91186028D02*
X193797952Y-90947933D01*
X193797952Y-90947933D02*
X193750333Y-90852695D01*
X193750333Y-90852695D02*
X193702714Y-90805076D01*
X193702714Y-90805076D02*
X193607476Y-90757457D01*
X193607476Y-90757457D02*
X193417000Y-90757457D01*
X193417000Y-90757457D02*
X193321762Y-90805076D01*
X193321762Y-90805076D02*
X193274143Y-90852695D01*
X193274143Y-90852695D02*
X193226524Y-90947933D01*
X95813666Y-89751819D02*
X95813666Y-90466104D01*
X95813666Y-90466104D02*
X95766047Y-90608961D01*
X95766047Y-90608961D02*
X95670809Y-90704200D01*
X95670809Y-90704200D02*
X95527952Y-90751819D01*
X95527952Y-90751819D02*
X95432714Y-90751819D01*
X96289857Y-90751819D02*
X96289857Y-89751819D01*
X96289857Y-89751819D02*
X96670809Y-89751819D01*
X96670809Y-89751819D02*
X96766047Y-89799438D01*
X96766047Y-89799438D02*
X96813666Y-89847057D01*
X96813666Y-89847057D02*
X96861285Y-89942295D01*
X96861285Y-89942295D02*
X96861285Y-90085152D01*
X96861285Y-90085152D02*
X96813666Y-90180390D01*
X96813666Y-90180390D02*
X96766047Y-90228009D01*
X96766047Y-90228009D02*
X96670809Y-90275628D01*
X96670809Y-90275628D02*
X96289857Y-90275628D01*
X97813666Y-90751819D02*
X97242238Y-90751819D01*
X97527952Y-90751819D02*
X97527952Y-89751819D01*
X97527952Y-89751819D02*
X97432714Y-89894676D01*
X97432714Y-89894676D02*
X97337476Y-89989914D01*
X97337476Y-89989914D02*
X97242238Y-90037533D01*
X169684219Y-74729933D02*
X170398504Y-74729933D01*
X170398504Y-74729933D02*
X170541361Y-74777552D01*
X170541361Y-74777552D02*
X170636600Y-74872790D01*
X170636600Y-74872790D02*
X170684219Y-75015647D01*
X170684219Y-75015647D02*
X170684219Y-75110885D01*
X169684219Y-74348980D02*
X169684219Y-73682314D01*
X169684219Y-73682314D02*
X170684219Y-74110885D01*
X108515161Y-86452857D02*
X108419923Y-86405238D01*
X108419923Y-86405238D02*
X108324685Y-86310000D01*
X108324685Y-86310000D02*
X108181828Y-86167142D01*
X108181828Y-86167142D02*
X108086590Y-86119523D01*
X108086590Y-86119523D02*
X107991352Y-86119523D01*
X108038971Y-86357619D02*
X107943733Y-86310000D01*
X107943733Y-86310000D02*
X107848495Y-86214761D01*
X107848495Y-86214761D02*
X107800876Y-86024285D01*
X107800876Y-86024285D02*
X107800876Y-85690952D01*
X107800876Y-85690952D02*
X107848495Y-85500476D01*
X107848495Y-85500476D02*
X107943733Y-85405238D01*
X107943733Y-85405238D02*
X108038971Y-85357619D01*
X108038971Y-85357619D02*
X108229447Y-85357619D01*
X108229447Y-85357619D02*
X108324685Y-85405238D01*
X108324685Y-85405238D02*
X108419923Y-85500476D01*
X108419923Y-85500476D02*
X108467542Y-85690952D01*
X108467542Y-85690952D02*
X108467542Y-86024285D01*
X108467542Y-86024285D02*
X108419923Y-86214761D01*
X108419923Y-86214761D02*
X108324685Y-86310000D01*
X108324685Y-86310000D02*
X108229447Y-86357619D01*
X108229447Y-86357619D02*
X108038971Y-86357619D01*
X108848495Y-85452857D02*
X108896114Y-85405238D01*
X108896114Y-85405238D02*
X108991352Y-85357619D01*
X108991352Y-85357619D02*
X109229447Y-85357619D01*
X109229447Y-85357619D02*
X109324685Y-85405238D01*
X109324685Y-85405238D02*
X109372304Y-85452857D01*
X109372304Y-85452857D02*
X109419923Y-85548095D01*
X109419923Y-85548095D02*
X109419923Y-85643333D01*
X109419923Y-85643333D02*
X109372304Y-85786190D01*
X109372304Y-85786190D02*
X108800876Y-86357619D01*
X108800876Y-86357619D02*
X109419923Y-86357619D01*
X114795466Y-92922419D02*
X114795466Y-93636704D01*
X114795466Y-93636704D02*
X114747847Y-93779561D01*
X114747847Y-93779561D02*
X114652609Y-93874800D01*
X114652609Y-93874800D02*
X114509752Y-93922419D01*
X114509752Y-93922419D02*
X114414514Y-93922419D01*
X115319276Y-93922419D02*
X115509752Y-93922419D01*
X115509752Y-93922419D02*
X115604990Y-93874800D01*
X115604990Y-93874800D02*
X115652609Y-93827180D01*
X115652609Y-93827180D02*
X115747847Y-93684323D01*
X115747847Y-93684323D02*
X115795466Y-93493847D01*
X115795466Y-93493847D02*
X115795466Y-93112895D01*
X115795466Y-93112895D02*
X115747847Y-93017657D01*
X115747847Y-93017657D02*
X115700228Y-92970038D01*
X115700228Y-92970038D02*
X115604990Y-92922419D01*
X115604990Y-92922419D02*
X115414514Y-92922419D01*
X115414514Y-92922419D02*
X115319276Y-92970038D01*
X115319276Y-92970038D02*
X115271657Y-93017657D01*
X115271657Y-93017657D02*
X115224038Y-93112895D01*
X115224038Y-93112895D02*
X115224038Y-93350990D01*
X115224038Y-93350990D02*
X115271657Y-93446228D01*
X115271657Y-93446228D02*
X115319276Y-93493847D01*
X115319276Y-93493847D02*
X115414514Y-93541466D01*
X115414514Y-93541466D02*
X115604990Y-93541466D01*
X115604990Y-93541466D02*
X115700228Y-93493847D01*
X115700228Y-93493847D02*
X115747847Y-93446228D01*
X115747847Y-93446228D02*
X115795466Y-93350990D01*
X144116466Y-52218619D02*
X144116466Y-52932904D01*
X144116466Y-52932904D02*
X144068847Y-53075761D01*
X144068847Y-53075761D02*
X143973609Y-53171000D01*
X143973609Y-53171000D02*
X143830752Y-53218619D01*
X143830752Y-53218619D02*
X143735514Y-53218619D01*
X144497419Y-52218619D02*
X145116466Y-52218619D01*
X145116466Y-52218619D02*
X144783133Y-52599571D01*
X144783133Y-52599571D02*
X144925990Y-52599571D01*
X144925990Y-52599571D02*
X145021228Y-52647190D01*
X145021228Y-52647190D02*
X145068847Y-52694809D01*
X145068847Y-52694809D02*
X145116466Y-52790047D01*
X145116466Y-52790047D02*
X145116466Y-53028142D01*
X145116466Y-53028142D02*
X145068847Y-53123380D01*
X145068847Y-53123380D02*
X145021228Y-53171000D01*
X145021228Y-53171000D02*
X144925990Y-53218619D01*
X144925990Y-53218619D02*
X144640276Y-53218619D01*
X144640276Y-53218619D02*
X144545038Y-53171000D01*
X144545038Y-53171000D02*
X144497419Y-53123380D01*
X164284066Y-87955219D02*
X164284066Y-88669504D01*
X164284066Y-88669504D02*
X164236447Y-88812361D01*
X164236447Y-88812361D02*
X164141209Y-88907600D01*
X164141209Y-88907600D02*
X163998352Y-88955219D01*
X163998352Y-88955219D02*
X163903114Y-88955219D01*
X164712638Y-88050457D02*
X164760257Y-88002838D01*
X164760257Y-88002838D02*
X164855495Y-87955219D01*
X164855495Y-87955219D02*
X165093590Y-87955219D01*
X165093590Y-87955219D02*
X165188828Y-88002838D01*
X165188828Y-88002838D02*
X165236447Y-88050457D01*
X165236447Y-88050457D02*
X165284066Y-88145695D01*
X165284066Y-88145695D02*
X165284066Y-88240933D01*
X165284066Y-88240933D02*
X165236447Y-88383790D01*
X165236447Y-88383790D02*
X164665019Y-88955219D01*
X164665019Y-88955219D02*
X165284066Y-88955219D01*
X188047333Y-68484819D02*
X187714000Y-68008628D01*
X187475905Y-68484819D02*
X187475905Y-67484819D01*
X187475905Y-67484819D02*
X187856857Y-67484819D01*
X187856857Y-67484819D02*
X187952095Y-67532438D01*
X187952095Y-67532438D02*
X187999714Y-67580057D01*
X187999714Y-67580057D02*
X188047333Y-67675295D01*
X188047333Y-67675295D02*
X188047333Y-67818152D01*
X188047333Y-67818152D02*
X187999714Y-67913390D01*
X187999714Y-67913390D02*
X187952095Y-67961009D01*
X187952095Y-67961009D02*
X187856857Y-68008628D01*
X187856857Y-68008628D02*
X187475905Y-68008628D01*
X188904476Y-67818152D02*
X188904476Y-68484819D01*
X188666381Y-67437200D02*
X188428286Y-68151485D01*
X188428286Y-68151485D02*
X189047333Y-68151485D01*
X137307866Y-139789819D02*
X137307866Y-140504104D01*
X137307866Y-140504104D02*
X137260247Y-140646961D01*
X137260247Y-140646961D02*
X137165009Y-140742200D01*
X137165009Y-140742200D02*
X137022152Y-140789819D01*
X137022152Y-140789819D02*
X136926914Y-140789819D01*
X138260247Y-139789819D02*
X137784057Y-139789819D01*
X137784057Y-139789819D02*
X137736438Y-140266009D01*
X137736438Y-140266009D02*
X137784057Y-140218390D01*
X137784057Y-140218390D02*
X137879295Y-140170771D01*
X137879295Y-140170771D02*
X138117390Y-140170771D01*
X138117390Y-140170771D02*
X138212628Y-140218390D01*
X138212628Y-140218390D02*
X138260247Y-140266009D01*
X138260247Y-140266009D02*
X138307866Y-140361247D01*
X138307866Y-140361247D02*
X138307866Y-140599342D01*
X138307866Y-140599342D02*
X138260247Y-140694580D01*
X138260247Y-140694580D02*
X138212628Y-140742200D01*
X138212628Y-140742200D02*
X138117390Y-140789819D01*
X138117390Y-140789819D02*
X137879295Y-140789819D01*
X137879295Y-140789819D02*
X137784057Y-140742200D01*
X137784057Y-140742200D02*
X137736438Y-140694580D01*
X175247467Y-59225400D02*
X175390324Y-59273019D01*
X175390324Y-59273019D02*
X175628419Y-59273019D01*
X175628419Y-59273019D02*
X175723657Y-59225400D01*
X175723657Y-59225400D02*
X175771276Y-59177780D01*
X175771276Y-59177780D02*
X175818895Y-59082542D01*
X175818895Y-59082542D02*
X175818895Y-58987304D01*
X175818895Y-58987304D02*
X175771276Y-58892066D01*
X175771276Y-58892066D02*
X175723657Y-58844447D01*
X175723657Y-58844447D02*
X175628419Y-58796828D01*
X175628419Y-58796828D02*
X175437943Y-58749209D01*
X175437943Y-58749209D02*
X175342705Y-58701590D01*
X175342705Y-58701590D02*
X175295086Y-58653971D01*
X175295086Y-58653971D02*
X175247467Y-58558733D01*
X175247467Y-58558733D02*
X175247467Y-58463495D01*
X175247467Y-58463495D02*
X175295086Y-58368257D01*
X175295086Y-58368257D02*
X175342705Y-58320638D01*
X175342705Y-58320638D02*
X175437943Y-58273019D01*
X175437943Y-58273019D02*
X175676038Y-58273019D01*
X175676038Y-58273019D02*
X175818895Y-58320638D01*
X176152229Y-58273019D02*
X176390324Y-59273019D01*
X176390324Y-59273019D02*
X176580800Y-58558733D01*
X176580800Y-58558733D02*
X176771276Y-59273019D01*
X176771276Y-59273019D02*
X177009372Y-58273019D01*
X177342705Y-58368257D02*
X177390324Y-58320638D01*
X177390324Y-58320638D02*
X177485562Y-58273019D01*
X177485562Y-58273019D02*
X177723657Y-58273019D01*
X177723657Y-58273019D02*
X177818895Y-58320638D01*
X177818895Y-58320638D02*
X177866514Y-58368257D01*
X177866514Y-58368257D02*
X177914133Y-58463495D01*
X177914133Y-58463495D02*
X177914133Y-58558733D01*
X177914133Y-58558733D02*
X177866514Y-58701590D01*
X177866514Y-58701590D02*
X177295086Y-59273019D01*
X177295086Y-59273019D02*
X177914133Y-59273019D01*
X186093267Y-59081200D02*
X186236124Y-59128819D01*
X186236124Y-59128819D02*
X186474219Y-59128819D01*
X186474219Y-59128819D02*
X186569457Y-59081200D01*
X186569457Y-59081200D02*
X186617076Y-59033580D01*
X186617076Y-59033580D02*
X186664695Y-58938342D01*
X186664695Y-58938342D02*
X186664695Y-58843104D01*
X186664695Y-58843104D02*
X186617076Y-58747866D01*
X186617076Y-58747866D02*
X186569457Y-58700247D01*
X186569457Y-58700247D02*
X186474219Y-58652628D01*
X186474219Y-58652628D02*
X186283743Y-58605009D01*
X186283743Y-58605009D02*
X186188505Y-58557390D01*
X186188505Y-58557390D02*
X186140886Y-58509771D01*
X186140886Y-58509771D02*
X186093267Y-58414533D01*
X186093267Y-58414533D02*
X186093267Y-58319295D01*
X186093267Y-58319295D02*
X186140886Y-58224057D01*
X186140886Y-58224057D02*
X186188505Y-58176438D01*
X186188505Y-58176438D02*
X186283743Y-58128819D01*
X186283743Y-58128819D02*
X186521838Y-58128819D01*
X186521838Y-58128819D02*
X186664695Y-58176438D01*
X186998029Y-58128819D02*
X187236124Y-59128819D01*
X187236124Y-59128819D02*
X187426600Y-58414533D01*
X187426600Y-58414533D02*
X187617076Y-59128819D01*
X187617076Y-59128819D02*
X187855172Y-58128819D01*
X188140886Y-58128819D02*
X188759933Y-58128819D01*
X188759933Y-58128819D02*
X188426600Y-58509771D01*
X188426600Y-58509771D02*
X188569457Y-58509771D01*
X188569457Y-58509771D02*
X188664695Y-58557390D01*
X188664695Y-58557390D02*
X188712314Y-58605009D01*
X188712314Y-58605009D02*
X188759933Y-58700247D01*
X188759933Y-58700247D02*
X188759933Y-58938342D01*
X188759933Y-58938342D02*
X188712314Y-59033580D01*
X188712314Y-59033580D02*
X188664695Y-59081200D01*
X188664695Y-59081200D02*
X188569457Y-59128819D01*
X188569457Y-59128819D02*
X188283743Y-59128819D01*
X188283743Y-59128819D02*
X188188505Y-59081200D01*
X188188505Y-59081200D02*
X188140886Y-59033580D01*
X103174895Y-127521619D02*
X103174895Y-128331142D01*
X103174895Y-128331142D02*
X103222514Y-128426380D01*
X103222514Y-128426380D02*
X103270133Y-128474000D01*
X103270133Y-128474000D02*
X103365371Y-128521619D01*
X103365371Y-128521619D02*
X103555847Y-128521619D01*
X103555847Y-128521619D02*
X103651085Y-128474000D01*
X103651085Y-128474000D02*
X103698704Y-128426380D01*
X103698704Y-128426380D02*
X103746323Y-128331142D01*
X103746323Y-128331142D02*
X103746323Y-127521619D01*
X104746323Y-128521619D02*
X104174895Y-128521619D01*
X104460609Y-128521619D02*
X104460609Y-127521619D01*
X104460609Y-127521619D02*
X104365371Y-127664476D01*
X104365371Y-127664476D02*
X104270133Y-127759714D01*
X104270133Y-127759714D02*
X104174895Y-127807333D01*
X186051866Y-127674019D02*
X186051866Y-128388304D01*
X186051866Y-128388304D02*
X186004247Y-128531161D01*
X186004247Y-128531161D02*
X185909009Y-128626400D01*
X185909009Y-128626400D02*
X185766152Y-128674019D01*
X185766152Y-128674019D02*
X185670914Y-128674019D01*
X187051866Y-128674019D02*
X186480438Y-128674019D01*
X186766152Y-128674019D02*
X186766152Y-127674019D01*
X186766152Y-127674019D02*
X186670914Y-127816876D01*
X186670914Y-127816876D02*
X186575676Y-127912114D01*
X186575676Y-127912114D02*
X186480438Y-127959733D01*
X190157500Y-141121828D02*
X190157500Y-139978971D01*
X190728928Y-140550399D02*
X189586071Y-140550399D01*
X190157500Y-128121828D02*
X190157500Y-126978971D01*
X111999733Y-86052819D02*
X111666400Y-85576628D01*
X111428305Y-86052819D02*
X111428305Y-85052819D01*
X111428305Y-85052819D02*
X111809257Y-85052819D01*
X111809257Y-85052819D02*
X111904495Y-85100438D01*
X111904495Y-85100438D02*
X111952114Y-85148057D01*
X111952114Y-85148057D02*
X111999733Y-85243295D01*
X111999733Y-85243295D02*
X111999733Y-85386152D01*
X111999733Y-85386152D02*
X111952114Y-85481390D01*
X111952114Y-85481390D02*
X111904495Y-85529009D01*
X111904495Y-85529009D02*
X111809257Y-85576628D01*
X111809257Y-85576628D02*
X111428305Y-85576628D01*
X112952114Y-86052819D02*
X112380686Y-86052819D01*
X112666400Y-86052819D02*
X112666400Y-85052819D01*
X112666400Y-85052819D02*
X112571162Y-85195676D01*
X112571162Y-85195676D02*
X112475924Y-85290914D01*
X112475924Y-85290914D02*
X112380686Y-85338533D01*
D15*
X117470800Y-84753200D02*
X117470800Y-73684200D01*
X117470800Y-84753200D02*
X117470800Y-56243200D01*
X168420800Y-84753200D02*
X117470800Y-84753200D01*
X168420800Y-84753200D02*
X117470800Y-84753200D01*
X168420800Y-84753200D02*
X168420800Y-79383200D01*
X168420800Y-79383200D02*
X168420800Y-61693200D01*
X117470800Y-73684200D02*
X117470800Y-66973200D01*
X117470800Y-66973200D02*
X117470800Y-56243200D01*
X168420800Y-61693200D02*
X168420800Y-56243200D01*
X117470800Y-56243200D02*
X168420800Y-56243200D01*
X117470800Y-56243200D02*
X168420800Y-56243200D01*
X168420800Y-56243200D02*
X168420800Y-84753200D01*
D10*
X127530800Y-85323200D02*
G75*
G03*
X127530800Y-85323200I-100000J0D01*
G01*
D16*
X98771000Y-61371000D02*
X98771000Y-84291000D01*
X98771000Y-61371000D02*
X101431000Y-61371000D01*
X98771000Y-84291000D02*
X101431000Y-84291000D01*
X100101000Y-58771000D02*
X101431000Y-58771000D01*
X101431000Y-58771000D02*
X101431000Y-60101000D01*
X101431000Y-61371000D02*
X101431000Y-84291000D01*
X117942800Y-88724500D02*
X117942800Y-87049500D01*
X117942800Y-88724500D02*
X117942800Y-89374500D01*
X114822800Y-88724500D02*
X114822800Y-88074500D01*
X114822800Y-88724500D02*
X114822800Y-89374500D01*
X127872800Y-101752400D02*
X127872800Y-88992400D01*
X127872800Y-101752400D02*
X125212800Y-101752400D01*
X127872800Y-88992400D02*
X125212800Y-88992400D01*
X126542800Y-104352400D02*
X125212800Y-104352400D01*
X125212800Y-104352400D02*
X125212800Y-103022400D01*
X125212800Y-101752400D02*
X125212800Y-88992400D01*
X119943200Y-88197736D02*
X119943200Y-89651864D01*
X121763200Y-88197736D02*
X121763200Y-89651864D01*
X121085600Y-139022200D02*
X121085600Y-141292200D01*
X121085600Y-141292200D02*
X125145600Y-141292200D01*
X125145600Y-139022200D02*
X121085600Y-139022200D01*
X164818300Y-98810600D02*
X163143300Y-98810600D01*
X164818300Y-98810600D02*
X165468300Y-98810600D01*
X164818300Y-101930600D02*
X164168300Y-101930600D01*
X164818300Y-101930600D02*
X165468300Y-101930600D01*
D11*
X167186000Y-137374600D02*
X175786000Y-137374600D01*
X167186000Y-141974600D02*
X169386000Y-141974600D01*
X173486000Y-141974600D02*
X175786000Y-141974600D01*
D16*
X177257064Y-57552000D02*
X175802936Y-57552000D01*
X177257064Y-55732000D02*
X175802936Y-55732000D01*
X171934800Y-95934000D02*
X171934800Y-97184000D01*
X172234800Y-96234000D02*
X172234800Y-100954000D01*
X172234800Y-97544000D02*
X172844800Y-97544000D01*
X172234800Y-98844000D02*
X172844800Y-98844000D01*
X172234800Y-100954000D02*
X178354800Y-100954000D01*
X172844800Y-96844000D02*
X172844800Y-100344000D01*
X172844800Y-100344000D02*
X177744800Y-100344000D01*
X173184800Y-95934000D02*
X171934800Y-95934000D01*
X173694800Y-96034000D02*
X173694800Y-96234000D01*
X173994800Y-96034000D02*
X173694800Y-96034000D01*
X173994800Y-96134000D02*
X173694800Y-96134000D01*
X173994800Y-96234000D02*
X173994800Y-96034000D01*
X174794800Y-96234000D02*
X174794800Y-96844000D01*
X174794800Y-96844000D02*
X172844800Y-96844000D01*
X175194800Y-99844000D02*
X175394800Y-99844000D01*
X175194800Y-100344000D02*
X175194800Y-99844000D01*
X175294800Y-100344000D02*
X175294800Y-99844000D01*
X175394800Y-99844000D02*
X175394800Y-100344000D01*
X175794800Y-96844000D02*
X175794800Y-96234000D01*
X177744800Y-96844000D02*
X175794800Y-96844000D01*
X177744800Y-100344000D02*
X177744800Y-96844000D01*
X178354800Y-96234000D02*
X172234800Y-96234000D01*
X178354800Y-97544000D02*
X177744800Y-97544000D01*
X178354800Y-98844000D02*
X177744800Y-98844000D01*
X178354800Y-100954000D02*
X178354800Y-96234000D01*
X174244000Y-92262000D02*
X192084000Y-92262000D01*
X174244000Y-92262000D02*
X174244000Y-89602000D01*
X192084000Y-92262000D02*
X192084000Y-89602000D01*
X171644000Y-90932000D02*
X171644000Y-89602000D01*
X171644000Y-89602000D02*
X172974000Y-89602000D01*
X174244000Y-89602000D02*
X192084000Y-89602000D01*
X113999000Y-139022200D02*
X113999000Y-141292200D01*
X113999000Y-141292200D02*
X118059000Y-141292200D01*
X118059000Y-139022200D02*
X113999000Y-139022200D01*
X98212600Y-91627000D02*
X98212600Y-90297000D01*
X99542600Y-91627000D02*
X98212600Y-91627000D01*
X100812600Y-91627000D02*
X103412600Y-91627000D01*
X100812600Y-91627000D02*
X100812600Y-88967000D01*
X103412600Y-91627000D02*
X103412600Y-88967000D01*
X100812600Y-88967000D02*
X103412600Y-88967000D01*
X174269400Y-75726600D02*
X192109400Y-75726600D01*
X174269400Y-75726600D02*
X174269400Y-73066600D01*
X192109400Y-75726600D02*
X192109400Y-73066600D01*
X171669400Y-74396600D02*
X171669400Y-73066600D01*
X171669400Y-73066600D02*
X172999400Y-73066600D01*
X174269400Y-73066600D02*
X192109400Y-73066600D01*
X110018000Y-88622900D02*
X110018000Y-86947900D01*
X110018000Y-88622900D02*
X110018000Y-89272900D01*
X106898000Y-88622900D02*
X106898000Y-87972900D01*
X106898000Y-88622900D02*
X106898000Y-89272900D01*
X111768800Y-94257600D02*
X111768800Y-95507600D01*
X112068800Y-94557600D02*
X112068800Y-99277600D01*
X112068800Y-95867600D02*
X112678800Y-95867600D01*
X112068800Y-97167600D02*
X112678800Y-97167600D01*
X112068800Y-99277600D02*
X118188800Y-99277600D01*
X112678800Y-95167600D02*
X112678800Y-98667600D01*
X112678800Y-98667600D02*
X117578800Y-98667600D01*
X113018800Y-94257600D02*
X111768800Y-94257600D01*
X113528800Y-94357600D02*
X113528800Y-94557600D01*
X113828800Y-94357600D02*
X113528800Y-94357600D01*
X113828800Y-94457600D02*
X113528800Y-94457600D01*
X113828800Y-94557600D02*
X113828800Y-94357600D01*
X114628800Y-94557600D02*
X114628800Y-95167600D01*
X114628800Y-95167600D02*
X112678800Y-95167600D01*
X115028800Y-98167600D02*
X115228800Y-98167600D01*
X115028800Y-98667600D02*
X115028800Y-98167600D01*
X115128800Y-98667600D02*
X115128800Y-98167600D01*
X115228800Y-98167600D02*
X115228800Y-98667600D01*
X115628800Y-95167600D02*
X115628800Y-94557600D01*
X117578800Y-95167600D02*
X115628800Y-95167600D01*
X117578800Y-98667600D02*
X117578800Y-95167600D01*
X118188800Y-94557600D02*
X112068800Y-94557600D01*
X118188800Y-95867600D02*
X117578800Y-95867600D01*
X118188800Y-97167600D02*
X117578800Y-97167600D01*
X118188800Y-99277600D02*
X118188800Y-94557600D01*
X153519800Y-45163800D02*
X152494800Y-45163800D01*
X153519800Y-44053800D02*
X153519800Y-45163800D01*
X152494800Y-45163800D02*
X152494800Y-45703800D01*
X150339800Y-49673800D02*
X149514800Y-49673800D01*
X149514800Y-49673800D02*
X149514800Y-51473800D01*
X139384800Y-49673800D02*
X138559800Y-49673800D01*
X136404800Y-45703800D02*
X136404800Y-45163800D01*
X136404800Y-45163800D02*
X135379800Y-45163800D01*
X135379800Y-45163800D02*
X135379800Y-44053800D01*
X135379800Y-44053800D02*
X153519800Y-44053800D01*
X163287400Y-89500400D02*
X164617400Y-89500400D01*
X163287400Y-90830400D02*
X163287400Y-89500400D01*
X163287400Y-92100400D02*
X163287400Y-94700400D01*
X163287400Y-92100400D02*
X165947400Y-92100400D01*
X163287400Y-94700400D02*
X165947400Y-94700400D01*
X165947400Y-92100400D02*
X165947400Y-94700400D01*
X187486936Y-68940000D02*
X188941064Y-68940000D01*
X187486936Y-70760000D02*
X188941064Y-70760000D01*
X141681200Y-141665000D02*
X149361200Y-141665000D01*
X141681200Y-141665000D02*
X141681200Y-139005000D01*
X149361200Y-141665000D02*
X149361200Y-139005000D01*
X139081200Y-140335000D02*
X139081200Y-139005000D01*
X139081200Y-139005000D02*
X140411200Y-139005000D01*
X141681200Y-139005000D02*
X149361200Y-139005000D01*
X173080800Y-62318200D02*
X173080800Y-63818200D01*
X174330800Y-66318200D02*
X178830800Y-66318200D01*
X178830800Y-59818200D02*
X174330800Y-59818200D01*
X180080800Y-63818200D02*
X180080800Y-62318200D01*
X191180600Y-63843600D02*
X191180600Y-62343600D01*
X189930600Y-59843600D02*
X185430600Y-59843600D01*
X185430600Y-66343600D02*
X189930600Y-66343600D01*
X184180600Y-62343600D02*
X184180600Y-63843600D01*
D11*
X95339200Y-129191600D02*
X95339200Y-140261600D01*
X95339200Y-129191600D02*
X112839200Y-129191600D01*
X112839200Y-140261600D02*
X95339200Y-140261600D01*
X112839200Y-140261600D02*
X112839200Y-129191600D01*
D16*
X192752800Y-139260400D02*
X187332800Y-139260400D01*
X187332800Y-130540400D02*
X187332800Y-139260400D01*
X192752800Y-130540400D02*
X192752800Y-139260400D01*
X188632800Y-128840400D02*
X187332800Y-130540400D01*
X191452800Y-128840400D02*
X192752800Y-130540400D01*
X191452800Y-128840400D02*
X188632800Y-128840400D01*
X113025600Y-88045336D02*
X113025600Y-89499464D01*
X111205600Y-88045336D02*
X111205600Y-89499464D01*
%LPC*%
D17*
X119470800Y-82753200D03*
X166420800Y-82753200D03*
X119470800Y-58243200D03*
X166420800Y-58243200D03*
D18*
X127430800Y-83173200D03*
D19*
X129970800Y-83173200D03*
X132510800Y-83173200D03*
X135050800Y-83173200D03*
X137590800Y-83173200D03*
X140130800Y-83173200D03*
X142670800Y-83173200D03*
X145210800Y-83173200D03*
X147750800Y-83173200D03*
X150290800Y-83173200D03*
X152830800Y-83173200D03*
X155370800Y-83173200D03*
X157910800Y-83173200D03*
X160450800Y-83173200D03*
X162990800Y-83173200D03*
X162990800Y-57773200D03*
X160450800Y-57773200D03*
X157910800Y-57773200D03*
X155370800Y-57773200D03*
X152830800Y-57773200D03*
X150290800Y-57773200D03*
X147750800Y-57773200D03*
X145210800Y-57773200D03*
X142670800Y-57773200D03*
X140130800Y-57773200D03*
X137590800Y-57773200D03*
X135050800Y-57773200D03*
X132510800Y-57773200D03*
X129970800Y-57773200D03*
X127430800Y-57773200D03*
D20*
X99237800Y-120116600D03*
D21*
X100101000Y-60101000D03*
D22*
X100101000Y-62641000D03*
X100101000Y-65181000D03*
X100101000Y-67721000D03*
X100101000Y-70261000D03*
X100101000Y-72801000D03*
X100101000Y-75341000D03*
X100101000Y-77881000D03*
X100101000Y-80421000D03*
X100101000Y-82961000D03*
D23*
X117332800Y-87787000D03*
X115432800Y-87787000D03*
X116382800Y-89662000D03*
D24*
X132207000Y-114071400D03*
D25*
X129540000Y-47701200D03*
D24*
X156210000Y-114071400D03*
D25*
X189230000Y-45974000D03*
D21*
X126542800Y-103022400D03*
D22*
X126542800Y-100482400D03*
X126542800Y-97942400D03*
X126542800Y-95402400D03*
X126542800Y-92862400D03*
X126542800Y-90322400D03*
D26*
X120853200Y-90474800D03*
X120853200Y-87374800D03*
D24*
X156210000Y-90017600D03*
D20*
X189661800Y-101879400D03*
X99212400Y-101879400D03*
D27*
X122058100Y-140157200D03*
X125033100Y-140157200D03*
D28*
X163880800Y-99420600D03*
X163880800Y-101320600D03*
X165755800Y-100370600D03*
D20*
X189687200Y-120116600D03*
D29*
X167386000Y-139674600D03*
X175586000Y-139674600D03*
D30*
X169486000Y-139674600D03*
D31*
X171486000Y-139674600D03*
X173486000Y-139674600D03*
D32*
X178080000Y-56642000D03*
X174980000Y-56642000D03*
D33*
X110083600Y-82550000D03*
D34*
X174294800Y-98044000D03*
D35*
X176294800Y-98044000D03*
D21*
X172974000Y-90932000D03*
D22*
X175514000Y-90932000D03*
X178054000Y-90932000D03*
X180594000Y-90932000D03*
X183134000Y-90932000D03*
X185674000Y-90932000D03*
X188214000Y-90932000D03*
X190754000Y-90932000D03*
D25*
X114300000Y-47752000D03*
D33*
X156286200Y-139928600D03*
D25*
X189230000Y-52832000D03*
D27*
X114971500Y-140157200D03*
X117946500Y-140157200D03*
D21*
X99542600Y-90297000D03*
D22*
X102082600Y-90297000D03*
D33*
X132461000Y-139979400D03*
D21*
X172999400Y-74396600D03*
D22*
X175539400Y-74396600D03*
X178079400Y-74396600D03*
X180619400Y-74396600D03*
X183159400Y-74396600D03*
X185699400Y-74396600D03*
X188239400Y-74396600D03*
X190779400Y-74396600D03*
D25*
X99314000Y-45974000D03*
D23*
X109408000Y-87685400D03*
X107508000Y-87685400D03*
X108458000Y-89560400D03*
D25*
X159512000Y-47701200D03*
D34*
X114128800Y-96367600D03*
D35*
X116128800Y-96367600D03*
D36*
X148949800Y-50563800D03*
X147949800Y-50563800D03*
X146949800Y-50563800D03*
X145949800Y-50563800D03*
X144949800Y-50563800D03*
X143949800Y-50563800D03*
X142949800Y-50563800D03*
X141949800Y-50563800D03*
X140949800Y-50563800D03*
X139949800Y-50563800D03*
D37*
X151939800Y-47763800D03*
X136959800Y-47763800D03*
D21*
X164617400Y-90830400D03*
D22*
X164617400Y-93370400D03*
D38*
X186664000Y-69850000D03*
X189764000Y-69850000D03*
D21*
X140411200Y-140335000D03*
D22*
X142951200Y-140335000D03*
X145491200Y-140335000D03*
X148031200Y-140335000D03*
D19*
X173330800Y-60818200D03*
X179830800Y-60818200D03*
X173330800Y-65318200D03*
X179830800Y-65318200D03*
X190930600Y-65343600D03*
X184430600Y-65343600D03*
X190930600Y-60843600D03*
X184430600Y-60843600D03*
D25*
X174498000Y-47752000D03*
D39*
X96469200Y-130151600D03*
X96469200Y-139291600D03*
X111709200Y-130151600D03*
X111709200Y-139291600D03*
D24*
X132257800Y-90068400D03*
D33*
X110236000Y-60756800D03*
D20*
X190042800Y-136550400D03*
D40*
X190042800Y-131550400D03*
D25*
X99314000Y-52832000D03*
D26*
X112115600Y-87222400D03*
X112115600Y-90322400D03*
%LPD*%
M02*
