M48
; DRILL file {KiCad 7.0.5} date Thu Aug  3 15:07:26 2023
; FORMAT={-:-/ absolute / metric / decimal}
; #@! TF.CreationDate,2023-08-03T15:07:26+02:00
; #@! TF.GenerationSoftware,Kicad,Pcbnew,7.0.5
; #@! TF.FileFunction,Plated,1,2,PTH
FMAT,2
METRIC
; #@! TA.AperFunction,Plated,PTH,ViaDrill
T1C0.400
; #@! TA.AperFunction,Plated,PTH,ComponentDrill
T2C0.750
; #@! TA.AperFunction,Plated,PTH,ComponentDrill
T3C0.762
; #@! TA.AperFunction,Plated,PTH,ComponentDrill
T4C0.900
; #@! TA.AperFunction,Plated,PTH,ComponentDrill
T5C1.000
; #@! TA.AperFunction,Plated,PTH,ComponentDrill
T6C1.020
; #@! TA.AperFunction,Plated,PTH,ComponentDrill
T7C1.100
; #@! TA.AperFunction,Plated,PTH,ComponentDrill
T8C1.500
; #@! TA.AperFunction,Plated,PTH,ComponentDrill
T9C2.200
; #@! TA.AperFunction,Plated,PTH,ComponentDrill
T10C2.700
; #@! TA.AperFunction,Plated,PTH,ComponentDrill
T11C3.200
%
G90
G05
T1
X105.613Y-137.262
X106.934Y-74.219
X109.423Y-86.004
X114.198Y-82.245
X116.281Y-82.804
X116.281Y-85.903
X117.246Y-92.507
X124.765Y-115.57
X126.136Y-114.757
X129.489Y-136.398
X136.703Y-66.853
X137.82Y-132.893
X144.069Y-72.644
X145.618Y-127.533
X148.006Y-126.492
X151.13Y-116.484
X153.01Y-71.819
X153.67Y-60.401
X155.499Y-73.304
X156.337Y-86.487
X159.436Y-86.411
X160.35Y-78.283
X169.418Y-55.88
X176.073Y-69.063
T2
X114.129Y-96.368
X116.129Y-96.368
X174.295Y-98.044
X176.295Y-98.044
T3
X96.469Y-130.152
X96.469Y-139.292
X111.709Y-130.152
X111.709Y-139.292
T4
X169.486Y-139.675
X171.486Y-139.675
X173.486Y-139.675
T5
X99.543Y-90.297
X100.101Y-60.101
X100.101Y-62.641
X100.101Y-65.181
X100.101Y-67.721
X100.101Y-70.261
X100.101Y-72.801
X100.101Y-75.341
X100.101Y-77.881
X100.101Y-80.421
X100.101Y-82.961
X102.083Y-90.297
X126.543Y-90.322
X126.543Y-92.862
X126.543Y-95.402
X126.543Y-97.942
X126.543Y-100.482
X126.543Y-103.022
X140.411Y-140.335
X142.951Y-140.335
X145.491Y-140.335
X148.031Y-140.335
X164.617Y-90.83
X164.617Y-93.37
X172.974Y-90.932
X172.999Y-74.397
X175.514Y-90.932
X175.539Y-74.397
X178.054Y-90.932
X178.079Y-74.397
X180.594Y-90.932
X180.619Y-74.397
X183.134Y-90.932
X183.159Y-74.397
X185.674Y-90.932
X185.699Y-74.397
X188.214Y-90.932
X188.239Y-74.397
X190.754Y-90.932
X190.779Y-74.397
T6
X127.431Y-57.773
X127.431Y-83.173
X129.971Y-57.773
X129.971Y-83.173
X132.511Y-57.773
X132.511Y-83.173
X135.051Y-57.773
X135.051Y-83.173
X137.591Y-57.773
X137.591Y-83.173
X140.131Y-57.773
X140.131Y-83.173
X142.671Y-57.773
X142.671Y-83.173
X145.211Y-57.773
X145.211Y-83.173
X147.751Y-57.773
X147.751Y-83.173
X150.291Y-57.773
X150.291Y-83.173
X152.831Y-57.773
X152.831Y-83.173
X155.371Y-57.773
X155.371Y-83.173
X157.911Y-57.773
X157.911Y-83.173
X160.451Y-57.773
X160.451Y-83.173
X162.991Y-57.773
X162.991Y-83.173
T7
X173.331Y-60.818
X173.331Y-65.318
X179.831Y-60.818
X179.831Y-65.318
X184.431Y-60.844
X184.431Y-65.344
X190.931Y-60.844
X190.931Y-65.344
T8
X167.386Y-139.675
X175.586Y-139.675
T9
X99.212Y-101.879
X99.238Y-120.117
X189.662Y-101.879
X189.687Y-120.117
T10
X190.043Y-131.55
X190.043Y-136.55
T11
X99.314Y-45.974
X99.314Y-52.832
X114.3Y-47.752
X129.54Y-47.701
X159.512Y-47.701
X174.498Y-47.752
X189.23Y-45.974
X189.23Y-52.832
T0
M30
