%TF.GenerationSoftware,KiCad,Pcbnew,7.0.5*%
%TF.CreationDate,2023-08-03T15:07:47+02:00*%
%TF.ProjectId,Siguelineas,53696775-656c-4696-9e65-61732e6b6963,rev?*%
%TF.SameCoordinates,Original*%
%TF.FileFunction,Drillmap*%
%TF.FilePolarity,Positive*%
%FSLAX45Y45*%
G04 Gerber Fmt 4.5, Leading zero omitted, Abs format (unit mm)*
G04 Created by KiCad (PCBNEW 7.0.5) date 2023-08-03 15:07:47*
%MOMM*%
%LPD*%
G01*
G04 APERTURE LIST*
%ADD10C,0.100000*%
%ADD11C,0.200000*%
%ADD12C,0.220000*%
%ADD13C,0.300000*%
%ADD14C,0.320000*%
G04 APERTURE END LIST*
D10*
X9478000Y-4224000D02*
X19400000Y-4224000D01*
X19400000Y-14200000D01*
X9478000Y-14200000D01*
X9478000Y-4224000D01*
X15775940Y-10208260D02*
G75*
G03*
X15775940Y-10208260I-1348491J0D01*
G01*
D11*
D12*
X10898360Y-8145000D02*
X11118360Y-8365000D01*
X11118360Y-8145000D02*
X10898360Y-8365000D01*
X10913600Y-5965680D02*
X11133600Y-6185680D01*
X11133600Y-5965680D02*
X10913600Y-6185680D01*
X13136100Y-13887940D02*
X13356100Y-14107940D01*
X13356100Y-13887940D02*
X13136100Y-14107940D01*
X15518620Y-13882860D02*
X15738620Y-14102860D01*
X15738620Y-13882860D02*
X15518620Y-14102860D01*
D13*
X12097080Y-5824320D02*
G75*
G03*
X12097080Y-5824320I-150000J0D01*
G01*
X12097080Y-8275320D02*
G75*
G03*
X12097080Y-8275320I-150000J0D01*
G01*
X16792080Y-5824320D02*
G75*
G03*
X16792080Y-5824320I-150000J0D01*
G01*
X16792080Y-8275320D02*
G75*
G03*
X16792080Y-8275320I-150000J0D01*
G01*
D14*
X13220700Y-11247140D02*
X13220700Y-11567140D01*
X13060700Y-11407140D02*
X13380700Y-11407140D01*
X13225780Y-8846840D02*
X13225780Y-9166840D01*
X13065780Y-9006840D02*
X13385780Y-9006840D01*
X15621000Y-8841760D02*
X15621000Y-9161760D01*
X15461000Y-9001760D02*
X15781000Y-9001760D01*
X15621000Y-11247140D02*
X15621000Y-11567140D01*
X15461000Y-11407140D02*
X15781000Y-11407140D01*
D11*
X9733777Y-14516484D02*
X9733777Y-14316484D01*
X9733777Y-14316484D02*
X9781396Y-14316484D01*
X9781396Y-14316484D02*
X9809967Y-14326008D01*
X9809967Y-14326008D02*
X9829015Y-14345055D01*
X9829015Y-14345055D02*
X9838539Y-14364103D01*
X9838539Y-14364103D02*
X9848063Y-14402198D01*
X9848063Y-14402198D02*
X9848063Y-14430769D01*
X9848063Y-14430769D02*
X9838539Y-14468865D01*
X9838539Y-14468865D02*
X9829015Y-14487912D01*
X9829015Y-14487912D02*
X9809967Y-14506960D01*
X9809967Y-14506960D02*
X9781396Y-14516484D01*
X9781396Y-14516484D02*
X9733777Y-14516484D01*
X9933777Y-14516484D02*
X9933777Y-14383150D01*
X9933777Y-14421246D02*
X9943301Y-14402198D01*
X9943301Y-14402198D02*
X9952824Y-14392674D01*
X9952824Y-14392674D02*
X9971872Y-14383150D01*
X9971872Y-14383150D02*
X9990920Y-14383150D01*
X10057586Y-14516484D02*
X10057586Y-14383150D01*
X10057586Y-14316484D02*
X10048063Y-14326008D01*
X10048063Y-14326008D02*
X10057586Y-14335531D01*
X10057586Y-14335531D02*
X10067110Y-14326008D01*
X10067110Y-14326008D02*
X10057586Y-14316484D01*
X10057586Y-14316484D02*
X10057586Y-14335531D01*
X10181396Y-14516484D02*
X10162348Y-14506960D01*
X10162348Y-14506960D02*
X10152824Y-14487912D01*
X10152824Y-14487912D02*
X10152824Y-14316484D01*
X10286158Y-14516484D02*
X10267110Y-14506960D01*
X10267110Y-14506960D02*
X10257586Y-14487912D01*
X10257586Y-14487912D02*
X10257586Y-14316484D01*
X10514729Y-14516484D02*
X10514729Y-14316484D01*
X10514729Y-14316484D02*
X10581396Y-14459341D01*
X10581396Y-14459341D02*
X10648063Y-14316484D01*
X10648063Y-14316484D02*
X10648063Y-14516484D01*
X10829015Y-14516484D02*
X10829015Y-14411722D01*
X10829015Y-14411722D02*
X10819491Y-14392674D01*
X10819491Y-14392674D02*
X10800444Y-14383150D01*
X10800444Y-14383150D02*
X10762348Y-14383150D01*
X10762348Y-14383150D02*
X10743301Y-14392674D01*
X10829015Y-14506960D02*
X10809967Y-14516484D01*
X10809967Y-14516484D02*
X10762348Y-14516484D01*
X10762348Y-14516484D02*
X10743301Y-14506960D01*
X10743301Y-14506960D02*
X10733777Y-14487912D01*
X10733777Y-14487912D02*
X10733777Y-14468865D01*
X10733777Y-14468865D02*
X10743301Y-14449817D01*
X10743301Y-14449817D02*
X10762348Y-14440293D01*
X10762348Y-14440293D02*
X10809967Y-14440293D01*
X10809967Y-14440293D02*
X10829015Y-14430769D01*
X10924253Y-14383150D02*
X10924253Y-14583150D01*
X10924253Y-14392674D02*
X10943301Y-14383150D01*
X10943301Y-14383150D02*
X10981396Y-14383150D01*
X10981396Y-14383150D02*
X11000444Y-14392674D01*
X11000444Y-14392674D02*
X11009967Y-14402198D01*
X11009967Y-14402198D02*
X11019491Y-14421246D01*
X11019491Y-14421246D02*
X11019491Y-14478388D01*
X11019491Y-14478388D02*
X11009967Y-14497436D01*
X11009967Y-14497436D02*
X11000444Y-14506960D01*
X11000444Y-14506960D02*
X10981396Y-14516484D01*
X10981396Y-14516484D02*
X10943301Y-14516484D01*
X10943301Y-14516484D02*
X10924253Y-14506960D01*
X11105205Y-14497436D02*
X11114729Y-14506960D01*
X11114729Y-14506960D02*
X11105205Y-14516484D01*
X11105205Y-14516484D02*
X11095682Y-14506960D01*
X11095682Y-14506960D02*
X11105205Y-14497436D01*
X11105205Y-14497436D02*
X11105205Y-14516484D01*
X11105205Y-14392674D02*
X11114729Y-14402198D01*
X11114729Y-14402198D02*
X11105205Y-14411722D01*
X11105205Y-14411722D02*
X11095682Y-14402198D01*
X11095682Y-14402198D02*
X11105205Y-14392674D01*
X11105205Y-14392674D02*
X11105205Y-14411722D01*
X9273000Y-14745000D02*
X9473000Y-14945000D01*
X9473000Y-14745000D02*
X9273000Y-14945000D01*
X9724253Y-14755531D02*
X9733777Y-14746008D01*
X9733777Y-14746008D02*
X9752824Y-14736484D01*
X9752824Y-14736484D02*
X9800444Y-14736484D01*
X9800444Y-14736484D02*
X9819491Y-14746008D01*
X9819491Y-14746008D02*
X9829015Y-14755531D01*
X9829015Y-14755531D02*
X9838539Y-14774579D01*
X9838539Y-14774579D02*
X9838539Y-14793627D01*
X9838539Y-14793627D02*
X9829015Y-14822198D01*
X9829015Y-14822198D02*
X9714729Y-14936484D01*
X9714729Y-14936484D02*
X9838539Y-14936484D01*
X9924253Y-14917436D02*
X9933777Y-14926960D01*
X9933777Y-14926960D02*
X9924253Y-14936484D01*
X9924253Y-14936484D02*
X9914729Y-14926960D01*
X9914729Y-14926960D02*
X9924253Y-14917436D01*
X9924253Y-14917436D02*
X9924253Y-14936484D01*
X10009967Y-14755531D02*
X10019491Y-14746008D01*
X10019491Y-14746008D02*
X10038539Y-14736484D01*
X10038539Y-14736484D02*
X10086158Y-14736484D01*
X10086158Y-14736484D02*
X10105205Y-14746008D01*
X10105205Y-14746008D02*
X10114729Y-14755531D01*
X10114729Y-14755531D02*
X10124253Y-14774579D01*
X10124253Y-14774579D02*
X10124253Y-14793627D01*
X10124253Y-14793627D02*
X10114729Y-14822198D01*
X10114729Y-14822198D02*
X10000444Y-14936484D01*
X10000444Y-14936484D02*
X10124253Y-14936484D01*
X10248063Y-14736484D02*
X10267110Y-14736484D01*
X10267110Y-14736484D02*
X10286158Y-14746008D01*
X10286158Y-14746008D02*
X10295682Y-14755531D01*
X10295682Y-14755531D02*
X10305205Y-14774579D01*
X10305205Y-14774579D02*
X10314729Y-14812674D01*
X10314729Y-14812674D02*
X10314729Y-14860293D01*
X10314729Y-14860293D02*
X10305205Y-14898388D01*
X10305205Y-14898388D02*
X10295682Y-14917436D01*
X10295682Y-14917436D02*
X10286158Y-14926960D01*
X10286158Y-14926960D02*
X10267110Y-14936484D01*
X10267110Y-14936484D02*
X10248063Y-14936484D01*
X10248063Y-14936484D02*
X10229015Y-14926960D01*
X10229015Y-14926960D02*
X10219491Y-14917436D01*
X10219491Y-14917436D02*
X10209967Y-14898388D01*
X10209967Y-14898388D02*
X10200444Y-14860293D01*
X10200444Y-14860293D02*
X10200444Y-14812674D01*
X10200444Y-14812674D02*
X10209967Y-14774579D01*
X10209967Y-14774579D02*
X10219491Y-14755531D01*
X10219491Y-14755531D02*
X10229015Y-14746008D01*
X10229015Y-14746008D02*
X10248063Y-14736484D01*
X10438539Y-14736484D02*
X10457586Y-14736484D01*
X10457586Y-14736484D02*
X10476634Y-14746008D01*
X10476634Y-14746008D02*
X10486158Y-14755531D01*
X10486158Y-14755531D02*
X10495682Y-14774579D01*
X10495682Y-14774579D02*
X10505205Y-14812674D01*
X10505205Y-14812674D02*
X10505205Y-14860293D01*
X10505205Y-14860293D02*
X10495682Y-14898388D01*
X10495682Y-14898388D02*
X10486158Y-14917436D01*
X10486158Y-14917436D02*
X10476634Y-14926960D01*
X10476634Y-14926960D02*
X10457586Y-14936484D01*
X10457586Y-14936484D02*
X10438539Y-14936484D01*
X10438539Y-14936484D02*
X10419491Y-14926960D01*
X10419491Y-14926960D02*
X10409967Y-14917436D01*
X10409967Y-14917436D02*
X10400444Y-14898388D01*
X10400444Y-14898388D02*
X10390920Y-14860293D01*
X10390920Y-14860293D02*
X10390920Y-14812674D01*
X10390920Y-14812674D02*
X10400444Y-14774579D01*
X10400444Y-14774579D02*
X10409967Y-14755531D01*
X10409967Y-14755531D02*
X10419491Y-14746008D01*
X10419491Y-14746008D02*
X10438539Y-14736484D01*
X10590920Y-14936484D02*
X10590920Y-14803150D01*
X10590920Y-14822198D02*
X10600444Y-14812674D01*
X10600444Y-14812674D02*
X10619491Y-14803150D01*
X10619491Y-14803150D02*
X10648063Y-14803150D01*
X10648063Y-14803150D02*
X10667110Y-14812674D01*
X10667110Y-14812674D02*
X10676634Y-14831722D01*
X10676634Y-14831722D02*
X10676634Y-14936484D01*
X10676634Y-14831722D02*
X10686158Y-14812674D01*
X10686158Y-14812674D02*
X10705205Y-14803150D01*
X10705205Y-14803150D02*
X10733777Y-14803150D01*
X10733777Y-14803150D02*
X10752825Y-14812674D01*
X10752825Y-14812674D02*
X10762348Y-14831722D01*
X10762348Y-14831722D02*
X10762348Y-14936484D01*
X10857586Y-14936484D02*
X10857586Y-14803150D01*
X10857586Y-14822198D02*
X10867110Y-14812674D01*
X10867110Y-14812674D02*
X10886158Y-14803150D01*
X10886158Y-14803150D02*
X10914729Y-14803150D01*
X10914729Y-14803150D02*
X10933777Y-14812674D01*
X10933777Y-14812674D02*
X10943301Y-14831722D01*
X10943301Y-14831722D02*
X10943301Y-14936484D01*
X10943301Y-14831722D02*
X10952825Y-14812674D01*
X10952825Y-14812674D02*
X10971872Y-14803150D01*
X10971872Y-14803150D02*
X11000444Y-14803150D01*
X11000444Y-14803150D02*
X11019491Y-14812674D01*
X11019491Y-14812674D02*
X11029015Y-14831722D01*
X11029015Y-14831722D02*
X11029015Y-14936484D01*
X11419491Y-14726960D02*
X11248063Y-14984103D01*
X11676634Y-14736484D02*
X11695682Y-14736484D01*
X11695682Y-14736484D02*
X11714729Y-14746008D01*
X11714729Y-14746008D02*
X11724253Y-14755531D01*
X11724253Y-14755531D02*
X11733777Y-14774579D01*
X11733777Y-14774579D02*
X11743301Y-14812674D01*
X11743301Y-14812674D02*
X11743301Y-14860293D01*
X11743301Y-14860293D02*
X11733777Y-14898388D01*
X11733777Y-14898388D02*
X11724253Y-14917436D01*
X11724253Y-14917436D02*
X11714729Y-14926960D01*
X11714729Y-14926960D02*
X11695682Y-14936484D01*
X11695682Y-14936484D02*
X11676634Y-14936484D01*
X11676634Y-14936484D02*
X11657586Y-14926960D01*
X11657586Y-14926960D02*
X11648063Y-14917436D01*
X11648063Y-14917436D02*
X11638539Y-14898388D01*
X11638539Y-14898388D02*
X11629015Y-14860293D01*
X11629015Y-14860293D02*
X11629015Y-14812674D01*
X11629015Y-14812674D02*
X11638539Y-14774579D01*
X11638539Y-14774579D02*
X11648063Y-14755531D01*
X11648063Y-14755531D02*
X11657586Y-14746008D01*
X11657586Y-14746008D02*
X11676634Y-14736484D01*
X11829015Y-14917436D02*
X11838539Y-14926960D01*
X11838539Y-14926960D02*
X11829015Y-14936484D01*
X11829015Y-14936484D02*
X11819491Y-14926960D01*
X11819491Y-14926960D02*
X11829015Y-14917436D01*
X11829015Y-14917436D02*
X11829015Y-14936484D01*
X11962348Y-14736484D02*
X11981396Y-14736484D01*
X11981396Y-14736484D02*
X12000444Y-14746008D01*
X12000444Y-14746008D02*
X12009967Y-14755531D01*
X12009967Y-14755531D02*
X12019491Y-14774579D01*
X12019491Y-14774579D02*
X12029015Y-14812674D01*
X12029015Y-14812674D02*
X12029015Y-14860293D01*
X12029015Y-14860293D02*
X12019491Y-14898388D01*
X12019491Y-14898388D02*
X12009967Y-14917436D01*
X12009967Y-14917436D02*
X12000444Y-14926960D01*
X12000444Y-14926960D02*
X11981396Y-14936484D01*
X11981396Y-14936484D02*
X11962348Y-14936484D01*
X11962348Y-14936484D02*
X11943301Y-14926960D01*
X11943301Y-14926960D02*
X11933777Y-14917436D01*
X11933777Y-14917436D02*
X11924253Y-14898388D01*
X11924253Y-14898388D02*
X11914729Y-14860293D01*
X11914729Y-14860293D02*
X11914729Y-14812674D01*
X11914729Y-14812674D02*
X11924253Y-14774579D01*
X11924253Y-14774579D02*
X11933777Y-14755531D01*
X11933777Y-14755531D02*
X11943301Y-14746008D01*
X11943301Y-14746008D02*
X11962348Y-14736484D01*
X12143301Y-14822198D02*
X12124253Y-14812674D01*
X12124253Y-14812674D02*
X12114729Y-14803150D01*
X12114729Y-14803150D02*
X12105206Y-14784103D01*
X12105206Y-14784103D02*
X12105206Y-14774579D01*
X12105206Y-14774579D02*
X12114729Y-14755531D01*
X12114729Y-14755531D02*
X12124253Y-14746008D01*
X12124253Y-14746008D02*
X12143301Y-14736484D01*
X12143301Y-14736484D02*
X12181396Y-14736484D01*
X12181396Y-14736484D02*
X12200444Y-14746008D01*
X12200444Y-14746008D02*
X12209967Y-14755531D01*
X12209967Y-14755531D02*
X12219491Y-14774579D01*
X12219491Y-14774579D02*
X12219491Y-14784103D01*
X12219491Y-14784103D02*
X12209967Y-14803150D01*
X12209967Y-14803150D02*
X12200444Y-14812674D01*
X12200444Y-14812674D02*
X12181396Y-14822198D01*
X12181396Y-14822198D02*
X12143301Y-14822198D01*
X12143301Y-14822198D02*
X12124253Y-14831722D01*
X12124253Y-14831722D02*
X12114729Y-14841246D01*
X12114729Y-14841246D02*
X12105206Y-14860293D01*
X12105206Y-14860293D02*
X12105206Y-14898388D01*
X12105206Y-14898388D02*
X12114729Y-14917436D01*
X12114729Y-14917436D02*
X12124253Y-14926960D01*
X12124253Y-14926960D02*
X12143301Y-14936484D01*
X12143301Y-14936484D02*
X12181396Y-14936484D01*
X12181396Y-14936484D02*
X12200444Y-14926960D01*
X12200444Y-14926960D02*
X12209967Y-14917436D01*
X12209967Y-14917436D02*
X12219491Y-14898388D01*
X12219491Y-14898388D02*
X12219491Y-14860293D01*
X12219491Y-14860293D02*
X12209967Y-14841246D01*
X12209967Y-14841246D02*
X12200444Y-14831722D01*
X12200444Y-14831722D02*
X12181396Y-14822198D01*
X12390920Y-14736484D02*
X12352825Y-14736484D01*
X12352825Y-14736484D02*
X12333777Y-14746008D01*
X12333777Y-14746008D02*
X12324253Y-14755531D01*
X12324253Y-14755531D02*
X12305206Y-14784103D01*
X12305206Y-14784103D02*
X12295682Y-14822198D01*
X12295682Y-14822198D02*
X12295682Y-14898388D01*
X12295682Y-14898388D02*
X12305206Y-14917436D01*
X12305206Y-14917436D02*
X12314729Y-14926960D01*
X12314729Y-14926960D02*
X12333777Y-14936484D01*
X12333777Y-14936484D02*
X12371872Y-14936484D01*
X12371872Y-14936484D02*
X12390920Y-14926960D01*
X12390920Y-14926960D02*
X12400444Y-14917436D01*
X12400444Y-14917436D02*
X12409967Y-14898388D01*
X12409967Y-14898388D02*
X12409967Y-14850769D01*
X12409967Y-14850769D02*
X12400444Y-14831722D01*
X12400444Y-14831722D02*
X12390920Y-14822198D01*
X12390920Y-14822198D02*
X12371872Y-14812674D01*
X12371872Y-14812674D02*
X12333777Y-14812674D01*
X12333777Y-14812674D02*
X12314729Y-14822198D01*
X12314729Y-14822198D02*
X12305206Y-14831722D01*
X12305206Y-14831722D02*
X12295682Y-14850769D01*
X12581396Y-14736484D02*
X12543301Y-14736484D01*
X12543301Y-14736484D02*
X12524253Y-14746008D01*
X12524253Y-14746008D02*
X12514729Y-14755531D01*
X12514729Y-14755531D02*
X12495682Y-14784103D01*
X12495682Y-14784103D02*
X12486158Y-14822198D01*
X12486158Y-14822198D02*
X12486158Y-14898388D01*
X12486158Y-14898388D02*
X12495682Y-14917436D01*
X12495682Y-14917436D02*
X12505206Y-14926960D01*
X12505206Y-14926960D02*
X12524253Y-14936484D01*
X12524253Y-14936484D02*
X12562348Y-14936484D01*
X12562348Y-14936484D02*
X12581396Y-14926960D01*
X12581396Y-14926960D02*
X12590920Y-14917436D01*
X12590920Y-14917436D02*
X12600444Y-14898388D01*
X12600444Y-14898388D02*
X12600444Y-14850769D01*
X12600444Y-14850769D02*
X12590920Y-14831722D01*
X12590920Y-14831722D02*
X12581396Y-14822198D01*
X12581396Y-14822198D02*
X12562348Y-14812674D01*
X12562348Y-14812674D02*
X12524253Y-14812674D01*
X12524253Y-14812674D02*
X12505206Y-14822198D01*
X12505206Y-14822198D02*
X12495682Y-14831722D01*
X12495682Y-14831722D02*
X12486158Y-14850769D01*
X12676634Y-14736484D02*
X12676634Y-14774579D01*
X12752825Y-14736484D02*
X12752825Y-14774579D01*
X13048063Y-15012674D02*
X13038539Y-15003150D01*
X13038539Y-15003150D02*
X13019491Y-14974579D01*
X13019491Y-14974579D02*
X13009968Y-14955531D01*
X13009968Y-14955531D02*
X13000444Y-14926960D01*
X13000444Y-14926960D02*
X12990920Y-14879341D01*
X12990920Y-14879341D02*
X12990920Y-14841246D01*
X12990920Y-14841246D02*
X13000444Y-14793627D01*
X13000444Y-14793627D02*
X13009968Y-14765055D01*
X13009968Y-14765055D02*
X13019491Y-14746008D01*
X13019491Y-14746008D02*
X13038539Y-14717436D01*
X13038539Y-14717436D02*
X13048063Y-14707912D01*
X13209968Y-14803150D02*
X13209968Y-14936484D01*
X13162348Y-14726960D02*
X13114729Y-14869817D01*
X13114729Y-14869817D02*
X13238539Y-14869817D01*
X13467110Y-14936484D02*
X13467110Y-14736484D01*
X13552825Y-14936484D02*
X13552825Y-14831722D01*
X13552825Y-14831722D02*
X13543301Y-14812674D01*
X13543301Y-14812674D02*
X13524253Y-14803150D01*
X13524253Y-14803150D02*
X13495682Y-14803150D01*
X13495682Y-14803150D02*
X13476634Y-14812674D01*
X13476634Y-14812674D02*
X13467110Y-14822198D01*
X13676634Y-14936484D02*
X13657587Y-14926960D01*
X13657587Y-14926960D02*
X13648063Y-14917436D01*
X13648063Y-14917436D02*
X13638539Y-14898388D01*
X13638539Y-14898388D02*
X13638539Y-14841246D01*
X13638539Y-14841246D02*
X13648063Y-14822198D01*
X13648063Y-14822198D02*
X13657587Y-14812674D01*
X13657587Y-14812674D02*
X13676634Y-14803150D01*
X13676634Y-14803150D02*
X13705206Y-14803150D01*
X13705206Y-14803150D02*
X13724253Y-14812674D01*
X13724253Y-14812674D02*
X13733777Y-14822198D01*
X13733777Y-14822198D02*
X13743301Y-14841246D01*
X13743301Y-14841246D02*
X13743301Y-14898388D01*
X13743301Y-14898388D02*
X13733777Y-14917436D01*
X13733777Y-14917436D02*
X13724253Y-14926960D01*
X13724253Y-14926960D02*
X13705206Y-14936484D01*
X13705206Y-14936484D02*
X13676634Y-14936484D01*
X13857587Y-14936484D02*
X13838539Y-14926960D01*
X13838539Y-14926960D02*
X13829015Y-14907912D01*
X13829015Y-14907912D02*
X13829015Y-14736484D01*
X14009968Y-14926960D02*
X13990920Y-14936484D01*
X13990920Y-14936484D02*
X13952825Y-14936484D01*
X13952825Y-14936484D02*
X13933777Y-14926960D01*
X13933777Y-14926960D02*
X13924253Y-14907912D01*
X13924253Y-14907912D02*
X13924253Y-14831722D01*
X13924253Y-14831722D02*
X13933777Y-14812674D01*
X13933777Y-14812674D02*
X13952825Y-14803150D01*
X13952825Y-14803150D02*
X13990920Y-14803150D01*
X13990920Y-14803150D02*
X14009968Y-14812674D01*
X14009968Y-14812674D02*
X14019491Y-14831722D01*
X14019491Y-14831722D02*
X14019491Y-14850769D01*
X14019491Y-14850769D02*
X13924253Y-14869817D01*
X14095682Y-14926960D02*
X14114730Y-14936484D01*
X14114730Y-14936484D02*
X14152825Y-14936484D01*
X14152825Y-14936484D02*
X14171872Y-14926960D01*
X14171872Y-14926960D02*
X14181396Y-14907912D01*
X14181396Y-14907912D02*
X14181396Y-14898388D01*
X14181396Y-14898388D02*
X14171872Y-14879341D01*
X14171872Y-14879341D02*
X14152825Y-14869817D01*
X14152825Y-14869817D02*
X14124253Y-14869817D01*
X14124253Y-14869817D02*
X14105206Y-14860293D01*
X14105206Y-14860293D02*
X14095682Y-14841246D01*
X14095682Y-14841246D02*
X14095682Y-14831722D01*
X14095682Y-14831722D02*
X14105206Y-14812674D01*
X14105206Y-14812674D02*
X14124253Y-14803150D01*
X14124253Y-14803150D02*
X14152825Y-14803150D01*
X14152825Y-14803150D02*
X14171872Y-14812674D01*
X14248063Y-15012674D02*
X14257587Y-15003150D01*
X14257587Y-15003150D02*
X14276634Y-14974579D01*
X14276634Y-14974579D02*
X14286158Y-14955531D01*
X14286158Y-14955531D02*
X14295682Y-14926960D01*
X14295682Y-14926960D02*
X14305206Y-14879341D01*
X14305206Y-14879341D02*
X14305206Y-14841246D01*
X14305206Y-14841246D02*
X14295682Y-14793627D01*
X14295682Y-14793627D02*
X14286158Y-14765055D01*
X14286158Y-14765055D02*
X14276634Y-14746008D01*
X14276634Y-14746008D02*
X14257587Y-14717436D01*
X14257587Y-14717436D02*
X14248063Y-14707912D01*
X14609968Y-15012674D02*
X14600444Y-15003150D01*
X14600444Y-15003150D02*
X14581396Y-14974579D01*
X14581396Y-14974579D02*
X14571872Y-14955531D01*
X14571872Y-14955531D02*
X14562349Y-14926960D01*
X14562349Y-14926960D02*
X14552825Y-14879341D01*
X14552825Y-14879341D02*
X14552825Y-14841246D01*
X14552825Y-14841246D02*
X14562349Y-14793627D01*
X14562349Y-14793627D02*
X14571872Y-14765055D01*
X14571872Y-14765055D02*
X14581396Y-14746008D01*
X14581396Y-14746008D02*
X14600444Y-14717436D01*
X14600444Y-14717436D02*
X14609968Y-14707912D01*
X14686158Y-14803150D02*
X14686158Y-14936484D01*
X14686158Y-14822198D02*
X14695682Y-14812674D01*
X14695682Y-14812674D02*
X14714730Y-14803150D01*
X14714730Y-14803150D02*
X14743301Y-14803150D01*
X14743301Y-14803150D02*
X14762349Y-14812674D01*
X14762349Y-14812674D02*
X14771872Y-14831722D01*
X14771872Y-14831722D02*
X14771872Y-14936484D01*
X14895682Y-14936484D02*
X14876634Y-14926960D01*
X14876634Y-14926960D02*
X14867111Y-14917436D01*
X14867111Y-14917436D02*
X14857587Y-14898388D01*
X14857587Y-14898388D02*
X14857587Y-14841246D01*
X14857587Y-14841246D02*
X14867111Y-14822198D01*
X14867111Y-14822198D02*
X14876634Y-14812674D01*
X14876634Y-14812674D02*
X14895682Y-14803150D01*
X14895682Y-14803150D02*
X14924253Y-14803150D01*
X14924253Y-14803150D02*
X14943301Y-14812674D01*
X14943301Y-14812674D02*
X14952825Y-14822198D01*
X14952825Y-14822198D02*
X14962349Y-14841246D01*
X14962349Y-14841246D02*
X14962349Y-14898388D01*
X14962349Y-14898388D02*
X14952825Y-14917436D01*
X14952825Y-14917436D02*
X14943301Y-14926960D01*
X14943301Y-14926960D02*
X14924253Y-14936484D01*
X14924253Y-14936484D02*
X14895682Y-14936484D01*
X15019492Y-14803150D02*
X15095682Y-14803150D01*
X15048063Y-14736484D02*
X15048063Y-14907912D01*
X15048063Y-14907912D02*
X15057587Y-14926960D01*
X15057587Y-14926960D02*
X15076634Y-14936484D01*
X15076634Y-14936484D02*
X15095682Y-14936484D01*
X15314730Y-14803150D02*
X15314730Y-15003150D01*
X15314730Y-14812674D02*
X15333777Y-14803150D01*
X15333777Y-14803150D02*
X15371873Y-14803150D01*
X15371873Y-14803150D02*
X15390920Y-14812674D01*
X15390920Y-14812674D02*
X15400444Y-14822198D01*
X15400444Y-14822198D02*
X15409968Y-14841246D01*
X15409968Y-14841246D02*
X15409968Y-14898388D01*
X15409968Y-14898388D02*
X15400444Y-14917436D01*
X15400444Y-14917436D02*
X15390920Y-14926960D01*
X15390920Y-14926960D02*
X15371873Y-14936484D01*
X15371873Y-14936484D02*
X15333777Y-14936484D01*
X15333777Y-14936484D02*
X15314730Y-14926960D01*
X15524253Y-14936484D02*
X15505206Y-14926960D01*
X15505206Y-14926960D02*
X15495682Y-14907912D01*
X15495682Y-14907912D02*
X15495682Y-14736484D01*
X15686158Y-14936484D02*
X15686158Y-14831722D01*
X15686158Y-14831722D02*
X15676634Y-14812674D01*
X15676634Y-14812674D02*
X15657587Y-14803150D01*
X15657587Y-14803150D02*
X15619492Y-14803150D01*
X15619492Y-14803150D02*
X15600444Y-14812674D01*
X15686158Y-14926960D02*
X15667111Y-14936484D01*
X15667111Y-14936484D02*
X15619492Y-14936484D01*
X15619492Y-14936484D02*
X15600444Y-14926960D01*
X15600444Y-14926960D02*
X15590920Y-14907912D01*
X15590920Y-14907912D02*
X15590920Y-14888865D01*
X15590920Y-14888865D02*
X15600444Y-14869817D01*
X15600444Y-14869817D02*
X15619492Y-14860293D01*
X15619492Y-14860293D02*
X15667111Y-14860293D01*
X15667111Y-14860293D02*
X15686158Y-14850769D01*
X15752825Y-14803150D02*
X15829015Y-14803150D01*
X15781396Y-14736484D02*
X15781396Y-14907912D01*
X15781396Y-14907912D02*
X15790920Y-14926960D01*
X15790920Y-14926960D02*
X15809968Y-14936484D01*
X15809968Y-14936484D02*
X15829015Y-14936484D01*
X15971873Y-14926960D02*
X15952825Y-14936484D01*
X15952825Y-14936484D02*
X15914730Y-14936484D01*
X15914730Y-14936484D02*
X15895682Y-14926960D01*
X15895682Y-14926960D02*
X15886158Y-14907912D01*
X15886158Y-14907912D02*
X15886158Y-14831722D01*
X15886158Y-14831722D02*
X15895682Y-14812674D01*
X15895682Y-14812674D02*
X15914730Y-14803150D01*
X15914730Y-14803150D02*
X15952825Y-14803150D01*
X15952825Y-14803150D02*
X15971873Y-14812674D01*
X15971873Y-14812674D02*
X15981396Y-14831722D01*
X15981396Y-14831722D02*
X15981396Y-14850769D01*
X15981396Y-14850769D02*
X15886158Y-14869817D01*
X16152825Y-14936484D02*
X16152825Y-14736484D01*
X16152825Y-14926960D02*
X16133777Y-14936484D01*
X16133777Y-14936484D02*
X16095682Y-14936484D01*
X16095682Y-14936484D02*
X16076634Y-14926960D01*
X16076634Y-14926960D02*
X16067111Y-14917436D01*
X16067111Y-14917436D02*
X16057587Y-14898388D01*
X16057587Y-14898388D02*
X16057587Y-14841246D01*
X16057587Y-14841246D02*
X16067111Y-14822198D01*
X16067111Y-14822198D02*
X16076634Y-14812674D01*
X16076634Y-14812674D02*
X16095682Y-14803150D01*
X16095682Y-14803150D02*
X16133777Y-14803150D01*
X16133777Y-14803150D02*
X16152825Y-14812674D01*
X16229015Y-15012674D02*
X16238539Y-15003150D01*
X16238539Y-15003150D02*
X16257587Y-14974579D01*
X16257587Y-14974579D02*
X16267111Y-14955531D01*
X16267111Y-14955531D02*
X16276634Y-14926960D01*
X16276634Y-14926960D02*
X16286158Y-14879341D01*
X16286158Y-14879341D02*
X16286158Y-14841246D01*
X16286158Y-14841246D02*
X16276634Y-14793627D01*
X16276634Y-14793627D02*
X16267111Y-14765055D01*
X16267111Y-14765055D02*
X16257587Y-14746008D01*
X16257587Y-14746008D02*
X16238539Y-14717436D01*
X16238539Y-14717436D02*
X16229015Y-14707912D01*
X9473000Y-15165000D02*
G75*
G03*
X9473000Y-15165000I-100000J0D01*
G01*
X9714729Y-15056484D02*
X9838539Y-15056484D01*
X9838539Y-15056484D02*
X9771872Y-15132674D01*
X9771872Y-15132674D02*
X9800444Y-15132674D01*
X9800444Y-15132674D02*
X9819491Y-15142198D01*
X9819491Y-15142198D02*
X9829015Y-15151722D01*
X9829015Y-15151722D02*
X9838539Y-15170769D01*
X9838539Y-15170769D02*
X9838539Y-15218388D01*
X9838539Y-15218388D02*
X9829015Y-15237436D01*
X9829015Y-15237436D02*
X9819491Y-15246960D01*
X9819491Y-15246960D02*
X9800444Y-15256484D01*
X9800444Y-15256484D02*
X9743301Y-15256484D01*
X9743301Y-15256484D02*
X9724253Y-15246960D01*
X9724253Y-15246960D02*
X9714729Y-15237436D01*
X9924253Y-15237436D02*
X9933777Y-15246960D01*
X9933777Y-15246960D02*
X9924253Y-15256484D01*
X9924253Y-15256484D02*
X9914729Y-15246960D01*
X9914729Y-15246960D02*
X9924253Y-15237436D01*
X9924253Y-15237436D02*
X9924253Y-15256484D01*
X10057586Y-15056484D02*
X10076634Y-15056484D01*
X10076634Y-15056484D02*
X10095682Y-15066008D01*
X10095682Y-15066008D02*
X10105205Y-15075531D01*
X10105205Y-15075531D02*
X10114729Y-15094579D01*
X10114729Y-15094579D02*
X10124253Y-15132674D01*
X10124253Y-15132674D02*
X10124253Y-15180293D01*
X10124253Y-15180293D02*
X10114729Y-15218388D01*
X10114729Y-15218388D02*
X10105205Y-15237436D01*
X10105205Y-15237436D02*
X10095682Y-15246960D01*
X10095682Y-15246960D02*
X10076634Y-15256484D01*
X10076634Y-15256484D02*
X10057586Y-15256484D01*
X10057586Y-15256484D02*
X10038539Y-15246960D01*
X10038539Y-15246960D02*
X10029015Y-15237436D01*
X10029015Y-15237436D02*
X10019491Y-15218388D01*
X10019491Y-15218388D02*
X10009967Y-15180293D01*
X10009967Y-15180293D02*
X10009967Y-15132674D01*
X10009967Y-15132674D02*
X10019491Y-15094579D01*
X10019491Y-15094579D02*
X10029015Y-15075531D01*
X10029015Y-15075531D02*
X10038539Y-15066008D01*
X10038539Y-15066008D02*
X10057586Y-15056484D01*
X10248063Y-15056484D02*
X10267110Y-15056484D01*
X10267110Y-15056484D02*
X10286158Y-15066008D01*
X10286158Y-15066008D02*
X10295682Y-15075531D01*
X10295682Y-15075531D02*
X10305205Y-15094579D01*
X10305205Y-15094579D02*
X10314729Y-15132674D01*
X10314729Y-15132674D02*
X10314729Y-15180293D01*
X10314729Y-15180293D02*
X10305205Y-15218388D01*
X10305205Y-15218388D02*
X10295682Y-15237436D01*
X10295682Y-15237436D02*
X10286158Y-15246960D01*
X10286158Y-15246960D02*
X10267110Y-15256484D01*
X10267110Y-15256484D02*
X10248063Y-15256484D01*
X10248063Y-15256484D02*
X10229015Y-15246960D01*
X10229015Y-15246960D02*
X10219491Y-15237436D01*
X10219491Y-15237436D02*
X10209967Y-15218388D01*
X10209967Y-15218388D02*
X10200444Y-15180293D01*
X10200444Y-15180293D02*
X10200444Y-15132674D01*
X10200444Y-15132674D02*
X10209967Y-15094579D01*
X10209967Y-15094579D02*
X10219491Y-15075531D01*
X10219491Y-15075531D02*
X10229015Y-15066008D01*
X10229015Y-15066008D02*
X10248063Y-15056484D01*
X10438539Y-15056484D02*
X10457586Y-15056484D01*
X10457586Y-15056484D02*
X10476634Y-15066008D01*
X10476634Y-15066008D02*
X10486158Y-15075531D01*
X10486158Y-15075531D02*
X10495682Y-15094579D01*
X10495682Y-15094579D02*
X10505205Y-15132674D01*
X10505205Y-15132674D02*
X10505205Y-15180293D01*
X10505205Y-15180293D02*
X10495682Y-15218388D01*
X10495682Y-15218388D02*
X10486158Y-15237436D01*
X10486158Y-15237436D02*
X10476634Y-15246960D01*
X10476634Y-15246960D02*
X10457586Y-15256484D01*
X10457586Y-15256484D02*
X10438539Y-15256484D01*
X10438539Y-15256484D02*
X10419491Y-15246960D01*
X10419491Y-15246960D02*
X10409967Y-15237436D01*
X10409967Y-15237436D02*
X10400444Y-15218388D01*
X10400444Y-15218388D02*
X10390920Y-15180293D01*
X10390920Y-15180293D02*
X10390920Y-15132674D01*
X10390920Y-15132674D02*
X10400444Y-15094579D01*
X10400444Y-15094579D02*
X10409967Y-15075531D01*
X10409967Y-15075531D02*
X10419491Y-15066008D01*
X10419491Y-15066008D02*
X10438539Y-15056484D01*
X10590920Y-15256484D02*
X10590920Y-15123150D01*
X10590920Y-15142198D02*
X10600444Y-15132674D01*
X10600444Y-15132674D02*
X10619491Y-15123150D01*
X10619491Y-15123150D02*
X10648063Y-15123150D01*
X10648063Y-15123150D02*
X10667110Y-15132674D01*
X10667110Y-15132674D02*
X10676634Y-15151722D01*
X10676634Y-15151722D02*
X10676634Y-15256484D01*
X10676634Y-15151722D02*
X10686158Y-15132674D01*
X10686158Y-15132674D02*
X10705205Y-15123150D01*
X10705205Y-15123150D02*
X10733777Y-15123150D01*
X10733777Y-15123150D02*
X10752825Y-15132674D01*
X10752825Y-15132674D02*
X10762348Y-15151722D01*
X10762348Y-15151722D02*
X10762348Y-15256484D01*
X10857586Y-15256484D02*
X10857586Y-15123150D01*
X10857586Y-15142198D02*
X10867110Y-15132674D01*
X10867110Y-15132674D02*
X10886158Y-15123150D01*
X10886158Y-15123150D02*
X10914729Y-15123150D01*
X10914729Y-15123150D02*
X10933777Y-15132674D01*
X10933777Y-15132674D02*
X10943301Y-15151722D01*
X10943301Y-15151722D02*
X10943301Y-15256484D01*
X10943301Y-15151722D02*
X10952825Y-15132674D01*
X10952825Y-15132674D02*
X10971872Y-15123150D01*
X10971872Y-15123150D02*
X11000444Y-15123150D01*
X11000444Y-15123150D02*
X11019491Y-15132674D01*
X11019491Y-15132674D02*
X11029015Y-15151722D01*
X11029015Y-15151722D02*
X11029015Y-15256484D01*
X11419491Y-15046960D02*
X11248063Y-15304103D01*
X11676634Y-15056484D02*
X11695682Y-15056484D01*
X11695682Y-15056484D02*
X11714729Y-15066008D01*
X11714729Y-15066008D02*
X11724253Y-15075531D01*
X11724253Y-15075531D02*
X11733777Y-15094579D01*
X11733777Y-15094579D02*
X11743301Y-15132674D01*
X11743301Y-15132674D02*
X11743301Y-15180293D01*
X11743301Y-15180293D02*
X11733777Y-15218388D01*
X11733777Y-15218388D02*
X11724253Y-15237436D01*
X11724253Y-15237436D02*
X11714729Y-15246960D01*
X11714729Y-15246960D02*
X11695682Y-15256484D01*
X11695682Y-15256484D02*
X11676634Y-15256484D01*
X11676634Y-15256484D02*
X11657586Y-15246960D01*
X11657586Y-15246960D02*
X11648063Y-15237436D01*
X11648063Y-15237436D02*
X11638539Y-15218388D01*
X11638539Y-15218388D02*
X11629015Y-15180293D01*
X11629015Y-15180293D02*
X11629015Y-15132674D01*
X11629015Y-15132674D02*
X11638539Y-15094579D01*
X11638539Y-15094579D02*
X11648063Y-15075531D01*
X11648063Y-15075531D02*
X11657586Y-15066008D01*
X11657586Y-15066008D02*
X11676634Y-15056484D01*
X11829015Y-15237436D02*
X11838539Y-15246960D01*
X11838539Y-15246960D02*
X11829015Y-15256484D01*
X11829015Y-15256484D02*
X11819491Y-15246960D01*
X11819491Y-15246960D02*
X11829015Y-15237436D01*
X11829015Y-15237436D02*
X11829015Y-15256484D01*
X12029015Y-15256484D02*
X11914729Y-15256484D01*
X11971872Y-15256484D02*
X11971872Y-15056484D01*
X11971872Y-15056484D02*
X11952825Y-15085055D01*
X11952825Y-15085055D02*
X11933777Y-15104103D01*
X11933777Y-15104103D02*
X11914729Y-15113627D01*
X12219491Y-15256484D02*
X12105206Y-15256484D01*
X12162348Y-15256484D02*
X12162348Y-15056484D01*
X12162348Y-15056484D02*
X12143301Y-15085055D01*
X12143301Y-15085055D02*
X12124253Y-15104103D01*
X12124253Y-15104103D02*
X12105206Y-15113627D01*
X12333777Y-15142198D02*
X12314729Y-15132674D01*
X12314729Y-15132674D02*
X12305206Y-15123150D01*
X12305206Y-15123150D02*
X12295682Y-15104103D01*
X12295682Y-15104103D02*
X12295682Y-15094579D01*
X12295682Y-15094579D02*
X12305206Y-15075531D01*
X12305206Y-15075531D02*
X12314729Y-15066008D01*
X12314729Y-15066008D02*
X12333777Y-15056484D01*
X12333777Y-15056484D02*
X12371872Y-15056484D01*
X12371872Y-15056484D02*
X12390920Y-15066008D01*
X12390920Y-15066008D02*
X12400444Y-15075531D01*
X12400444Y-15075531D02*
X12409967Y-15094579D01*
X12409967Y-15094579D02*
X12409967Y-15104103D01*
X12409967Y-15104103D02*
X12400444Y-15123150D01*
X12400444Y-15123150D02*
X12390920Y-15132674D01*
X12390920Y-15132674D02*
X12371872Y-15142198D01*
X12371872Y-15142198D02*
X12333777Y-15142198D01*
X12333777Y-15142198D02*
X12314729Y-15151722D01*
X12314729Y-15151722D02*
X12305206Y-15161246D01*
X12305206Y-15161246D02*
X12295682Y-15180293D01*
X12295682Y-15180293D02*
X12295682Y-15218388D01*
X12295682Y-15218388D02*
X12305206Y-15237436D01*
X12305206Y-15237436D02*
X12314729Y-15246960D01*
X12314729Y-15246960D02*
X12333777Y-15256484D01*
X12333777Y-15256484D02*
X12371872Y-15256484D01*
X12371872Y-15256484D02*
X12390920Y-15246960D01*
X12390920Y-15246960D02*
X12400444Y-15237436D01*
X12400444Y-15237436D02*
X12409967Y-15218388D01*
X12409967Y-15218388D02*
X12409967Y-15180293D01*
X12409967Y-15180293D02*
X12400444Y-15161246D01*
X12400444Y-15161246D02*
X12390920Y-15151722D01*
X12390920Y-15151722D02*
X12371872Y-15142198D01*
X12600444Y-15256484D02*
X12486158Y-15256484D01*
X12543301Y-15256484D02*
X12543301Y-15056484D01*
X12543301Y-15056484D02*
X12524253Y-15085055D01*
X12524253Y-15085055D02*
X12505206Y-15104103D01*
X12505206Y-15104103D02*
X12486158Y-15113627D01*
X12676634Y-15056484D02*
X12676634Y-15094579D01*
X12752825Y-15056484D02*
X12752825Y-15094579D01*
X13048063Y-15332674D02*
X13038539Y-15323150D01*
X13038539Y-15323150D02*
X13019491Y-15294579D01*
X13019491Y-15294579D02*
X13009968Y-15275531D01*
X13009968Y-15275531D02*
X13000444Y-15246960D01*
X13000444Y-15246960D02*
X12990920Y-15199341D01*
X12990920Y-15199341D02*
X12990920Y-15161246D01*
X12990920Y-15161246D02*
X13000444Y-15113627D01*
X13000444Y-15113627D02*
X13009968Y-15085055D01*
X13009968Y-15085055D02*
X13019491Y-15066008D01*
X13019491Y-15066008D02*
X13038539Y-15037436D01*
X13038539Y-15037436D02*
X13048063Y-15027912D01*
X13209968Y-15123150D02*
X13209968Y-15256484D01*
X13162348Y-15046960D02*
X13114729Y-15189817D01*
X13114729Y-15189817D02*
X13238539Y-15189817D01*
X13467110Y-15256484D02*
X13467110Y-15056484D01*
X13552825Y-15256484D02*
X13552825Y-15151722D01*
X13552825Y-15151722D02*
X13543301Y-15132674D01*
X13543301Y-15132674D02*
X13524253Y-15123150D01*
X13524253Y-15123150D02*
X13495682Y-15123150D01*
X13495682Y-15123150D02*
X13476634Y-15132674D01*
X13476634Y-15132674D02*
X13467110Y-15142198D01*
X13676634Y-15256484D02*
X13657587Y-15246960D01*
X13657587Y-15246960D02*
X13648063Y-15237436D01*
X13648063Y-15237436D02*
X13638539Y-15218388D01*
X13638539Y-15218388D02*
X13638539Y-15161246D01*
X13638539Y-15161246D02*
X13648063Y-15142198D01*
X13648063Y-15142198D02*
X13657587Y-15132674D01*
X13657587Y-15132674D02*
X13676634Y-15123150D01*
X13676634Y-15123150D02*
X13705206Y-15123150D01*
X13705206Y-15123150D02*
X13724253Y-15132674D01*
X13724253Y-15132674D02*
X13733777Y-15142198D01*
X13733777Y-15142198D02*
X13743301Y-15161246D01*
X13743301Y-15161246D02*
X13743301Y-15218388D01*
X13743301Y-15218388D02*
X13733777Y-15237436D01*
X13733777Y-15237436D02*
X13724253Y-15246960D01*
X13724253Y-15246960D02*
X13705206Y-15256484D01*
X13705206Y-15256484D02*
X13676634Y-15256484D01*
X13857587Y-15256484D02*
X13838539Y-15246960D01*
X13838539Y-15246960D02*
X13829015Y-15227912D01*
X13829015Y-15227912D02*
X13829015Y-15056484D01*
X14009968Y-15246960D02*
X13990920Y-15256484D01*
X13990920Y-15256484D02*
X13952825Y-15256484D01*
X13952825Y-15256484D02*
X13933777Y-15246960D01*
X13933777Y-15246960D02*
X13924253Y-15227912D01*
X13924253Y-15227912D02*
X13924253Y-15151722D01*
X13924253Y-15151722D02*
X13933777Y-15132674D01*
X13933777Y-15132674D02*
X13952825Y-15123150D01*
X13952825Y-15123150D02*
X13990920Y-15123150D01*
X13990920Y-15123150D02*
X14009968Y-15132674D01*
X14009968Y-15132674D02*
X14019491Y-15151722D01*
X14019491Y-15151722D02*
X14019491Y-15170769D01*
X14019491Y-15170769D02*
X13924253Y-15189817D01*
X14095682Y-15246960D02*
X14114730Y-15256484D01*
X14114730Y-15256484D02*
X14152825Y-15256484D01*
X14152825Y-15256484D02*
X14171872Y-15246960D01*
X14171872Y-15246960D02*
X14181396Y-15227912D01*
X14181396Y-15227912D02*
X14181396Y-15218388D01*
X14181396Y-15218388D02*
X14171872Y-15199341D01*
X14171872Y-15199341D02*
X14152825Y-15189817D01*
X14152825Y-15189817D02*
X14124253Y-15189817D01*
X14124253Y-15189817D02*
X14105206Y-15180293D01*
X14105206Y-15180293D02*
X14095682Y-15161246D01*
X14095682Y-15161246D02*
X14095682Y-15151722D01*
X14095682Y-15151722D02*
X14105206Y-15132674D01*
X14105206Y-15132674D02*
X14124253Y-15123150D01*
X14124253Y-15123150D02*
X14152825Y-15123150D01*
X14152825Y-15123150D02*
X14171872Y-15132674D01*
X14248063Y-15332674D02*
X14257587Y-15323150D01*
X14257587Y-15323150D02*
X14276634Y-15294579D01*
X14276634Y-15294579D02*
X14286158Y-15275531D01*
X14286158Y-15275531D02*
X14295682Y-15246960D01*
X14295682Y-15246960D02*
X14305206Y-15199341D01*
X14305206Y-15199341D02*
X14305206Y-15161246D01*
X14305206Y-15161246D02*
X14295682Y-15113627D01*
X14295682Y-15113627D02*
X14286158Y-15085055D01*
X14286158Y-15085055D02*
X14276634Y-15066008D01*
X14276634Y-15066008D02*
X14257587Y-15037436D01*
X14257587Y-15037436D02*
X14248063Y-15027912D01*
X14609968Y-15332674D02*
X14600444Y-15323150D01*
X14600444Y-15323150D02*
X14581396Y-15294579D01*
X14581396Y-15294579D02*
X14571872Y-15275531D01*
X14571872Y-15275531D02*
X14562349Y-15246960D01*
X14562349Y-15246960D02*
X14552825Y-15199341D01*
X14552825Y-15199341D02*
X14552825Y-15161246D01*
X14552825Y-15161246D02*
X14562349Y-15113627D01*
X14562349Y-15113627D02*
X14571872Y-15085055D01*
X14571872Y-15085055D02*
X14581396Y-15066008D01*
X14581396Y-15066008D02*
X14600444Y-15037436D01*
X14600444Y-15037436D02*
X14609968Y-15027912D01*
X14686158Y-15123150D02*
X14686158Y-15256484D01*
X14686158Y-15142198D02*
X14695682Y-15132674D01*
X14695682Y-15132674D02*
X14714730Y-15123150D01*
X14714730Y-15123150D02*
X14743301Y-15123150D01*
X14743301Y-15123150D02*
X14762349Y-15132674D01*
X14762349Y-15132674D02*
X14771872Y-15151722D01*
X14771872Y-15151722D02*
X14771872Y-15256484D01*
X14895682Y-15256484D02*
X14876634Y-15246960D01*
X14876634Y-15246960D02*
X14867111Y-15237436D01*
X14867111Y-15237436D02*
X14857587Y-15218388D01*
X14857587Y-15218388D02*
X14857587Y-15161246D01*
X14857587Y-15161246D02*
X14867111Y-15142198D01*
X14867111Y-15142198D02*
X14876634Y-15132674D01*
X14876634Y-15132674D02*
X14895682Y-15123150D01*
X14895682Y-15123150D02*
X14924253Y-15123150D01*
X14924253Y-15123150D02*
X14943301Y-15132674D01*
X14943301Y-15132674D02*
X14952825Y-15142198D01*
X14952825Y-15142198D02*
X14962349Y-15161246D01*
X14962349Y-15161246D02*
X14962349Y-15218388D01*
X14962349Y-15218388D02*
X14952825Y-15237436D01*
X14952825Y-15237436D02*
X14943301Y-15246960D01*
X14943301Y-15246960D02*
X14924253Y-15256484D01*
X14924253Y-15256484D02*
X14895682Y-15256484D01*
X15019492Y-15123150D02*
X15095682Y-15123150D01*
X15048063Y-15056484D02*
X15048063Y-15227912D01*
X15048063Y-15227912D02*
X15057587Y-15246960D01*
X15057587Y-15246960D02*
X15076634Y-15256484D01*
X15076634Y-15256484D02*
X15095682Y-15256484D01*
X15314730Y-15123150D02*
X15314730Y-15323150D01*
X15314730Y-15132674D02*
X15333777Y-15123150D01*
X15333777Y-15123150D02*
X15371873Y-15123150D01*
X15371873Y-15123150D02*
X15390920Y-15132674D01*
X15390920Y-15132674D02*
X15400444Y-15142198D01*
X15400444Y-15142198D02*
X15409968Y-15161246D01*
X15409968Y-15161246D02*
X15409968Y-15218388D01*
X15409968Y-15218388D02*
X15400444Y-15237436D01*
X15400444Y-15237436D02*
X15390920Y-15246960D01*
X15390920Y-15246960D02*
X15371873Y-15256484D01*
X15371873Y-15256484D02*
X15333777Y-15256484D01*
X15333777Y-15256484D02*
X15314730Y-15246960D01*
X15524253Y-15256484D02*
X15505206Y-15246960D01*
X15505206Y-15246960D02*
X15495682Y-15227912D01*
X15495682Y-15227912D02*
X15495682Y-15056484D01*
X15686158Y-15256484D02*
X15686158Y-15151722D01*
X15686158Y-15151722D02*
X15676634Y-15132674D01*
X15676634Y-15132674D02*
X15657587Y-15123150D01*
X15657587Y-15123150D02*
X15619492Y-15123150D01*
X15619492Y-15123150D02*
X15600444Y-15132674D01*
X15686158Y-15246960D02*
X15667111Y-15256484D01*
X15667111Y-15256484D02*
X15619492Y-15256484D01*
X15619492Y-15256484D02*
X15600444Y-15246960D01*
X15600444Y-15246960D02*
X15590920Y-15227912D01*
X15590920Y-15227912D02*
X15590920Y-15208865D01*
X15590920Y-15208865D02*
X15600444Y-15189817D01*
X15600444Y-15189817D02*
X15619492Y-15180293D01*
X15619492Y-15180293D02*
X15667111Y-15180293D01*
X15667111Y-15180293D02*
X15686158Y-15170769D01*
X15752825Y-15123150D02*
X15829015Y-15123150D01*
X15781396Y-15056484D02*
X15781396Y-15227912D01*
X15781396Y-15227912D02*
X15790920Y-15246960D01*
X15790920Y-15246960D02*
X15809968Y-15256484D01*
X15809968Y-15256484D02*
X15829015Y-15256484D01*
X15971873Y-15246960D02*
X15952825Y-15256484D01*
X15952825Y-15256484D02*
X15914730Y-15256484D01*
X15914730Y-15256484D02*
X15895682Y-15246960D01*
X15895682Y-15246960D02*
X15886158Y-15227912D01*
X15886158Y-15227912D02*
X15886158Y-15151722D01*
X15886158Y-15151722D02*
X15895682Y-15132674D01*
X15895682Y-15132674D02*
X15914730Y-15123150D01*
X15914730Y-15123150D02*
X15952825Y-15123150D01*
X15952825Y-15123150D02*
X15971873Y-15132674D01*
X15971873Y-15132674D02*
X15981396Y-15151722D01*
X15981396Y-15151722D02*
X15981396Y-15170769D01*
X15981396Y-15170769D02*
X15886158Y-15189817D01*
X16152825Y-15256484D02*
X16152825Y-15056484D01*
X16152825Y-15246960D02*
X16133777Y-15256484D01*
X16133777Y-15256484D02*
X16095682Y-15256484D01*
X16095682Y-15256484D02*
X16076634Y-15246960D01*
X16076634Y-15246960D02*
X16067111Y-15237436D01*
X16067111Y-15237436D02*
X16057587Y-15218388D01*
X16057587Y-15218388D02*
X16057587Y-15161246D01*
X16057587Y-15161246D02*
X16067111Y-15142198D01*
X16067111Y-15142198D02*
X16076634Y-15132674D01*
X16076634Y-15132674D02*
X16095682Y-15123150D01*
X16095682Y-15123150D02*
X16133777Y-15123150D01*
X16133777Y-15123150D02*
X16152825Y-15132674D01*
X16229015Y-15332674D02*
X16238539Y-15323150D01*
X16238539Y-15323150D02*
X16257587Y-15294579D01*
X16257587Y-15294579D02*
X16267111Y-15275531D01*
X16267111Y-15275531D02*
X16276634Y-15246960D01*
X16276634Y-15246960D02*
X16286158Y-15199341D01*
X16286158Y-15199341D02*
X16286158Y-15161246D01*
X16286158Y-15161246D02*
X16276634Y-15113627D01*
X16276634Y-15113627D02*
X16267111Y-15085055D01*
X16267111Y-15085055D02*
X16257587Y-15066008D01*
X16257587Y-15066008D02*
X16238539Y-15037436D01*
X16238539Y-15037436D02*
X16229015Y-15027912D01*
X9373000Y-15385000D02*
X9373000Y-15585000D01*
X9273000Y-15485000D02*
X9473000Y-15485000D01*
X9714729Y-15376484D02*
X9838539Y-15376484D01*
X9838539Y-15376484D02*
X9771872Y-15452674D01*
X9771872Y-15452674D02*
X9800444Y-15452674D01*
X9800444Y-15452674D02*
X9819491Y-15462198D01*
X9819491Y-15462198D02*
X9829015Y-15471722D01*
X9829015Y-15471722D02*
X9838539Y-15490769D01*
X9838539Y-15490769D02*
X9838539Y-15538388D01*
X9838539Y-15538388D02*
X9829015Y-15557436D01*
X9829015Y-15557436D02*
X9819491Y-15566960D01*
X9819491Y-15566960D02*
X9800444Y-15576484D01*
X9800444Y-15576484D02*
X9743301Y-15576484D01*
X9743301Y-15576484D02*
X9724253Y-15566960D01*
X9724253Y-15566960D02*
X9714729Y-15557436D01*
X9924253Y-15557436D02*
X9933777Y-15566960D01*
X9933777Y-15566960D02*
X9924253Y-15576484D01*
X9924253Y-15576484D02*
X9914729Y-15566960D01*
X9914729Y-15566960D02*
X9924253Y-15557436D01*
X9924253Y-15557436D02*
X9924253Y-15576484D01*
X10009967Y-15395531D02*
X10019491Y-15386008D01*
X10019491Y-15386008D02*
X10038539Y-15376484D01*
X10038539Y-15376484D02*
X10086158Y-15376484D01*
X10086158Y-15376484D02*
X10105205Y-15386008D01*
X10105205Y-15386008D02*
X10114729Y-15395531D01*
X10114729Y-15395531D02*
X10124253Y-15414579D01*
X10124253Y-15414579D02*
X10124253Y-15433627D01*
X10124253Y-15433627D02*
X10114729Y-15462198D01*
X10114729Y-15462198D02*
X10000444Y-15576484D01*
X10000444Y-15576484D02*
X10124253Y-15576484D01*
X10248063Y-15376484D02*
X10267110Y-15376484D01*
X10267110Y-15376484D02*
X10286158Y-15386008D01*
X10286158Y-15386008D02*
X10295682Y-15395531D01*
X10295682Y-15395531D02*
X10305205Y-15414579D01*
X10305205Y-15414579D02*
X10314729Y-15452674D01*
X10314729Y-15452674D02*
X10314729Y-15500293D01*
X10314729Y-15500293D02*
X10305205Y-15538388D01*
X10305205Y-15538388D02*
X10295682Y-15557436D01*
X10295682Y-15557436D02*
X10286158Y-15566960D01*
X10286158Y-15566960D02*
X10267110Y-15576484D01*
X10267110Y-15576484D02*
X10248063Y-15576484D01*
X10248063Y-15576484D02*
X10229015Y-15566960D01*
X10229015Y-15566960D02*
X10219491Y-15557436D01*
X10219491Y-15557436D02*
X10209967Y-15538388D01*
X10209967Y-15538388D02*
X10200444Y-15500293D01*
X10200444Y-15500293D02*
X10200444Y-15452674D01*
X10200444Y-15452674D02*
X10209967Y-15414579D01*
X10209967Y-15414579D02*
X10219491Y-15395531D01*
X10219491Y-15395531D02*
X10229015Y-15386008D01*
X10229015Y-15386008D02*
X10248063Y-15376484D01*
X10438539Y-15376484D02*
X10457586Y-15376484D01*
X10457586Y-15376484D02*
X10476634Y-15386008D01*
X10476634Y-15386008D02*
X10486158Y-15395531D01*
X10486158Y-15395531D02*
X10495682Y-15414579D01*
X10495682Y-15414579D02*
X10505205Y-15452674D01*
X10505205Y-15452674D02*
X10505205Y-15500293D01*
X10505205Y-15500293D02*
X10495682Y-15538388D01*
X10495682Y-15538388D02*
X10486158Y-15557436D01*
X10486158Y-15557436D02*
X10476634Y-15566960D01*
X10476634Y-15566960D02*
X10457586Y-15576484D01*
X10457586Y-15576484D02*
X10438539Y-15576484D01*
X10438539Y-15576484D02*
X10419491Y-15566960D01*
X10419491Y-15566960D02*
X10409967Y-15557436D01*
X10409967Y-15557436D02*
X10400444Y-15538388D01*
X10400444Y-15538388D02*
X10390920Y-15500293D01*
X10390920Y-15500293D02*
X10390920Y-15452674D01*
X10390920Y-15452674D02*
X10400444Y-15414579D01*
X10400444Y-15414579D02*
X10409967Y-15395531D01*
X10409967Y-15395531D02*
X10419491Y-15386008D01*
X10419491Y-15386008D02*
X10438539Y-15376484D01*
X10590920Y-15576484D02*
X10590920Y-15443150D01*
X10590920Y-15462198D02*
X10600444Y-15452674D01*
X10600444Y-15452674D02*
X10619491Y-15443150D01*
X10619491Y-15443150D02*
X10648063Y-15443150D01*
X10648063Y-15443150D02*
X10667110Y-15452674D01*
X10667110Y-15452674D02*
X10676634Y-15471722D01*
X10676634Y-15471722D02*
X10676634Y-15576484D01*
X10676634Y-15471722D02*
X10686158Y-15452674D01*
X10686158Y-15452674D02*
X10705205Y-15443150D01*
X10705205Y-15443150D02*
X10733777Y-15443150D01*
X10733777Y-15443150D02*
X10752825Y-15452674D01*
X10752825Y-15452674D02*
X10762348Y-15471722D01*
X10762348Y-15471722D02*
X10762348Y-15576484D01*
X10857586Y-15576484D02*
X10857586Y-15443150D01*
X10857586Y-15462198D02*
X10867110Y-15452674D01*
X10867110Y-15452674D02*
X10886158Y-15443150D01*
X10886158Y-15443150D02*
X10914729Y-15443150D01*
X10914729Y-15443150D02*
X10933777Y-15452674D01*
X10933777Y-15452674D02*
X10943301Y-15471722D01*
X10943301Y-15471722D02*
X10943301Y-15576484D01*
X10943301Y-15471722D02*
X10952825Y-15452674D01*
X10952825Y-15452674D02*
X10971872Y-15443150D01*
X10971872Y-15443150D02*
X11000444Y-15443150D01*
X11000444Y-15443150D02*
X11019491Y-15452674D01*
X11019491Y-15452674D02*
X11029015Y-15471722D01*
X11029015Y-15471722D02*
X11029015Y-15576484D01*
X11419491Y-15366960D02*
X11248063Y-15624103D01*
X11676634Y-15376484D02*
X11695682Y-15376484D01*
X11695682Y-15376484D02*
X11714729Y-15386008D01*
X11714729Y-15386008D02*
X11724253Y-15395531D01*
X11724253Y-15395531D02*
X11733777Y-15414579D01*
X11733777Y-15414579D02*
X11743301Y-15452674D01*
X11743301Y-15452674D02*
X11743301Y-15500293D01*
X11743301Y-15500293D02*
X11733777Y-15538388D01*
X11733777Y-15538388D02*
X11724253Y-15557436D01*
X11724253Y-15557436D02*
X11714729Y-15566960D01*
X11714729Y-15566960D02*
X11695682Y-15576484D01*
X11695682Y-15576484D02*
X11676634Y-15576484D01*
X11676634Y-15576484D02*
X11657586Y-15566960D01*
X11657586Y-15566960D02*
X11648063Y-15557436D01*
X11648063Y-15557436D02*
X11638539Y-15538388D01*
X11638539Y-15538388D02*
X11629015Y-15500293D01*
X11629015Y-15500293D02*
X11629015Y-15452674D01*
X11629015Y-15452674D02*
X11638539Y-15414579D01*
X11638539Y-15414579D02*
X11648063Y-15395531D01*
X11648063Y-15395531D02*
X11657586Y-15386008D01*
X11657586Y-15386008D02*
X11676634Y-15376484D01*
X11829015Y-15557436D02*
X11838539Y-15566960D01*
X11838539Y-15566960D02*
X11829015Y-15576484D01*
X11829015Y-15576484D02*
X11819491Y-15566960D01*
X11819491Y-15566960D02*
X11829015Y-15557436D01*
X11829015Y-15557436D02*
X11829015Y-15576484D01*
X12029015Y-15576484D02*
X11914729Y-15576484D01*
X11971872Y-15576484D02*
X11971872Y-15376484D01*
X11971872Y-15376484D02*
X11952825Y-15405055D01*
X11952825Y-15405055D02*
X11933777Y-15424103D01*
X11933777Y-15424103D02*
X11914729Y-15433627D01*
X12105206Y-15395531D02*
X12114729Y-15386008D01*
X12114729Y-15386008D02*
X12133777Y-15376484D01*
X12133777Y-15376484D02*
X12181396Y-15376484D01*
X12181396Y-15376484D02*
X12200444Y-15386008D01*
X12200444Y-15386008D02*
X12209967Y-15395531D01*
X12209967Y-15395531D02*
X12219491Y-15414579D01*
X12219491Y-15414579D02*
X12219491Y-15433627D01*
X12219491Y-15433627D02*
X12209967Y-15462198D01*
X12209967Y-15462198D02*
X12095682Y-15576484D01*
X12095682Y-15576484D02*
X12219491Y-15576484D01*
X12390920Y-15376484D02*
X12352825Y-15376484D01*
X12352825Y-15376484D02*
X12333777Y-15386008D01*
X12333777Y-15386008D02*
X12324253Y-15395531D01*
X12324253Y-15395531D02*
X12305206Y-15424103D01*
X12305206Y-15424103D02*
X12295682Y-15462198D01*
X12295682Y-15462198D02*
X12295682Y-15538388D01*
X12295682Y-15538388D02*
X12305206Y-15557436D01*
X12305206Y-15557436D02*
X12314729Y-15566960D01*
X12314729Y-15566960D02*
X12333777Y-15576484D01*
X12333777Y-15576484D02*
X12371872Y-15576484D01*
X12371872Y-15576484D02*
X12390920Y-15566960D01*
X12390920Y-15566960D02*
X12400444Y-15557436D01*
X12400444Y-15557436D02*
X12409967Y-15538388D01*
X12409967Y-15538388D02*
X12409967Y-15490769D01*
X12409967Y-15490769D02*
X12400444Y-15471722D01*
X12400444Y-15471722D02*
X12390920Y-15462198D01*
X12390920Y-15462198D02*
X12371872Y-15452674D01*
X12371872Y-15452674D02*
X12333777Y-15452674D01*
X12333777Y-15452674D02*
X12314729Y-15462198D01*
X12314729Y-15462198D02*
X12305206Y-15471722D01*
X12305206Y-15471722D02*
X12295682Y-15490769D01*
X12533777Y-15376484D02*
X12552825Y-15376484D01*
X12552825Y-15376484D02*
X12571872Y-15386008D01*
X12571872Y-15386008D02*
X12581396Y-15395531D01*
X12581396Y-15395531D02*
X12590920Y-15414579D01*
X12590920Y-15414579D02*
X12600444Y-15452674D01*
X12600444Y-15452674D02*
X12600444Y-15500293D01*
X12600444Y-15500293D02*
X12590920Y-15538388D01*
X12590920Y-15538388D02*
X12581396Y-15557436D01*
X12581396Y-15557436D02*
X12571872Y-15566960D01*
X12571872Y-15566960D02*
X12552825Y-15576484D01*
X12552825Y-15576484D02*
X12533777Y-15576484D01*
X12533777Y-15576484D02*
X12514729Y-15566960D01*
X12514729Y-15566960D02*
X12505206Y-15557436D01*
X12505206Y-15557436D02*
X12495682Y-15538388D01*
X12495682Y-15538388D02*
X12486158Y-15500293D01*
X12486158Y-15500293D02*
X12486158Y-15452674D01*
X12486158Y-15452674D02*
X12495682Y-15414579D01*
X12495682Y-15414579D02*
X12505206Y-15395531D01*
X12505206Y-15395531D02*
X12514729Y-15386008D01*
X12514729Y-15386008D02*
X12533777Y-15376484D01*
X12676634Y-15376484D02*
X12676634Y-15414579D01*
X12752825Y-15376484D02*
X12752825Y-15414579D01*
X13048063Y-15652674D02*
X13038539Y-15643150D01*
X13038539Y-15643150D02*
X13019491Y-15614579D01*
X13019491Y-15614579D02*
X13009968Y-15595531D01*
X13009968Y-15595531D02*
X13000444Y-15566960D01*
X13000444Y-15566960D02*
X12990920Y-15519341D01*
X12990920Y-15519341D02*
X12990920Y-15481246D01*
X12990920Y-15481246D02*
X13000444Y-15433627D01*
X13000444Y-15433627D02*
X13009968Y-15405055D01*
X13009968Y-15405055D02*
X13019491Y-15386008D01*
X13019491Y-15386008D02*
X13038539Y-15357436D01*
X13038539Y-15357436D02*
X13048063Y-15347912D01*
X13209968Y-15443150D02*
X13209968Y-15576484D01*
X13162348Y-15366960D02*
X13114729Y-15509817D01*
X13114729Y-15509817D02*
X13238539Y-15509817D01*
X13467110Y-15576484D02*
X13467110Y-15376484D01*
X13552825Y-15576484D02*
X13552825Y-15471722D01*
X13552825Y-15471722D02*
X13543301Y-15452674D01*
X13543301Y-15452674D02*
X13524253Y-15443150D01*
X13524253Y-15443150D02*
X13495682Y-15443150D01*
X13495682Y-15443150D02*
X13476634Y-15452674D01*
X13476634Y-15452674D02*
X13467110Y-15462198D01*
X13676634Y-15576484D02*
X13657587Y-15566960D01*
X13657587Y-15566960D02*
X13648063Y-15557436D01*
X13648063Y-15557436D02*
X13638539Y-15538388D01*
X13638539Y-15538388D02*
X13638539Y-15481246D01*
X13638539Y-15481246D02*
X13648063Y-15462198D01*
X13648063Y-15462198D02*
X13657587Y-15452674D01*
X13657587Y-15452674D02*
X13676634Y-15443150D01*
X13676634Y-15443150D02*
X13705206Y-15443150D01*
X13705206Y-15443150D02*
X13724253Y-15452674D01*
X13724253Y-15452674D02*
X13733777Y-15462198D01*
X13733777Y-15462198D02*
X13743301Y-15481246D01*
X13743301Y-15481246D02*
X13743301Y-15538388D01*
X13743301Y-15538388D02*
X13733777Y-15557436D01*
X13733777Y-15557436D02*
X13724253Y-15566960D01*
X13724253Y-15566960D02*
X13705206Y-15576484D01*
X13705206Y-15576484D02*
X13676634Y-15576484D01*
X13857587Y-15576484D02*
X13838539Y-15566960D01*
X13838539Y-15566960D02*
X13829015Y-15547912D01*
X13829015Y-15547912D02*
X13829015Y-15376484D01*
X14009968Y-15566960D02*
X13990920Y-15576484D01*
X13990920Y-15576484D02*
X13952825Y-15576484D01*
X13952825Y-15576484D02*
X13933777Y-15566960D01*
X13933777Y-15566960D02*
X13924253Y-15547912D01*
X13924253Y-15547912D02*
X13924253Y-15471722D01*
X13924253Y-15471722D02*
X13933777Y-15452674D01*
X13933777Y-15452674D02*
X13952825Y-15443150D01*
X13952825Y-15443150D02*
X13990920Y-15443150D01*
X13990920Y-15443150D02*
X14009968Y-15452674D01*
X14009968Y-15452674D02*
X14019491Y-15471722D01*
X14019491Y-15471722D02*
X14019491Y-15490769D01*
X14019491Y-15490769D02*
X13924253Y-15509817D01*
X14095682Y-15566960D02*
X14114730Y-15576484D01*
X14114730Y-15576484D02*
X14152825Y-15576484D01*
X14152825Y-15576484D02*
X14171872Y-15566960D01*
X14171872Y-15566960D02*
X14181396Y-15547912D01*
X14181396Y-15547912D02*
X14181396Y-15538388D01*
X14181396Y-15538388D02*
X14171872Y-15519341D01*
X14171872Y-15519341D02*
X14152825Y-15509817D01*
X14152825Y-15509817D02*
X14124253Y-15509817D01*
X14124253Y-15509817D02*
X14105206Y-15500293D01*
X14105206Y-15500293D02*
X14095682Y-15481246D01*
X14095682Y-15481246D02*
X14095682Y-15471722D01*
X14095682Y-15471722D02*
X14105206Y-15452674D01*
X14105206Y-15452674D02*
X14124253Y-15443150D01*
X14124253Y-15443150D02*
X14152825Y-15443150D01*
X14152825Y-15443150D02*
X14171872Y-15452674D01*
X14248063Y-15652674D02*
X14257587Y-15643150D01*
X14257587Y-15643150D02*
X14276634Y-15614579D01*
X14276634Y-15614579D02*
X14286158Y-15595531D01*
X14286158Y-15595531D02*
X14295682Y-15566960D01*
X14295682Y-15566960D02*
X14305206Y-15519341D01*
X14305206Y-15519341D02*
X14305206Y-15481246D01*
X14305206Y-15481246D02*
X14295682Y-15433627D01*
X14295682Y-15433627D02*
X14286158Y-15405055D01*
X14286158Y-15405055D02*
X14276634Y-15386008D01*
X14276634Y-15386008D02*
X14257587Y-15357436D01*
X14257587Y-15357436D02*
X14248063Y-15347912D01*
X14609968Y-15652674D02*
X14600444Y-15643150D01*
X14600444Y-15643150D02*
X14581396Y-15614579D01*
X14581396Y-15614579D02*
X14571872Y-15595531D01*
X14571872Y-15595531D02*
X14562349Y-15566960D01*
X14562349Y-15566960D02*
X14552825Y-15519341D01*
X14552825Y-15519341D02*
X14552825Y-15481246D01*
X14552825Y-15481246D02*
X14562349Y-15433627D01*
X14562349Y-15433627D02*
X14571872Y-15405055D01*
X14571872Y-15405055D02*
X14581396Y-15386008D01*
X14581396Y-15386008D02*
X14600444Y-15357436D01*
X14600444Y-15357436D02*
X14609968Y-15347912D01*
X14686158Y-15443150D02*
X14686158Y-15576484D01*
X14686158Y-15462198D02*
X14695682Y-15452674D01*
X14695682Y-15452674D02*
X14714730Y-15443150D01*
X14714730Y-15443150D02*
X14743301Y-15443150D01*
X14743301Y-15443150D02*
X14762349Y-15452674D01*
X14762349Y-15452674D02*
X14771872Y-15471722D01*
X14771872Y-15471722D02*
X14771872Y-15576484D01*
X14895682Y-15576484D02*
X14876634Y-15566960D01*
X14876634Y-15566960D02*
X14867111Y-15557436D01*
X14867111Y-15557436D02*
X14857587Y-15538388D01*
X14857587Y-15538388D02*
X14857587Y-15481246D01*
X14857587Y-15481246D02*
X14867111Y-15462198D01*
X14867111Y-15462198D02*
X14876634Y-15452674D01*
X14876634Y-15452674D02*
X14895682Y-15443150D01*
X14895682Y-15443150D02*
X14924253Y-15443150D01*
X14924253Y-15443150D02*
X14943301Y-15452674D01*
X14943301Y-15452674D02*
X14952825Y-15462198D01*
X14952825Y-15462198D02*
X14962349Y-15481246D01*
X14962349Y-15481246D02*
X14962349Y-15538388D01*
X14962349Y-15538388D02*
X14952825Y-15557436D01*
X14952825Y-15557436D02*
X14943301Y-15566960D01*
X14943301Y-15566960D02*
X14924253Y-15576484D01*
X14924253Y-15576484D02*
X14895682Y-15576484D01*
X15019492Y-15443150D02*
X15095682Y-15443150D01*
X15048063Y-15376484D02*
X15048063Y-15547912D01*
X15048063Y-15547912D02*
X15057587Y-15566960D01*
X15057587Y-15566960D02*
X15076634Y-15576484D01*
X15076634Y-15576484D02*
X15095682Y-15576484D01*
X15314730Y-15443150D02*
X15314730Y-15643150D01*
X15314730Y-15452674D02*
X15333777Y-15443150D01*
X15333777Y-15443150D02*
X15371873Y-15443150D01*
X15371873Y-15443150D02*
X15390920Y-15452674D01*
X15390920Y-15452674D02*
X15400444Y-15462198D01*
X15400444Y-15462198D02*
X15409968Y-15481246D01*
X15409968Y-15481246D02*
X15409968Y-15538388D01*
X15409968Y-15538388D02*
X15400444Y-15557436D01*
X15400444Y-15557436D02*
X15390920Y-15566960D01*
X15390920Y-15566960D02*
X15371873Y-15576484D01*
X15371873Y-15576484D02*
X15333777Y-15576484D01*
X15333777Y-15576484D02*
X15314730Y-15566960D01*
X15524253Y-15576484D02*
X15505206Y-15566960D01*
X15505206Y-15566960D02*
X15495682Y-15547912D01*
X15495682Y-15547912D02*
X15495682Y-15376484D01*
X15686158Y-15576484D02*
X15686158Y-15471722D01*
X15686158Y-15471722D02*
X15676634Y-15452674D01*
X15676634Y-15452674D02*
X15657587Y-15443150D01*
X15657587Y-15443150D02*
X15619492Y-15443150D01*
X15619492Y-15443150D02*
X15600444Y-15452674D01*
X15686158Y-15566960D02*
X15667111Y-15576484D01*
X15667111Y-15576484D02*
X15619492Y-15576484D01*
X15619492Y-15576484D02*
X15600444Y-15566960D01*
X15600444Y-15566960D02*
X15590920Y-15547912D01*
X15590920Y-15547912D02*
X15590920Y-15528865D01*
X15590920Y-15528865D02*
X15600444Y-15509817D01*
X15600444Y-15509817D02*
X15619492Y-15500293D01*
X15619492Y-15500293D02*
X15667111Y-15500293D01*
X15667111Y-15500293D02*
X15686158Y-15490769D01*
X15752825Y-15443150D02*
X15829015Y-15443150D01*
X15781396Y-15376484D02*
X15781396Y-15547912D01*
X15781396Y-15547912D02*
X15790920Y-15566960D01*
X15790920Y-15566960D02*
X15809968Y-15576484D01*
X15809968Y-15576484D02*
X15829015Y-15576484D01*
X15971873Y-15566960D02*
X15952825Y-15576484D01*
X15952825Y-15576484D02*
X15914730Y-15576484D01*
X15914730Y-15576484D02*
X15895682Y-15566960D01*
X15895682Y-15566960D02*
X15886158Y-15547912D01*
X15886158Y-15547912D02*
X15886158Y-15471722D01*
X15886158Y-15471722D02*
X15895682Y-15452674D01*
X15895682Y-15452674D02*
X15914730Y-15443150D01*
X15914730Y-15443150D02*
X15952825Y-15443150D01*
X15952825Y-15443150D02*
X15971873Y-15452674D01*
X15971873Y-15452674D02*
X15981396Y-15471722D01*
X15981396Y-15471722D02*
X15981396Y-15490769D01*
X15981396Y-15490769D02*
X15886158Y-15509817D01*
X16152825Y-15576484D02*
X16152825Y-15376484D01*
X16152825Y-15566960D02*
X16133777Y-15576484D01*
X16133777Y-15576484D02*
X16095682Y-15576484D01*
X16095682Y-15576484D02*
X16076634Y-15566960D01*
X16076634Y-15566960D02*
X16067111Y-15557436D01*
X16067111Y-15557436D02*
X16057587Y-15538388D01*
X16057587Y-15538388D02*
X16057587Y-15481246D01*
X16057587Y-15481246D02*
X16067111Y-15462198D01*
X16067111Y-15462198D02*
X16076634Y-15452674D01*
X16076634Y-15452674D02*
X16095682Y-15443150D01*
X16095682Y-15443150D02*
X16133777Y-15443150D01*
X16133777Y-15443150D02*
X16152825Y-15452674D01*
X16229015Y-15652674D02*
X16238539Y-15643150D01*
X16238539Y-15643150D02*
X16257587Y-15614579D01*
X16257587Y-15614579D02*
X16267111Y-15595531D01*
X16267111Y-15595531D02*
X16276634Y-15566960D01*
X16276634Y-15566960D02*
X16286158Y-15519341D01*
X16286158Y-15519341D02*
X16286158Y-15481246D01*
X16286158Y-15481246D02*
X16276634Y-15433627D01*
X16276634Y-15433627D02*
X16267111Y-15405055D01*
X16267111Y-15405055D02*
X16257587Y-15386008D01*
X16257587Y-15386008D02*
X16238539Y-15357436D01*
X16238539Y-15357436D02*
X16229015Y-15347912D01*
M02*
