%TF.GenerationSoftware,KiCad,Pcbnew,7.0.5*%
%TF.CreationDate,2023-08-03T15:07:47+02:00*%
%TF.ProjectId,Siguelineas,53696775-656c-4696-9e65-61732e6b6963,rev?*%
%TF.SameCoordinates,Original*%
%TF.FileFunction,Drillmap*%
%TF.FilePolarity,Positive*%
%FSLAX45Y45*%
G04 Gerber Fmt 4.5, Leading zero omitted, Abs format (unit mm)*
G04 Created by KiCad (PCBNEW 7.0.5) date 2023-08-03 15:07:47*
%MOMM*%
%LPD*%
G01*
G04 APERTURE LIST*
%ADD10C,0.100000*%
%ADD11C,0.200000*%
%ADD12C,0.040000*%
%ADD13C,0.075000*%
%ADD14C,0.076200*%
%ADD15C,0.090000*%
%ADD16C,0.102000*%
%ADD17C,0.110000*%
%ADD18C,0.150000*%
%ADD19C,0.220000*%
%ADD20C,0.270000*%
%ADD21C,0.320000*%
G04 APERTURE END LIST*
D10*
X9478000Y-4224000D02*
X19400000Y-4224000D01*
X19400000Y-14200000D01*
X9478000Y-14200000D01*
X9478000Y-4224000D01*
X15775940Y-10208260D02*
G75*
G03*
X15775940Y-10208260I-1348491J0D01*
G01*
D11*
D12*
X10541320Y-13706160D02*
X10581320Y-13746160D01*
X10581320Y-13706160D02*
X10541320Y-13746160D01*
X10673400Y-7401880D02*
X10713400Y-7441880D01*
X10713400Y-7401880D02*
X10673400Y-7441880D01*
X10922320Y-8580440D02*
X10962320Y-8620440D01*
X10962320Y-8580440D02*
X10922320Y-8620440D01*
X11399840Y-8204520D02*
X11439840Y-8244520D01*
X11439840Y-8204520D02*
X11399840Y-8244520D01*
X11608120Y-8260400D02*
X11648120Y-8300400D01*
X11648120Y-8260400D02*
X11608120Y-8300400D01*
X11608120Y-8570280D02*
X11648120Y-8610280D01*
X11648120Y-8570280D02*
X11608120Y-8610280D01*
X11704640Y-9230680D02*
X11744640Y-9270680D01*
X11744640Y-9230680D02*
X11704640Y-9270680D01*
X12456480Y-11537000D02*
X12496480Y-11577000D01*
X12496480Y-11537000D02*
X12456480Y-11577000D01*
X12593640Y-11455720D02*
X12633640Y-11495720D01*
X12633640Y-11455720D02*
X12593640Y-11495720D01*
X12928920Y-13619800D02*
X12968920Y-13659800D01*
X12968920Y-13619800D02*
X12928920Y-13659800D01*
X13650280Y-6665280D02*
X13690280Y-6705280D01*
X13690280Y-6665280D02*
X13650280Y-6705280D01*
X13762040Y-13269280D02*
X13802040Y-13309280D01*
X13802040Y-13269280D02*
X13762040Y-13309280D01*
X14386880Y-7244400D02*
X14426880Y-7284400D01*
X14426880Y-7244400D02*
X14386880Y-7284400D01*
X14541820Y-12733340D02*
X14581820Y-12773340D01*
X14581820Y-12733340D02*
X14541820Y-12773340D01*
X14780580Y-12629200D02*
X14820580Y-12669200D01*
X14820580Y-12629200D02*
X14780580Y-12669200D01*
X15093000Y-11628440D02*
X15133000Y-11668440D01*
X15133000Y-11628440D02*
X15093000Y-11668440D01*
X15280960Y-7161910D02*
X15320960Y-7201910D01*
X15320960Y-7161910D02*
X15280960Y-7201910D01*
X15347000Y-6020120D02*
X15387000Y-6060120D01*
X15387000Y-6020120D02*
X15347000Y-6060120D01*
X15529880Y-7310440D02*
X15569880Y-7350440D01*
X15569880Y-7310440D02*
X15529880Y-7350440D01*
X15613700Y-8628700D02*
X15653700Y-8668700D01*
X15653700Y-8628700D02*
X15613700Y-8668700D01*
X15923580Y-8621080D02*
X15963580Y-8661080D01*
X15963580Y-8621080D02*
X15923580Y-8661080D01*
X16015020Y-7808280D02*
X16055020Y-7848280D01*
X16055020Y-7808280D02*
X16015020Y-7848280D01*
X16921800Y-5568000D02*
X16961800Y-5608000D01*
X16961800Y-5568000D02*
X16921800Y-5608000D01*
X17587280Y-6886260D02*
X17627280Y-6926260D01*
X17627280Y-6886260D02*
X17587280Y-6926260D01*
D13*
X11450380Y-9636760D02*
G75*
G03*
X11450380Y-9636760I-37500J0D01*
G01*
X11650380Y-9636760D02*
G75*
G03*
X11650380Y-9636760I-37500J0D01*
G01*
X17466980Y-9804400D02*
G75*
G03*
X17466980Y-9804400I-37500J0D01*
G01*
X17666980Y-9804400D02*
G75*
G03*
X17666980Y-9804400I-37500J0D01*
G01*
D14*
X9646920Y-12977060D02*
X9646920Y-13053260D01*
X9608820Y-13015160D02*
X9685020Y-13015160D01*
X9646920Y-13891060D02*
X9646920Y-13967260D01*
X9608820Y-13929160D02*
X9685020Y-13929160D01*
X11170920Y-12977060D02*
X11170920Y-13053260D01*
X11132820Y-13015160D02*
X11209020Y-13015160D01*
X11170920Y-13891060D02*
X11170920Y-13967260D01*
X11132820Y-13929160D02*
X11209020Y-13929160D01*
D15*
X16980420Y-13999280D02*
X16980420Y-13935640D01*
X16916780Y-13935640D01*
X16916780Y-13999280D01*
X16980420Y-13999280D01*
X17180420Y-13999280D02*
X17180420Y-13935640D01*
X17116780Y-13935640D01*
X17116780Y-13999280D01*
X17180420Y-13999280D01*
X17380420Y-13999280D02*
X17380420Y-13935640D01*
X17316780Y-13935640D01*
X17316780Y-13999280D01*
X17380420Y-13999280D01*
D10*
X9954260Y-9079700D02*
X10004260Y-9029700D01*
X9954260Y-8979700D01*
X9904260Y-9029700D01*
X9954260Y-9079700D01*
X10010100Y-6060100D02*
X10060100Y-6010100D01*
X10010100Y-5960100D01*
X9960100Y-6010100D01*
X10010100Y-6060100D01*
X10010100Y-6314100D02*
X10060100Y-6264100D01*
X10010100Y-6214100D01*
X9960100Y-6264100D01*
X10010100Y-6314100D01*
X10010100Y-6568100D02*
X10060100Y-6518100D01*
X10010100Y-6468100D01*
X9960100Y-6518100D01*
X10010100Y-6568100D01*
X10010100Y-6822100D02*
X10060100Y-6772100D01*
X10010100Y-6722100D01*
X9960100Y-6772100D01*
X10010100Y-6822100D01*
X10010100Y-7076100D02*
X10060100Y-7026100D01*
X10010100Y-6976100D01*
X9960100Y-7026100D01*
X10010100Y-7076100D01*
X10010100Y-7330100D02*
X10060100Y-7280100D01*
X10010100Y-7230100D01*
X9960100Y-7280100D01*
X10010100Y-7330100D01*
X10010100Y-7584100D02*
X10060100Y-7534100D01*
X10010100Y-7484100D01*
X9960100Y-7534100D01*
X10010100Y-7584100D01*
X10010100Y-7838100D02*
X10060100Y-7788100D01*
X10010100Y-7738100D01*
X9960100Y-7788100D01*
X10010100Y-7838100D01*
X10010100Y-8092100D02*
X10060100Y-8042100D01*
X10010100Y-7992100D01*
X9960100Y-8042100D01*
X10010100Y-8092100D01*
X10010100Y-8346100D02*
X10060100Y-8296100D01*
X10010100Y-8246100D01*
X9960100Y-8296100D01*
X10010100Y-8346100D01*
X10208260Y-9079700D02*
X10258260Y-9029700D01*
X10208260Y-8979700D01*
X10158260Y-9029700D01*
X10208260Y-9079700D01*
X12654280Y-9082240D02*
X12704280Y-9032240D01*
X12654280Y-8982240D01*
X12604280Y-9032240D01*
X12654280Y-9082240D01*
X12654280Y-9336240D02*
X12704280Y-9286240D01*
X12654280Y-9236240D01*
X12604280Y-9286240D01*
X12654280Y-9336240D01*
X12654280Y-9590240D02*
X12704280Y-9540240D01*
X12654280Y-9490240D01*
X12604280Y-9540240D01*
X12654280Y-9590240D01*
X12654280Y-9844240D02*
X12704280Y-9794240D01*
X12654280Y-9744240D01*
X12604280Y-9794240D01*
X12654280Y-9844240D01*
X12654280Y-10098240D02*
X12704280Y-10048240D01*
X12654280Y-9998240D01*
X12604280Y-10048240D01*
X12654280Y-10098240D01*
X12654280Y-10352240D02*
X12704280Y-10302240D01*
X12654280Y-10252240D01*
X12604280Y-10302240D01*
X12654280Y-10352240D01*
X14041120Y-14083500D02*
X14091120Y-14033500D01*
X14041120Y-13983500D01*
X13991120Y-14033500D01*
X14041120Y-14083500D01*
X14295120Y-14083500D02*
X14345120Y-14033500D01*
X14295120Y-13983500D01*
X14245120Y-14033500D01*
X14295120Y-14083500D01*
X14549120Y-14083500D02*
X14599120Y-14033500D01*
X14549120Y-13983500D01*
X14499120Y-14033500D01*
X14549120Y-14083500D01*
X14803120Y-14083500D02*
X14853120Y-14033500D01*
X14803120Y-13983500D01*
X14753120Y-14033500D01*
X14803120Y-14083500D01*
X16461740Y-9133040D02*
X16511740Y-9083040D01*
X16461740Y-9033040D01*
X16411740Y-9083040D01*
X16461740Y-9133040D01*
X16461740Y-9387040D02*
X16511740Y-9337040D01*
X16461740Y-9287040D01*
X16411740Y-9337040D01*
X16461740Y-9387040D01*
X17297400Y-9143200D02*
X17347400Y-9093200D01*
X17297400Y-9043200D01*
X17247400Y-9093200D01*
X17297400Y-9143200D01*
X17299940Y-7489660D02*
X17349940Y-7439660D01*
X17299940Y-7389660D01*
X17249940Y-7439660D01*
X17299940Y-7489660D01*
X17551400Y-9143200D02*
X17601400Y-9093200D01*
X17551400Y-9043200D01*
X17501400Y-9093200D01*
X17551400Y-9143200D01*
X17553940Y-7489660D02*
X17603940Y-7439660D01*
X17553940Y-7389660D01*
X17503940Y-7439660D01*
X17553940Y-7489660D01*
X17805400Y-9143200D02*
X17855400Y-9093200D01*
X17805400Y-9043200D01*
X17755400Y-9093200D01*
X17805400Y-9143200D01*
X17807940Y-7489660D02*
X17857940Y-7439660D01*
X17807940Y-7389660D01*
X17757940Y-7439660D01*
X17807940Y-7489660D01*
X18059400Y-9143200D02*
X18109400Y-9093200D01*
X18059400Y-9043200D01*
X18009400Y-9093200D01*
X18059400Y-9143200D01*
X18061940Y-7489660D02*
X18111940Y-7439660D01*
X18061940Y-7389660D01*
X18011940Y-7439660D01*
X18061940Y-7489660D01*
X18313400Y-9143200D02*
X18363400Y-9093200D01*
X18313400Y-9043200D01*
X18263400Y-9093200D01*
X18313400Y-9143200D01*
X18315940Y-7489660D02*
X18365940Y-7439660D01*
X18315940Y-7389660D01*
X18265940Y-7439660D01*
X18315940Y-7489660D01*
X18567400Y-9143200D02*
X18617400Y-9093200D01*
X18567400Y-9043200D01*
X18517400Y-9093200D01*
X18567400Y-9143200D01*
X18569940Y-7489660D02*
X18619940Y-7439660D01*
X18569940Y-7389660D01*
X18519940Y-7439660D01*
X18569940Y-7489660D01*
X18821400Y-9143200D02*
X18871400Y-9093200D01*
X18821400Y-9043200D01*
X18771400Y-9093200D01*
X18821400Y-9143200D01*
X18823940Y-7489660D02*
X18873940Y-7439660D01*
X18823940Y-7389660D01*
X18773940Y-7439660D01*
X18823940Y-7489660D01*
X19075400Y-9143200D02*
X19125400Y-9093200D01*
X19075400Y-9043200D01*
X19025400Y-9093200D01*
X19075400Y-9143200D01*
X19077940Y-7489660D02*
X19127940Y-7439660D01*
X19077940Y-7389660D01*
X19027940Y-7439660D01*
X19077940Y-7489660D01*
D16*
X12692080Y-5726320D02*
X12794080Y-5828320D01*
X12794080Y-5726320D02*
X12692080Y-5828320D01*
X12794080Y-5777320D02*
G75*
G03*
X12794080Y-5777320I-51000J0D01*
G01*
X12692080Y-8266320D02*
X12794080Y-8368320D01*
X12794080Y-8266320D02*
X12692080Y-8368320D01*
X12794080Y-8317320D02*
G75*
G03*
X12794080Y-8317320I-51000J0D01*
G01*
X12946080Y-5726320D02*
X13048080Y-5828320D01*
X13048080Y-5726320D02*
X12946080Y-5828320D01*
X13048080Y-5777320D02*
G75*
G03*
X13048080Y-5777320I-51000J0D01*
G01*
X12946080Y-8266320D02*
X13048080Y-8368320D01*
X13048080Y-8266320D02*
X12946080Y-8368320D01*
X13048080Y-8317320D02*
G75*
G03*
X13048080Y-8317320I-51000J0D01*
G01*
X13200080Y-5726320D02*
X13302080Y-5828320D01*
X13302080Y-5726320D02*
X13200080Y-5828320D01*
X13302080Y-5777320D02*
G75*
G03*
X13302080Y-5777320I-51000J0D01*
G01*
X13200080Y-8266320D02*
X13302080Y-8368320D01*
X13302080Y-8266320D02*
X13200080Y-8368320D01*
X13302080Y-8317320D02*
G75*
G03*
X13302080Y-8317320I-51000J0D01*
G01*
X13454080Y-5726320D02*
X13556080Y-5828320D01*
X13556080Y-5726320D02*
X13454080Y-5828320D01*
X13556080Y-5777320D02*
G75*
G03*
X13556080Y-5777320I-51000J0D01*
G01*
X13454080Y-8266320D02*
X13556080Y-8368320D01*
X13556080Y-8266320D02*
X13454080Y-8368320D01*
X13556080Y-8317320D02*
G75*
G03*
X13556080Y-8317320I-51000J0D01*
G01*
X13708080Y-5726320D02*
X13810080Y-5828320D01*
X13810080Y-5726320D02*
X13708080Y-5828320D01*
X13810080Y-5777320D02*
G75*
G03*
X13810080Y-5777320I-51000J0D01*
G01*
X13708080Y-8266320D02*
X13810080Y-8368320D01*
X13810080Y-8266320D02*
X13708080Y-8368320D01*
X13810080Y-8317320D02*
G75*
G03*
X13810080Y-8317320I-51000J0D01*
G01*
X13962080Y-5726320D02*
X14064080Y-5828320D01*
X14064080Y-5726320D02*
X13962080Y-5828320D01*
X14064080Y-5777320D02*
G75*
G03*
X14064080Y-5777320I-51000J0D01*
G01*
X13962080Y-8266320D02*
X14064080Y-8368320D01*
X14064080Y-8266320D02*
X13962080Y-8368320D01*
X14064080Y-8317320D02*
G75*
G03*
X14064080Y-8317320I-51000J0D01*
G01*
X14216080Y-5726320D02*
X14318080Y-5828320D01*
X14318080Y-5726320D02*
X14216080Y-5828320D01*
X14318080Y-5777320D02*
G75*
G03*
X14318080Y-5777320I-51000J0D01*
G01*
X14216080Y-8266320D02*
X14318080Y-8368320D01*
X14318080Y-8266320D02*
X14216080Y-8368320D01*
X14318080Y-8317320D02*
G75*
G03*
X14318080Y-8317320I-51000J0D01*
G01*
X14470080Y-5726320D02*
X14572080Y-5828320D01*
X14572080Y-5726320D02*
X14470080Y-5828320D01*
X14572080Y-5777320D02*
G75*
G03*
X14572080Y-5777320I-51000J0D01*
G01*
X14470080Y-8266320D02*
X14572080Y-8368320D01*
X14572080Y-8266320D02*
X14470080Y-8368320D01*
X14572080Y-8317320D02*
G75*
G03*
X14572080Y-8317320I-51000J0D01*
G01*
X14724080Y-5726320D02*
X14826080Y-5828320D01*
X14826080Y-5726320D02*
X14724080Y-5828320D01*
X14826080Y-5777320D02*
G75*
G03*
X14826080Y-5777320I-51000J0D01*
G01*
X14724080Y-8266320D02*
X14826080Y-8368320D01*
X14826080Y-8266320D02*
X14724080Y-8368320D01*
X14826080Y-8317320D02*
G75*
G03*
X14826080Y-8317320I-51000J0D01*
G01*
X14978080Y-5726320D02*
X15080080Y-5828320D01*
X15080080Y-5726320D02*
X14978080Y-5828320D01*
X15080080Y-5777320D02*
G75*
G03*
X15080080Y-5777320I-51000J0D01*
G01*
X14978080Y-8266320D02*
X15080080Y-8368320D01*
X15080080Y-8266320D02*
X14978080Y-8368320D01*
X15080080Y-8317320D02*
G75*
G03*
X15080080Y-8317320I-51000J0D01*
G01*
X15232080Y-5726320D02*
X15334080Y-5828320D01*
X15334080Y-5726320D02*
X15232080Y-5828320D01*
X15334080Y-5777320D02*
G75*
G03*
X15334080Y-5777320I-51000J0D01*
G01*
X15232080Y-8266320D02*
X15334080Y-8368320D01*
X15334080Y-8266320D02*
X15232080Y-8368320D01*
X15334080Y-8317320D02*
G75*
G03*
X15334080Y-8317320I-51000J0D01*
G01*
X15486080Y-5726320D02*
X15588080Y-5828320D01*
X15588080Y-5726320D02*
X15486080Y-5828320D01*
X15588080Y-5777320D02*
G75*
G03*
X15588080Y-5777320I-51000J0D01*
G01*
X15486080Y-8266320D02*
X15588080Y-8368320D01*
X15588080Y-8266320D02*
X15486080Y-8368320D01*
X15588080Y-8317320D02*
G75*
G03*
X15588080Y-8317320I-51000J0D01*
G01*
X15740080Y-5726320D02*
X15842080Y-5828320D01*
X15842080Y-5726320D02*
X15740080Y-5828320D01*
X15842080Y-5777320D02*
G75*
G03*
X15842080Y-5777320I-51000J0D01*
G01*
X15740080Y-8266320D02*
X15842080Y-8368320D01*
X15842080Y-8266320D02*
X15740080Y-8368320D01*
X15842080Y-8317320D02*
G75*
G03*
X15842080Y-8317320I-51000J0D01*
G01*
X15994080Y-5726320D02*
X16096080Y-5828320D01*
X16096080Y-5726320D02*
X15994080Y-5828320D01*
X16096080Y-5777320D02*
G75*
G03*
X16096080Y-5777320I-51000J0D01*
G01*
X15994080Y-8266320D02*
X16096080Y-8368320D01*
X16096080Y-8266320D02*
X15994080Y-8368320D01*
X16096080Y-8317320D02*
G75*
G03*
X16096080Y-8317320I-51000J0D01*
G01*
X16248080Y-5726320D02*
X16350080Y-5828320D01*
X16350080Y-5726320D02*
X16248080Y-5828320D01*
X16350080Y-5777320D02*
G75*
G03*
X16350080Y-5777320I-51000J0D01*
G01*
X16248080Y-8266320D02*
X16350080Y-8368320D01*
X16350080Y-8266320D02*
X16248080Y-8368320D01*
X16350080Y-8317320D02*
G75*
G03*
X16350080Y-8317320I-51000J0D01*
G01*
D17*
X17278080Y-6026820D02*
X17388080Y-6136820D01*
X17388080Y-6026820D02*
X17278080Y-6136820D01*
X17333080Y-6026820D02*
X17333080Y-6136820D01*
X17278080Y-6081820D02*
X17388080Y-6081820D01*
X17278080Y-6476820D02*
X17388080Y-6586820D01*
X17388080Y-6476820D02*
X17278080Y-6586820D01*
X17333080Y-6476820D02*
X17333080Y-6586820D01*
X17278080Y-6531820D02*
X17388080Y-6531820D01*
X17928080Y-6026820D02*
X18038080Y-6136820D01*
X18038080Y-6026820D02*
X17928080Y-6136820D01*
X17983080Y-6026820D02*
X17983080Y-6136820D01*
X17928080Y-6081820D02*
X18038080Y-6081820D01*
X17928080Y-6476820D02*
X18038080Y-6586820D01*
X18038080Y-6476820D02*
X17928080Y-6586820D01*
X17983080Y-6476820D02*
X17983080Y-6586820D01*
X17928080Y-6531820D02*
X18038080Y-6531820D01*
X18388060Y-6029360D02*
X18498060Y-6139360D01*
X18498060Y-6029360D02*
X18388060Y-6139360D01*
X18443060Y-6029360D02*
X18443060Y-6139360D01*
X18388060Y-6084360D02*
X18498060Y-6084360D01*
X18388060Y-6479360D02*
X18498060Y-6589360D01*
X18498060Y-6479360D02*
X18388060Y-6589360D01*
X18443060Y-6479360D02*
X18443060Y-6589360D01*
X18388060Y-6534360D02*
X18498060Y-6534360D01*
X19038060Y-6029360D02*
X19148060Y-6139360D01*
X19148060Y-6029360D02*
X19038060Y-6139360D01*
X19093060Y-6029360D02*
X19093060Y-6139360D01*
X19038060Y-6084360D02*
X19148060Y-6084360D01*
X19038060Y-6479360D02*
X19148060Y-6589360D01*
X19148060Y-6479360D02*
X19038060Y-6589360D01*
X19093060Y-6479360D02*
X19093060Y-6589360D01*
X19038060Y-6534360D02*
X19148060Y-6534360D01*
D18*
X16663600Y-13892460D02*
X16813600Y-14042460D01*
X16813600Y-13892460D02*
X16663600Y-14042460D01*
X16791634Y-14020493D02*
X16791634Y-13914426D01*
X16685566Y-13914426D01*
X16685566Y-14020493D01*
X16791634Y-14020493D01*
X17483600Y-13892460D02*
X17633600Y-14042460D01*
X17633600Y-13892460D02*
X17483600Y-14042460D01*
X17611634Y-14020493D02*
X17611634Y-13914426D01*
X17505567Y-13914426D01*
X17505567Y-14020493D01*
X17611634Y-14020493D01*
D19*
X9811240Y-10077940D02*
X10031240Y-10297940D01*
X10031240Y-10077940D02*
X9811240Y-10297940D01*
X9921240Y-10297940D02*
X10031240Y-10187940D01*
X9921240Y-10077940D01*
X9811240Y-10187940D01*
X9921240Y-10297940D01*
X9813780Y-11901660D02*
X10033780Y-12121660D01*
X10033780Y-11901660D02*
X9813780Y-12121660D01*
X9923780Y-12121660D02*
X10033780Y-12011660D01*
X9923780Y-11901660D01*
X9813780Y-12011660D01*
X9923780Y-12121660D01*
X18856180Y-10077940D02*
X19076180Y-10297940D01*
X19076180Y-10077940D02*
X18856180Y-10297940D01*
X18966180Y-10297940D02*
X19076180Y-10187940D01*
X18966180Y-10077940D01*
X18856180Y-10187940D01*
X18966180Y-10297940D01*
X18858720Y-11901660D02*
X19078720Y-12121660D01*
X19078720Y-11901660D02*
X18858720Y-12121660D01*
X18968720Y-12121660D02*
X19078720Y-12011660D01*
X18968720Y-11901660D01*
X18858720Y-12011660D01*
X18968720Y-12121660D01*
D20*
X19004280Y-13020040D02*
X19004280Y-13290040D01*
X18869280Y-13155040D02*
X19139280Y-13155040D01*
X19139280Y-13155040D02*
G75*
G03*
X19139280Y-13155040I-135000J0D01*
G01*
X19004280Y-13520040D02*
X19004280Y-13790040D01*
X18869280Y-13655040D02*
X19139280Y-13655040D01*
X19139280Y-13655040D02*
G75*
G03*
X19139280Y-13655040I-135000J0D01*
G01*
D21*
X10044538Y-4710538D02*
X10044538Y-4484262D01*
X9818262Y-4484262D01*
X9818262Y-4710538D01*
X10044538Y-4710538D01*
X10091400Y-4597400D02*
G75*
G03*
X10091400Y-4597400I-160000J0D01*
G01*
X10044538Y-5396338D02*
X10044538Y-5170062D01*
X9818262Y-5170062D01*
X9818262Y-5396338D01*
X10044538Y-5396338D01*
X10091400Y-5283200D02*
G75*
G03*
X10091400Y-5283200I-160000J0D01*
G01*
X11543138Y-4888338D02*
X11543138Y-4662062D01*
X11316862Y-4662062D01*
X11316862Y-4888338D01*
X11543138Y-4888338D01*
X11590000Y-4775200D02*
G75*
G03*
X11590000Y-4775200I-160000J0D01*
G01*
X13067138Y-4883258D02*
X13067138Y-4656982D01*
X12840862Y-4656982D01*
X12840862Y-4883258D01*
X13067138Y-4883258D01*
X13114000Y-4770120D02*
G75*
G03*
X13114000Y-4770120I-160000J0D01*
G01*
X16064338Y-4883258D02*
X16064338Y-4656982D01*
X15838062Y-4656982D01*
X15838062Y-4883258D01*
X16064338Y-4883258D01*
X16111200Y-4770120D02*
G75*
G03*
X16111200Y-4770120I-160000J0D01*
G01*
X17562938Y-4888338D02*
X17562938Y-4662062D01*
X17336662Y-4662062D01*
X17336662Y-4888338D01*
X17562938Y-4888338D01*
X17609800Y-4775200D02*
G75*
G03*
X17609800Y-4775200I-160000J0D01*
G01*
X19036138Y-4710538D02*
X19036138Y-4484262D01*
X18809862Y-4484262D01*
X18809862Y-4710538D01*
X19036138Y-4710538D01*
X19083000Y-4597400D02*
G75*
G03*
X19083000Y-4597400I-160000J0D01*
G01*
X19036138Y-5396338D02*
X19036138Y-5170062D01*
X18809862Y-5170062D01*
X18809862Y-5396338D01*
X19036138Y-5396338D01*
X19083000Y-5283200D02*
G75*
G03*
X19083000Y-5283200I-160000J0D01*
G01*
D11*
X9733777Y-14516484D02*
X9733777Y-14316484D01*
X9733777Y-14316484D02*
X9781396Y-14316484D01*
X9781396Y-14316484D02*
X9809967Y-14326008D01*
X9809967Y-14326008D02*
X9829015Y-14345055D01*
X9829015Y-14345055D02*
X9838539Y-14364103D01*
X9838539Y-14364103D02*
X9848063Y-14402198D01*
X9848063Y-14402198D02*
X9848063Y-14430769D01*
X9848063Y-14430769D02*
X9838539Y-14468865D01*
X9838539Y-14468865D02*
X9829015Y-14487912D01*
X9829015Y-14487912D02*
X9809967Y-14506960D01*
X9809967Y-14506960D02*
X9781396Y-14516484D01*
X9781396Y-14516484D02*
X9733777Y-14516484D01*
X9933777Y-14516484D02*
X9933777Y-14383150D01*
X9933777Y-14421246D02*
X9943301Y-14402198D01*
X9943301Y-14402198D02*
X9952824Y-14392674D01*
X9952824Y-14392674D02*
X9971872Y-14383150D01*
X9971872Y-14383150D02*
X9990920Y-14383150D01*
X10057586Y-14516484D02*
X10057586Y-14383150D01*
X10057586Y-14316484D02*
X10048063Y-14326008D01*
X10048063Y-14326008D02*
X10057586Y-14335531D01*
X10057586Y-14335531D02*
X10067110Y-14326008D01*
X10067110Y-14326008D02*
X10057586Y-14316484D01*
X10057586Y-14316484D02*
X10057586Y-14335531D01*
X10181396Y-14516484D02*
X10162348Y-14506960D01*
X10162348Y-14506960D02*
X10152824Y-14487912D01*
X10152824Y-14487912D02*
X10152824Y-14316484D01*
X10286158Y-14516484D02*
X10267110Y-14506960D01*
X10267110Y-14506960D02*
X10257586Y-14487912D01*
X10257586Y-14487912D02*
X10257586Y-14316484D01*
X10514729Y-14516484D02*
X10514729Y-14316484D01*
X10514729Y-14316484D02*
X10581396Y-14459341D01*
X10581396Y-14459341D02*
X10648063Y-14316484D01*
X10648063Y-14316484D02*
X10648063Y-14516484D01*
X10829015Y-14516484D02*
X10829015Y-14411722D01*
X10829015Y-14411722D02*
X10819491Y-14392674D01*
X10819491Y-14392674D02*
X10800444Y-14383150D01*
X10800444Y-14383150D02*
X10762348Y-14383150D01*
X10762348Y-14383150D02*
X10743301Y-14392674D01*
X10829015Y-14506960D02*
X10809967Y-14516484D01*
X10809967Y-14516484D02*
X10762348Y-14516484D01*
X10762348Y-14516484D02*
X10743301Y-14506960D01*
X10743301Y-14506960D02*
X10733777Y-14487912D01*
X10733777Y-14487912D02*
X10733777Y-14468865D01*
X10733777Y-14468865D02*
X10743301Y-14449817D01*
X10743301Y-14449817D02*
X10762348Y-14440293D01*
X10762348Y-14440293D02*
X10809967Y-14440293D01*
X10809967Y-14440293D02*
X10829015Y-14430769D01*
X10924253Y-14383150D02*
X10924253Y-14583150D01*
X10924253Y-14392674D02*
X10943301Y-14383150D01*
X10943301Y-14383150D02*
X10981396Y-14383150D01*
X10981396Y-14383150D02*
X11000444Y-14392674D01*
X11000444Y-14392674D02*
X11009967Y-14402198D01*
X11009967Y-14402198D02*
X11019491Y-14421246D01*
X11019491Y-14421246D02*
X11019491Y-14478388D01*
X11019491Y-14478388D02*
X11009967Y-14497436D01*
X11009967Y-14497436D02*
X11000444Y-14506960D01*
X11000444Y-14506960D02*
X10981396Y-14516484D01*
X10981396Y-14516484D02*
X10943301Y-14516484D01*
X10943301Y-14516484D02*
X10924253Y-14506960D01*
X11105205Y-14497436D02*
X11114729Y-14506960D01*
X11114729Y-14506960D02*
X11105205Y-14516484D01*
X11105205Y-14516484D02*
X11095682Y-14506960D01*
X11095682Y-14506960D02*
X11105205Y-14497436D01*
X11105205Y-14497436D02*
X11105205Y-14516484D01*
X11105205Y-14392674D02*
X11114729Y-14402198D01*
X11114729Y-14402198D02*
X11105205Y-14411722D01*
X11105205Y-14411722D02*
X11095682Y-14402198D01*
X11095682Y-14402198D02*
X11105205Y-14392674D01*
X11105205Y-14392674D02*
X11105205Y-14411722D01*
D12*
X9433000Y-14825000D02*
X9473000Y-14865000D01*
X9473000Y-14825000D02*
X9433000Y-14865000D01*
D11*
X9771872Y-14736484D02*
X9790920Y-14736484D01*
X9790920Y-14736484D02*
X9809967Y-14746008D01*
X9809967Y-14746008D02*
X9819491Y-14755531D01*
X9819491Y-14755531D02*
X9829015Y-14774579D01*
X9829015Y-14774579D02*
X9838539Y-14812674D01*
X9838539Y-14812674D02*
X9838539Y-14860293D01*
X9838539Y-14860293D02*
X9829015Y-14898388D01*
X9829015Y-14898388D02*
X9819491Y-14917436D01*
X9819491Y-14917436D02*
X9809967Y-14926960D01*
X9809967Y-14926960D02*
X9790920Y-14936484D01*
X9790920Y-14936484D02*
X9771872Y-14936484D01*
X9771872Y-14936484D02*
X9752824Y-14926960D01*
X9752824Y-14926960D02*
X9743301Y-14917436D01*
X9743301Y-14917436D02*
X9733777Y-14898388D01*
X9733777Y-14898388D02*
X9724253Y-14860293D01*
X9724253Y-14860293D02*
X9724253Y-14812674D01*
X9724253Y-14812674D02*
X9733777Y-14774579D01*
X9733777Y-14774579D02*
X9743301Y-14755531D01*
X9743301Y-14755531D02*
X9752824Y-14746008D01*
X9752824Y-14746008D02*
X9771872Y-14736484D01*
X9924253Y-14917436D02*
X9933777Y-14926960D01*
X9933777Y-14926960D02*
X9924253Y-14936484D01*
X9924253Y-14936484D02*
X9914729Y-14926960D01*
X9914729Y-14926960D02*
X9924253Y-14917436D01*
X9924253Y-14917436D02*
X9924253Y-14936484D01*
X10105205Y-14803150D02*
X10105205Y-14936484D01*
X10057586Y-14726960D02*
X10009967Y-14869817D01*
X10009967Y-14869817D02*
X10133777Y-14869817D01*
X10248063Y-14736484D02*
X10267110Y-14736484D01*
X10267110Y-14736484D02*
X10286158Y-14746008D01*
X10286158Y-14746008D02*
X10295682Y-14755531D01*
X10295682Y-14755531D02*
X10305205Y-14774579D01*
X10305205Y-14774579D02*
X10314729Y-14812674D01*
X10314729Y-14812674D02*
X10314729Y-14860293D01*
X10314729Y-14860293D02*
X10305205Y-14898388D01*
X10305205Y-14898388D02*
X10295682Y-14917436D01*
X10295682Y-14917436D02*
X10286158Y-14926960D01*
X10286158Y-14926960D02*
X10267110Y-14936484D01*
X10267110Y-14936484D02*
X10248063Y-14936484D01*
X10248063Y-14936484D02*
X10229015Y-14926960D01*
X10229015Y-14926960D02*
X10219491Y-14917436D01*
X10219491Y-14917436D02*
X10209967Y-14898388D01*
X10209967Y-14898388D02*
X10200444Y-14860293D01*
X10200444Y-14860293D02*
X10200444Y-14812674D01*
X10200444Y-14812674D02*
X10209967Y-14774579D01*
X10209967Y-14774579D02*
X10219491Y-14755531D01*
X10219491Y-14755531D02*
X10229015Y-14746008D01*
X10229015Y-14746008D02*
X10248063Y-14736484D01*
X10438539Y-14736484D02*
X10457586Y-14736484D01*
X10457586Y-14736484D02*
X10476634Y-14746008D01*
X10476634Y-14746008D02*
X10486158Y-14755531D01*
X10486158Y-14755531D02*
X10495682Y-14774579D01*
X10495682Y-14774579D02*
X10505205Y-14812674D01*
X10505205Y-14812674D02*
X10505205Y-14860293D01*
X10505205Y-14860293D02*
X10495682Y-14898388D01*
X10495682Y-14898388D02*
X10486158Y-14917436D01*
X10486158Y-14917436D02*
X10476634Y-14926960D01*
X10476634Y-14926960D02*
X10457586Y-14936484D01*
X10457586Y-14936484D02*
X10438539Y-14936484D01*
X10438539Y-14936484D02*
X10419491Y-14926960D01*
X10419491Y-14926960D02*
X10409967Y-14917436D01*
X10409967Y-14917436D02*
X10400444Y-14898388D01*
X10400444Y-14898388D02*
X10390920Y-14860293D01*
X10390920Y-14860293D02*
X10390920Y-14812674D01*
X10390920Y-14812674D02*
X10400444Y-14774579D01*
X10400444Y-14774579D02*
X10409967Y-14755531D01*
X10409967Y-14755531D02*
X10419491Y-14746008D01*
X10419491Y-14746008D02*
X10438539Y-14736484D01*
X10590920Y-14936484D02*
X10590920Y-14803150D01*
X10590920Y-14822198D02*
X10600444Y-14812674D01*
X10600444Y-14812674D02*
X10619491Y-14803150D01*
X10619491Y-14803150D02*
X10648063Y-14803150D01*
X10648063Y-14803150D02*
X10667110Y-14812674D01*
X10667110Y-14812674D02*
X10676634Y-14831722D01*
X10676634Y-14831722D02*
X10676634Y-14936484D01*
X10676634Y-14831722D02*
X10686158Y-14812674D01*
X10686158Y-14812674D02*
X10705205Y-14803150D01*
X10705205Y-14803150D02*
X10733777Y-14803150D01*
X10733777Y-14803150D02*
X10752825Y-14812674D01*
X10752825Y-14812674D02*
X10762348Y-14831722D01*
X10762348Y-14831722D02*
X10762348Y-14936484D01*
X10857586Y-14936484D02*
X10857586Y-14803150D01*
X10857586Y-14822198D02*
X10867110Y-14812674D01*
X10867110Y-14812674D02*
X10886158Y-14803150D01*
X10886158Y-14803150D02*
X10914729Y-14803150D01*
X10914729Y-14803150D02*
X10933777Y-14812674D01*
X10933777Y-14812674D02*
X10943301Y-14831722D01*
X10943301Y-14831722D02*
X10943301Y-14936484D01*
X10943301Y-14831722D02*
X10952825Y-14812674D01*
X10952825Y-14812674D02*
X10971872Y-14803150D01*
X10971872Y-14803150D02*
X11000444Y-14803150D01*
X11000444Y-14803150D02*
X11019491Y-14812674D01*
X11019491Y-14812674D02*
X11029015Y-14831722D01*
X11029015Y-14831722D02*
X11029015Y-14936484D01*
X11419491Y-14726960D02*
X11248063Y-14984103D01*
X11676634Y-14736484D02*
X11695682Y-14736484D01*
X11695682Y-14736484D02*
X11714729Y-14746008D01*
X11714729Y-14746008D02*
X11724253Y-14755531D01*
X11724253Y-14755531D02*
X11733777Y-14774579D01*
X11733777Y-14774579D02*
X11743301Y-14812674D01*
X11743301Y-14812674D02*
X11743301Y-14860293D01*
X11743301Y-14860293D02*
X11733777Y-14898388D01*
X11733777Y-14898388D02*
X11724253Y-14917436D01*
X11724253Y-14917436D02*
X11714729Y-14926960D01*
X11714729Y-14926960D02*
X11695682Y-14936484D01*
X11695682Y-14936484D02*
X11676634Y-14936484D01*
X11676634Y-14936484D02*
X11657586Y-14926960D01*
X11657586Y-14926960D02*
X11648063Y-14917436D01*
X11648063Y-14917436D02*
X11638539Y-14898388D01*
X11638539Y-14898388D02*
X11629015Y-14860293D01*
X11629015Y-14860293D02*
X11629015Y-14812674D01*
X11629015Y-14812674D02*
X11638539Y-14774579D01*
X11638539Y-14774579D02*
X11648063Y-14755531D01*
X11648063Y-14755531D02*
X11657586Y-14746008D01*
X11657586Y-14746008D02*
X11676634Y-14736484D01*
X11829015Y-14917436D02*
X11838539Y-14926960D01*
X11838539Y-14926960D02*
X11829015Y-14936484D01*
X11829015Y-14936484D02*
X11819491Y-14926960D01*
X11819491Y-14926960D02*
X11829015Y-14917436D01*
X11829015Y-14917436D02*
X11829015Y-14936484D01*
X11962348Y-14736484D02*
X11981396Y-14736484D01*
X11981396Y-14736484D02*
X12000444Y-14746008D01*
X12000444Y-14746008D02*
X12009967Y-14755531D01*
X12009967Y-14755531D02*
X12019491Y-14774579D01*
X12019491Y-14774579D02*
X12029015Y-14812674D01*
X12029015Y-14812674D02*
X12029015Y-14860293D01*
X12029015Y-14860293D02*
X12019491Y-14898388D01*
X12019491Y-14898388D02*
X12009967Y-14917436D01*
X12009967Y-14917436D02*
X12000444Y-14926960D01*
X12000444Y-14926960D02*
X11981396Y-14936484D01*
X11981396Y-14936484D02*
X11962348Y-14936484D01*
X11962348Y-14936484D02*
X11943301Y-14926960D01*
X11943301Y-14926960D02*
X11933777Y-14917436D01*
X11933777Y-14917436D02*
X11924253Y-14898388D01*
X11924253Y-14898388D02*
X11914729Y-14860293D01*
X11914729Y-14860293D02*
X11914729Y-14812674D01*
X11914729Y-14812674D02*
X11924253Y-14774579D01*
X11924253Y-14774579D02*
X11933777Y-14755531D01*
X11933777Y-14755531D02*
X11943301Y-14746008D01*
X11943301Y-14746008D02*
X11962348Y-14736484D01*
X12219491Y-14936484D02*
X12105206Y-14936484D01*
X12162348Y-14936484D02*
X12162348Y-14736484D01*
X12162348Y-14736484D02*
X12143301Y-14765055D01*
X12143301Y-14765055D02*
X12124253Y-14784103D01*
X12124253Y-14784103D02*
X12105206Y-14793627D01*
X12400444Y-14736484D02*
X12305206Y-14736484D01*
X12305206Y-14736484D02*
X12295682Y-14831722D01*
X12295682Y-14831722D02*
X12305206Y-14822198D01*
X12305206Y-14822198D02*
X12324253Y-14812674D01*
X12324253Y-14812674D02*
X12371872Y-14812674D01*
X12371872Y-14812674D02*
X12390920Y-14822198D01*
X12390920Y-14822198D02*
X12400444Y-14831722D01*
X12400444Y-14831722D02*
X12409967Y-14850769D01*
X12409967Y-14850769D02*
X12409967Y-14898388D01*
X12409967Y-14898388D02*
X12400444Y-14917436D01*
X12400444Y-14917436D02*
X12390920Y-14926960D01*
X12390920Y-14926960D02*
X12371872Y-14936484D01*
X12371872Y-14936484D02*
X12324253Y-14936484D01*
X12324253Y-14936484D02*
X12305206Y-14926960D01*
X12305206Y-14926960D02*
X12295682Y-14917436D01*
X12476634Y-14736484D02*
X12609967Y-14736484D01*
X12609967Y-14736484D02*
X12524253Y-14936484D01*
X12676634Y-14736484D02*
X12676634Y-14774579D01*
X12752825Y-14736484D02*
X12752825Y-14774579D01*
X13048063Y-15012674D02*
X13038539Y-15003150D01*
X13038539Y-15003150D02*
X13019491Y-14974579D01*
X13019491Y-14974579D02*
X13009968Y-14955531D01*
X13009968Y-14955531D02*
X13000444Y-14926960D01*
X13000444Y-14926960D02*
X12990920Y-14879341D01*
X12990920Y-14879341D02*
X12990920Y-14841246D01*
X12990920Y-14841246D02*
X13000444Y-14793627D01*
X13000444Y-14793627D02*
X13009968Y-14765055D01*
X13009968Y-14765055D02*
X13019491Y-14746008D01*
X13019491Y-14746008D02*
X13038539Y-14717436D01*
X13038539Y-14717436D02*
X13048063Y-14707912D01*
X13114729Y-14755531D02*
X13124253Y-14746008D01*
X13124253Y-14746008D02*
X13143301Y-14736484D01*
X13143301Y-14736484D02*
X13190920Y-14736484D01*
X13190920Y-14736484D02*
X13209968Y-14746008D01*
X13209968Y-14746008D02*
X13219491Y-14755531D01*
X13219491Y-14755531D02*
X13229015Y-14774579D01*
X13229015Y-14774579D02*
X13229015Y-14793627D01*
X13229015Y-14793627D02*
X13219491Y-14822198D01*
X13219491Y-14822198D02*
X13105206Y-14936484D01*
X13105206Y-14936484D02*
X13229015Y-14936484D01*
X13400444Y-14803150D02*
X13400444Y-14936484D01*
X13352825Y-14726960D02*
X13305206Y-14869817D01*
X13305206Y-14869817D02*
X13429015Y-14869817D01*
X13657587Y-14936484D02*
X13657587Y-14736484D01*
X13743301Y-14936484D02*
X13743301Y-14831722D01*
X13743301Y-14831722D02*
X13733777Y-14812674D01*
X13733777Y-14812674D02*
X13714730Y-14803150D01*
X13714730Y-14803150D02*
X13686158Y-14803150D01*
X13686158Y-14803150D02*
X13667110Y-14812674D01*
X13667110Y-14812674D02*
X13657587Y-14822198D01*
X13867110Y-14936484D02*
X13848063Y-14926960D01*
X13848063Y-14926960D02*
X13838539Y-14917436D01*
X13838539Y-14917436D02*
X13829015Y-14898388D01*
X13829015Y-14898388D02*
X13829015Y-14841246D01*
X13829015Y-14841246D02*
X13838539Y-14822198D01*
X13838539Y-14822198D02*
X13848063Y-14812674D01*
X13848063Y-14812674D02*
X13867110Y-14803150D01*
X13867110Y-14803150D02*
X13895682Y-14803150D01*
X13895682Y-14803150D02*
X13914730Y-14812674D01*
X13914730Y-14812674D02*
X13924253Y-14822198D01*
X13924253Y-14822198D02*
X13933777Y-14841246D01*
X13933777Y-14841246D02*
X13933777Y-14898388D01*
X13933777Y-14898388D02*
X13924253Y-14917436D01*
X13924253Y-14917436D02*
X13914730Y-14926960D01*
X13914730Y-14926960D02*
X13895682Y-14936484D01*
X13895682Y-14936484D02*
X13867110Y-14936484D01*
X14048063Y-14936484D02*
X14029015Y-14926960D01*
X14029015Y-14926960D02*
X14019491Y-14907912D01*
X14019491Y-14907912D02*
X14019491Y-14736484D01*
X14200444Y-14926960D02*
X14181396Y-14936484D01*
X14181396Y-14936484D02*
X14143301Y-14936484D01*
X14143301Y-14936484D02*
X14124253Y-14926960D01*
X14124253Y-14926960D02*
X14114730Y-14907912D01*
X14114730Y-14907912D02*
X14114730Y-14831722D01*
X14114730Y-14831722D02*
X14124253Y-14812674D01*
X14124253Y-14812674D02*
X14143301Y-14803150D01*
X14143301Y-14803150D02*
X14181396Y-14803150D01*
X14181396Y-14803150D02*
X14200444Y-14812674D01*
X14200444Y-14812674D02*
X14209968Y-14831722D01*
X14209968Y-14831722D02*
X14209968Y-14850769D01*
X14209968Y-14850769D02*
X14114730Y-14869817D01*
X14286158Y-14926960D02*
X14305206Y-14936484D01*
X14305206Y-14936484D02*
X14343301Y-14936484D01*
X14343301Y-14936484D02*
X14362349Y-14926960D01*
X14362349Y-14926960D02*
X14371872Y-14907912D01*
X14371872Y-14907912D02*
X14371872Y-14898388D01*
X14371872Y-14898388D02*
X14362349Y-14879341D01*
X14362349Y-14879341D02*
X14343301Y-14869817D01*
X14343301Y-14869817D02*
X14314730Y-14869817D01*
X14314730Y-14869817D02*
X14295682Y-14860293D01*
X14295682Y-14860293D02*
X14286158Y-14841246D01*
X14286158Y-14841246D02*
X14286158Y-14831722D01*
X14286158Y-14831722D02*
X14295682Y-14812674D01*
X14295682Y-14812674D02*
X14314730Y-14803150D01*
X14314730Y-14803150D02*
X14343301Y-14803150D01*
X14343301Y-14803150D02*
X14362349Y-14812674D01*
X14438539Y-15012674D02*
X14448063Y-15003150D01*
X14448063Y-15003150D02*
X14467111Y-14974579D01*
X14467111Y-14974579D02*
X14476634Y-14955531D01*
X14476634Y-14955531D02*
X14486158Y-14926960D01*
X14486158Y-14926960D02*
X14495682Y-14879341D01*
X14495682Y-14879341D02*
X14495682Y-14841246D01*
X14495682Y-14841246D02*
X14486158Y-14793627D01*
X14486158Y-14793627D02*
X14476634Y-14765055D01*
X14476634Y-14765055D02*
X14467111Y-14746008D01*
X14467111Y-14746008D02*
X14448063Y-14717436D01*
X14448063Y-14717436D02*
X14438539Y-14707912D01*
D13*
X9473000Y-15109000D02*
G75*
G03*
X9473000Y-15109000I-37500J0D01*
G01*
D11*
X9771872Y-15000484D02*
X9790920Y-15000484D01*
X9790920Y-15000484D02*
X9809967Y-15010008D01*
X9809967Y-15010008D02*
X9819491Y-15019531D01*
X9819491Y-15019531D02*
X9829015Y-15038579D01*
X9829015Y-15038579D02*
X9838539Y-15076674D01*
X9838539Y-15076674D02*
X9838539Y-15124293D01*
X9838539Y-15124293D02*
X9829015Y-15162388D01*
X9829015Y-15162388D02*
X9819491Y-15181436D01*
X9819491Y-15181436D02*
X9809967Y-15190960D01*
X9809967Y-15190960D02*
X9790920Y-15200484D01*
X9790920Y-15200484D02*
X9771872Y-15200484D01*
X9771872Y-15200484D02*
X9752824Y-15190960D01*
X9752824Y-15190960D02*
X9743301Y-15181436D01*
X9743301Y-15181436D02*
X9733777Y-15162388D01*
X9733777Y-15162388D02*
X9724253Y-15124293D01*
X9724253Y-15124293D02*
X9724253Y-15076674D01*
X9724253Y-15076674D02*
X9733777Y-15038579D01*
X9733777Y-15038579D02*
X9743301Y-15019531D01*
X9743301Y-15019531D02*
X9752824Y-15010008D01*
X9752824Y-15010008D02*
X9771872Y-15000484D01*
X9924253Y-15181436D02*
X9933777Y-15190960D01*
X9933777Y-15190960D02*
X9924253Y-15200484D01*
X9924253Y-15200484D02*
X9914729Y-15190960D01*
X9914729Y-15190960D02*
X9924253Y-15181436D01*
X9924253Y-15181436D02*
X9924253Y-15200484D01*
X10000444Y-15000484D02*
X10133777Y-15000484D01*
X10133777Y-15000484D02*
X10048063Y-15200484D01*
X10305205Y-15000484D02*
X10209967Y-15000484D01*
X10209967Y-15000484D02*
X10200444Y-15095722D01*
X10200444Y-15095722D02*
X10209967Y-15086198D01*
X10209967Y-15086198D02*
X10229015Y-15076674D01*
X10229015Y-15076674D02*
X10276634Y-15076674D01*
X10276634Y-15076674D02*
X10295682Y-15086198D01*
X10295682Y-15086198D02*
X10305205Y-15095722D01*
X10305205Y-15095722D02*
X10314729Y-15114769D01*
X10314729Y-15114769D02*
X10314729Y-15162388D01*
X10314729Y-15162388D02*
X10305205Y-15181436D01*
X10305205Y-15181436D02*
X10295682Y-15190960D01*
X10295682Y-15190960D02*
X10276634Y-15200484D01*
X10276634Y-15200484D02*
X10229015Y-15200484D01*
X10229015Y-15200484D02*
X10209967Y-15190960D01*
X10209967Y-15190960D02*
X10200444Y-15181436D01*
X10438539Y-15000484D02*
X10457586Y-15000484D01*
X10457586Y-15000484D02*
X10476634Y-15010008D01*
X10476634Y-15010008D02*
X10486158Y-15019531D01*
X10486158Y-15019531D02*
X10495682Y-15038579D01*
X10495682Y-15038579D02*
X10505205Y-15076674D01*
X10505205Y-15076674D02*
X10505205Y-15124293D01*
X10505205Y-15124293D02*
X10495682Y-15162388D01*
X10495682Y-15162388D02*
X10486158Y-15181436D01*
X10486158Y-15181436D02*
X10476634Y-15190960D01*
X10476634Y-15190960D02*
X10457586Y-15200484D01*
X10457586Y-15200484D02*
X10438539Y-15200484D01*
X10438539Y-15200484D02*
X10419491Y-15190960D01*
X10419491Y-15190960D02*
X10409967Y-15181436D01*
X10409967Y-15181436D02*
X10400444Y-15162388D01*
X10400444Y-15162388D02*
X10390920Y-15124293D01*
X10390920Y-15124293D02*
X10390920Y-15076674D01*
X10390920Y-15076674D02*
X10400444Y-15038579D01*
X10400444Y-15038579D02*
X10409967Y-15019531D01*
X10409967Y-15019531D02*
X10419491Y-15010008D01*
X10419491Y-15010008D02*
X10438539Y-15000484D01*
X10590920Y-15200484D02*
X10590920Y-15067150D01*
X10590920Y-15086198D02*
X10600444Y-15076674D01*
X10600444Y-15076674D02*
X10619491Y-15067150D01*
X10619491Y-15067150D02*
X10648063Y-15067150D01*
X10648063Y-15067150D02*
X10667110Y-15076674D01*
X10667110Y-15076674D02*
X10676634Y-15095722D01*
X10676634Y-15095722D02*
X10676634Y-15200484D01*
X10676634Y-15095722D02*
X10686158Y-15076674D01*
X10686158Y-15076674D02*
X10705205Y-15067150D01*
X10705205Y-15067150D02*
X10733777Y-15067150D01*
X10733777Y-15067150D02*
X10752825Y-15076674D01*
X10752825Y-15076674D02*
X10762348Y-15095722D01*
X10762348Y-15095722D02*
X10762348Y-15200484D01*
X10857586Y-15200484D02*
X10857586Y-15067150D01*
X10857586Y-15086198D02*
X10867110Y-15076674D01*
X10867110Y-15076674D02*
X10886158Y-15067150D01*
X10886158Y-15067150D02*
X10914729Y-15067150D01*
X10914729Y-15067150D02*
X10933777Y-15076674D01*
X10933777Y-15076674D02*
X10943301Y-15095722D01*
X10943301Y-15095722D02*
X10943301Y-15200484D01*
X10943301Y-15095722D02*
X10952825Y-15076674D01*
X10952825Y-15076674D02*
X10971872Y-15067150D01*
X10971872Y-15067150D02*
X11000444Y-15067150D01*
X11000444Y-15067150D02*
X11019491Y-15076674D01*
X11019491Y-15076674D02*
X11029015Y-15095722D01*
X11029015Y-15095722D02*
X11029015Y-15200484D01*
X11419491Y-14990960D02*
X11248063Y-15248103D01*
X11676634Y-15000484D02*
X11695682Y-15000484D01*
X11695682Y-15000484D02*
X11714729Y-15010008D01*
X11714729Y-15010008D02*
X11724253Y-15019531D01*
X11724253Y-15019531D02*
X11733777Y-15038579D01*
X11733777Y-15038579D02*
X11743301Y-15076674D01*
X11743301Y-15076674D02*
X11743301Y-15124293D01*
X11743301Y-15124293D02*
X11733777Y-15162388D01*
X11733777Y-15162388D02*
X11724253Y-15181436D01*
X11724253Y-15181436D02*
X11714729Y-15190960D01*
X11714729Y-15190960D02*
X11695682Y-15200484D01*
X11695682Y-15200484D02*
X11676634Y-15200484D01*
X11676634Y-15200484D02*
X11657586Y-15190960D01*
X11657586Y-15190960D02*
X11648063Y-15181436D01*
X11648063Y-15181436D02*
X11638539Y-15162388D01*
X11638539Y-15162388D02*
X11629015Y-15124293D01*
X11629015Y-15124293D02*
X11629015Y-15076674D01*
X11629015Y-15076674D02*
X11638539Y-15038579D01*
X11638539Y-15038579D02*
X11648063Y-15019531D01*
X11648063Y-15019531D02*
X11657586Y-15010008D01*
X11657586Y-15010008D02*
X11676634Y-15000484D01*
X11829015Y-15181436D02*
X11838539Y-15190960D01*
X11838539Y-15190960D02*
X11829015Y-15200484D01*
X11829015Y-15200484D02*
X11819491Y-15190960D01*
X11819491Y-15190960D02*
X11829015Y-15181436D01*
X11829015Y-15181436D02*
X11829015Y-15200484D01*
X11962348Y-15000484D02*
X11981396Y-15000484D01*
X11981396Y-15000484D02*
X12000444Y-15010008D01*
X12000444Y-15010008D02*
X12009967Y-15019531D01*
X12009967Y-15019531D02*
X12019491Y-15038579D01*
X12019491Y-15038579D02*
X12029015Y-15076674D01*
X12029015Y-15076674D02*
X12029015Y-15124293D01*
X12029015Y-15124293D02*
X12019491Y-15162388D01*
X12019491Y-15162388D02*
X12009967Y-15181436D01*
X12009967Y-15181436D02*
X12000444Y-15190960D01*
X12000444Y-15190960D02*
X11981396Y-15200484D01*
X11981396Y-15200484D02*
X11962348Y-15200484D01*
X11962348Y-15200484D02*
X11943301Y-15190960D01*
X11943301Y-15190960D02*
X11933777Y-15181436D01*
X11933777Y-15181436D02*
X11924253Y-15162388D01*
X11924253Y-15162388D02*
X11914729Y-15124293D01*
X11914729Y-15124293D02*
X11914729Y-15076674D01*
X11914729Y-15076674D02*
X11924253Y-15038579D01*
X11924253Y-15038579D02*
X11933777Y-15019531D01*
X11933777Y-15019531D02*
X11943301Y-15010008D01*
X11943301Y-15010008D02*
X11962348Y-15000484D01*
X12105206Y-15019531D02*
X12114729Y-15010008D01*
X12114729Y-15010008D02*
X12133777Y-15000484D01*
X12133777Y-15000484D02*
X12181396Y-15000484D01*
X12181396Y-15000484D02*
X12200444Y-15010008D01*
X12200444Y-15010008D02*
X12209967Y-15019531D01*
X12209967Y-15019531D02*
X12219491Y-15038579D01*
X12219491Y-15038579D02*
X12219491Y-15057627D01*
X12219491Y-15057627D02*
X12209967Y-15086198D01*
X12209967Y-15086198D02*
X12095682Y-15200484D01*
X12095682Y-15200484D02*
X12219491Y-15200484D01*
X12314729Y-15200484D02*
X12352825Y-15200484D01*
X12352825Y-15200484D02*
X12371872Y-15190960D01*
X12371872Y-15190960D02*
X12381396Y-15181436D01*
X12381396Y-15181436D02*
X12400444Y-15152865D01*
X12400444Y-15152865D02*
X12409967Y-15114769D01*
X12409967Y-15114769D02*
X12409967Y-15038579D01*
X12409967Y-15038579D02*
X12400444Y-15019531D01*
X12400444Y-15019531D02*
X12390920Y-15010008D01*
X12390920Y-15010008D02*
X12371872Y-15000484D01*
X12371872Y-15000484D02*
X12333777Y-15000484D01*
X12333777Y-15000484D02*
X12314729Y-15010008D01*
X12314729Y-15010008D02*
X12305206Y-15019531D01*
X12305206Y-15019531D02*
X12295682Y-15038579D01*
X12295682Y-15038579D02*
X12295682Y-15086198D01*
X12295682Y-15086198D02*
X12305206Y-15105246D01*
X12305206Y-15105246D02*
X12314729Y-15114769D01*
X12314729Y-15114769D02*
X12333777Y-15124293D01*
X12333777Y-15124293D02*
X12371872Y-15124293D01*
X12371872Y-15124293D02*
X12390920Y-15114769D01*
X12390920Y-15114769D02*
X12400444Y-15105246D01*
X12400444Y-15105246D02*
X12409967Y-15086198D01*
X12590920Y-15000484D02*
X12495682Y-15000484D01*
X12495682Y-15000484D02*
X12486158Y-15095722D01*
X12486158Y-15095722D02*
X12495682Y-15086198D01*
X12495682Y-15086198D02*
X12514729Y-15076674D01*
X12514729Y-15076674D02*
X12562348Y-15076674D01*
X12562348Y-15076674D02*
X12581396Y-15086198D01*
X12581396Y-15086198D02*
X12590920Y-15095722D01*
X12590920Y-15095722D02*
X12600444Y-15114769D01*
X12600444Y-15114769D02*
X12600444Y-15162388D01*
X12600444Y-15162388D02*
X12590920Y-15181436D01*
X12590920Y-15181436D02*
X12581396Y-15190960D01*
X12581396Y-15190960D02*
X12562348Y-15200484D01*
X12562348Y-15200484D02*
X12514729Y-15200484D01*
X12514729Y-15200484D02*
X12495682Y-15190960D01*
X12495682Y-15190960D02*
X12486158Y-15181436D01*
X12676634Y-15000484D02*
X12676634Y-15038579D01*
X12752825Y-15000484D02*
X12752825Y-15038579D01*
X13048063Y-15276674D02*
X13038539Y-15267150D01*
X13038539Y-15267150D02*
X13019491Y-15238579D01*
X13019491Y-15238579D02*
X13009968Y-15219531D01*
X13009968Y-15219531D02*
X13000444Y-15190960D01*
X13000444Y-15190960D02*
X12990920Y-15143341D01*
X12990920Y-15143341D02*
X12990920Y-15105246D01*
X12990920Y-15105246D02*
X13000444Y-15057627D01*
X13000444Y-15057627D02*
X13009968Y-15029055D01*
X13009968Y-15029055D02*
X13019491Y-15010008D01*
X13019491Y-15010008D02*
X13038539Y-14981436D01*
X13038539Y-14981436D02*
X13048063Y-14971912D01*
X13209968Y-15067150D02*
X13209968Y-15200484D01*
X13162348Y-14990960D02*
X13114729Y-15133817D01*
X13114729Y-15133817D02*
X13238539Y-15133817D01*
X13467110Y-15200484D02*
X13467110Y-15000484D01*
X13552825Y-15200484D02*
X13552825Y-15095722D01*
X13552825Y-15095722D02*
X13543301Y-15076674D01*
X13543301Y-15076674D02*
X13524253Y-15067150D01*
X13524253Y-15067150D02*
X13495682Y-15067150D01*
X13495682Y-15067150D02*
X13476634Y-15076674D01*
X13476634Y-15076674D02*
X13467110Y-15086198D01*
X13676634Y-15200484D02*
X13657587Y-15190960D01*
X13657587Y-15190960D02*
X13648063Y-15181436D01*
X13648063Y-15181436D02*
X13638539Y-15162388D01*
X13638539Y-15162388D02*
X13638539Y-15105246D01*
X13638539Y-15105246D02*
X13648063Y-15086198D01*
X13648063Y-15086198D02*
X13657587Y-15076674D01*
X13657587Y-15076674D02*
X13676634Y-15067150D01*
X13676634Y-15067150D02*
X13705206Y-15067150D01*
X13705206Y-15067150D02*
X13724253Y-15076674D01*
X13724253Y-15076674D02*
X13733777Y-15086198D01*
X13733777Y-15086198D02*
X13743301Y-15105246D01*
X13743301Y-15105246D02*
X13743301Y-15162388D01*
X13743301Y-15162388D02*
X13733777Y-15181436D01*
X13733777Y-15181436D02*
X13724253Y-15190960D01*
X13724253Y-15190960D02*
X13705206Y-15200484D01*
X13705206Y-15200484D02*
X13676634Y-15200484D01*
X13857587Y-15200484D02*
X13838539Y-15190960D01*
X13838539Y-15190960D02*
X13829015Y-15171912D01*
X13829015Y-15171912D02*
X13829015Y-15000484D01*
X14009968Y-15190960D02*
X13990920Y-15200484D01*
X13990920Y-15200484D02*
X13952825Y-15200484D01*
X13952825Y-15200484D02*
X13933777Y-15190960D01*
X13933777Y-15190960D02*
X13924253Y-15171912D01*
X13924253Y-15171912D02*
X13924253Y-15095722D01*
X13924253Y-15095722D02*
X13933777Y-15076674D01*
X13933777Y-15076674D02*
X13952825Y-15067150D01*
X13952825Y-15067150D02*
X13990920Y-15067150D01*
X13990920Y-15067150D02*
X14009968Y-15076674D01*
X14009968Y-15076674D02*
X14019491Y-15095722D01*
X14019491Y-15095722D02*
X14019491Y-15114769D01*
X14019491Y-15114769D02*
X13924253Y-15133817D01*
X14095682Y-15190960D02*
X14114730Y-15200484D01*
X14114730Y-15200484D02*
X14152825Y-15200484D01*
X14152825Y-15200484D02*
X14171872Y-15190960D01*
X14171872Y-15190960D02*
X14181396Y-15171912D01*
X14181396Y-15171912D02*
X14181396Y-15162388D01*
X14181396Y-15162388D02*
X14171872Y-15143341D01*
X14171872Y-15143341D02*
X14152825Y-15133817D01*
X14152825Y-15133817D02*
X14124253Y-15133817D01*
X14124253Y-15133817D02*
X14105206Y-15124293D01*
X14105206Y-15124293D02*
X14095682Y-15105246D01*
X14095682Y-15105246D02*
X14095682Y-15095722D01*
X14095682Y-15095722D02*
X14105206Y-15076674D01*
X14105206Y-15076674D02*
X14124253Y-15067150D01*
X14124253Y-15067150D02*
X14152825Y-15067150D01*
X14152825Y-15067150D02*
X14171872Y-15076674D01*
X14248063Y-15276674D02*
X14257587Y-15267150D01*
X14257587Y-15267150D02*
X14276634Y-15238579D01*
X14276634Y-15238579D02*
X14286158Y-15219531D01*
X14286158Y-15219531D02*
X14295682Y-15190960D01*
X14295682Y-15190960D02*
X14305206Y-15143341D01*
X14305206Y-15143341D02*
X14305206Y-15105246D01*
X14305206Y-15105246D02*
X14295682Y-15057627D01*
X14295682Y-15057627D02*
X14286158Y-15029055D01*
X14286158Y-15029055D02*
X14276634Y-15010008D01*
X14276634Y-15010008D02*
X14257587Y-14981436D01*
X14257587Y-14981436D02*
X14248063Y-14971912D01*
D14*
X9434900Y-15334900D02*
X9434900Y-15411100D01*
X9396800Y-15373000D02*
X9473000Y-15373000D01*
D11*
X9771872Y-15264484D02*
X9790920Y-15264484D01*
X9790920Y-15264484D02*
X9809967Y-15274008D01*
X9809967Y-15274008D02*
X9819491Y-15283531D01*
X9819491Y-15283531D02*
X9829015Y-15302579D01*
X9829015Y-15302579D02*
X9838539Y-15340674D01*
X9838539Y-15340674D02*
X9838539Y-15388293D01*
X9838539Y-15388293D02*
X9829015Y-15426388D01*
X9829015Y-15426388D02*
X9819491Y-15445436D01*
X9819491Y-15445436D02*
X9809967Y-15454960D01*
X9809967Y-15454960D02*
X9790920Y-15464484D01*
X9790920Y-15464484D02*
X9771872Y-15464484D01*
X9771872Y-15464484D02*
X9752824Y-15454960D01*
X9752824Y-15454960D02*
X9743301Y-15445436D01*
X9743301Y-15445436D02*
X9733777Y-15426388D01*
X9733777Y-15426388D02*
X9724253Y-15388293D01*
X9724253Y-15388293D02*
X9724253Y-15340674D01*
X9724253Y-15340674D02*
X9733777Y-15302579D01*
X9733777Y-15302579D02*
X9743301Y-15283531D01*
X9743301Y-15283531D02*
X9752824Y-15274008D01*
X9752824Y-15274008D02*
X9771872Y-15264484D01*
X9924253Y-15445436D02*
X9933777Y-15454960D01*
X9933777Y-15454960D02*
X9924253Y-15464484D01*
X9924253Y-15464484D02*
X9914729Y-15454960D01*
X9914729Y-15454960D02*
X9924253Y-15445436D01*
X9924253Y-15445436D02*
X9924253Y-15464484D01*
X10000444Y-15264484D02*
X10133777Y-15264484D01*
X10133777Y-15264484D02*
X10048063Y-15464484D01*
X10295682Y-15264484D02*
X10257586Y-15264484D01*
X10257586Y-15264484D02*
X10238539Y-15274008D01*
X10238539Y-15274008D02*
X10229015Y-15283531D01*
X10229015Y-15283531D02*
X10209967Y-15312103D01*
X10209967Y-15312103D02*
X10200444Y-15350198D01*
X10200444Y-15350198D02*
X10200444Y-15426388D01*
X10200444Y-15426388D02*
X10209967Y-15445436D01*
X10209967Y-15445436D02*
X10219491Y-15454960D01*
X10219491Y-15454960D02*
X10238539Y-15464484D01*
X10238539Y-15464484D02*
X10276634Y-15464484D01*
X10276634Y-15464484D02*
X10295682Y-15454960D01*
X10295682Y-15454960D02*
X10305205Y-15445436D01*
X10305205Y-15445436D02*
X10314729Y-15426388D01*
X10314729Y-15426388D02*
X10314729Y-15378769D01*
X10314729Y-15378769D02*
X10305205Y-15359722D01*
X10305205Y-15359722D02*
X10295682Y-15350198D01*
X10295682Y-15350198D02*
X10276634Y-15340674D01*
X10276634Y-15340674D02*
X10238539Y-15340674D01*
X10238539Y-15340674D02*
X10219491Y-15350198D01*
X10219491Y-15350198D02*
X10209967Y-15359722D01*
X10209967Y-15359722D02*
X10200444Y-15378769D01*
X10390920Y-15283531D02*
X10400444Y-15274008D01*
X10400444Y-15274008D02*
X10419491Y-15264484D01*
X10419491Y-15264484D02*
X10467110Y-15264484D01*
X10467110Y-15264484D02*
X10486158Y-15274008D01*
X10486158Y-15274008D02*
X10495682Y-15283531D01*
X10495682Y-15283531D02*
X10505205Y-15302579D01*
X10505205Y-15302579D02*
X10505205Y-15321627D01*
X10505205Y-15321627D02*
X10495682Y-15350198D01*
X10495682Y-15350198D02*
X10381396Y-15464484D01*
X10381396Y-15464484D02*
X10505205Y-15464484D01*
X10590920Y-15464484D02*
X10590920Y-15331150D01*
X10590920Y-15350198D02*
X10600444Y-15340674D01*
X10600444Y-15340674D02*
X10619491Y-15331150D01*
X10619491Y-15331150D02*
X10648063Y-15331150D01*
X10648063Y-15331150D02*
X10667110Y-15340674D01*
X10667110Y-15340674D02*
X10676634Y-15359722D01*
X10676634Y-15359722D02*
X10676634Y-15464484D01*
X10676634Y-15359722D02*
X10686158Y-15340674D01*
X10686158Y-15340674D02*
X10705205Y-15331150D01*
X10705205Y-15331150D02*
X10733777Y-15331150D01*
X10733777Y-15331150D02*
X10752825Y-15340674D01*
X10752825Y-15340674D02*
X10762348Y-15359722D01*
X10762348Y-15359722D02*
X10762348Y-15464484D01*
X10857586Y-15464484D02*
X10857586Y-15331150D01*
X10857586Y-15350198D02*
X10867110Y-15340674D01*
X10867110Y-15340674D02*
X10886158Y-15331150D01*
X10886158Y-15331150D02*
X10914729Y-15331150D01*
X10914729Y-15331150D02*
X10933777Y-15340674D01*
X10933777Y-15340674D02*
X10943301Y-15359722D01*
X10943301Y-15359722D02*
X10943301Y-15464484D01*
X10943301Y-15359722D02*
X10952825Y-15340674D01*
X10952825Y-15340674D02*
X10971872Y-15331150D01*
X10971872Y-15331150D02*
X11000444Y-15331150D01*
X11000444Y-15331150D02*
X11019491Y-15340674D01*
X11019491Y-15340674D02*
X11029015Y-15359722D01*
X11029015Y-15359722D02*
X11029015Y-15464484D01*
X11419491Y-15254960D02*
X11248063Y-15512103D01*
X11676634Y-15264484D02*
X11695682Y-15264484D01*
X11695682Y-15264484D02*
X11714729Y-15274008D01*
X11714729Y-15274008D02*
X11724253Y-15283531D01*
X11724253Y-15283531D02*
X11733777Y-15302579D01*
X11733777Y-15302579D02*
X11743301Y-15340674D01*
X11743301Y-15340674D02*
X11743301Y-15388293D01*
X11743301Y-15388293D02*
X11733777Y-15426388D01*
X11733777Y-15426388D02*
X11724253Y-15445436D01*
X11724253Y-15445436D02*
X11714729Y-15454960D01*
X11714729Y-15454960D02*
X11695682Y-15464484D01*
X11695682Y-15464484D02*
X11676634Y-15464484D01*
X11676634Y-15464484D02*
X11657586Y-15454960D01*
X11657586Y-15454960D02*
X11648063Y-15445436D01*
X11648063Y-15445436D02*
X11638539Y-15426388D01*
X11638539Y-15426388D02*
X11629015Y-15388293D01*
X11629015Y-15388293D02*
X11629015Y-15340674D01*
X11629015Y-15340674D02*
X11638539Y-15302579D01*
X11638539Y-15302579D02*
X11648063Y-15283531D01*
X11648063Y-15283531D02*
X11657586Y-15274008D01*
X11657586Y-15274008D02*
X11676634Y-15264484D01*
X11829015Y-15445436D02*
X11838539Y-15454960D01*
X11838539Y-15454960D02*
X11829015Y-15464484D01*
X11829015Y-15464484D02*
X11819491Y-15454960D01*
X11819491Y-15454960D02*
X11829015Y-15445436D01*
X11829015Y-15445436D02*
X11829015Y-15464484D01*
X11962348Y-15264484D02*
X11981396Y-15264484D01*
X11981396Y-15264484D02*
X12000444Y-15274008D01*
X12000444Y-15274008D02*
X12009967Y-15283531D01*
X12009967Y-15283531D02*
X12019491Y-15302579D01*
X12019491Y-15302579D02*
X12029015Y-15340674D01*
X12029015Y-15340674D02*
X12029015Y-15388293D01*
X12029015Y-15388293D02*
X12019491Y-15426388D01*
X12019491Y-15426388D02*
X12009967Y-15445436D01*
X12009967Y-15445436D02*
X12000444Y-15454960D01*
X12000444Y-15454960D02*
X11981396Y-15464484D01*
X11981396Y-15464484D02*
X11962348Y-15464484D01*
X11962348Y-15464484D02*
X11943301Y-15454960D01*
X11943301Y-15454960D02*
X11933777Y-15445436D01*
X11933777Y-15445436D02*
X11924253Y-15426388D01*
X11924253Y-15426388D02*
X11914729Y-15388293D01*
X11914729Y-15388293D02*
X11914729Y-15340674D01*
X11914729Y-15340674D02*
X11924253Y-15302579D01*
X11924253Y-15302579D02*
X11933777Y-15283531D01*
X11933777Y-15283531D02*
X11943301Y-15274008D01*
X11943301Y-15274008D02*
X11962348Y-15264484D01*
X12095682Y-15264484D02*
X12219491Y-15264484D01*
X12219491Y-15264484D02*
X12152825Y-15340674D01*
X12152825Y-15340674D02*
X12181396Y-15340674D01*
X12181396Y-15340674D02*
X12200444Y-15350198D01*
X12200444Y-15350198D02*
X12209967Y-15359722D01*
X12209967Y-15359722D02*
X12219491Y-15378769D01*
X12219491Y-15378769D02*
X12219491Y-15426388D01*
X12219491Y-15426388D02*
X12209967Y-15445436D01*
X12209967Y-15445436D02*
X12200444Y-15454960D01*
X12200444Y-15454960D02*
X12181396Y-15464484D01*
X12181396Y-15464484D02*
X12124253Y-15464484D01*
X12124253Y-15464484D02*
X12105206Y-15454960D01*
X12105206Y-15454960D02*
X12095682Y-15445436D01*
X12343301Y-15264484D02*
X12362348Y-15264484D01*
X12362348Y-15264484D02*
X12381396Y-15274008D01*
X12381396Y-15274008D02*
X12390920Y-15283531D01*
X12390920Y-15283531D02*
X12400444Y-15302579D01*
X12400444Y-15302579D02*
X12409967Y-15340674D01*
X12409967Y-15340674D02*
X12409967Y-15388293D01*
X12409967Y-15388293D02*
X12400444Y-15426388D01*
X12400444Y-15426388D02*
X12390920Y-15445436D01*
X12390920Y-15445436D02*
X12381396Y-15454960D01*
X12381396Y-15454960D02*
X12362348Y-15464484D01*
X12362348Y-15464484D02*
X12343301Y-15464484D01*
X12343301Y-15464484D02*
X12324253Y-15454960D01*
X12324253Y-15454960D02*
X12314729Y-15445436D01*
X12314729Y-15445436D02*
X12305206Y-15426388D01*
X12305206Y-15426388D02*
X12295682Y-15388293D01*
X12295682Y-15388293D02*
X12295682Y-15340674D01*
X12295682Y-15340674D02*
X12305206Y-15302579D01*
X12305206Y-15302579D02*
X12314729Y-15283531D01*
X12314729Y-15283531D02*
X12324253Y-15274008D01*
X12324253Y-15274008D02*
X12343301Y-15264484D01*
X12533777Y-15264484D02*
X12552825Y-15264484D01*
X12552825Y-15264484D02*
X12571872Y-15274008D01*
X12571872Y-15274008D02*
X12581396Y-15283531D01*
X12581396Y-15283531D02*
X12590920Y-15302579D01*
X12590920Y-15302579D02*
X12600444Y-15340674D01*
X12600444Y-15340674D02*
X12600444Y-15388293D01*
X12600444Y-15388293D02*
X12590920Y-15426388D01*
X12590920Y-15426388D02*
X12581396Y-15445436D01*
X12581396Y-15445436D02*
X12571872Y-15454960D01*
X12571872Y-15454960D02*
X12552825Y-15464484D01*
X12552825Y-15464484D02*
X12533777Y-15464484D01*
X12533777Y-15464484D02*
X12514729Y-15454960D01*
X12514729Y-15454960D02*
X12505206Y-15445436D01*
X12505206Y-15445436D02*
X12495682Y-15426388D01*
X12495682Y-15426388D02*
X12486158Y-15388293D01*
X12486158Y-15388293D02*
X12486158Y-15340674D01*
X12486158Y-15340674D02*
X12495682Y-15302579D01*
X12495682Y-15302579D02*
X12505206Y-15283531D01*
X12505206Y-15283531D02*
X12514729Y-15274008D01*
X12514729Y-15274008D02*
X12533777Y-15264484D01*
X12676634Y-15264484D02*
X12676634Y-15302579D01*
X12752825Y-15264484D02*
X12752825Y-15302579D01*
X13048063Y-15540674D02*
X13038539Y-15531150D01*
X13038539Y-15531150D02*
X13019491Y-15502579D01*
X13019491Y-15502579D02*
X13009968Y-15483531D01*
X13009968Y-15483531D02*
X13000444Y-15454960D01*
X13000444Y-15454960D02*
X12990920Y-15407341D01*
X12990920Y-15407341D02*
X12990920Y-15369246D01*
X12990920Y-15369246D02*
X13000444Y-15321627D01*
X13000444Y-15321627D02*
X13009968Y-15293055D01*
X13009968Y-15293055D02*
X13019491Y-15274008D01*
X13019491Y-15274008D02*
X13038539Y-15245436D01*
X13038539Y-15245436D02*
X13048063Y-15235912D01*
X13209968Y-15331150D02*
X13209968Y-15464484D01*
X13162348Y-15254960D02*
X13114729Y-15397817D01*
X13114729Y-15397817D02*
X13238539Y-15397817D01*
X13467110Y-15464484D02*
X13467110Y-15264484D01*
X13552825Y-15464484D02*
X13552825Y-15359722D01*
X13552825Y-15359722D02*
X13543301Y-15340674D01*
X13543301Y-15340674D02*
X13524253Y-15331150D01*
X13524253Y-15331150D02*
X13495682Y-15331150D01*
X13495682Y-15331150D02*
X13476634Y-15340674D01*
X13476634Y-15340674D02*
X13467110Y-15350198D01*
X13676634Y-15464484D02*
X13657587Y-15454960D01*
X13657587Y-15454960D02*
X13648063Y-15445436D01*
X13648063Y-15445436D02*
X13638539Y-15426388D01*
X13638539Y-15426388D02*
X13638539Y-15369246D01*
X13638539Y-15369246D02*
X13648063Y-15350198D01*
X13648063Y-15350198D02*
X13657587Y-15340674D01*
X13657587Y-15340674D02*
X13676634Y-15331150D01*
X13676634Y-15331150D02*
X13705206Y-15331150D01*
X13705206Y-15331150D02*
X13724253Y-15340674D01*
X13724253Y-15340674D02*
X13733777Y-15350198D01*
X13733777Y-15350198D02*
X13743301Y-15369246D01*
X13743301Y-15369246D02*
X13743301Y-15426388D01*
X13743301Y-15426388D02*
X13733777Y-15445436D01*
X13733777Y-15445436D02*
X13724253Y-15454960D01*
X13724253Y-15454960D02*
X13705206Y-15464484D01*
X13705206Y-15464484D02*
X13676634Y-15464484D01*
X13857587Y-15464484D02*
X13838539Y-15454960D01*
X13838539Y-15454960D02*
X13829015Y-15435912D01*
X13829015Y-15435912D02*
X13829015Y-15264484D01*
X14009968Y-15454960D02*
X13990920Y-15464484D01*
X13990920Y-15464484D02*
X13952825Y-15464484D01*
X13952825Y-15464484D02*
X13933777Y-15454960D01*
X13933777Y-15454960D02*
X13924253Y-15435912D01*
X13924253Y-15435912D02*
X13924253Y-15359722D01*
X13924253Y-15359722D02*
X13933777Y-15340674D01*
X13933777Y-15340674D02*
X13952825Y-15331150D01*
X13952825Y-15331150D02*
X13990920Y-15331150D01*
X13990920Y-15331150D02*
X14009968Y-15340674D01*
X14009968Y-15340674D02*
X14019491Y-15359722D01*
X14019491Y-15359722D02*
X14019491Y-15378769D01*
X14019491Y-15378769D02*
X13924253Y-15397817D01*
X14095682Y-15454960D02*
X14114730Y-15464484D01*
X14114730Y-15464484D02*
X14152825Y-15464484D01*
X14152825Y-15464484D02*
X14171872Y-15454960D01*
X14171872Y-15454960D02*
X14181396Y-15435912D01*
X14181396Y-15435912D02*
X14181396Y-15426388D01*
X14181396Y-15426388D02*
X14171872Y-15407341D01*
X14171872Y-15407341D02*
X14152825Y-15397817D01*
X14152825Y-15397817D02*
X14124253Y-15397817D01*
X14124253Y-15397817D02*
X14105206Y-15388293D01*
X14105206Y-15388293D02*
X14095682Y-15369246D01*
X14095682Y-15369246D02*
X14095682Y-15359722D01*
X14095682Y-15359722D02*
X14105206Y-15340674D01*
X14105206Y-15340674D02*
X14124253Y-15331150D01*
X14124253Y-15331150D02*
X14152825Y-15331150D01*
X14152825Y-15331150D02*
X14171872Y-15340674D01*
X14248063Y-15540674D02*
X14257587Y-15531150D01*
X14257587Y-15531150D02*
X14276634Y-15502579D01*
X14276634Y-15502579D02*
X14286158Y-15483531D01*
X14286158Y-15483531D02*
X14295682Y-15454960D01*
X14295682Y-15454960D02*
X14305206Y-15407341D01*
X14305206Y-15407341D02*
X14305206Y-15369246D01*
X14305206Y-15369246D02*
X14295682Y-15321627D01*
X14295682Y-15321627D02*
X14286158Y-15293055D01*
X14286158Y-15293055D02*
X14276634Y-15274008D01*
X14276634Y-15274008D02*
X14257587Y-15245436D01*
X14257587Y-15245436D02*
X14248063Y-15235912D01*
D15*
X9459820Y-15668820D02*
X9459820Y-15605180D01*
X9396180Y-15605180D01*
X9396180Y-15668820D01*
X9459820Y-15668820D01*
D11*
X9771872Y-15528484D02*
X9790920Y-15528484D01*
X9790920Y-15528484D02*
X9809967Y-15538008D01*
X9809967Y-15538008D02*
X9819491Y-15547531D01*
X9819491Y-15547531D02*
X9829015Y-15566579D01*
X9829015Y-15566579D02*
X9838539Y-15604674D01*
X9838539Y-15604674D02*
X9838539Y-15652293D01*
X9838539Y-15652293D02*
X9829015Y-15690388D01*
X9829015Y-15690388D02*
X9819491Y-15709436D01*
X9819491Y-15709436D02*
X9809967Y-15718960D01*
X9809967Y-15718960D02*
X9790920Y-15728484D01*
X9790920Y-15728484D02*
X9771872Y-15728484D01*
X9771872Y-15728484D02*
X9752824Y-15718960D01*
X9752824Y-15718960D02*
X9743301Y-15709436D01*
X9743301Y-15709436D02*
X9733777Y-15690388D01*
X9733777Y-15690388D02*
X9724253Y-15652293D01*
X9724253Y-15652293D02*
X9724253Y-15604674D01*
X9724253Y-15604674D02*
X9733777Y-15566579D01*
X9733777Y-15566579D02*
X9743301Y-15547531D01*
X9743301Y-15547531D02*
X9752824Y-15538008D01*
X9752824Y-15538008D02*
X9771872Y-15528484D01*
X9924253Y-15709436D02*
X9933777Y-15718960D01*
X9933777Y-15718960D02*
X9924253Y-15728484D01*
X9924253Y-15728484D02*
X9914729Y-15718960D01*
X9914729Y-15718960D02*
X9924253Y-15709436D01*
X9924253Y-15709436D02*
X9924253Y-15728484D01*
X10029015Y-15728484D02*
X10067110Y-15728484D01*
X10067110Y-15728484D02*
X10086158Y-15718960D01*
X10086158Y-15718960D02*
X10095682Y-15709436D01*
X10095682Y-15709436D02*
X10114729Y-15680865D01*
X10114729Y-15680865D02*
X10124253Y-15642769D01*
X10124253Y-15642769D02*
X10124253Y-15566579D01*
X10124253Y-15566579D02*
X10114729Y-15547531D01*
X10114729Y-15547531D02*
X10105205Y-15538008D01*
X10105205Y-15538008D02*
X10086158Y-15528484D01*
X10086158Y-15528484D02*
X10048063Y-15528484D01*
X10048063Y-15528484D02*
X10029015Y-15538008D01*
X10029015Y-15538008D02*
X10019491Y-15547531D01*
X10019491Y-15547531D02*
X10009967Y-15566579D01*
X10009967Y-15566579D02*
X10009967Y-15614198D01*
X10009967Y-15614198D02*
X10019491Y-15633246D01*
X10019491Y-15633246D02*
X10029015Y-15642769D01*
X10029015Y-15642769D02*
X10048063Y-15652293D01*
X10048063Y-15652293D02*
X10086158Y-15652293D01*
X10086158Y-15652293D02*
X10105205Y-15642769D01*
X10105205Y-15642769D02*
X10114729Y-15633246D01*
X10114729Y-15633246D02*
X10124253Y-15614198D01*
X10248063Y-15528484D02*
X10267110Y-15528484D01*
X10267110Y-15528484D02*
X10286158Y-15538008D01*
X10286158Y-15538008D02*
X10295682Y-15547531D01*
X10295682Y-15547531D02*
X10305205Y-15566579D01*
X10305205Y-15566579D02*
X10314729Y-15604674D01*
X10314729Y-15604674D02*
X10314729Y-15652293D01*
X10314729Y-15652293D02*
X10305205Y-15690388D01*
X10305205Y-15690388D02*
X10295682Y-15709436D01*
X10295682Y-15709436D02*
X10286158Y-15718960D01*
X10286158Y-15718960D02*
X10267110Y-15728484D01*
X10267110Y-15728484D02*
X10248063Y-15728484D01*
X10248063Y-15728484D02*
X10229015Y-15718960D01*
X10229015Y-15718960D02*
X10219491Y-15709436D01*
X10219491Y-15709436D02*
X10209967Y-15690388D01*
X10209967Y-15690388D02*
X10200444Y-15652293D01*
X10200444Y-15652293D02*
X10200444Y-15604674D01*
X10200444Y-15604674D02*
X10209967Y-15566579D01*
X10209967Y-15566579D02*
X10219491Y-15547531D01*
X10219491Y-15547531D02*
X10229015Y-15538008D01*
X10229015Y-15538008D02*
X10248063Y-15528484D01*
X10438539Y-15528484D02*
X10457586Y-15528484D01*
X10457586Y-15528484D02*
X10476634Y-15538008D01*
X10476634Y-15538008D02*
X10486158Y-15547531D01*
X10486158Y-15547531D02*
X10495682Y-15566579D01*
X10495682Y-15566579D02*
X10505205Y-15604674D01*
X10505205Y-15604674D02*
X10505205Y-15652293D01*
X10505205Y-15652293D02*
X10495682Y-15690388D01*
X10495682Y-15690388D02*
X10486158Y-15709436D01*
X10486158Y-15709436D02*
X10476634Y-15718960D01*
X10476634Y-15718960D02*
X10457586Y-15728484D01*
X10457586Y-15728484D02*
X10438539Y-15728484D01*
X10438539Y-15728484D02*
X10419491Y-15718960D01*
X10419491Y-15718960D02*
X10409967Y-15709436D01*
X10409967Y-15709436D02*
X10400444Y-15690388D01*
X10400444Y-15690388D02*
X10390920Y-15652293D01*
X10390920Y-15652293D02*
X10390920Y-15604674D01*
X10390920Y-15604674D02*
X10400444Y-15566579D01*
X10400444Y-15566579D02*
X10409967Y-15547531D01*
X10409967Y-15547531D02*
X10419491Y-15538008D01*
X10419491Y-15538008D02*
X10438539Y-15528484D01*
X10590920Y-15728484D02*
X10590920Y-15595150D01*
X10590920Y-15614198D02*
X10600444Y-15604674D01*
X10600444Y-15604674D02*
X10619491Y-15595150D01*
X10619491Y-15595150D02*
X10648063Y-15595150D01*
X10648063Y-15595150D02*
X10667110Y-15604674D01*
X10667110Y-15604674D02*
X10676634Y-15623722D01*
X10676634Y-15623722D02*
X10676634Y-15728484D01*
X10676634Y-15623722D02*
X10686158Y-15604674D01*
X10686158Y-15604674D02*
X10705205Y-15595150D01*
X10705205Y-15595150D02*
X10733777Y-15595150D01*
X10733777Y-15595150D02*
X10752825Y-15604674D01*
X10752825Y-15604674D02*
X10762348Y-15623722D01*
X10762348Y-15623722D02*
X10762348Y-15728484D01*
X10857586Y-15728484D02*
X10857586Y-15595150D01*
X10857586Y-15614198D02*
X10867110Y-15604674D01*
X10867110Y-15604674D02*
X10886158Y-15595150D01*
X10886158Y-15595150D02*
X10914729Y-15595150D01*
X10914729Y-15595150D02*
X10933777Y-15604674D01*
X10933777Y-15604674D02*
X10943301Y-15623722D01*
X10943301Y-15623722D02*
X10943301Y-15728484D01*
X10943301Y-15623722D02*
X10952825Y-15604674D01*
X10952825Y-15604674D02*
X10971872Y-15595150D01*
X10971872Y-15595150D02*
X11000444Y-15595150D01*
X11000444Y-15595150D02*
X11019491Y-15604674D01*
X11019491Y-15604674D02*
X11029015Y-15623722D01*
X11029015Y-15623722D02*
X11029015Y-15728484D01*
X11419491Y-15518960D02*
X11248063Y-15776103D01*
X11676634Y-15528484D02*
X11695682Y-15528484D01*
X11695682Y-15528484D02*
X11714729Y-15538008D01*
X11714729Y-15538008D02*
X11724253Y-15547531D01*
X11724253Y-15547531D02*
X11733777Y-15566579D01*
X11733777Y-15566579D02*
X11743301Y-15604674D01*
X11743301Y-15604674D02*
X11743301Y-15652293D01*
X11743301Y-15652293D02*
X11733777Y-15690388D01*
X11733777Y-15690388D02*
X11724253Y-15709436D01*
X11724253Y-15709436D02*
X11714729Y-15718960D01*
X11714729Y-15718960D02*
X11695682Y-15728484D01*
X11695682Y-15728484D02*
X11676634Y-15728484D01*
X11676634Y-15728484D02*
X11657586Y-15718960D01*
X11657586Y-15718960D02*
X11648063Y-15709436D01*
X11648063Y-15709436D02*
X11638539Y-15690388D01*
X11638539Y-15690388D02*
X11629015Y-15652293D01*
X11629015Y-15652293D02*
X11629015Y-15604674D01*
X11629015Y-15604674D02*
X11638539Y-15566579D01*
X11638539Y-15566579D02*
X11648063Y-15547531D01*
X11648063Y-15547531D02*
X11657586Y-15538008D01*
X11657586Y-15538008D02*
X11676634Y-15528484D01*
X11829015Y-15709436D02*
X11838539Y-15718960D01*
X11838539Y-15718960D02*
X11829015Y-15728484D01*
X11829015Y-15728484D02*
X11819491Y-15718960D01*
X11819491Y-15718960D02*
X11829015Y-15709436D01*
X11829015Y-15709436D02*
X11829015Y-15728484D01*
X11962348Y-15528484D02*
X11981396Y-15528484D01*
X11981396Y-15528484D02*
X12000444Y-15538008D01*
X12000444Y-15538008D02*
X12009967Y-15547531D01*
X12009967Y-15547531D02*
X12019491Y-15566579D01*
X12019491Y-15566579D02*
X12029015Y-15604674D01*
X12029015Y-15604674D02*
X12029015Y-15652293D01*
X12029015Y-15652293D02*
X12019491Y-15690388D01*
X12019491Y-15690388D02*
X12009967Y-15709436D01*
X12009967Y-15709436D02*
X12000444Y-15718960D01*
X12000444Y-15718960D02*
X11981396Y-15728484D01*
X11981396Y-15728484D02*
X11962348Y-15728484D01*
X11962348Y-15728484D02*
X11943301Y-15718960D01*
X11943301Y-15718960D02*
X11933777Y-15709436D01*
X11933777Y-15709436D02*
X11924253Y-15690388D01*
X11924253Y-15690388D02*
X11914729Y-15652293D01*
X11914729Y-15652293D02*
X11914729Y-15604674D01*
X11914729Y-15604674D02*
X11924253Y-15566579D01*
X11924253Y-15566579D02*
X11933777Y-15547531D01*
X11933777Y-15547531D02*
X11943301Y-15538008D01*
X11943301Y-15538008D02*
X11962348Y-15528484D01*
X12095682Y-15528484D02*
X12219491Y-15528484D01*
X12219491Y-15528484D02*
X12152825Y-15604674D01*
X12152825Y-15604674D02*
X12181396Y-15604674D01*
X12181396Y-15604674D02*
X12200444Y-15614198D01*
X12200444Y-15614198D02*
X12209967Y-15623722D01*
X12209967Y-15623722D02*
X12219491Y-15642769D01*
X12219491Y-15642769D02*
X12219491Y-15690388D01*
X12219491Y-15690388D02*
X12209967Y-15709436D01*
X12209967Y-15709436D02*
X12200444Y-15718960D01*
X12200444Y-15718960D02*
X12181396Y-15728484D01*
X12181396Y-15728484D02*
X12124253Y-15728484D01*
X12124253Y-15728484D02*
X12105206Y-15718960D01*
X12105206Y-15718960D02*
X12095682Y-15709436D01*
X12400444Y-15528484D02*
X12305206Y-15528484D01*
X12305206Y-15528484D02*
X12295682Y-15623722D01*
X12295682Y-15623722D02*
X12305206Y-15614198D01*
X12305206Y-15614198D02*
X12324253Y-15604674D01*
X12324253Y-15604674D02*
X12371872Y-15604674D01*
X12371872Y-15604674D02*
X12390920Y-15614198D01*
X12390920Y-15614198D02*
X12400444Y-15623722D01*
X12400444Y-15623722D02*
X12409967Y-15642769D01*
X12409967Y-15642769D02*
X12409967Y-15690388D01*
X12409967Y-15690388D02*
X12400444Y-15709436D01*
X12400444Y-15709436D02*
X12390920Y-15718960D01*
X12390920Y-15718960D02*
X12371872Y-15728484D01*
X12371872Y-15728484D02*
X12324253Y-15728484D01*
X12324253Y-15728484D02*
X12305206Y-15718960D01*
X12305206Y-15718960D02*
X12295682Y-15709436D01*
X12581396Y-15595150D02*
X12581396Y-15728484D01*
X12533777Y-15518960D02*
X12486158Y-15661817D01*
X12486158Y-15661817D02*
X12609967Y-15661817D01*
X12676634Y-15528484D02*
X12676634Y-15566579D01*
X12752825Y-15528484D02*
X12752825Y-15566579D01*
X13048063Y-15804674D02*
X13038539Y-15795150D01*
X13038539Y-15795150D02*
X13019491Y-15766579D01*
X13019491Y-15766579D02*
X13009968Y-15747531D01*
X13009968Y-15747531D02*
X13000444Y-15718960D01*
X13000444Y-15718960D02*
X12990920Y-15671341D01*
X12990920Y-15671341D02*
X12990920Y-15633246D01*
X12990920Y-15633246D02*
X13000444Y-15585627D01*
X13000444Y-15585627D02*
X13009968Y-15557055D01*
X13009968Y-15557055D02*
X13019491Y-15538008D01*
X13019491Y-15538008D02*
X13038539Y-15509436D01*
X13038539Y-15509436D02*
X13048063Y-15499912D01*
X13105206Y-15528484D02*
X13229015Y-15528484D01*
X13229015Y-15528484D02*
X13162348Y-15604674D01*
X13162348Y-15604674D02*
X13190920Y-15604674D01*
X13190920Y-15604674D02*
X13209968Y-15614198D01*
X13209968Y-15614198D02*
X13219491Y-15623722D01*
X13219491Y-15623722D02*
X13229015Y-15642769D01*
X13229015Y-15642769D02*
X13229015Y-15690388D01*
X13229015Y-15690388D02*
X13219491Y-15709436D01*
X13219491Y-15709436D02*
X13209968Y-15718960D01*
X13209968Y-15718960D02*
X13190920Y-15728484D01*
X13190920Y-15728484D02*
X13133777Y-15728484D01*
X13133777Y-15728484D02*
X13114729Y-15718960D01*
X13114729Y-15718960D02*
X13105206Y-15709436D01*
X13467110Y-15728484D02*
X13467110Y-15528484D01*
X13552825Y-15728484D02*
X13552825Y-15623722D01*
X13552825Y-15623722D02*
X13543301Y-15604674D01*
X13543301Y-15604674D02*
X13524253Y-15595150D01*
X13524253Y-15595150D02*
X13495682Y-15595150D01*
X13495682Y-15595150D02*
X13476634Y-15604674D01*
X13476634Y-15604674D02*
X13467110Y-15614198D01*
X13676634Y-15728484D02*
X13657587Y-15718960D01*
X13657587Y-15718960D02*
X13648063Y-15709436D01*
X13648063Y-15709436D02*
X13638539Y-15690388D01*
X13638539Y-15690388D02*
X13638539Y-15633246D01*
X13638539Y-15633246D02*
X13648063Y-15614198D01*
X13648063Y-15614198D02*
X13657587Y-15604674D01*
X13657587Y-15604674D02*
X13676634Y-15595150D01*
X13676634Y-15595150D02*
X13705206Y-15595150D01*
X13705206Y-15595150D02*
X13724253Y-15604674D01*
X13724253Y-15604674D02*
X13733777Y-15614198D01*
X13733777Y-15614198D02*
X13743301Y-15633246D01*
X13743301Y-15633246D02*
X13743301Y-15690388D01*
X13743301Y-15690388D02*
X13733777Y-15709436D01*
X13733777Y-15709436D02*
X13724253Y-15718960D01*
X13724253Y-15718960D02*
X13705206Y-15728484D01*
X13705206Y-15728484D02*
X13676634Y-15728484D01*
X13857587Y-15728484D02*
X13838539Y-15718960D01*
X13838539Y-15718960D02*
X13829015Y-15699912D01*
X13829015Y-15699912D02*
X13829015Y-15528484D01*
X14009968Y-15718960D02*
X13990920Y-15728484D01*
X13990920Y-15728484D02*
X13952825Y-15728484D01*
X13952825Y-15728484D02*
X13933777Y-15718960D01*
X13933777Y-15718960D02*
X13924253Y-15699912D01*
X13924253Y-15699912D02*
X13924253Y-15623722D01*
X13924253Y-15623722D02*
X13933777Y-15604674D01*
X13933777Y-15604674D02*
X13952825Y-15595150D01*
X13952825Y-15595150D02*
X13990920Y-15595150D01*
X13990920Y-15595150D02*
X14009968Y-15604674D01*
X14009968Y-15604674D02*
X14019491Y-15623722D01*
X14019491Y-15623722D02*
X14019491Y-15642769D01*
X14019491Y-15642769D02*
X13924253Y-15661817D01*
X14095682Y-15718960D02*
X14114730Y-15728484D01*
X14114730Y-15728484D02*
X14152825Y-15728484D01*
X14152825Y-15728484D02*
X14171872Y-15718960D01*
X14171872Y-15718960D02*
X14181396Y-15699912D01*
X14181396Y-15699912D02*
X14181396Y-15690388D01*
X14181396Y-15690388D02*
X14171872Y-15671341D01*
X14171872Y-15671341D02*
X14152825Y-15661817D01*
X14152825Y-15661817D02*
X14124253Y-15661817D01*
X14124253Y-15661817D02*
X14105206Y-15652293D01*
X14105206Y-15652293D02*
X14095682Y-15633246D01*
X14095682Y-15633246D02*
X14095682Y-15623722D01*
X14095682Y-15623722D02*
X14105206Y-15604674D01*
X14105206Y-15604674D02*
X14124253Y-15595150D01*
X14124253Y-15595150D02*
X14152825Y-15595150D01*
X14152825Y-15595150D02*
X14171872Y-15604674D01*
X14248063Y-15804674D02*
X14257587Y-15795150D01*
X14257587Y-15795150D02*
X14276634Y-15766579D01*
X14276634Y-15766579D02*
X14286158Y-15747531D01*
X14286158Y-15747531D02*
X14295682Y-15718960D01*
X14295682Y-15718960D02*
X14305206Y-15671341D01*
X14305206Y-15671341D02*
X14305206Y-15633246D01*
X14305206Y-15633246D02*
X14295682Y-15585627D01*
X14295682Y-15585627D02*
X14286158Y-15557055D01*
X14286158Y-15557055D02*
X14276634Y-15538008D01*
X14276634Y-15538008D02*
X14257587Y-15509436D01*
X14257587Y-15509436D02*
X14248063Y-15499912D01*
D10*
X9423000Y-15951000D02*
X9473000Y-15901000D01*
X9423000Y-15851000D01*
X9373000Y-15901000D01*
X9423000Y-15951000D01*
D11*
X9838539Y-15992484D02*
X9724253Y-15992484D01*
X9781396Y-15992484D02*
X9781396Y-15792484D01*
X9781396Y-15792484D02*
X9762348Y-15821055D01*
X9762348Y-15821055D02*
X9743301Y-15840103D01*
X9743301Y-15840103D02*
X9724253Y-15849627D01*
X9924253Y-15973436D02*
X9933777Y-15982960D01*
X9933777Y-15982960D02*
X9924253Y-15992484D01*
X9924253Y-15992484D02*
X9914729Y-15982960D01*
X9914729Y-15982960D02*
X9924253Y-15973436D01*
X9924253Y-15973436D02*
X9924253Y-15992484D01*
X10057586Y-15792484D02*
X10076634Y-15792484D01*
X10076634Y-15792484D02*
X10095682Y-15802008D01*
X10095682Y-15802008D02*
X10105205Y-15811531D01*
X10105205Y-15811531D02*
X10114729Y-15830579D01*
X10114729Y-15830579D02*
X10124253Y-15868674D01*
X10124253Y-15868674D02*
X10124253Y-15916293D01*
X10124253Y-15916293D02*
X10114729Y-15954388D01*
X10114729Y-15954388D02*
X10105205Y-15973436D01*
X10105205Y-15973436D02*
X10095682Y-15982960D01*
X10095682Y-15982960D02*
X10076634Y-15992484D01*
X10076634Y-15992484D02*
X10057586Y-15992484D01*
X10057586Y-15992484D02*
X10038539Y-15982960D01*
X10038539Y-15982960D02*
X10029015Y-15973436D01*
X10029015Y-15973436D02*
X10019491Y-15954388D01*
X10019491Y-15954388D02*
X10009967Y-15916293D01*
X10009967Y-15916293D02*
X10009967Y-15868674D01*
X10009967Y-15868674D02*
X10019491Y-15830579D01*
X10019491Y-15830579D02*
X10029015Y-15811531D01*
X10029015Y-15811531D02*
X10038539Y-15802008D01*
X10038539Y-15802008D02*
X10057586Y-15792484D01*
X10248063Y-15792484D02*
X10267110Y-15792484D01*
X10267110Y-15792484D02*
X10286158Y-15802008D01*
X10286158Y-15802008D02*
X10295682Y-15811531D01*
X10295682Y-15811531D02*
X10305205Y-15830579D01*
X10305205Y-15830579D02*
X10314729Y-15868674D01*
X10314729Y-15868674D02*
X10314729Y-15916293D01*
X10314729Y-15916293D02*
X10305205Y-15954388D01*
X10305205Y-15954388D02*
X10295682Y-15973436D01*
X10295682Y-15973436D02*
X10286158Y-15982960D01*
X10286158Y-15982960D02*
X10267110Y-15992484D01*
X10267110Y-15992484D02*
X10248063Y-15992484D01*
X10248063Y-15992484D02*
X10229015Y-15982960D01*
X10229015Y-15982960D02*
X10219491Y-15973436D01*
X10219491Y-15973436D02*
X10209967Y-15954388D01*
X10209967Y-15954388D02*
X10200444Y-15916293D01*
X10200444Y-15916293D02*
X10200444Y-15868674D01*
X10200444Y-15868674D02*
X10209967Y-15830579D01*
X10209967Y-15830579D02*
X10219491Y-15811531D01*
X10219491Y-15811531D02*
X10229015Y-15802008D01*
X10229015Y-15802008D02*
X10248063Y-15792484D01*
X10438539Y-15792484D02*
X10457586Y-15792484D01*
X10457586Y-15792484D02*
X10476634Y-15802008D01*
X10476634Y-15802008D02*
X10486158Y-15811531D01*
X10486158Y-15811531D02*
X10495682Y-15830579D01*
X10495682Y-15830579D02*
X10505205Y-15868674D01*
X10505205Y-15868674D02*
X10505205Y-15916293D01*
X10505205Y-15916293D02*
X10495682Y-15954388D01*
X10495682Y-15954388D02*
X10486158Y-15973436D01*
X10486158Y-15973436D02*
X10476634Y-15982960D01*
X10476634Y-15982960D02*
X10457586Y-15992484D01*
X10457586Y-15992484D02*
X10438539Y-15992484D01*
X10438539Y-15992484D02*
X10419491Y-15982960D01*
X10419491Y-15982960D02*
X10409967Y-15973436D01*
X10409967Y-15973436D02*
X10400444Y-15954388D01*
X10400444Y-15954388D02*
X10390920Y-15916293D01*
X10390920Y-15916293D02*
X10390920Y-15868674D01*
X10390920Y-15868674D02*
X10400444Y-15830579D01*
X10400444Y-15830579D02*
X10409967Y-15811531D01*
X10409967Y-15811531D02*
X10419491Y-15802008D01*
X10419491Y-15802008D02*
X10438539Y-15792484D01*
X10590920Y-15992484D02*
X10590920Y-15859150D01*
X10590920Y-15878198D02*
X10600444Y-15868674D01*
X10600444Y-15868674D02*
X10619491Y-15859150D01*
X10619491Y-15859150D02*
X10648063Y-15859150D01*
X10648063Y-15859150D02*
X10667110Y-15868674D01*
X10667110Y-15868674D02*
X10676634Y-15887722D01*
X10676634Y-15887722D02*
X10676634Y-15992484D01*
X10676634Y-15887722D02*
X10686158Y-15868674D01*
X10686158Y-15868674D02*
X10705205Y-15859150D01*
X10705205Y-15859150D02*
X10733777Y-15859150D01*
X10733777Y-15859150D02*
X10752825Y-15868674D01*
X10752825Y-15868674D02*
X10762348Y-15887722D01*
X10762348Y-15887722D02*
X10762348Y-15992484D01*
X10857586Y-15992484D02*
X10857586Y-15859150D01*
X10857586Y-15878198D02*
X10867110Y-15868674D01*
X10867110Y-15868674D02*
X10886158Y-15859150D01*
X10886158Y-15859150D02*
X10914729Y-15859150D01*
X10914729Y-15859150D02*
X10933777Y-15868674D01*
X10933777Y-15868674D02*
X10943301Y-15887722D01*
X10943301Y-15887722D02*
X10943301Y-15992484D01*
X10943301Y-15887722D02*
X10952825Y-15868674D01*
X10952825Y-15868674D02*
X10971872Y-15859150D01*
X10971872Y-15859150D02*
X11000444Y-15859150D01*
X11000444Y-15859150D02*
X11019491Y-15868674D01*
X11019491Y-15868674D02*
X11029015Y-15887722D01*
X11029015Y-15887722D02*
X11029015Y-15992484D01*
X11419491Y-15782960D02*
X11248063Y-16040103D01*
X11676634Y-15792484D02*
X11695682Y-15792484D01*
X11695682Y-15792484D02*
X11714729Y-15802008D01*
X11714729Y-15802008D02*
X11724253Y-15811531D01*
X11724253Y-15811531D02*
X11733777Y-15830579D01*
X11733777Y-15830579D02*
X11743301Y-15868674D01*
X11743301Y-15868674D02*
X11743301Y-15916293D01*
X11743301Y-15916293D02*
X11733777Y-15954388D01*
X11733777Y-15954388D02*
X11724253Y-15973436D01*
X11724253Y-15973436D02*
X11714729Y-15982960D01*
X11714729Y-15982960D02*
X11695682Y-15992484D01*
X11695682Y-15992484D02*
X11676634Y-15992484D01*
X11676634Y-15992484D02*
X11657586Y-15982960D01*
X11657586Y-15982960D02*
X11648063Y-15973436D01*
X11648063Y-15973436D02*
X11638539Y-15954388D01*
X11638539Y-15954388D02*
X11629015Y-15916293D01*
X11629015Y-15916293D02*
X11629015Y-15868674D01*
X11629015Y-15868674D02*
X11638539Y-15830579D01*
X11638539Y-15830579D02*
X11648063Y-15811531D01*
X11648063Y-15811531D02*
X11657586Y-15802008D01*
X11657586Y-15802008D02*
X11676634Y-15792484D01*
X11829015Y-15973436D02*
X11838539Y-15982960D01*
X11838539Y-15982960D02*
X11829015Y-15992484D01*
X11829015Y-15992484D02*
X11819491Y-15982960D01*
X11819491Y-15982960D02*
X11829015Y-15973436D01*
X11829015Y-15973436D02*
X11829015Y-15992484D01*
X11962348Y-15792484D02*
X11981396Y-15792484D01*
X11981396Y-15792484D02*
X12000444Y-15802008D01*
X12000444Y-15802008D02*
X12009967Y-15811531D01*
X12009967Y-15811531D02*
X12019491Y-15830579D01*
X12019491Y-15830579D02*
X12029015Y-15868674D01*
X12029015Y-15868674D02*
X12029015Y-15916293D01*
X12029015Y-15916293D02*
X12019491Y-15954388D01*
X12019491Y-15954388D02*
X12009967Y-15973436D01*
X12009967Y-15973436D02*
X12000444Y-15982960D01*
X12000444Y-15982960D02*
X11981396Y-15992484D01*
X11981396Y-15992484D02*
X11962348Y-15992484D01*
X11962348Y-15992484D02*
X11943301Y-15982960D01*
X11943301Y-15982960D02*
X11933777Y-15973436D01*
X11933777Y-15973436D02*
X11924253Y-15954388D01*
X11924253Y-15954388D02*
X11914729Y-15916293D01*
X11914729Y-15916293D02*
X11914729Y-15868674D01*
X11914729Y-15868674D02*
X11924253Y-15830579D01*
X11924253Y-15830579D02*
X11933777Y-15811531D01*
X11933777Y-15811531D02*
X11943301Y-15802008D01*
X11943301Y-15802008D02*
X11962348Y-15792484D01*
X12095682Y-15792484D02*
X12219491Y-15792484D01*
X12219491Y-15792484D02*
X12152825Y-15868674D01*
X12152825Y-15868674D02*
X12181396Y-15868674D01*
X12181396Y-15868674D02*
X12200444Y-15878198D01*
X12200444Y-15878198D02*
X12209967Y-15887722D01*
X12209967Y-15887722D02*
X12219491Y-15906769D01*
X12219491Y-15906769D02*
X12219491Y-15954388D01*
X12219491Y-15954388D02*
X12209967Y-15973436D01*
X12209967Y-15973436D02*
X12200444Y-15982960D01*
X12200444Y-15982960D02*
X12181396Y-15992484D01*
X12181396Y-15992484D02*
X12124253Y-15992484D01*
X12124253Y-15992484D02*
X12105206Y-15982960D01*
X12105206Y-15982960D02*
X12095682Y-15973436D01*
X12314729Y-15992484D02*
X12352825Y-15992484D01*
X12352825Y-15992484D02*
X12371872Y-15982960D01*
X12371872Y-15982960D02*
X12381396Y-15973436D01*
X12381396Y-15973436D02*
X12400444Y-15944865D01*
X12400444Y-15944865D02*
X12409967Y-15906769D01*
X12409967Y-15906769D02*
X12409967Y-15830579D01*
X12409967Y-15830579D02*
X12400444Y-15811531D01*
X12400444Y-15811531D02*
X12390920Y-15802008D01*
X12390920Y-15802008D02*
X12371872Y-15792484D01*
X12371872Y-15792484D02*
X12333777Y-15792484D01*
X12333777Y-15792484D02*
X12314729Y-15802008D01*
X12314729Y-15802008D02*
X12305206Y-15811531D01*
X12305206Y-15811531D02*
X12295682Y-15830579D01*
X12295682Y-15830579D02*
X12295682Y-15878198D01*
X12295682Y-15878198D02*
X12305206Y-15897246D01*
X12305206Y-15897246D02*
X12314729Y-15906769D01*
X12314729Y-15906769D02*
X12333777Y-15916293D01*
X12333777Y-15916293D02*
X12371872Y-15916293D01*
X12371872Y-15916293D02*
X12390920Y-15906769D01*
X12390920Y-15906769D02*
X12400444Y-15897246D01*
X12400444Y-15897246D02*
X12409967Y-15878198D01*
X12581396Y-15859150D02*
X12581396Y-15992484D01*
X12533777Y-15782960D02*
X12486158Y-15925817D01*
X12486158Y-15925817D02*
X12609967Y-15925817D01*
X12676634Y-15792484D02*
X12676634Y-15830579D01*
X12752825Y-15792484D02*
X12752825Y-15830579D01*
X13048063Y-16068674D02*
X13038539Y-16059150D01*
X13038539Y-16059150D02*
X13019491Y-16030579D01*
X13019491Y-16030579D02*
X13009968Y-16011531D01*
X13009968Y-16011531D02*
X13000444Y-15982960D01*
X13000444Y-15982960D02*
X12990920Y-15935341D01*
X12990920Y-15935341D02*
X12990920Y-15897246D01*
X12990920Y-15897246D02*
X13000444Y-15849627D01*
X13000444Y-15849627D02*
X13009968Y-15821055D01*
X13009968Y-15821055D02*
X13019491Y-15802008D01*
X13019491Y-15802008D02*
X13038539Y-15773436D01*
X13038539Y-15773436D02*
X13048063Y-15763912D01*
X13209968Y-15859150D02*
X13209968Y-15992484D01*
X13162348Y-15782960D02*
X13114729Y-15925817D01*
X13114729Y-15925817D02*
X13238539Y-15925817D01*
X13352825Y-15792484D02*
X13371872Y-15792484D01*
X13371872Y-15792484D02*
X13390920Y-15802008D01*
X13390920Y-15802008D02*
X13400444Y-15811531D01*
X13400444Y-15811531D02*
X13409968Y-15830579D01*
X13409968Y-15830579D02*
X13419491Y-15868674D01*
X13419491Y-15868674D02*
X13419491Y-15916293D01*
X13419491Y-15916293D02*
X13409968Y-15954388D01*
X13409968Y-15954388D02*
X13400444Y-15973436D01*
X13400444Y-15973436D02*
X13390920Y-15982960D01*
X13390920Y-15982960D02*
X13371872Y-15992484D01*
X13371872Y-15992484D02*
X13352825Y-15992484D01*
X13352825Y-15992484D02*
X13333777Y-15982960D01*
X13333777Y-15982960D02*
X13324253Y-15973436D01*
X13324253Y-15973436D02*
X13314729Y-15954388D01*
X13314729Y-15954388D02*
X13305206Y-15916293D01*
X13305206Y-15916293D02*
X13305206Y-15868674D01*
X13305206Y-15868674D02*
X13314729Y-15830579D01*
X13314729Y-15830579D02*
X13324253Y-15811531D01*
X13324253Y-15811531D02*
X13333777Y-15802008D01*
X13333777Y-15802008D02*
X13352825Y-15792484D01*
X13657587Y-15992484D02*
X13657587Y-15792484D01*
X13743301Y-15992484D02*
X13743301Y-15887722D01*
X13743301Y-15887722D02*
X13733777Y-15868674D01*
X13733777Y-15868674D02*
X13714730Y-15859150D01*
X13714730Y-15859150D02*
X13686158Y-15859150D01*
X13686158Y-15859150D02*
X13667110Y-15868674D01*
X13667110Y-15868674D02*
X13657587Y-15878198D01*
X13867110Y-15992484D02*
X13848063Y-15982960D01*
X13848063Y-15982960D02*
X13838539Y-15973436D01*
X13838539Y-15973436D02*
X13829015Y-15954388D01*
X13829015Y-15954388D02*
X13829015Y-15897246D01*
X13829015Y-15897246D02*
X13838539Y-15878198D01*
X13838539Y-15878198D02*
X13848063Y-15868674D01*
X13848063Y-15868674D02*
X13867110Y-15859150D01*
X13867110Y-15859150D02*
X13895682Y-15859150D01*
X13895682Y-15859150D02*
X13914730Y-15868674D01*
X13914730Y-15868674D02*
X13924253Y-15878198D01*
X13924253Y-15878198D02*
X13933777Y-15897246D01*
X13933777Y-15897246D02*
X13933777Y-15954388D01*
X13933777Y-15954388D02*
X13924253Y-15973436D01*
X13924253Y-15973436D02*
X13914730Y-15982960D01*
X13914730Y-15982960D02*
X13895682Y-15992484D01*
X13895682Y-15992484D02*
X13867110Y-15992484D01*
X14048063Y-15992484D02*
X14029015Y-15982960D01*
X14029015Y-15982960D02*
X14019491Y-15963912D01*
X14019491Y-15963912D02*
X14019491Y-15792484D01*
X14200444Y-15982960D02*
X14181396Y-15992484D01*
X14181396Y-15992484D02*
X14143301Y-15992484D01*
X14143301Y-15992484D02*
X14124253Y-15982960D01*
X14124253Y-15982960D02*
X14114730Y-15963912D01*
X14114730Y-15963912D02*
X14114730Y-15887722D01*
X14114730Y-15887722D02*
X14124253Y-15868674D01*
X14124253Y-15868674D02*
X14143301Y-15859150D01*
X14143301Y-15859150D02*
X14181396Y-15859150D01*
X14181396Y-15859150D02*
X14200444Y-15868674D01*
X14200444Y-15868674D02*
X14209968Y-15887722D01*
X14209968Y-15887722D02*
X14209968Y-15906769D01*
X14209968Y-15906769D02*
X14114730Y-15925817D01*
X14286158Y-15982960D02*
X14305206Y-15992484D01*
X14305206Y-15992484D02*
X14343301Y-15992484D01*
X14343301Y-15992484D02*
X14362349Y-15982960D01*
X14362349Y-15982960D02*
X14371872Y-15963912D01*
X14371872Y-15963912D02*
X14371872Y-15954388D01*
X14371872Y-15954388D02*
X14362349Y-15935341D01*
X14362349Y-15935341D02*
X14343301Y-15925817D01*
X14343301Y-15925817D02*
X14314730Y-15925817D01*
X14314730Y-15925817D02*
X14295682Y-15916293D01*
X14295682Y-15916293D02*
X14286158Y-15897246D01*
X14286158Y-15897246D02*
X14286158Y-15887722D01*
X14286158Y-15887722D02*
X14295682Y-15868674D01*
X14295682Y-15868674D02*
X14314730Y-15859150D01*
X14314730Y-15859150D02*
X14343301Y-15859150D01*
X14343301Y-15859150D02*
X14362349Y-15868674D01*
X14438539Y-16068674D02*
X14448063Y-16059150D01*
X14448063Y-16059150D02*
X14467111Y-16030579D01*
X14467111Y-16030579D02*
X14476634Y-16011531D01*
X14476634Y-16011531D02*
X14486158Y-15982960D01*
X14486158Y-15982960D02*
X14495682Y-15935341D01*
X14495682Y-15935341D02*
X14495682Y-15897246D01*
X14495682Y-15897246D02*
X14486158Y-15849627D01*
X14486158Y-15849627D02*
X14476634Y-15821055D01*
X14476634Y-15821055D02*
X14467111Y-15802008D01*
X14467111Y-15802008D02*
X14448063Y-15773436D01*
X14448063Y-15773436D02*
X14438539Y-15763912D01*
D16*
X9371000Y-16114000D02*
X9473000Y-16216000D01*
X9473000Y-16114000D02*
X9371000Y-16216000D01*
X9473000Y-16165000D02*
G75*
G03*
X9473000Y-16165000I-51000J0D01*
G01*
D11*
X9838539Y-16256484D02*
X9724253Y-16256484D01*
X9781396Y-16256484D02*
X9781396Y-16056484D01*
X9781396Y-16056484D02*
X9762348Y-16085055D01*
X9762348Y-16085055D02*
X9743301Y-16104103D01*
X9743301Y-16104103D02*
X9724253Y-16113627D01*
X9924253Y-16237436D02*
X9933777Y-16246960D01*
X9933777Y-16246960D02*
X9924253Y-16256484D01*
X9924253Y-16256484D02*
X9914729Y-16246960D01*
X9914729Y-16246960D02*
X9924253Y-16237436D01*
X9924253Y-16237436D02*
X9924253Y-16256484D01*
X10057586Y-16056484D02*
X10076634Y-16056484D01*
X10076634Y-16056484D02*
X10095682Y-16066008D01*
X10095682Y-16066008D02*
X10105205Y-16075531D01*
X10105205Y-16075531D02*
X10114729Y-16094579D01*
X10114729Y-16094579D02*
X10124253Y-16132674D01*
X10124253Y-16132674D02*
X10124253Y-16180293D01*
X10124253Y-16180293D02*
X10114729Y-16218388D01*
X10114729Y-16218388D02*
X10105205Y-16237436D01*
X10105205Y-16237436D02*
X10095682Y-16246960D01*
X10095682Y-16246960D02*
X10076634Y-16256484D01*
X10076634Y-16256484D02*
X10057586Y-16256484D01*
X10057586Y-16256484D02*
X10038539Y-16246960D01*
X10038539Y-16246960D02*
X10029015Y-16237436D01*
X10029015Y-16237436D02*
X10019491Y-16218388D01*
X10019491Y-16218388D02*
X10009967Y-16180293D01*
X10009967Y-16180293D02*
X10009967Y-16132674D01*
X10009967Y-16132674D02*
X10019491Y-16094579D01*
X10019491Y-16094579D02*
X10029015Y-16075531D01*
X10029015Y-16075531D02*
X10038539Y-16066008D01*
X10038539Y-16066008D02*
X10057586Y-16056484D01*
X10200444Y-16075531D02*
X10209967Y-16066008D01*
X10209967Y-16066008D02*
X10229015Y-16056484D01*
X10229015Y-16056484D02*
X10276634Y-16056484D01*
X10276634Y-16056484D02*
X10295682Y-16066008D01*
X10295682Y-16066008D02*
X10305205Y-16075531D01*
X10305205Y-16075531D02*
X10314729Y-16094579D01*
X10314729Y-16094579D02*
X10314729Y-16113627D01*
X10314729Y-16113627D02*
X10305205Y-16142198D01*
X10305205Y-16142198D02*
X10190920Y-16256484D01*
X10190920Y-16256484D02*
X10314729Y-16256484D01*
X10438539Y-16056484D02*
X10457586Y-16056484D01*
X10457586Y-16056484D02*
X10476634Y-16066008D01*
X10476634Y-16066008D02*
X10486158Y-16075531D01*
X10486158Y-16075531D02*
X10495682Y-16094579D01*
X10495682Y-16094579D02*
X10505205Y-16132674D01*
X10505205Y-16132674D02*
X10505205Y-16180293D01*
X10505205Y-16180293D02*
X10495682Y-16218388D01*
X10495682Y-16218388D02*
X10486158Y-16237436D01*
X10486158Y-16237436D02*
X10476634Y-16246960D01*
X10476634Y-16246960D02*
X10457586Y-16256484D01*
X10457586Y-16256484D02*
X10438539Y-16256484D01*
X10438539Y-16256484D02*
X10419491Y-16246960D01*
X10419491Y-16246960D02*
X10409967Y-16237436D01*
X10409967Y-16237436D02*
X10400444Y-16218388D01*
X10400444Y-16218388D02*
X10390920Y-16180293D01*
X10390920Y-16180293D02*
X10390920Y-16132674D01*
X10390920Y-16132674D02*
X10400444Y-16094579D01*
X10400444Y-16094579D02*
X10409967Y-16075531D01*
X10409967Y-16075531D02*
X10419491Y-16066008D01*
X10419491Y-16066008D02*
X10438539Y-16056484D01*
X10590920Y-16256484D02*
X10590920Y-16123150D01*
X10590920Y-16142198D02*
X10600444Y-16132674D01*
X10600444Y-16132674D02*
X10619491Y-16123150D01*
X10619491Y-16123150D02*
X10648063Y-16123150D01*
X10648063Y-16123150D02*
X10667110Y-16132674D01*
X10667110Y-16132674D02*
X10676634Y-16151722D01*
X10676634Y-16151722D02*
X10676634Y-16256484D01*
X10676634Y-16151722D02*
X10686158Y-16132674D01*
X10686158Y-16132674D02*
X10705205Y-16123150D01*
X10705205Y-16123150D02*
X10733777Y-16123150D01*
X10733777Y-16123150D02*
X10752825Y-16132674D01*
X10752825Y-16132674D02*
X10762348Y-16151722D01*
X10762348Y-16151722D02*
X10762348Y-16256484D01*
X10857586Y-16256484D02*
X10857586Y-16123150D01*
X10857586Y-16142198D02*
X10867110Y-16132674D01*
X10867110Y-16132674D02*
X10886158Y-16123150D01*
X10886158Y-16123150D02*
X10914729Y-16123150D01*
X10914729Y-16123150D02*
X10933777Y-16132674D01*
X10933777Y-16132674D02*
X10943301Y-16151722D01*
X10943301Y-16151722D02*
X10943301Y-16256484D01*
X10943301Y-16151722D02*
X10952825Y-16132674D01*
X10952825Y-16132674D02*
X10971872Y-16123150D01*
X10971872Y-16123150D02*
X11000444Y-16123150D01*
X11000444Y-16123150D02*
X11019491Y-16132674D01*
X11019491Y-16132674D02*
X11029015Y-16151722D01*
X11029015Y-16151722D02*
X11029015Y-16256484D01*
X11419491Y-16046960D02*
X11248063Y-16304103D01*
X11676634Y-16056484D02*
X11695682Y-16056484D01*
X11695682Y-16056484D02*
X11714729Y-16066008D01*
X11714729Y-16066008D02*
X11724253Y-16075531D01*
X11724253Y-16075531D02*
X11733777Y-16094579D01*
X11733777Y-16094579D02*
X11743301Y-16132674D01*
X11743301Y-16132674D02*
X11743301Y-16180293D01*
X11743301Y-16180293D02*
X11733777Y-16218388D01*
X11733777Y-16218388D02*
X11724253Y-16237436D01*
X11724253Y-16237436D02*
X11714729Y-16246960D01*
X11714729Y-16246960D02*
X11695682Y-16256484D01*
X11695682Y-16256484D02*
X11676634Y-16256484D01*
X11676634Y-16256484D02*
X11657586Y-16246960D01*
X11657586Y-16246960D02*
X11648063Y-16237436D01*
X11648063Y-16237436D02*
X11638539Y-16218388D01*
X11638539Y-16218388D02*
X11629015Y-16180293D01*
X11629015Y-16180293D02*
X11629015Y-16132674D01*
X11629015Y-16132674D02*
X11638539Y-16094579D01*
X11638539Y-16094579D02*
X11648063Y-16075531D01*
X11648063Y-16075531D02*
X11657586Y-16066008D01*
X11657586Y-16066008D02*
X11676634Y-16056484D01*
X11829015Y-16237436D02*
X11838539Y-16246960D01*
X11838539Y-16246960D02*
X11829015Y-16256484D01*
X11829015Y-16256484D02*
X11819491Y-16246960D01*
X11819491Y-16246960D02*
X11829015Y-16237436D01*
X11829015Y-16237436D02*
X11829015Y-16256484D01*
X11962348Y-16056484D02*
X11981396Y-16056484D01*
X11981396Y-16056484D02*
X12000444Y-16066008D01*
X12000444Y-16066008D02*
X12009967Y-16075531D01*
X12009967Y-16075531D02*
X12019491Y-16094579D01*
X12019491Y-16094579D02*
X12029015Y-16132674D01*
X12029015Y-16132674D02*
X12029015Y-16180293D01*
X12029015Y-16180293D02*
X12019491Y-16218388D01*
X12019491Y-16218388D02*
X12009967Y-16237436D01*
X12009967Y-16237436D02*
X12000444Y-16246960D01*
X12000444Y-16246960D02*
X11981396Y-16256484D01*
X11981396Y-16256484D02*
X11962348Y-16256484D01*
X11962348Y-16256484D02*
X11943301Y-16246960D01*
X11943301Y-16246960D02*
X11933777Y-16237436D01*
X11933777Y-16237436D02*
X11924253Y-16218388D01*
X11924253Y-16218388D02*
X11914729Y-16180293D01*
X11914729Y-16180293D02*
X11914729Y-16132674D01*
X11914729Y-16132674D02*
X11924253Y-16094579D01*
X11924253Y-16094579D02*
X11933777Y-16075531D01*
X11933777Y-16075531D02*
X11943301Y-16066008D01*
X11943301Y-16066008D02*
X11962348Y-16056484D01*
X12200444Y-16123150D02*
X12200444Y-16256484D01*
X12152825Y-16046960D02*
X12105206Y-16189817D01*
X12105206Y-16189817D02*
X12229015Y-16189817D01*
X12343301Y-16056484D02*
X12362348Y-16056484D01*
X12362348Y-16056484D02*
X12381396Y-16066008D01*
X12381396Y-16066008D02*
X12390920Y-16075531D01*
X12390920Y-16075531D02*
X12400444Y-16094579D01*
X12400444Y-16094579D02*
X12409967Y-16132674D01*
X12409967Y-16132674D02*
X12409967Y-16180293D01*
X12409967Y-16180293D02*
X12400444Y-16218388D01*
X12400444Y-16218388D02*
X12390920Y-16237436D01*
X12390920Y-16237436D02*
X12381396Y-16246960D01*
X12381396Y-16246960D02*
X12362348Y-16256484D01*
X12362348Y-16256484D02*
X12343301Y-16256484D01*
X12343301Y-16256484D02*
X12324253Y-16246960D01*
X12324253Y-16246960D02*
X12314729Y-16237436D01*
X12314729Y-16237436D02*
X12305206Y-16218388D01*
X12305206Y-16218388D02*
X12295682Y-16180293D01*
X12295682Y-16180293D02*
X12295682Y-16132674D01*
X12295682Y-16132674D02*
X12305206Y-16094579D01*
X12305206Y-16094579D02*
X12314729Y-16075531D01*
X12314729Y-16075531D02*
X12324253Y-16066008D01*
X12324253Y-16066008D02*
X12343301Y-16056484D01*
X12486158Y-16075531D02*
X12495682Y-16066008D01*
X12495682Y-16066008D02*
X12514729Y-16056484D01*
X12514729Y-16056484D02*
X12562348Y-16056484D01*
X12562348Y-16056484D02*
X12581396Y-16066008D01*
X12581396Y-16066008D02*
X12590920Y-16075531D01*
X12590920Y-16075531D02*
X12600444Y-16094579D01*
X12600444Y-16094579D02*
X12600444Y-16113627D01*
X12600444Y-16113627D02*
X12590920Y-16142198D01*
X12590920Y-16142198D02*
X12476634Y-16256484D01*
X12476634Y-16256484D02*
X12600444Y-16256484D01*
X12676634Y-16056484D02*
X12676634Y-16094579D01*
X12752825Y-16056484D02*
X12752825Y-16094579D01*
X13048063Y-16332674D02*
X13038539Y-16323150D01*
X13038539Y-16323150D02*
X13019491Y-16294579D01*
X13019491Y-16294579D02*
X13009968Y-16275531D01*
X13009968Y-16275531D02*
X13000444Y-16246960D01*
X13000444Y-16246960D02*
X12990920Y-16199341D01*
X12990920Y-16199341D02*
X12990920Y-16161246D01*
X12990920Y-16161246D02*
X13000444Y-16113627D01*
X13000444Y-16113627D02*
X13009968Y-16085055D01*
X13009968Y-16085055D02*
X13019491Y-16066008D01*
X13019491Y-16066008D02*
X13038539Y-16037436D01*
X13038539Y-16037436D02*
X13048063Y-16027912D01*
X13105206Y-16056484D02*
X13229015Y-16056484D01*
X13229015Y-16056484D02*
X13162348Y-16132674D01*
X13162348Y-16132674D02*
X13190920Y-16132674D01*
X13190920Y-16132674D02*
X13209968Y-16142198D01*
X13209968Y-16142198D02*
X13219491Y-16151722D01*
X13219491Y-16151722D02*
X13229015Y-16170769D01*
X13229015Y-16170769D02*
X13229015Y-16218388D01*
X13229015Y-16218388D02*
X13219491Y-16237436D01*
X13219491Y-16237436D02*
X13209968Y-16246960D01*
X13209968Y-16246960D02*
X13190920Y-16256484D01*
X13190920Y-16256484D02*
X13133777Y-16256484D01*
X13133777Y-16256484D02*
X13114729Y-16246960D01*
X13114729Y-16246960D02*
X13105206Y-16237436D01*
X13352825Y-16056484D02*
X13371872Y-16056484D01*
X13371872Y-16056484D02*
X13390920Y-16066008D01*
X13390920Y-16066008D02*
X13400444Y-16075531D01*
X13400444Y-16075531D02*
X13409968Y-16094579D01*
X13409968Y-16094579D02*
X13419491Y-16132674D01*
X13419491Y-16132674D02*
X13419491Y-16180293D01*
X13419491Y-16180293D02*
X13409968Y-16218388D01*
X13409968Y-16218388D02*
X13400444Y-16237436D01*
X13400444Y-16237436D02*
X13390920Y-16246960D01*
X13390920Y-16246960D02*
X13371872Y-16256484D01*
X13371872Y-16256484D02*
X13352825Y-16256484D01*
X13352825Y-16256484D02*
X13333777Y-16246960D01*
X13333777Y-16246960D02*
X13324253Y-16237436D01*
X13324253Y-16237436D02*
X13314729Y-16218388D01*
X13314729Y-16218388D02*
X13305206Y-16180293D01*
X13305206Y-16180293D02*
X13305206Y-16132674D01*
X13305206Y-16132674D02*
X13314729Y-16094579D01*
X13314729Y-16094579D02*
X13324253Y-16075531D01*
X13324253Y-16075531D02*
X13333777Y-16066008D01*
X13333777Y-16066008D02*
X13352825Y-16056484D01*
X13657587Y-16256484D02*
X13657587Y-16056484D01*
X13743301Y-16256484D02*
X13743301Y-16151722D01*
X13743301Y-16151722D02*
X13733777Y-16132674D01*
X13733777Y-16132674D02*
X13714730Y-16123150D01*
X13714730Y-16123150D02*
X13686158Y-16123150D01*
X13686158Y-16123150D02*
X13667110Y-16132674D01*
X13667110Y-16132674D02*
X13657587Y-16142198D01*
X13867110Y-16256484D02*
X13848063Y-16246960D01*
X13848063Y-16246960D02*
X13838539Y-16237436D01*
X13838539Y-16237436D02*
X13829015Y-16218388D01*
X13829015Y-16218388D02*
X13829015Y-16161246D01*
X13829015Y-16161246D02*
X13838539Y-16142198D01*
X13838539Y-16142198D02*
X13848063Y-16132674D01*
X13848063Y-16132674D02*
X13867110Y-16123150D01*
X13867110Y-16123150D02*
X13895682Y-16123150D01*
X13895682Y-16123150D02*
X13914730Y-16132674D01*
X13914730Y-16132674D02*
X13924253Y-16142198D01*
X13924253Y-16142198D02*
X13933777Y-16161246D01*
X13933777Y-16161246D02*
X13933777Y-16218388D01*
X13933777Y-16218388D02*
X13924253Y-16237436D01*
X13924253Y-16237436D02*
X13914730Y-16246960D01*
X13914730Y-16246960D02*
X13895682Y-16256484D01*
X13895682Y-16256484D02*
X13867110Y-16256484D01*
X14048063Y-16256484D02*
X14029015Y-16246960D01*
X14029015Y-16246960D02*
X14019491Y-16227912D01*
X14019491Y-16227912D02*
X14019491Y-16056484D01*
X14200444Y-16246960D02*
X14181396Y-16256484D01*
X14181396Y-16256484D02*
X14143301Y-16256484D01*
X14143301Y-16256484D02*
X14124253Y-16246960D01*
X14124253Y-16246960D02*
X14114730Y-16227912D01*
X14114730Y-16227912D02*
X14114730Y-16151722D01*
X14114730Y-16151722D02*
X14124253Y-16132674D01*
X14124253Y-16132674D02*
X14143301Y-16123150D01*
X14143301Y-16123150D02*
X14181396Y-16123150D01*
X14181396Y-16123150D02*
X14200444Y-16132674D01*
X14200444Y-16132674D02*
X14209968Y-16151722D01*
X14209968Y-16151722D02*
X14209968Y-16170769D01*
X14209968Y-16170769D02*
X14114730Y-16189817D01*
X14286158Y-16246960D02*
X14305206Y-16256484D01*
X14305206Y-16256484D02*
X14343301Y-16256484D01*
X14343301Y-16256484D02*
X14362349Y-16246960D01*
X14362349Y-16246960D02*
X14371872Y-16227912D01*
X14371872Y-16227912D02*
X14371872Y-16218388D01*
X14371872Y-16218388D02*
X14362349Y-16199341D01*
X14362349Y-16199341D02*
X14343301Y-16189817D01*
X14343301Y-16189817D02*
X14314730Y-16189817D01*
X14314730Y-16189817D02*
X14295682Y-16180293D01*
X14295682Y-16180293D02*
X14286158Y-16161246D01*
X14286158Y-16161246D02*
X14286158Y-16151722D01*
X14286158Y-16151722D02*
X14295682Y-16132674D01*
X14295682Y-16132674D02*
X14314730Y-16123150D01*
X14314730Y-16123150D02*
X14343301Y-16123150D01*
X14343301Y-16123150D02*
X14362349Y-16132674D01*
X14438539Y-16332674D02*
X14448063Y-16323150D01*
X14448063Y-16323150D02*
X14467111Y-16294579D01*
X14467111Y-16294579D02*
X14476634Y-16275531D01*
X14476634Y-16275531D02*
X14486158Y-16246960D01*
X14486158Y-16246960D02*
X14495682Y-16199341D01*
X14495682Y-16199341D02*
X14495682Y-16161246D01*
X14495682Y-16161246D02*
X14486158Y-16113627D01*
X14486158Y-16113627D02*
X14476634Y-16085055D01*
X14476634Y-16085055D02*
X14467111Y-16066008D01*
X14467111Y-16066008D02*
X14448063Y-16037436D01*
X14448063Y-16037436D02*
X14438539Y-16027912D01*
D17*
X9363000Y-16374000D02*
X9473000Y-16484000D01*
X9473000Y-16374000D02*
X9363000Y-16484000D01*
X9418000Y-16374000D02*
X9418000Y-16484000D01*
X9363000Y-16429000D02*
X9473000Y-16429000D01*
D11*
X9838539Y-16520484D02*
X9724253Y-16520484D01*
X9781396Y-16520484D02*
X9781396Y-16320484D01*
X9781396Y-16320484D02*
X9762348Y-16349055D01*
X9762348Y-16349055D02*
X9743301Y-16368103D01*
X9743301Y-16368103D02*
X9724253Y-16377627D01*
X9924253Y-16501436D02*
X9933777Y-16510960D01*
X9933777Y-16510960D02*
X9924253Y-16520484D01*
X9924253Y-16520484D02*
X9914729Y-16510960D01*
X9914729Y-16510960D02*
X9924253Y-16501436D01*
X9924253Y-16501436D02*
X9924253Y-16520484D01*
X10124253Y-16520484D02*
X10009967Y-16520484D01*
X10067110Y-16520484D02*
X10067110Y-16320484D01*
X10067110Y-16320484D02*
X10048063Y-16349055D01*
X10048063Y-16349055D02*
X10029015Y-16368103D01*
X10029015Y-16368103D02*
X10009967Y-16377627D01*
X10248063Y-16320484D02*
X10267110Y-16320484D01*
X10267110Y-16320484D02*
X10286158Y-16330008D01*
X10286158Y-16330008D02*
X10295682Y-16339531D01*
X10295682Y-16339531D02*
X10305205Y-16358579D01*
X10305205Y-16358579D02*
X10314729Y-16396674D01*
X10314729Y-16396674D02*
X10314729Y-16444293D01*
X10314729Y-16444293D02*
X10305205Y-16482388D01*
X10305205Y-16482388D02*
X10295682Y-16501436D01*
X10295682Y-16501436D02*
X10286158Y-16510960D01*
X10286158Y-16510960D02*
X10267110Y-16520484D01*
X10267110Y-16520484D02*
X10248063Y-16520484D01*
X10248063Y-16520484D02*
X10229015Y-16510960D01*
X10229015Y-16510960D02*
X10219491Y-16501436D01*
X10219491Y-16501436D02*
X10209967Y-16482388D01*
X10209967Y-16482388D02*
X10200444Y-16444293D01*
X10200444Y-16444293D02*
X10200444Y-16396674D01*
X10200444Y-16396674D02*
X10209967Y-16358579D01*
X10209967Y-16358579D02*
X10219491Y-16339531D01*
X10219491Y-16339531D02*
X10229015Y-16330008D01*
X10229015Y-16330008D02*
X10248063Y-16320484D01*
X10438539Y-16320484D02*
X10457586Y-16320484D01*
X10457586Y-16320484D02*
X10476634Y-16330008D01*
X10476634Y-16330008D02*
X10486158Y-16339531D01*
X10486158Y-16339531D02*
X10495682Y-16358579D01*
X10495682Y-16358579D02*
X10505205Y-16396674D01*
X10505205Y-16396674D02*
X10505205Y-16444293D01*
X10505205Y-16444293D02*
X10495682Y-16482388D01*
X10495682Y-16482388D02*
X10486158Y-16501436D01*
X10486158Y-16501436D02*
X10476634Y-16510960D01*
X10476634Y-16510960D02*
X10457586Y-16520484D01*
X10457586Y-16520484D02*
X10438539Y-16520484D01*
X10438539Y-16520484D02*
X10419491Y-16510960D01*
X10419491Y-16510960D02*
X10409967Y-16501436D01*
X10409967Y-16501436D02*
X10400444Y-16482388D01*
X10400444Y-16482388D02*
X10390920Y-16444293D01*
X10390920Y-16444293D02*
X10390920Y-16396674D01*
X10390920Y-16396674D02*
X10400444Y-16358579D01*
X10400444Y-16358579D02*
X10409967Y-16339531D01*
X10409967Y-16339531D02*
X10419491Y-16330008D01*
X10419491Y-16330008D02*
X10438539Y-16320484D01*
X10590920Y-16520484D02*
X10590920Y-16387150D01*
X10590920Y-16406198D02*
X10600444Y-16396674D01*
X10600444Y-16396674D02*
X10619491Y-16387150D01*
X10619491Y-16387150D02*
X10648063Y-16387150D01*
X10648063Y-16387150D02*
X10667110Y-16396674D01*
X10667110Y-16396674D02*
X10676634Y-16415722D01*
X10676634Y-16415722D02*
X10676634Y-16520484D01*
X10676634Y-16415722D02*
X10686158Y-16396674D01*
X10686158Y-16396674D02*
X10705205Y-16387150D01*
X10705205Y-16387150D02*
X10733777Y-16387150D01*
X10733777Y-16387150D02*
X10752825Y-16396674D01*
X10752825Y-16396674D02*
X10762348Y-16415722D01*
X10762348Y-16415722D02*
X10762348Y-16520484D01*
X10857586Y-16520484D02*
X10857586Y-16387150D01*
X10857586Y-16406198D02*
X10867110Y-16396674D01*
X10867110Y-16396674D02*
X10886158Y-16387150D01*
X10886158Y-16387150D02*
X10914729Y-16387150D01*
X10914729Y-16387150D02*
X10933777Y-16396674D01*
X10933777Y-16396674D02*
X10943301Y-16415722D01*
X10943301Y-16415722D02*
X10943301Y-16520484D01*
X10943301Y-16415722D02*
X10952825Y-16396674D01*
X10952825Y-16396674D02*
X10971872Y-16387150D01*
X10971872Y-16387150D02*
X11000444Y-16387150D01*
X11000444Y-16387150D02*
X11019491Y-16396674D01*
X11019491Y-16396674D02*
X11029015Y-16415722D01*
X11029015Y-16415722D02*
X11029015Y-16520484D01*
X11419491Y-16310960D02*
X11248063Y-16568103D01*
X11676634Y-16320484D02*
X11695682Y-16320484D01*
X11695682Y-16320484D02*
X11714729Y-16330008D01*
X11714729Y-16330008D02*
X11724253Y-16339531D01*
X11724253Y-16339531D02*
X11733777Y-16358579D01*
X11733777Y-16358579D02*
X11743301Y-16396674D01*
X11743301Y-16396674D02*
X11743301Y-16444293D01*
X11743301Y-16444293D02*
X11733777Y-16482388D01*
X11733777Y-16482388D02*
X11724253Y-16501436D01*
X11724253Y-16501436D02*
X11714729Y-16510960D01*
X11714729Y-16510960D02*
X11695682Y-16520484D01*
X11695682Y-16520484D02*
X11676634Y-16520484D01*
X11676634Y-16520484D02*
X11657586Y-16510960D01*
X11657586Y-16510960D02*
X11648063Y-16501436D01*
X11648063Y-16501436D02*
X11638539Y-16482388D01*
X11638539Y-16482388D02*
X11629015Y-16444293D01*
X11629015Y-16444293D02*
X11629015Y-16396674D01*
X11629015Y-16396674D02*
X11638539Y-16358579D01*
X11638539Y-16358579D02*
X11648063Y-16339531D01*
X11648063Y-16339531D02*
X11657586Y-16330008D01*
X11657586Y-16330008D02*
X11676634Y-16320484D01*
X11829015Y-16501436D02*
X11838539Y-16510960D01*
X11838539Y-16510960D02*
X11829015Y-16520484D01*
X11829015Y-16520484D02*
X11819491Y-16510960D01*
X11819491Y-16510960D02*
X11829015Y-16501436D01*
X11829015Y-16501436D02*
X11829015Y-16520484D01*
X11962348Y-16320484D02*
X11981396Y-16320484D01*
X11981396Y-16320484D02*
X12000444Y-16330008D01*
X12000444Y-16330008D02*
X12009967Y-16339531D01*
X12009967Y-16339531D02*
X12019491Y-16358579D01*
X12019491Y-16358579D02*
X12029015Y-16396674D01*
X12029015Y-16396674D02*
X12029015Y-16444293D01*
X12029015Y-16444293D02*
X12019491Y-16482388D01*
X12019491Y-16482388D02*
X12009967Y-16501436D01*
X12009967Y-16501436D02*
X12000444Y-16510960D01*
X12000444Y-16510960D02*
X11981396Y-16520484D01*
X11981396Y-16520484D02*
X11962348Y-16520484D01*
X11962348Y-16520484D02*
X11943301Y-16510960D01*
X11943301Y-16510960D02*
X11933777Y-16501436D01*
X11933777Y-16501436D02*
X11924253Y-16482388D01*
X11924253Y-16482388D02*
X11914729Y-16444293D01*
X11914729Y-16444293D02*
X11914729Y-16396674D01*
X11914729Y-16396674D02*
X11924253Y-16358579D01*
X11924253Y-16358579D02*
X11933777Y-16339531D01*
X11933777Y-16339531D02*
X11943301Y-16330008D01*
X11943301Y-16330008D02*
X11962348Y-16320484D01*
X12200444Y-16387150D02*
X12200444Y-16520484D01*
X12152825Y-16310960D02*
X12105206Y-16453817D01*
X12105206Y-16453817D02*
X12229015Y-16453817D01*
X12286158Y-16320484D02*
X12409967Y-16320484D01*
X12409967Y-16320484D02*
X12343301Y-16396674D01*
X12343301Y-16396674D02*
X12371872Y-16396674D01*
X12371872Y-16396674D02*
X12390920Y-16406198D01*
X12390920Y-16406198D02*
X12400444Y-16415722D01*
X12400444Y-16415722D02*
X12409967Y-16434769D01*
X12409967Y-16434769D02*
X12409967Y-16482388D01*
X12409967Y-16482388D02*
X12400444Y-16501436D01*
X12400444Y-16501436D02*
X12390920Y-16510960D01*
X12390920Y-16510960D02*
X12371872Y-16520484D01*
X12371872Y-16520484D02*
X12314729Y-16520484D01*
X12314729Y-16520484D02*
X12295682Y-16510960D01*
X12295682Y-16510960D02*
X12286158Y-16501436D01*
X12476634Y-16320484D02*
X12600444Y-16320484D01*
X12600444Y-16320484D02*
X12533777Y-16396674D01*
X12533777Y-16396674D02*
X12562348Y-16396674D01*
X12562348Y-16396674D02*
X12581396Y-16406198D01*
X12581396Y-16406198D02*
X12590920Y-16415722D01*
X12590920Y-16415722D02*
X12600444Y-16434769D01*
X12600444Y-16434769D02*
X12600444Y-16482388D01*
X12600444Y-16482388D02*
X12590920Y-16501436D01*
X12590920Y-16501436D02*
X12581396Y-16510960D01*
X12581396Y-16510960D02*
X12562348Y-16520484D01*
X12562348Y-16520484D02*
X12505206Y-16520484D01*
X12505206Y-16520484D02*
X12486158Y-16510960D01*
X12486158Y-16510960D02*
X12476634Y-16501436D01*
X12676634Y-16320484D02*
X12676634Y-16358579D01*
X12752825Y-16320484D02*
X12752825Y-16358579D01*
X13048063Y-16596674D02*
X13038539Y-16587150D01*
X13038539Y-16587150D02*
X13019491Y-16558579D01*
X13019491Y-16558579D02*
X13009968Y-16539531D01*
X13009968Y-16539531D02*
X13000444Y-16510960D01*
X13000444Y-16510960D02*
X12990920Y-16463341D01*
X12990920Y-16463341D02*
X12990920Y-16425246D01*
X12990920Y-16425246D02*
X13000444Y-16377627D01*
X13000444Y-16377627D02*
X13009968Y-16349055D01*
X13009968Y-16349055D02*
X13019491Y-16330008D01*
X13019491Y-16330008D02*
X13038539Y-16301436D01*
X13038539Y-16301436D02*
X13048063Y-16291912D01*
X13152825Y-16406198D02*
X13133777Y-16396674D01*
X13133777Y-16396674D02*
X13124253Y-16387150D01*
X13124253Y-16387150D02*
X13114729Y-16368103D01*
X13114729Y-16368103D02*
X13114729Y-16358579D01*
X13114729Y-16358579D02*
X13124253Y-16339531D01*
X13124253Y-16339531D02*
X13133777Y-16330008D01*
X13133777Y-16330008D02*
X13152825Y-16320484D01*
X13152825Y-16320484D02*
X13190920Y-16320484D01*
X13190920Y-16320484D02*
X13209968Y-16330008D01*
X13209968Y-16330008D02*
X13219491Y-16339531D01*
X13219491Y-16339531D02*
X13229015Y-16358579D01*
X13229015Y-16358579D02*
X13229015Y-16368103D01*
X13229015Y-16368103D02*
X13219491Y-16387150D01*
X13219491Y-16387150D02*
X13209968Y-16396674D01*
X13209968Y-16396674D02*
X13190920Y-16406198D01*
X13190920Y-16406198D02*
X13152825Y-16406198D01*
X13152825Y-16406198D02*
X13133777Y-16415722D01*
X13133777Y-16415722D02*
X13124253Y-16425246D01*
X13124253Y-16425246D02*
X13114729Y-16444293D01*
X13114729Y-16444293D02*
X13114729Y-16482388D01*
X13114729Y-16482388D02*
X13124253Y-16501436D01*
X13124253Y-16501436D02*
X13133777Y-16510960D01*
X13133777Y-16510960D02*
X13152825Y-16520484D01*
X13152825Y-16520484D02*
X13190920Y-16520484D01*
X13190920Y-16520484D02*
X13209968Y-16510960D01*
X13209968Y-16510960D02*
X13219491Y-16501436D01*
X13219491Y-16501436D02*
X13229015Y-16482388D01*
X13229015Y-16482388D02*
X13229015Y-16444293D01*
X13229015Y-16444293D02*
X13219491Y-16425246D01*
X13219491Y-16425246D02*
X13209968Y-16415722D01*
X13209968Y-16415722D02*
X13190920Y-16406198D01*
X13467110Y-16520484D02*
X13467110Y-16320484D01*
X13552825Y-16520484D02*
X13552825Y-16415722D01*
X13552825Y-16415722D02*
X13543301Y-16396674D01*
X13543301Y-16396674D02*
X13524253Y-16387150D01*
X13524253Y-16387150D02*
X13495682Y-16387150D01*
X13495682Y-16387150D02*
X13476634Y-16396674D01*
X13476634Y-16396674D02*
X13467110Y-16406198D01*
X13676634Y-16520484D02*
X13657587Y-16510960D01*
X13657587Y-16510960D02*
X13648063Y-16501436D01*
X13648063Y-16501436D02*
X13638539Y-16482388D01*
X13638539Y-16482388D02*
X13638539Y-16425246D01*
X13638539Y-16425246D02*
X13648063Y-16406198D01*
X13648063Y-16406198D02*
X13657587Y-16396674D01*
X13657587Y-16396674D02*
X13676634Y-16387150D01*
X13676634Y-16387150D02*
X13705206Y-16387150D01*
X13705206Y-16387150D02*
X13724253Y-16396674D01*
X13724253Y-16396674D02*
X13733777Y-16406198D01*
X13733777Y-16406198D02*
X13743301Y-16425246D01*
X13743301Y-16425246D02*
X13743301Y-16482388D01*
X13743301Y-16482388D02*
X13733777Y-16501436D01*
X13733777Y-16501436D02*
X13724253Y-16510960D01*
X13724253Y-16510960D02*
X13705206Y-16520484D01*
X13705206Y-16520484D02*
X13676634Y-16520484D01*
X13857587Y-16520484D02*
X13838539Y-16510960D01*
X13838539Y-16510960D02*
X13829015Y-16491912D01*
X13829015Y-16491912D02*
X13829015Y-16320484D01*
X14009968Y-16510960D02*
X13990920Y-16520484D01*
X13990920Y-16520484D02*
X13952825Y-16520484D01*
X13952825Y-16520484D02*
X13933777Y-16510960D01*
X13933777Y-16510960D02*
X13924253Y-16491912D01*
X13924253Y-16491912D02*
X13924253Y-16415722D01*
X13924253Y-16415722D02*
X13933777Y-16396674D01*
X13933777Y-16396674D02*
X13952825Y-16387150D01*
X13952825Y-16387150D02*
X13990920Y-16387150D01*
X13990920Y-16387150D02*
X14009968Y-16396674D01*
X14009968Y-16396674D02*
X14019491Y-16415722D01*
X14019491Y-16415722D02*
X14019491Y-16434769D01*
X14019491Y-16434769D02*
X13924253Y-16453817D01*
X14095682Y-16510960D02*
X14114730Y-16520484D01*
X14114730Y-16520484D02*
X14152825Y-16520484D01*
X14152825Y-16520484D02*
X14171872Y-16510960D01*
X14171872Y-16510960D02*
X14181396Y-16491912D01*
X14181396Y-16491912D02*
X14181396Y-16482388D01*
X14181396Y-16482388D02*
X14171872Y-16463341D01*
X14171872Y-16463341D02*
X14152825Y-16453817D01*
X14152825Y-16453817D02*
X14124253Y-16453817D01*
X14124253Y-16453817D02*
X14105206Y-16444293D01*
X14105206Y-16444293D02*
X14095682Y-16425246D01*
X14095682Y-16425246D02*
X14095682Y-16415722D01*
X14095682Y-16415722D02*
X14105206Y-16396674D01*
X14105206Y-16396674D02*
X14124253Y-16387150D01*
X14124253Y-16387150D02*
X14152825Y-16387150D01*
X14152825Y-16387150D02*
X14171872Y-16396674D01*
X14248063Y-16596674D02*
X14257587Y-16587150D01*
X14257587Y-16587150D02*
X14276634Y-16558579D01*
X14276634Y-16558579D02*
X14286158Y-16539531D01*
X14286158Y-16539531D02*
X14295682Y-16510960D01*
X14295682Y-16510960D02*
X14305206Y-16463341D01*
X14305206Y-16463341D02*
X14305206Y-16425246D01*
X14305206Y-16425246D02*
X14295682Y-16377627D01*
X14295682Y-16377627D02*
X14286158Y-16349055D01*
X14286158Y-16349055D02*
X14276634Y-16330008D01*
X14276634Y-16330008D02*
X14257587Y-16301436D01*
X14257587Y-16301436D02*
X14248063Y-16291912D01*
D18*
X9323000Y-16618000D02*
X9473000Y-16768000D01*
X9473000Y-16618000D02*
X9323000Y-16768000D01*
X9451034Y-16746033D02*
X9451034Y-16639966D01*
X9344967Y-16639966D01*
X9344967Y-16746033D01*
X9451034Y-16746033D01*
D11*
X9838539Y-16784484D02*
X9724253Y-16784484D01*
X9781396Y-16784484D02*
X9781396Y-16584484D01*
X9781396Y-16584484D02*
X9762348Y-16613055D01*
X9762348Y-16613055D02*
X9743301Y-16632103D01*
X9743301Y-16632103D02*
X9724253Y-16641627D01*
X9924253Y-16765436D02*
X9933777Y-16774960D01*
X9933777Y-16774960D02*
X9924253Y-16784484D01*
X9924253Y-16784484D02*
X9914729Y-16774960D01*
X9914729Y-16774960D02*
X9924253Y-16765436D01*
X9924253Y-16765436D02*
X9924253Y-16784484D01*
X10114729Y-16584484D02*
X10019491Y-16584484D01*
X10019491Y-16584484D02*
X10009967Y-16679722D01*
X10009967Y-16679722D02*
X10019491Y-16670198D01*
X10019491Y-16670198D02*
X10038539Y-16660674D01*
X10038539Y-16660674D02*
X10086158Y-16660674D01*
X10086158Y-16660674D02*
X10105205Y-16670198D01*
X10105205Y-16670198D02*
X10114729Y-16679722D01*
X10114729Y-16679722D02*
X10124253Y-16698769D01*
X10124253Y-16698769D02*
X10124253Y-16746388D01*
X10124253Y-16746388D02*
X10114729Y-16765436D01*
X10114729Y-16765436D02*
X10105205Y-16774960D01*
X10105205Y-16774960D02*
X10086158Y-16784484D01*
X10086158Y-16784484D02*
X10038539Y-16784484D01*
X10038539Y-16784484D02*
X10019491Y-16774960D01*
X10019491Y-16774960D02*
X10009967Y-16765436D01*
X10248063Y-16584484D02*
X10267110Y-16584484D01*
X10267110Y-16584484D02*
X10286158Y-16594008D01*
X10286158Y-16594008D02*
X10295682Y-16603531D01*
X10295682Y-16603531D02*
X10305205Y-16622579D01*
X10305205Y-16622579D02*
X10314729Y-16660674D01*
X10314729Y-16660674D02*
X10314729Y-16708293D01*
X10314729Y-16708293D02*
X10305205Y-16746388D01*
X10305205Y-16746388D02*
X10295682Y-16765436D01*
X10295682Y-16765436D02*
X10286158Y-16774960D01*
X10286158Y-16774960D02*
X10267110Y-16784484D01*
X10267110Y-16784484D02*
X10248063Y-16784484D01*
X10248063Y-16784484D02*
X10229015Y-16774960D01*
X10229015Y-16774960D02*
X10219491Y-16765436D01*
X10219491Y-16765436D02*
X10209967Y-16746388D01*
X10209967Y-16746388D02*
X10200444Y-16708293D01*
X10200444Y-16708293D02*
X10200444Y-16660674D01*
X10200444Y-16660674D02*
X10209967Y-16622579D01*
X10209967Y-16622579D02*
X10219491Y-16603531D01*
X10219491Y-16603531D02*
X10229015Y-16594008D01*
X10229015Y-16594008D02*
X10248063Y-16584484D01*
X10438539Y-16584484D02*
X10457586Y-16584484D01*
X10457586Y-16584484D02*
X10476634Y-16594008D01*
X10476634Y-16594008D02*
X10486158Y-16603531D01*
X10486158Y-16603531D02*
X10495682Y-16622579D01*
X10495682Y-16622579D02*
X10505205Y-16660674D01*
X10505205Y-16660674D02*
X10505205Y-16708293D01*
X10505205Y-16708293D02*
X10495682Y-16746388D01*
X10495682Y-16746388D02*
X10486158Y-16765436D01*
X10486158Y-16765436D02*
X10476634Y-16774960D01*
X10476634Y-16774960D02*
X10457586Y-16784484D01*
X10457586Y-16784484D02*
X10438539Y-16784484D01*
X10438539Y-16784484D02*
X10419491Y-16774960D01*
X10419491Y-16774960D02*
X10409967Y-16765436D01*
X10409967Y-16765436D02*
X10400444Y-16746388D01*
X10400444Y-16746388D02*
X10390920Y-16708293D01*
X10390920Y-16708293D02*
X10390920Y-16660674D01*
X10390920Y-16660674D02*
X10400444Y-16622579D01*
X10400444Y-16622579D02*
X10409967Y-16603531D01*
X10409967Y-16603531D02*
X10419491Y-16594008D01*
X10419491Y-16594008D02*
X10438539Y-16584484D01*
X10590920Y-16784484D02*
X10590920Y-16651150D01*
X10590920Y-16670198D02*
X10600444Y-16660674D01*
X10600444Y-16660674D02*
X10619491Y-16651150D01*
X10619491Y-16651150D02*
X10648063Y-16651150D01*
X10648063Y-16651150D02*
X10667110Y-16660674D01*
X10667110Y-16660674D02*
X10676634Y-16679722D01*
X10676634Y-16679722D02*
X10676634Y-16784484D01*
X10676634Y-16679722D02*
X10686158Y-16660674D01*
X10686158Y-16660674D02*
X10705205Y-16651150D01*
X10705205Y-16651150D02*
X10733777Y-16651150D01*
X10733777Y-16651150D02*
X10752825Y-16660674D01*
X10752825Y-16660674D02*
X10762348Y-16679722D01*
X10762348Y-16679722D02*
X10762348Y-16784484D01*
X10857586Y-16784484D02*
X10857586Y-16651150D01*
X10857586Y-16670198D02*
X10867110Y-16660674D01*
X10867110Y-16660674D02*
X10886158Y-16651150D01*
X10886158Y-16651150D02*
X10914729Y-16651150D01*
X10914729Y-16651150D02*
X10933777Y-16660674D01*
X10933777Y-16660674D02*
X10943301Y-16679722D01*
X10943301Y-16679722D02*
X10943301Y-16784484D01*
X10943301Y-16679722D02*
X10952825Y-16660674D01*
X10952825Y-16660674D02*
X10971872Y-16651150D01*
X10971872Y-16651150D02*
X11000444Y-16651150D01*
X11000444Y-16651150D02*
X11019491Y-16660674D01*
X11019491Y-16660674D02*
X11029015Y-16679722D01*
X11029015Y-16679722D02*
X11029015Y-16784484D01*
X11419491Y-16574960D02*
X11248063Y-16832103D01*
X11676634Y-16584484D02*
X11695682Y-16584484D01*
X11695682Y-16584484D02*
X11714729Y-16594008D01*
X11714729Y-16594008D02*
X11724253Y-16603531D01*
X11724253Y-16603531D02*
X11733777Y-16622579D01*
X11733777Y-16622579D02*
X11743301Y-16660674D01*
X11743301Y-16660674D02*
X11743301Y-16708293D01*
X11743301Y-16708293D02*
X11733777Y-16746388D01*
X11733777Y-16746388D02*
X11724253Y-16765436D01*
X11724253Y-16765436D02*
X11714729Y-16774960D01*
X11714729Y-16774960D02*
X11695682Y-16784484D01*
X11695682Y-16784484D02*
X11676634Y-16784484D01*
X11676634Y-16784484D02*
X11657586Y-16774960D01*
X11657586Y-16774960D02*
X11648063Y-16765436D01*
X11648063Y-16765436D02*
X11638539Y-16746388D01*
X11638539Y-16746388D02*
X11629015Y-16708293D01*
X11629015Y-16708293D02*
X11629015Y-16660674D01*
X11629015Y-16660674D02*
X11638539Y-16622579D01*
X11638539Y-16622579D02*
X11648063Y-16603531D01*
X11648063Y-16603531D02*
X11657586Y-16594008D01*
X11657586Y-16594008D02*
X11676634Y-16584484D01*
X11829015Y-16765436D02*
X11838539Y-16774960D01*
X11838539Y-16774960D02*
X11829015Y-16784484D01*
X11829015Y-16784484D02*
X11819491Y-16774960D01*
X11819491Y-16774960D02*
X11829015Y-16765436D01*
X11829015Y-16765436D02*
X11829015Y-16784484D01*
X11962348Y-16584484D02*
X11981396Y-16584484D01*
X11981396Y-16584484D02*
X12000444Y-16594008D01*
X12000444Y-16594008D02*
X12009967Y-16603531D01*
X12009967Y-16603531D02*
X12019491Y-16622579D01*
X12019491Y-16622579D02*
X12029015Y-16660674D01*
X12029015Y-16660674D02*
X12029015Y-16708293D01*
X12029015Y-16708293D02*
X12019491Y-16746388D01*
X12019491Y-16746388D02*
X12009967Y-16765436D01*
X12009967Y-16765436D02*
X12000444Y-16774960D01*
X12000444Y-16774960D02*
X11981396Y-16784484D01*
X11981396Y-16784484D02*
X11962348Y-16784484D01*
X11962348Y-16784484D02*
X11943301Y-16774960D01*
X11943301Y-16774960D02*
X11933777Y-16765436D01*
X11933777Y-16765436D02*
X11924253Y-16746388D01*
X11924253Y-16746388D02*
X11914729Y-16708293D01*
X11914729Y-16708293D02*
X11914729Y-16660674D01*
X11914729Y-16660674D02*
X11924253Y-16622579D01*
X11924253Y-16622579D02*
X11933777Y-16603531D01*
X11933777Y-16603531D02*
X11943301Y-16594008D01*
X11943301Y-16594008D02*
X11962348Y-16584484D01*
X12209967Y-16584484D02*
X12114729Y-16584484D01*
X12114729Y-16584484D02*
X12105206Y-16679722D01*
X12105206Y-16679722D02*
X12114729Y-16670198D01*
X12114729Y-16670198D02*
X12133777Y-16660674D01*
X12133777Y-16660674D02*
X12181396Y-16660674D01*
X12181396Y-16660674D02*
X12200444Y-16670198D01*
X12200444Y-16670198D02*
X12209967Y-16679722D01*
X12209967Y-16679722D02*
X12219491Y-16698769D01*
X12219491Y-16698769D02*
X12219491Y-16746388D01*
X12219491Y-16746388D02*
X12209967Y-16765436D01*
X12209967Y-16765436D02*
X12200444Y-16774960D01*
X12200444Y-16774960D02*
X12181396Y-16784484D01*
X12181396Y-16784484D02*
X12133777Y-16784484D01*
X12133777Y-16784484D02*
X12114729Y-16774960D01*
X12114729Y-16774960D02*
X12105206Y-16765436D01*
X12314729Y-16784484D02*
X12352825Y-16784484D01*
X12352825Y-16784484D02*
X12371872Y-16774960D01*
X12371872Y-16774960D02*
X12381396Y-16765436D01*
X12381396Y-16765436D02*
X12400444Y-16736865D01*
X12400444Y-16736865D02*
X12409967Y-16698769D01*
X12409967Y-16698769D02*
X12409967Y-16622579D01*
X12409967Y-16622579D02*
X12400444Y-16603531D01*
X12400444Y-16603531D02*
X12390920Y-16594008D01*
X12390920Y-16594008D02*
X12371872Y-16584484D01*
X12371872Y-16584484D02*
X12333777Y-16584484D01*
X12333777Y-16584484D02*
X12314729Y-16594008D01*
X12314729Y-16594008D02*
X12305206Y-16603531D01*
X12305206Y-16603531D02*
X12295682Y-16622579D01*
X12295682Y-16622579D02*
X12295682Y-16670198D01*
X12295682Y-16670198D02*
X12305206Y-16689246D01*
X12305206Y-16689246D02*
X12314729Y-16698769D01*
X12314729Y-16698769D02*
X12333777Y-16708293D01*
X12333777Y-16708293D02*
X12371872Y-16708293D01*
X12371872Y-16708293D02*
X12390920Y-16698769D01*
X12390920Y-16698769D02*
X12400444Y-16689246D01*
X12400444Y-16689246D02*
X12409967Y-16670198D01*
X12600444Y-16784484D02*
X12486158Y-16784484D01*
X12543301Y-16784484D02*
X12543301Y-16584484D01*
X12543301Y-16584484D02*
X12524253Y-16613055D01*
X12524253Y-16613055D02*
X12505206Y-16632103D01*
X12505206Y-16632103D02*
X12486158Y-16641627D01*
X12676634Y-16584484D02*
X12676634Y-16622579D01*
X12752825Y-16584484D02*
X12752825Y-16622579D01*
X13048063Y-16860674D02*
X13038539Y-16851150D01*
X13038539Y-16851150D02*
X13019491Y-16822579D01*
X13019491Y-16822579D02*
X13009968Y-16803531D01*
X13009968Y-16803531D02*
X13000444Y-16774960D01*
X13000444Y-16774960D02*
X12990920Y-16727341D01*
X12990920Y-16727341D02*
X12990920Y-16689246D01*
X12990920Y-16689246D02*
X13000444Y-16641627D01*
X13000444Y-16641627D02*
X13009968Y-16613055D01*
X13009968Y-16613055D02*
X13019491Y-16594008D01*
X13019491Y-16594008D02*
X13038539Y-16565436D01*
X13038539Y-16565436D02*
X13048063Y-16555912D01*
X13114729Y-16603531D02*
X13124253Y-16594008D01*
X13124253Y-16594008D02*
X13143301Y-16584484D01*
X13143301Y-16584484D02*
X13190920Y-16584484D01*
X13190920Y-16584484D02*
X13209968Y-16594008D01*
X13209968Y-16594008D02*
X13219491Y-16603531D01*
X13219491Y-16603531D02*
X13229015Y-16622579D01*
X13229015Y-16622579D02*
X13229015Y-16641627D01*
X13229015Y-16641627D02*
X13219491Y-16670198D01*
X13219491Y-16670198D02*
X13105206Y-16784484D01*
X13105206Y-16784484D02*
X13229015Y-16784484D01*
X13467110Y-16784484D02*
X13467110Y-16584484D01*
X13552825Y-16784484D02*
X13552825Y-16679722D01*
X13552825Y-16679722D02*
X13543301Y-16660674D01*
X13543301Y-16660674D02*
X13524253Y-16651150D01*
X13524253Y-16651150D02*
X13495682Y-16651150D01*
X13495682Y-16651150D02*
X13476634Y-16660674D01*
X13476634Y-16660674D02*
X13467110Y-16670198D01*
X13676634Y-16784484D02*
X13657587Y-16774960D01*
X13657587Y-16774960D02*
X13648063Y-16765436D01*
X13648063Y-16765436D02*
X13638539Y-16746388D01*
X13638539Y-16746388D02*
X13638539Y-16689246D01*
X13638539Y-16689246D02*
X13648063Y-16670198D01*
X13648063Y-16670198D02*
X13657587Y-16660674D01*
X13657587Y-16660674D02*
X13676634Y-16651150D01*
X13676634Y-16651150D02*
X13705206Y-16651150D01*
X13705206Y-16651150D02*
X13724253Y-16660674D01*
X13724253Y-16660674D02*
X13733777Y-16670198D01*
X13733777Y-16670198D02*
X13743301Y-16689246D01*
X13743301Y-16689246D02*
X13743301Y-16746388D01*
X13743301Y-16746388D02*
X13733777Y-16765436D01*
X13733777Y-16765436D02*
X13724253Y-16774960D01*
X13724253Y-16774960D02*
X13705206Y-16784484D01*
X13705206Y-16784484D02*
X13676634Y-16784484D01*
X13857587Y-16784484D02*
X13838539Y-16774960D01*
X13838539Y-16774960D02*
X13829015Y-16755912D01*
X13829015Y-16755912D02*
X13829015Y-16584484D01*
X14009968Y-16774960D02*
X13990920Y-16784484D01*
X13990920Y-16784484D02*
X13952825Y-16784484D01*
X13952825Y-16784484D02*
X13933777Y-16774960D01*
X13933777Y-16774960D02*
X13924253Y-16755912D01*
X13924253Y-16755912D02*
X13924253Y-16679722D01*
X13924253Y-16679722D02*
X13933777Y-16660674D01*
X13933777Y-16660674D02*
X13952825Y-16651150D01*
X13952825Y-16651150D02*
X13990920Y-16651150D01*
X13990920Y-16651150D02*
X14009968Y-16660674D01*
X14009968Y-16660674D02*
X14019491Y-16679722D01*
X14019491Y-16679722D02*
X14019491Y-16698769D01*
X14019491Y-16698769D02*
X13924253Y-16717817D01*
X14095682Y-16774960D02*
X14114730Y-16784484D01*
X14114730Y-16784484D02*
X14152825Y-16784484D01*
X14152825Y-16784484D02*
X14171872Y-16774960D01*
X14171872Y-16774960D02*
X14181396Y-16755912D01*
X14181396Y-16755912D02*
X14181396Y-16746388D01*
X14181396Y-16746388D02*
X14171872Y-16727341D01*
X14171872Y-16727341D02*
X14152825Y-16717817D01*
X14152825Y-16717817D02*
X14124253Y-16717817D01*
X14124253Y-16717817D02*
X14105206Y-16708293D01*
X14105206Y-16708293D02*
X14095682Y-16689246D01*
X14095682Y-16689246D02*
X14095682Y-16679722D01*
X14095682Y-16679722D02*
X14105206Y-16660674D01*
X14105206Y-16660674D02*
X14124253Y-16651150D01*
X14124253Y-16651150D02*
X14152825Y-16651150D01*
X14152825Y-16651150D02*
X14171872Y-16660674D01*
X14248063Y-16860674D02*
X14257587Y-16851150D01*
X14257587Y-16851150D02*
X14276634Y-16822579D01*
X14276634Y-16822579D02*
X14286158Y-16803531D01*
X14286158Y-16803531D02*
X14295682Y-16774960D01*
X14295682Y-16774960D02*
X14305206Y-16727341D01*
X14305206Y-16727341D02*
X14305206Y-16689246D01*
X14305206Y-16689246D02*
X14295682Y-16641627D01*
X14295682Y-16641627D02*
X14286158Y-16613055D01*
X14286158Y-16613055D02*
X14276634Y-16594008D01*
X14276634Y-16594008D02*
X14257587Y-16565436D01*
X14257587Y-16565436D02*
X14248063Y-16555912D01*
X9273000Y-16863000D02*
X9473000Y-17063000D01*
X9473000Y-16863000D02*
X9273000Y-17063000D01*
X9373000Y-17063000D02*
X9473000Y-16963000D01*
X9373000Y-16863000D01*
X9273000Y-16963000D01*
X9373000Y-17063000D01*
X9724253Y-16873531D02*
X9733777Y-16864008D01*
X9733777Y-16864008D02*
X9752824Y-16854484D01*
X9752824Y-16854484D02*
X9800444Y-16854484D01*
X9800444Y-16854484D02*
X9819491Y-16864008D01*
X9819491Y-16864008D02*
X9829015Y-16873531D01*
X9829015Y-16873531D02*
X9838539Y-16892579D01*
X9838539Y-16892579D02*
X9838539Y-16911627D01*
X9838539Y-16911627D02*
X9829015Y-16940198D01*
X9829015Y-16940198D02*
X9714729Y-17054484D01*
X9714729Y-17054484D02*
X9838539Y-17054484D01*
X9924253Y-17035436D02*
X9933777Y-17044960D01*
X9933777Y-17044960D02*
X9924253Y-17054484D01*
X9924253Y-17054484D02*
X9914729Y-17044960D01*
X9914729Y-17044960D02*
X9924253Y-17035436D01*
X9924253Y-17035436D02*
X9924253Y-17054484D01*
X10009967Y-16873531D02*
X10019491Y-16864008D01*
X10019491Y-16864008D02*
X10038539Y-16854484D01*
X10038539Y-16854484D02*
X10086158Y-16854484D01*
X10086158Y-16854484D02*
X10105205Y-16864008D01*
X10105205Y-16864008D02*
X10114729Y-16873531D01*
X10114729Y-16873531D02*
X10124253Y-16892579D01*
X10124253Y-16892579D02*
X10124253Y-16911627D01*
X10124253Y-16911627D02*
X10114729Y-16940198D01*
X10114729Y-16940198D02*
X10000444Y-17054484D01*
X10000444Y-17054484D02*
X10124253Y-17054484D01*
X10248063Y-16854484D02*
X10267110Y-16854484D01*
X10267110Y-16854484D02*
X10286158Y-16864008D01*
X10286158Y-16864008D02*
X10295682Y-16873531D01*
X10295682Y-16873531D02*
X10305205Y-16892579D01*
X10305205Y-16892579D02*
X10314729Y-16930674D01*
X10314729Y-16930674D02*
X10314729Y-16978293D01*
X10314729Y-16978293D02*
X10305205Y-17016389D01*
X10305205Y-17016389D02*
X10295682Y-17035436D01*
X10295682Y-17035436D02*
X10286158Y-17044960D01*
X10286158Y-17044960D02*
X10267110Y-17054484D01*
X10267110Y-17054484D02*
X10248063Y-17054484D01*
X10248063Y-17054484D02*
X10229015Y-17044960D01*
X10229015Y-17044960D02*
X10219491Y-17035436D01*
X10219491Y-17035436D02*
X10209967Y-17016389D01*
X10209967Y-17016389D02*
X10200444Y-16978293D01*
X10200444Y-16978293D02*
X10200444Y-16930674D01*
X10200444Y-16930674D02*
X10209967Y-16892579D01*
X10209967Y-16892579D02*
X10219491Y-16873531D01*
X10219491Y-16873531D02*
X10229015Y-16864008D01*
X10229015Y-16864008D02*
X10248063Y-16854484D01*
X10438539Y-16854484D02*
X10457586Y-16854484D01*
X10457586Y-16854484D02*
X10476634Y-16864008D01*
X10476634Y-16864008D02*
X10486158Y-16873531D01*
X10486158Y-16873531D02*
X10495682Y-16892579D01*
X10495682Y-16892579D02*
X10505205Y-16930674D01*
X10505205Y-16930674D02*
X10505205Y-16978293D01*
X10505205Y-16978293D02*
X10495682Y-17016389D01*
X10495682Y-17016389D02*
X10486158Y-17035436D01*
X10486158Y-17035436D02*
X10476634Y-17044960D01*
X10476634Y-17044960D02*
X10457586Y-17054484D01*
X10457586Y-17054484D02*
X10438539Y-17054484D01*
X10438539Y-17054484D02*
X10419491Y-17044960D01*
X10419491Y-17044960D02*
X10409967Y-17035436D01*
X10409967Y-17035436D02*
X10400444Y-17016389D01*
X10400444Y-17016389D02*
X10390920Y-16978293D01*
X10390920Y-16978293D02*
X10390920Y-16930674D01*
X10390920Y-16930674D02*
X10400444Y-16892579D01*
X10400444Y-16892579D02*
X10409967Y-16873531D01*
X10409967Y-16873531D02*
X10419491Y-16864008D01*
X10419491Y-16864008D02*
X10438539Y-16854484D01*
X10590920Y-17054484D02*
X10590920Y-16921150D01*
X10590920Y-16940198D02*
X10600444Y-16930674D01*
X10600444Y-16930674D02*
X10619491Y-16921150D01*
X10619491Y-16921150D02*
X10648063Y-16921150D01*
X10648063Y-16921150D02*
X10667110Y-16930674D01*
X10667110Y-16930674D02*
X10676634Y-16949722D01*
X10676634Y-16949722D02*
X10676634Y-17054484D01*
X10676634Y-16949722D02*
X10686158Y-16930674D01*
X10686158Y-16930674D02*
X10705205Y-16921150D01*
X10705205Y-16921150D02*
X10733777Y-16921150D01*
X10733777Y-16921150D02*
X10752825Y-16930674D01*
X10752825Y-16930674D02*
X10762348Y-16949722D01*
X10762348Y-16949722D02*
X10762348Y-17054484D01*
X10857586Y-17054484D02*
X10857586Y-16921150D01*
X10857586Y-16940198D02*
X10867110Y-16930674D01*
X10867110Y-16930674D02*
X10886158Y-16921150D01*
X10886158Y-16921150D02*
X10914729Y-16921150D01*
X10914729Y-16921150D02*
X10933777Y-16930674D01*
X10933777Y-16930674D02*
X10943301Y-16949722D01*
X10943301Y-16949722D02*
X10943301Y-17054484D01*
X10943301Y-16949722D02*
X10952825Y-16930674D01*
X10952825Y-16930674D02*
X10971872Y-16921150D01*
X10971872Y-16921150D02*
X11000444Y-16921150D01*
X11000444Y-16921150D02*
X11019491Y-16930674D01*
X11019491Y-16930674D02*
X11029015Y-16949722D01*
X11029015Y-16949722D02*
X11029015Y-17054484D01*
X11419491Y-16844960D02*
X11248063Y-17102103D01*
X11676634Y-16854484D02*
X11695682Y-16854484D01*
X11695682Y-16854484D02*
X11714729Y-16864008D01*
X11714729Y-16864008D02*
X11724253Y-16873531D01*
X11724253Y-16873531D02*
X11733777Y-16892579D01*
X11733777Y-16892579D02*
X11743301Y-16930674D01*
X11743301Y-16930674D02*
X11743301Y-16978293D01*
X11743301Y-16978293D02*
X11733777Y-17016389D01*
X11733777Y-17016389D02*
X11724253Y-17035436D01*
X11724253Y-17035436D02*
X11714729Y-17044960D01*
X11714729Y-17044960D02*
X11695682Y-17054484D01*
X11695682Y-17054484D02*
X11676634Y-17054484D01*
X11676634Y-17054484D02*
X11657586Y-17044960D01*
X11657586Y-17044960D02*
X11648063Y-17035436D01*
X11648063Y-17035436D02*
X11638539Y-17016389D01*
X11638539Y-17016389D02*
X11629015Y-16978293D01*
X11629015Y-16978293D02*
X11629015Y-16930674D01*
X11629015Y-16930674D02*
X11638539Y-16892579D01*
X11638539Y-16892579D02*
X11648063Y-16873531D01*
X11648063Y-16873531D02*
X11657586Y-16864008D01*
X11657586Y-16864008D02*
X11676634Y-16854484D01*
X11829015Y-17035436D02*
X11838539Y-17044960D01*
X11838539Y-17044960D02*
X11829015Y-17054484D01*
X11829015Y-17054484D02*
X11819491Y-17044960D01*
X11819491Y-17044960D02*
X11829015Y-17035436D01*
X11829015Y-17035436D02*
X11829015Y-17054484D01*
X11962348Y-16854484D02*
X11981396Y-16854484D01*
X11981396Y-16854484D02*
X12000444Y-16864008D01*
X12000444Y-16864008D02*
X12009967Y-16873531D01*
X12009967Y-16873531D02*
X12019491Y-16892579D01*
X12019491Y-16892579D02*
X12029015Y-16930674D01*
X12029015Y-16930674D02*
X12029015Y-16978293D01*
X12029015Y-16978293D02*
X12019491Y-17016389D01*
X12019491Y-17016389D02*
X12009967Y-17035436D01*
X12009967Y-17035436D02*
X12000444Y-17044960D01*
X12000444Y-17044960D02*
X11981396Y-17054484D01*
X11981396Y-17054484D02*
X11962348Y-17054484D01*
X11962348Y-17054484D02*
X11943301Y-17044960D01*
X11943301Y-17044960D02*
X11933777Y-17035436D01*
X11933777Y-17035436D02*
X11924253Y-17016389D01*
X11924253Y-17016389D02*
X11914729Y-16978293D01*
X11914729Y-16978293D02*
X11914729Y-16930674D01*
X11914729Y-16930674D02*
X11924253Y-16892579D01*
X11924253Y-16892579D02*
X11933777Y-16873531D01*
X11933777Y-16873531D02*
X11943301Y-16864008D01*
X11943301Y-16864008D02*
X11962348Y-16854484D01*
X12143301Y-16940198D02*
X12124253Y-16930674D01*
X12124253Y-16930674D02*
X12114729Y-16921150D01*
X12114729Y-16921150D02*
X12105206Y-16902103D01*
X12105206Y-16902103D02*
X12105206Y-16892579D01*
X12105206Y-16892579D02*
X12114729Y-16873531D01*
X12114729Y-16873531D02*
X12124253Y-16864008D01*
X12124253Y-16864008D02*
X12143301Y-16854484D01*
X12143301Y-16854484D02*
X12181396Y-16854484D01*
X12181396Y-16854484D02*
X12200444Y-16864008D01*
X12200444Y-16864008D02*
X12209967Y-16873531D01*
X12209967Y-16873531D02*
X12219491Y-16892579D01*
X12219491Y-16892579D02*
X12219491Y-16902103D01*
X12219491Y-16902103D02*
X12209967Y-16921150D01*
X12209967Y-16921150D02*
X12200444Y-16930674D01*
X12200444Y-16930674D02*
X12181396Y-16940198D01*
X12181396Y-16940198D02*
X12143301Y-16940198D01*
X12143301Y-16940198D02*
X12124253Y-16949722D01*
X12124253Y-16949722D02*
X12114729Y-16959246D01*
X12114729Y-16959246D02*
X12105206Y-16978293D01*
X12105206Y-16978293D02*
X12105206Y-17016389D01*
X12105206Y-17016389D02*
X12114729Y-17035436D01*
X12114729Y-17035436D02*
X12124253Y-17044960D01*
X12124253Y-17044960D02*
X12143301Y-17054484D01*
X12143301Y-17054484D02*
X12181396Y-17054484D01*
X12181396Y-17054484D02*
X12200444Y-17044960D01*
X12200444Y-17044960D02*
X12209967Y-17035436D01*
X12209967Y-17035436D02*
X12219491Y-17016389D01*
X12219491Y-17016389D02*
X12219491Y-16978293D01*
X12219491Y-16978293D02*
X12209967Y-16959246D01*
X12209967Y-16959246D02*
X12200444Y-16949722D01*
X12200444Y-16949722D02*
X12181396Y-16940198D01*
X12390920Y-16854484D02*
X12352825Y-16854484D01*
X12352825Y-16854484D02*
X12333777Y-16864008D01*
X12333777Y-16864008D02*
X12324253Y-16873531D01*
X12324253Y-16873531D02*
X12305206Y-16902103D01*
X12305206Y-16902103D02*
X12295682Y-16940198D01*
X12295682Y-16940198D02*
X12295682Y-17016389D01*
X12295682Y-17016389D02*
X12305206Y-17035436D01*
X12305206Y-17035436D02*
X12314729Y-17044960D01*
X12314729Y-17044960D02*
X12333777Y-17054484D01*
X12333777Y-17054484D02*
X12371872Y-17054484D01*
X12371872Y-17054484D02*
X12390920Y-17044960D01*
X12390920Y-17044960D02*
X12400444Y-17035436D01*
X12400444Y-17035436D02*
X12409967Y-17016389D01*
X12409967Y-17016389D02*
X12409967Y-16968770D01*
X12409967Y-16968770D02*
X12400444Y-16949722D01*
X12400444Y-16949722D02*
X12390920Y-16940198D01*
X12390920Y-16940198D02*
X12371872Y-16930674D01*
X12371872Y-16930674D02*
X12333777Y-16930674D01*
X12333777Y-16930674D02*
X12314729Y-16940198D01*
X12314729Y-16940198D02*
X12305206Y-16949722D01*
X12305206Y-16949722D02*
X12295682Y-16968770D01*
X12581396Y-16854484D02*
X12543301Y-16854484D01*
X12543301Y-16854484D02*
X12524253Y-16864008D01*
X12524253Y-16864008D02*
X12514729Y-16873531D01*
X12514729Y-16873531D02*
X12495682Y-16902103D01*
X12495682Y-16902103D02*
X12486158Y-16940198D01*
X12486158Y-16940198D02*
X12486158Y-17016389D01*
X12486158Y-17016389D02*
X12495682Y-17035436D01*
X12495682Y-17035436D02*
X12505206Y-17044960D01*
X12505206Y-17044960D02*
X12524253Y-17054484D01*
X12524253Y-17054484D02*
X12562348Y-17054484D01*
X12562348Y-17054484D02*
X12581396Y-17044960D01*
X12581396Y-17044960D02*
X12590920Y-17035436D01*
X12590920Y-17035436D02*
X12600444Y-17016389D01*
X12600444Y-17016389D02*
X12600444Y-16968770D01*
X12600444Y-16968770D02*
X12590920Y-16949722D01*
X12590920Y-16949722D02*
X12581396Y-16940198D01*
X12581396Y-16940198D02*
X12562348Y-16930674D01*
X12562348Y-16930674D02*
X12524253Y-16930674D01*
X12524253Y-16930674D02*
X12505206Y-16940198D01*
X12505206Y-16940198D02*
X12495682Y-16949722D01*
X12495682Y-16949722D02*
X12486158Y-16968770D01*
X12676634Y-16854484D02*
X12676634Y-16892579D01*
X12752825Y-16854484D02*
X12752825Y-16892579D01*
X13048063Y-17130674D02*
X13038539Y-17121150D01*
X13038539Y-17121150D02*
X13019491Y-17092579D01*
X13019491Y-17092579D02*
X13009968Y-17073531D01*
X13009968Y-17073531D02*
X13000444Y-17044960D01*
X13000444Y-17044960D02*
X12990920Y-16997341D01*
X12990920Y-16997341D02*
X12990920Y-16959246D01*
X12990920Y-16959246D02*
X13000444Y-16911627D01*
X13000444Y-16911627D02*
X13009968Y-16883055D01*
X13009968Y-16883055D02*
X13019491Y-16864008D01*
X13019491Y-16864008D02*
X13038539Y-16835436D01*
X13038539Y-16835436D02*
X13048063Y-16825912D01*
X13209968Y-16921150D02*
X13209968Y-17054484D01*
X13162348Y-16844960D02*
X13114729Y-16987817D01*
X13114729Y-16987817D02*
X13238539Y-16987817D01*
X13467110Y-17054484D02*
X13467110Y-16854484D01*
X13552825Y-17054484D02*
X13552825Y-16949722D01*
X13552825Y-16949722D02*
X13543301Y-16930674D01*
X13543301Y-16930674D02*
X13524253Y-16921150D01*
X13524253Y-16921150D02*
X13495682Y-16921150D01*
X13495682Y-16921150D02*
X13476634Y-16930674D01*
X13476634Y-16930674D02*
X13467110Y-16940198D01*
X13676634Y-17054484D02*
X13657587Y-17044960D01*
X13657587Y-17044960D02*
X13648063Y-17035436D01*
X13648063Y-17035436D02*
X13638539Y-17016389D01*
X13638539Y-17016389D02*
X13638539Y-16959246D01*
X13638539Y-16959246D02*
X13648063Y-16940198D01*
X13648063Y-16940198D02*
X13657587Y-16930674D01*
X13657587Y-16930674D02*
X13676634Y-16921150D01*
X13676634Y-16921150D02*
X13705206Y-16921150D01*
X13705206Y-16921150D02*
X13724253Y-16930674D01*
X13724253Y-16930674D02*
X13733777Y-16940198D01*
X13733777Y-16940198D02*
X13743301Y-16959246D01*
X13743301Y-16959246D02*
X13743301Y-17016389D01*
X13743301Y-17016389D02*
X13733777Y-17035436D01*
X13733777Y-17035436D02*
X13724253Y-17044960D01*
X13724253Y-17044960D02*
X13705206Y-17054484D01*
X13705206Y-17054484D02*
X13676634Y-17054484D01*
X13857587Y-17054484D02*
X13838539Y-17044960D01*
X13838539Y-17044960D02*
X13829015Y-17025912D01*
X13829015Y-17025912D02*
X13829015Y-16854484D01*
X14009968Y-17044960D02*
X13990920Y-17054484D01*
X13990920Y-17054484D02*
X13952825Y-17054484D01*
X13952825Y-17054484D02*
X13933777Y-17044960D01*
X13933777Y-17044960D02*
X13924253Y-17025912D01*
X13924253Y-17025912D02*
X13924253Y-16949722D01*
X13924253Y-16949722D02*
X13933777Y-16930674D01*
X13933777Y-16930674D02*
X13952825Y-16921150D01*
X13952825Y-16921150D02*
X13990920Y-16921150D01*
X13990920Y-16921150D02*
X14009968Y-16930674D01*
X14009968Y-16930674D02*
X14019491Y-16949722D01*
X14019491Y-16949722D02*
X14019491Y-16968770D01*
X14019491Y-16968770D02*
X13924253Y-16987817D01*
X14095682Y-17044960D02*
X14114730Y-17054484D01*
X14114730Y-17054484D02*
X14152825Y-17054484D01*
X14152825Y-17054484D02*
X14171872Y-17044960D01*
X14171872Y-17044960D02*
X14181396Y-17025912D01*
X14181396Y-17025912D02*
X14181396Y-17016389D01*
X14181396Y-17016389D02*
X14171872Y-16997341D01*
X14171872Y-16997341D02*
X14152825Y-16987817D01*
X14152825Y-16987817D02*
X14124253Y-16987817D01*
X14124253Y-16987817D02*
X14105206Y-16978293D01*
X14105206Y-16978293D02*
X14095682Y-16959246D01*
X14095682Y-16959246D02*
X14095682Y-16949722D01*
X14095682Y-16949722D02*
X14105206Y-16930674D01*
X14105206Y-16930674D02*
X14124253Y-16921150D01*
X14124253Y-16921150D02*
X14152825Y-16921150D01*
X14152825Y-16921150D02*
X14171872Y-16930674D01*
X14248063Y-17130674D02*
X14257587Y-17121150D01*
X14257587Y-17121150D02*
X14276634Y-17092579D01*
X14276634Y-17092579D02*
X14286158Y-17073531D01*
X14286158Y-17073531D02*
X14295682Y-17044960D01*
X14295682Y-17044960D02*
X14305206Y-16997341D01*
X14305206Y-16997341D02*
X14305206Y-16959246D01*
X14305206Y-16959246D02*
X14295682Y-16911627D01*
X14295682Y-16911627D02*
X14286158Y-16883055D01*
X14286158Y-16883055D02*
X14276634Y-16864008D01*
X14276634Y-16864008D02*
X14257587Y-16835436D01*
X14257587Y-16835436D02*
X14248063Y-16825912D01*
X9373000Y-17183000D02*
X9373000Y-17383000D01*
X9273000Y-17283000D02*
X9473000Y-17283000D01*
X9473000Y-17283000D02*
G75*
G03*
X9473000Y-17283000I-100000J0D01*
G01*
X9724253Y-17193531D02*
X9733777Y-17184008D01*
X9733777Y-17184008D02*
X9752824Y-17174484D01*
X9752824Y-17174484D02*
X9800444Y-17174484D01*
X9800444Y-17174484D02*
X9819491Y-17184008D01*
X9819491Y-17184008D02*
X9829015Y-17193531D01*
X9829015Y-17193531D02*
X9838539Y-17212579D01*
X9838539Y-17212579D02*
X9838539Y-17231627D01*
X9838539Y-17231627D02*
X9829015Y-17260198D01*
X9829015Y-17260198D02*
X9714729Y-17374484D01*
X9714729Y-17374484D02*
X9838539Y-17374484D01*
X9924253Y-17355436D02*
X9933777Y-17364960D01*
X9933777Y-17364960D02*
X9924253Y-17374484D01*
X9924253Y-17374484D02*
X9914729Y-17364960D01*
X9914729Y-17364960D02*
X9924253Y-17355436D01*
X9924253Y-17355436D02*
X9924253Y-17374484D01*
X10000444Y-17174484D02*
X10133777Y-17174484D01*
X10133777Y-17174484D02*
X10048063Y-17374484D01*
X10248063Y-17174484D02*
X10267110Y-17174484D01*
X10267110Y-17174484D02*
X10286158Y-17184008D01*
X10286158Y-17184008D02*
X10295682Y-17193531D01*
X10295682Y-17193531D02*
X10305205Y-17212579D01*
X10305205Y-17212579D02*
X10314729Y-17250674D01*
X10314729Y-17250674D02*
X10314729Y-17298293D01*
X10314729Y-17298293D02*
X10305205Y-17336389D01*
X10305205Y-17336389D02*
X10295682Y-17355436D01*
X10295682Y-17355436D02*
X10286158Y-17364960D01*
X10286158Y-17364960D02*
X10267110Y-17374484D01*
X10267110Y-17374484D02*
X10248063Y-17374484D01*
X10248063Y-17374484D02*
X10229015Y-17364960D01*
X10229015Y-17364960D02*
X10219491Y-17355436D01*
X10219491Y-17355436D02*
X10209967Y-17336389D01*
X10209967Y-17336389D02*
X10200444Y-17298293D01*
X10200444Y-17298293D02*
X10200444Y-17250674D01*
X10200444Y-17250674D02*
X10209967Y-17212579D01*
X10209967Y-17212579D02*
X10219491Y-17193531D01*
X10219491Y-17193531D02*
X10229015Y-17184008D01*
X10229015Y-17184008D02*
X10248063Y-17174484D01*
X10438539Y-17174484D02*
X10457586Y-17174484D01*
X10457586Y-17174484D02*
X10476634Y-17184008D01*
X10476634Y-17184008D02*
X10486158Y-17193531D01*
X10486158Y-17193531D02*
X10495682Y-17212579D01*
X10495682Y-17212579D02*
X10505205Y-17250674D01*
X10505205Y-17250674D02*
X10505205Y-17298293D01*
X10505205Y-17298293D02*
X10495682Y-17336389D01*
X10495682Y-17336389D02*
X10486158Y-17355436D01*
X10486158Y-17355436D02*
X10476634Y-17364960D01*
X10476634Y-17364960D02*
X10457586Y-17374484D01*
X10457586Y-17374484D02*
X10438539Y-17374484D01*
X10438539Y-17374484D02*
X10419491Y-17364960D01*
X10419491Y-17364960D02*
X10409967Y-17355436D01*
X10409967Y-17355436D02*
X10400444Y-17336389D01*
X10400444Y-17336389D02*
X10390920Y-17298293D01*
X10390920Y-17298293D02*
X10390920Y-17250674D01*
X10390920Y-17250674D02*
X10400444Y-17212579D01*
X10400444Y-17212579D02*
X10409967Y-17193531D01*
X10409967Y-17193531D02*
X10419491Y-17184008D01*
X10419491Y-17184008D02*
X10438539Y-17174484D01*
X10590920Y-17374484D02*
X10590920Y-17241150D01*
X10590920Y-17260198D02*
X10600444Y-17250674D01*
X10600444Y-17250674D02*
X10619491Y-17241150D01*
X10619491Y-17241150D02*
X10648063Y-17241150D01*
X10648063Y-17241150D02*
X10667110Y-17250674D01*
X10667110Y-17250674D02*
X10676634Y-17269722D01*
X10676634Y-17269722D02*
X10676634Y-17374484D01*
X10676634Y-17269722D02*
X10686158Y-17250674D01*
X10686158Y-17250674D02*
X10705205Y-17241150D01*
X10705205Y-17241150D02*
X10733777Y-17241150D01*
X10733777Y-17241150D02*
X10752825Y-17250674D01*
X10752825Y-17250674D02*
X10762348Y-17269722D01*
X10762348Y-17269722D02*
X10762348Y-17374484D01*
X10857586Y-17374484D02*
X10857586Y-17241150D01*
X10857586Y-17260198D02*
X10867110Y-17250674D01*
X10867110Y-17250674D02*
X10886158Y-17241150D01*
X10886158Y-17241150D02*
X10914729Y-17241150D01*
X10914729Y-17241150D02*
X10933777Y-17250674D01*
X10933777Y-17250674D02*
X10943301Y-17269722D01*
X10943301Y-17269722D02*
X10943301Y-17374484D01*
X10943301Y-17269722D02*
X10952825Y-17250674D01*
X10952825Y-17250674D02*
X10971872Y-17241150D01*
X10971872Y-17241150D02*
X11000444Y-17241150D01*
X11000444Y-17241150D02*
X11019491Y-17250674D01*
X11019491Y-17250674D02*
X11029015Y-17269722D01*
X11029015Y-17269722D02*
X11029015Y-17374484D01*
X11419491Y-17164960D02*
X11248063Y-17422103D01*
X11676634Y-17174484D02*
X11695682Y-17174484D01*
X11695682Y-17174484D02*
X11714729Y-17184008D01*
X11714729Y-17184008D02*
X11724253Y-17193531D01*
X11724253Y-17193531D02*
X11733777Y-17212579D01*
X11733777Y-17212579D02*
X11743301Y-17250674D01*
X11743301Y-17250674D02*
X11743301Y-17298293D01*
X11743301Y-17298293D02*
X11733777Y-17336389D01*
X11733777Y-17336389D02*
X11724253Y-17355436D01*
X11724253Y-17355436D02*
X11714729Y-17364960D01*
X11714729Y-17364960D02*
X11695682Y-17374484D01*
X11695682Y-17374484D02*
X11676634Y-17374484D01*
X11676634Y-17374484D02*
X11657586Y-17364960D01*
X11657586Y-17364960D02*
X11648063Y-17355436D01*
X11648063Y-17355436D02*
X11638539Y-17336389D01*
X11638539Y-17336389D02*
X11629015Y-17298293D01*
X11629015Y-17298293D02*
X11629015Y-17250674D01*
X11629015Y-17250674D02*
X11638539Y-17212579D01*
X11638539Y-17212579D02*
X11648063Y-17193531D01*
X11648063Y-17193531D02*
X11657586Y-17184008D01*
X11657586Y-17184008D02*
X11676634Y-17174484D01*
X11829015Y-17355436D02*
X11838539Y-17364960D01*
X11838539Y-17364960D02*
X11829015Y-17374484D01*
X11829015Y-17374484D02*
X11819491Y-17364960D01*
X11819491Y-17364960D02*
X11829015Y-17355436D01*
X11829015Y-17355436D02*
X11829015Y-17374484D01*
X12029015Y-17374484D02*
X11914729Y-17374484D01*
X11971872Y-17374484D02*
X11971872Y-17174484D01*
X11971872Y-17174484D02*
X11952825Y-17203055D01*
X11952825Y-17203055D02*
X11933777Y-17222103D01*
X11933777Y-17222103D02*
X11914729Y-17231627D01*
X12152825Y-17174484D02*
X12171872Y-17174484D01*
X12171872Y-17174484D02*
X12190920Y-17184008D01*
X12190920Y-17184008D02*
X12200444Y-17193531D01*
X12200444Y-17193531D02*
X12209967Y-17212579D01*
X12209967Y-17212579D02*
X12219491Y-17250674D01*
X12219491Y-17250674D02*
X12219491Y-17298293D01*
X12219491Y-17298293D02*
X12209967Y-17336389D01*
X12209967Y-17336389D02*
X12200444Y-17355436D01*
X12200444Y-17355436D02*
X12190920Y-17364960D01*
X12190920Y-17364960D02*
X12171872Y-17374484D01*
X12171872Y-17374484D02*
X12152825Y-17374484D01*
X12152825Y-17374484D02*
X12133777Y-17364960D01*
X12133777Y-17364960D02*
X12124253Y-17355436D01*
X12124253Y-17355436D02*
X12114729Y-17336389D01*
X12114729Y-17336389D02*
X12105206Y-17298293D01*
X12105206Y-17298293D02*
X12105206Y-17250674D01*
X12105206Y-17250674D02*
X12114729Y-17212579D01*
X12114729Y-17212579D02*
X12124253Y-17193531D01*
X12124253Y-17193531D02*
X12133777Y-17184008D01*
X12133777Y-17184008D02*
X12152825Y-17174484D01*
X12390920Y-17174484D02*
X12352825Y-17174484D01*
X12352825Y-17174484D02*
X12333777Y-17184008D01*
X12333777Y-17184008D02*
X12324253Y-17193531D01*
X12324253Y-17193531D02*
X12305206Y-17222103D01*
X12305206Y-17222103D02*
X12295682Y-17260198D01*
X12295682Y-17260198D02*
X12295682Y-17336389D01*
X12295682Y-17336389D02*
X12305206Y-17355436D01*
X12305206Y-17355436D02*
X12314729Y-17364960D01*
X12314729Y-17364960D02*
X12333777Y-17374484D01*
X12333777Y-17374484D02*
X12371872Y-17374484D01*
X12371872Y-17374484D02*
X12390920Y-17364960D01*
X12390920Y-17364960D02*
X12400444Y-17355436D01*
X12400444Y-17355436D02*
X12409967Y-17336389D01*
X12409967Y-17336389D02*
X12409967Y-17288770D01*
X12409967Y-17288770D02*
X12400444Y-17269722D01*
X12400444Y-17269722D02*
X12390920Y-17260198D01*
X12390920Y-17260198D02*
X12371872Y-17250674D01*
X12371872Y-17250674D02*
X12333777Y-17250674D01*
X12333777Y-17250674D02*
X12314729Y-17260198D01*
X12314729Y-17260198D02*
X12305206Y-17269722D01*
X12305206Y-17269722D02*
X12295682Y-17288770D01*
X12476634Y-17174484D02*
X12600444Y-17174484D01*
X12600444Y-17174484D02*
X12533777Y-17250674D01*
X12533777Y-17250674D02*
X12562348Y-17250674D01*
X12562348Y-17250674D02*
X12581396Y-17260198D01*
X12581396Y-17260198D02*
X12590920Y-17269722D01*
X12590920Y-17269722D02*
X12600444Y-17288770D01*
X12600444Y-17288770D02*
X12600444Y-17336389D01*
X12600444Y-17336389D02*
X12590920Y-17355436D01*
X12590920Y-17355436D02*
X12581396Y-17364960D01*
X12581396Y-17364960D02*
X12562348Y-17374484D01*
X12562348Y-17374484D02*
X12505206Y-17374484D01*
X12505206Y-17374484D02*
X12486158Y-17364960D01*
X12486158Y-17364960D02*
X12476634Y-17355436D01*
X12676634Y-17174484D02*
X12676634Y-17212579D01*
X12752825Y-17174484D02*
X12752825Y-17212579D01*
X13048063Y-17450674D02*
X13038539Y-17441150D01*
X13038539Y-17441150D02*
X13019491Y-17412579D01*
X13019491Y-17412579D02*
X13009968Y-17393531D01*
X13009968Y-17393531D02*
X13000444Y-17364960D01*
X13000444Y-17364960D02*
X12990920Y-17317341D01*
X12990920Y-17317341D02*
X12990920Y-17279246D01*
X12990920Y-17279246D02*
X13000444Y-17231627D01*
X13000444Y-17231627D02*
X13009968Y-17203055D01*
X13009968Y-17203055D02*
X13019491Y-17184008D01*
X13019491Y-17184008D02*
X13038539Y-17155436D01*
X13038539Y-17155436D02*
X13048063Y-17145912D01*
X13114729Y-17193531D02*
X13124253Y-17184008D01*
X13124253Y-17184008D02*
X13143301Y-17174484D01*
X13143301Y-17174484D02*
X13190920Y-17174484D01*
X13190920Y-17174484D02*
X13209968Y-17184008D01*
X13209968Y-17184008D02*
X13219491Y-17193531D01*
X13219491Y-17193531D02*
X13229015Y-17212579D01*
X13229015Y-17212579D02*
X13229015Y-17231627D01*
X13229015Y-17231627D02*
X13219491Y-17260198D01*
X13219491Y-17260198D02*
X13105206Y-17374484D01*
X13105206Y-17374484D02*
X13229015Y-17374484D01*
X13467110Y-17374484D02*
X13467110Y-17174484D01*
X13552825Y-17374484D02*
X13552825Y-17269722D01*
X13552825Y-17269722D02*
X13543301Y-17250674D01*
X13543301Y-17250674D02*
X13524253Y-17241150D01*
X13524253Y-17241150D02*
X13495682Y-17241150D01*
X13495682Y-17241150D02*
X13476634Y-17250674D01*
X13476634Y-17250674D02*
X13467110Y-17260198D01*
X13676634Y-17374484D02*
X13657587Y-17364960D01*
X13657587Y-17364960D02*
X13648063Y-17355436D01*
X13648063Y-17355436D02*
X13638539Y-17336389D01*
X13638539Y-17336389D02*
X13638539Y-17279246D01*
X13638539Y-17279246D02*
X13648063Y-17260198D01*
X13648063Y-17260198D02*
X13657587Y-17250674D01*
X13657587Y-17250674D02*
X13676634Y-17241150D01*
X13676634Y-17241150D02*
X13705206Y-17241150D01*
X13705206Y-17241150D02*
X13724253Y-17250674D01*
X13724253Y-17250674D02*
X13733777Y-17260198D01*
X13733777Y-17260198D02*
X13743301Y-17279246D01*
X13743301Y-17279246D02*
X13743301Y-17336389D01*
X13743301Y-17336389D02*
X13733777Y-17355436D01*
X13733777Y-17355436D02*
X13724253Y-17364960D01*
X13724253Y-17364960D02*
X13705206Y-17374484D01*
X13705206Y-17374484D02*
X13676634Y-17374484D01*
X13857587Y-17374484D02*
X13838539Y-17364960D01*
X13838539Y-17364960D02*
X13829015Y-17345912D01*
X13829015Y-17345912D02*
X13829015Y-17174484D01*
X14009968Y-17364960D02*
X13990920Y-17374484D01*
X13990920Y-17374484D02*
X13952825Y-17374484D01*
X13952825Y-17374484D02*
X13933777Y-17364960D01*
X13933777Y-17364960D02*
X13924253Y-17345912D01*
X13924253Y-17345912D02*
X13924253Y-17269722D01*
X13924253Y-17269722D02*
X13933777Y-17250674D01*
X13933777Y-17250674D02*
X13952825Y-17241150D01*
X13952825Y-17241150D02*
X13990920Y-17241150D01*
X13990920Y-17241150D02*
X14009968Y-17250674D01*
X14009968Y-17250674D02*
X14019491Y-17269722D01*
X14019491Y-17269722D02*
X14019491Y-17288770D01*
X14019491Y-17288770D02*
X13924253Y-17307817D01*
X14095682Y-17364960D02*
X14114730Y-17374484D01*
X14114730Y-17374484D02*
X14152825Y-17374484D01*
X14152825Y-17374484D02*
X14171872Y-17364960D01*
X14171872Y-17364960D02*
X14181396Y-17345912D01*
X14181396Y-17345912D02*
X14181396Y-17336389D01*
X14181396Y-17336389D02*
X14171872Y-17317341D01*
X14171872Y-17317341D02*
X14152825Y-17307817D01*
X14152825Y-17307817D02*
X14124253Y-17307817D01*
X14124253Y-17307817D02*
X14105206Y-17298293D01*
X14105206Y-17298293D02*
X14095682Y-17279246D01*
X14095682Y-17279246D02*
X14095682Y-17269722D01*
X14095682Y-17269722D02*
X14105206Y-17250674D01*
X14105206Y-17250674D02*
X14124253Y-17241150D01*
X14124253Y-17241150D02*
X14152825Y-17241150D01*
X14152825Y-17241150D02*
X14171872Y-17250674D01*
X14248063Y-17450674D02*
X14257587Y-17441150D01*
X14257587Y-17441150D02*
X14276634Y-17412579D01*
X14276634Y-17412579D02*
X14286158Y-17393531D01*
X14286158Y-17393531D02*
X14295682Y-17364960D01*
X14295682Y-17364960D02*
X14305206Y-17317341D01*
X14305206Y-17317341D02*
X14305206Y-17279246D01*
X14305206Y-17279246D02*
X14295682Y-17231627D01*
X14295682Y-17231627D02*
X14286158Y-17203055D01*
X14286158Y-17203055D02*
X14276634Y-17184008D01*
X14276634Y-17184008D02*
X14257587Y-17155436D01*
X14257587Y-17155436D02*
X14248063Y-17145912D01*
X9443711Y-17673711D02*
X9443711Y-17532289D01*
X9302289Y-17532289D01*
X9302289Y-17673711D01*
X9443711Y-17673711D01*
X9473000Y-17603000D02*
G75*
G03*
X9473000Y-17603000I-100000J0D01*
G01*
X9714729Y-17494484D02*
X9838539Y-17494484D01*
X9838539Y-17494484D02*
X9771872Y-17570674D01*
X9771872Y-17570674D02*
X9800444Y-17570674D01*
X9800444Y-17570674D02*
X9819491Y-17580198D01*
X9819491Y-17580198D02*
X9829015Y-17589722D01*
X9829015Y-17589722D02*
X9838539Y-17608770D01*
X9838539Y-17608770D02*
X9838539Y-17656389D01*
X9838539Y-17656389D02*
X9829015Y-17675436D01*
X9829015Y-17675436D02*
X9819491Y-17684960D01*
X9819491Y-17684960D02*
X9800444Y-17694484D01*
X9800444Y-17694484D02*
X9743301Y-17694484D01*
X9743301Y-17694484D02*
X9724253Y-17684960D01*
X9724253Y-17684960D02*
X9714729Y-17675436D01*
X9924253Y-17675436D02*
X9933777Y-17684960D01*
X9933777Y-17684960D02*
X9924253Y-17694484D01*
X9924253Y-17694484D02*
X9914729Y-17684960D01*
X9914729Y-17684960D02*
X9924253Y-17675436D01*
X9924253Y-17675436D02*
X9924253Y-17694484D01*
X10009967Y-17513531D02*
X10019491Y-17504008D01*
X10019491Y-17504008D02*
X10038539Y-17494484D01*
X10038539Y-17494484D02*
X10086158Y-17494484D01*
X10086158Y-17494484D02*
X10105205Y-17504008D01*
X10105205Y-17504008D02*
X10114729Y-17513531D01*
X10114729Y-17513531D02*
X10124253Y-17532579D01*
X10124253Y-17532579D02*
X10124253Y-17551627D01*
X10124253Y-17551627D02*
X10114729Y-17580198D01*
X10114729Y-17580198D02*
X10000444Y-17694484D01*
X10000444Y-17694484D02*
X10124253Y-17694484D01*
X10248063Y-17494484D02*
X10267110Y-17494484D01*
X10267110Y-17494484D02*
X10286158Y-17504008D01*
X10286158Y-17504008D02*
X10295682Y-17513531D01*
X10295682Y-17513531D02*
X10305205Y-17532579D01*
X10305205Y-17532579D02*
X10314729Y-17570674D01*
X10314729Y-17570674D02*
X10314729Y-17618293D01*
X10314729Y-17618293D02*
X10305205Y-17656389D01*
X10305205Y-17656389D02*
X10295682Y-17675436D01*
X10295682Y-17675436D02*
X10286158Y-17684960D01*
X10286158Y-17684960D02*
X10267110Y-17694484D01*
X10267110Y-17694484D02*
X10248063Y-17694484D01*
X10248063Y-17694484D02*
X10229015Y-17684960D01*
X10229015Y-17684960D02*
X10219491Y-17675436D01*
X10219491Y-17675436D02*
X10209967Y-17656389D01*
X10209967Y-17656389D02*
X10200444Y-17618293D01*
X10200444Y-17618293D02*
X10200444Y-17570674D01*
X10200444Y-17570674D02*
X10209967Y-17532579D01*
X10209967Y-17532579D02*
X10219491Y-17513531D01*
X10219491Y-17513531D02*
X10229015Y-17504008D01*
X10229015Y-17504008D02*
X10248063Y-17494484D01*
X10438539Y-17494484D02*
X10457586Y-17494484D01*
X10457586Y-17494484D02*
X10476634Y-17504008D01*
X10476634Y-17504008D02*
X10486158Y-17513531D01*
X10486158Y-17513531D02*
X10495682Y-17532579D01*
X10495682Y-17532579D02*
X10505205Y-17570674D01*
X10505205Y-17570674D02*
X10505205Y-17618293D01*
X10505205Y-17618293D02*
X10495682Y-17656389D01*
X10495682Y-17656389D02*
X10486158Y-17675436D01*
X10486158Y-17675436D02*
X10476634Y-17684960D01*
X10476634Y-17684960D02*
X10457586Y-17694484D01*
X10457586Y-17694484D02*
X10438539Y-17694484D01*
X10438539Y-17694484D02*
X10419491Y-17684960D01*
X10419491Y-17684960D02*
X10409967Y-17675436D01*
X10409967Y-17675436D02*
X10400444Y-17656389D01*
X10400444Y-17656389D02*
X10390920Y-17618293D01*
X10390920Y-17618293D02*
X10390920Y-17570674D01*
X10390920Y-17570674D02*
X10400444Y-17532579D01*
X10400444Y-17532579D02*
X10409967Y-17513531D01*
X10409967Y-17513531D02*
X10419491Y-17504008D01*
X10419491Y-17504008D02*
X10438539Y-17494484D01*
X10590920Y-17694484D02*
X10590920Y-17561150D01*
X10590920Y-17580198D02*
X10600444Y-17570674D01*
X10600444Y-17570674D02*
X10619491Y-17561150D01*
X10619491Y-17561150D02*
X10648063Y-17561150D01*
X10648063Y-17561150D02*
X10667110Y-17570674D01*
X10667110Y-17570674D02*
X10676634Y-17589722D01*
X10676634Y-17589722D02*
X10676634Y-17694484D01*
X10676634Y-17589722D02*
X10686158Y-17570674D01*
X10686158Y-17570674D02*
X10705205Y-17561150D01*
X10705205Y-17561150D02*
X10733777Y-17561150D01*
X10733777Y-17561150D02*
X10752825Y-17570674D01*
X10752825Y-17570674D02*
X10762348Y-17589722D01*
X10762348Y-17589722D02*
X10762348Y-17694484D01*
X10857586Y-17694484D02*
X10857586Y-17561150D01*
X10857586Y-17580198D02*
X10867110Y-17570674D01*
X10867110Y-17570674D02*
X10886158Y-17561150D01*
X10886158Y-17561150D02*
X10914729Y-17561150D01*
X10914729Y-17561150D02*
X10933777Y-17570674D01*
X10933777Y-17570674D02*
X10943301Y-17589722D01*
X10943301Y-17589722D02*
X10943301Y-17694484D01*
X10943301Y-17589722D02*
X10952825Y-17570674D01*
X10952825Y-17570674D02*
X10971872Y-17561150D01*
X10971872Y-17561150D02*
X11000444Y-17561150D01*
X11000444Y-17561150D02*
X11019491Y-17570674D01*
X11019491Y-17570674D02*
X11029015Y-17589722D01*
X11029015Y-17589722D02*
X11029015Y-17694484D01*
X11419491Y-17484960D02*
X11248063Y-17742103D01*
X11676634Y-17494484D02*
X11695682Y-17494484D01*
X11695682Y-17494484D02*
X11714729Y-17504008D01*
X11714729Y-17504008D02*
X11724253Y-17513531D01*
X11724253Y-17513531D02*
X11733777Y-17532579D01*
X11733777Y-17532579D02*
X11743301Y-17570674D01*
X11743301Y-17570674D02*
X11743301Y-17618293D01*
X11743301Y-17618293D02*
X11733777Y-17656389D01*
X11733777Y-17656389D02*
X11724253Y-17675436D01*
X11724253Y-17675436D02*
X11714729Y-17684960D01*
X11714729Y-17684960D02*
X11695682Y-17694484D01*
X11695682Y-17694484D02*
X11676634Y-17694484D01*
X11676634Y-17694484D02*
X11657586Y-17684960D01*
X11657586Y-17684960D02*
X11648063Y-17675436D01*
X11648063Y-17675436D02*
X11638539Y-17656389D01*
X11638539Y-17656389D02*
X11629015Y-17618293D01*
X11629015Y-17618293D02*
X11629015Y-17570674D01*
X11629015Y-17570674D02*
X11638539Y-17532579D01*
X11638539Y-17532579D02*
X11648063Y-17513531D01*
X11648063Y-17513531D02*
X11657586Y-17504008D01*
X11657586Y-17504008D02*
X11676634Y-17494484D01*
X11829015Y-17675436D02*
X11838539Y-17684960D01*
X11838539Y-17684960D02*
X11829015Y-17694484D01*
X11829015Y-17694484D02*
X11819491Y-17684960D01*
X11819491Y-17684960D02*
X11829015Y-17675436D01*
X11829015Y-17675436D02*
X11829015Y-17694484D01*
X12029015Y-17694484D02*
X11914729Y-17694484D01*
X11971872Y-17694484D02*
X11971872Y-17494484D01*
X11971872Y-17494484D02*
X11952825Y-17523055D01*
X11952825Y-17523055D02*
X11933777Y-17542103D01*
X11933777Y-17542103D02*
X11914729Y-17551627D01*
X12105206Y-17513531D02*
X12114729Y-17504008D01*
X12114729Y-17504008D02*
X12133777Y-17494484D01*
X12133777Y-17494484D02*
X12181396Y-17494484D01*
X12181396Y-17494484D02*
X12200444Y-17504008D01*
X12200444Y-17504008D02*
X12209967Y-17513531D01*
X12209967Y-17513531D02*
X12219491Y-17532579D01*
X12219491Y-17532579D02*
X12219491Y-17551627D01*
X12219491Y-17551627D02*
X12209967Y-17580198D01*
X12209967Y-17580198D02*
X12095682Y-17694484D01*
X12095682Y-17694484D02*
X12219491Y-17694484D01*
X12390920Y-17494484D02*
X12352825Y-17494484D01*
X12352825Y-17494484D02*
X12333777Y-17504008D01*
X12333777Y-17504008D02*
X12324253Y-17513531D01*
X12324253Y-17513531D02*
X12305206Y-17542103D01*
X12305206Y-17542103D02*
X12295682Y-17580198D01*
X12295682Y-17580198D02*
X12295682Y-17656389D01*
X12295682Y-17656389D02*
X12305206Y-17675436D01*
X12305206Y-17675436D02*
X12314729Y-17684960D01*
X12314729Y-17684960D02*
X12333777Y-17694484D01*
X12333777Y-17694484D02*
X12371872Y-17694484D01*
X12371872Y-17694484D02*
X12390920Y-17684960D01*
X12390920Y-17684960D02*
X12400444Y-17675436D01*
X12400444Y-17675436D02*
X12409967Y-17656389D01*
X12409967Y-17656389D02*
X12409967Y-17608770D01*
X12409967Y-17608770D02*
X12400444Y-17589722D01*
X12400444Y-17589722D02*
X12390920Y-17580198D01*
X12390920Y-17580198D02*
X12371872Y-17570674D01*
X12371872Y-17570674D02*
X12333777Y-17570674D01*
X12333777Y-17570674D02*
X12314729Y-17580198D01*
X12314729Y-17580198D02*
X12305206Y-17589722D01*
X12305206Y-17589722D02*
X12295682Y-17608770D01*
X12533777Y-17494484D02*
X12552825Y-17494484D01*
X12552825Y-17494484D02*
X12571872Y-17504008D01*
X12571872Y-17504008D02*
X12581396Y-17513531D01*
X12581396Y-17513531D02*
X12590920Y-17532579D01*
X12590920Y-17532579D02*
X12600444Y-17570674D01*
X12600444Y-17570674D02*
X12600444Y-17618293D01*
X12600444Y-17618293D02*
X12590920Y-17656389D01*
X12590920Y-17656389D02*
X12581396Y-17675436D01*
X12581396Y-17675436D02*
X12571872Y-17684960D01*
X12571872Y-17684960D02*
X12552825Y-17694484D01*
X12552825Y-17694484D02*
X12533777Y-17694484D01*
X12533777Y-17694484D02*
X12514729Y-17684960D01*
X12514729Y-17684960D02*
X12505206Y-17675436D01*
X12505206Y-17675436D02*
X12495682Y-17656389D01*
X12495682Y-17656389D02*
X12486158Y-17618293D01*
X12486158Y-17618293D02*
X12486158Y-17570674D01*
X12486158Y-17570674D02*
X12495682Y-17532579D01*
X12495682Y-17532579D02*
X12505206Y-17513531D01*
X12505206Y-17513531D02*
X12514729Y-17504008D01*
X12514729Y-17504008D02*
X12533777Y-17494484D01*
X12676634Y-17494484D02*
X12676634Y-17532579D01*
X12752825Y-17494484D02*
X12752825Y-17532579D01*
X13048063Y-17770674D02*
X13038539Y-17761150D01*
X13038539Y-17761150D02*
X13019491Y-17732579D01*
X13019491Y-17732579D02*
X13009968Y-17713531D01*
X13009968Y-17713531D02*
X13000444Y-17684960D01*
X13000444Y-17684960D02*
X12990920Y-17637341D01*
X12990920Y-17637341D02*
X12990920Y-17599246D01*
X12990920Y-17599246D02*
X13000444Y-17551627D01*
X13000444Y-17551627D02*
X13009968Y-17523055D01*
X13009968Y-17523055D02*
X13019491Y-17504008D01*
X13019491Y-17504008D02*
X13038539Y-17475436D01*
X13038539Y-17475436D02*
X13048063Y-17465912D01*
X13152825Y-17580198D02*
X13133777Y-17570674D01*
X13133777Y-17570674D02*
X13124253Y-17561150D01*
X13124253Y-17561150D02*
X13114729Y-17542103D01*
X13114729Y-17542103D02*
X13114729Y-17532579D01*
X13114729Y-17532579D02*
X13124253Y-17513531D01*
X13124253Y-17513531D02*
X13133777Y-17504008D01*
X13133777Y-17504008D02*
X13152825Y-17494484D01*
X13152825Y-17494484D02*
X13190920Y-17494484D01*
X13190920Y-17494484D02*
X13209968Y-17504008D01*
X13209968Y-17504008D02*
X13219491Y-17513531D01*
X13219491Y-17513531D02*
X13229015Y-17532579D01*
X13229015Y-17532579D02*
X13229015Y-17542103D01*
X13229015Y-17542103D02*
X13219491Y-17561150D01*
X13219491Y-17561150D02*
X13209968Y-17570674D01*
X13209968Y-17570674D02*
X13190920Y-17580198D01*
X13190920Y-17580198D02*
X13152825Y-17580198D01*
X13152825Y-17580198D02*
X13133777Y-17589722D01*
X13133777Y-17589722D02*
X13124253Y-17599246D01*
X13124253Y-17599246D02*
X13114729Y-17618293D01*
X13114729Y-17618293D02*
X13114729Y-17656389D01*
X13114729Y-17656389D02*
X13124253Y-17675436D01*
X13124253Y-17675436D02*
X13133777Y-17684960D01*
X13133777Y-17684960D02*
X13152825Y-17694484D01*
X13152825Y-17694484D02*
X13190920Y-17694484D01*
X13190920Y-17694484D02*
X13209968Y-17684960D01*
X13209968Y-17684960D02*
X13219491Y-17675436D01*
X13219491Y-17675436D02*
X13229015Y-17656389D01*
X13229015Y-17656389D02*
X13229015Y-17618293D01*
X13229015Y-17618293D02*
X13219491Y-17599246D01*
X13219491Y-17599246D02*
X13209968Y-17589722D01*
X13209968Y-17589722D02*
X13190920Y-17580198D01*
X13467110Y-17694484D02*
X13467110Y-17494484D01*
X13552825Y-17694484D02*
X13552825Y-17589722D01*
X13552825Y-17589722D02*
X13543301Y-17570674D01*
X13543301Y-17570674D02*
X13524253Y-17561150D01*
X13524253Y-17561150D02*
X13495682Y-17561150D01*
X13495682Y-17561150D02*
X13476634Y-17570674D01*
X13476634Y-17570674D02*
X13467110Y-17580198D01*
X13676634Y-17694484D02*
X13657587Y-17684960D01*
X13657587Y-17684960D02*
X13648063Y-17675436D01*
X13648063Y-17675436D02*
X13638539Y-17656389D01*
X13638539Y-17656389D02*
X13638539Y-17599246D01*
X13638539Y-17599246D02*
X13648063Y-17580198D01*
X13648063Y-17580198D02*
X13657587Y-17570674D01*
X13657587Y-17570674D02*
X13676634Y-17561150D01*
X13676634Y-17561150D02*
X13705206Y-17561150D01*
X13705206Y-17561150D02*
X13724253Y-17570674D01*
X13724253Y-17570674D02*
X13733777Y-17580198D01*
X13733777Y-17580198D02*
X13743301Y-17599246D01*
X13743301Y-17599246D02*
X13743301Y-17656389D01*
X13743301Y-17656389D02*
X13733777Y-17675436D01*
X13733777Y-17675436D02*
X13724253Y-17684960D01*
X13724253Y-17684960D02*
X13705206Y-17694484D01*
X13705206Y-17694484D02*
X13676634Y-17694484D01*
X13857587Y-17694484D02*
X13838539Y-17684960D01*
X13838539Y-17684960D02*
X13829015Y-17665912D01*
X13829015Y-17665912D02*
X13829015Y-17494484D01*
X14009968Y-17684960D02*
X13990920Y-17694484D01*
X13990920Y-17694484D02*
X13952825Y-17694484D01*
X13952825Y-17694484D02*
X13933777Y-17684960D01*
X13933777Y-17684960D02*
X13924253Y-17665912D01*
X13924253Y-17665912D02*
X13924253Y-17589722D01*
X13924253Y-17589722D02*
X13933777Y-17570674D01*
X13933777Y-17570674D02*
X13952825Y-17561150D01*
X13952825Y-17561150D02*
X13990920Y-17561150D01*
X13990920Y-17561150D02*
X14009968Y-17570674D01*
X14009968Y-17570674D02*
X14019491Y-17589722D01*
X14019491Y-17589722D02*
X14019491Y-17608770D01*
X14019491Y-17608770D02*
X13924253Y-17627817D01*
X14095682Y-17684960D02*
X14114730Y-17694484D01*
X14114730Y-17694484D02*
X14152825Y-17694484D01*
X14152825Y-17694484D02*
X14171872Y-17684960D01*
X14171872Y-17684960D02*
X14181396Y-17665912D01*
X14181396Y-17665912D02*
X14181396Y-17656389D01*
X14181396Y-17656389D02*
X14171872Y-17637341D01*
X14171872Y-17637341D02*
X14152825Y-17627817D01*
X14152825Y-17627817D02*
X14124253Y-17627817D01*
X14124253Y-17627817D02*
X14105206Y-17618293D01*
X14105206Y-17618293D02*
X14095682Y-17599246D01*
X14095682Y-17599246D02*
X14095682Y-17589722D01*
X14095682Y-17589722D02*
X14105206Y-17570674D01*
X14105206Y-17570674D02*
X14124253Y-17561150D01*
X14124253Y-17561150D02*
X14152825Y-17561150D01*
X14152825Y-17561150D02*
X14171872Y-17570674D01*
X14248063Y-17770674D02*
X14257587Y-17761150D01*
X14257587Y-17761150D02*
X14276634Y-17732579D01*
X14276634Y-17732579D02*
X14286158Y-17713531D01*
X14286158Y-17713531D02*
X14295682Y-17684960D01*
X14295682Y-17684960D02*
X14305206Y-17637341D01*
X14305206Y-17637341D02*
X14305206Y-17599246D01*
X14305206Y-17599246D02*
X14295682Y-17551627D01*
X14295682Y-17551627D02*
X14286158Y-17523055D01*
X14286158Y-17523055D02*
X14276634Y-17504008D01*
X14276634Y-17504008D02*
X14257587Y-17475436D01*
X14257587Y-17475436D02*
X14248063Y-17465912D01*
M02*
