G04 #@! TF.GenerationSoftware,KiCad,Pcbnew,7.0.5*
G04 #@! TF.CreationDate,2023-08-10T19:34:01+02:00*
G04 #@! TF.ProjectId,Siguelineas,53696775-656c-4696-9e65-61732e6b6963,rev?*
G04 #@! TF.SameCoordinates,Original*
G04 #@! TF.FileFunction,Copper,L1,Top*
G04 #@! TF.FilePolarity,Positive*
%FSLAX46Y46*%
G04 Gerber Fmt 4.6, Leading zero omitted, Abs format (unit mm)*
G04 Created by KiCad (PCBNEW 7.0.5) date 2023-08-10 19:34:01*
%MOMM*%
%LPD*%
G01*
G04 APERTURE LIST*
G04 Aperture macros list*
%AMRoundRect*
0 Rectangle with rounded corners*
0 $1 Rounding radius*
0 $2 $3 $4 $5 $6 $7 $8 $9 X,Y pos of 4 corners*
0 Add a 4 corners polygon primitive as box body*
4,1,4,$2,$3,$4,$5,$6,$7,$8,$9,$2,$3,0*
0 Add four circle primitives for the rounded corners*
1,1,$1+$1,$2,$3*
1,1,$1+$1,$4,$5*
1,1,$1+$1,$6,$7*
1,1,$1+$1,$8,$9*
0 Add four rect primitives between the rounded corners*
20,1,$1+$1,$2,$3,$4,$5,0*
20,1,$1+$1,$4,$5,$6,$7,0*
20,1,$1+$1,$6,$7,$8,$9,0*
20,1,$1+$1,$8,$9,$2,$3,0*%
G04 Aperture macros list end*
G04 #@! TA.AperFunction,ComponentPad*
%ADD10C,3.800000*%
G04 #@! TD*
G04 #@! TA.AperFunction,ComponentPad*
%ADD11C,5.600000*%
G04 #@! TD*
G04 #@! TA.AperFunction,ComponentPad*
%ADD12R,1.700000X1.700000*%
G04 #@! TD*
G04 #@! TA.AperFunction,ComponentPad*
%ADD13O,1.700000X1.700000*%
G04 #@! TD*
G04 #@! TA.AperFunction,SMDPad,CuDef*
%ADD14RoundRect,0.150000X-0.587500X-0.150000X0.587500X-0.150000X0.587500X0.150000X-0.587500X0.150000X0*%
G04 #@! TD*
G04 #@! TA.AperFunction,ComponentPad*
%ADD15O,2.200000X3.500000*%
G04 #@! TD*
G04 #@! TA.AperFunction,ComponentPad*
%ADD16R,1.500000X2.500000*%
G04 #@! TD*
G04 #@! TA.AperFunction,ComponentPad*
%ADD17O,1.500000X2.500000*%
G04 #@! TD*
G04 #@! TA.AperFunction,SMDPad,CuDef*
%ADD18RoundRect,0.250000X0.400000X0.625000X-0.400000X0.625000X-0.400000X-0.625000X0.400000X-0.625000X0*%
G04 #@! TD*
G04 #@! TA.AperFunction,ComponentPad*
%ADD19RoundRect,0.250000X0.350000X0.625000X-0.350000X0.625000X-0.350000X-0.625000X0.350000X-0.625000X0*%
G04 #@! TD*
G04 #@! TA.AperFunction,ComponentPad*
%ADD20O,1.200000X1.750000*%
G04 #@! TD*
G04 #@! TA.AperFunction,ComponentPad*
%ADD21C,2.000000*%
G04 #@! TD*
G04 #@! TA.AperFunction,ComponentPad*
%ADD22R,2.000000X2.000000*%
G04 #@! TD*
G04 #@! TA.AperFunction,ComponentPad*
%ADD23RoundRect,0.250000X-0.350000X-0.625000X0.350000X-0.625000X0.350000X0.625000X-0.350000X0.625000X0*%
G04 #@! TD*
G04 #@! TA.AperFunction,SMDPad,CuDef*
%ADD24R,2.680000X3.600000*%
G04 #@! TD*
G04 #@! TA.AperFunction,SMDPad,CuDef*
%ADD25R,0.610000X2.000000*%
G04 #@! TD*
G04 #@! TA.AperFunction,ComponentPad*
%ADD26O,2.500000X2.000000*%
G04 #@! TD*
G04 #@! TA.AperFunction,ComponentPad*
%ADD27R,3.800000X3.800000*%
G04 #@! TD*
G04 #@! TA.AperFunction,ViaPad*
%ADD28C,0.800000*%
G04 #@! TD*
G04 #@! TA.AperFunction,Conductor*
%ADD29C,1.000000*%
G04 #@! TD*
G04 #@! TA.AperFunction,Conductor*
%ADD30C,0.250000*%
G04 #@! TD*
G04 APERTURE END LIST*
D10*
X190239800Y-119224800D03*
X190214400Y-100987600D03*
X98685200Y-119140000D03*
D11*
X121285000Y-46634400D03*
D12*
X164337600Y-91998400D03*
D13*
X164337600Y-94538400D03*
X164337600Y-97078400D03*
X164337600Y-99618400D03*
X164337600Y-102158400D03*
X164337600Y-104698400D03*
D10*
X98659800Y-100902800D03*
D14*
X163068000Y-113517600D03*
X163068000Y-115417600D03*
X164943000Y-114467600D03*
D15*
X114035400Y-139732000D03*
X122235400Y-139732000D03*
D16*
X116135400Y-139732000D03*
D17*
X118135400Y-139732000D03*
X120135400Y-139732000D03*
D18*
X101042400Y-127914400D03*
X97942400Y-127914400D03*
D19*
X107984800Y-124146400D03*
D20*
X105984800Y-124146400D03*
D12*
X130037600Y-77318000D03*
D13*
X132577600Y-77318000D03*
X135117600Y-77318000D03*
X137657600Y-77318000D03*
X140197600Y-77318000D03*
X142737600Y-77318000D03*
X145277600Y-77318000D03*
X147817600Y-77318000D03*
D21*
X128822200Y-56946800D03*
X131362200Y-56946800D03*
X133902200Y-56946800D03*
X136442200Y-56946800D03*
X138982200Y-56946800D03*
X141522200Y-56946800D03*
X144062200Y-56946800D03*
X146602200Y-56946800D03*
X149142200Y-56946800D03*
X151682200Y-56946800D03*
X154222200Y-56946800D03*
X156762200Y-56946800D03*
X159302200Y-56946800D03*
X161842200Y-56946800D03*
X164382200Y-56946800D03*
X164382200Y-82346800D03*
X161842200Y-82346800D03*
X159302200Y-82346800D03*
X156762200Y-82346800D03*
X154222200Y-82346800D03*
X151682200Y-82346800D03*
X149142200Y-82346800D03*
X146602200Y-82346800D03*
X144062200Y-82346800D03*
X141522200Y-82346800D03*
X138982200Y-82346800D03*
X136442200Y-82346800D03*
X133902200Y-82346800D03*
X131362200Y-82346800D03*
D22*
X128822200Y-82346800D03*
D12*
X120187800Y-102260400D03*
D13*
X122727800Y-102260400D03*
D12*
X130063000Y-60782600D03*
D13*
X132603000Y-60782600D03*
X135143000Y-60782600D03*
X137683000Y-60782600D03*
X140223000Y-60782600D03*
X142763000Y-60782600D03*
X145303000Y-60782600D03*
X147843000Y-60782600D03*
D11*
X167233600Y-46685200D03*
D20*
X178047400Y-88773000D03*
D23*
X176047400Y-88773000D03*
D24*
X136985200Y-47865400D03*
X151965200Y-47865400D03*
D25*
X139975200Y-50665400D03*
X140975200Y-50665400D03*
X141975200Y-50665400D03*
X142975200Y-50665400D03*
X143975200Y-50665400D03*
X144975200Y-50665400D03*
X145975200Y-50665400D03*
X146975200Y-50665400D03*
X147975200Y-50665400D03*
X148975200Y-50665400D03*
D13*
X178308000Y-97764600D03*
D12*
X175768000Y-97764600D03*
X140537200Y-140335000D03*
D13*
X143077200Y-140335000D03*
X145617200Y-140335000D03*
X148157200Y-140335000D03*
D21*
X97283200Y-133589200D03*
X103783200Y-133589200D03*
X97283200Y-138089200D03*
X103783200Y-138089200D03*
D26*
X123139200Y-97026000D03*
X123139200Y-87886000D03*
X107899200Y-97026000D03*
X107899200Y-87886000D03*
D27*
X190119000Y-137515600D03*
D10*
X190119000Y-132515600D03*
D28*
X112242600Y-129540000D03*
X150266400Y-76860400D03*
X150241000Y-70332600D03*
X126288800Y-77165200D03*
X125704600Y-87934800D03*
X148107400Y-136423400D03*
X118135400Y-133934200D03*
X148005800Y-47650400D03*
X137683000Y-69265800D03*
D29*
X96621600Y-129235200D02*
X97942400Y-127914400D01*
X97283200Y-133589200D02*
X96621600Y-132927600D01*
X96621600Y-132927600D02*
X96621600Y-129235200D01*
D30*
X161417000Y-88950800D02*
X157759400Y-85293200D01*
X157759400Y-85293200D02*
X152088600Y-85293200D01*
X152088600Y-85293200D02*
X149142200Y-82346800D01*
X162890200Y-96748600D02*
X161417000Y-95275400D01*
X162890200Y-100711000D02*
X162890200Y-96748600D01*
X161417000Y-95275400D02*
X161417000Y-88950800D01*
X164337600Y-102158400D02*
X162890200Y-100711000D01*
X157073600Y-85902800D02*
X150520400Y-85902800D01*
X160680400Y-89509600D02*
X157073600Y-85902800D01*
X160680400Y-95554800D02*
X160680400Y-89509600D01*
X162407600Y-97282000D02*
X160680400Y-95554800D01*
X150520400Y-85902800D02*
X146964400Y-82346800D01*
X162407600Y-102768400D02*
X162407600Y-97282000D01*
X164337600Y-104698400D02*
X162407600Y-102768400D01*
X146964400Y-82346800D02*
X146602200Y-82346800D01*
X151682200Y-83991200D02*
X151682200Y-82346800D01*
X162102800Y-88290400D02*
X158394400Y-84582000D01*
X158394400Y-84582000D02*
X152273000Y-84582000D01*
X152273000Y-84582000D02*
X151682200Y-83991200D01*
X162102800Y-94843600D02*
X162102800Y-88290400D01*
X164337600Y-97078400D02*
X162102800Y-94843600D01*
X139515600Y-79273400D02*
X136442200Y-82346800D01*
X148615400Y-79273400D02*
X139515600Y-79273400D01*
X150266400Y-77622400D02*
X148615400Y-79273400D01*
X150266400Y-76860400D02*
X150266400Y-77622400D01*
D29*
X168656000Y-74066400D02*
X148529200Y-74066400D01*
X176047400Y-81457800D02*
X168656000Y-74066400D01*
X148529200Y-74066400D02*
X145277600Y-77318000D01*
X176047400Y-88773000D02*
X176047400Y-81457800D01*
X147792600Y-72263000D02*
X142737600Y-77318000D01*
X169494200Y-72263000D02*
X147792600Y-72263000D01*
X178047400Y-80816200D02*
X169494200Y-72263000D01*
X178047400Y-88773000D02*
X178047400Y-80816200D01*
X111099600Y-130683000D02*
X112242600Y-129540000D01*
X97942400Y-127914400D02*
X100711000Y-130683000D01*
X100711000Y-130683000D02*
X111099600Y-130683000D01*
D30*
X150241000Y-65720600D02*
X145303000Y-60782600D01*
X150241000Y-70332600D02*
X150241000Y-65720600D01*
X126288800Y-64490600D02*
X129996800Y-60782600D01*
X126288800Y-77165200D02*
X126288800Y-64490600D01*
X129996800Y-60782600D02*
X130063000Y-60782600D01*
D29*
X128930000Y-77318000D02*
X130037600Y-77318000D01*
X124053600Y-82194400D02*
X128930000Y-77318000D01*
X124053600Y-86971600D02*
X124053600Y-82194400D01*
X123139200Y-87886000D02*
X124053600Y-86971600D01*
D30*
X125704600Y-82169000D02*
X125704600Y-87934800D01*
X127381000Y-80492600D02*
X125704600Y-82169000D01*
X131902200Y-80492600D02*
X127381000Y-80492600D01*
X132577600Y-79817200D02*
X131902200Y-80492600D01*
X132577600Y-77318000D02*
X132577600Y-79817200D01*
X148742400Y-85191600D02*
X141827000Y-85191600D01*
X161848800Y-98298000D02*
X148742400Y-85191600D01*
X161848800Y-112298400D02*
X161848800Y-98298000D01*
X141827000Y-85191600D02*
X138982200Y-82346800D01*
X163068000Y-113517600D02*
X161848800Y-112298400D01*
X148157200Y-136473200D02*
X148107400Y-136423400D01*
X148157200Y-140335000D02*
X148157200Y-136473200D01*
D29*
X137878481Y-133934200D02*
X143077200Y-139132919D01*
X143077200Y-139132919D02*
X143077200Y-140335000D01*
X118135400Y-133934200D02*
X137878481Y-133934200D01*
X118135400Y-104312800D02*
X120187800Y-102260400D01*
X118135400Y-133934200D02*
X118135400Y-104312800D01*
X118135400Y-139732000D02*
X118135400Y-133934200D01*
X97283200Y-138089200D02*
X103783200Y-138089200D01*
X103783200Y-133589200D02*
X97283200Y-133589200D01*
D30*
X147975200Y-47681000D02*
X147975200Y-50665400D01*
X148005800Y-47650400D02*
X147975200Y-47681000D01*
X137683000Y-60782600D02*
X137683000Y-72212600D01*
X137683000Y-72212600D02*
X132577600Y-77318000D01*
D29*
X113639600Y-69850000D02*
X126542800Y-56946800D01*
X113639600Y-90180563D02*
X113639600Y-69850000D01*
X126542800Y-56946800D02*
X128822200Y-56946800D01*
X122727800Y-102260400D02*
X122727800Y-99268763D01*
X122727800Y-99268763D02*
X113639600Y-90180563D01*
X116135400Y-96122200D02*
X116135400Y-139732000D01*
X107899200Y-87886000D02*
X116135400Y-96122200D01*
X127127000Y-91873800D02*
X123139200Y-87886000D01*
X127127000Y-118160800D02*
X127127000Y-91873800D01*
X129743200Y-120777000D02*
X127127000Y-118160800D01*
X178235600Y-120777000D02*
X129743200Y-120777000D01*
X178308000Y-120704600D02*
X178235600Y-120777000D01*
X171333200Y-114467600D02*
X164943000Y-114467600D01*
X175768000Y-97764600D02*
X175768000Y-110032800D01*
X175768000Y-110032800D02*
X171333200Y-114467600D01*
X178308000Y-120704600D02*
X178308000Y-97764600D01*
X190119000Y-132515600D02*
X178308000Y-120704600D01*
D30*
X142763000Y-58187600D02*
X141522200Y-56946800D01*
X142763000Y-60782600D02*
X142763000Y-58187600D01*
X140223000Y-58187600D02*
X138982200Y-56946800D01*
X140223000Y-60782600D02*
X140223000Y-58187600D01*
X135143000Y-58246000D02*
X136442200Y-56946800D01*
X135143000Y-60782600D02*
X135143000Y-58246000D01*
X132603000Y-58246000D02*
X133902200Y-56946800D01*
X132603000Y-60782600D02*
X132603000Y-58246000D01*
X146990200Y-54635400D02*
X151910800Y-54635400D01*
X143975200Y-51620400D02*
X146990200Y-54635400D01*
X151910800Y-54635400D02*
X154222200Y-56946800D01*
X143975200Y-50665400D02*
X143975200Y-51620400D01*
X149907200Y-55171800D02*
X151682200Y-56946800D01*
X146611800Y-55171800D02*
X149907200Y-55171800D01*
X142975200Y-51535200D02*
X146611800Y-55171800D01*
X142975200Y-50665400D02*
X142975200Y-51535200D01*
X153841200Y-54025800D02*
X156762200Y-56946800D01*
X147380600Y-54025800D02*
X153841200Y-54025800D01*
X144975200Y-51620400D02*
X147380600Y-54025800D01*
X144975200Y-50665400D02*
X144975200Y-51620400D01*
X155746200Y-53390800D02*
X159302200Y-56946800D01*
X145975200Y-51620400D02*
X147745600Y-53390800D01*
X147745600Y-53390800D02*
X155746200Y-53390800D01*
X145975200Y-50665400D02*
X145975200Y-51620400D01*
X146975200Y-51826800D02*
X147929600Y-52781200D01*
X147929600Y-52781200D02*
X157676600Y-52781200D01*
X146975200Y-50665400D02*
X146975200Y-51826800D01*
X157676600Y-52781200D02*
X161842200Y-56946800D01*
X147817200Y-55621800D02*
X149142200Y-56946800D01*
X145976600Y-55621800D02*
X147817200Y-55621800D01*
X141975200Y-51620400D02*
X145976600Y-55621800D01*
X141975200Y-50665400D02*
X141975200Y-51620400D01*
X140975200Y-51915400D02*
X146006600Y-56946800D01*
X140975200Y-50665400D02*
X140975200Y-51915400D01*
X146006600Y-56946800D02*
X146602200Y-56946800D01*
X139975200Y-52859800D02*
X144062200Y-56946800D01*
X139975200Y-50665400D02*
X139975200Y-52859800D01*
G04 #@! TA.AperFunction,Conductor*
G36*
X152840232Y-42364599D02*
G01*
X152889967Y-42369497D01*
X152981024Y-42378465D01*
X153004852Y-42383204D01*
X153131477Y-42421615D01*
X153153925Y-42430914D01*
X153270606Y-42493282D01*
X153290816Y-42506786D01*
X153351161Y-42556309D01*
X153393091Y-42590720D01*
X153410279Y-42607908D01*
X153494212Y-42710181D01*
X153507717Y-42730393D01*
X153570083Y-42847071D01*
X153579386Y-42869528D01*
X153608264Y-42964727D01*
X153617793Y-42996138D01*
X153622535Y-43019980D01*
X153636401Y-43160766D01*
X153636700Y-43166847D01*
X153636700Y-45476268D01*
X153617015Y-45543307D01*
X153564211Y-45589062D01*
X153495053Y-45599006D01*
X153469368Y-45592450D01*
X153412685Y-45571309D01*
X153412683Y-45571308D01*
X153353083Y-45564901D01*
X153353081Y-45564900D01*
X153353073Y-45564900D01*
X153353064Y-45564900D01*
X150577329Y-45564900D01*
X150577323Y-45564901D01*
X150517716Y-45571308D01*
X150382871Y-45621602D01*
X150382864Y-45621606D01*
X150267655Y-45707852D01*
X150267652Y-45707855D01*
X150181406Y-45823064D01*
X150181402Y-45823071D01*
X150131108Y-45957917D01*
X150124701Y-46017516D01*
X150124701Y-46017523D01*
X150124700Y-46017535D01*
X150124700Y-49713270D01*
X150124701Y-49713276D01*
X150131108Y-49772883D01*
X150181402Y-49907728D01*
X150181406Y-49907735D01*
X150267652Y-50022944D01*
X150267655Y-50022947D01*
X150382864Y-50109193D01*
X150382871Y-50109197D01*
X150517717Y-50159491D01*
X150517716Y-50159491D01*
X150524644Y-50160235D01*
X150577327Y-50165900D01*
X153353072Y-50165899D01*
X153412683Y-50159491D01*
X153547531Y-50109196D01*
X153662746Y-50022946D01*
X153748996Y-49907731D01*
X153799291Y-49772883D01*
X153805700Y-49713273D01*
X153805699Y-48630867D01*
X153825384Y-48563830D01*
X153878187Y-48518075D01*
X153947346Y-48508131D01*
X154010902Y-48537156D01*
X154041419Y-48577068D01*
X154193778Y-48893447D01*
X154193781Y-48893451D01*
X154193788Y-48893465D01*
X154410334Y-49255901D01*
X154410337Y-49255905D01*
X154410340Y-49255910D01*
X154658488Y-49597456D01*
X154658510Y-49597484D01*
X154936268Y-49915403D01*
X154936278Y-49915414D01*
X155241442Y-50207180D01*
X155241446Y-50207183D01*
X155241448Y-50207185D01*
X155571534Y-50470421D01*
X155571535Y-50470422D01*
X155750229Y-50588375D01*
X155923887Y-50703006D01*
X156271553Y-50890093D01*
X156295676Y-50903074D01*
X156295684Y-50903078D01*
X156538313Y-51006782D01*
X156683898Y-51069008D01*
X157085433Y-51199475D01*
X157497047Y-51293423D01*
X157915426Y-51350096D01*
X158231756Y-51364302D01*
X158337197Y-51369038D01*
X158337200Y-51369038D01*
X158337203Y-51369038D01*
X158434532Y-51364666D01*
X158758974Y-51350096D01*
X159177353Y-51293423D01*
X159588967Y-51199475D01*
X159990502Y-51069008D01*
X160349886Y-50915400D01*
X160378715Y-50903078D01*
X160378719Y-50903075D01*
X160378726Y-50903073D01*
X160750513Y-50703006D01*
X161102870Y-50470418D01*
X161432958Y-50207180D01*
X161738122Y-49915414D01*
X162015903Y-49597468D01*
X162264066Y-49255901D01*
X162480612Y-48893465D01*
X162529190Y-48792593D01*
X162663789Y-48513093D01*
X162663789Y-48513091D01*
X162663797Y-48513076D01*
X162812147Y-48117799D01*
X162924468Y-47710814D01*
X162999854Y-47295399D01*
X163037700Y-46874900D01*
X163037700Y-46685200D01*
X163928252Y-46685200D01*
X163944874Y-46991785D01*
X163947628Y-47042568D01*
X163947629Y-47042585D01*
X164005526Y-47395739D01*
X164005532Y-47395765D01*
X164101272Y-47740592D01*
X164101274Y-47740599D01*
X164233742Y-48073070D01*
X164233751Y-48073088D01*
X164401384Y-48389277D01*
X164401387Y-48389282D01*
X164401389Y-48389285D01*
X164567797Y-48634719D01*
X164602234Y-48685509D01*
X164602241Y-48685519D01*
X164790781Y-48907485D01*
X164833932Y-48958286D01*
X165093763Y-49204411D01*
X165378681Y-49421000D01*
X165685347Y-49605515D01*
X165685349Y-49605516D01*
X165685351Y-49605517D01*
X165685355Y-49605519D01*
X165900362Y-49704991D01*
X166010165Y-49755791D01*
X166349326Y-49870068D01*
X166468067Y-49896205D01*
X166543373Y-49912781D01*
X166604614Y-49946417D01*
X166637948Y-50007822D01*
X166632792Y-50077501D01*
X166590783Y-50133332D01*
X166570519Y-50145602D01*
X166484570Y-50186992D01*
X166273982Y-50330568D01*
X166087152Y-50503921D01*
X166087150Y-50503923D01*
X165928241Y-50703188D01*
X165800808Y-50923909D01*
X165707692Y-51161162D01*
X165707690Y-51161169D01*
X165650977Y-51409645D01*
X165631932Y-51663795D01*
X165631932Y-51663804D01*
X165650977Y-51917954D01*
X165705178Y-52155425D01*
X165707692Y-52166437D01*
X165800807Y-52403688D01*
X165928241Y-52624412D01*
X166087150Y-52823677D01*
X166273983Y-52997032D01*
X166484566Y-53140605D01*
X166484571Y-53140607D01*
X166484572Y-53140608D01*
X166484573Y-53140609D01*
X166532174Y-53163532D01*
X166714192Y-53251187D01*
X166714193Y-53251187D01*
X166714196Y-53251189D01*
X166957742Y-53326313D01*
X167209765Y-53364300D01*
X167464635Y-53364300D01*
X167716658Y-53326313D01*
X167960204Y-53251189D01*
X168189834Y-53140605D01*
X168400417Y-52997032D01*
X168587250Y-52823677D01*
X168746159Y-52624412D01*
X168873593Y-52403688D01*
X168966708Y-52166437D01*
X169023422Y-51917957D01*
X169034302Y-51772772D01*
X169042468Y-51663804D01*
X169042468Y-51663795D01*
X169025558Y-51438144D01*
X169023422Y-51409643D01*
X168966708Y-51161163D01*
X168873593Y-50923912D01*
X168746159Y-50703188D01*
X168587250Y-50503923D01*
X168400417Y-50330568D01*
X168189834Y-50186995D01*
X168189828Y-50186992D01*
X168189827Y-50186991D01*
X168189825Y-50186990D01*
X168038884Y-50114301D01*
X167987024Y-50067479D01*
X167968711Y-50000052D01*
X167989759Y-49933428D01*
X168043485Y-49888759D01*
X168066029Y-49881480D01*
X168074379Y-49879641D01*
X168117874Y-49870068D01*
X168457035Y-49755791D01*
X168781853Y-49605515D01*
X169088519Y-49421000D01*
X169373437Y-49204411D01*
X169633268Y-48958286D01*
X169864965Y-48685511D01*
X170065811Y-48389285D01*
X170233453Y-48073080D01*
X170365924Y-47740603D01*
X170461671Y-47395752D01*
X170507176Y-47118184D01*
X170519570Y-47042585D01*
X170519570Y-47042582D01*
X170519572Y-47042571D01*
X170538948Y-46685200D01*
X170519572Y-46327829D01*
X170511244Y-46277031D01*
X170461673Y-45974660D01*
X170461672Y-45974659D01*
X170461671Y-45974648D01*
X170419586Y-45823071D01*
X170365927Y-45629807D01*
X170365925Y-45629800D01*
X170362659Y-45621604D01*
X170312100Y-45494710D01*
X170233457Y-45297329D01*
X170233448Y-45297311D01*
X170065815Y-44981122D01*
X170065813Y-44981119D01*
X170065811Y-44981115D01*
X169864965Y-44684889D01*
X169864961Y-44684884D01*
X169864958Y-44684880D01*
X169633268Y-44412114D01*
X169530071Y-44314361D01*
X169373437Y-44165989D01*
X169373430Y-44165983D01*
X169373427Y-44165981D01*
X169291126Y-44103418D01*
X169088519Y-43949400D01*
X168781853Y-43764885D01*
X168781852Y-43764884D01*
X168781848Y-43764882D01*
X168781844Y-43764880D01*
X168457047Y-43614614D01*
X168457041Y-43614611D01*
X168457035Y-43614609D01*
X168287454Y-43557470D01*
X168117873Y-43500331D01*
X167768344Y-43423394D01*
X167412549Y-43384700D01*
X167412548Y-43384700D01*
X167054652Y-43384700D01*
X167054650Y-43384700D01*
X166698855Y-43423394D01*
X166349326Y-43500331D01*
X166093570Y-43586506D01*
X166010165Y-43614609D01*
X166010162Y-43614610D01*
X166010163Y-43614610D01*
X166010152Y-43614614D01*
X165685355Y-43764880D01*
X165685351Y-43764882D01*
X165463113Y-43898599D01*
X165378681Y-43949400D01*
X165290368Y-44016533D01*
X165093772Y-44165981D01*
X165093763Y-44165989D01*
X164833931Y-44412114D01*
X164602241Y-44684880D01*
X164602234Y-44684890D01*
X164401390Y-44981113D01*
X164401384Y-44981122D01*
X164233751Y-45297311D01*
X164233742Y-45297329D01*
X164101274Y-45629800D01*
X164101272Y-45629807D01*
X164005532Y-45974634D01*
X164005526Y-45974660D01*
X163947629Y-46327814D01*
X163947628Y-46327831D01*
X163931575Y-46623918D01*
X163928252Y-46685200D01*
X163037700Y-46685200D01*
X163037700Y-46665218D01*
X163037765Y-46662381D01*
X163039528Y-46623914D01*
X163055588Y-46273442D01*
X163056103Y-46267834D01*
X163109229Y-45883537D01*
X163110255Y-45877994D01*
X163198297Y-45500180D01*
X163199835Y-45494726D01*
X163322052Y-45126566D01*
X163324077Y-45121282D01*
X163479462Y-44765811D01*
X163481947Y-44760768D01*
X163669195Y-44420985D01*
X163672151Y-44416160D01*
X163674891Y-44412114D01*
X163889666Y-44094952D01*
X163893028Y-44090446D01*
X164139020Y-43790459D01*
X164142803Y-43786253D01*
X164415196Y-43510018D01*
X164419328Y-43506195D01*
X164715846Y-43256024D01*
X164720309Y-43252596D01*
X165038444Y-43030600D01*
X165043229Y-43027576D01*
X165380325Y-42835608D01*
X165385383Y-42833028D01*
X165738614Y-42672694D01*
X165743875Y-42670590D01*
X166110305Y-42543224D01*
X166115721Y-42541617D01*
X166492252Y-42448295D01*
X166497784Y-42447190D01*
X166881290Y-42388690D01*
X166886903Y-42388095D01*
X167274158Y-42364910D01*
X167279789Y-42364831D01*
X167667533Y-42377156D01*
X167673184Y-42377596D01*
X168058153Y-42425326D01*
X168063736Y-42426278D01*
X168442734Y-42509013D01*
X168448193Y-42510469D01*
X168818052Y-42627522D01*
X168823357Y-42629471D01*
X169180920Y-42779838D01*
X169180949Y-42779850D01*
X169186066Y-42782282D01*
X169528379Y-42964716D01*
X169528400Y-42964727D01*
X169533280Y-42967621D01*
X169857507Y-43180615D01*
X169862089Y-43183935D01*
X170114043Y-43384700D01*
X170165463Y-43425673D01*
X170169730Y-43429404D01*
X170362890Y-43614610D01*
X170449739Y-43697883D01*
X170453653Y-43701997D01*
X170707933Y-43994952D01*
X170711434Y-43999379D01*
X170937865Y-44314371D01*
X170940959Y-44319119D01*
X171137509Y-44653281D01*
X171140312Y-44658625D01*
X171215768Y-44821273D01*
X171218157Y-44827206D01*
X171276386Y-44996519D01*
X171278152Y-45002666D01*
X171318645Y-45177088D01*
X171319768Y-45183384D01*
X171342290Y-45362640D01*
X171342607Y-45365821D01*
X171346264Y-45415539D01*
X171346281Y-45415642D01*
X171406570Y-46234772D01*
X171406573Y-46234814D01*
X171573229Y-47972771D01*
X171778322Y-49706649D01*
X172021741Y-51435499D01*
X172303375Y-53158544D01*
X172303381Y-53158578D01*
X172623067Y-54874845D01*
X172623077Y-54874899D01*
X172623084Y-54874933D01*
X172756946Y-55514580D01*
X172980714Y-56583835D01*
X173083351Y-57025292D01*
X173358156Y-58207274D01*
X173376099Y-58284447D01*
X173376100Y-58284453D01*
X173808991Y-59975719D01*
X173809027Y-59975854D01*
X174093352Y-60992444D01*
X174279271Y-61657187D01*
X174451517Y-62224328D01*
X174786650Y-63327795D01*
X175330872Y-64986713D01*
X175911681Y-66633161D01*
X176528784Y-68266319D01*
X176528801Y-68266362D01*
X176528810Y-68266385D01*
X176783397Y-68897522D01*
X177181933Y-69885519D01*
X177181934Y-69885522D01*
X177870742Y-71489805D01*
X177870753Y-71489831D01*
X177870756Y-71489836D01*
X178594918Y-73078492D01*
X178594933Y-73078523D01*
X178594938Y-73078534D01*
X179354058Y-74650701D01*
X179354073Y-74650731D01*
X180147858Y-76205796D01*
X180975822Y-77742810D01*
X180975851Y-77742864D01*
X181278164Y-78275483D01*
X181837678Y-79261243D01*
X181837682Y-79261249D01*
X181837689Y-79261262D01*
X182317045Y-80063870D01*
X182732911Y-80760176D01*
X183420770Y-81856033D01*
X183661102Y-82238916D01*
X183661138Y-82238972D01*
X184621788Y-83696723D01*
X184621804Y-83696746D01*
X184621811Y-83696757D01*
X185614553Y-85132968D01*
X186638847Y-86546849D01*
X187694190Y-87937708D01*
X188780065Y-89304863D01*
X188780080Y-89304881D01*
X188780096Y-89304901D01*
X188780100Y-89304907D01*
X189571242Y-90256922D01*
X189895939Y-90647644D01*
X189895951Y-90647658D01*
X190073330Y-90851740D01*
X191041267Y-91965393D01*
X191041296Y-91965425D01*
X191041297Y-91965426D01*
X192215457Y-93257433D01*
X192215522Y-93257502D01*
X192786990Y-93859026D01*
X192787012Y-93859051D01*
X192815845Y-93889398D01*
X192817584Y-93891307D01*
X193067179Y-94177272D01*
X193081383Y-94193545D01*
X193084656Y-94197631D01*
X193321228Y-94519944D01*
X193324145Y-94524291D01*
X193532702Y-94865415D01*
X193535242Y-94869993D01*
X193714287Y-95227476D01*
X193716431Y-95232251D01*
X193864699Y-95603569D01*
X193866433Y-95608508D01*
X193982861Y-95991005D01*
X193984171Y-95996067D01*
X194022946Y-96177044D01*
X194067931Y-96387011D01*
X194068811Y-96392172D01*
X194119306Y-96788789D01*
X194119747Y-96794005D01*
X194136645Y-97194037D01*
X194136700Y-97196654D01*
X194136700Y-141160751D01*
X194136401Y-141166832D01*
X194122535Y-141307619D01*
X194117793Y-141331461D01*
X194079386Y-141458071D01*
X194070083Y-141480528D01*
X194007717Y-141597206D01*
X193994212Y-141617418D01*
X193910279Y-141719691D01*
X193893091Y-141736879D01*
X193790818Y-141820812D01*
X193770606Y-141834317D01*
X193653928Y-141896683D01*
X193631471Y-141905986D01*
X193504861Y-141944393D01*
X193481019Y-141949135D01*
X193340233Y-141963001D01*
X193334152Y-141963300D01*
X123157791Y-141963300D01*
X123090752Y-141943615D01*
X123044997Y-141890811D01*
X123035053Y-141821653D01*
X123064078Y-141758097D01*
X123093001Y-141733573D01*
X123163029Y-141690659D01*
X123179059Y-141680836D01*
X123370624Y-141517224D01*
X123534236Y-141325659D01*
X123665866Y-141110859D01*
X123762273Y-140878111D01*
X123821083Y-140633148D01*
X123835900Y-140444882D01*
X123835900Y-139921706D01*
X131102828Y-139921706D01*
X131112613Y-140152062D01*
X131112614Y-140152070D01*
X131161190Y-140377462D01*
X131161190Y-140377463D01*
X131247157Y-140591402D01*
X131368048Y-140787742D01*
X131520380Y-140960825D01*
X131520384Y-140960829D01*
X131699765Y-141105669D01*
X131699766Y-141105670D01*
X131699769Y-141105671D01*
X131699772Y-141105674D01*
X131901063Y-141218121D01*
X132118462Y-141294933D01*
X132245272Y-141316677D01*
X132345706Y-141333899D01*
X132345715Y-141333900D01*
X132518534Y-141333900D01*
X132518535Y-141333900D01*
X132518536Y-141333899D01*
X132518553Y-141333899D01*
X132690734Y-141319244D01*
X132690737Y-141319243D01*
X132690739Y-141319243D01*
X132913869Y-141261145D01*
X133049210Y-141199967D01*
X133123965Y-141166176D01*
X133123967Y-141166175D01*
X133123967Y-141166174D01*
X133123971Y-141166173D01*
X133315000Y-141037059D01*
X133481462Y-140877519D01*
X133618566Y-140692142D01*
X133722370Y-140486260D01*
X133789886Y-140265797D01*
X133819172Y-140037094D01*
X133809386Y-139806732D01*
X133760810Y-139581338D01*
X133674841Y-139367394D01*
X133553951Y-139171057D01*
X133401620Y-138997975D01*
X133401619Y-138997974D01*
X133401615Y-138997970D01*
X133222234Y-138853130D01*
X133222233Y-138853129D01*
X133216934Y-138850169D01*
X133167837Y-138822741D01*
X133020938Y-138740679D01*
X132803541Y-138663868D01*
X132803540Y-138663867D01*
X132803538Y-138663867D01*
X132803534Y-138663866D01*
X132803533Y-138663866D01*
X132576293Y-138624900D01*
X132576285Y-138624900D01*
X132403465Y-138624900D01*
X132403446Y-138624900D01*
X132231265Y-138639555D01*
X132008131Y-138697654D01*
X131798034Y-138792623D01*
X131798032Y-138792624D01*
X131682159Y-138870942D01*
X131632755Y-138904334D01*
X131606999Y-138921742D01*
X131440540Y-139081278D01*
X131303434Y-139266657D01*
X131199630Y-139472538D01*
X131132113Y-139693006D01*
X131102828Y-139921706D01*
X123835900Y-139921706D01*
X123835900Y-139019118D01*
X123821083Y-138830852D01*
X123762273Y-138585889D01*
X123740098Y-138532353D01*
X123665866Y-138353140D01*
X123534239Y-138138346D01*
X123534238Y-138138343D01*
X123448450Y-138037899D01*
X123370624Y-137946776D01*
X123243971Y-137838604D01*
X123179056Y-137783161D01*
X123179053Y-137783160D01*
X122964259Y-137651533D01*
X122731510Y-137555126D01*
X122486551Y-137496317D01*
X122298186Y-137481492D01*
X122235400Y-137476551D01*
X122235399Y-137476551D01*
X121984248Y-137496317D01*
X121739289Y-137555126D01*
X121506540Y-137651533D01*
X121291746Y-137783160D01*
X121291743Y-137783161D01*
X121100176Y-137946776D01*
X120939925Y-138134405D01*
X120881418Y-138172598D01*
X120811550Y-138173096D01*
X120777324Y-138157360D01*
X120730366Y-138126363D01*
X120523395Y-138037899D01*
X120523382Y-138037895D01*
X120303942Y-137987810D01*
X120303938Y-137987809D01*
X120303937Y-137987809D01*
X120303936Y-137987808D01*
X120303931Y-137987808D01*
X120079074Y-137977710D01*
X120079073Y-137977710D01*
X120079070Y-137977710D01*
X119856013Y-138007925D01*
X119856010Y-138007925D01*
X119856009Y-138007926D01*
X119641934Y-138077483D01*
X119443721Y-138184146D01*
X119443718Y-138184148D01*
X119337213Y-138269084D01*
X119272526Y-138295493D01*
X119203831Y-138282736D01*
X119152937Y-138234866D01*
X119135900Y-138172137D01*
X119135900Y-135058700D01*
X119155585Y-134991661D01*
X119208389Y-134945906D01*
X119259900Y-134934700D01*
X137412698Y-134934700D01*
X137479737Y-134954385D01*
X137500379Y-134971019D01*
X141302679Y-138773319D01*
X141336164Y-138834642D01*
X141331180Y-138904334D01*
X141289308Y-138960267D01*
X141223844Y-138984684D01*
X141214998Y-138985000D01*
X140787200Y-138985000D01*
X140787200Y-139899498D01*
X140679515Y-139850320D01*
X140572963Y-139835000D01*
X140501437Y-139835000D01*
X140394885Y-139850320D01*
X140287200Y-139899498D01*
X140287200Y-138985000D01*
X139639355Y-138985000D01*
X139579827Y-138991401D01*
X139579820Y-138991403D01*
X139445113Y-139041645D01*
X139445106Y-139041649D01*
X139330012Y-139127809D01*
X139330009Y-139127812D01*
X139243849Y-139242906D01*
X139243845Y-139242913D01*
X139193603Y-139377620D01*
X139193601Y-139377627D01*
X139187200Y-139437155D01*
X139187200Y-140085000D01*
X140103514Y-140085000D01*
X140077707Y-140125156D01*
X140037200Y-140263111D01*
X140037200Y-140406889D01*
X140077707Y-140544844D01*
X140103514Y-140585000D01*
X139187200Y-140585000D01*
X139187200Y-141232844D01*
X139193601Y-141292372D01*
X139193603Y-141292379D01*
X139243845Y-141427086D01*
X139243849Y-141427093D01*
X139330009Y-141542187D01*
X139330012Y-141542190D01*
X139445106Y-141628350D01*
X139445113Y-141628354D01*
X139579820Y-141678596D01*
X139579827Y-141678598D01*
X139639355Y-141684999D01*
X139639372Y-141685000D01*
X140287200Y-141685000D01*
X140287200Y-140770501D01*
X140394885Y-140819680D01*
X140501437Y-140835000D01*
X140572963Y-140835000D01*
X140679515Y-140819680D01*
X140787200Y-140770501D01*
X140787200Y-141685000D01*
X141435028Y-141685000D01*
X141435044Y-141684999D01*
X141494572Y-141678598D01*
X141494579Y-141678596D01*
X141629286Y-141628354D01*
X141629293Y-141628350D01*
X141744387Y-141542190D01*
X141744390Y-141542187D01*
X141830550Y-141427093D01*
X141830554Y-141427086D01*
X141879622Y-141295529D01*
X141921493Y-141239595D01*
X141986957Y-141215178D01*
X142055230Y-141230030D01*
X142083485Y-141251181D01*
X142205799Y-141373495D01*
X142282335Y-141427086D01*
X142399365Y-141509032D01*
X142399367Y-141509033D01*
X142399370Y-141509035D01*
X142613537Y-141608903D01*
X142841792Y-141670063D01*
X143012519Y-141685000D01*
X143077199Y-141690659D01*
X143077200Y-141690659D01*
X143077201Y-141690659D01*
X143141881Y-141685000D01*
X143312608Y-141670063D01*
X143540863Y-141608903D01*
X143755030Y-141509035D01*
X143948601Y-141373495D01*
X144115695Y-141206401D01*
X144245624Y-141020842D01*
X144300202Y-140977217D01*
X144369700Y-140970023D01*
X144432055Y-141001546D01*
X144448775Y-141020842D01*
X144578700Y-141206395D01*
X144578705Y-141206401D01*
X144745799Y-141373495D01*
X144822335Y-141427086D01*
X144939365Y-141509032D01*
X144939367Y-141509033D01*
X144939370Y-141509035D01*
X145153537Y-141608903D01*
X145381792Y-141670063D01*
X145552519Y-141685000D01*
X145617199Y-141690659D01*
X145617200Y-141690659D01*
X145617201Y-141690659D01*
X145681881Y-141685000D01*
X145852608Y-141670063D01*
X146080863Y-141608903D01*
X146295030Y-141509035D01*
X146488601Y-141373495D01*
X146655695Y-141206401D01*
X146785624Y-141020842D01*
X146840202Y-140977217D01*
X146909700Y-140970023D01*
X146972055Y-141001546D01*
X146988775Y-141020842D01*
X147118700Y-141206395D01*
X147118705Y-141206401D01*
X147285799Y-141373495D01*
X147362335Y-141427086D01*
X147479365Y-141509032D01*
X147479367Y-141509033D01*
X147479370Y-141509035D01*
X147693537Y-141608903D01*
X147921792Y-141670063D01*
X148092519Y-141685000D01*
X148157199Y-141690659D01*
X148157200Y-141690659D01*
X148157201Y-141690659D01*
X148221881Y-141685000D01*
X148392608Y-141670063D01*
X148620863Y-141608903D01*
X148835030Y-141509035D01*
X149028601Y-141373495D01*
X149195695Y-141206401D01*
X149331235Y-141012830D01*
X149431103Y-140798663D01*
X149492263Y-140570408D01*
X149512859Y-140335000D01*
X149492263Y-140099592D01*
X149431103Y-139871337D01*
X149430902Y-139870906D01*
X154928028Y-139870906D01*
X154937813Y-140101262D01*
X154937814Y-140101270D01*
X154986390Y-140326662D01*
X154986390Y-140326663D01*
X155072357Y-140540602D01*
X155072359Y-140540606D01*
X155134385Y-140641342D01*
X155193248Y-140736942D01*
X155345580Y-140910025D01*
X155345584Y-140910029D01*
X155524965Y-141054869D01*
X155524966Y-141054870D01*
X155524969Y-141054871D01*
X155524972Y-141054874D01*
X155676475Y-141139508D01*
X155725387Y-141166832D01*
X155726263Y-141167321D01*
X155943662Y-141244133D01*
X156070472Y-141265877D01*
X156170906Y-141283099D01*
X156170915Y-141283100D01*
X156343734Y-141283100D01*
X156343735Y-141283100D01*
X156343736Y-141283099D01*
X156343753Y-141283099D01*
X156515934Y-141268444D01*
X156515937Y-141268443D01*
X156515939Y-141268443D01*
X156739069Y-141210345D01*
X156867429Y-141152322D01*
X156949165Y-141115376D01*
X156949167Y-141115375D01*
X156949167Y-141115374D01*
X156949171Y-141115373D01*
X157140200Y-140986259D01*
X157306662Y-140826719D01*
X157443766Y-140641342D01*
X157547570Y-140435460D01*
X157615086Y-140214997D01*
X157644372Y-139986294D01*
X157634586Y-139755932D01*
X157586010Y-139530538D01*
X157560892Y-139468030D01*
X157513334Y-139349675D01*
X157500041Y-139316594D01*
X157379151Y-139120257D01*
X157226820Y-138947175D01*
X157226819Y-138947174D01*
X157226815Y-138947170D01*
X157047434Y-138802330D01*
X157047433Y-138802329D01*
X157042007Y-138799298D01*
X156929282Y-138736326D01*
X156846138Y-138689879D01*
X156628741Y-138613068D01*
X156628740Y-138613067D01*
X156628738Y-138613067D01*
X156628734Y-138613066D01*
X156628733Y-138613066D01*
X156401493Y-138574100D01*
X156401485Y-138574100D01*
X156228665Y-138574100D01*
X156228646Y-138574100D01*
X156056465Y-138588755D01*
X155833331Y-138646854D01*
X155623234Y-138741823D01*
X155623232Y-138741824D01*
X155528568Y-138805807D01*
X155440103Y-138865600D01*
X155432199Y-138870942D01*
X155265740Y-139030478D01*
X155128634Y-139215857D01*
X155024830Y-139421738D01*
X154957313Y-139642206D01*
X154928028Y-139870906D01*
X149430902Y-139870906D01*
X149331235Y-139657171D01*
X149325625Y-139649158D01*
X149195694Y-139463597D01*
X149028602Y-139296506D01*
X149028601Y-139296505D01*
X148835576Y-139161347D01*
X148791951Y-139106770D01*
X148782700Y-139059772D01*
X148782700Y-137066778D01*
X148802385Y-136999739D01*
X148814551Y-136983805D01*
X148816661Y-136981462D01*
X148839933Y-136955616D01*
X148934579Y-136791684D01*
X148993074Y-136611656D01*
X149012860Y-136423400D01*
X148993074Y-136235144D01*
X148934579Y-136055116D01*
X148839933Y-135891184D01*
X148713271Y-135750512D01*
X148713270Y-135750511D01*
X148560134Y-135639251D01*
X148560129Y-135639248D01*
X148387207Y-135562257D01*
X148387202Y-135562255D01*
X148241401Y-135531265D01*
X148202046Y-135522900D01*
X148012754Y-135522900D01*
X147980297Y-135529798D01*
X147827597Y-135562255D01*
X147827592Y-135562257D01*
X147654670Y-135639248D01*
X147654665Y-135639251D01*
X147501529Y-135750511D01*
X147374866Y-135891185D01*
X147280221Y-136055115D01*
X147280218Y-136055122D01*
X147244322Y-136165600D01*
X147221726Y-136235144D01*
X147201940Y-136423400D01*
X147221726Y-136611656D01*
X147221727Y-136611659D01*
X147280218Y-136791677D01*
X147280221Y-136791684D01*
X147374867Y-136955616D01*
X147491072Y-137084674D01*
X147499850Y-137094423D01*
X147530080Y-137157414D01*
X147531700Y-137177395D01*
X147531700Y-139059773D01*
X147512015Y-139126812D01*
X147478823Y-139161348D01*
X147285797Y-139296505D01*
X147118705Y-139463597D01*
X146988775Y-139649158D01*
X146934198Y-139692783D01*
X146864700Y-139699977D01*
X146802345Y-139668454D01*
X146785625Y-139649158D01*
X146655694Y-139463597D01*
X146488602Y-139296506D01*
X146488595Y-139296501D01*
X146295034Y-139160967D01*
X146295030Y-139160965D01*
X146263817Y-139146410D01*
X146080863Y-139061097D01*
X146080859Y-139061096D01*
X146080855Y-139061094D01*
X145852613Y-138999938D01*
X145852603Y-138999936D01*
X145617201Y-138979341D01*
X145617199Y-138979341D01*
X145381796Y-138999936D01*
X145381786Y-138999938D01*
X145153544Y-139061094D01*
X145153535Y-139061098D01*
X144939371Y-139160964D01*
X144939369Y-139160965D01*
X144745797Y-139296505D01*
X144578705Y-139463597D01*
X144448775Y-139649158D01*
X144394198Y-139692783D01*
X144324700Y-139699977D01*
X144262345Y-139668454D01*
X144245625Y-139649158D01*
X144115694Y-139463597D01*
X144114019Y-139461922D01*
X144113515Y-139461000D01*
X144112214Y-139459449D01*
X144112525Y-139459187D01*
X144080534Y-139400599D01*
X144077700Y-139374241D01*
X144077700Y-139146410D01*
X144077720Y-139144840D01*
X144078152Y-139127812D01*
X144079842Y-139061094D01*
X144079957Y-139056560D01*
X144079956Y-139056559D01*
X144079957Y-139056556D01*
X144069133Y-138996168D01*
X144068480Y-138991506D01*
X144062274Y-138930482D01*
X144059532Y-138921742D01*
X144051984Y-138897687D01*
X144050117Y-138890074D01*
X144044058Y-138856266D01*
X144044057Y-138856264D01*
X144041622Y-138850169D01*
X144021300Y-138799293D01*
X144019721Y-138794857D01*
X144019021Y-138792627D01*
X144001359Y-138736331D01*
X144001358Y-138736329D01*
X144001357Y-138736326D01*
X143984688Y-138706297D01*
X143981317Y-138699197D01*
X143968578Y-138667305D01*
X143968577Y-138667302D01*
X143934820Y-138616082D01*
X143932380Y-138612053D01*
X143913523Y-138578081D01*
X143902609Y-138558417D01*
X143902607Y-138558414D01*
X143880233Y-138532353D01*
X143875502Y-138526078D01*
X143856602Y-138497400D01*
X143813212Y-138454010D01*
X143810022Y-138450567D01*
X143770067Y-138404025D01*
X143770063Y-138404021D01*
X143742898Y-138382993D01*
X143737003Y-138377801D01*
X138595493Y-133236292D01*
X138594396Y-133235167D01*
X138533542Y-133171149D01*
X138533541Y-133171148D01*
X138533540Y-133171147D01*
X138505685Y-133151759D01*
X138483190Y-133136102D01*
X138479427Y-133133264D01*
X138431894Y-133094505D01*
X138431887Y-133094500D01*
X138401440Y-133078597D01*
X138394732Y-133074534D01*
X138366530Y-133054905D01*
X138366527Y-133054903D01*
X138366526Y-133054903D01*
X138366522Y-133054901D01*
X138310161Y-133030714D01*
X138305905Y-133028693D01*
X138251538Y-133000294D01*
X138251531Y-133000291D01*
X138251530Y-133000291D01*
X138245489Y-132998562D01*
X138218511Y-132990842D01*
X138211111Y-132988208D01*
X138179538Y-132974659D01*
X138179539Y-132974659D01*
X138119447Y-132962309D01*
X138114872Y-132961186D01*
X138055901Y-132944313D01*
X138055906Y-132944313D01*
X138021639Y-132941703D01*
X138013861Y-132940612D01*
X137980223Y-132933700D01*
X137980222Y-132933700D01*
X137918883Y-132933700D01*
X137914176Y-132933521D01*
X137908602Y-132933096D01*
X137853005Y-132928862D01*
X137833070Y-132931401D01*
X137818921Y-132933203D01*
X137811092Y-132933700D01*
X119259900Y-132933700D01*
X119192861Y-132914015D01*
X119147106Y-132861211D01*
X119135900Y-132809700D01*
X119135900Y-104778581D01*
X119155585Y-104711542D01*
X119172214Y-104690904D01*
X120215901Y-103647217D01*
X120277224Y-103613733D01*
X120303582Y-103610899D01*
X121085671Y-103610899D01*
X121085672Y-103610899D01*
X121145283Y-103604491D01*
X121280131Y-103554196D01*
X121395346Y-103467946D01*
X121481596Y-103352731D01*
X121530610Y-103221316D01*
X121572481Y-103165384D01*
X121637945Y-103140966D01*
X121706218Y-103155817D01*
X121734473Y-103176969D01*
X121856399Y-103298895D01*
X121953184Y-103366665D01*
X122049965Y-103434432D01*
X122049967Y-103434433D01*
X122049970Y-103434435D01*
X122264137Y-103534303D01*
X122492392Y-103595463D01*
X122680718Y-103611939D01*
X122727799Y-103616059D01*
X122727800Y-103616059D01*
X122727801Y-103616059D01*
X122767034Y-103612626D01*
X122963208Y-103595463D01*
X123191463Y-103534303D01*
X123405630Y-103434435D01*
X123599201Y-103298895D01*
X123766295Y-103131801D01*
X123901835Y-102938230D01*
X124001703Y-102724063D01*
X124062863Y-102495808D01*
X124083459Y-102260400D01*
X124062863Y-102024992D01*
X124001703Y-101796737D01*
X123901835Y-101582571D01*
X123844693Y-101500964D01*
X123766295Y-101388999D01*
X123764626Y-101387330D01*
X123764123Y-101386409D01*
X123762814Y-101384849D01*
X123763127Y-101384586D01*
X123731135Y-101326010D01*
X123728300Y-101299650D01*
X123728300Y-99282253D01*
X123728320Y-99280684D01*
X123730557Y-99192404D01*
X123730556Y-99192403D01*
X123730557Y-99192400D01*
X123719733Y-99132016D01*
X123719080Y-99127350D01*
X123715812Y-99095221D01*
X123712874Y-99066325D01*
X123702588Y-99033543D01*
X123700718Y-99025929D01*
X123694658Y-98992111D01*
X123671892Y-98935115D01*
X123670327Y-98930718D01*
X123651959Y-98872175D01*
X123643498Y-98856932D01*
X123635291Y-98842145D01*
X123631920Y-98835047D01*
X123619178Y-98803146D01*
X123619177Y-98803145D01*
X123619177Y-98803143D01*
X123585417Y-98751921D01*
X123582983Y-98747905D01*
X123553209Y-98694261D01*
X123552255Y-98692542D01*
X123536933Y-98624373D01*
X123560898Y-98558742D01*
X123616542Y-98516486D01*
X123632070Y-98512283D01*
X123631966Y-98511872D01*
X123877917Y-98449587D01*
X124105567Y-98349732D01*
X124313678Y-98213767D01*
X124496564Y-98045407D01*
X124496573Y-98045397D01*
X124649251Y-97849237D01*
X124649257Y-97849228D01*
X124767564Y-97630614D01*
X124767569Y-97630603D01*
X124848283Y-97395492D01*
X124868223Y-97276000D01*
X123426917Y-97276000D01*
X123462571Y-97237269D01*
X123513648Y-97120823D01*
X123524149Y-96994102D01*
X123492934Y-96870838D01*
X123430973Y-96776000D01*
X124868222Y-96776000D01*
X124868223Y-96775999D01*
X124848283Y-96656507D01*
X124767569Y-96421396D01*
X124767564Y-96421385D01*
X124649257Y-96202771D01*
X124649251Y-96202762D01*
X124496573Y-96006602D01*
X124496564Y-96006592D01*
X124313677Y-95838232D01*
X124313678Y-95838232D01*
X124105567Y-95702267D01*
X123877917Y-95602412D01*
X123636938Y-95541387D01*
X123636930Y-95541385D01*
X123451254Y-95526000D01*
X123389200Y-95526000D01*
X123389200Y-96737779D01*
X123323043Y-96686287D01*
X123202778Y-96645000D01*
X123107631Y-96645000D01*
X123013779Y-96660661D01*
X122901949Y-96721180D01*
X122889200Y-96735029D01*
X122889200Y-95526000D01*
X122827145Y-95526000D01*
X122641469Y-95541385D01*
X122641461Y-95541387D01*
X122400482Y-95602412D01*
X122172832Y-95702267D01*
X121964721Y-95838232D01*
X121781835Y-96006592D01*
X121781826Y-96006602D01*
X121629148Y-96202762D01*
X121629142Y-96202771D01*
X121514314Y-96414957D01*
X121465095Y-96464548D01*
X121396878Y-96479656D01*
X121331322Y-96455486D01*
X121317578Y-96443621D01*
X114676419Y-89802462D01*
X114642934Y-89741139D01*
X114640100Y-89714781D01*
X114640100Y-82058289D01*
X119107700Y-82058289D01*
X119146890Y-82318303D01*
X119146892Y-82318309D01*
X119224402Y-82569588D01*
X119338495Y-82806505D01*
X119338497Y-82806507D01*
X119338498Y-82806510D01*
X119486630Y-83023780D01*
X119665490Y-83216546D01*
X119871083Y-83380501D01*
X120098816Y-83511983D01*
X120343602Y-83608054D01*
X120599972Y-83666569D01*
X120599978Y-83666569D01*
X120599981Y-83666570D01*
X120796524Y-83681299D01*
X120796543Y-83681299D01*
X120796546Y-83681300D01*
X120796548Y-83681300D01*
X120927852Y-83681300D01*
X120927854Y-83681300D01*
X120927856Y-83681299D01*
X120927875Y-83681299D01*
X121124418Y-83666570D01*
X121124420Y-83666569D01*
X121124428Y-83666569D01*
X121380798Y-83608054D01*
X121625584Y-83511983D01*
X121853317Y-83380501D01*
X122058910Y-83216546D01*
X122237770Y-83023780D01*
X122385902Y-82806510D01*
X122499998Y-82569588D01*
X122577508Y-82318308D01*
X122589474Y-82238922D01*
X122616699Y-82058289D01*
X122616700Y-82058280D01*
X122616700Y-81795319D01*
X122616699Y-81795310D01*
X122577509Y-81535296D01*
X122577507Y-81535290D01*
X122499998Y-81284012D01*
X122385902Y-81047090D01*
X122237770Y-80829820D01*
X122058910Y-80637054D01*
X121853317Y-80473099D01*
X121625584Y-80341617D01*
X121380798Y-80245546D01*
X121380793Y-80245544D01*
X121380784Y-80245542D01*
X121162701Y-80195766D01*
X121124428Y-80187031D01*
X121124427Y-80187030D01*
X121124423Y-80187030D01*
X121124418Y-80187029D01*
X120927875Y-80172300D01*
X120927854Y-80172300D01*
X120796546Y-80172300D01*
X120796524Y-80172300D01*
X120599981Y-80187029D01*
X120599976Y-80187030D01*
X120343615Y-80245542D01*
X120343596Y-80245548D01*
X120098815Y-80341617D01*
X119871083Y-80473099D01*
X119665490Y-80637054D01*
X119665488Y-80637056D01*
X119486630Y-80829819D01*
X119338495Y-81047094D01*
X119224402Y-81284011D01*
X119146892Y-81535290D01*
X119146890Y-81535296D01*
X119107700Y-81795310D01*
X119107700Y-82058289D01*
X114640100Y-82058289D01*
X114640100Y-80020440D01*
X114640100Y-70315778D01*
X114659784Y-70248743D01*
X114676409Y-70228111D01*
X126920902Y-57983618D01*
X126982225Y-57950134D01*
X127008583Y-57947300D01*
X127649345Y-57947300D01*
X127716384Y-57966985D01*
X127740574Y-57987317D01*
X127802452Y-58054534D01*
X127802456Y-58054538D01*
X127998691Y-58207274D01*
X127998693Y-58207275D01*
X128216532Y-58325164D01*
X128217390Y-58325628D01*
X128436341Y-58400794D01*
X128451164Y-58405883D01*
X128452586Y-58406371D01*
X128697865Y-58447300D01*
X128946535Y-58447300D01*
X129191814Y-58406371D01*
X129427010Y-58325628D01*
X129645709Y-58207274D01*
X129841944Y-58054538D01*
X130010364Y-57871585D01*
X130010733Y-57871019D01*
X130010945Y-57870838D01*
X130013522Y-57867529D01*
X130014202Y-57868058D01*
X130063876Y-57825660D01*
X130127338Y-57815497D01*
X130138764Y-57816682D01*
X130871066Y-57084380D01*
X130893518Y-57160840D01*
X130972805Y-57284213D01*
X131083638Y-57380251D01*
X131217039Y-57441173D01*
X131220834Y-57441718D01*
X130492142Y-58170409D01*
X130538968Y-58206855D01*
X130538970Y-58206856D01*
X130757585Y-58325164D01*
X130757596Y-58325169D01*
X130992706Y-58405883D01*
X131237907Y-58446800D01*
X131486493Y-58446800D01*
X131731691Y-58405883D01*
X131813235Y-58377889D01*
X131883034Y-58374739D01*
X131943455Y-58409824D01*
X131975316Y-58472007D01*
X131977499Y-58495170D01*
X131977499Y-59507373D01*
X131957814Y-59574412D01*
X131924623Y-59608948D01*
X131731597Y-59744105D01*
X131609673Y-59866030D01*
X131548350Y-59899514D01*
X131478658Y-59894530D01*
X131422725Y-59852658D01*
X131405810Y-59821681D01*
X131356797Y-59690271D01*
X131356793Y-59690264D01*
X131270547Y-59575055D01*
X131270544Y-59575052D01*
X131155335Y-59488806D01*
X131155328Y-59488802D01*
X131020482Y-59438508D01*
X131020483Y-59438508D01*
X130960883Y-59432101D01*
X130960881Y-59432100D01*
X130960873Y-59432100D01*
X130960864Y-59432100D01*
X129165129Y-59432100D01*
X129165123Y-59432101D01*
X129105516Y-59438508D01*
X128970671Y-59488802D01*
X128970664Y-59488806D01*
X128855455Y-59575052D01*
X128855452Y-59575055D01*
X128769206Y-59690264D01*
X128769202Y-59690271D01*
X128718908Y-59825117D01*
X128712501Y-59884716D01*
X128712500Y-59884735D01*
X128712500Y-61130946D01*
X128692815Y-61197985D01*
X128676181Y-61218627D01*
X125905008Y-63989799D01*
X125892751Y-63999620D01*
X125892934Y-63999841D01*
X125886922Y-64004814D01*
X125840232Y-64054532D01*
X125838879Y-64055929D01*
X125818689Y-64076119D01*
X125818677Y-64076132D01*
X125814421Y-64081617D01*
X125810637Y-64086047D01*
X125778737Y-64120018D01*
X125778736Y-64120020D01*
X125769084Y-64137576D01*
X125758410Y-64153826D01*
X125746129Y-64169661D01*
X125746124Y-64169668D01*
X125727615Y-64212438D01*
X125725045Y-64217684D01*
X125702603Y-64258506D01*
X125697622Y-64277907D01*
X125691321Y-64296310D01*
X125683362Y-64314702D01*
X125683361Y-64314705D01*
X125676071Y-64360727D01*
X125674887Y-64366446D01*
X125663301Y-64411572D01*
X125663300Y-64411582D01*
X125663300Y-64431616D01*
X125661773Y-64451015D01*
X125658640Y-64470794D01*
X125658640Y-64470795D01*
X125663025Y-64517183D01*
X125663300Y-64523021D01*
X125663300Y-76466512D01*
X125643615Y-76533551D01*
X125631450Y-76549484D01*
X125556266Y-76632984D01*
X125461621Y-76796915D01*
X125461618Y-76796922D01*
X125403127Y-76976940D01*
X125403126Y-76976944D01*
X125383340Y-77165200D01*
X125403126Y-77353456D01*
X125403127Y-77353459D01*
X125461618Y-77533477D01*
X125461621Y-77533484D01*
X125556267Y-77697416D01*
X125663648Y-77816674D01*
X125682929Y-77838088D01*
X125836065Y-77949348D01*
X125836070Y-77949351D01*
X126008992Y-78026342D01*
X126008997Y-78026344D01*
X126194154Y-78065700D01*
X126194155Y-78065700D01*
X126383444Y-78065700D01*
X126383446Y-78065700D01*
X126461547Y-78049099D01*
X126531212Y-78054415D01*
X126586945Y-78096552D01*
X126611051Y-78162131D01*
X126595874Y-78230333D01*
X126575007Y-78258070D01*
X123355691Y-81477387D01*
X123354567Y-81478483D01*
X123290546Y-81539342D01*
X123255499Y-81589694D01*
X123252662Y-81593456D01*
X123213902Y-81640992D01*
X123213899Y-81640997D01*
X123197992Y-81671447D01*
X123193924Y-81678161D01*
X123174302Y-81706354D01*
X123150109Y-81762730D01*
X123148088Y-81766984D01*
X123119691Y-81821351D01*
X123119690Y-81821352D01*
X123110240Y-81854375D01*
X123107607Y-81861771D01*
X123094059Y-81893343D01*
X123081713Y-81953419D01*
X123080590Y-81957995D01*
X123063713Y-82016977D01*
X123063713Y-82016979D01*
X123061103Y-82051241D01*
X123060014Y-82059008D01*
X123054580Y-82085452D01*
X123053100Y-82092658D01*
X123053100Y-82153997D01*
X123052921Y-82158706D01*
X123048262Y-82219874D01*
X123050307Y-82235927D01*
X123052603Y-82253960D01*
X123053100Y-82261788D01*
X123053100Y-86261500D01*
X123033415Y-86328539D01*
X122980611Y-86374294D01*
X122929100Y-86385500D01*
X122827122Y-86385500D01*
X122641386Y-86400890D01*
X122641375Y-86400892D01*
X122400318Y-86461936D01*
X122172593Y-86561826D01*
X121964417Y-86697833D01*
X121781461Y-86866257D01*
X121628724Y-87062493D01*
X121510372Y-87281188D01*
X121510369Y-87281197D01*
X121429629Y-87516383D01*
X121410902Y-87628611D01*
X121388700Y-87761665D01*
X121388700Y-88010335D01*
X121393776Y-88040753D01*
X121429629Y-88255616D01*
X121510369Y-88490802D01*
X121510372Y-88490811D01*
X121628496Y-88709084D01*
X121628726Y-88709509D01*
X121781462Y-88905744D01*
X121912998Y-89026831D01*
X121964417Y-89074166D01*
X122172593Y-89210173D01*
X122400318Y-89310063D01*
X122595370Y-89359457D01*
X122641379Y-89371108D01*
X122641381Y-89371108D01*
X122641386Y-89371109D01*
X122794789Y-89383819D01*
X122827133Y-89386500D01*
X123173417Y-89386500D01*
X123240456Y-89406185D01*
X123261098Y-89422819D01*
X126090180Y-92251901D01*
X126123665Y-92313224D01*
X126126499Y-92339582D01*
X126126499Y-118147306D01*
X126126479Y-118148875D01*
X126124243Y-118237161D01*
X126124243Y-118237170D01*
X126135064Y-118297539D01*
X126135718Y-118302204D01*
X126141925Y-118363230D01*
X126141927Y-118363244D01*
X126152208Y-118396013D01*
X126154079Y-118403637D01*
X126160142Y-118437452D01*
X126160142Y-118437455D01*
X126182894Y-118494412D01*
X126184474Y-118498851D01*
X126202841Y-118557388D01*
X126202844Y-118557395D01*
X126219509Y-118587419D01*
X126222879Y-118594514D01*
X126235622Y-118626414D01*
X126235627Y-118626424D01*
X126269377Y-118677633D01*
X126271818Y-118681663D01*
X126301588Y-118735298D01*
X126301589Y-118735299D01*
X126301591Y-118735302D01*
X126323968Y-118761367D01*
X126328693Y-118767635D01*
X126341263Y-118786706D01*
X126347598Y-118796319D01*
X126390978Y-118839699D01*
X126394169Y-118843143D01*
X126434131Y-118889692D01*
X126434134Y-118889695D01*
X126461294Y-118910718D01*
X126467190Y-118915911D01*
X129026242Y-121474963D01*
X129027301Y-121476050D01*
X129088137Y-121540050D01*
X129088141Y-121540053D01*
X129138481Y-121575092D01*
X129142243Y-121577928D01*
X129189787Y-121616694D01*
X129189790Y-121616695D01*
X129189793Y-121616698D01*
X129220245Y-121632604D01*
X129226958Y-121636672D01*
X129255151Y-121656295D01*
X129311529Y-121680489D01*
X129315778Y-121682507D01*
X129370151Y-121710909D01*
X129397689Y-121718788D01*
X129403174Y-121720358D01*
X129410568Y-121722990D01*
X129442142Y-121736540D01*
X129442145Y-121736540D01*
X129442146Y-121736541D01*
X129502222Y-121748887D01*
X129506800Y-121750010D01*
X129520701Y-121753987D01*
X129565782Y-121766887D01*
X129600039Y-121769495D01*
X129607814Y-121770586D01*
X129641455Y-121777500D01*
X129641459Y-121777500D01*
X129702799Y-121777500D01*
X129707505Y-121777678D01*
X129742263Y-121780325D01*
X129768676Y-121782337D01*
X129768676Y-121782336D01*
X129768677Y-121782337D01*
X129802760Y-121777996D01*
X129810590Y-121777500D01*
X177914617Y-121777500D01*
X177981656Y-121797185D01*
X178002298Y-121813819D01*
X187813229Y-131624750D01*
X187846714Y-131686073D01*
X187843479Y-131750748D01*
X187789321Y-131917432D01*
X187732719Y-132214146D01*
X187732718Y-132214153D01*
X187713754Y-132515594D01*
X187713754Y-132515605D01*
X187732718Y-132817046D01*
X187732719Y-132817053D01*
X187754048Y-132928862D01*
X187785645Y-133094502D01*
X187789320Y-133113764D01*
X187882659Y-133401031D01*
X187882661Y-133401036D01*
X188011265Y-133674332D01*
X188011268Y-133674338D01*
X188173111Y-133929363D01*
X188365652Y-134162105D01*
X188585836Y-134368872D01*
X188585846Y-134368880D01*
X188830193Y-134546408D01*
X188830198Y-134546410D01*
X188830205Y-134546416D01*
X189094896Y-134691932D01*
X189094901Y-134691934D01*
X189094903Y-134691935D01*
X189094904Y-134691936D01*
X189375734Y-134803124D01*
X189375737Y-134803125D01*
X189642028Y-134871496D01*
X189702066Y-134907234D01*
X189733252Y-134969757D01*
X189725684Y-135039216D01*
X189681766Y-135093557D01*
X189615440Y-135115527D01*
X189611191Y-135115600D01*
X188171155Y-135115600D01*
X188111627Y-135122001D01*
X188111620Y-135122003D01*
X187976913Y-135172245D01*
X187976906Y-135172249D01*
X187861812Y-135258409D01*
X187861809Y-135258412D01*
X187775649Y-135373506D01*
X187775645Y-135373513D01*
X187725403Y-135508220D01*
X187725401Y-135508227D01*
X187719000Y-135567755D01*
X187719000Y-137265600D01*
X188788364Y-137265600D01*
X188784431Y-137280279D01*
X188763843Y-137515600D01*
X188784431Y-137750921D01*
X188788364Y-137765600D01*
X187719000Y-137765600D01*
X187719000Y-139463444D01*
X187725401Y-139522972D01*
X187725403Y-139522979D01*
X187775645Y-139657686D01*
X187775649Y-139657693D01*
X187861809Y-139772787D01*
X187861812Y-139772790D01*
X187976906Y-139858950D01*
X187976913Y-139858954D01*
X188111620Y-139909196D01*
X188111627Y-139909198D01*
X188171155Y-139915599D01*
X188171172Y-139915600D01*
X189869000Y-139915600D01*
X189869000Y-138846235D01*
X189883679Y-138850169D01*
X190060055Y-138865600D01*
X190177945Y-138865600D01*
X190354321Y-138850169D01*
X190369000Y-138846235D01*
X190369000Y-139915600D01*
X192066828Y-139915600D01*
X192066844Y-139915599D01*
X192126372Y-139909198D01*
X192126379Y-139909196D01*
X192261086Y-139858954D01*
X192261093Y-139858950D01*
X192376187Y-139772790D01*
X192376190Y-139772787D01*
X192462350Y-139657693D01*
X192462354Y-139657686D01*
X192512596Y-139522979D01*
X192512598Y-139522972D01*
X192518999Y-139463444D01*
X192519000Y-139463427D01*
X192519000Y-137765600D01*
X191449636Y-137765600D01*
X191453569Y-137750921D01*
X191474157Y-137515600D01*
X191453569Y-137280279D01*
X191449636Y-137265600D01*
X192519000Y-137265600D01*
X192519000Y-135567772D01*
X192518999Y-135567755D01*
X192512598Y-135508227D01*
X192512596Y-135508220D01*
X192462354Y-135373513D01*
X192462350Y-135373506D01*
X192376190Y-135258412D01*
X192376187Y-135258409D01*
X192261093Y-135172249D01*
X192261086Y-135172245D01*
X192126379Y-135122003D01*
X192126372Y-135122001D01*
X192066844Y-135115600D01*
X190626809Y-135115600D01*
X190559770Y-135095915D01*
X190514015Y-135043111D01*
X190504071Y-134973953D01*
X190533096Y-134910397D01*
X190591874Y-134872623D01*
X190595972Y-134871496D01*
X190862262Y-134803125D01*
X190862265Y-134803124D01*
X191143095Y-134691936D01*
X191143096Y-134691935D01*
X191143094Y-134691935D01*
X191143104Y-134691932D01*
X191407795Y-134546416D01*
X191652162Y-134368874D01*
X191872349Y-134162104D01*
X192064885Y-133929368D01*
X192226733Y-133674336D01*
X192355341Y-133401030D01*
X192448681Y-133113760D01*
X192505280Y-132817057D01*
X192505743Y-132809700D01*
X192524246Y-132515605D01*
X192524246Y-132515594D01*
X192505281Y-132214153D01*
X192505280Y-132214146D01*
X192505280Y-132214143D01*
X192448681Y-131917440D01*
X192355341Y-131630170D01*
X192354056Y-131627440D01*
X192286309Y-131483469D01*
X192226733Y-131356864D01*
X192064885Y-131101832D01*
X191872349Y-130869096D01*
X191652162Y-130662326D01*
X191652159Y-130662324D01*
X191652153Y-130662319D01*
X191407806Y-130484791D01*
X191407799Y-130484786D01*
X191407795Y-130484784D01*
X191143104Y-130339268D01*
X191143101Y-130339266D01*
X191143096Y-130339264D01*
X191143095Y-130339263D01*
X190862265Y-130228075D01*
X190862262Y-130228074D01*
X190569695Y-130152957D01*
X190270036Y-130115100D01*
X190270027Y-130115100D01*
X189967973Y-130115100D01*
X189967963Y-130115100D01*
X189668304Y-130152957D01*
X189375737Y-130228074D01*
X189375736Y-130228075D01*
X189358811Y-130234776D01*
X189289233Y-130241151D01*
X189227253Y-130208898D01*
X189225485Y-130207164D01*
X179344819Y-120326498D01*
X179311334Y-120265175D01*
X179308500Y-120238817D01*
X179308500Y-119224805D01*
X187834554Y-119224805D01*
X187853518Y-119526246D01*
X187853519Y-119526253D01*
X187853520Y-119526257D01*
X187890390Y-119719539D01*
X187910120Y-119822964D01*
X188003459Y-120110231D01*
X188003461Y-120110236D01*
X188132065Y-120383532D01*
X188132068Y-120383538D01*
X188293911Y-120638563D01*
X188293914Y-120638567D01*
X188293915Y-120638568D01*
X188486451Y-120871304D01*
X188616335Y-120993274D01*
X188706636Y-121078072D01*
X188706646Y-121078080D01*
X188950993Y-121255608D01*
X188950998Y-121255610D01*
X188951005Y-121255616D01*
X189215696Y-121401132D01*
X189215701Y-121401134D01*
X189215703Y-121401135D01*
X189215704Y-121401136D01*
X189496534Y-121512324D01*
X189496537Y-121512325D01*
X189594059Y-121537363D01*
X189789102Y-121587442D01*
X189935839Y-121605979D01*
X190088763Y-121625299D01*
X190088769Y-121625299D01*
X190088773Y-121625300D01*
X190088775Y-121625300D01*
X190390825Y-121625300D01*
X190390827Y-121625300D01*
X190390832Y-121625299D01*
X190390836Y-121625299D01*
X190470391Y-121615248D01*
X190690498Y-121587442D01*
X190983062Y-121512325D01*
X191007519Y-121502642D01*
X191263895Y-121401136D01*
X191263896Y-121401135D01*
X191263894Y-121401135D01*
X191263904Y-121401132D01*
X191528595Y-121255616D01*
X191772962Y-121078074D01*
X191993149Y-120871304D01*
X192185685Y-120638568D01*
X192347533Y-120383536D01*
X192476141Y-120110230D01*
X192569481Y-119822960D01*
X192626080Y-119526257D01*
X192631415Y-119441457D01*
X192645046Y-119224805D01*
X192645046Y-119224794D01*
X192626081Y-118923353D01*
X192626080Y-118923346D01*
X192626080Y-118923343D01*
X192569481Y-118626640D01*
X192476141Y-118339370D01*
X192347533Y-118066064D01*
X192293717Y-117981264D01*
X192185688Y-117811036D01*
X192132200Y-117746380D01*
X191993149Y-117578296D01*
X191902846Y-117493496D01*
X191772963Y-117371527D01*
X191772953Y-117371519D01*
X191528606Y-117193991D01*
X191528599Y-117193986D01*
X191528595Y-117193984D01*
X191263904Y-117048468D01*
X191263901Y-117048466D01*
X191263896Y-117048464D01*
X191263895Y-117048463D01*
X190983065Y-116937275D01*
X190983062Y-116937274D01*
X190690495Y-116862157D01*
X190390836Y-116824300D01*
X190390827Y-116824300D01*
X190088773Y-116824300D01*
X190088763Y-116824300D01*
X189789104Y-116862157D01*
X189496537Y-116937274D01*
X189496534Y-116937275D01*
X189215704Y-117048463D01*
X189215703Y-117048464D01*
X188951005Y-117193984D01*
X188950993Y-117193991D01*
X188706646Y-117371519D01*
X188706636Y-117371527D01*
X188486452Y-117578294D01*
X188293911Y-117811036D01*
X188132068Y-118066061D01*
X188132065Y-118066067D01*
X188003461Y-118339363D01*
X188003459Y-118339368D01*
X187910120Y-118626635D01*
X187853519Y-118923346D01*
X187853518Y-118923353D01*
X187834554Y-119224794D01*
X187834554Y-119224805D01*
X179308500Y-119224805D01*
X179308500Y-100987605D01*
X187809154Y-100987605D01*
X187828118Y-101289046D01*
X187828119Y-101289053D01*
X187847185Y-101388999D01*
X187884110Y-101582569D01*
X187884720Y-101585764D01*
X187978059Y-101873031D01*
X187978061Y-101873036D01*
X188106665Y-102146332D01*
X188106668Y-102146338D01*
X188268511Y-102401363D01*
X188268514Y-102401367D01*
X188268515Y-102401368D01*
X188461051Y-102634104D01*
X188590935Y-102756074D01*
X188681236Y-102840872D01*
X188681246Y-102840880D01*
X188925593Y-103018408D01*
X188925598Y-103018410D01*
X188925605Y-103018416D01*
X189190296Y-103163932D01*
X189190301Y-103163934D01*
X189190303Y-103163935D01*
X189190304Y-103163936D01*
X189471134Y-103275124D01*
X189471137Y-103275125D01*
X189568659Y-103300163D01*
X189763702Y-103350242D01*
X189910439Y-103368779D01*
X190063363Y-103388099D01*
X190063369Y-103388099D01*
X190063373Y-103388100D01*
X190063375Y-103388100D01*
X190365425Y-103388100D01*
X190365427Y-103388100D01*
X190365432Y-103388099D01*
X190365436Y-103388099D01*
X190444991Y-103378048D01*
X190665098Y-103350242D01*
X190957662Y-103275125D01*
X190982119Y-103265442D01*
X191238495Y-103163936D01*
X191238496Y-103163935D01*
X191238494Y-103163935D01*
X191238504Y-103163932D01*
X191503195Y-103018416D01*
X191747562Y-102840874D01*
X191967749Y-102634104D01*
X192160285Y-102401368D01*
X192322133Y-102146336D01*
X192450741Y-101873030D01*
X192544081Y-101585760D01*
X192600680Y-101289057D01*
X192600681Y-101289046D01*
X192619646Y-100987605D01*
X192619646Y-100987594D01*
X192600681Y-100686153D01*
X192600680Y-100686146D01*
X192600680Y-100686143D01*
X192544081Y-100389440D01*
X192450741Y-100102170D01*
X192441279Y-100082063D01*
X192333873Y-99853813D01*
X192322133Y-99828864D01*
X192268317Y-99744064D01*
X192160288Y-99573836D01*
X192160285Y-99573832D01*
X191967749Y-99341096D01*
X191904262Y-99281478D01*
X191747563Y-99134327D01*
X191747553Y-99134319D01*
X191503206Y-98956791D01*
X191503199Y-98956786D01*
X191503195Y-98956784D01*
X191238504Y-98811268D01*
X191238501Y-98811266D01*
X191238496Y-98811264D01*
X191238495Y-98811263D01*
X190957665Y-98700075D01*
X190957662Y-98700074D01*
X190665095Y-98624957D01*
X190365436Y-98587100D01*
X190365427Y-98587100D01*
X190063373Y-98587100D01*
X190063363Y-98587100D01*
X189763704Y-98624957D01*
X189471137Y-98700074D01*
X189471134Y-98700075D01*
X189190304Y-98811263D01*
X189190303Y-98811264D01*
X188925605Y-98956784D01*
X188925593Y-98956791D01*
X188681246Y-99134319D01*
X188681236Y-99134327D01*
X188461052Y-99341094D01*
X188268511Y-99573836D01*
X188106668Y-99828861D01*
X188106665Y-99828867D01*
X187978061Y-100102163D01*
X187978059Y-100102168D01*
X187884720Y-100389435D01*
X187828119Y-100686146D01*
X187828118Y-100686153D01*
X187809154Y-100987594D01*
X187809154Y-100987605D01*
X179308500Y-100987605D01*
X179308500Y-98725358D01*
X179328185Y-98658319D01*
X179344819Y-98637677D01*
X179344818Y-98637677D01*
X179346495Y-98636001D01*
X179482035Y-98442430D01*
X179581903Y-98228263D01*
X179643063Y-98000008D01*
X179663659Y-97764600D01*
X179643063Y-97529192D01*
X179581903Y-97300937D01*
X179482035Y-97086771D01*
X179373088Y-96931177D01*
X179346494Y-96893197D01*
X179179402Y-96726106D01*
X179179395Y-96726101D01*
X178985834Y-96590567D01*
X178985830Y-96590565D01*
X178923768Y-96561625D01*
X178771663Y-96490697D01*
X178771659Y-96490696D01*
X178771655Y-96490694D01*
X178543413Y-96429538D01*
X178543403Y-96429536D01*
X178308001Y-96408941D01*
X178307999Y-96408941D01*
X178072596Y-96429536D01*
X178072586Y-96429538D01*
X177844344Y-96490694D01*
X177844335Y-96490698D01*
X177630171Y-96590564D01*
X177630169Y-96590565D01*
X177436600Y-96726103D01*
X177314673Y-96848030D01*
X177253350Y-96881514D01*
X177183658Y-96876530D01*
X177127725Y-96834658D01*
X177110810Y-96803681D01*
X177061797Y-96672271D01*
X177061793Y-96672264D01*
X176975547Y-96557055D01*
X176975544Y-96557052D01*
X176860335Y-96470806D01*
X176860328Y-96470802D01*
X176725482Y-96420508D01*
X176725483Y-96420508D01*
X176665883Y-96414101D01*
X176665881Y-96414100D01*
X176665873Y-96414100D01*
X176665864Y-96414100D01*
X174870129Y-96414100D01*
X174870123Y-96414101D01*
X174810516Y-96420508D01*
X174675671Y-96470802D01*
X174675664Y-96470806D01*
X174560455Y-96557052D01*
X174560452Y-96557055D01*
X174474206Y-96672264D01*
X174474202Y-96672271D01*
X174423908Y-96807117D01*
X174417501Y-96866716D01*
X174417500Y-96866735D01*
X174417500Y-98662470D01*
X174417501Y-98662476D01*
X174423908Y-98722083D01*
X174474202Y-98856928D01*
X174474206Y-98856935D01*
X174560452Y-98972144D01*
X174560455Y-98972147D01*
X174675665Y-99058394D01*
X174675667Y-99058394D01*
X174675669Y-99058396D01*
X174686830Y-99062558D01*
X174742764Y-99104426D01*
X174767184Y-99169889D01*
X174767500Y-99178741D01*
X174767500Y-109567017D01*
X174747815Y-109634056D01*
X174731181Y-109654698D01*
X170955099Y-113430781D01*
X170893776Y-113464266D01*
X170867418Y-113467100D01*
X164892257Y-113467100D01*
X164740560Y-113482525D01*
X164546420Y-113543437D01*
X164546405Y-113543444D01*
X164490177Y-113574653D01*
X164422008Y-113589976D01*
X164356376Y-113566012D01*
X164314120Y-113510368D01*
X164306000Y-113466234D01*
X164306000Y-113301913D01*
X164305999Y-113301898D01*
X164303098Y-113265032D01*
X164303097Y-113265026D01*
X164257245Y-113107206D01*
X164257244Y-113107203D01*
X164257244Y-113107202D01*
X164173581Y-112965735D01*
X164173579Y-112965733D01*
X164173576Y-112965729D01*
X164057370Y-112849523D01*
X164057362Y-112849517D01*
X163915896Y-112765855D01*
X163915893Y-112765854D01*
X163758073Y-112720002D01*
X163758067Y-112720001D01*
X163721201Y-112717100D01*
X163721194Y-112717100D01*
X163203453Y-112717100D01*
X163136414Y-112697415D01*
X163115772Y-112680781D01*
X162510619Y-112075628D01*
X162477134Y-112014305D01*
X162474300Y-111987947D01*
X162474300Y-104019052D01*
X162493985Y-103952013D01*
X162546789Y-103906258D01*
X162615947Y-103896314D01*
X162679503Y-103925339D01*
X162685981Y-103931371D01*
X162997362Y-104242752D01*
X163030847Y-104304075D01*
X163029456Y-104362526D01*
X163002538Y-104462986D01*
X163002536Y-104462996D01*
X162981941Y-104698399D01*
X162981941Y-104698400D01*
X163002536Y-104933803D01*
X163002538Y-104933813D01*
X163063694Y-105162055D01*
X163063696Y-105162059D01*
X163063697Y-105162063D01*
X163163565Y-105376229D01*
X163163565Y-105376230D01*
X163163567Y-105376234D01*
X163240520Y-105486133D01*
X163299105Y-105569801D01*
X163466199Y-105736895D01*
X163562984Y-105804664D01*
X163659765Y-105872432D01*
X163659767Y-105872433D01*
X163659770Y-105872435D01*
X163873937Y-105972303D01*
X164102192Y-106033463D01*
X164290518Y-106049939D01*
X164337599Y-106054059D01*
X164337600Y-106054059D01*
X164337601Y-106054059D01*
X164376834Y-106050626D01*
X164573008Y-106033463D01*
X164801263Y-105972303D01*
X165015430Y-105872435D01*
X165209001Y-105736895D01*
X165376095Y-105569801D01*
X165511635Y-105376230D01*
X165611503Y-105162063D01*
X165672663Y-104933808D01*
X165693259Y-104698400D01*
X165672663Y-104462992D01*
X165611503Y-104234737D01*
X165511635Y-104020571D01*
X165510572Y-104019052D01*
X165376094Y-103826997D01*
X165209002Y-103659906D01*
X165208996Y-103659901D01*
X165023442Y-103529975D01*
X164979817Y-103475398D01*
X164972623Y-103405900D01*
X165004146Y-103343545D01*
X165023442Y-103326825D01*
X165097277Y-103275125D01*
X165209001Y-103196895D01*
X165376095Y-103029801D01*
X165511635Y-102836230D01*
X165611503Y-102622063D01*
X165672663Y-102393808D01*
X165693259Y-102158400D01*
X165672663Y-101922992D01*
X165611503Y-101694737D01*
X165511635Y-101480571D01*
X165446348Y-101387330D01*
X165376094Y-101286997D01*
X165209002Y-101119906D01*
X165209001Y-101119905D01*
X165087346Y-101034721D01*
X165023441Y-100989974D01*
X164979816Y-100935397D01*
X164972624Y-100865898D01*
X165004146Y-100803544D01*
X165023436Y-100786828D01*
X165209001Y-100656895D01*
X165376095Y-100489801D01*
X165511635Y-100296230D01*
X165611503Y-100082063D01*
X165672663Y-99853808D01*
X165693259Y-99618400D01*
X165672663Y-99382992D01*
X165611503Y-99154737D01*
X165511635Y-98940571D01*
X165506303Y-98932955D01*
X165376094Y-98746997D01*
X165209002Y-98579906D01*
X165208996Y-98579901D01*
X165023442Y-98449975D01*
X164979817Y-98395398D01*
X164972623Y-98325900D01*
X165004146Y-98263545D01*
X165023442Y-98246825D01*
X165049963Y-98228255D01*
X165209001Y-98116895D01*
X165376095Y-97949801D01*
X165511635Y-97756230D01*
X165611503Y-97542063D01*
X165672663Y-97313808D01*
X165693259Y-97078400D01*
X165672663Y-96842992D01*
X165611503Y-96614737D01*
X165511635Y-96400571D01*
X165502141Y-96387011D01*
X165376094Y-96206997D01*
X165209002Y-96039906D01*
X165209001Y-96039905D01*
X165037421Y-95919763D01*
X165023441Y-95909974D01*
X164979816Y-95855397D01*
X164972624Y-95785898D01*
X165004146Y-95723544D01*
X165023436Y-95706828D01*
X165209001Y-95576895D01*
X165376095Y-95409801D01*
X165511635Y-95216230D01*
X165611503Y-95002063D01*
X165672663Y-94773808D01*
X165693259Y-94538400D01*
X165672663Y-94302992D01*
X165611503Y-94074737D01*
X165511635Y-93860571D01*
X165510553Y-93859026D01*
X165376096Y-93667000D01*
X165323248Y-93614152D01*
X165253779Y-93544683D01*
X165220296Y-93483363D01*
X165225280Y-93413671D01*
X165267151Y-93357737D01*
X165298129Y-93340822D01*
X165429686Y-93291754D01*
X165429693Y-93291750D01*
X165544787Y-93205590D01*
X165544790Y-93205587D01*
X165630950Y-93090493D01*
X165630954Y-93090486D01*
X165681196Y-92955779D01*
X165681198Y-92955772D01*
X165687599Y-92896244D01*
X165687600Y-92896227D01*
X165687600Y-92248400D01*
X164771286Y-92248400D01*
X164797093Y-92208244D01*
X164837600Y-92070289D01*
X164837600Y-91926511D01*
X164797093Y-91788556D01*
X164771286Y-91748400D01*
X165687600Y-91748400D01*
X165687600Y-91100572D01*
X165687599Y-91100555D01*
X165681198Y-91041027D01*
X165681196Y-91041020D01*
X165630954Y-90906313D01*
X165630950Y-90906306D01*
X165544790Y-90791212D01*
X165544787Y-90791209D01*
X165429693Y-90705049D01*
X165429686Y-90705045D01*
X165294979Y-90654803D01*
X165294972Y-90654801D01*
X165235444Y-90648400D01*
X164587600Y-90648400D01*
X164587600Y-91562898D01*
X164479915Y-91513720D01*
X164373363Y-91498400D01*
X164301837Y-91498400D01*
X164195285Y-91513720D01*
X164087600Y-91562898D01*
X164087600Y-90648400D01*
X163439755Y-90648400D01*
X163380227Y-90654801D01*
X163380220Y-90654803D01*
X163245513Y-90705045D01*
X163245506Y-90705049D01*
X163130412Y-90791209D01*
X163130409Y-90791212D01*
X163044249Y-90906306D01*
X163044245Y-90906313D01*
X162994003Y-91041020D01*
X162994001Y-91041027D01*
X162987600Y-91100555D01*
X162987600Y-91748400D01*
X163903914Y-91748400D01*
X163878107Y-91788556D01*
X163837600Y-91926511D01*
X163837600Y-92070289D01*
X163878107Y-92208244D01*
X163903914Y-92248400D01*
X162987600Y-92248400D01*
X162987600Y-92896244D01*
X162994001Y-92955772D01*
X162994003Y-92955779D01*
X163044245Y-93090486D01*
X163044249Y-93090493D01*
X163130409Y-93205587D01*
X163130412Y-93205590D01*
X163245506Y-93291750D01*
X163245513Y-93291754D01*
X163377070Y-93340821D01*
X163433003Y-93382692D01*
X163457421Y-93448156D01*
X163442570Y-93516429D01*
X163421419Y-93544684D01*
X163299103Y-93667000D01*
X163163565Y-93860569D01*
X163163564Y-93860571D01*
X163063698Y-94074735D01*
X163063694Y-94074744D01*
X163002538Y-94302986D01*
X163002536Y-94302996D01*
X162981941Y-94538399D01*
X162981941Y-94538787D01*
X162981892Y-94538951D01*
X162981469Y-94543794D01*
X162980495Y-94543708D01*
X162962256Y-94605826D01*
X162909452Y-94651581D01*
X162840294Y-94661525D01*
X162776738Y-94632500D01*
X162770260Y-94626468D01*
X162764619Y-94620827D01*
X162731134Y-94559504D01*
X162728300Y-94533146D01*
X162728300Y-88373142D01*
X162730024Y-88357522D01*
X162729739Y-88357495D01*
X162730473Y-88349733D01*
X162728331Y-88281539D01*
X162728300Y-88279592D01*
X162728300Y-88251056D01*
X162728300Y-88251050D01*
X162727431Y-88244179D01*
X162726973Y-88238352D01*
X162726915Y-88236504D01*
X162725510Y-88191773D01*
X162719919Y-88172530D01*
X162715973Y-88153478D01*
X162713464Y-88133608D01*
X162696304Y-88090267D01*
X162694424Y-88084779D01*
X162681418Y-88040010D01*
X162679666Y-88037048D01*
X162671223Y-88022771D01*
X162662661Y-88005294D01*
X162655287Y-87986670D01*
X162650056Y-87979470D01*
X162627879Y-87948945D01*
X162624688Y-87944086D01*
X162620916Y-87937708D01*
X162600970Y-87903980D01*
X162600968Y-87903978D01*
X162600965Y-87903974D01*
X162586806Y-87889815D01*
X162574168Y-87875019D01*
X162573458Y-87874042D01*
X162562394Y-87858813D01*
X162526488Y-87829109D01*
X162522176Y-87825186D01*
X158895203Y-84198212D01*
X158885380Y-84185950D01*
X158885159Y-84186134D01*
X158880186Y-84180122D01*
X158830466Y-84133432D01*
X158829066Y-84132075D01*
X158808876Y-84111884D01*
X158803386Y-84107625D01*
X158798961Y-84103847D01*
X158764982Y-84071938D01*
X158764980Y-84071936D01*
X158764977Y-84071935D01*
X158747429Y-84062288D01*
X158731163Y-84051604D01*
X158715333Y-84039325D01*
X158672568Y-84020818D01*
X158667322Y-84018248D01*
X158626493Y-83995803D01*
X158626492Y-83995802D01*
X158607093Y-83990822D01*
X158588681Y-83984518D01*
X158570298Y-83976562D01*
X158570292Y-83976560D01*
X158524274Y-83969272D01*
X158518552Y-83968087D01*
X158473421Y-83956500D01*
X158473419Y-83956500D01*
X158453384Y-83956500D01*
X158433986Y-83954973D01*
X158426562Y-83953797D01*
X158414205Y-83951840D01*
X158414204Y-83951840D01*
X158367816Y-83956225D01*
X158361978Y-83956500D01*
X157430061Y-83956500D01*
X157363022Y-83936815D01*
X157317267Y-83884011D01*
X157307323Y-83814853D01*
X157336348Y-83751297D01*
X157371044Y-83723445D01*
X157475933Y-83666682D01*
X157585709Y-83607274D01*
X157781944Y-83454538D01*
X157940971Y-83281788D01*
X158000857Y-83245799D01*
X158070695Y-83247899D01*
X158123428Y-83281788D01*
X158282456Y-83454538D01*
X158478691Y-83607274D01*
X158478693Y-83607275D01*
X158696532Y-83725164D01*
X158697390Y-83725628D01*
X158886626Y-83790593D01*
X158931164Y-83805883D01*
X158932586Y-83806371D01*
X159177865Y-83847300D01*
X159426535Y-83847300D01*
X159671814Y-83806371D01*
X159907010Y-83725628D01*
X160125709Y-83607274D01*
X160321944Y-83454538D01*
X160480971Y-83281788D01*
X160540857Y-83245799D01*
X160610695Y-83247899D01*
X160663428Y-83281788D01*
X160822456Y-83454538D01*
X161018691Y-83607274D01*
X161018693Y-83607275D01*
X161236532Y-83725164D01*
X161237390Y-83725628D01*
X161426626Y-83790593D01*
X161471164Y-83805883D01*
X161472586Y-83806371D01*
X161717865Y-83847300D01*
X161966535Y-83847300D01*
X162211814Y-83806371D01*
X162447010Y-83725628D01*
X162665709Y-83607274D01*
X162861944Y-83454538D01*
X163020971Y-83281788D01*
X163080857Y-83245799D01*
X163150695Y-83247899D01*
X163203428Y-83281788D01*
X163362456Y-83454538D01*
X163558691Y-83607274D01*
X163558693Y-83607275D01*
X163776532Y-83725164D01*
X163777390Y-83725628D01*
X163966626Y-83790593D01*
X164011164Y-83805883D01*
X164012586Y-83806371D01*
X164257865Y-83847300D01*
X164506535Y-83847300D01*
X164751814Y-83806371D01*
X164987010Y-83725628D01*
X165205709Y-83607274D01*
X165401944Y-83454538D01*
X165570364Y-83271585D01*
X165706373Y-83063407D01*
X165806263Y-82835681D01*
X165867308Y-82594621D01*
X165880994Y-82429454D01*
X165906147Y-82364271D01*
X165962549Y-82323033D01*
X166032292Y-82318835D01*
X166093234Y-82353009D01*
X166123061Y-82403146D01*
X166174402Y-82569588D01*
X166288495Y-82806505D01*
X166288497Y-82806507D01*
X166288498Y-82806510D01*
X166436630Y-83023780D01*
X166615490Y-83216546D01*
X166821083Y-83380501D01*
X167048816Y-83511983D01*
X167293602Y-83608054D01*
X167549972Y-83666569D01*
X167549978Y-83666569D01*
X167549981Y-83666570D01*
X167746524Y-83681299D01*
X167746543Y-83681299D01*
X167746546Y-83681300D01*
X167746548Y-83681300D01*
X167877852Y-83681300D01*
X167877854Y-83681300D01*
X167877856Y-83681299D01*
X167877875Y-83681299D01*
X168074418Y-83666570D01*
X168074420Y-83666569D01*
X168074428Y-83666569D01*
X168330798Y-83608054D01*
X168575584Y-83511983D01*
X168803317Y-83380501D01*
X169008910Y-83216546D01*
X169187770Y-83023780D01*
X169335902Y-82806510D01*
X169449998Y-82569588D01*
X169527508Y-82318308D01*
X169539474Y-82238922D01*
X169566699Y-82058289D01*
X169566700Y-82058280D01*
X169566700Y-81795319D01*
X169566699Y-81795310D01*
X169527509Y-81535296D01*
X169527507Y-81535290D01*
X169449998Y-81284012D01*
X169335902Y-81047090D01*
X169187770Y-80829820D01*
X169008910Y-80637054D01*
X168803317Y-80473099D01*
X168575584Y-80341617D01*
X168330798Y-80245546D01*
X168330793Y-80245544D01*
X168330784Y-80245542D01*
X168112701Y-80195766D01*
X168074428Y-80187031D01*
X168074427Y-80187030D01*
X168074423Y-80187030D01*
X168074418Y-80187029D01*
X167877875Y-80172300D01*
X167877854Y-80172300D01*
X167746546Y-80172300D01*
X167746524Y-80172300D01*
X167549981Y-80187029D01*
X167549976Y-80187030D01*
X167293615Y-80245542D01*
X167293596Y-80245548D01*
X167048815Y-80341617D01*
X166821083Y-80473099D01*
X166615490Y-80637054D01*
X166615488Y-80637056D01*
X166436630Y-80829819D01*
X166288495Y-81047094D01*
X166174402Y-81284011D01*
X166096892Y-81535290D01*
X166096890Y-81535296D01*
X166057700Y-81795310D01*
X166057700Y-81856033D01*
X166038015Y-81923072D01*
X165985211Y-81968827D01*
X165916053Y-81978771D01*
X165852497Y-81949746D01*
X165814723Y-81890968D01*
X165813494Y-81886473D01*
X165806263Y-81857918D01*
X165706373Y-81630193D01*
X165570366Y-81422017D01*
X165475285Y-81318732D01*
X165401944Y-81239062D01*
X165205709Y-81086326D01*
X165205707Y-81086325D01*
X165205706Y-81086324D01*
X164987011Y-80967972D01*
X164987002Y-80967969D01*
X164751816Y-80887229D01*
X164506535Y-80846300D01*
X164257865Y-80846300D01*
X164012583Y-80887229D01*
X163777397Y-80967969D01*
X163777388Y-80967972D01*
X163558693Y-81086324D01*
X163362457Y-81239061D01*
X163203430Y-81411810D01*
X163143542Y-81447801D01*
X163073704Y-81445700D01*
X163020970Y-81411810D01*
X162935285Y-81318732D01*
X162861944Y-81239062D01*
X162665709Y-81086326D01*
X162665707Y-81086325D01*
X162665706Y-81086324D01*
X162447011Y-80967972D01*
X162447002Y-80967969D01*
X162211816Y-80887229D01*
X161966535Y-80846300D01*
X161717865Y-80846300D01*
X161472583Y-80887229D01*
X161237397Y-80967969D01*
X161237388Y-80967972D01*
X161018693Y-81086324D01*
X160822457Y-81239061D01*
X160663430Y-81411810D01*
X160603542Y-81447801D01*
X160533704Y-81445700D01*
X160480970Y-81411810D01*
X160395285Y-81318732D01*
X160321944Y-81239062D01*
X160125709Y-81086326D01*
X160125707Y-81086325D01*
X160125706Y-81086324D01*
X159907011Y-80967972D01*
X159907002Y-80967969D01*
X159671816Y-80887229D01*
X159426535Y-80846300D01*
X159177865Y-80846300D01*
X158932583Y-80887229D01*
X158697397Y-80967969D01*
X158697388Y-80967972D01*
X158478693Y-81086324D01*
X158282457Y-81239061D01*
X158123430Y-81411810D01*
X158063542Y-81447801D01*
X157993704Y-81445700D01*
X157940970Y-81411810D01*
X157855285Y-81318732D01*
X157781944Y-81239062D01*
X157585709Y-81086326D01*
X157585707Y-81086325D01*
X157585706Y-81086324D01*
X157367011Y-80967972D01*
X157367002Y-80967969D01*
X157131816Y-80887229D01*
X156886535Y-80846300D01*
X156637865Y-80846300D01*
X156392583Y-80887229D01*
X156157397Y-80967969D01*
X156157388Y-80967972D01*
X155938693Y-81086324D01*
X155742457Y-81239061D01*
X155583430Y-81411810D01*
X155523542Y-81447801D01*
X155453704Y-81445700D01*
X155400970Y-81411810D01*
X155315285Y-81318732D01*
X155241944Y-81239062D01*
X155045709Y-81086326D01*
X155045707Y-81086325D01*
X155045706Y-81086324D01*
X154827011Y-80967972D01*
X154827002Y-80967969D01*
X154591816Y-80887229D01*
X154346535Y-80846300D01*
X154097865Y-80846300D01*
X153852583Y-80887229D01*
X153617397Y-80967969D01*
X153617388Y-80967972D01*
X153398693Y-81086324D01*
X153202457Y-81239061D01*
X153043430Y-81411810D01*
X152983542Y-81447801D01*
X152913704Y-81445700D01*
X152860970Y-81411810D01*
X152775285Y-81318732D01*
X152701944Y-81239062D01*
X152505709Y-81086326D01*
X152505707Y-81086325D01*
X152505706Y-81086324D01*
X152287011Y-80967972D01*
X152287002Y-80967969D01*
X152051816Y-80887229D01*
X151806535Y-80846300D01*
X151557865Y-80846300D01*
X151312583Y-80887229D01*
X151077397Y-80967969D01*
X151077388Y-80967972D01*
X150858693Y-81086324D01*
X150662457Y-81239061D01*
X150503430Y-81411810D01*
X150443542Y-81447801D01*
X150373704Y-81445700D01*
X150320970Y-81411810D01*
X150235285Y-81318732D01*
X150161944Y-81239062D01*
X149965709Y-81086326D01*
X149965707Y-81086325D01*
X149965706Y-81086324D01*
X149747011Y-80967972D01*
X149747002Y-80967969D01*
X149511816Y-80887229D01*
X149266535Y-80846300D01*
X149017865Y-80846300D01*
X148772583Y-80887229D01*
X148537397Y-80967969D01*
X148537388Y-80967972D01*
X148318693Y-81086324D01*
X148122457Y-81239061D01*
X147963430Y-81411810D01*
X147903542Y-81447801D01*
X147833704Y-81445700D01*
X147780970Y-81411810D01*
X147695285Y-81318732D01*
X147621944Y-81239062D01*
X147425709Y-81086326D01*
X147425707Y-81086325D01*
X147425706Y-81086324D01*
X147207011Y-80967972D01*
X147207002Y-80967969D01*
X146971816Y-80887229D01*
X146726535Y-80846300D01*
X146477865Y-80846300D01*
X146232583Y-80887229D01*
X145997397Y-80967969D01*
X145997388Y-80967972D01*
X145778693Y-81086324D01*
X145582457Y-81239061D01*
X145423430Y-81411810D01*
X145363542Y-81447801D01*
X145293704Y-81445700D01*
X145240970Y-81411810D01*
X145155285Y-81318732D01*
X145081944Y-81239062D01*
X144885709Y-81086326D01*
X144885707Y-81086325D01*
X144885706Y-81086324D01*
X144667011Y-80967972D01*
X144667002Y-80967969D01*
X144431816Y-80887229D01*
X144186535Y-80846300D01*
X143937865Y-80846300D01*
X143692583Y-80887229D01*
X143457397Y-80967969D01*
X143457388Y-80967972D01*
X143238693Y-81086324D01*
X143042457Y-81239061D01*
X142883430Y-81411810D01*
X142823542Y-81447801D01*
X142753704Y-81445700D01*
X142700970Y-81411810D01*
X142615285Y-81318732D01*
X142541944Y-81239062D01*
X142345709Y-81086326D01*
X142345707Y-81086325D01*
X142345706Y-81086324D01*
X142127011Y-80967972D01*
X142127002Y-80967969D01*
X141891816Y-80887229D01*
X141646535Y-80846300D01*
X141397865Y-80846300D01*
X141152583Y-80887229D01*
X140917397Y-80967969D01*
X140917388Y-80967972D01*
X140698693Y-81086324D01*
X140502457Y-81239061D01*
X140343430Y-81411810D01*
X140283542Y-81447801D01*
X140213704Y-81445700D01*
X140160970Y-81411810D01*
X140075285Y-81318732D01*
X140001944Y-81239062D01*
X139805709Y-81086326D01*
X139805707Y-81086325D01*
X139805706Y-81086324D01*
X139587011Y-80967972D01*
X139587002Y-80967969D01*
X139351816Y-80887229D01*
X139104835Y-80846016D01*
X139041949Y-80815566D01*
X139005510Y-80755951D01*
X139007085Y-80686099D01*
X139037563Y-80636026D01*
X139059826Y-80613764D01*
X139738371Y-79935219D01*
X139799695Y-79901734D01*
X139826053Y-79898900D01*
X148532657Y-79898900D01*
X148548277Y-79900624D01*
X148548304Y-79900339D01*
X148556066Y-79901073D01*
X148556066Y-79901072D01*
X148556067Y-79901073D01*
X148559399Y-79900968D01*
X148624247Y-79898931D01*
X148626194Y-79898900D01*
X148654747Y-79898900D01*
X148654750Y-79898900D01*
X148661628Y-79898030D01*
X148667441Y-79897572D01*
X148714027Y-79896109D01*
X148733269Y-79890517D01*
X148752312Y-79886574D01*
X148772192Y-79884064D01*
X148815522Y-79866907D01*
X148821046Y-79865017D01*
X148824796Y-79863927D01*
X148865790Y-79852018D01*
X148883029Y-79841822D01*
X148900503Y-79833262D01*
X148919127Y-79825888D01*
X148919127Y-79825887D01*
X148919132Y-79825886D01*
X148956849Y-79798482D01*
X148961705Y-79795292D01*
X149001820Y-79771570D01*
X149015989Y-79757399D01*
X149030779Y-79744768D01*
X149046987Y-79732994D01*
X149076699Y-79697076D01*
X149080612Y-79692776D01*
X150650186Y-78123202D01*
X150662448Y-78113380D01*
X150662265Y-78113159D01*
X150668273Y-78108188D01*
X150668277Y-78108186D01*
X150715049Y-78058377D01*
X150716291Y-78057097D01*
X150736520Y-78036870D01*
X150740773Y-78031386D01*
X150744550Y-78026963D01*
X150776462Y-77992982D01*
X150786114Y-77975423D01*
X150796789Y-77959172D01*
X150809074Y-77943336D01*
X150827586Y-77900552D01*
X150830142Y-77895335D01*
X150852597Y-77854492D01*
X150857580Y-77835080D01*
X150863877Y-77816691D01*
X150871838Y-77798295D01*
X150879129Y-77752253D01*
X150880308Y-77746562D01*
X150891900Y-77701419D01*
X150891900Y-77681382D01*
X150893427Y-77661982D01*
X150896560Y-77642204D01*
X150892175Y-77595815D01*
X150891900Y-77589977D01*
X150891900Y-77559087D01*
X150911585Y-77492048D01*
X150923750Y-77476115D01*
X150952666Y-77444000D01*
X150998933Y-77392616D01*
X151093579Y-77228684D01*
X151152074Y-77048656D01*
X151171860Y-76860400D01*
X151152074Y-76672144D01*
X151093579Y-76492116D01*
X150998933Y-76328184D01*
X150872271Y-76187512D01*
X150872270Y-76187511D01*
X150719134Y-76076251D01*
X150719129Y-76076248D01*
X150546207Y-75999257D01*
X150546202Y-75999255D01*
X150396801Y-75967500D01*
X150361046Y-75959900D01*
X150171754Y-75959900D01*
X150152700Y-75963950D01*
X149986597Y-75999255D01*
X149986592Y-75999257D01*
X149813670Y-76076248D01*
X149813665Y-76076251D01*
X149660529Y-76187511D01*
X149533866Y-76328185D01*
X149439221Y-76492115D01*
X149439218Y-76492122D01*
X149387448Y-76651455D01*
X149380726Y-76672144D01*
X149367612Y-76796916D01*
X149360940Y-76860400D01*
X149369435Y-76941226D01*
X149356865Y-77009956D01*
X149348440Y-77018961D01*
X149359598Y-77025227D01*
X149388811Y-77073540D01*
X149439219Y-77228680D01*
X149439221Y-77228684D01*
X149514742Y-77359491D01*
X149531215Y-77427392D01*
X149508362Y-77493418D01*
X149495036Y-77509172D01*
X149370061Y-77634147D01*
X149308738Y-77667632D01*
X149239046Y-77662648D01*
X149183113Y-77620776D01*
X149177798Y-77606526D01*
X149148236Y-77568000D01*
X148251286Y-77568000D01*
X148277093Y-77527844D01*
X148317600Y-77389889D01*
X148317600Y-77246111D01*
X148277093Y-77108156D01*
X148251286Y-77068000D01*
X149148236Y-77068000D01*
X149166151Y-77044651D01*
X149131440Y-77001366D01*
X149126339Y-76986280D01*
X149091033Y-76854516D01*
X149091029Y-76854507D01*
X148991200Y-76640422D01*
X148991199Y-76640420D01*
X148855713Y-76446926D01*
X148855708Y-76446920D01*
X148688682Y-76279894D01*
X148495178Y-76144399D01*
X148281092Y-76044570D01*
X148281085Y-76044567D01*
X148240002Y-76033559D01*
X148180342Y-75997194D01*
X148149813Y-75934347D01*
X148158108Y-75864971D01*
X148184410Y-75826109D01*
X148907301Y-75103219D01*
X148968624Y-75069734D01*
X148994982Y-75066900D01*
X168190217Y-75066900D01*
X168257256Y-75086585D01*
X168277898Y-75103219D01*
X175010580Y-81835901D01*
X175044065Y-81897224D01*
X175046899Y-81923582D01*
X175046899Y-87737868D01*
X175028440Y-87802961D01*
X175012586Y-87828665D01*
X174992661Y-87888796D01*
X174957401Y-87995203D01*
X174957401Y-87995204D01*
X174957400Y-87995204D01*
X174946900Y-88097983D01*
X174946900Y-89448001D01*
X174946901Y-89448018D01*
X174957400Y-89550796D01*
X174957401Y-89550799D01*
X174988843Y-89645682D01*
X175012586Y-89717334D01*
X175104688Y-89866656D01*
X175228744Y-89990712D01*
X175378066Y-90082814D01*
X175544603Y-90137999D01*
X175647391Y-90148500D01*
X176447408Y-90148499D01*
X176447416Y-90148498D01*
X176447419Y-90148498D01*
X176508543Y-90142254D01*
X176550197Y-90137999D01*
X176716734Y-90082814D01*
X176866056Y-89990712D01*
X176990112Y-89866656D01*
X177029215Y-89803258D01*
X177081161Y-89756535D01*
X177150123Y-89745312D01*
X177214206Y-89773155D01*
X177232224Y-89791705D01*
X177247307Y-89810885D01*
X177247309Y-89810887D01*
X177406146Y-89948521D01*
X177588150Y-90053601D01*
X177588152Y-90053601D01*
X177588156Y-90053604D01*
X177786767Y-90122344D01*
X177994798Y-90152254D01*
X178204730Y-90142254D01*
X178408976Y-90092704D01*
X178494599Y-90053601D01*
X178600143Y-90005401D01*
X178600146Y-90005399D01*
X178600153Y-90005396D01*
X178771352Y-89883486D01*
X178787399Y-89866657D01*
X178916385Y-89731379D01*
X178916386Y-89731378D01*
X179030013Y-89554572D01*
X179108125Y-89359457D01*
X179147900Y-89153085D01*
X179147900Y-88445575D01*
X179132928Y-88288782D01*
X179073716Y-88087125D01*
X179061683Y-88063785D01*
X179047900Y-88006966D01*
X179047900Y-80829651D01*
X179047920Y-80828081D01*
X179050156Y-80739842D01*
X179050155Y-80739841D01*
X179050156Y-80739836D01*
X179039329Y-80679433D01*
X179038682Y-80674820D01*
X179032474Y-80613762D01*
X179032473Y-80613760D01*
X179032473Y-80613757D01*
X179022190Y-80580987D01*
X179020317Y-80573354D01*
X179014258Y-80539548D01*
X178991502Y-80482578D01*
X178989921Y-80478137D01*
X178971559Y-80419612D01*
X178971558Y-80419610D01*
X178971557Y-80419607D01*
X178954888Y-80389578D01*
X178951517Y-80382478D01*
X178938778Y-80350586D01*
X178938777Y-80350583D01*
X178905020Y-80299363D01*
X178902580Y-80295334D01*
X178891779Y-80275875D01*
X178872809Y-80241698D01*
X178872807Y-80241695D01*
X178850433Y-80215634D01*
X178845702Y-80209359D01*
X178826802Y-80180681D01*
X178783412Y-80137291D01*
X178780222Y-80133848D01*
X178740267Y-80087306D01*
X178740263Y-80087302D01*
X178713098Y-80066274D01*
X178707203Y-80061082D01*
X170211212Y-71565092D01*
X170210115Y-71563967D01*
X170149261Y-71499949D01*
X170149260Y-71499948D01*
X170149259Y-71499947D01*
X170121404Y-71480559D01*
X170098909Y-71464902D01*
X170095146Y-71462064D01*
X170047613Y-71423305D01*
X170047606Y-71423300D01*
X170017159Y-71407397D01*
X170010451Y-71403334D01*
X169982249Y-71383705D01*
X169982246Y-71383703D01*
X169982245Y-71383703D01*
X169982241Y-71383701D01*
X169925880Y-71359514D01*
X169921624Y-71357493D01*
X169867257Y-71329094D01*
X169867250Y-71329091D01*
X169867249Y-71329091D01*
X169861208Y-71327362D01*
X169834230Y-71319642D01*
X169826830Y-71317008D01*
X169795257Y-71303459D01*
X169795258Y-71303459D01*
X169735166Y-71291109D01*
X169730591Y-71289986D01*
X169671620Y-71273113D01*
X169671625Y-71273113D01*
X169637358Y-71270503D01*
X169629580Y-71269412D01*
X169595942Y-71262500D01*
X169595941Y-71262500D01*
X169534602Y-71262500D01*
X169529895Y-71262321D01*
X169524321Y-71261896D01*
X169468724Y-71257662D01*
X169448789Y-71260201D01*
X169434640Y-71262003D01*
X169426811Y-71262500D01*
X150874757Y-71262500D01*
X150807718Y-71242815D01*
X150761963Y-71190011D01*
X150752019Y-71120853D01*
X150781044Y-71057297D01*
X150801871Y-71038182D01*
X150846871Y-71005488D01*
X150973533Y-70864816D01*
X151068179Y-70700884D01*
X151126674Y-70520856D01*
X151146460Y-70332600D01*
X151126674Y-70144344D01*
X151068179Y-69964316D01*
X150973533Y-69800384D01*
X150971399Y-69798014D01*
X150898350Y-69716884D01*
X150868120Y-69653892D01*
X150866500Y-69633912D01*
X150866500Y-65803342D01*
X150868224Y-65787722D01*
X150867939Y-65787695D01*
X150868673Y-65779933D01*
X150866531Y-65711739D01*
X150866500Y-65709792D01*
X150866500Y-65681256D01*
X150866500Y-65681250D01*
X150865631Y-65674379D01*
X150865173Y-65668552D01*
X150863710Y-65621973D01*
X150858119Y-65602730D01*
X150854173Y-65583678D01*
X150851664Y-65563808D01*
X150834504Y-65520467D01*
X150832624Y-65514979D01*
X150819618Y-65470210D01*
X150809422Y-65452970D01*
X150800861Y-65435494D01*
X150793487Y-65416870D01*
X150793486Y-65416868D01*
X150766079Y-65379145D01*
X150762888Y-65374286D01*
X150739172Y-65334183D01*
X150739165Y-65334174D01*
X150725006Y-65320015D01*
X150712368Y-65305219D01*
X150700594Y-65289013D01*
X150664688Y-65259309D01*
X150660376Y-65255386D01*
X147629319Y-62224328D01*
X147595834Y-62163005D01*
X147593000Y-62136647D01*
X147593000Y-61218101D01*
X147700685Y-61267280D01*
X147807237Y-61282600D01*
X147878763Y-61282600D01*
X147985315Y-61267280D01*
X148093000Y-61218101D01*
X148093000Y-62113233D01*
X148306483Y-62056033D01*
X148306492Y-62056029D01*
X148520578Y-61956200D01*
X148714082Y-61820705D01*
X148881105Y-61653682D01*
X149016600Y-61460178D01*
X149116429Y-61246092D01*
X149116432Y-61246086D01*
X149173636Y-61032600D01*
X148276686Y-61032600D01*
X148302493Y-60992444D01*
X148343000Y-60854489D01*
X148343000Y-60710711D01*
X148302493Y-60572756D01*
X148276686Y-60532600D01*
X149173636Y-60532600D01*
X149173635Y-60532599D01*
X149116432Y-60319113D01*
X149116429Y-60319107D01*
X149016600Y-60105022D01*
X149016599Y-60105020D01*
X148881113Y-59911526D01*
X148881108Y-59911520D01*
X148714082Y-59744494D01*
X148520578Y-59608999D01*
X148306492Y-59509170D01*
X148306486Y-59509167D01*
X148093000Y-59451964D01*
X148093000Y-60347098D01*
X147985315Y-60297920D01*
X147878763Y-60282600D01*
X147807237Y-60282600D01*
X147700685Y-60297920D01*
X147593000Y-60347098D01*
X147593000Y-59451964D01*
X147592999Y-59451964D01*
X147379513Y-59509167D01*
X147379507Y-59509170D01*
X147165422Y-59608999D01*
X147165420Y-59609000D01*
X146971926Y-59744486D01*
X146971920Y-59744491D01*
X146804891Y-59911520D01*
X146804890Y-59911522D01*
X146674880Y-60097195D01*
X146620303Y-60140819D01*
X146550804Y-60148012D01*
X146488450Y-60116490D01*
X146471730Y-60097194D01*
X146341494Y-59911197D01*
X146174402Y-59744106D01*
X146174395Y-59744101D01*
X145980834Y-59608567D01*
X145980830Y-59608565D01*
X145928500Y-59584163D01*
X145766663Y-59508697D01*
X145766659Y-59508696D01*
X145766655Y-59508694D01*
X145538413Y-59447538D01*
X145538403Y-59447536D01*
X145303001Y-59426941D01*
X145302999Y-59426941D01*
X145067596Y-59447536D01*
X145067586Y-59447538D01*
X144839344Y-59508694D01*
X144839335Y-59508698D01*
X144625171Y-59608564D01*
X144625169Y-59608565D01*
X144431597Y-59744105D01*
X144264505Y-59911197D01*
X144134575Y-60096758D01*
X144079998Y-60140383D01*
X144010500Y-60147577D01*
X143948145Y-60116054D01*
X143931425Y-60096758D01*
X143801494Y-59911197D01*
X143634402Y-59744106D01*
X143634401Y-59744105D01*
X143501093Y-59650761D01*
X143441376Y-59608947D01*
X143397751Y-59554370D01*
X143388500Y-59507372D01*
X143388500Y-58475651D01*
X143408185Y-58408612D01*
X143460989Y-58362857D01*
X143530147Y-58352913D01*
X143552763Y-58358370D01*
X143692583Y-58406370D01*
X143692586Y-58406371D01*
X143937865Y-58447300D01*
X144186535Y-58447300D01*
X144431814Y-58406371D01*
X144667010Y-58325628D01*
X144885709Y-58207274D01*
X145081944Y-58054538D01*
X145240971Y-57881788D01*
X145300857Y-57845799D01*
X145370695Y-57847899D01*
X145423428Y-57881788D01*
X145582456Y-58054538D01*
X145778691Y-58207274D01*
X145778693Y-58207275D01*
X145996532Y-58325164D01*
X145997390Y-58325628D01*
X146216341Y-58400794D01*
X146231164Y-58405883D01*
X146232586Y-58406371D01*
X146477865Y-58447300D01*
X146726535Y-58447300D01*
X146971814Y-58406371D01*
X147207010Y-58325628D01*
X147425709Y-58207274D01*
X147621944Y-58054538D01*
X147780971Y-57881788D01*
X147840857Y-57845799D01*
X147910695Y-57847899D01*
X147963428Y-57881788D01*
X148122456Y-58054538D01*
X148318691Y-58207274D01*
X148318693Y-58207275D01*
X148536532Y-58325164D01*
X148537390Y-58325628D01*
X148756341Y-58400794D01*
X148771164Y-58405883D01*
X148772586Y-58406371D01*
X149017865Y-58447300D01*
X149266535Y-58447300D01*
X149511814Y-58406371D01*
X149747010Y-58325628D01*
X149965709Y-58207274D01*
X150161944Y-58054538D01*
X150320971Y-57881788D01*
X150380857Y-57845799D01*
X150450695Y-57847899D01*
X150503428Y-57881788D01*
X150662456Y-58054538D01*
X150858691Y-58207274D01*
X150858693Y-58207275D01*
X151076532Y-58325164D01*
X151077390Y-58325628D01*
X151296341Y-58400794D01*
X151311164Y-58405883D01*
X151312586Y-58406371D01*
X151557865Y-58447300D01*
X151806535Y-58447300D01*
X152051814Y-58406371D01*
X152287010Y-58325628D01*
X152505709Y-58207274D01*
X152701944Y-58054538D01*
X152860971Y-57881788D01*
X152920857Y-57845799D01*
X152990695Y-57847899D01*
X153043428Y-57881788D01*
X153202456Y-58054538D01*
X153398691Y-58207274D01*
X153398693Y-58207275D01*
X153616532Y-58325164D01*
X153617390Y-58325628D01*
X153836341Y-58400794D01*
X153851164Y-58405883D01*
X153852586Y-58406371D01*
X154097865Y-58447300D01*
X154346535Y-58447300D01*
X154591814Y-58406371D01*
X154827010Y-58325628D01*
X155045709Y-58207274D01*
X155241944Y-58054538D01*
X155400971Y-57881788D01*
X155460857Y-57845799D01*
X155530695Y-57847899D01*
X155583428Y-57881788D01*
X155742456Y-58054538D01*
X155938691Y-58207274D01*
X155938693Y-58207275D01*
X156156532Y-58325164D01*
X156157390Y-58325628D01*
X156376341Y-58400794D01*
X156391164Y-58405883D01*
X156392586Y-58406371D01*
X156637865Y-58447300D01*
X156886535Y-58447300D01*
X157131814Y-58406371D01*
X157367010Y-58325628D01*
X157585709Y-58207274D01*
X157781944Y-58054538D01*
X157940971Y-57881788D01*
X158000857Y-57845799D01*
X158070695Y-57847899D01*
X158123428Y-57881788D01*
X158282456Y-58054538D01*
X158478691Y-58207274D01*
X158478693Y-58207275D01*
X158696532Y-58325164D01*
X158697390Y-58325628D01*
X158916341Y-58400794D01*
X158931164Y-58405883D01*
X158932586Y-58406371D01*
X159177865Y-58447300D01*
X159426535Y-58447300D01*
X159671814Y-58406371D01*
X159907010Y-58325628D01*
X160125709Y-58207274D01*
X160321944Y-58054538D01*
X160480971Y-57881788D01*
X160540857Y-57845799D01*
X160610695Y-57847899D01*
X160663428Y-57881788D01*
X160822456Y-58054538D01*
X161018691Y-58207274D01*
X161018693Y-58207275D01*
X161236532Y-58325164D01*
X161237390Y-58325628D01*
X161456341Y-58400794D01*
X161471164Y-58405883D01*
X161472586Y-58406371D01*
X161717865Y-58447300D01*
X161966535Y-58447300D01*
X162211814Y-58406371D01*
X162447010Y-58325628D01*
X162665709Y-58207274D01*
X162861944Y-58054538D01*
X163020971Y-57881788D01*
X163080857Y-57845799D01*
X163150695Y-57847899D01*
X163203428Y-57881788D01*
X163362456Y-58054538D01*
X163558691Y-58207274D01*
X163558693Y-58207275D01*
X163776532Y-58325164D01*
X163777390Y-58325628D01*
X163996341Y-58400794D01*
X164011164Y-58405883D01*
X164012586Y-58406371D01*
X164257865Y-58447300D01*
X164506535Y-58447300D01*
X164751814Y-58406371D01*
X164987010Y-58325628D01*
X165205709Y-58207274D01*
X165401944Y-58054538D01*
X165570364Y-57871585D01*
X165706373Y-57663407D01*
X165806263Y-57435681D01*
X165813494Y-57407125D01*
X165849033Y-57346970D01*
X165911454Y-57315578D01*
X165980937Y-57322916D01*
X166035423Y-57366654D01*
X166057612Y-57432907D01*
X166057700Y-57437566D01*
X166057700Y-57548289D01*
X166096890Y-57808303D01*
X166096892Y-57808309D01*
X166174402Y-58059588D01*
X166288495Y-58296505D01*
X166288497Y-58296507D01*
X166288498Y-58296510D01*
X166436630Y-58513780D01*
X166615490Y-58706546D01*
X166821083Y-58870501D01*
X167048816Y-59001983D01*
X167293602Y-59098054D01*
X167549972Y-59156569D01*
X167549978Y-59156569D01*
X167549981Y-59156570D01*
X167746524Y-59171299D01*
X167746543Y-59171299D01*
X167746546Y-59171300D01*
X167746548Y-59171300D01*
X167877852Y-59171300D01*
X167877854Y-59171300D01*
X167877856Y-59171299D01*
X167877875Y-59171299D01*
X168074418Y-59156570D01*
X168074420Y-59156569D01*
X168074428Y-59156569D01*
X168330798Y-59098054D01*
X168575584Y-59001983D01*
X168803317Y-58870501D01*
X169008910Y-58706546D01*
X169187770Y-58513780D01*
X169335902Y-58296510D01*
X169449998Y-58059588D01*
X169527508Y-57808308D01*
X169566700Y-57548282D01*
X169566700Y-57285318D01*
X169566699Y-57285310D01*
X169527509Y-57025296D01*
X169527507Y-57025290D01*
X169449998Y-56774012D01*
X169335902Y-56537090D01*
X169187770Y-56319820D01*
X169008910Y-56127054D01*
X168803317Y-55963099D01*
X168575584Y-55831617D01*
X168330798Y-55735546D01*
X168330793Y-55735544D01*
X168330784Y-55735542D01*
X168112701Y-55685766D01*
X168074428Y-55677031D01*
X168074427Y-55677030D01*
X168074423Y-55677030D01*
X168074418Y-55677029D01*
X167877875Y-55662300D01*
X167877854Y-55662300D01*
X167746546Y-55662300D01*
X167746524Y-55662300D01*
X167549981Y-55677029D01*
X167549976Y-55677030D01*
X167293615Y-55735542D01*
X167293596Y-55735548D01*
X167048815Y-55831617D01*
X166821083Y-55963099D01*
X166615490Y-56127054D01*
X166615488Y-56127056D01*
X166436630Y-56319819D01*
X166288495Y-56537094D01*
X166174402Y-56774011D01*
X166126327Y-56929866D01*
X166087756Y-56988125D01*
X166023812Y-57016283D01*
X165954795Y-57005399D01*
X165902618Y-56958930D01*
X165884260Y-56903556D01*
X165867309Y-56698986D01*
X165867307Y-56698975D01*
X165806263Y-56457918D01*
X165706373Y-56230193D01*
X165570366Y-56022017D01*
X165526054Y-55973882D01*
X165401944Y-55839062D01*
X165205709Y-55686326D01*
X165205707Y-55686325D01*
X165205706Y-55686324D01*
X164987011Y-55567972D01*
X164987002Y-55567969D01*
X164751816Y-55487229D01*
X164506535Y-55446300D01*
X164257865Y-55446300D01*
X164012583Y-55487229D01*
X163777397Y-55567969D01*
X163777388Y-55567972D01*
X163558693Y-55686324D01*
X163362457Y-55839061D01*
X163203430Y-56011810D01*
X163143542Y-56047801D01*
X163073704Y-56045700D01*
X163020970Y-56011810D01*
X162960645Y-55946280D01*
X162861944Y-55839062D01*
X162665709Y-55686326D01*
X162665707Y-55686325D01*
X162665706Y-55686324D01*
X162447011Y-55567972D01*
X162447002Y-55567969D01*
X162211816Y-55487229D01*
X161966535Y-55446300D01*
X161717865Y-55446300D01*
X161472586Y-55487228D01*
X161392911Y-55514580D01*
X161323112Y-55517729D01*
X161264969Y-55484979D01*
X159723295Y-53943305D01*
X158177403Y-52397412D01*
X158167580Y-52385150D01*
X158167359Y-52385334D01*
X158162386Y-52379322D01*
X158112666Y-52332632D01*
X158111266Y-52331275D01*
X158091076Y-52311084D01*
X158085586Y-52306825D01*
X158081161Y-52303047D01*
X158047182Y-52271138D01*
X158047180Y-52271136D01*
X158047177Y-52271135D01*
X158029629Y-52261488D01*
X158013363Y-52250804D01*
X157997533Y-52238525D01*
X157954768Y-52220018D01*
X157949522Y-52217448D01*
X157908693Y-52195003D01*
X157908692Y-52195002D01*
X157889293Y-52190022D01*
X157870881Y-52183718D01*
X157852498Y-52175762D01*
X157852492Y-52175760D01*
X157806474Y-52168472D01*
X157800752Y-52167287D01*
X157755621Y-52155700D01*
X157755619Y-52155700D01*
X157735584Y-52155700D01*
X157716186Y-52154173D01*
X157708762Y-52152997D01*
X157696405Y-52151040D01*
X157696404Y-52151040D01*
X157650016Y-52155425D01*
X157644178Y-52155700D01*
X149785464Y-52155700D01*
X149718425Y-52136015D01*
X149672670Y-52083211D01*
X149662726Y-52014053D01*
X149686198Y-51957388D01*
X149723552Y-51907489D01*
X149723554Y-51907486D01*
X149773796Y-51772779D01*
X149773798Y-51772772D01*
X149780199Y-51713244D01*
X149780200Y-51713227D01*
X149780200Y-50915400D01*
X148904700Y-50915400D01*
X148837661Y-50895715D01*
X148791906Y-50842911D01*
X148780700Y-50791400D01*
X148780699Y-49617529D01*
X148780698Y-49617523D01*
X148780697Y-49617516D01*
X148774291Y-49557917D01*
X148773098Y-49554719D01*
X148733018Y-49447258D01*
X148725200Y-49403925D01*
X148725200Y-49165400D01*
X149225200Y-49165400D01*
X149225200Y-50415400D01*
X149780200Y-50415400D01*
X149780200Y-49617572D01*
X149780199Y-49617555D01*
X149773798Y-49558027D01*
X149773796Y-49558020D01*
X149723554Y-49423313D01*
X149723550Y-49423306D01*
X149637390Y-49308212D01*
X149637387Y-49308209D01*
X149522293Y-49222049D01*
X149522286Y-49222045D01*
X149387579Y-49171803D01*
X149387572Y-49171801D01*
X149328044Y-49165400D01*
X149225200Y-49165400D01*
X148725200Y-49165400D01*
X148724700Y-49165400D01*
X148657661Y-49145715D01*
X148611906Y-49092911D01*
X148600700Y-49041400D01*
X148600700Y-48383071D01*
X148620385Y-48316032D01*
X148632542Y-48300108D01*
X148738333Y-48182616D01*
X148832979Y-48018684D01*
X148891474Y-47838656D01*
X148911260Y-47650400D01*
X148891474Y-47462144D01*
X148832979Y-47282116D01*
X148738333Y-47118184D01*
X148611671Y-46977512D01*
X148611670Y-46977511D01*
X148458534Y-46866251D01*
X148458529Y-46866248D01*
X148285607Y-46789257D01*
X148285602Y-46789255D01*
X148139801Y-46758265D01*
X148100446Y-46749900D01*
X147911154Y-46749900D01*
X147878697Y-46756798D01*
X147725997Y-46789255D01*
X147725992Y-46789257D01*
X147553070Y-46866248D01*
X147553065Y-46866251D01*
X147399929Y-46977511D01*
X147273266Y-47118185D01*
X147178621Y-47282115D01*
X147178618Y-47282122D01*
X147122827Y-47453831D01*
X147120126Y-47462144D01*
X147100340Y-47650400D01*
X147120126Y-47838656D01*
X147120127Y-47838659D01*
X147178618Y-48018677D01*
X147178621Y-48018684D01*
X147273264Y-48182612D01*
X147273265Y-48182614D01*
X147273267Y-48182616D01*
X147317851Y-48232131D01*
X147348080Y-48295121D01*
X147349700Y-48315102D01*
X147349700Y-49040900D01*
X147330015Y-49107939D01*
X147277211Y-49153694D01*
X147225700Y-49164900D01*
X146622329Y-49164900D01*
X146622323Y-49164901D01*
X146562716Y-49171308D01*
X146518532Y-49187788D01*
X146448840Y-49192772D01*
X146431868Y-49187788D01*
X146387688Y-49171310D01*
X146387684Y-49171309D01*
X146387683Y-49171309D01*
X146328073Y-49164900D01*
X146328063Y-49164900D01*
X145622329Y-49164900D01*
X145622323Y-49164901D01*
X145562716Y-49171308D01*
X145518532Y-49187788D01*
X145448840Y-49192772D01*
X145431868Y-49187788D01*
X145387688Y-49171310D01*
X145387684Y-49171309D01*
X145387683Y-49171309D01*
X145328073Y-49164900D01*
X145328063Y-49164900D01*
X144622329Y-49164900D01*
X144622323Y-49164901D01*
X144562716Y-49171308D01*
X144518532Y-49187788D01*
X144448840Y-49192772D01*
X144431868Y-49187788D01*
X144387688Y-49171310D01*
X144387684Y-49171309D01*
X144387683Y-49171309D01*
X144328073Y-49164900D01*
X144328063Y-49164900D01*
X143622329Y-49164900D01*
X143622323Y-49164901D01*
X143562716Y-49171308D01*
X143518532Y-49187788D01*
X143448840Y-49192772D01*
X143431868Y-49187788D01*
X143387688Y-49171310D01*
X143387684Y-49171309D01*
X143387683Y-49171309D01*
X143328073Y-49164900D01*
X143328063Y-49164900D01*
X142622329Y-49164900D01*
X142622323Y-49164901D01*
X142562716Y-49171308D01*
X142518532Y-49187788D01*
X142448840Y-49192772D01*
X142431868Y-49187788D01*
X142387688Y-49171310D01*
X142387684Y-49171309D01*
X142387683Y-49171309D01*
X142328073Y-49164900D01*
X142328063Y-49164900D01*
X141622329Y-49164900D01*
X141622323Y-49164901D01*
X141562716Y-49171308D01*
X141518532Y-49187788D01*
X141448840Y-49192772D01*
X141431868Y-49187788D01*
X141387688Y-49171310D01*
X141387684Y-49171309D01*
X141387683Y-49171309D01*
X141328073Y-49164900D01*
X141328063Y-49164900D01*
X140622329Y-49164900D01*
X140622323Y-49164901D01*
X140562716Y-49171308D01*
X140518532Y-49187788D01*
X140448840Y-49192772D01*
X140431868Y-49187788D01*
X140387688Y-49171310D01*
X140387684Y-49171309D01*
X140387683Y-49171309D01*
X140328073Y-49164900D01*
X140328063Y-49164900D01*
X139622329Y-49164900D01*
X139622323Y-49164901D01*
X139562716Y-49171308D01*
X139427871Y-49221602D01*
X139427864Y-49221606D01*
X139312655Y-49307852D01*
X139312652Y-49307855D01*
X139226406Y-49423064D01*
X139226402Y-49423071D01*
X139176108Y-49557917D01*
X139170991Y-49605515D01*
X139169701Y-49617523D01*
X139169700Y-49617535D01*
X139169700Y-51713270D01*
X139169701Y-51713276D01*
X139176108Y-51772883D01*
X139226402Y-51907728D01*
X139226403Y-51907729D01*
X139226404Y-51907731D01*
X139291335Y-51994468D01*
X139312656Y-52022949D01*
X139313381Y-52023674D01*
X139313871Y-52024572D01*
X139317969Y-52030046D01*
X139317182Y-52030635D01*
X139346866Y-52084997D01*
X139349700Y-52111355D01*
X139349700Y-52777055D01*
X139347975Y-52792672D01*
X139348261Y-52792699D01*
X139347526Y-52800466D01*
X139349669Y-52868646D01*
X139349700Y-52870593D01*
X139349700Y-52899143D01*
X139349701Y-52899160D01*
X139350568Y-52906031D01*
X139351026Y-52911850D01*
X139352490Y-52958424D01*
X139352491Y-52958427D01*
X139358080Y-52977667D01*
X139362024Y-52996711D01*
X139364536Y-53016591D01*
X139381690Y-53059919D01*
X139383582Y-53065447D01*
X139396581Y-53110188D01*
X139406780Y-53127434D01*
X139415336Y-53144900D01*
X139422714Y-53163532D01*
X139450098Y-53201223D01*
X139453306Y-53206107D01*
X139477027Y-53246216D01*
X139477033Y-53246224D01*
X139491190Y-53260380D01*
X139503828Y-53275176D01*
X139515605Y-53291386D01*
X139515606Y-53291387D01*
X139551509Y-53321088D01*
X139555820Y-53325010D01*
X140882110Y-54651300D01*
X141466836Y-55236026D01*
X141500321Y-55297349D01*
X141495337Y-55367041D01*
X141453465Y-55422974D01*
X141399564Y-55446016D01*
X141152583Y-55487229D01*
X140917397Y-55567969D01*
X140917388Y-55567972D01*
X140698693Y-55686324D01*
X140502455Y-55839062D01*
X140502452Y-55839065D01*
X140343428Y-56011810D01*
X140283541Y-56047801D01*
X140213703Y-56045700D01*
X140160970Y-56011811D01*
X140001944Y-55839062D01*
X139805709Y-55686326D01*
X139805707Y-55686325D01*
X139805706Y-55686324D01*
X139587011Y-55567972D01*
X139587002Y-55567969D01*
X139351816Y-55487229D01*
X139106535Y-55446300D01*
X138857865Y-55446300D01*
X138612583Y-55487229D01*
X138377397Y-55567969D01*
X138377388Y-55567972D01*
X138158693Y-55686324D01*
X137962457Y-55839061D01*
X137803430Y-56011810D01*
X137743542Y-56047801D01*
X137673704Y-56045700D01*
X137620970Y-56011810D01*
X137560645Y-55946280D01*
X137461944Y-55839062D01*
X137265709Y-55686326D01*
X137265707Y-55686325D01*
X137265706Y-55686324D01*
X137047011Y-55567972D01*
X137047002Y-55567969D01*
X136811816Y-55487229D01*
X136566535Y-55446300D01*
X136317865Y-55446300D01*
X136072583Y-55487229D01*
X135837397Y-55567969D01*
X135837388Y-55567972D01*
X135618693Y-55686324D01*
X135422457Y-55839061D01*
X135263430Y-56011810D01*
X135203542Y-56047801D01*
X135133704Y-56045700D01*
X135080970Y-56011810D01*
X135020645Y-55946280D01*
X134921944Y-55839062D01*
X134725709Y-55686326D01*
X134725707Y-55686325D01*
X134725706Y-55686324D01*
X134507011Y-55567972D01*
X134507002Y-55567969D01*
X134271816Y-55487229D01*
X134026535Y-55446300D01*
X133777865Y-55446300D01*
X133532583Y-55487229D01*
X133297397Y-55567969D01*
X133297388Y-55567972D01*
X133078693Y-55686324D01*
X132882457Y-55839061D01*
X132714037Y-56022013D01*
X132714029Y-56022024D01*
X132713655Y-56022597D01*
X132713442Y-56022778D01*
X132710890Y-56026058D01*
X132710214Y-56025532D01*
X132660504Y-56067947D01*
X132597065Y-56078102D01*
X132585634Y-56076916D01*
X131853332Y-56809218D01*
X131830882Y-56732760D01*
X131751595Y-56609387D01*
X131640762Y-56513349D01*
X131507361Y-56452427D01*
X131503563Y-56451881D01*
X132232256Y-55723189D01*
X132185429Y-55686743D01*
X131966814Y-55568435D01*
X131966803Y-55568430D01*
X131731693Y-55487716D01*
X131486493Y-55446800D01*
X131237907Y-55446800D01*
X130992706Y-55487716D01*
X130757596Y-55568430D01*
X130757590Y-55568432D01*
X130538961Y-55686749D01*
X130492142Y-55723188D01*
X130492141Y-55723189D01*
X131220834Y-56451881D01*
X131217039Y-56452427D01*
X131083638Y-56513349D01*
X130972805Y-56609387D01*
X130893518Y-56732760D01*
X130871067Y-56809219D01*
X130138764Y-56076916D01*
X130127335Y-56078102D01*
X130058623Y-56065437D01*
X130014110Y-56025602D01*
X130013517Y-56026065D01*
X130010968Y-56022791D01*
X130010735Y-56022582D01*
X130010366Y-56022018D01*
X130010365Y-56022017D01*
X130010364Y-56022015D01*
X129841944Y-55839062D01*
X129645709Y-55686326D01*
X129645707Y-55686325D01*
X129645706Y-55686324D01*
X129427011Y-55567972D01*
X129427002Y-55567969D01*
X129191816Y-55487229D01*
X128946535Y-55446300D01*
X128697865Y-55446300D01*
X128452583Y-55487229D01*
X128217397Y-55567969D01*
X128217388Y-55567972D01*
X127998693Y-55686324D01*
X127802455Y-55839062D01*
X127802452Y-55839065D01*
X127740574Y-55906283D01*
X127680687Y-55942274D01*
X127649345Y-55946300D01*
X126556252Y-55946300D01*
X126554689Y-55946280D01*
X126466436Y-55944044D01*
X126466435Y-55944044D01*
X126466426Y-55944044D01*
X126406063Y-55954864D01*
X126401397Y-55955518D01*
X126340364Y-55961725D01*
X126307580Y-55972010D01*
X126299953Y-55973882D01*
X126266149Y-55979941D01*
X126209181Y-56002695D01*
X126204745Y-56004274D01*
X126146214Y-56022640D01*
X126146210Y-56022642D01*
X126116178Y-56039310D01*
X126109084Y-56042679D01*
X126077182Y-56055423D01*
X126077177Y-56055425D01*
X126025956Y-56089181D01*
X126021928Y-56091622D01*
X125968301Y-56121388D01*
X125942234Y-56143765D01*
X125935965Y-56148492D01*
X125907284Y-56167395D01*
X125907278Y-56167400D01*
X125863909Y-56210768D01*
X125860455Y-56213969D01*
X125813902Y-56253936D01*
X125792876Y-56281098D01*
X125787685Y-56286992D01*
X112941691Y-69132987D01*
X112940567Y-69134083D01*
X112876546Y-69194942D01*
X112841499Y-69245294D01*
X112838662Y-69249056D01*
X112799902Y-69296592D01*
X112799899Y-69296597D01*
X112783992Y-69327047D01*
X112779924Y-69333761D01*
X112760302Y-69361954D01*
X112736109Y-69418330D01*
X112734088Y-69422584D01*
X112705691Y-69476951D01*
X112705690Y-69476952D01*
X112696240Y-69509975D01*
X112693607Y-69517371D01*
X112680059Y-69548943D01*
X112667713Y-69609019D01*
X112666590Y-69613595D01*
X112649713Y-69672577D01*
X112649713Y-69672579D01*
X112647103Y-69706841D01*
X112646014Y-69714608D01*
X112640580Y-69741052D01*
X112639100Y-69748258D01*
X112639100Y-69809597D01*
X112638921Y-69814306D01*
X112634262Y-69875473D01*
X112638602Y-69909549D01*
X112639099Y-69917389D01*
X112639099Y-90167072D01*
X112639079Y-90168642D01*
X112636843Y-90256922D01*
X112636843Y-90256930D01*
X112647664Y-90317302D01*
X112648318Y-90321967D01*
X112654525Y-90382993D01*
X112654527Y-90383007D01*
X112664808Y-90415776D01*
X112666679Y-90423400D01*
X112672742Y-90457215D01*
X112672742Y-90457218D01*
X112695494Y-90514175D01*
X112697074Y-90518614D01*
X112715441Y-90577151D01*
X112715444Y-90577158D01*
X112732109Y-90607182D01*
X112735479Y-90614277D01*
X112748222Y-90646177D01*
X112748227Y-90646187D01*
X112781977Y-90697396D01*
X112784418Y-90701426D01*
X112814188Y-90755061D01*
X112814189Y-90755062D01*
X112814191Y-90755065D01*
X112836568Y-90781130D01*
X112841293Y-90787398D01*
X112843805Y-90791209D01*
X112860198Y-90816082D01*
X112903578Y-90859462D01*
X112906769Y-90862906D01*
X112944028Y-90906306D01*
X112946734Y-90909458D01*
X112973894Y-90930481D01*
X112979790Y-90935674D01*
X121690980Y-99646864D01*
X121724465Y-99708187D01*
X121727299Y-99734545D01*
X121727299Y-101139539D01*
X121707614Y-101206578D01*
X121654810Y-101252333D01*
X121585652Y-101262277D01*
X121522096Y-101233252D01*
X121487116Y-101182869D01*
X121481597Y-101168071D01*
X121481593Y-101168064D01*
X121395347Y-101052855D01*
X121395344Y-101052852D01*
X121280135Y-100966606D01*
X121280128Y-100966602D01*
X121145282Y-100916308D01*
X121145283Y-100916308D01*
X121085683Y-100909901D01*
X121085681Y-100909900D01*
X121085673Y-100909900D01*
X121085664Y-100909900D01*
X119289929Y-100909900D01*
X119289923Y-100909901D01*
X119230316Y-100916308D01*
X119095471Y-100966602D01*
X119095464Y-100966606D01*
X118980255Y-101052852D01*
X118980252Y-101052855D01*
X118894006Y-101168064D01*
X118894002Y-101168071D01*
X118843708Y-101302917D01*
X118837301Y-101362516D01*
X118837300Y-101362535D01*
X118837300Y-102144616D01*
X118817615Y-102211655D01*
X118800981Y-102232297D01*
X117437490Y-103595788D01*
X117436366Y-103596884D01*
X117372345Y-103657743D01*
X117372344Y-103657744D01*
X117361673Y-103673076D01*
X117307218Y-103716853D01*
X117237740Y-103724240D01*
X117175297Y-103692891D01*
X117139716Y-103632761D01*
X117135900Y-103602236D01*
X117135900Y-96135691D01*
X117135920Y-96134121D01*
X117138157Y-96045841D01*
X117138156Y-96045840D01*
X117138157Y-96045837D01*
X117127333Y-95985449D01*
X117126680Y-95980787D01*
X117120474Y-95919763D01*
X117120474Y-95919762D01*
X117110184Y-95886968D01*
X117108317Y-95879355D01*
X117102258Y-95845548D01*
X117099336Y-95838232D01*
X117079495Y-95788561D01*
X117077927Y-95784155D01*
X117068767Y-95754960D01*
X117059561Y-95725616D01*
X117059560Y-95725614D01*
X117042892Y-95695585D01*
X117039524Y-95688495D01*
X117026778Y-95656583D01*
X116993012Y-95605350D01*
X116990583Y-95601342D01*
X116960809Y-95547698D01*
X116938434Y-95521634D01*
X116933706Y-95515363D01*
X116914804Y-95486684D01*
X116914799Y-95486678D01*
X116893115Y-95464995D01*
X116871419Y-95443299D01*
X116868228Y-95439855D01*
X116828266Y-95393305D01*
X116801094Y-95372272D01*
X116795207Y-95367087D01*
X109664624Y-88236504D01*
X109631139Y-88175181D01*
X109629996Y-88128416D01*
X109649700Y-88010335D01*
X109649700Y-87761665D01*
X109608771Y-87516386D01*
X109528028Y-87281190D01*
X109409674Y-87062491D01*
X109256938Y-86866256D01*
X109073985Y-86697836D01*
X109073982Y-86697833D01*
X108865806Y-86561826D01*
X108638081Y-86461936D01*
X108397024Y-86400892D01*
X108397013Y-86400890D01*
X108211277Y-86385500D01*
X108211267Y-86385500D01*
X107587133Y-86385500D01*
X107587122Y-86385500D01*
X107401386Y-86400890D01*
X107401375Y-86400892D01*
X107160318Y-86461936D01*
X106932593Y-86561826D01*
X106724417Y-86697833D01*
X106541461Y-86866257D01*
X106388724Y-87062493D01*
X106270372Y-87281188D01*
X106270369Y-87281197D01*
X106189629Y-87516383D01*
X106170902Y-87628611D01*
X106148700Y-87761665D01*
X106148700Y-88010335D01*
X106153776Y-88040753D01*
X106189629Y-88255616D01*
X106270369Y-88490802D01*
X106270372Y-88490811D01*
X106388496Y-88709084D01*
X106388726Y-88709509D01*
X106541462Y-88905744D01*
X106672998Y-89026831D01*
X106724417Y-89074166D01*
X106932593Y-89210173D01*
X107160318Y-89310063D01*
X107355370Y-89359457D01*
X107401379Y-89371108D01*
X107401381Y-89371108D01*
X107401386Y-89371109D01*
X107554789Y-89383819D01*
X107587133Y-89386500D01*
X107933417Y-89386500D01*
X108000456Y-89406185D01*
X108021098Y-89422819D01*
X115098581Y-96500302D01*
X115132066Y-96561625D01*
X115134900Y-96587983D01*
X115134900Y-137657245D01*
X115115215Y-137724284D01*
X115062411Y-137770039D01*
X114993253Y-137779983D01*
X114946110Y-137762972D01*
X114764259Y-137651533D01*
X114531510Y-137555126D01*
X114286551Y-137496317D01*
X114098186Y-137481492D01*
X114035400Y-137476551D01*
X114035399Y-137476551D01*
X113784248Y-137496317D01*
X113539289Y-137555126D01*
X113306540Y-137651533D01*
X113091746Y-137783160D01*
X113091743Y-137783161D01*
X112900176Y-137946776D01*
X112736561Y-138138343D01*
X112736560Y-138138346D01*
X112604933Y-138353140D01*
X112508526Y-138585889D01*
X112449717Y-138830848D01*
X112434900Y-139019112D01*
X112434900Y-140444887D01*
X112449717Y-140633151D01*
X112508526Y-140878110D01*
X112604933Y-141110859D01*
X112736560Y-141325653D01*
X112736561Y-141325656D01*
X112748425Y-141339547D01*
X112900176Y-141517224D01*
X113048466Y-141643875D01*
X113091743Y-141680838D01*
X113091746Y-141680839D01*
X113177799Y-141733573D01*
X113224674Y-141785385D01*
X113236097Y-141854314D01*
X113208440Y-141918477D01*
X113150484Y-141957502D01*
X113113009Y-141963300D01*
X95340248Y-141963300D01*
X95334167Y-141963001D01*
X95193380Y-141949135D01*
X95169540Y-141944393D01*
X95042928Y-141905986D01*
X95020471Y-141896683D01*
X94903793Y-141834317D01*
X94883581Y-141820812D01*
X94781308Y-141736879D01*
X94764120Y-141719691D01*
X94730394Y-141678596D01*
X94680186Y-141617416D01*
X94666682Y-141597206D01*
X94622092Y-141513784D01*
X94604314Y-141480525D01*
X94595015Y-141458077D01*
X94556604Y-141331452D01*
X94551865Y-141307624D01*
X94537999Y-141166831D01*
X94537700Y-141160751D01*
X94537700Y-138089205D01*
X95777557Y-138089205D01*
X95798090Y-138337012D01*
X95798092Y-138337024D01*
X95859136Y-138578081D01*
X95959026Y-138805806D01*
X96095033Y-139013982D01*
X96110219Y-139030478D01*
X96263456Y-139196938D01*
X96459691Y-139349674D01*
X96459693Y-139349675D01*
X96669919Y-139463444D01*
X96678390Y-139468028D01*
X96913586Y-139548771D01*
X97158865Y-139589700D01*
X97407535Y-139589700D01*
X97652814Y-139548771D01*
X97888010Y-139468028D01*
X98106709Y-139349674D01*
X98302944Y-139196938D01*
X98335708Y-139161347D01*
X98364826Y-139129717D01*
X98424713Y-139093726D01*
X98456055Y-139089700D01*
X102610345Y-139089700D01*
X102677384Y-139109385D01*
X102701574Y-139129717D01*
X102763452Y-139196934D01*
X102763456Y-139196938D01*
X102959691Y-139349674D01*
X102959693Y-139349675D01*
X103169919Y-139463444D01*
X103178390Y-139468028D01*
X103413586Y-139548771D01*
X103658865Y-139589700D01*
X103907535Y-139589700D01*
X104152814Y-139548771D01*
X104388010Y-139468028D01*
X104606709Y-139349674D01*
X104802944Y-139196938D01*
X104971364Y-139013985D01*
X105107373Y-138805807D01*
X105207263Y-138578081D01*
X105268308Y-138337021D01*
X105272806Y-138282736D01*
X105288843Y-138089205D01*
X105288843Y-138089194D01*
X105268309Y-137841387D01*
X105268307Y-137841375D01*
X105207263Y-137600318D01*
X105107373Y-137372593D01*
X104971366Y-137164417D01*
X104928827Y-137118208D01*
X104802944Y-136981462D01*
X104606709Y-136828726D01*
X104606707Y-136828725D01*
X104606706Y-136828724D01*
X104388011Y-136710372D01*
X104388002Y-136710369D01*
X104152816Y-136629629D01*
X103907535Y-136588700D01*
X103658865Y-136588700D01*
X103413583Y-136629629D01*
X103178397Y-136710369D01*
X103178388Y-136710372D01*
X102959693Y-136828724D01*
X102763455Y-136981462D01*
X102763452Y-136981465D01*
X102701574Y-137048683D01*
X102641687Y-137084674D01*
X102610345Y-137088700D01*
X98456055Y-137088700D01*
X98389016Y-137069015D01*
X98364826Y-137048683D01*
X98302947Y-136981465D01*
X98302944Y-136981462D01*
X98269737Y-136955616D01*
X98106709Y-136828726D01*
X98106707Y-136828725D01*
X98106706Y-136828724D01*
X97888011Y-136710372D01*
X97888002Y-136710369D01*
X97652816Y-136629629D01*
X97407535Y-136588700D01*
X97158865Y-136588700D01*
X96913583Y-136629629D01*
X96678397Y-136710369D01*
X96678388Y-136710372D01*
X96459693Y-136828724D01*
X96263457Y-136981461D01*
X96095033Y-137164417D01*
X95959026Y-137372593D01*
X95859136Y-137600318D01*
X95798092Y-137841375D01*
X95798090Y-137841387D01*
X95777557Y-138089194D01*
X95777557Y-138089205D01*
X94537700Y-138089205D01*
X94537700Y-129260674D01*
X95616262Y-129260674D01*
X95618307Y-129276727D01*
X95620603Y-129294760D01*
X95621100Y-129302588D01*
X95621100Y-132914106D01*
X95621080Y-132915670D01*
X95620354Y-132944313D01*
X95618843Y-133003962D01*
X95618843Y-133003970D01*
X95629664Y-133064339D01*
X95630318Y-133069004D01*
X95636525Y-133130030D01*
X95636527Y-133130044D01*
X95646808Y-133162813D01*
X95648679Y-133170437D01*
X95654742Y-133204252D01*
X95654742Y-133204255D01*
X95677494Y-133261212D01*
X95679074Y-133265651D01*
X95697441Y-133324188D01*
X95697444Y-133324195D01*
X95714109Y-133354219D01*
X95717479Y-133361314D01*
X95730223Y-133393217D01*
X95757281Y-133434274D01*
X95763985Y-133444446D01*
X95766422Y-133448470D01*
X95767436Y-133450297D01*
X95768007Y-133451326D01*
X95783312Y-133519499D01*
X95783149Y-133521712D01*
X95777558Y-133589194D01*
X95777557Y-133589205D01*
X95798090Y-133837012D01*
X95798092Y-133837024D01*
X95859136Y-134078081D01*
X95959026Y-134305806D01*
X96095033Y-134513982D01*
X96095036Y-134513985D01*
X96263456Y-134696938D01*
X96459691Y-134849674D01*
X96678390Y-134968028D01*
X96913586Y-135048771D01*
X97158865Y-135089700D01*
X97407535Y-135089700D01*
X97652814Y-135048771D01*
X97888010Y-134968028D01*
X98106709Y-134849674D01*
X98302944Y-134696938D01*
X98327394Y-134670377D01*
X98364826Y-134629717D01*
X98424713Y-134593726D01*
X98456055Y-134589700D01*
X102610345Y-134589700D01*
X102677384Y-134609385D01*
X102701574Y-134629717D01*
X102758850Y-134691935D01*
X102763456Y-134696938D01*
X102959691Y-134849674D01*
X103178390Y-134968028D01*
X103413586Y-135048771D01*
X103658865Y-135089700D01*
X103907535Y-135089700D01*
X104152814Y-135048771D01*
X104388010Y-134968028D01*
X104606709Y-134849674D01*
X104802944Y-134696938D01*
X104971364Y-134513985D01*
X105107373Y-134305807D01*
X105207263Y-134078081D01*
X105268308Y-133837021D01*
X105268309Y-133837012D01*
X105288843Y-133589205D01*
X105288843Y-133589194D01*
X105268309Y-133341387D01*
X105268307Y-133341375D01*
X105207263Y-133100318D01*
X105107373Y-132872593D01*
X104971366Y-132664417D01*
X104864825Y-132548683D01*
X104802944Y-132481462D01*
X104606709Y-132328726D01*
X104606707Y-132328725D01*
X104606706Y-132328724D01*
X104388011Y-132210372D01*
X104388002Y-132210369D01*
X104152816Y-132129629D01*
X103907535Y-132088700D01*
X103658865Y-132088700D01*
X103413583Y-132129629D01*
X103178397Y-132210369D01*
X103178388Y-132210372D01*
X102959693Y-132328724D01*
X102763455Y-132481462D01*
X102763452Y-132481465D01*
X102701574Y-132548683D01*
X102641687Y-132584674D01*
X102610345Y-132588700D01*
X98456055Y-132588700D01*
X98389016Y-132569015D01*
X98364826Y-132548683D01*
X98302947Y-132481465D01*
X98302944Y-132481462D01*
X98106706Y-132328724D01*
X97888011Y-132210372D01*
X97888002Y-132210369D01*
X97705837Y-132147831D01*
X97648822Y-132107445D01*
X97622691Y-132042646D01*
X97622100Y-132030550D01*
X97622100Y-130869094D01*
X97622100Y-129700979D01*
X97641784Y-129633944D01*
X97658413Y-129613307D01*
X97854718Y-129417002D01*
X97916042Y-129383517D01*
X97985734Y-129388501D01*
X98030081Y-129417002D01*
X99994042Y-131380963D01*
X99995101Y-131382050D01*
X100055937Y-131446050D01*
X100055941Y-131446053D01*
X100106281Y-131481092D01*
X100110043Y-131483928D01*
X100157587Y-131522694D01*
X100157590Y-131522695D01*
X100157593Y-131522698D01*
X100188045Y-131538604D01*
X100194758Y-131542672D01*
X100222951Y-131562295D01*
X100279329Y-131586489D01*
X100283578Y-131588507D01*
X100337951Y-131616909D01*
X100365355Y-131624750D01*
X100370974Y-131626358D01*
X100378368Y-131628990D01*
X100409942Y-131642540D01*
X100409945Y-131642540D01*
X100409946Y-131642541D01*
X100470022Y-131654887D01*
X100474600Y-131656010D01*
X100476704Y-131656612D01*
X100533582Y-131672887D01*
X100567839Y-131675495D01*
X100575614Y-131676586D01*
X100609255Y-131683500D01*
X100609259Y-131683500D01*
X100670599Y-131683500D01*
X100675305Y-131683678D01*
X100710063Y-131686325D01*
X100736476Y-131688337D01*
X100736476Y-131688336D01*
X100736477Y-131688337D01*
X100770560Y-131683996D01*
X100778390Y-131683500D01*
X111086107Y-131683500D01*
X111087669Y-131683519D01*
X111124883Y-131684462D01*
X111175958Y-131685757D01*
X111175958Y-131685756D01*
X111175963Y-131685757D01*
X111236353Y-131674932D01*
X111241012Y-131674280D01*
X111283207Y-131669988D01*
X111302038Y-131668074D01*
X111334827Y-131657786D01*
X111342440Y-131655918D01*
X111376253Y-131649858D01*
X111433221Y-131627101D01*
X111437653Y-131625524D01*
X111440120Y-131624750D01*
X111496188Y-131607159D01*
X111526227Y-131590484D01*
X111533308Y-131587122D01*
X111565217Y-131574377D01*
X111616454Y-131540608D01*
X111620451Y-131538187D01*
X111674102Y-131508409D01*
X111700168Y-131486030D01*
X111706443Y-131481300D01*
X111706759Y-131481092D01*
X111735119Y-131462402D01*
X111778492Y-131419027D01*
X111781950Y-131415823D01*
X111821291Y-131382050D01*
X111828495Y-131375866D01*
X111849528Y-131348691D01*
X111854698Y-131342821D01*
X112985940Y-130211580D01*
X113082298Y-130093407D01*
X113176509Y-129913049D01*
X113232486Y-129717418D01*
X113247937Y-129514524D01*
X113231253Y-129383517D01*
X113222231Y-129312678D01*
X113222230Y-129312676D01*
X113222230Y-129312672D01*
X113156416Y-129120128D01*
X113144461Y-129099820D01*
X113053193Y-128944778D01*
X113053192Y-128944777D01*
X113053190Y-128944773D01*
X112916779Y-128793787D01*
X112871579Y-128760596D01*
X112752771Y-128673353D01*
X112752764Y-128673349D01*
X112567874Y-128588397D01*
X112567861Y-128588392D01*
X112369654Y-128542397D01*
X112166242Y-128537242D01*
X111965951Y-128573140D01*
X111965945Y-128573142D01*
X111776983Y-128648623D01*
X111776971Y-128648629D01*
X111607082Y-128760596D01*
X111607078Y-128760599D01*
X110721499Y-129646181D01*
X110660176Y-129679666D01*
X110633818Y-129682500D01*
X101176782Y-129682500D01*
X101109743Y-129662815D01*
X101089101Y-129646181D01*
X100828719Y-129385799D01*
X100795234Y-129324476D01*
X100792400Y-129298118D01*
X100792400Y-128164400D01*
X101292400Y-128164400D01*
X101292400Y-129289399D01*
X101492372Y-129289399D01*
X101492386Y-129289398D01*
X101595097Y-129278905D01*
X101761519Y-129223758D01*
X101761524Y-129223756D01*
X101910745Y-129131715D01*
X102034715Y-129007745D01*
X102126756Y-128858524D01*
X102126758Y-128858519D01*
X102181905Y-128692097D01*
X102181906Y-128692090D01*
X102192399Y-128589386D01*
X102192400Y-128589373D01*
X102192400Y-128164400D01*
X101292400Y-128164400D01*
X100792400Y-128164400D01*
X99892402Y-128164400D01*
X99886463Y-128170338D01*
X99872714Y-128217160D01*
X99819908Y-128262914D01*
X99750750Y-128272855D01*
X99687195Y-128243829D01*
X99680719Y-128237799D01*
X99129218Y-127686298D01*
X99117261Y-127664400D01*
X99892400Y-127664400D01*
X100792400Y-127664400D01*
X100792400Y-126539400D01*
X101292400Y-126539400D01*
X101292400Y-127664400D01*
X102192399Y-127664400D01*
X102192399Y-127239428D01*
X102192398Y-127239413D01*
X102181905Y-127136702D01*
X102126758Y-126970280D01*
X102126756Y-126970275D01*
X102034715Y-126821054D01*
X101910745Y-126697084D01*
X101761524Y-126605043D01*
X101761519Y-126605041D01*
X101595097Y-126549894D01*
X101595090Y-126549893D01*
X101492386Y-126539400D01*
X101292400Y-126539400D01*
X100792400Y-126539400D01*
X100592429Y-126539400D01*
X100592412Y-126539401D01*
X100489702Y-126549894D01*
X100323280Y-126605041D01*
X100323275Y-126605043D01*
X100174054Y-126697084D01*
X100050084Y-126821054D01*
X99958043Y-126970275D01*
X99958041Y-126970280D01*
X99902894Y-127136702D01*
X99902893Y-127136709D01*
X99892400Y-127239413D01*
X99892400Y-127664400D01*
X99117261Y-127664400D01*
X99095733Y-127624975D01*
X99092899Y-127598617D01*
X99092899Y-127239398D01*
X99092898Y-127239381D01*
X99082399Y-127136603D01*
X99082398Y-127136600D01*
X99027214Y-126970066D01*
X98935112Y-126820744D01*
X98811056Y-126696688D01*
X98661734Y-126604586D01*
X98495197Y-126549401D01*
X98495195Y-126549400D01*
X98392410Y-126538900D01*
X97492398Y-126538900D01*
X97492380Y-126538901D01*
X97389603Y-126549400D01*
X97389600Y-126549401D01*
X97223068Y-126604585D01*
X97223063Y-126604587D01*
X97073742Y-126696689D01*
X96949689Y-126820742D01*
X96857587Y-126970063D01*
X96857585Y-126970068D01*
X96857515Y-126970280D01*
X96802401Y-127136603D01*
X96802401Y-127136604D01*
X96802400Y-127136604D01*
X96791900Y-127239383D01*
X96791900Y-127598617D01*
X96772215Y-127665656D01*
X96755581Y-127686298D01*
X95923690Y-128518188D01*
X95922566Y-128519284D01*
X95858546Y-128580142D01*
X95823499Y-128630494D01*
X95820662Y-128634256D01*
X95781902Y-128681792D01*
X95781899Y-128681797D01*
X95765992Y-128712247D01*
X95761924Y-128718961D01*
X95742302Y-128747154D01*
X95718109Y-128803530D01*
X95716088Y-128807784D01*
X95687691Y-128862151D01*
X95687690Y-128862152D01*
X95678240Y-128895175D01*
X95675607Y-128902571D01*
X95662059Y-128934143D01*
X95649713Y-128994219D01*
X95648590Y-128998795D01*
X95631713Y-129057777D01*
X95631713Y-129057779D01*
X95629103Y-129092041D01*
X95628014Y-129099808D01*
X95623842Y-129120117D01*
X95621100Y-129133458D01*
X95621100Y-129194797D01*
X95620921Y-129199506D01*
X95616262Y-129260674D01*
X94537700Y-129260674D01*
X94537700Y-124473825D01*
X104884300Y-124473825D01*
X104899272Y-124630617D01*
X104899273Y-124630621D01*
X104955295Y-124821416D01*
X104958484Y-124832275D01*
X105005872Y-124924195D01*
X105054791Y-125019086D01*
X105184705Y-125184283D01*
X105184709Y-125184287D01*
X105343546Y-125321921D01*
X105525550Y-125427001D01*
X105525552Y-125427001D01*
X105525556Y-125427004D01*
X105724167Y-125495744D01*
X105932198Y-125525654D01*
X106142130Y-125515654D01*
X106346376Y-125466104D01*
X106431999Y-125427001D01*
X106537543Y-125378801D01*
X106537546Y-125378799D01*
X106537553Y-125378796D01*
X106708752Y-125256886D01*
X106806551Y-125154316D01*
X106867058Y-125119383D01*
X106936849Y-125122707D01*
X106993763Y-125163235D01*
X107001830Y-125174788D01*
X107042088Y-125240056D01*
X107166144Y-125364112D01*
X107315466Y-125456214D01*
X107482003Y-125511399D01*
X107584791Y-125521900D01*
X108384808Y-125521899D01*
X108384816Y-125521898D01*
X108384819Y-125521898D01*
X108445943Y-125515654D01*
X108487597Y-125511399D01*
X108654134Y-125456214D01*
X108803456Y-125364112D01*
X108927512Y-125240056D01*
X109019614Y-125090734D01*
X109074799Y-124924197D01*
X109085300Y-124821409D01*
X109085299Y-123471392D01*
X109074799Y-123368603D01*
X109019614Y-123202066D01*
X108927512Y-123052744D01*
X108803456Y-122928688D01*
X108710688Y-122871468D01*
X108654136Y-122836587D01*
X108654131Y-122836585D01*
X108624288Y-122826696D01*
X108487597Y-122781401D01*
X108487595Y-122781400D01*
X108384810Y-122770900D01*
X107584798Y-122770900D01*
X107584780Y-122770901D01*
X107482003Y-122781400D01*
X107482000Y-122781401D01*
X107315468Y-122836585D01*
X107315463Y-122836587D01*
X107166142Y-122928689D01*
X107042088Y-123052743D01*
X107042085Y-123052747D01*
X107002984Y-123116140D01*
X106951036Y-123162865D01*
X106882074Y-123174086D01*
X106817992Y-123146243D01*
X106799975Y-123127694D01*
X106784892Y-123108514D01*
X106784890Y-123108512D01*
X106626053Y-122970878D01*
X106444049Y-122865798D01*
X106444045Y-122865796D01*
X106444044Y-122865796D01*
X106245433Y-122797056D01*
X106037402Y-122767146D01*
X106037398Y-122767146D01*
X105827472Y-122777145D01*
X105623221Y-122826696D01*
X105623217Y-122826698D01*
X105432056Y-122913998D01*
X105432051Y-122914001D01*
X105260846Y-123035915D01*
X105260840Y-123035920D01*
X105115814Y-123188020D01*
X105002188Y-123364825D01*
X104924074Y-123559944D01*
X104884300Y-123766314D01*
X104884300Y-123766315D01*
X104884300Y-124473825D01*
X94537700Y-124473825D01*
X94537700Y-119140005D01*
X96279954Y-119140005D01*
X96298918Y-119441446D01*
X96298919Y-119441453D01*
X96355520Y-119738164D01*
X96448859Y-120025431D01*
X96448861Y-120025436D01*
X96577465Y-120298732D01*
X96577468Y-120298738D01*
X96739311Y-120553763D01*
X96931852Y-120786505D01*
X97152036Y-120993272D01*
X97152046Y-120993280D01*
X97396393Y-121170808D01*
X97396398Y-121170810D01*
X97396405Y-121170816D01*
X97661096Y-121316332D01*
X97661101Y-121316334D01*
X97661103Y-121316335D01*
X97661104Y-121316336D01*
X97941934Y-121427524D01*
X97941937Y-121427525D01*
X98039459Y-121452564D01*
X98234502Y-121502642D01*
X98381239Y-121521179D01*
X98534163Y-121540499D01*
X98534169Y-121540499D01*
X98534173Y-121540500D01*
X98534175Y-121540500D01*
X98836225Y-121540500D01*
X98836227Y-121540500D01*
X98836232Y-121540499D01*
X98836236Y-121540499D01*
X98915791Y-121530448D01*
X99135898Y-121502642D01*
X99428462Y-121427525D01*
X99428465Y-121427524D01*
X99709295Y-121316336D01*
X99709296Y-121316335D01*
X99709294Y-121316335D01*
X99709304Y-121316332D01*
X99973995Y-121170816D01*
X100218362Y-120993274D01*
X100438549Y-120786504D01*
X100631085Y-120553768D01*
X100792933Y-120298736D01*
X100921541Y-120025430D01*
X101014881Y-119738160D01*
X101071480Y-119441457D01*
X101085111Y-119224800D01*
X101090446Y-119140005D01*
X101090446Y-119139994D01*
X101071481Y-118838553D01*
X101071480Y-118838546D01*
X101071480Y-118838543D01*
X101014881Y-118541840D01*
X100921541Y-118254570D01*
X100792933Y-117981264D01*
X100666920Y-117782699D01*
X100631088Y-117726236D01*
X100631085Y-117726232D01*
X100438549Y-117493496D01*
X100218362Y-117286726D01*
X100218359Y-117286724D01*
X100218353Y-117286719D01*
X99974006Y-117109191D01*
X99973999Y-117109186D01*
X99973995Y-117109184D01*
X99709304Y-116963668D01*
X99709301Y-116963666D01*
X99709296Y-116963664D01*
X99709295Y-116963663D01*
X99428465Y-116852475D01*
X99428462Y-116852474D01*
X99135895Y-116777357D01*
X98836236Y-116739500D01*
X98836227Y-116739500D01*
X98534173Y-116739500D01*
X98534163Y-116739500D01*
X98234504Y-116777357D01*
X97941937Y-116852474D01*
X97941934Y-116852475D01*
X97661104Y-116963663D01*
X97661103Y-116963664D01*
X97396405Y-117109184D01*
X97396393Y-117109191D01*
X97152046Y-117286719D01*
X97152036Y-117286727D01*
X96931852Y-117493494D01*
X96739311Y-117726236D01*
X96577468Y-117981261D01*
X96577465Y-117981267D01*
X96448861Y-118254563D01*
X96448859Y-118254568D01*
X96355520Y-118541835D01*
X96298919Y-118838546D01*
X96298918Y-118838553D01*
X96279954Y-119139994D01*
X96279954Y-119140005D01*
X94537700Y-119140005D01*
X94537700Y-100902805D01*
X96254554Y-100902805D01*
X96273518Y-101204246D01*
X96273519Y-101204253D01*
X96330120Y-101500964D01*
X96423459Y-101788231D01*
X96423461Y-101788236D01*
X96552065Y-102061532D01*
X96552068Y-102061538D01*
X96713911Y-102316563D01*
X96713914Y-102316567D01*
X96713915Y-102316568D01*
X96906451Y-102549304D01*
X97093117Y-102724596D01*
X97126636Y-102756072D01*
X97126646Y-102756080D01*
X97370993Y-102933608D01*
X97370998Y-102933610D01*
X97371005Y-102933616D01*
X97635696Y-103079132D01*
X97635701Y-103079134D01*
X97635703Y-103079135D01*
X97635704Y-103079136D01*
X97916534Y-103190324D01*
X97916537Y-103190325D01*
X97942138Y-103196898D01*
X98209102Y-103265442D01*
X98355839Y-103283979D01*
X98508763Y-103303299D01*
X98508769Y-103303299D01*
X98508773Y-103303300D01*
X98508775Y-103303300D01*
X98810825Y-103303300D01*
X98810827Y-103303300D01*
X98810832Y-103303299D01*
X98810836Y-103303299D01*
X98890391Y-103293248D01*
X99110498Y-103265442D01*
X99403062Y-103190325D01*
X99403065Y-103190324D01*
X99683895Y-103079136D01*
X99683896Y-103079135D01*
X99683894Y-103079135D01*
X99683904Y-103079132D01*
X99948595Y-102933616D01*
X100192962Y-102756074D01*
X100413149Y-102549304D01*
X100605685Y-102316568D01*
X100767533Y-102061536D01*
X100896141Y-101788230D01*
X100989481Y-101500960D01*
X101046080Y-101204257D01*
X101051387Y-101119905D01*
X101065046Y-100902805D01*
X101065046Y-100902794D01*
X101046081Y-100601353D01*
X101046080Y-100601346D01*
X101046080Y-100601343D01*
X100989481Y-100304640D01*
X100896141Y-100017370D01*
X100767533Y-99744064D01*
X100605685Y-99489032D01*
X100413149Y-99256296D01*
X100192962Y-99049526D01*
X100192959Y-99049524D01*
X100192953Y-99049519D01*
X99948606Y-98871991D01*
X99948599Y-98871986D01*
X99948595Y-98871984D01*
X99683904Y-98726468D01*
X99683901Y-98726466D01*
X99683896Y-98726464D01*
X99683895Y-98726463D01*
X99403065Y-98615275D01*
X99403062Y-98615274D01*
X99110495Y-98540157D01*
X98810836Y-98502300D01*
X98810827Y-98502300D01*
X98508773Y-98502300D01*
X98508763Y-98502300D01*
X98209104Y-98540157D01*
X97916537Y-98615274D01*
X97916534Y-98615275D01*
X97635704Y-98726463D01*
X97635703Y-98726464D01*
X97371005Y-98871984D01*
X97370993Y-98871991D01*
X97126646Y-99049519D01*
X97126636Y-99049527D01*
X96906452Y-99256294D01*
X96713911Y-99489036D01*
X96552068Y-99744061D01*
X96552065Y-99744067D01*
X96423461Y-100017363D01*
X96423459Y-100017368D01*
X96330120Y-100304635D01*
X96273519Y-100601346D01*
X96273518Y-100601353D01*
X96254554Y-100902794D01*
X96254554Y-100902805D01*
X94537700Y-100902805D01*
X94537700Y-97197412D01*
X94537755Y-97194796D01*
X94554683Y-96794007D01*
X94555122Y-96788806D01*
X94556753Y-96775999D01*
X106170176Y-96775999D01*
X106170178Y-96776000D01*
X107611483Y-96776000D01*
X107575829Y-96814731D01*
X107524752Y-96931177D01*
X107514251Y-97057898D01*
X107545466Y-97181162D01*
X107607427Y-97276000D01*
X106170177Y-97276000D01*
X106190116Y-97395492D01*
X106270830Y-97630603D01*
X106270835Y-97630614D01*
X106389142Y-97849228D01*
X106389148Y-97849237D01*
X106541826Y-98045397D01*
X106541835Y-98045407D01*
X106724722Y-98213767D01*
X106724721Y-98213767D01*
X106932832Y-98349732D01*
X107160482Y-98449587D01*
X107401461Y-98510612D01*
X107401469Y-98510614D01*
X107587145Y-98525999D01*
X107587161Y-98526000D01*
X107649200Y-98526000D01*
X107649200Y-97314220D01*
X107715357Y-97365713D01*
X107835622Y-97407000D01*
X107930769Y-97407000D01*
X108024621Y-97391339D01*
X108136451Y-97330820D01*
X108149200Y-97316970D01*
X108149200Y-98526000D01*
X108211239Y-98526000D01*
X108211254Y-98525999D01*
X108396930Y-98510614D01*
X108396938Y-98510612D01*
X108637917Y-98449587D01*
X108865567Y-98349732D01*
X109073678Y-98213767D01*
X109256564Y-98045407D01*
X109256573Y-98045397D01*
X109409251Y-97849237D01*
X109409257Y-97849228D01*
X109527564Y-97630614D01*
X109527569Y-97630603D01*
X109608283Y-97395492D01*
X109628223Y-97276000D01*
X108186917Y-97276000D01*
X108222571Y-97237269D01*
X108273648Y-97120823D01*
X108284149Y-96994102D01*
X108252934Y-96870838D01*
X108190973Y-96776000D01*
X109628222Y-96776000D01*
X109628223Y-96775999D01*
X109608283Y-96656507D01*
X109527569Y-96421396D01*
X109527564Y-96421385D01*
X109409257Y-96202771D01*
X109409251Y-96202762D01*
X109256573Y-96006602D01*
X109256564Y-96006592D01*
X109073677Y-95838232D01*
X109073678Y-95838232D01*
X108865567Y-95702267D01*
X108637917Y-95602412D01*
X108396938Y-95541387D01*
X108396930Y-95541385D01*
X108211254Y-95526000D01*
X108149200Y-95526000D01*
X108149200Y-96737779D01*
X108083043Y-96686287D01*
X107962778Y-96645000D01*
X107867631Y-96645000D01*
X107773779Y-96660661D01*
X107661949Y-96721180D01*
X107649200Y-96735029D01*
X107649200Y-95526000D01*
X107587145Y-95526000D01*
X107401469Y-95541385D01*
X107401461Y-95541387D01*
X107160482Y-95602412D01*
X106932832Y-95702267D01*
X106724721Y-95838232D01*
X106541835Y-96006592D01*
X106541826Y-96006602D01*
X106389148Y-96202762D01*
X106389142Y-96202771D01*
X106270835Y-96421385D01*
X106270830Y-96421396D01*
X106190116Y-96656507D01*
X106170176Y-96775999D01*
X94556753Y-96775999D01*
X94605622Y-96392154D01*
X94606497Y-96387026D01*
X94606501Y-96387011D01*
X94690260Y-95996057D01*
X94691559Y-95991035D01*
X94807998Y-95608494D01*
X94809718Y-95603597D01*
X94957999Y-95232235D01*
X94960131Y-95227491D01*
X94965771Y-95216230D01*
X95139182Y-94869987D01*
X95141717Y-94865419D01*
X95141720Y-94865415D01*
X95338402Y-94543708D01*
X95350271Y-94524295D01*
X95353178Y-94519960D01*
X95589774Y-94197607D01*
X95593003Y-94193575D01*
X95856895Y-93891222D01*
X95858635Y-93889313D01*
X95894507Y-93851555D01*
X95894510Y-93851549D01*
X96458914Y-93257463D01*
X97633133Y-91965392D01*
X98778460Y-90647643D01*
X99894335Y-89304862D01*
X100980210Y-87937707D01*
X102035553Y-86546848D01*
X103059847Y-85132967D01*
X104052589Y-83696757D01*
X105013294Y-82238921D01*
X105941490Y-80760175D01*
X106836722Y-79261243D01*
X107698551Y-77742860D01*
X108526556Y-76205770D01*
X109320330Y-74650726D01*
X110079484Y-73078491D01*
X110803646Y-71489836D01*
X111492461Y-69885538D01*
X112145592Y-68266385D01*
X112762718Y-66633169D01*
X112984422Y-66004694D01*
X113343530Y-64986713D01*
X113404438Y-64801051D01*
X113887764Y-63327760D01*
X114395133Y-61657187D01*
X114865394Y-59975791D01*
X115071309Y-59171300D01*
X115298300Y-58284471D01*
X115298309Y-58284430D01*
X115298318Y-58284397D01*
X115469460Y-57548289D01*
X119107700Y-57548289D01*
X119146890Y-57808303D01*
X119146892Y-57808309D01*
X119224402Y-58059588D01*
X119338495Y-58296505D01*
X119338497Y-58296507D01*
X119338498Y-58296510D01*
X119486630Y-58513780D01*
X119665490Y-58706546D01*
X119871083Y-58870501D01*
X120098816Y-59001983D01*
X120343602Y-59098054D01*
X120599972Y-59156569D01*
X120599978Y-59156569D01*
X120599981Y-59156570D01*
X120796524Y-59171299D01*
X120796543Y-59171299D01*
X120796546Y-59171300D01*
X120796548Y-59171300D01*
X120927852Y-59171300D01*
X120927854Y-59171300D01*
X120927856Y-59171299D01*
X120927875Y-59171299D01*
X121124418Y-59156570D01*
X121124420Y-59156569D01*
X121124428Y-59156569D01*
X121380798Y-59098054D01*
X121625584Y-59001983D01*
X121853317Y-58870501D01*
X122058910Y-58706546D01*
X122237770Y-58513780D01*
X122385902Y-58296510D01*
X122499998Y-58059588D01*
X122577508Y-57808308D01*
X122616700Y-57548282D01*
X122616700Y-57285318D01*
X122616699Y-57285310D01*
X122577509Y-57025296D01*
X122577507Y-57025290D01*
X122499998Y-56774012D01*
X122385902Y-56537090D01*
X122237770Y-56319820D01*
X122058910Y-56127054D01*
X121853317Y-55963099D01*
X121625584Y-55831617D01*
X121380798Y-55735546D01*
X121380793Y-55735544D01*
X121380784Y-55735542D01*
X121162701Y-55685766D01*
X121124428Y-55677031D01*
X121124427Y-55677030D01*
X121124423Y-55677030D01*
X121124418Y-55677029D01*
X120927875Y-55662300D01*
X120927854Y-55662300D01*
X120796546Y-55662300D01*
X120796524Y-55662300D01*
X120599981Y-55677029D01*
X120599976Y-55677030D01*
X120343615Y-55735542D01*
X120343596Y-55735548D01*
X120098815Y-55831617D01*
X119871083Y-55963099D01*
X119665490Y-56127054D01*
X119665488Y-56127056D01*
X119486630Y-56319819D01*
X119338495Y-56537094D01*
X119224402Y-56774011D01*
X119146892Y-57025290D01*
X119146890Y-57025296D01*
X119107700Y-57285310D01*
X119107700Y-57548289D01*
X115469460Y-57548289D01*
X115693692Y-56583833D01*
X116051322Y-54874934D01*
X116371033Y-53158535D01*
X116652669Y-51435480D01*
X116896090Y-49706613D01*
X117101179Y-47972780D01*
X117229519Y-46634400D01*
X117979652Y-46634400D01*
X117992691Y-46874900D01*
X117999028Y-46991768D01*
X117999029Y-46991785D01*
X118056926Y-47344939D01*
X118056932Y-47344965D01*
X118152672Y-47689792D01*
X118152674Y-47689799D01*
X118285142Y-48022270D01*
X118285151Y-48022288D01*
X118452784Y-48338477D01*
X118452787Y-48338482D01*
X118452789Y-48338485D01*
X118571165Y-48513077D01*
X118653634Y-48634709D01*
X118653641Y-48634719D01*
X118873422Y-48893465D01*
X118885332Y-48907486D01*
X119145163Y-49153611D01*
X119430081Y-49370200D01*
X119736747Y-49554715D01*
X119736749Y-49554716D01*
X119736751Y-49554717D01*
X119736755Y-49554719D01*
X119872518Y-49617529D01*
X120061565Y-49704991D01*
X120400726Y-49819268D01*
X120631894Y-49870152D01*
X120693135Y-49903788D01*
X120726469Y-49965193D01*
X120721313Y-50034872D01*
X120679304Y-50090703D01*
X120659039Y-50102973D01*
X120484574Y-50186990D01*
X120484572Y-50186991D01*
X120273982Y-50330568D01*
X120087152Y-50503921D01*
X120087150Y-50503923D01*
X119928241Y-50703188D01*
X119800808Y-50923909D01*
X119707692Y-51161162D01*
X119707690Y-51161169D01*
X119650977Y-51409645D01*
X119631932Y-51663795D01*
X119631932Y-51663804D01*
X119650977Y-51917954D01*
X119705178Y-52155425D01*
X119707692Y-52166437D01*
X119800807Y-52403688D01*
X119928241Y-52624412D01*
X120087150Y-52823677D01*
X120273983Y-52997032D01*
X120484566Y-53140605D01*
X120484571Y-53140607D01*
X120484572Y-53140608D01*
X120484573Y-53140609D01*
X120532174Y-53163532D01*
X120714192Y-53251187D01*
X120714193Y-53251187D01*
X120714196Y-53251189D01*
X120957742Y-53326313D01*
X121209765Y-53364300D01*
X121464635Y-53364300D01*
X121716658Y-53326313D01*
X121960204Y-53251189D01*
X122189834Y-53140605D01*
X122400417Y-52997032D01*
X122587250Y-52823677D01*
X122746159Y-52624412D01*
X122873593Y-52403688D01*
X122966708Y-52166437D01*
X123023422Y-51917957D01*
X123034302Y-51772772D01*
X123042468Y-51663804D01*
X123042468Y-51663795D01*
X123025558Y-51438144D01*
X123023422Y-51409643D01*
X122966708Y-51161163D01*
X122873593Y-50923912D01*
X122746159Y-50703188D01*
X122587250Y-50503923D01*
X122400417Y-50330568D01*
X122189834Y-50186995D01*
X122189831Y-50186994D01*
X122189829Y-50186992D01*
X121982610Y-50087201D01*
X121930751Y-50040379D01*
X121912438Y-49972951D01*
X121933486Y-49906328D01*
X121987212Y-49861659D01*
X122009750Y-49854381D01*
X122169274Y-49819268D01*
X122508435Y-49704991D01*
X122833253Y-49554715D01*
X123139919Y-49370200D01*
X123424837Y-49153611D01*
X123684668Y-48907486D01*
X123916365Y-48634711D01*
X124117211Y-48338485D01*
X124284853Y-48022280D01*
X124417324Y-47689803D01*
X124513071Y-47344952D01*
X124559703Y-47060508D01*
X124570970Y-46991785D01*
X124570970Y-46991782D01*
X124570972Y-46991771D01*
X124590348Y-46634400D01*
X124589779Y-46623914D01*
X124580654Y-46455612D01*
X124570972Y-46277029D01*
X124570387Y-46273462D01*
X124513073Y-45923860D01*
X124513072Y-45923859D01*
X124513071Y-45923848D01*
X124447687Y-45688355D01*
X124417327Y-45579007D01*
X124417325Y-45579000D01*
X124411707Y-45564901D01*
X124347606Y-45404019D01*
X124284857Y-45246529D01*
X124284848Y-45246511D01*
X124275682Y-45229223D01*
X124153093Y-44997995D01*
X124117215Y-44930322D01*
X124117213Y-44930319D01*
X124117211Y-44930315D01*
X123916365Y-44634089D01*
X123916361Y-44634084D01*
X123916358Y-44634080D01*
X123684668Y-44361314D01*
X123635100Y-44314361D01*
X123424837Y-44115189D01*
X123424830Y-44115183D01*
X123424827Y-44115181D01*
X123357245Y-44063807D01*
X123139919Y-43898600D01*
X122833253Y-43714085D01*
X122833252Y-43714084D01*
X122833248Y-43714082D01*
X122833244Y-43714080D01*
X122508447Y-43563814D01*
X122508441Y-43563811D01*
X122508435Y-43563809D01*
X122320040Y-43500331D01*
X122169273Y-43449531D01*
X121819744Y-43372594D01*
X121463949Y-43333900D01*
X121463948Y-43333900D01*
X121106052Y-43333900D01*
X121106050Y-43333900D01*
X120750255Y-43372594D01*
X120400726Y-43449531D01*
X120144970Y-43535706D01*
X120061565Y-43563809D01*
X120061562Y-43563810D01*
X120061563Y-43563810D01*
X120061552Y-43563814D01*
X119736755Y-43714080D01*
X119736751Y-43714082D01*
X119508367Y-43851496D01*
X119430081Y-43898600D01*
X119382166Y-43935024D01*
X119145172Y-44115181D01*
X119145163Y-44115189D01*
X118885331Y-44361314D01*
X118653641Y-44634080D01*
X118653634Y-44634090D01*
X118452790Y-44930313D01*
X118452784Y-44930322D01*
X118285151Y-45246511D01*
X118285142Y-45246529D01*
X118152674Y-45579000D01*
X118152672Y-45579007D01*
X118056932Y-45923834D01*
X118056926Y-45923860D01*
X117999029Y-46277014D01*
X117999028Y-46277031D01*
X117980221Y-46623914D01*
X117979652Y-46634400D01*
X117229519Y-46634400D01*
X117267834Y-46234832D01*
X117298140Y-45823064D01*
X117331794Y-45365822D01*
X117332106Y-45362681D01*
X117354639Y-45183365D01*
X117355754Y-45177111D01*
X117396255Y-45002651D01*
X117398013Y-44996532D01*
X117456245Y-44827189D01*
X117458633Y-44821260D01*
X117533987Y-44658808D01*
X117536782Y-44653475D01*
X117733448Y-44319111D01*
X117736536Y-44314373D01*
X117757959Y-44284572D01*
X117894249Y-44094975D01*
X117962961Y-43999388D01*
X117966476Y-43994942D01*
X118220763Y-43701974D01*
X118224657Y-43697883D01*
X118504673Y-43429394D01*
X118508907Y-43425690D01*
X118812326Y-43183914D01*
X118816891Y-43180607D01*
X119141136Y-42967599D01*
X119145964Y-42964734D01*
X119488341Y-42782265D01*
X119493441Y-42779840D01*
X119851038Y-42629459D01*
X119856349Y-42627507D01*
X120226194Y-42510458D01*
X120231662Y-42508999D01*
X120610663Y-42426262D01*
X120616244Y-42425309D01*
X120984411Y-42379662D01*
X121001220Y-42377578D01*
X121006870Y-42377138D01*
X121394614Y-42364812D01*
X121400245Y-42364891D01*
X121787492Y-42388074D01*
X121793121Y-42388672D01*
X121877279Y-42401509D01*
X122176601Y-42447167D01*
X122182154Y-42448276D01*
X122363743Y-42493282D01*
X122558688Y-42541598D01*
X122564105Y-42543206D01*
X122930548Y-42670576D01*
X122935787Y-42672671D01*
X123289039Y-42833015D01*
X123294075Y-42835586D01*
X123631171Y-43027555D01*
X123635970Y-43030587D01*
X123954091Y-43252573D01*
X123958586Y-43256027D01*
X124187936Y-43449531D01*
X124255062Y-43506165D01*
X124259228Y-43510019D01*
X124531606Y-43786239D01*
X124535381Y-43790434D01*
X124781364Y-44090413D01*
X124784753Y-44094956D01*
X124913157Y-44284572D01*
X124999525Y-44412114D01*
X125002261Y-44416153D01*
X125005226Y-44420996D01*
X125192448Y-44760739D01*
X125194956Y-44765829D01*
X125350324Y-45121264D01*
X125352352Y-45126549D01*
X125468445Y-45476268D01*
X125474567Y-45494710D01*
X125476107Y-45500176D01*
X125564143Y-45877970D01*
X125565177Y-45883554D01*
X125586924Y-46040868D01*
X125613734Y-46234815D01*
X125618295Y-46267805D01*
X125618814Y-46273460D01*
X125636635Y-46662405D01*
X125636700Y-46665244D01*
X125636700Y-46874900D01*
X125673350Y-47282116D01*
X125674547Y-47295406D01*
X125749933Y-47710821D01*
X125862249Y-48117787D01*
X125862252Y-48117795D01*
X125862253Y-48117799D01*
X126010603Y-48513076D01*
X126010605Y-48513081D01*
X126010610Y-48513093D01*
X126193778Y-48893447D01*
X126193781Y-48893451D01*
X126193788Y-48893465D01*
X126410334Y-49255901D01*
X126410337Y-49255905D01*
X126410340Y-49255910D01*
X126658488Y-49597456D01*
X126658510Y-49597484D01*
X126936268Y-49915403D01*
X126936278Y-49915414D01*
X127241442Y-50207180D01*
X127241446Y-50207183D01*
X127241448Y-50207185D01*
X127571534Y-50470421D01*
X127571535Y-50470422D01*
X127750229Y-50588375D01*
X127923887Y-50703006D01*
X128271553Y-50890093D01*
X128295676Y-50903074D01*
X128295684Y-50903078D01*
X128538313Y-51006782D01*
X128683898Y-51069008D01*
X129085433Y-51199475D01*
X129497047Y-51293423D01*
X129915426Y-51350096D01*
X130231756Y-51364302D01*
X130337197Y-51369038D01*
X130337200Y-51369038D01*
X130337203Y-51369038D01*
X130434532Y-51364666D01*
X130758974Y-51350096D01*
X131177353Y-51293423D01*
X131588967Y-51199475D01*
X131990502Y-51069008D01*
X132349886Y-50915400D01*
X132378715Y-50903078D01*
X132378719Y-50903075D01*
X132378726Y-50903073D01*
X132750513Y-50703006D01*
X133102870Y-50470418D01*
X133432958Y-50207180D01*
X133738122Y-49915414D01*
X134015903Y-49597468D01*
X134264066Y-49255901D01*
X134480612Y-48893465D01*
X134529190Y-48792593D01*
X134663789Y-48513093D01*
X134663789Y-48513091D01*
X134663797Y-48513076D01*
X134812147Y-48117799D01*
X134901169Y-47795234D01*
X134937979Y-47735849D01*
X135001052Y-47705790D01*
X135070364Y-47714604D01*
X135123907Y-47759491D01*
X135144683Y-47826200D01*
X135144700Y-47828224D01*
X135144700Y-49713270D01*
X135144701Y-49713276D01*
X135151108Y-49772883D01*
X135201402Y-49907728D01*
X135201406Y-49907735D01*
X135287652Y-50022944D01*
X135287655Y-50022947D01*
X135402864Y-50109193D01*
X135402871Y-50109197D01*
X135537717Y-50159491D01*
X135537716Y-50159491D01*
X135544644Y-50160235D01*
X135597327Y-50165900D01*
X138373072Y-50165899D01*
X138432683Y-50159491D01*
X138567531Y-50109196D01*
X138682746Y-50022946D01*
X138768996Y-49907731D01*
X138819291Y-49772883D01*
X138825700Y-49713273D01*
X138825699Y-46017528D01*
X138819291Y-45957917D01*
X138791555Y-45883554D01*
X138768997Y-45823071D01*
X138768993Y-45823064D01*
X138682747Y-45707855D01*
X138682744Y-45707852D01*
X138567535Y-45621606D01*
X138567528Y-45621602D01*
X138432682Y-45571308D01*
X138432683Y-45571308D01*
X138373083Y-45564901D01*
X138373081Y-45564900D01*
X138373073Y-45564900D01*
X138373064Y-45564900D01*
X135597329Y-45564900D01*
X135597323Y-45564901D01*
X135537716Y-45571308D01*
X135402871Y-45621602D01*
X135402864Y-45621606D01*
X135287655Y-45707852D01*
X135260966Y-45743504D01*
X135205031Y-45785375D01*
X135135340Y-45790358D01*
X135074017Y-45756872D01*
X135040533Y-45695548D01*
X135037700Y-45669192D01*
X135037700Y-43166848D01*
X135037999Y-43160768D01*
X135050818Y-43030604D01*
X135051865Y-43019973D01*
X135056603Y-42996149D01*
X135095016Y-42869519D01*
X135104313Y-42847078D01*
X135166685Y-42730387D01*
X135180182Y-42710187D01*
X135264124Y-42607903D01*
X135281303Y-42590724D01*
X135383587Y-42506782D01*
X135403787Y-42493285D01*
X135520478Y-42430913D01*
X135542919Y-42421616D01*
X135669549Y-42383203D01*
X135693373Y-42378465D01*
X135787158Y-42369228D01*
X135834168Y-42364599D01*
X135840248Y-42364300D01*
X135877082Y-42364300D01*
X144314610Y-42364300D01*
X152797318Y-42364300D01*
X152834152Y-42364300D01*
X152840232Y-42364599D01*
G37*
G04 #@! TD.AperFunction*
G04 #@! TA.AperFunction,Conductor*
G36*
X127241034Y-81619669D02*
G01*
X127296967Y-81661541D01*
X127321384Y-81727005D01*
X127321700Y-81735851D01*
X127321700Y-83394670D01*
X127321701Y-83394676D01*
X127328108Y-83454283D01*
X127378402Y-83589128D01*
X127378406Y-83589135D01*
X127464652Y-83704344D01*
X127464655Y-83704347D01*
X127579864Y-83790593D01*
X127579871Y-83790597D01*
X127714717Y-83840891D01*
X127714716Y-83840891D01*
X127721644Y-83841635D01*
X127774327Y-83847300D01*
X129870072Y-83847299D01*
X129929683Y-83840891D01*
X130064531Y-83790596D01*
X130179746Y-83704346D01*
X130265996Y-83589131D01*
X130265997Y-83589126D01*
X130270247Y-83581346D01*
X130273335Y-83583032D01*
X130305073Y-83540590D01*
X130370524Y-83516139D01*
X130438805Y-83530955D01*
X130455598Y-83541965D01*
X130538968Y-83606855D01*
X130538971Y-83606857D01*
X130757585Y-83725164D01*
X130757596Y-83725169D01*
X130992706Y-83805883D01*
X131237907Y-83846800D01*
X131486493Y-83846800D01*
X131731693Y-83805883D01*
X131966803Y-83725169D01*
X131966814Y-83725164D01*
X132185428Y-83606857D01*
X132185431Y-83606855D01*
X132232256Y-83570409D01*
X131503565Y-82841718D01*
X131507361Y-82841173D01*
X131640762Y-82780251D01*
X131751595Y-82684213D01*
X131830882Y-82560840D01*
X131853332Y-82484380D01*
X132585634Y-83216682D01*
X132597061Y-83215497D01*
X132665773Y-83228160D01*
X132710292Y-83267994D01*
X132710883Y-83267535D01*
X132713418Y-83270792D01*
X132713656Y-83271005D01*
X132714031Y-83271580D01*
X132714036Y-83271585D01*
X132882456Y-83454538D01*
X133078691Y-83607274D01*
X133078693Y-83607275D01*
X133296532Y-83725164D01*
X133297390Y-83725628D01*
X133486626Y-83790593D01*
X133531164Y-83805883D01*
X133532586Y-83806371D01*
X133777865Y-83847300D01*
X134026535Y-83847300D01*
X134271814Y-83806371D01*
X134507010Y-83725628D01*
X134725709Y-83607274D01*
X134921944Y-83454538D01*
X135080971Y-83281788D01*
X135140857Y-83245799D01*
X135210695Y-83247899D01*
X135263428Y-83281788D01*
X135422456Y-83454538D01*
X135618691Y-83607274D01*
X135618693Y-83607275D01*
X135836532Y-83725164D01*
X135837390Y-83725628D01*
X136026626Y-83790593D01*
X136071164Y-83805883D01*
X136072586Y-83806371D01*
X136317865Y-83847300D01*
X136566535Y-83847300D01*
X136811814Y-83806371D01*
X137047010Y-83725628D01*
X137265709Y-83607274D01*
X137461944Y-83454538D01*
X137620971Y-83281788D01*
X137680857Y-83245799D01*
X137750695Y-83247899D01*
X137803428Y-83281788D01*
X137962456Y-83454538D01*
X138158691Y-83607274D01*
X138158693Y-83607275D01*
X138376532Y-83725164D01*
X138377390Y-83725628D01*
X138566626Y-83790593D01*
X138611164Y-83805883D01*
X138612586Y-83806371D01*
X138857865Y-83847300D01*
X139106535Y-83847300D01*
X139351814Y-83806371D01*
X139431487Y-83779018D01*
X139501282Y-83775868D01*
X139559429Y-83808619D01*
X141326194Y-85575384D01*
X141336019Y-85587648D01*
X141336240Y-85587466D01*
X141341210Y-85593474D01*
X141390949Y-85640182D01*
X141392316Y-85641506D01*
X141412530Y-85661720D01*
X141418004Y-85665966D01*
X141422442Y-85669756D01*
X141456418Y-85701662D01*
X141456422Y-85701664D01*
X141473973Y-85711313D01*
X141490231Y-85721992D01*
X141506064Y-85734274D01*
X141528015Y-85743772D01*
X141548837Y-85752783D01*
X141554081Y-85755352D01*
X141594908Y-85777797D01*
X141614312Y-85782779D01*
X141632710Y-85789078D01*
X141651105Y-85797038D01*
X141697129Y-85804326D01*
X141702832Y-85805507D01*
X141747981Y-85817100D01*
X141768016Y-85817100D01*
X141787413Y-85818626D01*
X141807196Y-85821760D01*
X141853583Y-85817375D01*
X141859422Y-85817100D01*
X148431948Y-85817100D01*
X148498987Y-85836785D01*
X148519629Y-85853419D01*
X152759743Y-90093533D01*
X152793228Y-90154856D01*
X152788244Y-90224548D01*
X152746372Y-90280481D01*
X152680908Y-90304898D01*
X152612635Y-90290046D01*
X152599721Y-90281925D01*
X152086087Y-89912982D01*
X151461357Y-89513661D01*
X150990249Y-89247309D01*
X150815902Y-89148738D01*
X150151652Y-88819300D01*
X149770603Y-88655384D01*
X149470544Y-88526307D01*
X148774567Y-88270619D01*
X148744972Y-88261532D01*
X148663461Y-88236504D01*
X148065785Y-88052988D01*
X148065775Y-88052985D01*
X148065767Y-88052983D01*
X147346226Y-87874042D01*
X147346222Y-87874041D01*
X147346203Y-87874037D01*
X146618069Y-87734320D01*
X145883394Y-87634222D01*
X145883375Y-87634220D01*
X145144373Y-87574045D01*
X145144381Y-87574045D01*
X144403188Y-87553967D01*
X143661998Y-87574045D01*
X142923000Y-87634220D01*
X142922981Y-87634222D01*
X142188306Y-87734320D01*
X141460172Y-87874037D01*
X141460154Y-87874041D01*
X141460149Y-87874042D01*
X141460150Y-87874042D01*
X140740609Y-88052983D01*
X140740604Y-88052984D01*
X140740590Y-88052988D01*
X140031808Y-88270619D01*
X139335832Y-88526307D01*
X139335831Y-88526307D01*
X138792855Y-88759880D01*
X138654724Y-88819300D01*
X138654712Y-88819305D01*
X138654701Y-88819311D01*
X137990493Y-89148728D01*
X137990468Y-89148741D01*
X137345018Y-89513661D01*
X136720288Y-89912982D01*
X136118112Y-90345525D01*
X136118092Y-90345539D01*
X135540204Y-90810058D01*
X135540187Y-90810072D01*
X134988271Y-91305219D01*
X134464007Y-91829483D01*
X133968860Y-92381399D01*
X133968846Y-92381416D01*
X133504327Y-92959304D01*
X133504313Y-92959324D01*
X133071770Y-93561500D01*
X132672449Y-94186230D01*
X132307529Y-94831680D01*
X132307516Y-94831705D01*
X131978099Y-95495913D01*
X131978082Y-95495950D01*
X131685095Y-96177043D01*
X131685095Y-96177044D01*
X131429407Y-96873020D01*
X131211776Y-97581802D01*
X131211772Y-97581816D01*
X131211771Y-97581821D01*
X131120259Y-97949801D01*
X131032829Y-98301366D01*
X131032825Y-98301384D01*
X130893108Y-99029518D01*
X130793010Y-99764193D01*
X130793008Y-99764212D01*
X130732833Y-100503210D01*
X130712755Y-101244400D01*
X130732833Y-101985589D01*
X130793008Y-102724587D01*
X130793010Y-102724606D01*
X130893108Y-103459281D01*
X131032825Y-104187415D01*
X131032829Y-104187433D01*
X131032830Y-104187438D01*
X131211771Y-104906979D01*
X131211773Y-104906987D01*
X131211776Y-104906997D01*
X131429407Y-105615779D01*
X131685095Y-106311755D01*
X131685095Y-106311756D01*
X131865067Y-106730130D01*
X131978088Y-106992864D01*
X131978099Y-106992886D01*
X132307516Y-107657094D01*
X132307529Y-107657119D01*
X132672449Y-108302569D01*
X133071770Y-108927299D01*
X133504313Y-109529475D01*
X133504327Y-109529495D01*
X133968846Y-110107383D01*
X133968859Y-110107399D01*
X134398418Y-110586208D01*
X134464007Y-110659316D01*
X134988271Y-111183580D01*
X134988280Y-111183588D01*
X134988285Y-111183593D01*
X135540189Y-111678729D01*
X136118091Y-112143259D01*
X136218879Y-112215655D01*
X136706668Y-112566034D01*
X136720294Y-112575821D01*
X136761457Y-112602132D01*
X137345018Y-112975138D01*
X137345030Y-112975145D01*
X137345032Y-112975146D01*
X137990474Y-113340062D01*
X138654724Y-113669500D01*
X139335836Y-113962494D01*
X140031812Y-114218182D01*
X140740609Y-114435817D01*
X141460150Y-114614758D01*
X142188322Y-114754482D01*
X142922992Y-114854579D01*
X143662003Y-114914755D01*
X144403188Y-114934833D01*
X145144373Y-114914755D01*
X145883384Y-114854579D01*
X146618054Y-114754482D01*
X147346226Y-114614758D01*
X148065767Y-114435817D01*
X148774564Y-114218182D01*
X149470540Y-113962494D01*
X150151652Y-113669500D01*
X150815902Y-113340062D01*
X150884800Y-113301109D01*
X154480479Y-113301109D01*
X154510168Y-113570935D01*
X154510170Y-113570948D01*
X154562252Y-113770167D01*
X154578832Y-113833584D01*
X154685003Y-114083424D01*
X154747406Y-114185676D01*
X154826416Y-114315140D01*
X154826417Y-114315142D01*
X154826419Y-114315144D01*
X155000068Y-114523804D01*
X155202246Y-114704957D01*
X155428647Y-114854742D01*
X155674443Y-114969967D01*
X155934397Y-115048175D01*
X156202968Y-115087700D01*
X156202973Y-115087700D01*
X156406479Y-115087700D01*
X156406481Y-115087700D01*
X156406486Y-115087699D01*
X156406498Y-115087699D01*
X156444124Y-115084944D01*
X156609440Y-115072845D01*
X156720188Y-115048175D01*
X156874402Y-115013823D01*
X156874404Y-115013822D01*
X156874409Y-115013821D01*
X157127961Y-114916846D01*
X157364691Y-114783986D01*
X157579553Y-114618075D01*
X157767969Y-114422647D01*
X157925923Y-114201868D01*
X158050048Y-113960444D01*
X158114961Y-113770167D01*
X158137694Y-113703533D01*
X158137694Y-113703529D01*
X158137698Y-113703520D01*
X158187006Y-113436571D01*
X158196920Y-113165289D01*
X158167230Y-112895453D01*
X158098568Y-112632816D01*
X157992397Y-112382976D01*
X157850981Y-112151256D01*
X157677332Y-111942596D01*
X157475154Y-111761443D01*
X157355697Y-111682411D01*
X157248755Y-111611659D01*
X157248753Y-111611658D01*
X157002957Y-111496433D01*
X156743003Y-111418225D01*
X156743001Y-111418224D01*
X156742999Y-111418224D01*
X156646699Y-111404052D01*
X156474432Y-111378700D01*
X156270919Y-111378700D01*
X156270901Y-111378700D01*
X156067960Y-111393555D01*
X156067946Y-111393557D01*
X155802997Y-111452576D01*
X155802990Y-111452579D01*
X155549436Y-111549555D01*
X155312712Y-111682411D01*
X155097840Y-111848330D01*
X155097839Y-111848332D01*
X154909434Y-112043749D01*
X154909432Y-112043751D01*
X154751478Y-112264529D01*
X154627356Y-112505946D01*
X154627349Y-112505962D01*
X154539705Y-112762866D01*
X154539701Y-112762884D01*
X154490393Y-113029831D01*
X154490393Y-113029833D01*
X154480479Y-113301109D01*
X150884800Y-113301109D01*
X151461344Y-112975146D01*
X151476065Y-112965737D01*
X151788775Y-112765856D01*
X152086082Y-112575821D01*
X152688285Y-112143259D01*
X153266187Y-111678729D01*
X153818091Y-111183593D01*
X154342381Y-110659303D01*
X154837517Y-110107399D01*
X155302047Y-109529497D01*
X155734609Y-108927294D01*
X156133934Y-108302556D01*
X156498850Y-107657114D01*
X156828288Y-106992864D01*
X157121282Y-106311752D01*
X157376970Y-105615776D01*
X157594605Y-104906979D01*
X157773546Y-104187438D01*
X157913270Y-103459266D01*
X158013367Y-102724596D01*
X158073543Y-101985585D01*
X158093621Y-101244400D01*
X158073543Y-100503215D01*
X158013367Y-99764204D01*
X157913270Y-99029534D01*
X157899310Y-98956784D01*
X157864741Y-98776626D01*
X157773546Y-98301362D01*
X157594605Y-97581821D01*
X157376970Y-96873024D01*
X157121282Y-96177048D01*
X157103491Y-96135691D01*
X157041252Y-95991005D01*
X156828288Y-95495936D01*
X156498850Y-94831686D01*
X156133934Y-94186244D01*
X156133933Y-94186242D01*
X156133926Y-94186230D01*
X155793730Y-93654001D01*
X155734609Y-93561506D01*
X155734605Y-93561500D01*
X155365662Y-93047865D01*
X155342539Y-92981932D01*
X155358732Y-92913965D01*
X155409101Y-92865542D01*
X155477653Y-92852038D01*
X155542624Y-92877740D01*
X155554054Y-92887843D01*
X161186981Y-98520770D01*
X161220466Y-98582093D01*
X161223300Y-98608451D01*
X161223300Y-112215655D01*
X161221575Y-112231272D01*
X161221861Y-112231299D01*
X161221126Y-112239066D01*
X161223269Y-112307246D01*
X161223300Y-112309193D01*
X161223300Y-112337743D01*
X161223301Y-112337760D01*
X161224168Y-112344631D01*
X161224626Y-112350450D01*
X161226090Y-112397024D01*
X161226091Y-112397027D01*
X161231680Y-112416267D01*
X161235624Y-112435311D01*
X161238136Y-112455191D01*
X161255290Y-112498519D01*
X161257182Y-112504047D01*
X161270181Y-112548788D01*
X161280380Y-112566034D01*
X161288938Y-112583503D01*
X161296314Y-112602132D01*
X161323698Y-112639823D01*
X161326906Y-112644707D01*
X161350627Y-112684816D01*
X161350633Y-112684824D01*
X161364790Y-112698980D01*
X161377428Y-112713776D01*
X161389205Y-112729986D01*
X161389206Y-112729987D01*
X161425109Y-112759688D01*
X161429420Y-112763610D01*
X161631539Y-112965729D01*
X161803095Y-113137285D01*
X161836580Y-113198608D01*
X161834493Y-113259551D01*
X161832904Y-113265020D01*
X161832901Y-113265036D01*
X161830000Y-113301898D01*
X161830000Y-113733301D01*
X161832901Y-113770167D01*
X161832902Y-113770173D01*
X161878754Y-113927993D01*
X161878755Y-113927996D01*
X161878756Y-113927998D01*
X161897950Y-113960453D01*
X161962417Y-114069462D01*
X161962423Y-114069470D01*
X162078629Y-114185676D01*
X162078633Y-114185679D01*
X162078635Y-114185681D01*
X162220102Y-114269344D01*
X162261724Y-114281436D01*
X162377926Y-114315197D01*
X162377929Y-114315197D01*
X162377931Y-114315198D01*
X162414806Y-114318100D01*
X163581000Y-114318100D01*
X163648039Y-114337785D01*
X163693794Y-114390589D01*
X163705000Y-114442100D01*
X163705000Y-114493600D01*
X163685315Y-114560639D01*
X163632511Y-114606394D01*
X163581000Y-114617600D01*
X163318000Y-114617600D01*
X163318000Y-115167600D01*
X163973685Y-115167600D01*
X164036806Y-115184868D01*
X164095102Y-115219344D01*
X164136724Y-115231436D01*
X164252926Y-115265197D01*
X164252929Y-115265197D01*
X164252931Y-115265198D01*
X164289806Y-115268100D01*
X164302838Y-115268100D01*
X164369877Y-115287785D01*
X164373663Y-115290317D01*
X164377531Y-115293009D01*
X164454949Y-115346894D01*
X164454950Y-115346894D01*
X164454951Y-115346895D01*
X164641942Y-115427140D01*
X164841259Y-115468100D01*
X171319707Y-115468100D01*
X171321269Y-115468119D01*
X171358483Y-115469062D01*
X171409558Y-115470357D01*
X171409558Y-115470356D01*
X171409563Y-115470357D01*
X171469953Y-115459532D01*
X171474612Y-115458880D01*
X171516807Y-115454588D01*
X171535638Y-115452674D01*
X171568427Y-115442386D01*
X171576040Y-115440518D01*
X171609853Y-115434458D01*
X171666821Y-115411701D01*
X171671253Y-115410124D01*
X171729788Y-115391759D01*
X171759827Y-115375084D01*
X171766908Y-115371722D01*
X171798817Y-115358977D01*
X171850054Y-115325208D01*
X171854051Y-115322787D01*
X171907702Y-115293009D01*
X171933768Y-115270630D01*
X171940043Y-115265900D01*
X171941110Y-115265197D01*
X171968719Y-115247002D01*
X172012117Y-115203602D01*
X172015536Y-115200434D01*
X172062095Y-115160466D01*
X172083131Y-115133288D01*
X172088301Y-115127418D01*
X176466001Y-110749718D01*
X176467014Y-110748731D01*
X176531053Y-110687859D01*
X176566097Y-110637509D01*
X176568924Y-110633757D01*
X176607698Y-110586207D01*
X176623607Y-110555748D01*
X176627667Y-110549048D01*
X176647295Y-110520849D01*
X176671492Y-110464460D01*
X176673498Y-110460235D01*
X176701909Y-110405849D01*
X176711357Y-110372822D01*
X176713988Y-110365433D01*
X176727540Y-110333858D01*
X176739895Y-110273730D01*
X176740999Y-110269229D01*
X176757886Y-110210218D01*
X176760494Y-110175957D01*
X176761585Y-110168189D01*
X176768500Y-110134543D01*
X176768500Y-110073198D01*
X176768679Y-110068488D01*
X176773337Y-110007324D01*
X176768997Y-109973242D01*
X176768500Y-109965403D01*
X176768500Y-99178741D01*
X176788185Y-99111702D01*
X176840989Y-99065947D01*
X176849149Y-99062566D01*
X176860331Y-99058396D01*
X176872179Y-99049527D01*
X176903727Y-99025910D01*
X176975546Y-98972146D01*
X177061796Y-98856931D01*
X177067318Y-98842125D01*
X177109188Y-98786193D01*
X177174652Y-98761775D01*
X177242925Y-98776626D01*
X177292331Y-98826030D01*
X177307500Y-98885459D01*
X177307500Y-119652500D01*
X177287815Y-119719539D01*
X177235011Y-119765294D01*
X177183500Y-119776500D01*
X130208982Y-119776500D01*
X130141943Y-119756815D01*
X130121301Y-119740181D01*
X128163819Y-117782699D01*
X128130334Y-117721376D01*
X128127500Y-117695018D01*
X128127500Y-115667601D01*
X161833204Y-115667601D01*
X161833399Y-115670086D01*
X161879218Y-115827798D01*
X161962814Y-115969152D01*
X161962821Y-115969161D01*
X162078938Y-116085278D01*
X162078947Y-116085285D01*
X162220303Y-116168882D01*
X162220306Y-116168883D01*
X162378004Y-116214699D01*
X162378010Y-116214700D01*
X162414850Y-116217599D01*
X162414866Y-116217600D01*
X162818000Y-116217600D01*
X162818000Y-115667600D01*
X163318000Y-115667600D01*
X163318000Y-116217600D01*
X163721134Y-116217600D01*
X163721149Y-116217599D01*
X163757989Y-116214700D01*
X163757995Y-116214699D01*
X163915693Y-116168883D01*
X163915696Y-116168882D01*
X164057052Y-116085285D01*
X164057061Y-116085278D01*
X164173178Y-115969161D01*
X164173185Y-115969152D01*
X164256781Y-115827798D01*
X164302600Y-115670086D01*
X164302795Y-115667601D01*
X164302795Y-115667600D01*
X163318000Y-115667600D01*
X162818000Y-115667600D01*
X161833205Y-115667600D01*
X161833204Y-115667601D01*
X128127500Y-115667601D01*
X128127500Y-115167598D01*
X161833204Y-115167598D01*
X161833205Y-115167600D01*
X162818000Y-115167600D01*
X162818000Y-114617600D01*
X162414850Y-114617600D01*
X162378010Y-114620499D01*
X162378004Y-114620500D01*
X162220306Y-114666316D01*
X162220303Y-114666317D01*
X162078947Y-114749914D01*
X162078938Y-114749921D01*
X161962821Y-114866038D01*
X161962814Y-114866047D01*
X161879218Y-115007401D01*
X161833399Y-115165113D01*
X161833204Y-115167598D01*
X128127500Y-115167598D01*
X128127500Y-113301109D01*
X130477479Y-113301109D01*
X130507168Y-113570935D01*
X130507170Y-113570948D01*
X130559252Y-113770167D01*
X130575832Y-113833584D01*
X130682003Y-114083424D01*
X130744406Y-114185676D01*
X130823416Y-114315140D01*
X130823417Y-114315142D01*
X130823419Y-114315144D01*
X130997068Y-114523804D01*
X131199246Y-114704957D01*
X131425647Y-114854742D01*
X131671443Y-114969967D01*
X131931397Y-115048175D01*
X132199968Y-115087700D01*
X132199973Y-115087700D01*
X132403479Y-115087700D01*
X132403481Y-115087700D01*
X132403486Y-115087699D01*
X132403498Y-115087699D01*
X132441124Y-115084944D01*
X132606440Y-115072845D01*
X132717188Y-115048175D01*
X132871402Y-115013823D01*
X132871404Y-115013822D01*
X132871409Y-115013821D01*
X133124961Y-114916846D01*
X133361691Y-114783986D01*
X133576553Y-114618075D01*
X133764969Y-114422647D01*
X133922923Y-114201868D01*
X134047048Y-113960444D01*
X134111961Y-113770167D01*
X134134694Y-113703533D01*
X134134694Y-113703529D01*
X134134698Y-113703520D01*
X134184006Y-113436571D01*
X134193920Y-113165289D01*
X134164230Y-112895453D01*
X134095568Y-112632816D01*
X133989397Y-112382976D01*
X133847981Y-112151256D01*
X133674332Y-111942596D01*
X133472154Y-111761443D01*
X133352697Y-111682411D01*
X133245755Y-111611659D01*
X133245753Y-111611658D01*
X132999957Y-111496433D01*
X132740003Y-111418225D01*
X132740001Y-111418224D01*
X132739999Y-111418224D01*
X132643699Y-111404052D01*
X132471432Y-111378700D01*
X132267919Y-111378700D01*
X132267901Y-111378700D01*
X132064960Y-111393555D01*
X132064946Y-111393557D01*
X131799997Y-111452576D01*
X131799990Y-111452579D01*
X131546436Y-111549555D01*
X131309712Y-111682411D01*
X131094840Y-111848330D01*
X131094839Y-111848332D01*
X130906434Y-112043749D01*
X130906432Y-112043751D01*
X130748478Y-112264529D01*
X130624356Y-112505946D01*
X130624349Y-112505962D01*
X130536705Y-112762866D01*
X130536701Y-112762884D01*
X130487393Y-113029831D01*
X130487393Y-113029833D01*
X130477479Y-113301109D01*
X128127500Y-113301109D01*
X128127500Y-91887291D01*
X128127520Y-91885721D01*
X128129757Y-91797441D01*
X128129756Y-91797440D01*
X128129757Y-91797437D01*
X128118933Y-91737049D01*
X128118280Y-91732387D01*
X128112074Y-91671363D01*
X128110894Y-91667602D01*
X128101784Y-91638568D01*
X128099917Y-91630955D01*
X128093858Y-91597148D01*
X128093858Y-91597147D01*
X128071095Y-91540161D01*
X128069527Y-91535755D01*
X128057807Y-91498400D01*
X128051161Y-91477216D01*
X128051160Y-91477214D01*
X128034492Y-91447185D01*
X128031124Y-91440095D01*
X128018378Y-91408183D01*
X127984612Y-91356950D01*
X127982183Y-91352942D01*
X127952409Y-91299298D01*
X127930034Y-91273234D01*
X127925306Y-91266963D01*
X127906404Y-91238284D01*
X127906399Y-91238278D01*
X127884715Y-91216595D01*
X127863019Y-91194899D01*
X127859828Y-91191455D01*
X127819865Y-91144904D01*
X127792694Y-91123872D01*
X127786807Y-91118687D01*
X125966229Y-89298109D01*
X130528279Y-89298109D01*
X130557968Y-89567935D01*
X130557970Y-89567948D01*
X130623878Y-89820052D01*
X130626632Y-89830584D01*
X130732803Y-90080424D01*
X130805088Y-90198868D01*
X130874216Y-90312140D01*
X130874217Y-90312142D01*
X130921410Y-90368850D01*
X131047868Y-90520804D01*
X131250046Y-90701957D01*
X131476447Y-90851742D01*
X131722243Y-90966967D01*
X131982197Y-91045175D01*
X132250768Y-91084700D01*
X132250773Y-91084700D01*
X132454279Y-91084700D01*
X132454281Y-91084700D01*
X132454286Y-91084699D01*
X132454298Y-91084699D01*
X132491924Y-91081944D01*
X132657240Y-91069845D01*
X132767988Y-91045175D01*
X132922202Y-91010823D01*
X132922204Y-91010822D01*
X132922209Y-91010821D01*
X133175761Y-90913846D01*
X133412491Y-90780986D01*
X133627353Y-90615075D01*
X133815769Y-90419647D01*
X133973723Y-90198868D01*
X134097848Y-89957444D01*
X134143225Y-89824434D01*
X134185494Y-89700533D01*
X134185494Y-89700529D01*
X134185498Y-89700520D01*
X134234806Y-89433571D01*
X134244720Y-89162289D01*
X134215030Y-88892453D01*
X134146368Y-88629816D01*
X134040197Y-88379976D01*
X133907877Y-88163161D01*
X133898783Y-88148259D01*
X133898782Y-88148257D01*
X133809314Y-88040751D01*
X133725132Y-87939596D01*
X133723011Y-87937696D01*
X133522954Y-87758443D01*
X133296555Y-87608659D01*
X133294644Y-87607763D01*
X133050757Y-87493433D01*
X132790803Y-87415225D01*
X132790801Y-87415224D01*
X132790799Y-87415224D01*
X132679053Y-87398779D01*
X132522232Y-87375700D01*
X132318719Y-87375700D01*
X132318701Y-87375700D01*
X132115760Y-87390555D01*
X132115746Y-87390557D01*
X131850797Y-87449576D01*
X131850790Y-87449579D01*
X131597236Y-87546555D01*
X131360512Y-87679411D01*
X131145640Y-87845330D01*
X131145639Y-87845332D01*
X130957234Y-88040749D01*
X130957232Y-88040751D01*
X130799278Y-88261529D01*
X130675156Y-88502946D01*
X130675149Y-88502962D01*
X130587505Y-88759866D01*
X130587501Y-88759884D01*
X130538193Y-89026831D01*
X130538193Y-89026833D01*
X130528279Y-89298109D01*
X125966229Y-89298109D01*
X125715101Y-89046981D01*
X125681616Y-88985658D01*
X125686600Y-88915966D01*
X125728472Y-88860033D01*
X125792784Y-88836045D01*
X125792778Y-88835980D01*
X125793031Y-88835953D01*
X125793936Y-88835616D01*
X125797425Y-88835491D01*
X125799244Y-88835300D01*
X125799246Y-88835300D01*
X125984403Y-88795944D01*
X126157330Y-88718951D01*
X126310471Y-88607688D01*
X126437133Y-88467016D01*
X126531779Y-88303084D01*
X126590274Y-88123056D01*
X126610060Y-87934800D01*
X126590274Y-87746544D01*
X126531779Y-87566516D01*
X126437133Y-87402584D01*
X126426302Y-87390555D01*
X126361950Y-87319084D01*
X126331720Y-87256092D01*
X126330100Y-87236112D01*
X126330100Y-85065619D01*
X126330100Y-82479447D01*
X126349784Y-82412412D01*
X126366409Y-82391780D01*
X127110019Y-81648169D01*
X127171342Y-81614685D01*
X127241034Y-81619669D01*
G37*
G04 #@! TD.AperFunction*
G04 #@! TA.AperFunction,Conductor*
G36*
X135367600Y-78648633D02*
G01*
X135581083Y-78591433D01*
X135581092Y-78591429D01*
X135795178Y-78491600D01*
X135988682Y-78356105D01*
X136155705Y-78189082D01*
X136285719Y-78003405D01*
X136340296Y-77959781D01*
X136409795Y-77952588D01*
X136472149Y-77984110D01*
X136488869Y-78003405D01*
X136619105Y-78189401D01*
X136786199Y-78356495D01*
X136880214Y-78422325D01*
X136979765Y-78492032D01*
X136979767Y-78492033D01*
X136979770Y-78492035D01*
X137193937Y-78591903D01*
X137193943Y-78591904D01*
X137193944Y-78591905D01*
X137248885Y-78606626D01*
X137422192Y-78653063D01*
X137598634Y-78668500D01*
X137657599Y-78673659D01*
X137657600Y-78673659D01*
X137657601Y-78673659D01*
X137716566Y-78668500D01*
X137893008Y-78653063D01*
X138121263Y-78591903D01*
X138335430Y-78492035D01*
X138529001Y-78356495D01*
X138696095Y-78189401D01*
X138826024Y-78003842D01*
X138880602Y-77960217D01*
X138950100Y-77953023D01*
X139012455Y-77984546D01*
X139029175Y-78003842D01*
X139158881Y-78189082D01*
X139159105Y-78189401D01*
X139326199Y-78356495D01*
X139390106Y-78401243D01*
X139437761Y-78434612D01*
X139481386Y-78489189D01*
X139488579Y-78558687D01*
X139457057Y-78621042D01*
X139401216Y-78655268D01*
X139397717Y-78656284D01*
X139378679Y-78660225D01*
X139358811Y-78662734D01*
X139315484Y-78679888D01*
X139309958Y-78681779D01*
X139265214Y-78694779D01*
X139265210Y-78694781D01*
X139247966Y-78704979D01*
X139230505Y-78713533D01*
X139211874Y-78720910D01*
X139211862Y-78720917D01*
X139174170Y-78748302D01*
X139169287Y-78751509D01*
X139129180Y-78775229D01*
X139115014Y-78789395D01*
X139100224Y-78802027D01*
X139084014Y-78813804D01*
X139084011Y-78813807D01*
X139054310Y-78849709D01*
X139050377Y-78854031D01*
X137019428Y-80884979D01*
X136958105Y-80918464D01*
X136891484Y-80914579D01*
X136811816Y-80887229D01*
X136566535Y-80846300D01*
X136317865Y-80846300D01*
X136072583Y-80887229D01*
X135837397Y-80967969D01*
X135837388Y-80967972D01*
X135618693Y-81086324D01*
X135422457Y-81239061D01*
X135263430Y-81411810D01*
X135203542Y-81447801D01*
X135133704Y-81445700D01*
X135080970Y-81411810D01*
X134995285Y-81318732D01*
X134921944Y-81239062D01*
X134725709Y-81086326D01*
X134725707Y-81086325D01*
X134725706Y-81086324D01*
X134507011Y-80967972D01*
X134507002Y-80967969D01*
X134271816Y-80887229D01*
X134026535Y-80846300D01*
X133777865Y-80846300D01*
X133532583Y-80887229D01*
X133297397Y-80967969D01*
X133297388Y-80967972D01*
X133078693Y-81086324D01*
X132882457Y-81239061D01*
X132714037Y-81422013D01*
X132714029Y-81422024D01*
X132713655Y-81422597D01*
X132713442Y-81422778D01*
X132710890Y-81426058D01*
X132710214Y-81425532D01*
X132660504Y-81467947D01*
X132597065Y-81478102D01*
X132585634Y-81476916D01*
X131853332Y-82209218D01*
X131830882Y-82132760D01*
X131751595Y-82009387D01*
X131640762Y-81913349D01*
X131507361Y-81852427D01*
X131503565Y-81851881D01*
X132232256Y-81123190D01*
X132231027Y-81103384D01*
X132246519Y-81035254D01*
X132283694Y-80997147D01*
X132282456Y-80995551D01*
X132288612Y-80990774D01*
X132288620Y-80990770D01*
X132302789Y-80976599D01*
X132317579Y-80963968D01*
X132333787Y-80952194D01*
X132363499Y-80916276D01*
X132367412Y-80911976D01*
X132961387Y-80318002D01*
X132973642Y-80308186D01*
X132973459Y-80307964D01*
X132979468Y-80302991D01*
X132979477Y-80302986D01*
X133026207Y-80253222D01*
X133027446Y-80251943D01*
X133047720Y-80231671D01*
X133051979Y-80226178D01*
X133055752Y-80221761D01*
X133087662Y-80187782D01*
X133097315Y-80170220D01*
X133107989Y-80153970D01*
X133120273Y-80138136D01*
X133138780Y-80095367D01*
X133141349Y-80090124D01*
X133154461Y-80066274D01*
X133163797Y-80049292D01*
X133168777Y-80029891D01*
X133175078Y-80011488D01*
X133183038Y-79993096D01*
X133190330Y-79947049D01*
X133191511Y-79941352D01*
X133193086Y-79935219D01*
X133203100Y-79896219D01*
X133203099Y-79876186D01*
X133204627Y-79856783D01*
X133207759Y-79837008D01*
X133207760Y-79837006D01*
X133203375Y-79790615D01*
X133203100Y-79784777D01*
X133203100Y-78593226D01*
X133222785Y-78526187D01*
X133255974Y-78491654D01*
X133449001Y-78356495D01*
X133616095Y-78189401D01*
X133746330Y-78003405D01*
X133800907Y-77959781D01*
X133870405Y-77952587D01*
X133932760Y-77984110D01*
X133949479Y-78003405D01*
X134079490Y-78189078D01*
X134246517Y-78356105D01*
X134440021Y-78491600D01*
X134654107Y-78591429D01*
X134654116Y-78591433D01*
X134867600Y-78648634D01*
X134867600Y-77753501D01*
X134975285Y-77802680D01*
X135081837Y-77818000D01*
X135153363Y-77818000D01*
X135259915Y-77802680D01*
X135367600Y-77753501D01*
X135367600Y-78648633D01*
G37*
G04 #@! TD.AperFunction*
G04 #@! TA.AperFunction,Conductor*
G36*
X144117855Y-61449146D02*
G01*
X144134575Y-61468442D01*
X144264281Y-61653682D01*
X144264505Y-61654001D01*
X144431599Y-61821095D01*
X144528384Y-61888865D01*
X144625165Y-61956632D01*
X144625167Y-61956633D01*
X144625170Y-61956635D01*
X144839337Y-62056503D01*
X144839343Y-62056504D01*
X144839344Y-62056505D01*
X144894285Y-62071226D01*
X145067592Y-62117663D01*
X145255918Y-62134139D01*
X145302999Y-62138259D01*
X145303000Y-62138259D01*
X145303001Y-62138259D01*
X145342234Y-62134826D01*
X145538408Y-62117663D01*
X145638873Y-62090743D01*
X145708722Y-62092406D01*
X145758647Y-62122837D01*
X149579181Y-65943371D01*
X149612666Y-66004694D01*
X149615500Y-66031052D01*
X149615500Y-69633912D01*
X149595815Y-69700951D01*
X149583650Y-69716884D01*
X149508466Y-69800384D01*
X149413821Y-69964315D01*
X149413818Y-69964322D01*
X149355327Y-70144340D01*
X149355326Y-70144344D01*
X149335540Y-70332600D01*
X149355326Y-70520856D01*
X149355327Y-70520859D01*
X149413818Y-70700877D01*
X149413821Y-70700884D01*
X149508467Y-70864816D01*
X149635129Y-71005488D01*
X149680129Y-71038182D01*
X149722794Y-71093512D01*
X149728773Y-71163125D01*
X149696167Y-71224920D01*
X149635328Y-71259278D01*
X149607243Y-71262500D01*
X147806093Y-71262500D01*
X147804530Y-71262480D01*
X147716237Y-71260243D01*
X147716236Y-71260243D01*
X147716227Y-71260243D01*
X147655853Y-71271065D01*
X147651187Y-71271719D01*
X147590163Y-71277925D01*
X147590162Y-71277925D01*
X147557386Y-71288208D01*
X147549759Y-71290080D01*
X147515950Y-71296140D01*
X147515947Y-71296141D01*
X147458968Y-71318899D01*
X147454531Y-71320478D01*
X147396017Y-71338838D01*
X147396006Y-71338843D01*
X147365982Y-71355507D01*
X147358890Y-71358875D01*
X147332862Y-71369273D01*
X147326983Y-71371622D01*
X147326982Y-71371622D01*
X147326981Y-71371623D01*
X147326973Y-71371627D01*
X147275755Y-71405383D01*
X147271726Y-71407824D01*
X147218102Y-71437588D01*
X147218099Y-71437590D01*
X147192027Y-71459970D01*
X147185760Y-71464695D01*
X147157082Y-71483598D01*
X147157075Y-71483603D01*
X147113716Y-71526962D01*
X147110261Y-71530164D01*
X147063706Y-71570132D01*
X147063705Y-71570133D01*
X147042676Y-71597300D01*
X147037484Y-71603194D01*
X142704570Y-75936108D01*
X142643247Y-75969593D01*
X142627698Y-75971955D01*
X142502196Y-75982936D01*
X142502186Y-75982938D01*
X142273944Y-76044094D01*
X142273935Y-76044098D01*
X142059771Y-76143964D01*
X142059769Y-76143965D01*
X141866197Y-76279505D01*
X141699105Y-76446597D01*
X141569175Y-76632158D01*
X141514598Y-76675783D01*
X141445100Y-76682977D01*
X141382745Y-76651454D01*
X141366025Y-76632158D01*
X141236094Y-76446597D01*
X141069002Y-76279506D01*
X141068995Y-76279501D01*
X140875434Y-76143967D01*
X140875430Y-76143965D01*
X140875429Y-76143964D01*
X140661263Y-76044097D01*
X140661259Y-76044096D01*
X140661255Y-76044094D01*
X140433013Y-75982938D01*
X140433003Y-75982936D01*
X140197601Y-75962341D01*
X140197599Y-75962341D01*
X139962196Y-75982936D01*
X139962186Y-75982938D01*
X139733944Y-76044094D01*
X139733935Y-76044098D01*
X139519771Y-76143964D01*
X139519769Y-76143965D01*
X139326197Y-76279505D01*
X139159108Y-76446594D01*
X139029174Y-76632160D01*
X138974597Y-76675784D01*
X138905098Y-76682977D01*
X138842744Y-76651455D01*
X138826029Y-76632164D01*
X138696095Y-76446599D01*
X138696093Y-76446596D01*
X138529002Y-76279506D01*
X138528995Y-76279501D01*
X138335434Y-76143967D01*
X138335430Y-76143965D01*
X138335429Y-76143964D01*
X138121263Y-76044097D01*
X138121259Y-76044096D01*
X138121255Y-76044094D01*
X137893013Y-75982938D01*
X137893003Y-75982936D01*
X137657601Y-75962341D01*
X137657599Y-75962341D01*
X137422196Y-75982936D01*
X137422186Y-75982938D01*
X137193944Y-76044094D01*
X137193935Y-76044098D01*
X136979771Y-76143964D01*
X136979769Y-76143965D01*
X136786197Y-76279505D01*
X136619108Y-76446594D01*
X136488869Y-76632595D01*
X136434292Y-76676219D01*
X136364793Y-76683412D01*
X136302439Y-76651890D01*
X136285719Y-76632594D01*
X136155713Y-76446926D01*
X136155708Y-76446920D01*
X135988682Y-76279894D01*
X135795178Y-76144399D01*
X135581092Y-76044570D01*
X135581086Y-76044567D01*
X135367600Y-75987364D01*
X135367600Y-76882498D01*
X135259915Y-76833320D01*
X135153363Y-76818000D01*
X135081837Y-76818000D01*
X134975285Y-76833320D01*
X134867600Y-76882498D01*
X134867600Y-75963950D01*
X134887285Y-75896911D01*
X134903913Y-75876275D01*
X138066788Y-72713401D01*
X138079042Y-72703586D01*
X138078859Y-72703364D01*
X138084868Y-72698391D01*
X138084877Y-72698386D01*
X138131607Y-72648622D01*
X138132846Y-72647343D01*
X138153120Y-72627071D01*
X138157379Y-72621578D01*
X138161152Y-72617161D01*
X138193062Y-72583182D01*
X138202715Y-72565620D01*
X138213389Y-72549370D01*
X138225673Y-72533536D01*
X138244180Y-72490767D01*
X138246749Y-72485524D01*
X138269196Y-72444693D01*
X138269197Y-72444692D01*
X138274177Y-72425291D01*
X138280478Y-72406888D01*
X138288438Y-72388496D01*
X138295730Y-72342449D01*
X138296911Y-72336752D01*
X138308500Y-72291619D01*
X138308500Y-72271583D01*
X138310027Y-72252182D01*
X138313160Y-72232404D01*
X138308775Y-72186015D01*
X138308500Y-72180177D01*
X138308500Y-69964487D01*
X138328185Y-69897448D01*
X138340350Y-69881515D01*
X138358891Y-69860922D01*
X138415533Y-69798016D01*
X138510179Y-69634084D01*
X138568674Y-69454056D01*
X138588460Y-69265800D01*
X138568674Y-69077544D01*
X138510179Y-68897516D01*
X138415533Y-68733584D01*
X138415533Y-68733583D01*
X138340350Y-68650084D01*
X138310120Y-68587092D01*
X138308500Y-68567112D01*
X138308500Y-62057826D01*
X138328185Y-61990787D01*
X138361374Y-61956254D01*
X138554401Y-61821095D01*
X138721495Y-61654001D01*
X138851424Y-61468442D01*
X138906002Y-61424817D01*
X138975500Y-61417623D01*
X139037855Y-61449146D01*
X139054575Y-61468442D01*
X139184281Y-61653682D01*
X139184505Y-61654001D01*
X139351599Y-61821095D01*
X139448384Y-61888865D01*
X139545165Y-61956632D01*
X139545167Y-61956633D01*
X139545170Y-61956635D01*
X139759337Y-62056503D01*
X139759343Y-62056504D01*
X139759344Y-62056505D01*
X139814285Y-62071226D01*
X139987592Y-62117663D01*
X140175918Y-62134139D01*
X140222999Y-62138259D01*
X140223000Y-62138259D01*
X140223001Y-62138259D01*
X140262234Y-62134826D01*
X140458408Y-62117663D01*
X140686663Y-62056503D01*
X140900830Y-61956635D01*
X141094401Y-61821095D01*
X141261495Y-61654001D01*
X141391424Y-61468442D01*
X141446002Y-61424817D01*
X141515500Y-61417623D01*
X141577855Y-61449146D01*
X141594575Y-61468442D01*
X141724281Y-61653682D01*
X141724505Y-61654001D01*
X141891599Y-61821095D01*
X141988384Y-61888865D01*
X142085165Y-61956632D01*
X142085167Y-61956633D01*
X142085170Y-61956635D01*
X142299337Y-62056503D01*
X142299343Y-62056504D01*
X142299344Y-62056505D01*
X142354285Y-62071226D01*
X142527592Y-62117663D01*
X142715918Y-62134139D01*
X142762999Y-62138259D01*
X142763000Y-62138259D01*
X142763001Y-62138259D01*
X142802234Y-62134826D01*
X142998408Y-62117663D01*
X143226663Y-62056503D01*
X143440830Y-61956635D01*
X143634401Y-61821095D01*
X143801495Y-61654001D01*
X143931424Y-61468442D01*
X143986002Y-61424817D01*
X144055500Y-61417623D01*
X144117855Y-61449146D01*
G37*
G04 #@! TD.AperFunction*
M02*
