G04 #@! TF.GenerationSoftware,KiCad,Pcbnew,7.0.5*
G04 #@! TF.CreationDate,2023-08-03T15:05:36+02:00*
G04 #@! TF.ProjectId,Siguelineas,53696775-656c-4696-9e65-61732e6b6963,rev?*
G04 #@! TF.SameCoordinates,Original*
G04 #@! TF.FileFunction,Soldermask,Bot*
G04 #@! TF.FilePolarity,Negative*
%FSLAX46Y46*%
G04 Gerber Fmt 4.6, Leading zero omitted, Abs format (unit mm)*
G04 Created by KiCad (PCBNEW 7.0.5) date 2023-08-03 15:05:36*
%MOMM*%
%LPD*%
G01*
G04 APERTURE LIST*
G04 Aperture macros list*
%AMRoundRect*
0 Rectangle with rounded corners*
0 $1 Rounding radius*
0 $2 $3 $4 $5 $6 $7 $8 $9 X,Y pos of 4 corners*
0 Add a 4 corners polygon primitive as box body*
4,1,4,$2,$3,$4,$5,$6,$7,$8,$9,$2,$3,0*
0 Add four circle primitives for the rounded corners*
1,1,$1+$1,$2,$3*
1,1,$1+$1,$4,$5*
1,1,$1+$1,$6,$7*
1,1,$1+$1,$8,$9*
0 Add four rect primitives between the rounded corners*
20,1,$1+$1,$2,$3,$4,$5,0*
20,1,$1+$1,$4,$5,$6,$7,0*
20,1,$1+$1,$6,$7,$8,$9,0*
20,1,$1+$1,$8,$9,$2,$3,0*%
G04 Aperture macros list end*
%ADD10C,3.000000*%
%ADD11R,2.000000X2.000000*%
%ADD12C,2.000000*%
%ADD13C,3.800000*%
%ADD14R,1.700000X1.700000*%
%ADD15O,1.700000X1.700000*%
%ADD16C,3.200000*%
%ADD17C,5.600000*%
%ADD18O,2.200000X3.500000*%
%ADD19R,1.500000X2.500000*%
%ADD20O,1.500000X2.500000*%
%ADD21C,2.200000*%
%ADD22RoundRect,0.250000X-0.350000X-0.625000X0.350000X-0.625000X0.350000X0.625000X-0.350000X0.625000X0*%
%ADD23O,1.200000X1.750000*%
%ADD24O,2.500000X2.000000*%
%ADD25R,3.800000X3.800000*%
G04 APERTURE END LIST*
D10*
X119470800Y-82753200D03*
X166420800Y-82753200D03*
X119470800Y-58243200D03*
X166420800Y-58243200D03*
D11*
X127430800Y-83173200D03*
D12*
X129970800Y-83173200D03*
X132510800Y-83173200D03*
X135050800Y-83173200D03*
X137590800Y-83173200D03*
X140130800Y-83173200D03*
X142670800Y-83173200D03*
X145210800Y-83173200D03*
X147750800Y-83173200D03*
X150290800Y-83173200D03*
X152830800Y-83173200D03*
X155370800Y-83173200D03*
X157910800Y-83173200D03*
X160450800Y-83173200D03*
X162990800Y-83173200D03*
X162990800Y-57773200D03*
X160450800Y-57773200D03*
X157910800Y-57773200D03*
X155370800Y-57773200D03*
X152830800Y-57773200D03*
X150290800Y-57773200D03*
X147750800Y-57773200D03*
X145210800Y-57773200D03*
X142670800Y-57773200D03*
X140130800Y-57773200D03*
X137590800Y-57773200D03*
X135050800Y-57773200D03*
X132510800Y-57773200D03*
X129970800Y-57773200D03*
X127430800Y-57773200D03*
D13*
X99237800Y-120116600D03*
D14*
X100101000Y-60101000D03*
D15*
X100101000Y-62641000D03*
X100101000Y-65181000D03*
X100101000Y-67721000D03*
X100101000Y-70261000D03*
X100101000Y-72801000D03*
X100101000Y-75341000D03*
X100101000Y-77881000D03*
X100101000Y-80421000D03*
X100101000Y-82961000D03*
D16*
X132207000Y-114071400D03*
D17*
X129540000Y-47701200D03*
D16*
X156210000Y-114071400D03*
D17*
X189230000Y-45974000D03*
D14*
X126542800Y-103022400D03*
D15*
X126542800Y-100482400D03*
X126542800Y-97942400D03*
X126542800Y-95402400D03*
X126542800Y-92862400D03*
X126542800Y-90322400D03*
D16*
X156210000Y-90017600D03*
D13*
X189661800Y-101879400D03*
X99212400Y-101879400D03*
X189687200Y-120116600D03*
D18*
X167386000Y-139674600D03*
X175586000Y-139674600D03*
D19*
X169486000Y-139674600D03*
D20*
X171486000Y-139674600D03*
X173486000Y-139674600D03*
D21*
X110083600Y-82550000D03*
D22*
X174294800Y-98044000D03*
D23*
X176294800Y-98044000D03*
D14*
X172974000Y-90932000D03*
D15*
X175514000Y-90932000D03*
X178054000Y-90932000D03*
X180594000Y-90932000D03*
X183134000Y-90932000D03*
X185674000Y-90932000D03*
X188214000Y-90932000D03*
X190754000Y-90932000D03*
D17*
X114300000Y-47752000D03*
D21*
X156286200Y-139928600D03*
D17*
X189230000Y-52832000D03*
D14*
X99542600Y-90297000D03*
D15*
X102082600Y-90297000D03*
D21*
X132461000Y-139979400D03*
D14*
X172999400Y-74396600D03*
D15*
X175539400Y-74396600D03*
X178079400Y-74396600D03*
X180619400Y-74396600D03*
X183159400Y-74396600D03*
X185699400Y-74396600D03*
X188239400Y-74396600D03*
X190779400Y-74396600D03*
D17*
X99314000Y-45974000D03*
X159512000Y-47701200D03*
D22*
X114128800Y-96367600D03*
D23*
X116128800Y-96367600D03*
D14*
X164617400Y-90830400D03*
D15*
X164617400Y-93370400D03*
D14*
X140411200Y-140335000D03*
D15*
X142951200Y-140335000D03*
X145491200Y-140335000D03*
X148031200Y-140335000D03*
D12*
X173330800Y-60818200D03*
X179830800Y-60818200D03*
X173330800Y-65318200D03*
X179830800Y-65318200D03*
X190930600Y-65343600D03*
X184430600Y-65343600D03*
X190930600Y-60843600D03*
X184430600Y-60843600D03*
D17*
X174498000Y-47752000D03*
D24*
X96469200Y-130151600D03*
X96469200Y-139291600D03*
X111709200Y-130151600D03*
X111709200Y-139291600D03*
D16*
X132257800Y-90068400D03*
D21*
X110236000Y-60756800D03*
D13*
X190042800Y-136550400D03*
D25*
X190042800Y-131550400D03*
D17*
X99314000Y-52832000D03*
M02*
